<svg width="20" height="18" viewBox="0 0 20 18" fill="none" xmlns="http://www.w3.org/2000/svg">
<path d="M0.0467648 0.476821C-0.0724405 0.238411 0.0467648 0 0.285175 0H5.05339C5.17259 0 5.17259 0 5.2918 0.119205L12.6825 8.82119C12.8017 8.9404 12.8017 9.0596 12.6825 9.17881L5.2918 17.8808C5.2918 17.8808 5.17259 18 5.05339 18H0.285175C0.0467648 18 -0.0724405 17.7616 0.0467648 17.5232L6.96067 9.0596C7.07988 8.9404 7.07988 8.82119 6.96067 8.70199L0.0467648 0.476821ZM19.358 0C19.5964 0 19.7156 0.238411 19.5964 0.476821L13.517 7.86755L10.7752 4.4106L14.3514 0.119205C14.3514 0.119205 14.4706 0 14.5898 0H19.358ZM10.656 13.4702L14.3514 17.8808C14.3514 18 14.4706 18 14.5898 18H19.358C19.5964 18 19.7156 17.7616 19.5964 17.5232L13.517 10.1325L10.656 13.4702Z" fill="url(#paint0_linear_649_109)"/>
<defs>
<linearGradient id="paint0_linear_649_109" x1="20.0391" y1="1.40918e-06" x2="-0.460938" y2="18" gradientUnits="userSpaceOnUse">
<stop stop-color="#525F74"/>
<stop offset="1" stop-color="#263247"/>
</linearGradient>
</defs>
</svg>
