<svg width="34" height="36" viewBox="0 0 34 36" fill="none" xmlns="http://www.w3.org/2000/svg">
<path d="M4 1V9M4 21V28M30 6V18M30 30V35M17 1V5M17 21V30M18 21H16C14.9 21 14 20.1 14 19V7C14 5.9 14.9 5 16 5H18C19.1 5 20 5.9 20 7V19C20 20.1 19.1 21 18 21ZM33 28V20C33 18.9 32.1 18 31 18H29C27.9 18 27 18.9 27 20V28C27 29.1 27.9 30 29 30H31C32.1 30 33 29.1 33 28ZM7 19V11C7 9.9 6.1 9 5 9H3C1.9 9 1 9.9 1 11V19C1 20.1 1.9 21 3 21H5C6.1 21 7 20.1 7 19Z" stroke="url(#paint0_linear_649_53)" stroke-width="2" stroke-miterlimit="10" stroke-linecap="round" stroke-linejoin="round"/>
<defs>
<linearGradient id="paint0_linear_649_53" x1="33" y1="1" x2="-0.937615" y2="32.9413" gradientUnits="userSpaceOnUse">
<stop stop-color="#00FDB9"/>
<stop offset="1" stop-color="#00E5FD"/>
</linearGradient>
</defs>
</svg>
