<svg width="36" height="36" viewBox="0 0 36 36" fill="none" xmlns="http://www.w3.org/2000/svg">
<path d="M35 18C35 27.4 27.4 35 18 35C8.6 35 1 27.4 1 18C1 8.6 8.6 1 18 1C27.4 1 35 8.6 35 18ZM23 6C16.4 6 11 11.4 11 18C11 24.6 16.4 30 23 30C29.6 30 35 24.6 35 18C35 11.4 29.6 6 23 6ZM16 13C13.2 13 11 15.2 11 18C11 20.8 13.2 23 16 23C18.8 23 21 20.8 21 18C21 15.2 18.8 13 16 13Z" stroke="url(#paint0_linear_649_61)" stroke-width="2" stroke-miterlimit="10" stroke-linecap="round" stroke-linejoin="round"/>
<defs>
<linearGradient id="paint0_linear_649_61" x1="35" y1="1" x2="1" y2="35" gradientUnits="userSpaceOnUse">
<stop stop-color="#00FDB9"/>
<stop offset="1" stop-color="#00E5FD"/>
</linearGradient>
</defs>
</svg>
