<svg width="36" height="36" viewBox="0 0 36 36" fill="none" xmlns="http://www.w3.org/2000/svg">
<path d="M32.6 9.4C34.1 11.9 35 14.9 35 18C35 27.4 27.4 35 18 35C8.6 35 1 27.4 1 18C1 8.6 8.6 1 18 1C22.7 1 26.9 2.9 30 5.9M26.5 9.5C24.3 7.3 21.3 6 18 6C11.4 6 6 11.4 6 18C6 24.6 11.4 30 18 30C24.6 30 30 24.6 30 18C30 16.2 29.6 14.6 28.9 13.1M21.5 14.5C20.6 13.6 19.4 13 18 13C15.2 13 13 15.2 13 18C13 20.8 15.2 23 18 23C20.4 23 22.4 21.3 22.9 19M35 1L18 18" stroke="url(#paint0_linear_649_59)" stroke-width="2" stroke-miterlimit="10" stroke-linecap="round" stroke-linejoin="round"/>
<defs>
<linearGradient id="paint0_linear_649_59" x1="35" y1="1" x2="1" y2="35" gradientUnits="userSpaceOnUse">
<stop stop-color="#00FDB9"/>
<stop offset="1" stop-color="#00E5FD"/>
</linearGradient>
</defs>
</svg>
