<svg width="36" height="36" viewBox="0 0 36 36" fill="none" xmlns="http://www.w3.org/2000/svg">
<path d="M35 18C35 27.4 27.4 35 18 35C8.6 35 1 27.4 1 18C1 8.6 8.6 1 18 1C27.4 1 35 8.6 35 18ZM18 21L19.7 9C19.8 8 19 7 18 7C16.9 7 16.1 7.9 16.3 9L18 21ZM18 25C16.9 25 16 25.9 16 27C16 28.1 16.9 29 18 29C19.1 29 20 28.1 20 27C20 25.9 19.1 25 18 25Z" stroke="url(#paint0_linear_649_120)" stroke-width="2" stroke-miterlimit="10" stroke-linecap="round" stroke-linejoin="round"/>
<defs>
<linearGradient id="paint0_linear_649_120" x1="35" y1="1" x2="1" y2="35" gradientUnits="userSpaceOnUse">
<stop stop-color="#00FDB9"/>
<stop offset="1" stop-color="#00E5FD"/>
</linearGradient>
</defs>
</svg>
