<svg width="36" height="36" viewBox="0 0 36 36" fill="none" xmlns="http://www.w3.org/2000/svg">
<path d="M18 19H4C2.3 19 1 17.7 1 16V4C1 2.3 2.3 1 4 1H18C19.7 1 21 2.3 21 4V16C21 17.7 19.7 19 18 19ZM21 32V30C21 28.3 19.7 27 18 27H4C2.3 27 1 28.3 1 30V32C1 33.7 2.3 35 4 35H18C19.7 35 21 33.7 21 32ZM35 6V4C35 2.3 33.7 1 32 1H30C28.3 1 27 2.3 27 4V6C27 7.7 28.3 9 30 9H32C33.7 9 35 7.7 35 6ZM35 32V18C35 16.3 33.7 15 32 15H30C28.3 15 27 16.3 27 18V32C27 33.7 28.3 35 30 35H32C33.7 35 35 33.7 35 32Z" stroke="url(#paint0_linear_649_55)" stroke-width="2" stroke-miterlimit="10" stroke-linecap="round" stroke-linejoin="round"/>
<defs>
<linearGradient id="paint0_linear_649_55" x1="35" y1="1" x2="1" y2="35" gradientUnits="userSpaceOnUse">
<stop stop-color="#00FDB9"/>
<stop offset="1" stop-color="#00E5FD"/>
</linearGradient>
</defs>
</svg>
