<svg width="475" height="585" viewBox="0 0 475 585" fill="none" xmlns="http://www.w3.org/2000/svg">
<rect opacity="0.3" x="166" y="32" width="308" height="517" rx="19" stroke="url(#paint0_linear_649_128)" stroke-width="2"/>
<path opacity="0.36" d="M164 518L475 301V350L164 567V518Z" fill="url(#paint1_linear_649_128)"/>
<path opacity="0.36" d="M164 288L475 71V260L164 477V288Z" fill="url(#paint2_linear_649_128)"/>
<rect opacity="0.67" x="115" width="310" height="560" rx="20" fill="url(#paint3_linear_649_128)"/>
<path opacity="0.25" fill-rule="evenodd" clip-rule="evenodd" d="M115 193C115 193 228 45 295 45C362 45 425 132 425 143C425 154 425 288 425 288C425 288 372 266 305 266C238 266 138 585 115 585C115 565 115 193 115 193Z" fill="url(#paint4_linear_649_128)"/>
<circle opacity="0.4" cx="99" cy="231" r="99" fill="url(#paint5_radial_649_128)"/>
<circle opacity="0.4" cx="268" cy="106" r="99" fill="url(#paint6_radial_649_128)"/>
<circle opacity="0.4" cx="358" cy="319" r="99" fill="url(#paint7_radial_649_128)"/>
<circle opacity="0.4" cx="185" cy="391" r="99" fill="url(#paint8_radial_649_128)"/>
<path d="M441.375 479H372.625C364.031 479 357 471.969 357 463.375V388.375C357 379.781 364.031 372.75 372.625 372.75H441.375C449.969 372.75 457 379.781 457 388.375V463.375C457 471.969 449.969 479 441.375 479Z" fill="url(#paint9_linear_649_128)"/>
<path d="M453.875 402.438H360.125C358.406 402.438 357 401.031 357 399.312V388.375C357 379.781 364.031 372.75 372.625 372.75H441.375C449.969 372.75 457 379.781 457 388.375V399.312C457 401.031 455.594 402.438 453.875 402.438Z" fill="url(#paint10_linear_649_128)"/>
<path d="M442.156 392.281C444.745 392.281 446.844 390.183 446.844 387.594C446.844 385.005 444.745 382.906 442.156 382.906C439.567 382.906 437.469 385.005 437.469 387.594C437.469 390.183 439.567 392.281 442.156 392.281Z" fill="url(#paint11_linear_649_128)"/>
<path d="M426.531 392.281C429.12 392.281 431.219 390.183 431.219 387.594C431.219 385.005 429.12 382.906 426.531 382.906C423.942 382.906 421.844 385.005 421.844 387.594C421.844 390.183 423.942 392.281 426.531 392.281Z" fill="url(#paint12_linear_649_128)"/>
<path d="M382.781 413.375L372.625 423.531L382.781 433.688" stroke="#686868" stroke-width="6" stroke-miterlimit="10" stroke-linecap="round" stroke-linejoin="round"/>
<path d="M406.219 413.375L416.375 423.531L406.219 433.688" stroke="#686868" stroke-width="6" stroke-miterlimit="10" stroke-linecap="round" stroke-linejoin="round"/>
<path d="M398.406 413.375L390.594 433.688" stroke="#686868" stroke-width="6" stroke-miterlimit="10" stroke-linecap="round" stroke-linejoin="round"/>
<path d="M372.625 448.531H417.938" stroke="#686868" stroke-width="6" stroke-miterlimit="10" stroke-linecap="round" stroke-linejoin="round"/>
<path d="M372.625 459.469H441.375" stroke="#686868" stroke-width="6" stroke-miterlimit="10" stroke-linecap="round" stroke-linejoin="round"/>
<g filter="url(#filter0_d_649_128)">
<path d="M266 211.6V182H262V211.6C262 213.1 261.2 214.4 259.9 215.1L257.1 216.7C254.6 218.1 253 220.8 253 223.7V356.3C253 359.2 254.6 361.9 257.1 363.3L259.9 364.9C261.2 365.6 262 366.9 262 368.4V418H266V368.4C266 366.9 266.8 365.6 268.1 364.9L270.9 363.3C273.4 361.9 275 359.2 275 356.3V223.7C275 220.8 273.4 218.1 270.9 216.7L268.1 215.1C266.8 214.4 266 213.1 266 211.6Z" fill="url(#paint13_linear_649_128)"/>
<path d="M224 201.6V152H220V201.6C220 203.1 219.2 204.4 217.9 205.1L215.1 206.7C212.6 208.1 211 210.8 211 213.7V236.3C211 239.2 212.6 241.9 215.1 243.3L217.9 244.9C219.2 245.6 220 246.9 220 248.4V258H224V248.4C224 246.9 224.8 245.6 226.1 244.9L228.9 243.3C231.4 241.9 233 239.2 233 236.3V213.7C233 210.8 231.4 208.1 228.9 206.7L226.1 205.1C224.8 204.4 224 203.1 224 201.6Z" fill="url(#paint14_linear_649_128)"/>
<path d="M192 221.6V212H188V221.6C188 223.1 187.2 224.4 185.9 225.1L183.1 226.7C180.6 228.1 179 230.8 179 233.7V286.3C179 289.2 180.6 291.9 183.1 293.3L185.9 294.9C187.2 295.6 188 296.9 188 298.4V338H192V298.4C192 296.9 192.8 295.6 194.1 294.9L196.9 293.3C199.4 291.9 201 289.2 201 286.3V233.7C201 230.8 199.4 228.1 196.9 226.7L194.1 225.1C192.8 224.4 192 223.1 192 221.6Z" fill="url(#paint15_linear_649_128)"/>
<path d="M96 261.6V232H92V261.6C92 263.1 91.2 264.4 89.9 265.1L87.1 266.7C84.6 268.1 83 270.8 83 273.7V346.3C83 349.2 84.6 351.9 87.1 353.3L89.9 354.9C91.2 355.6 92 356.9 92 358.4V428H96V358.4C96 356.9 96.8 355.6 98.1 354.9L100.9 353.3C103.4 351.9 105 349.2 105 346.3V273.7C105 270.8 103.4 268.1 100.9 266.7L98.1 265.1C96.8 264.4 96 263.1 96 261.6Z" fill="url(#paint16_linear_649_128)"/>
<path d="M160 241.6V232H156V241.6C156 243.1 155.2 244.4 153.9 245.1L151.1 246.7C148.6 248.1 147 250.8 147 253.7V266.3C147 269.2 148.6 271.9 151.1 273.3L153.9 274.9C155.2 275.6 156 276.9 156 278.4V298H160V278.4C160 276.9 160.8 275.6 162.1 274.9L164.9 273.3C167.4 271.9 169 269.2 169 266.3V253.7C169 250.8 167.4 248.1 164.9 246.7L162.1 245.1C160.8 244.4 160 243.1 160 241.6Z" fill="url(#paint17_linear_649_128)"/>
<path d="M128 417.6V332H124V417.6C124 419.1 123.2 420.4 121.9 421.1L119.1 422.7C116.6 424.1 115 426.8 115 429.7V436.3C115 439.2 116.6 441.9 119.1 443.3L121.9 444.9C123.2 445.6 124 446.9 124 448.4V468H128V448.4C128 446.9 128.8 445.6 130.1 444.9L132.9 443.3C135.4 441.9 137 439.2 137 436.3V429.7C137 426.8 135.4 424.1 132.9 422.7L130.1 421.1C128.8 420.4 128 419.1 128 417.6Z" fill="url(#paint18_linear_649_128)"/>
<path d="M298 101.6V72H294V101.6C294 103.1 293.2 104.4 291.9 105.1L289.1 106.7C286.6 108.1 285 110.8 285 113.7V186.3C285 189.2 286.6 191.9 289.1 193.3L291.9 194.9C293.2 195.6 294 196.9 294 198.4V268H298V198.4C298 196.9 298.8 195.6 300.1 194.9L302.9 193.3C305.4 191.9 307 189.2 307 186.3V113.7C307 110.8 305.4 108.1 302.9 106.7L300.1 105.1C298.8 104.4 298 103.1 298 101.6Z" fill="url(#paint19_linear_649_128)"/>
<path d="M330 257.6V172H326V257.6C326 259.1 325.2 260.4 323.9 261.1L321.1 262.7C318.6 264.1 317 266.8 317 269.7V276.3C317 279.2 318.6 281.9 321.1 283.3L323.9 284.9C325.2 285.6 326 286.9 326 288.4V308H330V288.4C330 286.9 330.8 285.6 332.1 284.9L334.9 283.3C337.4 281.9 339 279.2 339 276.3V269.7C339 266.8 337.4 264.1 334.9 262.7L332.1 261.1C330.8 260.4 330 259.1 330 257.6Z" fill="url(#paint20_linear_649_128)"/>
</g>
<path d="M220.4 360.912H215.072C213.92 360.912 212.84 360.342 212.12 359.415L208.376 354.212C207.224 352.644 204.848 352.644 203.696 354.212L199.88 359.415C199.232 360.342 198.08 360.912 196.928 360.912H191.6C189.584 360.912 188 362.481 188 364.477V384.436C188 386.432 189.584 388 191.6 388H220.4C222.416 388 224 386.432 224 384.436V364.477C224 362.552 222.416 360.912 220.4 360.912Z" fill="url(#paint21_linear_649_128)"/>
<path d="M362.4 317.912H357.072C355.92 317.912 354.84 317.342 354.12 316.415L350.376 311.212C349.224 309.644 346.848 309.644 345.696 311.212L341.88 316.415C341.232 317.342 340.08 317.912 338.928 317.912H333.6C331.584 317.912 330 319.481 330 321.477V341.436C330 343.432 331.584 345 333.6 345H362.4C364.416 345 366 343.432 366 341.436V321.477C366 319.552 364.416 317.912 362.4 317.912Z" fill="url(#paint22_linear_649_128)"/>
<path d="M126.4 221.115H121.072C119.92 221.115 118.84 221.686 118.12 222.614L114.376 227.823C113.224 229.392 110.848 229.392 109.696 227.823L105.952 222.614C105.232 221.686 104.08 221.115 102.928 221.115H97.6C95.584 221.115 94 219.545 94 217.547V197.568C94 195.57 95.584 194 97.6 194H126.4C128.416 194 130 195.57 130 197.568V217.547C130 219.545 128.416 221.115 126.4 221.115Z" fill="url(#paint23_linear_649_128)"/>
<path d="M280.4 98.1152H275.072C273.92 98.1152 272.84 98.686 272.12 99.6137L268.376 104.823C267.224 106.392 264.848 106.392 263.696 104.823L259.952 99.6137C259.232 98.686 258.08 98.1152 256.928 98.1152H251.6C249.584 98.1152 248 96.5454 248 94.5474V74.5678C248 72.5698 249.584 71 251.6 71H280.4C282.416 71 284 72.5698 284 74.5678V94.5474C284 96.5454 282.416 98.1152 280.4 98.1152Z" fill="url(#paint24_linear_649_128)"/>
<defs>
<filter id="filter0_d_649_128" x="82" y="69" width="286" height="426" filterUnits="userSpaceOnUse" color-interpolation-filters="sRGB">
<feFlood flood-opacity="0" result="BackgroundImageFix"/>
<feColorMatrix in="SourceAlpha" type="matrix" values="0 0 0 0 0 0 0 0 0 0 0 0 0 0 0 0 0 0 127 0" result="hardAlpha"/>
<feOffset dx="14" dy="12"/>
<feGaussianBlur stdDeviation="7.5"/>
<feComposite in2="hardAlpha" operator="out"/>
<feColorMatrix type="matrix" values="0 0 0 0 0.0815451 0 0 0 0 0.193213 0 0 0 0 0.320833 0 0 0 0.4 0"/>
<feBlend mode="normal" in2="BackgroundImageFix" result="effect1_dropShadow_649_128"/>
<feBlend mode="normal" in="SourceGraphic" in2="effect1_dropShadow_649_128" result="shape"/>
</filter>
<linearGradient id="paint0_linear_649_128" x1="320" y1="550" x2="320" y2="31" gradientUnits="userSpaceOnUse">
<stop stop-color="#00E8F6"/>
<stop offset="1" stop-color="#00FCBD" stop-opacity="0"/>
</linearGradient>
<linearGradient id="paint1_linear_649_128" x1="441.392" y1="161" x2="370.503" y2="459.463" gradientUnits="userSpaceOnUse">
<stop stop-color="#00FDBA"/>
<stop offset="1" stop-color="#081B31" stop-opacity="0"/>
</linearGradient>
<linearGradient id="paint2_linear_649_128" x1="441.392" y1="71" x2="370.503" y2="369.463" gradientUnits="userSpaceOnUse">
<stop stop-color="#00FDBA"/>
<stop offset="1" stop-color="#081B31" stop-opacity="0"/>
</linearGradient>
<linearGradient id="paint3_linear_649_128" x1="391.5" y1="-1.03881e-07" x2="262.5" y2="392.5" gradientUnits="userSpaceOnUse">
<stop stop-color="#00FDBA"/>
<stop offset="1" stop-color="#081B31" stop-opacity="0"/>
</linearGradient>
<linearGradient id="paint4_linear_649_128" x1="391.5" y1="45" x2="270.724" y2="426.088" gradientUnits="userSpaceOnUse">
<stop stop-color="#00FDBA"/>
<stop offset="1" stop-color="#081B31" stop-opacity="0"/>
</linearGradient>
<radialGradient id="paint5_radial_649_128" cx="0" cy="0" r="1" gradientUnits="userSpaceOnUse" gradientTransform="translate(99 231) rotate(90) scale(99)">
<stop stop-color="#DE4E48"/>
<stop offset="1" stop-color="#081B31" stop-opacity="0"/>
</radialGradient>
<radialGradient id="paint6_radial_649_128" cx="0" cy="0" r="1" gradientUnits="userSpaceOnUse" gradientTransform="translate(268 106) rotate(90) scale(99)">
<stop stop-color="#DE4E48"/>
<stop offset="1" stop-color="#081B31" stop-opacity="0"/>
</radialGradient>
<radialGradient id="paint7_radial_649_128" cx="0" cy="0" r="1" gradientUnits="userSpaceOnUse" gradientTransform="translate(358 319) rotate(90) scale(99)">
<stop stop-color="#39E2CF"/>
<stop offset="1" stop-color="#081B31" stop-opacity="0"/>
</radialGradient>
<radialGradient id="paint8_radial_649_128" cx="0" cy="0" r="1" gradientUnits="userSpaceOnUse" gradientTransform="translate(185 391) rotate(90) scale(99)">
<stop stop-color="#39E2CF"/>
<stop offset="1" stop-color="#081B31" stop-opacity="0"/>
</radialGradient>
<linearGradient id="paint9_linear_649_128" x1="360.014" y1="472.861" x2="453.986" y2="378.889" gradientUnits="userSpaceOnUse">
<stop stop-color="#D1D3D4"/>
<stop offset="1" stop-color="white"/>
</linearGradient>
<linearGradient id="paint10_linear_649_128" x1="377.324" y1="420.931" x2="436.676" y2="361.579" gradientUnits="userSpaceOnUse">
<stop stop-color="#2352D5"/>
<stop offset="1" stop-color="#6491F9"/>
</linearGradient>
<linearGradient id="paint11_linear_649_128" x1="438.842" y1="390.908" x2="445.471" y2="384.279" gradientUnits="userSpaceOnUse">
<stop stop-color="#BE1E2D"/>
<stop offset="1" stop-color="#ED1C24"/>
</linearGradient>
<linearGradient id="paint12_linear_649_128" x1="423.217" y1="390.908" x2="429.846" y2="384.279" gradientUnits="userSpaceOnUse">
<stop stop-color="#D1D3D4"/>
<stop offset="1" stop-color="white"/>
</linearGradient>
<linearGradient id="paint13_linear_649_128" x1="264" y1="418" x2="264" y2="182" gradientUnits="userSpaceOnUse">
<stop stop-color="#2352D5"/>
<stop offset="1" stop-color="#6491F9"/>
</linearGradient>
<linearGradient id="paint14_linear_649_128" x1="222" y1="258" x2="222" y2="152" gradientUnits="userSpaceOnUse">
<stop stop-color="#2352D5"/>
<stop offset="1" stop-color="#6491F9"/>
</linearGradient>
<linearGradient id="paint15_linear_649_128" x1="190" y1="338" x2="190" y2="212" gradientUnits="userSpaceOnUse">
<stop stop-color="#D1D3D4"/>
<stop offset="1" stop-color="white"/>
</linearGradient>
<linearGradient id="paint16_linear_649_128" x1="94" y1="428" x2="94" y2="232" gradientUnits="userSpaceOnUse">
<stop stop-color="#2352D5"/>
<stop offset="1" stop-color="#6491F9"/>
</linearGradient>
<linearGradient id="paint17_linear_649_128" x1="158" y1="298" x2="158" y2="232" gradientUnits="userSpaceOnUse">
<stop stop-color="#D1D3D4"/>
<stop offset="1" stop-color="white"/>
</linearGradient>
<linearGradient id="paint18_linear_649_128" x1="126" y1="468" x2="126" y2="332" gradientUnits="userSpaceOnUse">
<stop stop-color="#D1D3D4"/>
<stop offset="1" stop-color="white"/>
</linearGradient>
<linearGradient id="paint19_linear_649_128" x1="296" y1="268" x2="296" y2="72" gradientUnits="userSpaceOnUse">
<stop stop-color="#2352D5"/>
<stop offset="1" stop-color="#6491F9"/>
</linearGradient>
<linearGradient id="paint20_linear_649_128" x1="328" y1="308" x2="328" y2="172" gradientUnits="userSpaceOnUse">
<stop stop-color="#D1D3D4"/>
<stop offset="1" stop-color="white"/>
</linearGradient>
<linearGradient id="paint21_linear_649_128" x1="191.214" y1="389.107" x2="220.49" y2="359.538" gradientUnits="userSpaceOnUse">
<stop stop-color="#006838"/>
<stop offset="1" stop-color="#2BB673"/>
</linearGradient>
<linearGradient id="paint22_linear_649_128" x1="333.214" y1="346.107" x2="362.49" y2="316.538" gradientUnits="userSpaceOnUse">
<stop stop-color="#006838"/>
<stop offset="1" stop-color="#2BB673"/>
</linearGradient>
<linearGradient id="paint23_linear_649_128" x1="97.2144" y1="222.211" x2="126.52" y2="192.641" gradientUnits="userSpaceOnUse">
<stop stop-color="#BE1E2D"/>
<stop offset="1" stop-color="#FF4724"/>
</linearGradient>
<linearGradient id="paint24_linear_649_128" x1="251.214" y1="99.2109" x2="280.52" y2="69.6409" gradientUnits="userSpaceOnUse">
<stop stop-color="#BE1E2D"/>
<stop offset="1" stop-color="#FF4724"/>
</linearGradient>
</defs>
</svg>
