<svg width="39" height="24" viewBox="0 0 39 24" fill="none" xmlns="http://www.w3.org/2000/svg">
<path d="M12.0338 0.635762C11.8755 0.317881 12.0338 0 12.3505 0H18.6838C18.8421 0 18.8421 0 19.0005 0.15894L28.8171 11.7616C28.9755 11.9205 28.9755 12.0795 28.8171 12.2384L19.0005 23.8411C19.0005 23.8411 18.8421 24 18.6838 24H12.3505C12.0338 24 11.8755 23.6821 12.0338 23.3642L21.2171 12.0795C21.3755 11.9205 21.3755 11.7616 21.2171 11.6026L12.0338 0.635762ZM37.6838 0C38.0005 0 38.1588 0.317881 38.0005 0.635762L29.9255 10.4901L26.2838 5.8808L31.1921 0.15894C31.1921 0.15894 31.3505 0 31.5088 0C31.3505 0 37.6838 0 37.6838 0ZM26.1255 17.9603L31.0338 23.8411C31.0338 24 31.1921 24 31.3505 24H37.6838C38.0005 24 38.1588 23.6821 38.0005 23.3642L29.9255 13.5099L26.1255 17.9603Z" fill="white"/>
<path d="M3.4834 0.476821C3.4834 0.15894 3.80007 0 3.9584 0H8.07507C8.2334 0 8.39173 0 8.39173 0.15894L12.1917 4.60927C12.5084 4.92715 12.1917 5.40397 11.8751 5.40397H3.9584C3.64173 5.40397 3.4834 5.24503 3.4834 4.92715V0.476821Z" fill="#C4C4C4"/>
<path d="M3.48333 0.476821C3.48333 0.317881 3.8 0 3.95833 0H8.23333C8.39167 0 8.55 0 8.55 0.15894L12.5083 4.60927C12.825 4.92715 12.5083 5.40397 12.1917 5.40397H3.95833C3.64167 5.40397 3.48333 5.24503 3.48333 4.92715V3.17881H0.475C0.158333 3.17881 0 3.01987 0 2.70199C0 2.38411 0.158333 2.22517 0.475 2.22517H3.48333V0.476821ZM5.85833 9.69536C5.85833 9.37748 6.01667 9.21854 6.33333 9.21854H15.5167C15.675 9.21854 15.8333 9.21854 15.8333 9.37748L17.7333 11.7616C17.8917 11.9205 17.8917 12.2384 17.7333 12.3974L15.8333 14.7815C15.8333 14.7815 15.675 14.9404 15.5167 14.9404H6.33333C6.175 14.9404 5.85833 14.6225 5.85833 14.3046V12.5563H2.85C2.53333 12.5563 2.375 12.3974 2.375 12.0795C2.375 11.7616 2.53333 11.6026 2.85 11.6026H5.85833V9.69536ZM3.48333 23.5232C3.48333 23.8411 3.64167 24 3.95833 24H8.075C8.23333 24 8.39167 24 8.39167 23.8411L12.1917 19.3907C12.5083 19.0728 12.1917 18.596 11.875 18.596H3.95833C3.64167 18.596 3.48333 18.755 3.48333 19.0728V20.8212H0.475C0.158333 20.8212 0 20.9801 0 21.298C0 21.6159 0.158333 21.7748 0.475 21.7748H3.48333V23.5232Z" fill="url(#paint0_linear_649_163)"/>
<defs>
<linearGradient id="paint0_linear_649_163" x1="9.01074" y1="24.0055" x2="9.01074" y2="0.0366364" gradientUnits="userSpaceOnUse">
<stop stop-color="#00E5FD"/>
<stop offset="1" stop-color="#00FDB9"/>
</linearGradient>
</defs>
</svg>
