<svg width="58" height="36" viewBox="0 0 58 36" fill="none" xmlns="http://www.w3.org/2000/svg">
<g id="logo">
<path id="Vector" d="M18.0507 0.953642C17.8132 0.476821 18.0507 0 18.5257 0H28.0257C28.2632 0 28.2632 0 28.5007 0.238411L43.2257 17.6424C43.4632 17.8808 43.4632 18.1192 43.2257 18.3576L28.5007 35.7616C28.5007 35.7616 28.2632 36 28.0257 36H18.5257C18.0507 36 17.8132 35.5232 18.0507 35.0464L31.8257 18.1192C32.0632 17.8808 32.0632 17.6424 31.8257 17.404L18.0507 0.953642ZM56.5257 0C57.0007 0 57.2382 0.476821 57.0007 0.953642L44.8882 15.7351L39.4257 8.82119L46.7882 0.238411C46.7882 0.238411 47.0257 0 47.2632 0C47.0257 0 56.5257 0 56.5257 0ZM39.1882 26.9404L46.5507 35.7616C46.5507 36 46.7882 36 47.0257 36H56.5257C57.0007 36 57.2382 35.5232 57.0007 35.0464L44.8882 20.2649L39.1882 26.9404Z" fill="#163C69"/>
<path id="Vector_2" d="M5.2251 0.715232C5.2251 0.238411 5.7001 0 5.9376 0H12.1126C12.3501 0 12.5876 0 12.5876 0.238411L18.2876 6.91391C18.7626 7.39073 18.2876 8.10596 17.8126 8.10596H5.9376C5.4626 8.10596 5.2251 7.86755 5.2251 7.39073V0.715232Z" fill="#C4C4C4"/>
<path id="Vector_3" d="M5.225 0.715232C5.225 0.476821 5.7 0 5.9375 0H12.35C12.5875 0 12.825 0 12.825 0.238411L18.7625 6.91391C19.2375 7.39073 18.7625 8.10596 18.2875 8.10596H5.9375C5.4625 8.10596 5.225 7.86755 5.225 7.39073V4.76821H0.7125C0.2375 4.76821 0 4.5298 0 4.05298C0 3.57616 0.2375 3.33775 0.7125 3.33775H5.225V0.715232ZM8.7875 14.543C8.7875 14.0662 9.025 13.8278 9.5 13.8278H23.275C23.5125 13.8278 23.75 13.8278 23.75 14.0662L26.6 17.6424C26.8375 17.8808 26.8375 18.3576 26.6 18.596L23.75 22.1722C23.75 22.1722 23.5125 22.4106 23.275 22.4106H9.5C9.2625 22.4106 8.7875 21.9338 8.7875 21.457V18.8344H4.275C3.8 18.8344 3.5625 18.596 3.5625 18.1192C3.5625 17.6424 3.8 17.404 4.275 17.404H8.7875V14.543ZM5.225 35.2848C5.225 35.7616 5.4625 36 5.9375 36H12.1125C12.35 36 12.5875 36 12.5875 35.7616L18.2875 29.0861C18.7625 28.6093 18.2875 27.894 17.8125 27.894H5.9375C5.4625 27.894 5.225 28.1325 5.225 28.6093V31.2318H0.7125C0.2375 31.2318 0 31.4702 0 31.947C0 32.4238 0.2375 32.6623 0.7125 32.6623H5.225V35.2848Z" fill="url(#paint0_linear_5127_907)"/>
</g>
<defs>
<linearGradient id="paint0_linear_5127_907" x1="13.5161" y1="36.0082" x2="13.5161" y2="0.0549546" gradientUnits="userSpaceOnUse">
<stop stop-color="#00E5FD"/>
<stop offset="1" stop-color="#00FDB9"/>
</linearGradient>
</defs>
</svg>
