<svg width="76" height="48" viewBox="0 0 76 48" fill="none" xmlns="http://www.w3.org/2000/svg">
<path d="M24.0218 1.09362C23.6641 0.656185 23.9756 4.76837e-05 24.541 4.76837e-05H37.2317C37.429 4.76837e-05 37.6164 0.0869231 37.7438 0.237523L57.2916 23.3461C57.5027 23.5957 57.5027 23.9611 57.2916 24.2108L37.7438 47.3193C37.6164 47.4699 37.429 47.5568 37.2317 47.5568H24.541C23.9756 47.5568 23.6641 46.9007 24.0218 46.4632L42.225 24.2022C42.4266 23.9556 42.4266 23.6013 42.225 23.3547L24.0218 1.09362Z" fill="#163C69"/>
<path fill-rule="evenodd" clip-rule="evenodd" d="M75.0187 0.00226021C75.5841 0.00226021 75.8957 0.658397 75.538 1.09583L59.5422 20.6574L52.1827 11.6278L61.816 0.239736C61.9434 0.0891357 62.1307 0.00226021 62.3281 0.00226021H75.0187ZM52.0046 35.7229L61.816 47.3215C61.9434 47.4721 62.1307 47.559 62.3281 47.559H75.0187C75.5841 47.559 75.8957 46.9029 75.538 46.4655L59.4485 26.7894L52.0046 35.7229Z" fill="#163C69"/>
<path fill-rule="evenodd" clip-rule="evenodd" d="M8.04261 1.90735e-06C7.48717 1.90735e-06 7.03689 0.44983 7.03689 1.00472V1.03789L7.0368 1.0518V4.40132H1.00475C0.449844 4.40132 0 4.85116 0 5.40608C0 5.96099 0.449844 6.41083 1.00475 6.41083H7.0368V9.75938C7.0368 10.3143 7.48708 10.7641 8.04252 10.7641H24.2387C25.1069 10.7641 25.5672 9.73903 24.9898 9.09127L17.2293 0.383693C17.077 0.212811 16.8722 0.100295 16.6498 0.061818C16.5398 0.0213624 16.4223 1.90735e-06 16.3025 1.90735e-06H8.04261ZM11.7313 19.1371C11.7313 18.5822 12.1816 18.1324 12.7371 18.1324H31.0418C31.3423 18.1324 31.6271 18.2667 31.8181 18.4984L35.6832 23.1871C35.9891 23.5581 35.9891 24.0935 35.6832 24.4645L31.8181 29.1532C31.6271 29.385 31.3423 29.5192 31.0418 29.5192H12.7371C12.1816 29.5192 11.7313 29.0694 11.7313 28.5145V24.8305H5.69462C5.13971 24.8305 4.68987 24.3807 4.68987 23.8258C4.68987 23.2709 5.13971 22.821 5.69462 22.821H11.7313V19.1371ZM8.03613 47.6046C7.48068 47.6046 7.03041 47.1548 7.03041 46.5999V43.2513H1.00475C0.449844 43.2513 0 42.8015 0 42.2466C0 41.6916 0.449844 41.2418 1.00475 41.2418H7.03041V37.8923C7.03041 37.3374 7.48068 36.8876 8.03613 36.8876H23.9227C24.7868 36.8876 25.2486 37.9043 24.6796 38.5539L17.0529 47.2615C16.8619 47.4795 16.586 47.6046 16.296 47.6046H8.03613Z" fill="url(#paint0_linear_706_25243)"/>
<defs>
<linearGradient id="paint0_linear_706_25243" x1="31.9389" y1="5.42346" x2="-5.5935" y2="34.1767" gradientUnits="userSpaceOnUse">
<stop stop-color="#00F595"/>
<stop offset="1" stop-color="#00D5FB"/>
</linearGradient>
</defs>
</svg>
