<svg width="922" height="90" viewBox="0 0 922 90" fill="none" xmlns="http://www.w3.org/2000/svg">
<g clip-path="url(#clip0_4119_477)">
<path d="M0 20C0 8.9543 8.95431 0 20 0H902C913.046 0 922 8.95431 922 20V70C922 81.0457 913.046 90 902 90H20C8.95431 90 0 81.0457 0 70V20Z" fill="url(#paint0_linear_4119_477)"/>
<path opacity="0.7" d="M599.367 76.5L605.7 64.625L612.033 76.5H599.367ZM411.598 87.7168L407.48 73.4235L421.611 77.9457L411.598 87.7168ZM396.683 64.7469L394.906 79.5273L383.437 71.5314L396.683 64.7469ZM623.346 84.8386L631.281 80.8351L630.209 89.6283L623.346 84.8386ZM675.239 36.5484L673.772 21.0723L687.456 28.4846L675.239 36.5484ZM687.846 12.7385L695.781 8.73505L694.709 17.5283L687.846 12.7385ZM105.943 -8.76666L130.484 -21.2587L127.206 6.02899L105.943 -8.76666ZM141.241 9.74127L140.168 -1.83038L150.361 3.68726L141.241 9.74127ZM117.777 24.9251L106.363 27.0699L110.96 16.4222L117.777 24.9251ZM287.973 -572.87L280.96 -571.534L283.765 -578.08L287.973 -572.87ZM610.673 98.23L603.66 99.5659L606.465 93.0199L610.673 98.23Z" stroke="url(#paint1_linear_4119_477)" stroke-width="2"/>
<path opacity="0.3" d="M771.89 10.8855L771.889 10.89C769.544 17.8327 776.124 24.4559 783.09 22.2771L847.608 2.09661C852.351 0.612747 854.994 -4.43584 853.51 -9.17976L796.85 -190.325C795.366 -195.069 790.317 -197.712 785.573 -196.228L715.234 -174.226C708.287 -172.053 706.711 -162.89 712.526 -158.48L795.894 -95.9253C795.896 -95.9243 795.897 -95.9233 795.898 -95.9224C801.423 -91.836 803.684 -84.6098 801.473 -78.1037L801.471 -78.0971M771.89 10.8855L800.524 -78.4192L801.471 -78.0971M771.89 10.8855L801.471 -78.0971M771.89 10.8855L801.471 -78.0971M345.408 -0.562539C352.443 -2.76299 359.015 4.04337 356.577 11.036L337.386 65.2271C335.356 70.8466 330.853 75.239 325.146 77.0242C321.351 78.2113 317.312 76.097 316.125 72.3019L300.661 22.8639C299.177 18.12 301.82 13.0714 306.564 11.5876L345.408 -0.562539ZM259.99 75.401C261.474 80.1449 258.831 85.1935 254.087 86.6773L34.5752 155.339C29.8313 156.823 24.7827 154.18 23.2989 149.436L5.38715 92.1719C3.9033 87.428 6.5461 82.3794 11.29 80.8956L230.802 12.2341C235.546 10.7502 240.595 13.393 242.079 18.1369L259.99 75.401ZM532.599 145.203C526.652 147.063 521.136 141.332 523.221 135.46C525.607 128.787 523.251 121.255 517.488 117.131L454.325 71.6178C448.337 67.2608 449.859 57.9227 456.894 55.7222L542.504 28.9442C552.475 25.8253 563.191 31.4345 566.31 41.4058L590.192 117.758C591.676 122.502 589.033 127.55 584.289 129.034L532.599 145.203ZM765.525 -71.0145L731.922 30.2246C731.921 30.2266 731.921 30.2286 731.92 30.2305C729.946 36.0267 725.384 40.5365 719.491 42.3798L628.155 70.949C623.411 72.4329 618.363 69.7901 616.879 65.0462L560.158 -116.29C558.674 -121.034 561.317 -126.082 566.061 -127.566L651.575 -154.314C657.372 -156.127 663.691 -155.023 668.619 -151.381C668.62 -151.381 668.621 -151.38 668.622 -151.379L762.379 -81.0715C762.38 -81.0713 762.38 -81.0711 762.38 -81.0709C765.469 -78.7351 766.732 -74.6973 765.526 -71.0177L765.525 -71.0145ZM481.475 157.422C480.53 160.092 478.382 162.161 475.678 163.007L364.777 197.696C360.033 199.18 354.984 196.537 353.501 191.793L329.618 115.441C326.499 105.47 332.109 94.7541 342.08 91.6352L392.568 75.843C398.275 74.0578 404.478 75.1016 409.349 78.5625L483.592 132.032C486.883 134.402 488.17 138.516 486.816 142.339L481.475 157.422ZM36.4341 191.43C34.9503 186.686 37.5931 181.637 42.337 180.153L261.849 111.492C266.593 110.008 271.642 112.651 273.125 117.395L277.305 130.756C280.424 140.728 274.815 151.443 264.843 154.562L64.4192 217.253C54.4478 220.372 43.7324 214.763 40.6135 204.791L36.4341 191.43ZM389.472 56.9034C382.438 59.1038 375.866 52.2975 378.304 45.3048L397.494 -8.88628C399.525 -14.5058 404.027 -18.8981 409.735 -20.6833L526.076 -57.0739C530.82 -58.5578 535.869 -55.915 537.352 -51.1711L552.279 -3.45104C553.763 1.29287 551.12 6.34148 546.376 7.82532L389.472 56.9034Z" stroke="url(#paint2_linear_4119_477)" stroke-width="2"/>
<path opacity="0.63" d="M700.6 61.9C698.684 61.9 697.335 63.5008 697.203 65.2233L697.2 65.2585C697.222 63.3461 698.751 61.9 700.6 61.9ZM700.6 61.9C702.452 61.9 704 63.4477 704 65.3M700.6 61.9C702.463 61.9 704 63.3671 704 65.3M704 65.3C704 67.1523 702.452 68.7 700.6 68.7M704 65.3C704 67.2329 702.463 68.7 700.6 68.7M700.6 68.7C698.748 68.7 697.2 67.1523 697.2 65.3C697.2 67.2477 698.652 68.7 700.6 68.7ZM277 18.5C275.084 18.5 273.735 20.1008 273.603 21.8233L273.6 21.8585C273.622 19.9461 275.151 18.5 277 18.5ZM277 18.5C278.852 18.5 280.4 20.0477 280.4 21.9M277 18.5C278.863 18.5 280.4 19.9671 280.4 21.9M280.4 21.9C280.4 23.7523 278.852 25.3 277 25.3M280.4 21.9C280.4 23.8477 278.948 25.3 277 25.3M277 25.3C275.148 25.3 273.6 23.7523 273.6 21.9C273.6 23.7626 275.067 25.3 277 25.3ZM712 63.6C712 63.0523 712.452 62.6 713 62.6C713.548 62.6 714 63.0523 714 63.6C714 64.1477 713.548 64.6 713 64.6C712.452 64.6 712 64.1477 712 63.6ZM175 15.5C175 14.9523 175.452 14.5 176 14.5C176.548 14.5 177 14.9523 177 15.5C177 16.0477 176.548 16.5 176 16.5C175.452 16.5 175 16.0477 175 15.5ZM69.0008 62.7C69.0008 62.1523 69.4531 61.7 70.0008 61.7C70.5485 61.7 71.0008 62.1523 71.0008 62.7C71.0008 63.2477 70.5485 63.7 70.0008 63.7C69.4531 63.7 69.0008 63.2477 69.0008 62.7ZM91.0008 71.7C91.0008 71.1523 91.4531 70.7 92.0008 70.7C92.5485 70.7 93.0008 71.1523 93.0008 71.7C93.0008 72.2477 92.5485 72.7 92.0008 72.7C91.4531 72.7 91.0008 72.2477 91.0008 71.7Z" stroke="url(#paint3_linear_4119_477)" stroke-width="2"/>
</g>
<defs>
<linearGradient id="paint0_linear_4119_477" x1="276.5" y1="5.50183e-05" x2="1.82142e-05" y2="90.0001" gradientUnits="userSpaceOnUse">
<stop stop-color="#13B38A"/>
<stop offset="1" stop-color="#05A4A3"/>
</linearGradient>
<linearGradient id="paint1_linear_4119_477" x1="309.8" y1="-232.6" x2="279.641" y2="-328.924" gradientUnits="userSpaceOnUse">
<stop stop-color="#00FCBD"/>
<stop offset="1" stop-color="#00E8F6"/>
</linearGradient>
<linearGradient id="paint2_linear_4119_477" x1="182.729" y1="-174.951" x2="121.431" y2="-248.363" gradientUnits="userSpaceOnUse">
<stop stop-color="#00FCBD"/>
<stop offset="1" stop-color="#00E8F6"/>
</linearGradient>
<linearGradient id="paint3_linear_4119_477" x1="296" y1="-165.5" x2="277.842" y2="-237.165" gradientUnits="userSpaceOnUse">
<stop stop-color="#00FCBD"/>
<stop offset="1" stop-color="#00E8F6"/>
</linearGradient>
<clipPath id="clip0_4119_477">
<rect width="922" height="90" rx="20" fill="white"/>
</clipPath>
</defs>
</svg>
