<svg width="82" height="82" viewBox="0 0 82 82" fill="none" xmlns="http://www.w3.org/2000/svg">
<path id="Vector 526" d="M11.4 81H71C76.5228 81 81 76.5228 81 71V6C81 3.23858 78.7614 1 76 1H22C19.2386 1 17 3.23858 17 6V25V73C17 77.4183 13.4183 81 9 81V81C4.58172 81 1 77.4183 1 73V30C1 27.2386 3.23858 25 6 25H16.2M24 36H45M24 41H41.8M24 46H74M24 51H65.8M24 58H57.8M24 63H49.8M24 68H65.8M24 73H57.8M51 8H63M51 13H67M51.1 18H74M51.1 23H65.5M51.1 28H74M45 25V11C45 9.34315 43.6569 8 42 8H27C25.3431 8 24 9.34315 24 11V25C24 26.6569 25.3431 28 27 28H42C43.6569 28 45 26.6569 45 25Z" stroke="#4C719C" stroke-width="2" stroke-linecap="round" stroke-linejoin="round"/>
</svg>
