<svg width="56" height="35" viewBox="0 0 56 35" fill="none" xmlns="http://www.w3.org/2000/svg">
<path d="M42.1447 0.810004C42.575 0.296579 43.2105 0 43.8804 0H55.0294C55.4141 0 55.6236 0.449105 55.3766 0.743883L42.9059 15.6236L36.3177 7.76265L42.1447 0.810004Z" fill="#8EFCDC"/>
<path d="M27.6906 0.810004C27.2603 0.296579 26.6248 0 25.9549 0H14.8059C14.4213 0 14.2117 0.449103 14.4588 0.743882L27.7199 16.5668C28.0725 16.9875 28.0725 17.6007 27.7199 18.0215L14.4588 33.8444C14.2117 34.1391 14.4213 34.5882 14.8059 34.5882H25.9549C26.6248 34.5882 27.2604 34.2917 27.6907 33.7782L40.2867 18.7488C40.992 17.9073 40.992 16.681 40.2867 15.8394L27.6906 0.810004Z" fill="#8EFCDC"/>
<path d="M36.3177 26.8256L42.1447 33.7782C42.575 34.2917 43.2105 34.5882 43.8804 34.5882H55.0294C55.414 34.5882 55.6236 34.1391 55.3765 33.8444L42.9059 18.9646L36.3177 26.8256Z" fill="#8EFCDC"/>
<path d="M9.90232 0.808434C9.47202 0.295947 8.8371 0 8.16791 0H3.91176C3.66161 0 3.45882 0.202788 3.45882 0.452941V4.03529H0.57647C0.258095 4.03529 0 4.29339 0 4.61176C0 4.93014 0.258095 5.18824 0.57647 5.18824H3.45882V8.77059C3.45882 9.02074 3.66161 9.22353 3.91176 9.22353H15.9962C16.381 9.22353 16.5905 8.77404 16.3431 8.47933L9.90232 0.808434Z" fill="#8EFCDC"/>
<path d="M9.90232 33.7799C9.47202 34.2924 8.8371 34.5884 8.16791 34.5884H3.91176C3.66161 34.5884 3.45882 34.3856 3.45882 34.1354V30.5531H0.57647C0.258095 30.5531 0 30.295 0 29.9766C0 29.6582 0.258095 29.4001 0.57647 29.4001H3.45882V25.8178C3.45882 25.5676 3.66161 25.3648 3.91176 25.3648H15.9962C16.381 25.3648 16.5905 25.8143 16.3431 26.109L9.90232 33.7799Z" fill="#8EFCDC"/>
<path d="M20.5315 13.4926C20.1012 12.9791 19.4657 12.6826 18.7958 12.6826L7.20595 12.6826C6.9558 12.6826 6.75301 12.8853 6.75301 13.1355V16.7179H3.87066C3.55229 16.7179 3.29419 16.9759 3.29419 17.2943C3.29419 17.6127 3.55229 17.8708 3.87066 17.8708H6.75301V21.4532C6.75301 21.7033 6.9558 21.9061 7.20595 21.9061H18.7958C19.4657 21.9061 20.1012 21.6095 20.5315 21.0961L23.1081 18.0217C23.4608 17.6009 23.4608 16.9878 23.1081 16.567L20.5315 13.4926Z" fill="#8EFCDC"/>
</svg>
