<svg width="60" height="60" viewBox="0 0 60 60" fill="none" xmlns="http://www.w3.org/2000/svg">
<g clip-path="url(#clip0_802_6631)">
<path d="M11.52 25.39H4.36001C2.786 25.39 1.51001 26.666 1.51001 28.24V51.19C1.51001 52.764 2.786 54.04 4.36001 54.04H11.52C13.094 54.04 14.37 52.764 14.37 51.19V28.24C14.37 26.666 13.094 25.39 11.52 25.39Z" fill="#8A93AD"/>
<path d="M22.21 42.23C23.5544 42.1883 24.8926 42.0311 26.21 41.76C31.1492 40.708 35.6904 38.2814 39.31 34.76C39.5 39.01 41.87 42.43 45.04 43.29C46.5187 43.6599 48.0776 43.537 49.48 42.94C49.2196 40.5275 48.7512 38.1419 48.08 35.81C46.65 30.81 45.4 26.42 41.65 24.35C39.89 23.35 38.28 23.29 36.04 23.18C32.4296 23.1122 28.8442 23.7932 25.51 25.18C22.73 26.18 22.13 26.8 19.9 27.18C17.9847 27.4645 16.0339 27.4036 14.14 27L14.37 51.17C17.5025 53.2441 20.991 54.7222 24.66 55.53C25.83 55.79 28.47 56.29 36.12 56C39.58 55.87 44.3 55.57 49.92 54.83C50.9225 54.4792 51.7573 53.7657 52.26 52.83C52.6417 51.9795 52.7571 51.0333 52.5911 50.116C52.4252 49.1986 51.9855 48.3529 51.33 47.69C52.5212 47.7389 53.6889 47.3482 54.6108 46.5922C55.5327 45.8362 56.1446 44.7677 56.33 43.59C56.32 42.8368 56.1339 42.0963 55.7866 41.4278C55.4393 40.7593 54.9405 40.1813 54.33 39.74C54.8684 39.4114 55.3271 38.9673 55.6729 38.4399C56.0188 37.9124 56.2432 37.3148 56.33 36.69C56.347 35.7205 56.0319 34.7744 55.4371 34.0086C54.8423 33.2428 54.0036 32.7035 53.06 32.48C54.82 30.72 54.77 29.54 54.7 29.09C54.3 26.76 49.93 24.91 43.59 25.09" fill="#8EFCDC"/>
<path d="M49.53 39.13C49.16 36.32 48.04 35.36 48.53 33.47C48.8034 32.9042 48.874 32.2616 48.73 31.65C48.52 31 48 31 47.42 30.3C46.62 29.4 46.89 28.74 46.2 27.21C45.8549 26.4616 45.4072 25.7649 44.87 25.14C44.46 25.14 44.04 25.14 43.61 25.14L42.61 24.96C43.218 25.4294 43.7805 25.9551 44.29 26.53C45.76 28.18 46.75 30.17 48.07 35.78C48.51 37.66 49.07 40.07 49.47 42.91C49.6791 41.6601 49.6993 40.3859 49.53 39.13Z" fill="#8A93AD"/>
<path d="M39.28 34.75C36.5921 37.257 33.4395 39.2138 30 40.51C27.4864 41.4573 24.8492 42.0366 22.17 42.23C24.8725 43.1535 27.7383 43.5016 30.5833 43.2519C33.4283 43.0022 36.1897 42.1602 38.69 40.78C38.53 40.97 36.61 43.22 37.39 45.78C37.6485 46.5452 38.0956 47.2331 38.69 47.78C38.1461 48.2987 37.7289 48.9356 37.4705 49.6413C37.2122 50.347 37.1196 51.1028 37.2 51.85C37.4864 52.9801 38.1686 53.9699 39.1228 54.6397C40.077 55.3095 41.2398 55.6147 42.4 55.5C41.3658 55.3124 40.4324 54.7624 39.7671 53.9487C39.1019 53.135 38.7483 52.1108 38.77 51.06C38.846 50.2843 39.132 49.5439 39.5971 48.9184C40.0622 48.293 40.689 47.8061 41.41 47.51C40.76 47.2876 40.1801 46.898 39.7286 46.3802C39.2772 45.8624 38.9701 45.2349 38.8383 44.5607C38.7065 43.8865 38.7546 43.1895 38.9779 42.5398C39.2011 41.8901 39.5916 41.3108 40.11 40.86C40.7264 41.7539 41.5347 42.4989 42.4759 43.0404C43.4171 43.5819 44.4674 43.9064 45.55 43.99C46.9219 44.0277 48.2713 43.6362 49.41 42.87C48.0076 43.4669 46.4486 43.5898 44.97 43.22C41.79 42.37 40.44 39.3 40.05 38.42C39.5611 37.2571 39.2998 36.0113 39.28 34.75Z" fill="#8A93AD"/>
<path d="M27.59 24.46C27.05 22.5333 26.3833 20.5033 25.59 18.37C24.3132 14.9714 22.7926 11.6695 21.04 8.49C20.9974 8.41422 20.9727 8.3297 20.9678 8.24291C20.9629 8.15612 20.9779 8.06936 21.0117 7.98927C21.0455 7.90917 21.0971 7.83786 21.1627 7.78079C21.2283 7.72372 21.306 7.6824 21.39 7.66C24.3 6.92 27.39 6.22 30.73 5.66C35.2494 4.83485 39.809 4.24737 44.39 3.9C44.5045 3.89192 44.6189 3.91801 44.7186 3.97498C44.8183 4.03195 44.8988 4.11722 44.95 4.22C46.2911 6.98707 47.3304 9.89046 48.05 12.88C49.6644 19.7983 49.5717 27.0055 47.78 33.88C47.62 32.88 46.62 27.17 41.92 24.51C38.92 22.8 35.55 23.05 33.31 23.22C31.3546 23.363 29.4291 23.7804 27.59 24.46Z" fill="#8A93AD"/>
<path d="M45.08 32.54H44.88C44.6647 32.4875 44.4775 32.3547 44.3567 32.1689C44.2359 31.9831 44.1906 31.7581 44.23 31.54C45.5255 26.2853 45.5255 20.7947 44.23 15.54C43.7946 13.829 43.2193 12.1567 42.51 10.54L39.11 8.52999L30 10.06L28.93 13.06C30.0387 14.7108 30.942 16.4906 31.62 18.36C32.4364 20.61 32.9117 22.9694 33.03 25.36C33.0367 25.4751 33.0205 25.5904 32.9823 25.6991C32.9441 25.8079 32.8847 25.908 32.8074 25.9936C32.7302 26.0792 32.6368 26.1486 32.5325 26.1978C32.4282 26.2469 32.3152 26.2749 32.2 26.28C31.9689 26.2883 31.7436 26.2063 31.5718 26.0514C31.4001 25.8965 31.2954 25.6808 31.28 25.45C31.1789 23.248 30.7474 21.0737 30 19C29.3261 17.1339 28.4081 15.3652 27.27 13.74C27.1915 13.6259 27.1406 13.4951 27.1215 13.358C27.1024 13.2209 27.1156 13.0812 27.16 12.95L28.56 8.94999C28.6135 8.80195 28.7058 8.67098 28.8271 8.57072C28.9485 8.47047 29.0945 8.4046 29.25 8.37999L39.19 6.73999C39.3902 6.71119 39.5943 6.74989 39.77 6.84999L43.63 9.06999C43.7888 9.16246 43.9147 9.30234 43.99 9.46999C44.7798 11.2548 45.4122 13.1051 45.88 15C47.2457 20.5269 47.2457 26.3031 45.88 31.83C45.8432 32.0198 45.7448 32.1922 45.6002 32.3205C45.4556 32.4488 45.2728 32.526 45.08 32.54Z" fill="#8EFCDC"/>
<path d="M48.25 5.88L58.46 8.88C57.4057 10.5301 56.4474 12.2396 55.59 14C53.8966 17.4807 52.5985 21.1402 51.72 24.91L50.53 24.51C51.1985 19.435 50.8277 14.2771 49.44 9.35001C49.1069 8.17249 48.7097 7.01409 48.25 5.88Z" fill="#8A93AD"/>
<path d="M29.36 41.27C29.4065 42.9486 29.2555 44.6267 28.91 46.27C28.5327 48.0649 27.9313 49.8052 27.12 51.45C29.3636 52.4764 31.8028 53.0052 34.27 53C35.6446 52.9829 37.0118 52.7948 38.34 52.44L39.13 47.16C39.13 47.16 37.55 44.58 38.13 43.39C38.5704 42.266 38.8629 41.0895 39 39.89L29.36 41.27Z" fill="#8A93AD"/>
</g>
<defs>
<clipPath id="clip0_802_6631">
<rect width="60" height="60" fill="white"/>
</clipPath>
</defs>
</svg>
