<svg width="60" height="60" viewBox="0 0 60 60" fill="none" xmlns="http://www.w3.org/2000/svg">
<path d="M32.67 12.65C32.4794 12.0023 32.2558 11.3648 32 10.74C31.37 9.21996 31.14 9.15996 31.05 8.56996C30.9 7.56996 31.49 6.65996 32.68 4.88996C33.1982 3.92156 33.8742 3.04625 34.68 2.29996C35.81 1.62996 36.76 1.97996 40.81 2.70996C45.09 3.48996 45.45 3.35996 46.25 3.93996C47.8 5.04996 48.13 6.69996 48.84 9.51996C50.29 15.13 51.6 20.31 54 25C55.35 27.61 55.68 27.45 56.59 29.63C57.9401 32.8683 58.5582 36.365 58.4 39.87C58.24 43.06 58 47.75 54.72 50.87C53.34 52.19 51.96 52.73 48.05 53.87C38.39 56.66 33.52 57.87 29.95 57.87C24.8421 57.7172 19.8275 56.4618 15.25 54.19C6.34002 52 2.09002 43.4 4.29002 37.56C6.06002 32.88 12.16 29.45 17.56 30.68C19.5853 31.1791 21.4269 32.2439 22.87 33.75C25.2176 32.7356 27.7342 32.1692 30.29 32.08C33.4503 31.974 36.5932 32.5895 39.48 33.88C39.48 33.16 39.48 32.07 39.53 30.76C39.7069 28.0164 40.0408 25.2853 40.53 22.58C40.8945 20.0693 41.0883 17.5368 41.11 15" fill="#8EFCDC"/>
<path d="M37.84 8.15991C37.6198 8.86309 37.2515 9.51096 36.76 10.0599C35.3 11.6599 33.76 11.2299 32.67 12.6499C31.87 13.7299 31.67 15.4299 32.4 16.0499C32.91 16.5199 33.64 16.1599 35.67 15.7799C39.24 15.1099 39.76 15.6999 41.11 14.9599C41.8319 14.5265 42.4596 13.9527 42.956 13.2726C43.4524 12.5924 43.8074 11.8196 44 10.9999" fill="#8EFCDC"/>
<path d="M15.93 38.24L20.6 32C20.96 32.23 21.33 32.49 21.72 32.78C22.11 33.07 22.54 33.46 22.87 33.78C22.1429 33.9807 21.4338 34.2416 20.75 34.56C18.8971 35.4253 17.2529 36.6806 15.93 38.24Z" fill="#8A93AD"/>
<path d="M41.11 15C41.5674 14.7254 41.9847 14.3889 42.35 14C43.1747 13.1777 43.7471 12.1368 44 11L43.7 36.13C42.486 35.0763 41.0557 34.3014 39.51 33.86C39.4714 32.192 39.5181 30.5232 39.65 28.86C39.93 25.33 40.46 23.71 40.84 19.86C41 17.89 41.09 16.2 41.11 15Z" fill="#8A93AD"/>
<path d="M32.67 12.65C33.2981 12.1639 34.0004 11.7823 34.75 11.52C35.58 11.23 36.01 11.26 36.55 11.09C37.1451 10.8619 37.6872 10.5145 38.1429 10.0691C38.5987 9.62366 38.9584 9.08968 39.2 8.5C38.5091 8.63997 37.8004 8.67034 37.1 8.59C36.4065 8.49973 35.7315 8.30062 35.1 8C35.95 9.62 35.86 10.29 35.6 10.6C35.34 10.91 34.81 10.82 34.09 11.18C33.4783 11.5143 32.983 12.0271 32.67 12.65Z" fill="#8A93AD"/>
</svg>
