<svg width="60" height="60" viewBox="0 0 60 60" fill="none" xmlns="http://www.w3.org/2000/svg">
<path d="M46 19.08C44.5853 17.9353 43.0292 16.9774 41.37 16.23L22.83 15.11C21.71 15.38 20.83 15.64 20.34 15.81C20.2078 15.8572 20.063 15.8548 19.9324 15.8033C19.8019 15.7518 19.6944 15.6547 19.63 15.53C19.0525 14.5186 18.269 13.6399 17.3301 12.9508C16.3912 12.2617 15.318 11.7776 14.18 11.53C14.0817 11.507 13.9792 11.5087 13.8817 11.535C13.7842 11.5613 13.6948 11.6114 13.6215 11.6808C13.5481 11.7502 13.4931 11.8367 13.4615 11.9325C13.4298 12.0284 13.4224 12.1306 13.44 12.23C13.6168 13.1778 13.7271 14.1368 13.77 15.1C13.8223 16.326 13.7655 17.5542 13.6 18.77C13.5886 18.8505 13.5605 18.9277 13.5175 18.9966C13.4744 19.0655 13.4173 19.1246 13.35 19.17C10.2552 21.2818 7.89023 24.3 6.57996 27.81C6.53876 27.9288 6.46189 28.0319 6.35987 28.1053C6.25784 28.1787 6.13563 28.2187 6.00996 28.22H2.92996C2.80753 28.2176 2.68729 28.2528 2.5854 28.3207C2.48351 28.3886 2.40484 28.4861 2.35996 28.6C0.755013 32.8227 0.755013 37.4874 2.35996 41.71C2.40443 41.825 2.4827 41.9239 2.58445 41.9935C2.68621 42.0631 2.80667 42.1002 2.92996 42.1H7.80996C7.9441 42.0997 8.0746 42.1437 8.18125 42.225C8.28791 42.3064 8.36478 42.4206 8.39996 42.55C8.8678 44.5295 9.95354 46.3087 11.5 47.63C12.7526 48.6791 14.2481 49.3977 15.85 49.72C15.9912 49.7439 16.1193 49.8175 16.211 49.9275C16.3027 50.0376 16.352 50.1768 16.35 50.32V55.69C16.35 55.7715 16.366 55.8521 16.3972 55.9273C16.4283 56.0025 16.474 56.0709 16.5316 56.1284C16.5891 56.186 16.6575 56.2317 16.7327 56.2628C16.8079 56.294 16.8885 56.31 16.97 56.31H24.33C24.4893 56.3075 24.6415 56.2438 24.7551 56.1321C24.8686 56.0204 24.9348 55.8693 24.94 55.71L25 52.75C26.4157 53.2986 27.9217 53.5767 29.44 53.57C30.9241 53.5595 32.3943 53.2817 33.78 52.75V55.65C33.78 55.8118 33.8442 55.967 33.9586 56.0814C34.073 56.1958 34.2282 56.26 34.39 56.26H42.05C42.2127 56.2574 42.3678 56.1909 42.4819 56.0749C42.596 55.959 42.66 55.8027 42.66 55.64V50.94C42.661 50.8299 42.6924 50.7222 42.7506 50.6287C42.8088 50.5352 42.8916 50.4596 42.99 50.41C49.72 46.86 53.99 40.41 53.92 33.64C53.9 25.46 47.63 20.4 46 19.08ZM12.51 29.18C12.1516 29.182 11.8006 29.0775 11.5017 28.8799C11.2027 28.6822 10.9692 28.4002 10.8306 28.0696C10.6921 27.7391 10.6548 27.3749 10.7235 27.0231C10.7922 26.6713 10.9638 26.3479 11.2166 26.0937C11.4693 25.8396 11.7918 25.6662 12.1432 25.5956C12.4945 25.5249 12.859 25.5602 13.1903 25.6969C13.5216 25.8336 13.8049 26.0656 14.0042 26.3634C14.2035 26.6613 14.31 27.0116 14.31 27.37C14.31 27.8484 14.1206 28.3072 13.7834 28.6464C13.4461 28.9855 12.9883 29.1774 12.51 29.18ZM42 20.76C41.9209 20.8812 41.8126 20.9805 41.685 21.0486C41.5574 21.1168 41.4146 21.1517 41.27 21.15C41.0954 21.1498 40.9248 21.0975 40.78 21C33.7 16.23 22.91 19.42 22.78 19.45C22.5572 19.5161 22.3174 19.4924 22.1119 19.384C21.9063 19.2756 21.7513 19.0912 21.68 18.87C21.6462 18.7597 21.6348 18.6438 21.6463 18.5291C21.6578 18.4143 21.6919 18.303 21.7468 18.2016C21.8018 18.1001 21.8763 18.0106 21.9661 17.9383C22.0559 17.8659 22.1592 17.8121 22.27 17.78C22.74 17.63 33.95 14.3 41.73 19.55C41.8278 19.6111 41.9126 19.6911 41.9792 19.7853C42.0459 19.8794 42.0932 19.9859 42.1183 20.0985C42.1434 20.2111 42.1459 20.3276 42.1256 20.4412C42.1053 20.5547 42.0626 20.6631 42 20.76Z" fill="#8EFCDC"/>
<path d="M59.1999 26.0901C59.2699 26.7749 59.2699 27.4652 59.1999 28.1501C59.1226 28.8575 58.9476 29.5507 58.6799 30.2101C58.3945 30.921 57.9457 31.5548 57.3699 32.0601C56.7545 32.578 56.0125 32.9231 55.2199 33.0601H55.1599C54.9397 33.0787 54.7206 33.0138 54.5461 32.8783C54.3715 32.7428 54.2543 32.5466 54.2178 32.3287C54.1813 32.1108 54.2281 31.8871 54.3489 31.702C54.4697 31.517 54.6557 31.3842 54.8699 31.3301H55.0099C55.5543 31.3202 56.0858 31.1624 56.5474 30.8735C57.0089 30.5845 57.3832 30.1755 57.6299 29.6901C58.2311 28.5919 58.5731 27.3707 58.6299 26.1201C58.6312 26.0811 58.6403 26.0428 58.6567 26.0074C58.6731 25.972 58.6964 25.9403 58.7254 25.9141C58.7543 25.888 58.7882 25.868 58.8251 25.8552C58.862 25.8425 58.901 25.8373 58.9399 25.8401C59.0045 25.8479 59.0648 25.8765 59.1117 25.9216C59.1586 25.9667 59.1895 26.0258 59.1999 26.0901Z" fill="#8EFCDC"/>
<path d="M39.41 19.05C40.4605 17.6104 41.0835 15.9037 41.2073 14.1258C41.3311 12.348 40.9508 10.5714 40.11 9.00004C39.328 7.55351 38.1745 6.34159 36.7683 5.48911C35.3622 4.63663 33.7542 4.1744 32.11 4.15004C30.4092 4.13723 28.7385 4.59819 27.2849 5.48128C25.8314 6.36438 24.6524 7.63473 23.88 9.15004C23.243 10.5687 22.9568 12.1198 23.0456 13.6723C23.1344 15.2249 23.5955 16.7332 24.39 18.07C26.8667 17.3951 29.4387 17.1382 32 17.31C34.5484 17.4817 37.0515 18.0695 39.41 19.05Z" fill="#8A93AD"/>
<path d="M37.63 13.36C37.6159 12.4353 37.3753 11.5282 36.9295 10.7179C36.4836 9.90767 35.846 9.21902 35.0724 8.7122C34.2988 8.20539 33.4129 7.89586 32.492 7.81068C31.5711 7.7255 30.6433 7.86728 29.7899 8.2236C28.9365 8.57993 28.1834 9.13994 27.5965 9.85467C27.0096 10.5694 26.6067 11.417 26.4232 12.3235C26.2397 13.2299 26.2811 14.1675 26.5438 15.0542C26.8064 15.941 27.2824 16.7498 27.93 17.41C29.2942 17.253 30.6698 17.2195 32.04 17.31C33.2249 17.3929 34.4017 17.5668 35.56 17.83C36.2207 17.2901 36.7503 16.6073 37.1088 15.833C37.4674 15.0587 37.6456 14.2132 37.63 13.36Z" fill="#8EFCDC"/>
</svg>
