<svg width="60" height="60" viewBox="0 0 60 60" fill="none" xmlns="http://www.w3.org/2000/svg">
<path d="M36.34 50.39H23.65C23.434 50.3669 23.2343 50.2647 23.0891 50.1032C22.944 49.9417 22.8636 49.7322 22.8636 49.515C22.8636 49.2978 22.944 49.0883 23.0891 48.9268C23.2343 48.7653 23.434 48.6631 23.65 48.64H36.34C36.5559 48.6631 36.7557 48.7653 36.9008 48.9268C37.046 49.0883 37.1263 49.2978 37.1263 49.515C37.1263 49.7322 37.046 49.9417 36.9008 50.1032C36.7557 50.2647 36.5559 50.3669 36.34 50.39Z" fill="#8A93AD"/>
<path d="M36.34 53.23H23.65C23.434 53.2069 23.2343 53.1047 23.0891 52.9432C22.944 52.7817 22.8636 52.5722 22.8636 52.355C22.8636 52.1378 22.944 51.9283 23.0891 51.7668C23.2343 51.6052 23.434 51.5031 23.65 51.48H36.34C36.5559 51.5031 36.7557 51.6052 36.9008 51.7668C37.046 51.9283 37.1263 52.1378 37.1263 52.355C37.1263 52.5722 37.046 52.7817 36.9008 52.9432C36.7557 53.1047 36.5559 53.2069 36.34 53.23Z" fill="#8A93AD"/>
<path d="M23.17 53.0601H36.83C36.3957 54.5348 35.4958 55.8294 34.2646 56.7503C33.0335 57.6711 31.5374 58.1687 30 58.1687C28.4627 58.1687 26.9666 57.6711 25.7354 56.7503C24.5043 55.8294 23.6043 54.5348 23.17 53.0601Z" fill="#8A93AD"/>
<path d="M30 10.58C29.8849 10.5813 29.7707 10.5598 29.664 10.5167C29.5573 10.4735 29.4602 10.4097 29.3783 10.3288C29.2965 10.2478 29.2315 10.1515 29.1872 10.0453C29.1428 9.93906 29.12 9.8251 29.12 9.71001V1.81001C29.1431 1.59407 29.2453 1.39431 29.4068 1.24915C29.5683 1.10399 29.7778 1.02368 29.995 1.02368C30.2122 1.02368 30.4217 1.10399 30.5832 1.24915C30.7447 1.39431 30.8469 1.59407 30.87 1.81001V9.71001C30.87 9.94075 30.7783 10.162 30.6152 10.3252C30.452 10.4883 30.2307 10.58 30 10.58Z" fill="#8EFCDC"/>
<path d="M45.1 15.43C44.9868 15.4311 44.8745 15.4095 44.7698 15.3666C44.665 15.3237 44.5699 15.2602 44.49 15.18C44.3263 15.0152 44.2345 14.7923 44.2345 14.56C44.2345 14.3278 44.3263 14.1049 44.49 13.94L49.8 8.50004C49.8771 8.4058 49.9729 8.32858 50.0814 8.27328C50.1898 8.21797 50.3086 8.18577 50.4302 8.17872C50.5517 8.17167 50.6734 8.18992 50.7875 8.23232C50.9017 8.27472 51.0058 8.34034 51.0933 8.42504C51.1807 8.50973 51.2497 8.61166 51.2957 8.72437C51.3418 8.83708 51.364 8.95812 51.3608 9.07984C51.3577 9.20155 51.3293 9.3213 51.2776 9.43149C51.2258 9.54169 51.1517 9.63994 51.06 9.72004L45.73 15.17C45.6472 15.2526 45.549 15.3181 45.4409 15.3627C45.3328 15.4073 45.2169 15.4302 45.1 15.43Z" fill="#8EFCDC"/>
<path d="M57.6099 28.89H48.8699C48.654 28.8669 48.4542 28.7647 48.3091 28.6032C48.1639 28.4417 48.0836 28.2322 48.0836 28.015C48.0836 27.7978 48.1639 27.5883 48.3091 27.4268C48.4542 27.2653 48.654 27.1631 48.8699 27.14H57.6099C57.7327 27.1269 57.8569 27.1397 57.9743 27.1777C58.0918 27.2157 58.2 27.2779 58.2918 27.3605C58.3837 27.443 58.4571 27.5439 58.5074 27.6567C58.5576 27.7695 58.5836 27.8915 58.5836 28.015C58.5836 28.1385 58.5576 28.2606 58.5074 28.3733C58.4571 28.4861 58.3837 28.587 58.2918 28.6695C58.2 28.7521 58.0918 28.8144 57.9743 28.8523C57.8569 28.8903 57.7327 28.9032 57.6099 28.89Z" fill="#8EFCDC"/>
<path d="M14.89 15.43C14.773 15.4302 14.6572 15.4073 14.5491 15.3627C14.441 15.3181 14.3428 15.2526 14.26 15.17L8.93998 9.71999C8.86153 9.63512 8.80078 9.53546 8.76127 9.42685C8.72177 9.31824 8.70429 9.20284 8.70988 9.0874C8.71546 8.97196 8.744 8.85879 8.79381 8.7545C8.84362 8.65021 8.91371 8.55689 8.99998 8.47999C9.16483 8.31633 9.3877 8.22449 9.61998 8.22449C9.85227 8.22449 10.0751 8.31633 10.24 8.47999L15.56 13.92C15.7236 14.0848 15.8155 14.3077 15.8155 14.54C15.8155 14.7723 15.7236 14.9951 15.56 15.16C15.475 15.2514 15.3709 15.323 15.2551 15.3697C15.1393 15.4164 15.0146 15.4369 14.89 15.43Z" fill="#8EFCDC"/>
<path d="M11.12 28.89H2.37995C2.16402 28.8669 1.96425 28.7647 1.81909 28.6032C1.67393 28.4417 1.59363 28.2322 1.59363 28.015C1.59363 27.7978 1.67393 27.5883 1.81909 27.4268C1.96425 27.2653 2.16402 27.1631 2.37995 27.14H11.12C11.3359 27.1631 11.5357 27.2653 11.6808 27.4268C11.826 27.5883 11.9063 27.7978 11.9063 28.015C11.9063 28.2322 11.826 28.4417 11.6808 28.6032C11.5357 28.7647 11.3359 28.8669 11.12 28.89Z" fill="#8EFCDC"/>
<path d="M30 14.38C26.4611 14.38 23.067 15.7851 20.5637 18.2866C18.0604 20.788 16.6527 24.1811 16.65 27.72C16.6633 28.7283 16.7738 29.7329 16.98 30.72C17.82 34.98 19.76 36.62 21.47 40.63C22.2961 42.5892 22.8836 44.6406 23.22 46.74H36.78C36.8241 44.9015 37.1617 43.0819 37.78 41.35C39.32 36.86 42 35.43 43 30.67C43.2178 29.6848 43.3285 28.679 43.33 27.67C43.3168 24.1424 41.9069 20.7637 39.4087 18.273C36.9106 15.7824 33.5276 14.3826 30 14.38ZM28 19C27.79 19 23.14 19.8 22.37 24.55C22.3368 24.754 22.232 24.9395 22.0744 25.0733C21.9168 25.207 21.7167 25.2803 21.51 25.28H21.36C21.133 25.2408 20.9304 25.114 20.7958 24.9271C20.6612 24.7401 20.6052 24.5078 20.64 24.28C20.9474 22.5176 21.7981 20.8954 23.0729 19.6403C24.3478 18.3851 25.983 17.5599 27.75 17.28C27.9726 17.2583 28.195 17.3231 28.3711 17.4611C28.5471 17.599 28.6633 17.7994 28.6955 18.0208C28.7276 18.2421 28.6733 18.4673 28.5438 18.6496C28.4143 18.832 28.2196 18.9575 28 19Z" fill="#8EFCDC"/>
</svg>
