<svg width="80" height="29" viewBox="0 0 80 29" fill="none" xmlns="http://www.w3.org/2000/svg">
<path fill-rule="evenodd" clip-rule="evenodd" d="M80 24.2225C80 26.2137 78.7344 27.1416 76.4693 27.1416H72.1404V25.1505H76.4693C76.8691 25.1505 77.2023 25.0846 77.336 24.9523C77.4688 24.8191 77.6021 24.6199 77.6021 24.3548C77.6021 24.0888 77.4693 23.8237 77.336 23.6915C77.2023 23.5582 76.9362 23.4923 76.5364 23.4923C74.4722 23.4254 71.8739 23.5582 71.8739 20.6386C71.8739 19.3109 72.7397 17.8509 75.0709 17.8509H79.5336V19.842H75.4036C75.0048 19.842 74.7377 19.842 74.5378 19.9743C74.3379 20.1734 74.2051 20.3726 74.2051 20.7045C74.2051 21.0365 74.4051 21.2356 74.6711 21.3689C74.9381 21.4348 75.2047 21.5012 75.5378 21.5012H76.7363C78.0019 21.5012 78.8015 21.7662 79.3346 22.2314C79.7335 22.6957 80 23.2936 80 24.2225ZM70.6078 22.2314C70.0747 21.7662 69.2751 21.5012 68.0095 21.5012H66.8111C66.4784 21.5012 66.2113 21.4343 65.9453 21.3689C65.6782 21.2356 65.4793 21.0365 65.4793 20.7045C65.4793 20.3726 65.5455 20.1734 65.812 19.9743C66.0119 19.842 66.278 19.842 66.6778 19.842H70.8077V17.8509H66.3451C63.9467 17.8509 63.1471 19.3109 63.1471 20.6386C63.1471 23.5577 65.7454 23.4254 67.8106 23.4923C68.2094 23.4923 68.4764 23.5582 68.6092 23.6915C68.742 23.8237 68.8763 24.0888 68.8763 24.3548C68.8763 24.6199 68.7425 24.8191 68.6092 24.9523C68.4093 25.0846 68.1433 25.1505 67.7435 25.1505H63.4136V27.1416H67.7435C70.0076 27.1416 71.2737 26.2132 71.2737 24.2225C71.2737 23.2936 71.0076 22.6957 70.6078 22.2314ZM62.0814 25.2179H56.8201V23.3595H61.9486V21.5021H56.8201V19.7761H62.0814V17.8518H54.6216V27.1421H62.0814V25.2179ZM52.2232 18.3165C51.4902 17.9182 50.6245 17.8513 49.4921 17.8513H44.3636V27.1416H46.6278V23.7574H49.0262C49.8248 23.7574 50.2918 23.8242 50.625 24.1557C51.0248 24.6199 51.0248 25.4166 51.0248 26.014V27.1416H53.2223V25.3497C53.2223 24.4871 53.1561 24.0888 52.8896 23.6246C52.6897 23.3586 52.2908 23.0271 51.7578 22.8279C52.3565 22.6297 53.3565 21.8331 53.3565 20.3726C53.356 19.3114 52.9562 18.7139 52.2232 18.3165ZM39.5674 17.8513H32.4398L29.5754 20.9042L26.8444 17.8513H17.852V27.1416H26.7116L29.5759 24.0888L32.307 27.1416H36.6369V24.0234H39.4346C41.366 24.0234 43.2984 23.4923 43.2984 20.9042C43.298 18.3824 41.2994 17.8513 39.5674 17.8513ZM50.4246 21.7008C50.0919 21.8331 49.7587 21.8331 49.3589 21.8331L46.6278 21.9V19.7756H49.3589C49.7587 19.7756 50.1585 19.7756 50.4246 19.9748C50.6916 20.108 50.8905 20.3731 50.8905 20.7714C50.8905 21.1697 50.6916 21.5016 50.4246 21.7008ZM39.5674 22.165H36.6364V19.7756H39.5674C40.367 19.7756 40.8996 20.108 40.8996 20.9042C40.8996 21.7008 40.3665 22.165 39.5674 22.165ZM30.9743 22.4965L34.4379 18.8471V26.346L30.9743 22.4965ZM25.5788 25.2179H20.05V23.3595H24.9791V21.5021H20.05V19.7761H25.6454L28.11 22.497L25.5788 25.2179ZM73.8049 11.1487H70.6078L66.4112 4.18045V11.1487H61.8824L61.0157 9.09116H56.3532L55.4874 11.1487H52.8891C51.8234 11.1487 50.4246 10.8831 49.6259 10.0865C48.8929 9.29031 48.4931 8.2286 48.4931 6.56941C48.4931 5.17577 48.693 3.9149 49.6916 2.91958C50.3574 2.18932 51.5569 1.85787 53.0885 1.85787H55.2199V3.849H53.0885C52.2899 3.849 51.8229 3.98177 51.357 4.38009C50.9572 4.77841 50.7573 5.50818 50.7573 6.50351C50.7573 7.49883 50.9572 8.22908 51.357 8.69379C51.6897 9.02525 52.2899 9.15802 52.8886 9.15802H53.8881L57.0852 1.85835H60.416L64.1461 10.6181V1.85787H67.6102L71.5402 8.29499V1.85787H73.8044L73.8049 11.1487ZM47.3608 1.85787H45.0966V11.1487H47.3608V1.85787ZM42.6311 2.25619C41.8981 1.85787 41.0995 1.85787 39.9672 1.85787H34.8377V11.1487H37.0357V7.7639H39.4336C40.2332 7.7639 40.7663 7.83028 41.099 8.16222C41.4988 8.62693 41.4317 9.42357 41.4317 9.95418V11.1487H43.6958V9.29032C43.6958 8.49415 43.6297 8.09583 43.297 7.63112C43.0971 7.36558 42.6973 7.03364 42.2313 6.83496C42.8301 6.56941 43.8301 5.83964 43.8301 4.37961C43.8306 3.3179 43.3636 2.72042 42.6311 2.25619ZM33.2389 9.22441H28.0433V7.36606H33.1723V5.4418H28.0433V3.78261H33.2389V1.85835H25.7787V11.1491H33.2389V9.22441ZM24.1133 1.85787H20.4498L17.7187 8.16222L14.7877 1.85787H11.1909V10.6176L7.3941 1.85787H4.06379L0.0671184 11.1487H2.46502L3.3308 9.09116H7.99334L8.85911 11.1487H13.3889V3.849L16.6525 11.1487H18.584L21.8482 3.849V11.1487H24.1128L24.1133 1.85787ZM60.2171 7.10051L58.6844 3.45068L57.1528 7.10051H60.2171ZM40.8996 5.64096C40.5669 5.84012 40.2337 5.84012 39.7673 5.84012H37.0357V3.78309H39.7668C40.1666 3.78309 40.6321 3.78309 40.8991 3.91586C41.1652 4.11502 41.2989 4.38057 41.2989 4.77841C41.2989 5.17625 41.1656 5.5077 40.8996 5.64096ZM4.12994 7.10051L5.66207 3.45068L7.1942 7.10051H4.12994Z" fill="white"/>
</svg>
