<svg width="58" height="58" viewBox="0 0 58 58" fill="none" xmlns="http://www.w3.org/2000/svg">
<path d="M44.5 39.53C44.5 40.05 44.5 40.66 44.4 41.15C44.3799 41.4011 44.2657 41.6354 44.0803 41.8059C43.8949 41.9765 43.6519 42.0708 43.4 42.07H14.54C14.2748 42.07 14.0204 41.9647 13.8329 41.7771C13.6454 41.5896 13.54 41.3352 13.54 41.07V39.67C13.5395 39.4854 13.5838 39.3033 13.6691 39.1396C13.7545 38.9759 13.8783 38.8353 14.03 38.73C14.1562 38.6334 14.3036 38.5683 14.46 38.54L15.11 38.37C17.42 37.68 21.44 35.49 21.44 28.62C21.44 22.35 24.79 17.26 28.92 17.26C33.05 17.26 36.4 22.35 36.4 28.62C36.3734 30.2192 36.7552 31.7987 37.5094 33.2091C38.2636 34.6195 39.3652 35.8142 40.71 36.68L41.02 36.9C41.8274 37.4102 42.6853 37.8358 43.58 38.17C43.7397 38.2309 43.8858 38.3226 44.01 38.44C44.165 38.576 44.2889 38.7437 44.3734 38.9318C44.458 39.1198 44.5011 39.3238 44.5 39.53V39.53Z" fill="#9E38FF"/>
<path d="M44.5 39.53C44.5 40.05 44.5 40.66 44.4 41.15C44.3799 41.4011 44.2657 41.6354 44.0803 41.8059C43.8949 41.9765 43.6519 42.0708 43.4 42.07H14.54C14.2748 42.07 14.0204 41.9647 13.8329 41.7771C13.6454 41.5896 13.54 41.3352 13.54 41.07V39.67C13.5395 39.4854 13.5838 39.3033 13.6691 39.1396C13.7545 38.9759 13.8783 38.8353 14.03 38.73C14.35 38.64 14.72 38.52 15.11 38.37C17.42 37.68 21.44 35.49 21.44 28.62C21.44 22.35 24.79 17.26 28.92 17.26C33.05 17.26 36.4 22.35 36.4 28.62C36.3734 30.2192 36.7552 31.7987 37.5094 33.2091C38.2636 34.6195 39.3652 35.8142 40.71 36.68L41.02 36.9C41.9589 37.5245 42.9653 38.0411 44.02 38.44C44.1731 38.5769 44.2952 38.7451 44.378 38.9331C44.4608 39.1211 44.5024 39.3246 44.5 39.53V39.53Z" fill="url(#paint0_linear_2_706)"/>
<path d="M28.79 15.5C29.4969 15.5 30.07 14.1569 30.07 12.5C30.07 10.8431 29.4969 9.5 28.79 9.5C28.0831 9.5 27.51 10.8431 27.51 12.5C27.51 14.1569 28.0831 15.5 28.79 15.5Z" fill="#9E38FF"/>
<path d="M28.79 15.5C29.4969 15.5 30.07 14.1569 30.07 12.5C30.07 10.8431 29.4969 9.5 28.79 9.5C28.0831 9.5 27.51 10.8431 27.51 12.5C27.51 14.1569 28.0831 15.5 28.79 15.5Z" fill="url(#paint1_linear_2_706)"/>
<path d="M23.23 16.36C21.8216 17.2782 20.6859 18.5582 19.9417 20.0659C19.1975 21.5735 18.8723 23.2535 19 24.93" stroke="url(#paint2_linear_2_706)" stroke-width="0.86" stroke-miterlimit="10" stroke-linecap="round"/>
<path d="M21.87 13.74C17.87 16.44 15.59 20.4 15.71 26.09" stroke="url(#paint3_linear_2_706)" stroke-width="0.86" stroke-miterlimit="10" stroke-linecap="round"/>
<path d="M42.27 25.94C42.59 21.24 40.88 17.13 36.44 13.84" stroke="url(#paint4_linear_2_706)" stroke-width="0.86" stroke-miterlimit="10" stroke-linecap="round"/>
<path d="M38.41 24.89C38.5018 23.2125 38.1408 21.5412 37.365 20.0511C36.5891 18.561 35.4269 17.3068 34 16.42" stroke="url(#paint5_linear_2_706)" stroke-width="0.86" stroke-miterlimit="10" stroke-linecap="round"/>
<path d="M33.5 44.21C33.528 44.7888 33.4382 45.3672 33.236 45.9103C33.0338 46.4533 32.7234 46.9496 32.3237 47.3692C31.924 47.7887 31.4432 48.1227 30.9106 48.3509C30.3779 48.5791 29.8045 48.6968 29.225 48.6968C28.6455 48.6968 28.0721 48.5791 27.5395 48.3509C27.0068 48.1227 26.5261 47.7887 26.1263 47.3692C25.7266 46.9496 25.4162 46.4533 25.214 45.9103C25.0118 45.3672 24.922 44.7888 24.95 44.21H33.5Z" fill="url(#paint6_linear_2_706)"/>
<defs>
<linearGradient id="paint0_linear_2_706" x1="13.5" y1="29.64" x2="44.5" y2="29.64" gradientUnits="userSpaceOnUse">
<stop stop-color="#8A5EFF" stop-opacity="0.44"/>
<stop offset="1" stop-color="#EC5076"/>
</linearGradient>
<linearGradient id="paint1_linear_2_706" x1="97.9356" y1="84.5" x2="104.515" y2="84.5" gradientUnits="userSpaceOnUse">
<stop stop-color="#8A5EFF" stop-opacity="0.44"/>
<stop offset="1" stop-color="#EC5076"/>
</linearGradient>
<linearGradient id="paint2_linear_2_706" x1="18.53" y1="20.64" x2="23.66" y2="20.64" gradientUnits="userSpaceOnUse">
<stop stop-color="#7438FF"/>
<stop offset="1" stop-color="#4838FF"/>
</linearGradient>
<linearGradient id="paint3_linear_2_706" x1="109.899" y1="259.752" x2="153.174" y2="259.752" gradientUnits="userSpaceOnUse">
<stop stop-color="#7438FF"/>
<stop offset="1" stop-color="#4838FF"/>
</linearGradient>
<linearGradient id="paint4_linear_2_706" x1="247.729" y1="254.509" x2="287.217" y2="254.509" gradientUnits="userSpaceOnUse">
<stop stop-color="#7438FF"/>
<stop offset="1" stop-color="#4838FF"/>
</linearGradient>
<linearGradient id="paint5_linear_2_706" x1="182.292" y1="191.41" x2="205.828" y2="191.41" gradientUnits="userSpaceOnUse">
<stop stop-color="#7438FF"/>
<stop offset="1" stop-color="#4838FF"/>
</linearGradient>
<linearGradient id="paint6_linear_2_706" x1="238.517" y1="252.219" x2="311.705" y2="252.219" gradientUnits="userSpaceOnUse">
<stop stop-color="#7438FF"/>
<stop offset="1" stop-color="#4838FF"/>
</linearGradient>
</defs>
</svg>
