<svg width="58" height="58" viewBox="0 0 58 58" fill="none" xmlns="http://www.w3.org/2000/svg">
<path d="M35.36 44.46L24.52 44.53C24.189 44.5205 23.8669 44.4204 23.5888 44.2405C23.3108 44.0606 23.0874 43.8079 22.943 43.5099C22.7986 43.2118 22.7388 42.8799 22.77 42.5502C22.8012 42.2205 22.9223 41.9057 23.12 41.64L30.83 31.22C30.9877 31.0012 31.195 30.8228 31.4348 30.6994C31.6747 30.576 31.9403 30.5111 32.21 30.51H43.88C44.2246 30.5164 44.5603 30.6211 44.8475 30.8117C45.1347 31.0023 45.3614 31.271 45.5011 31.5861C45.6408 31.9012 45.6877 32.2497 45.6361 32.5905C45.5845 32.9313 45.4367 33.2503 45.21 33.51L36.68 43.82C36.5194 44.0159 36.3182 44.1745 36.0903 44.285C35.8624 44.3955 35.6132 44.4552 35.36 44.46Z" fill="#9E38FF"/>
<path d="M28.89 27.3001L21.59 19.3001C21.3772 19.0574 21.0989 18.8812 20.7886 18.7925C20.4782 18.7039 20.1489 18.7065 19.84 18.8001L9.51 21.8001C9.14063 21.9139 8.8177 22.1435 8.58898 22.4551C8.36026 22.7666 8.2379 23.1436 8.24 23.5301V35.9401C8.23859 36.2766 8.33154 36.6067 8.5083 36.8931C8.68506 37.1794 8.93855 37.4105 9.24 37.5601L18.37 42.0001C18.7345 42.1795 19.1513 42.2217 19.5443 42.1188C19.9374 42.016 20.2802 41.775 20.51 41.4401L29 29.6001C29.2443 29.2607 29.3664 28.8485 29.3464 28.4309C29.3265 28.0132 29.1656 27.6146 28.89 27.3001Z" fill="#9E38FF"/>
<path d="M24.11 18.7L30.51 25.3C30.6852 25.4841 30.8995 25.6266 31.137 25.717C31.3746 25.8074 31.6294 25.8433 31.8827 25.8222C32.136 25.8011 32.3813 25.7235 32.6006 25.595C32.82 25.4666 33.0077 25.2906 33.15 25.08L37.77 18.49C37.9599 18.2237 38.0742 17.911 38.1006 17.585C38.127 17.259 38.0645 16.9319 37.9199 16.6385C37.7753 16.3452 37.5539 16.0965 37.2792 15.9189C37.0045 15.7413 36.6869 15.6415 36.36 15.63H25.36C25.0086 15.6395 24.6675 15.7511 24.3785 15.9512C24.0895 16.1513 23.865 16.4312 23.7324 16.7568C23.5999 17.0824 23.565 17.4395 23.632 17.7846C23.6991 18.1297 23.8652 18.4478 24.11 18.7Z" fill="#9E38FF"/>
<path d="M43.48 14.1L39.22 21.28C39.1071 21.4713 39.0459 21.6887 39.0424 21.9109C39.039 22.133 39.0934 22.3522 39.2003 22.5469C39.3073 22.7416 39.4631 22.9052 39.6524 23.0214C39.8417 23.1377 40.058 23.2027 40.28 23.21L48.44 23.43C48.6627 23.436 48.8832 23.3837 49.0795 23.2784C49.2758 23.173 49.4413 23.0183 49.5594 22.8294C49.6776 22.6405 49.7444 22.4241 49.7533 22.2014C49.7622 21.9788 49.7128 21.7577 49.61 21.56L45.72 14.16C45.6148 13.9569 45.457 13.7856 45.2632 13.6641C45.0693 13.5426 44.8464 13.4753 44.6177 13.4692C44.389 13.4631 44.1628 13.5184 43.9627 13.6293C43.7627 13.7403 43.596 13.9028 43.48 14.1Z" fill="#9E38FF"/>
<path d="M35.36 44.46L24.52 44.53C24.189 44.5205 23.8669 44.4204 23.5888 44.2405C23.3108 44.0606 23.0874 43.8079 22.943 43.5099C22.7986 43.2118 22.7388 42.8799 22.77 42.5502C22.8012 42.2205 22.9223 41.9057 23.12 41.64L30.83 31.22C30.9877 31.0012 31.195 30.8228 31.4348 30.6994C31.6747 30.576 31.9403 30.5111 32.21 30.51H43.88C44.2246 30.5164 44.5603 30.6211 44.8475 30.8117C45.1347 31.0023 45.3614 31.271 45.5011 31.5861C45.6408 31.9012 45.6877 32.2497 45.6361 32.5905C45.5845 32.9313 45.4367 33.2503 45.21 33.51L36.68 43.82C36.5194 44.0159 36.3182 44.1745 36.0903 44.285C35.8624 44.3955 35.6132 44.4552 35.36 44.46Z" fill="url(#paint0_linear_2_865)"/>
<path d="M28.89 27.3001L21.59 19.3001C21.3772 19.0574 21.0989 18.8812 20.7886 18.7925C20.4782 18.7039 20.1489 18.7065 19.84 18.8001L9.51 21.8001C9.14063 21.9139 8.8177 22.1435 8.58898 22.4551C8.36026 22.7666 8.2379 23.1436 8.24 23.5301V35.9401C8.23859 36.2766 8.33154 36.6067 8.5083 36.8931C8.68506 37.1794 8.93855 37.4105 9.24 37.5601L18.37 42.0001C18.7345 42.1795 19.1513 42.2217 19.5443 42.1188C19.9374 42.016 20.2802 41.775 20.51 41.4401L29 29.6001C29.2443 29.2607 29.3664 28.8485 29.3464 28.4309C29.3265 28.0132 29.1656 27.6146 28.89 27.3001Z" fill="url(#paint1_linear_2_865)"/>
<path d="M24.11 18.7L30.51 25.3C30.6852 25.4841 30.8995 25.6266 31.137 25.717C31.3746 25.8074 31.6294 25.8433 31.8827 25.8222C32.136 25.8011 32.3813 25.7235 32.6006 25.595C32.82 25.4666 33.0077 25.2906 33.15 25.08L37.77 18.49C37.9599 18.2237 38.0742 17.911 38.1006 17.585C38.127 17.259 38.0645 16.9319 37.9199 16.6385C37.7753 16.3452 37.5539 16.0965 37.2792 15.9189C37.0045 15.7413 36.6869 15.6415 36.36 15.63H25.36C25.0086 15.6395 24.6675 15.7511 24.3785 15.9512C24.0895 16.1513 23.865 16.4312 23.7324 16.7568C23.5999 17.0824 23.565 17.4395 23.632 17.7846C23.6991 18.1297 23.8652 18.4478 24.11 18.7Z" fill="url(#paint2_linear_2_865)"/>
<path d="M43.48 14.1L39.22 21.28C39.1071 21.4713 39.0459 21.6887 39.0424 21.9109C39.039 22.133 39.0934 22.3522 39.2003 22.5469C39.3073 22.7416 39.4631 22.9052 39.6524 23.0214C39.8417 23.1377 40.058 23.2027 40.28 23.21L48.44 23.43C48.6627 23.436 48.8832 23.3837 49.0795 23.2784C49.2758 23.173 49.4413 23.0183 49.5594 22.8294C49.6776 22.6405 49.7444 22.4241 49.7533 22.2014C49.7622 21.9788 49.7128 21.7577 49.61 21.56L45.72 14.16C45.6148 13.9569 45.457 13.7856 45.2632 13.6641C45.0693 13.5426 44.8464 13.4753 44.6177 13.4692C44.389 13.4631 44.1628 13.5184 43.9627 13.6293C43.7627 13.7403 43.596 13.9028 43.48 14.1Z" fill="url(#paint3_linear_2_865)"/>
<defs>
<linearGradient id="paint0_linear_2_865" x1="22.76" y1="37.5" x2="45.63" y2="37.5" gradientUnits="userSpaceOnUse">
<stop stop-color="#8A5EFF" stop-opacity="0.44"/>
<stop offset="1" stop-color="#EC5076"/>
</linearGradient>
<linearGradient id="paint1_linear_2_865" x1="182.175" y1="732.658" x2="627.988" y2="732.658" gradientUnits="userSpaceOnUse">
<stop stop-color="#8A5EFF" stop-opacity="0.44"/>
<stop offset="1" stop-color="#EC5076"/>
</linearGradient>
<linearGradient id="paint2_linear_2_865" x1="365.98" y1="227.036" x2="576.342" y2="227.036" gradientUnits="userSpaceOnUse">
<stop stop-color="#8A5EFF" stop-opacity="0.44"/>
<stop offset="1" stop-color="#EC5076"/>
</linearGradient>
<linearGradient id="paint3_linear_2_865" x1="39.3929" y1="18.2982" x2="50.1129" y2="19.0486" gradientUnits="userSpaceOnUse">
<stop offset="0.07" stop-color="#4D38FF"/>
<stop offset="1" stop-color="#4838FF"/>
</linearGradient>
</defs>
</svg>
