<svg width="58" height="58" viewBox="0 0 58 58" fill="none" xmlns="http://www.w3.org/2000/svg">
<path d="M46 31.83H23.41L24.62 35.38H43.81C44.0058 35.3635 44.2029 35.3879 44.3889 35.4515C44.5748 35.5151 44.7455 35.6167 44.8901 35.7497C45.0348 35.8827 45.1503 36.0442 45.2293 36.2242C45.3083 36.4041 45.3491 36.5985 45.3491 36.795C45.3491 36.9915 45.3083 37.1859 45.2293 37.3658C45.1503 37.5458 45.0348 37.7073 44.8901 37.8403C44.7455 37.9733 44.5748 38.0749 44.3889 38.1385C44.2029 38.2021 44.0058 38.2265 43.81 38.21H22.54L14.59 14.83H9.85C9.65418 14.8465 9.45707 14.8221 9.27115 14.7585C9.08522 14.6949 8.91453 14.5933 8.76987 14.4603C8.6252 14.3273 8.50972 14.1658 8.43073 13.9858C8.35173 13.8059 8.31094 13.6115 8.31094 13.415C8.31094 13.2185 8.35173 13.0241 8.43073 12.8442C8.50972 12.6642 8.6252 12.5027 8.76987 12.3697C8.91453 12.2367 9.08522 12.1351 9.27115 12.0715C9.45707 12.0079 9.65418 11.9835 9.85 12H16.67L20 21.91H49.59L46 31.83Z" fill="#9E38FF"/>
<path d="M25.02 46C26.6161 46 27.91 44.7329 27.91 43.17C27.91 41.607 26.6161 40.34 25.02 40.34C23.4239 40.34 22.13 41.607 22.13 43.17C22.13 44.7329 23.4239 46 25.02 46Z" fill="#9E38FF"/>
<path d="M42.37 46C43.9661 46 45.26 44.7329 45.26 43.17C45.26 41.607 43.9661 40.34 42.37 40.34C40.7739 40.34 39.48 41.607 39.48 43.17C39.48 44.7329 40.7739 46 42.37 46Z" fill="#9E38FF"/>
<path d="M46 31.83H23.41L24.62 35.38H43.81C44.0058 35.3635 44.2029 35.3879 44.3889 35.4515C44.5748 35.5151 44.7455 35.6167 44.8901 35.7497C45.0348 35.8827 45.1503 36.0442 45.2293 36.2242C45.3083 36.4041 45.3491 36.5985 45.3491 36.795C45.3491 36.9915 45.3083 37.1859 45.2293 37.3658C45.1503 37.5458 45.0348 37.7073 44.8901 37.8403C44.7455 37.9733 44.5748 38.0749 44.3889 38.1385C44.2029 38.2021 44.0058 38.2265 43.81 38.21H22.54L14.59 14.83H9.85C9.65418 14.8465 9.45707 14.8221 9.27115 14.7585C9.08522 14.6949 8.91453 14.5933 8.76987 14.4603C8.6252 14.3273 8.50972 14.1658 8.43073 13.9858C8.35173 13.8059 8.31094 13.6115 8.31094 13.415C8.31094 13.2185 8.35173 13.0241 8.43073 12.8442C8.50972 12.6642 8.6252 12.5027 8.76987 12.3697C8.91453 12.2367 9.08522 12.1351 9.27115 12.0715C9.45707 12.0079 9.65418 11.9835 9.85 12H16.67L20 21.91H49.59L46 31.83Z" fill="url(#paint0_linear_2_717)"/>
<path d="M25.02 46C26.6161 46 27.91 44.7329 27.91 43.17C27.91 41.607 26.6161 40.34 25.02 40.34C23.4239 40.34 22.13 41.607 22.13 43.17C22.13 44.7329 23.4239 46 25.02 46Z" fill="url(#paint1_linear_2_717)"/>
<path d="M42.37 46C43.9661 46 45.26 44.7329 45.26 43.17C45.26 41.607 43.9661 40.34 42.37 40.34C40.7739 40.34 39.48 41.607 39.48 43.17C39.48 44.7329 40.7739 46 42.37 46Z" fill="url(#paint2_linear_2_717)"/>
<defs>
<linearGradient id="paint0_linear_2_717" x1="8.41" y1="25.1" x2="49.59" y2="25.1" gradientUnits="userSpaceOnUse">
<stop stop-color="#8A5EFF" stop-opacity="0.44"/>
<stop offset="1" stop-color="#EC5076"/>
</linearGradient>
<linearGradient id="paint1_linear_2_717" x1="22.13" y1="43.17" x2="27.92" y2="43.17" gradientUnits="userSpaceOnUse">
<stop stop-color="#5C38FF"/>
<stop offset="0.81" stop-color="#4D38FF"/>
<stop offset="1" stop-color="#4838FF"/>
</linearGradient>
<linearGradient id="paint2_linear_2_717" x1="39.48" y1="43.17" x2="45.26" y2="43.17" gradientUnits="userSpaceOnUse">
<stop stop-color="#4D38FF"/>
<stop offset="1" stop-color="#4838FF"/>
</linearGradient>
</defs>
</svg>
