<svg width="85" height="23" viewBox="0 0 85 23" fill="none" xmlns="http://www.w3.org/2000/svg">
<path fill-rule="evenodd" clip-rule="evenodd" d="M4.5669 1.02813H0.764648V14.2619H4.51754C6.54256 14.2619 7.97422 13.8172 9.25826 12.7311C10.7398 11.4969 11.6777 9.61997 11.6777 7.6448C11.6777 3.74429 8.7641 1.02813 4.5669 1.02813ZM7.57928 11.0027C6.74003 11.6944 5.70236 12.0399 4.02386 12.0399H3.33272V3.29951H4.02386C5.70236 3.29951 6.69019 3.59571 7.57928 4.33622C8.4679 5.1261 9.01142 6.36124 9.01142 7.6448C9.01094 8.92883 8.4679 10.2129 7.57928 11.0027ZM12.863 14.2624H15.4306V1.02813H12.863V14.2624ZM21.7511 6.11441C20.1709 5.522 19.7266 5.17643 19.7266 4.43544C19.7266 3.59619 20.5658 3.00378 21.6524 3.00378C22.4423 3.00378 23.0845 3.29999 23.7263 4.0405L25.1091 2.31264C23.9731 1.32481 22.6402 0.831139 21.2081 0.831139C18.8379 0.831139 17.0602 2.46074 17.0602 4.63339C17.0602 6.46046 17.8995 7.34955 20.3195 8.23816C21.3566 8.58373 21.8503 8.83057 22.0972 8.97868C22.6402 9.32473 22.887 9.81792 22.887 10.3614C22.887 11.448 22.0478 12.2379 20.8625 12.2379C19.6772 12.2379 18.6405 11.5961 18.0476 10.4602L16.4185 12.0898C17.6038 13.8176 19.0354 14.608 21.0106 14.608C23.6769 14.608 25.5538 12.8303 25.5538 10.2627C25.5534 8.13895 24.6648 7.20049 21.7511 6.11441ZM26.3437 7.6448C26.3437 11.5458 29.4055 14.5582 33.3553 14.5582C34.4419 14.5582 35.4293 14.3602 36.5652 13.8172V10.7554C35.528 11.7921 34.6394 12.2369 33.4541 12.2369C30.8865 12.2369 29.01 10.3111 29.01 7.64432C29.01 5.1261 30.9359 3.10156 33.3553 3.10156C34.59 3.10156 35.528 3.54586 36.5652 4.58306V1.57069C35.4786 0.977803 34.5406 0.731445 33.4047 0.731445C29.5037 0.731925 26.3437 3.84303 26.3437 7.6448Z" fill="white"/>
<path fill-rule="evenodd" clip-rule="evenodd" d="M44.6145 0.731934C40.7131 0.731934 37.5526 3.79368 37.5526 7.5461C37.5526 11.5957 40.565 14.5582 44.6145 14.5582C48.5639 14.5582 51.6755 11.5458 51.6755 7.64483C51.676 3.79368 48.6138 0.731934 44.6145 0.731934Z" fill="#DB8135"/>
<path fill-rule="evenodd" clip-rule="evenodd" d="M44.6145 0.731934C40.7131 0.731934 37.5526 3.79368 37.5526 7.5461C37.5526 11.5957 40.565 14.5582 44.6145 14.5582C48.5639 14.5582 51.6755 11.5458 51.6755 7.64483C51.676 3.79368 48.6138 0.731934 44.6145 0.731934ZM44.6145 7.64483H51.6755H44.6145Z" fill="#DB8135"/>
<path fill-rule="evenodd" clip-rule="evenodd" d="M44.6145 7.64483H51.6755C51.6755 3.7932 48.6133 0.731934 44.6145 0.731934C40.7131 0.731934 37.5526 3.79368 37.5526 7.5461C37.5526 11.5957 40.565 14.5582 44.6145 14.5582C48.5639 14.5582 51.6755 11.5458 51.6755 7.64483H44.6145Z" fill="#DB8135"/>
<path fill-rule="evenodd" clip-rule="evenodd" d="M44.6145 7.64483H51.6755C51.6755 3.7932 48.6133 0.731934 44.6145 0.731934C40.7131 0.731934 37.5526 3.79368 37.5526 7.5461C37.5526 11.5957 40.565 14.5582 44.6145 14.5582C48.5639 14.5582 51.6755 11.5458 51.6755 7.64483H44.6145Z" fill="#DB8137"/>
<path fill-rule="evenodd" clip-rule="evenodd" d="M44.6145 7.64483H51.6755C51.6755 3.7932 48.6133 0.731934 44.6145 0.731934C40.7131 0.731934 37.5526 3.79368 37.5526 7.5461C37.5526 11.5957 40.565 14.5582 44.6145 14.5582C48.5639 14.5582 51.6755 11.5458 51.6755 7.64483H44.6145Z" fill="#DC8337"/>
<path fill-rule="evenodd" clip-rule="evenodd" d="M44.6145 7.64483H51.6755C51.6755 3.7932 48.6133 0.731934 44.6145 0.731934C40.7131 0.731934 37.5526 3.79368 37.5526 7.5461C37.5526 11.5957 40.565 14.5582 44.6145 14.5582C48.5639 14.5582 51.6755 11.5458 51.6755 7.64483H44.6145Z" fill="#DC8539"/>
<path fill-rule="evenodd" clip-rule="evenodd" d="M44.6145 7.64483H51.6755C51.6755 3.7932 48.6133 0.731934 44.6145 0.731934C40.7131 0.731934 37.5526 3.79368 37.5526 7.5461C37.5526 11.5957 40.565 14.5582 44.6145 14.5582C48.5639 14.5582 51.6755 11.5458 51.6755 7.64483H44.6145Z" fill="#DC853A"/>
<path fill-rule="evenodd" clip-rule="evenodd" d="M44.6145 7.64483H51.6755C51.6755 3.7932 48.6133 0.731934 44.6145 0.731934C40.7131 0.731934 37.5526 3.79368 37.5526 7.5461C37.5526 11.5957 40.565 14.5582 44.6145 14.5582C48.5639 14.5582 51.6755 11.5458 51.6755 7.64483H44.6145Z" fill="#DC853C"/>
<path fill-rule="evenodd" clip-rule="evenodd" d="M44.6145 7.64483H51.6755C51.6755 3.7932 48.6133 0.731934 44.6145 0.731934C40.7131 0.731934 37.5526 3.79368 37.5526 7.5461C37.5526 11.5957 40.565 14.5582 44.6145 14.5582C48.5639 14.5582 51.6755 11.5458 51.6755 7.64483H44.6145Z" fill="#DD873E"/>
<path fill-rule="evenodd" clip-rule="evenodd" d="M44.6145 7.64483H51.6755C51.6755 3.7932 48.6133 0.731934 44.6145 0.731934C40.7131 0.731934 37.5526 3.79368 37.5526 7.5461C37.5526 11.5957 40.565 14.5582 44.6145 14.5582C48.5639 14.5582 51.6755 11.5458 51.6755 7.64483H44.6145Z" fill="#DD873E"/>
<path fill-rule="evenodd" clip-rule="evenodd" d="M44.6145 7.64483H51.6755C51.6755 3.7932 48.6133 0.731934 44.6145 0.731934C40.7131 0.731934 37.5526 3.79368 37.5526 7.5461C37.5526 11.5957 40.565 14.5582 44.6145 14.5582C48.5639 14.5582 51.6755 11.5458 51.6755 7.64483H44.6145Z" fill="#DD883F"/>
<path fill-rule="evenodd" clip-rule="evenodd" d="M44.6145 7.64483H51.6755C51.6755 3.7932 48.6133 0.731934 44.6145 0.731934C40.7131 0.731934 37.5526 3.79368 37.5526 7.5461C37.5526 11.5957 40.565 14.5582 44.6145 14.5582C48.5639 14.5582 51.6755 11.5458 51.6755 7.64483H44.6145Z" fill="#DD8841"/>
<path fill-rule="evenodd" clip-rule="evenodd" d="M44.6145 7.64483H51.6755C51.6755 3.7932 48.6133 0.731934 44.6145 0.731934C40.7131 0.731934 37.5526 3.79368 37.5526 7.5461C37.5526 11.5957 40.565 14.5582 44.6145 14.5582C48.5639 14.5582 51.6755 11.5458 51.6755 7.64483H44.6145Z" fill="#DE8A41"/>
<path fill-rule="evenodd" clip-rule="evenodd" d="M44.6145 7.64483H51.6755C51.6755 3.7932 48.6133 0.731934 44.6145 0.731934C40.7131 0.731934 37.5526 3.79368 37.5526 7.5461C37.5526 11.5957 40.565 14.5582 44.6145 14.5582C48.5639 14.5582 51.6755 11.5458 51.6755 7.64483H44.6145Z" fill="#DE8A43"/>
<path fill-rule="evenodd" clip-rule="evenodd" d="M44.6145 7.64483H51.6755C51.6755 3.7932 48.6133 0.731934 44.6145 0.731934C40.7131 0.731934 37.5526 3.79368 37.5526 7.5461C37.5526 11.5957 40.565 14.5582 44.6145 14.5582C48.5639 14.5582 51.6755 11.5458 51.6755 7.64483H44.6145Z" fill="#DE8A44"/>
<path fill-rule="evenodd" clip-rule="evenodd" d="M44.6145 7.64483H51.6755C51.6755 3.7932 48.6133 0.731934 44.6145 0.731934C40.7131 0.731934 37.5526 3.79368 37.5526 7.5461C37.5526 11.5957 40.565 14.5582 44.6145 14.5582C48.5639 14.5582 51.6755 11.5458 51.6755 7.64483H44.6145Z" fill="#DE8C46"/>
<path fill-rule="evenodd" clip-rule="evenodd" d="M44.6143 7.6448H51.6753H44.6143ZM51.6758 7.6448C51.6758 7.58489 51.6748 7.52498 51.6729 7.46507V7.46267C51.6716 7.40385 51.6694 7.34505 51.6662 7.28629V7.2815C51.6633 7.22394 51.6596 7.16642 51.6552 7.10895C51.6552 7.10656 51.6552 7.10416 51.6542 7.10176C51.6503 7.04531 51.6457 6.9889 51.6403 6.93257C51.6394 6.92922 51.6394 6.92634 51.6394 6.92299C51.6337 6.86776 51.6272 6.81263 51.6197 6.75763V6.75619C51.613 6.70372 51.6058 6.65132 51.5981 6.59898C51.5972 6.59371 51.5962 6.58844 51.5962 6.58317C51.5876 6.5314 51.5794 6.48012 51.5699 6.42835L51.567 6.4111L51.5521 6.32722L51.5325 6.22801L51.5224 6.18056C51.5138 6.14029 51.5056 6.10003 51.496 6.06025C51.4922 6.04156 51.4865 6.02335 51.4831 6.00466L51.4548 5.8925L51.4265 5.78705L51.4126 5.73529C51.4026 5.69839 51.3911 5.66196 51.381 5.62553L51.3642 5.56849C50.49 2.7488 47.8611 0.731445 44.6148 0.731445C41.7573 0.731445 39.298 2.37447 38.186 4.72781C37.7742 5.62818 37.5585 6.60584 37.5534 7.59592C37.5586 8.45146 37.6991 9.25811 37.9545 9.99767L37.9766 10.0595L37.9862 10.0854C38.2587 10.8245 38.6532 11.5127 39.1533 12.1214C40.4234 13.637 42.3578 14.5577 44.6148 14.5577C47.8237 14.5577 50.4785 12.5696 51.3623 9.73118L51.4074 9.57876V9.57828C51.5362 9.1246 51.6191 8.65909 51.6547 8.18881L51.6556 8.18785C51.6595 8.12841 51.6643 8.0685 51.6667 8.00859V8.00811C51.6726 7.8871 51.6756 7.76596 51.6758 7.6448Z" fill="#DF8E47"/>
<path fill-rule="evenodd" clip-rule="evenodd" d="M44.6142 7.64483H51.6258C51.6258 4.95885 50.0877 2.63378 47.8513 1.47197C46.8889 0.998422 45.7927 0.731934 44.6142 0.731934C43.0972 0.731934 41.6943 1.19541 40.5435 1.9805C38.7668 3.24249 37.6016 5.30682 37.6016 7.64483C37.6016 10.2167 39.0117 12.4805 41.0947 13.7007C42.117 14.2515 43.311 14.5582 44.6142 14.5582C46.2572 14.5582 47.754 14.0367 48.9427 13.1481C50.5723 11.8598 51.6258 9.86733 51.6258 7.64483H44.6142Z" fill="#DF8E48"/>
<path fill-rule="evenodd" clip-rule="evenodd" d="M44.6142 7.64484H51.5266C51.5266 3.84257 48.416 0.731934 44.6142 0.731934C44.5543 0.731934 44.4954 0.732891 44.4364 0.734329H44.4316C40.7132 0.831626 37.7004 3.90392 37.7004 7.64484C37.6986 9.09242 38.1479 10.5046 38.9856 11.6851C39.8233 12.8657 41.008 13.756 42.375 14.2323C43.0718 14.4446 43.8229 14.5587 44.6137 14.5587C45.579 14.5587 46.4935 14.378 47.3256 14.0497C48.5746 13.509 49.638 12.6143 50.3845 11.4762C51.1309 10.3381 51.5278 9.00638 51.5261 7.64532H44.6142V7.64484Z" fill="#DF8E4A"/>
<path fill-rule="evenodd" clip-rule="evenodd" d="M44.6146 7.64475H51.4782C51.4782 3.89187 48.4159 0.780762 44.6146 0.780762C40.8119 0.780762 37.7502 3.89187 37.7502 7.64475C37.7482 8.54673 37.9244 9.44022 38.2687 10.2739C38.613 11.1076 39.1186 11.8651 39.7564 12.5029C40.3942 13.1406 41.1517 13.6461 41.9854 13.9904C42.8192 14.3346 43.7127 14.5108 44.6146 14.5087C45.5165 14.5106 46.4099 14.3344 47.2435 13.9901C48.0772 13.6458 48.8346 13.1403 49.4723 12.5025C50.11 11.8648 50.6155 11.1073 50.9597 10.2737C51.3039 9.44006 51.4801 8.54665 51.4782 7.64475H44.6146Z" fill="#DF904A"/>
<path fill-rule="evenodd" clip-rule="evenodd" d="M44.6142 7.64465H51.4284C51.4284 3.89177 48.3662 0.879395 44.6142 0.879395C40.8609 0.879395 37.7991 3.89177 37.7991 7.64465C37.7991 11.398 40.8609 14.4593 44.6142 14.4593C48.3662 14.4593 51.4284 11.3975 51.4284 7.64465H44.6142Z" fill="#E0914C"/>
<path fill-rule="evenodd" clip-rule="evenodd" d="M44.6147 7.64461H51.379C51.379 3.94109 48.3177 0.929199 44.6147 0.929199C40.9107 0.929199 37.8489 3.94109 37.8489 7.64461C37.8489 11.398 40.9107 14.4099 44.6147 14.4099C48.3182 14.4099 51.379 11.398 51.379 7.64461H44.6147Z" fill="#E0914E"/>
<path fill-rule="evenodd" clip-rule="evenodd" d="M44.6147 7.64454H51.2807C51.2807 3.99039 48.3177 0.978027 44.6147 0.978027C40.9107 0.978027 37.9477 3.99039 37.9477 7.64454C37.9477 11.3481 40.9107 14.3599 44.6147 14.3599C48.3182 14.3599 51.2807 11.3481 51.2807 7.64454H44.6147Z" fill="#DF924F"/>
<path fill-rule="evenodd" clip-rule="evenodd" d="M44.6143 7.645H51.231C51.231 3.99085 48.268 1.02832 44.6143 1.02832C40.9597 1.02832 37.9967 3.99133 37.9967 7.645C37.9967 11.2987 40.9597 14.2622 44.6143 14.2622C48.268 14.2622 51.231 11.2987 51.231 7.645H44.6143Z" fill="#E09351"/>
<path fill-rule="evenodd" clip-rule="evenodd" d="M44.6148 7.64443H51.1816C51.1816 4.03964 48.2186 1.12646 44.6148 1.12646C41.0095 1.12646 38.0465 4.03964 38.0465 7.64443C38.0465 11.2986 41.0095 14.2122 44.6148 14.2122C48.2191 14.2122 51.1816 11.2986 51.1816 7.64443H44.6148Z" fill="#E09552"/>
<path fill-rule="evenodd" clip-rule="evenodd" d="M44.6144 7.64433H51.083C51.083 4.08941 48.2182 1.17578 44.6144 1.17578C41.0091 1.17578 38.0955 4.08941 38.0955 7.64433C38.0955 11.2491 41.0091 14.1622 44.6144 14.1622C48.2187 14.1622 51.083 11.2491 51.083 7.64433H44.6144Z" fill="#E09554"/>
<path fill-rule="evenodd" clip-rule="evenodd" d="M44.6147 7.64432H51.0339C51.0355 6.80089 50.8706 5.96545 50.5485 5.18593C50.2265 4.4064 49.7537 3.69813 49.1573 3.10173C48.5609 2.50534 47.8527 2.03256 47.0731 1.71053C46.2936 1.38849 45.4582 1.22353 44.6147 1.22511C43.7713 1.22341 42.9357 1.38828 42.1561 1.71026C41.3765 2.03225 40.6682 2.50501 40.0717 3.10142C39.4752 3.69783 39.0024 4.40615 38.6804 5.18574C38.3583 5.96533 38.1934 6.80083 38.195 7.64432C38.195 11.1997 41.0588 14.1134 44.6147 14.1134C48.1692 14.1134 51.0339 11.1997 51.0339 7.64432H44.6147Z" fill="#E09555"/>
<path fill-rule="evenodd" clip-rule="evenodd" d="M44.6148 7.64476H50.9842C50.9842 4.1387 48.1204 1.2749 44.6148 1.2749C41.1083 1.2749 38.244 4.1387 38.244 7.64476C38.244 11.2002 41.1083 14.0151 44.6148 14.0151C45.4519 14.0171 46.2811 13.8537 47.0549 13.5343C47.8286 13.2149 48.5316 12.7457 49.1235 12.1537C49.7154 11.5618 50.1844 10.8587 50.5038 10.0849C50.8231 9.31111 50.9863 8.48185 50.9842 7.64476H44.6148Z" fill="#E19756"/>
<path fill-rule="evenodd" clip-rule="evenodd" d="M44.6148 7.64513H50.9348C50.9348 4.18893 48.1209 1.37402 44.6148 1.37402C41.1083 1.37402 38.2938 4.18893 38.2938 7.64513C38.2912 8.47591 38.453 9.29901 38.7697 10.067C39.0864 10.8351 39.552 11.5329 40.1394 12.1203C40.7269 12.7078 41.4248 13.1732 42.1928 13.4899C42.9609 13.8066 43.784 13.9683 44.6148 13.9656C45.4455 13.9681 46.2685 13.8064 47.0365 13.4896C47.8044 13.1729 48.5022 12.7074 49.0895 12.12C49.6769 11.5326 50.1423 10.8348 50.459 10.0668C50.7757 9.29885 50.9374 8.47583 50.9348 7.64513H44.6148Z" fill="#E19757"/>
<path fill-rule="evenodd" clip-rule="evenodd" d="M44.6144 7.64463H50.8357C50.8357 4.1884 48.0701 1.42285 44.6144 1.42285C41.1572 1.42285 38.3428 4.1884 38.3428 7.64463C38.3428 11.1013 41.1577 13.9158 44.6144 13.9158C48.0706 13.9158 50.8357 11.1009 50.8357 7.64463H44.6144Z" fill="#E29959"/>
<path fill-rule="evenodd" clip-rule="evenodd" d="M44.6144 7.64455H50.7863C50.7863 4.23723 48.0208 1.47217 44.6144 1.47217C41.2066 1.47217 38.4416 4.23723 38.4416 7.64455C38.4416 11.0519 41.2071 13.8663 44.6144 13.8663C48.0208 13.8663 50.7863 11.0519 50.7863 7.64455H44.6144Z" fill="#E2995B"/>
<path fill-rule="evenodd" clip-rule="evenodd" d="M44.6148 7.64448H50.7369C50.7369 4.28702 47.9713 1.52148 44.6148 1.52148C41.2564 1.52148 38.4914 4.28702 38.4914 7.64448C38.4914 11.0518 41.2569 13.7675 44.6148 13.7675C47.9718 13.7675 50.7369 11.0518 50.7369 7.64448H44.6148Z" fill="#E29B5B"/>
<path fill-rule="evenodd" clip-rule="evenodd" d="M44.6144 7.64488H50.6881C50.6881 4.3363 47.9714 1.62061 44.6144 1.62061C41.256 1.62061 38.5403 4.3363 38.5403 7.64488C38.5403 11.0028 41.2565 13.7185 44.6144 13.7185C47.9714 13.7185 50.6881 11.0024 50.6881 7.64488H44.6144Z" fill="#E29B5D"/>
<path fill-rule="evenodd" clip-rule="evenodd" d="M44.6145 7.64481H50.5889C50.5905 6.8598 50.437 6.0822 50.1373 5.35664C49.8376 4.63108 49.3976 3.97184 48.8425 3.41672C48.2874 2.86161 47.6282 2.42155 46.9027 2.12179C46.1771 1.82204 45.3995 1.66848 44.6145 1.66993C41.3055 1.66993 38.6391 4.33624 38.6391 7.64481C38.6391 10.9534 41.3055 13.6695 44.6145 13.6695C47.9226 13.6695 50.5889 10.9534 50.5889 7.64481H44.6145Z" fill="#E39D5F"/>
<path fill-rule="evenodd" clip-rule="evenodd" d="M44.6142 7.64477H50.5387C50.5387 4.38556 47.8729 1.71924 44.6142 1.71924C41.3545 1.71924 38.6881 4.38556 38.6881 7.64477C38.6881 10.9533 41.3545 13.6197 44.6142 13.6197C47.8729 13.6197 50.5387 10.9533 50.5387 7.64477H44.6142Z" fill="#E39D61"/>
<path fill-rule="evenodd" clip-rule="evenodd" d="M44.6142 7.64464H50.4405C50.4405 4.43479 47.8231 1.86719 44.6142 1.86719C41.4039 1.86719 38.7869 4.43479 38.7869 7.64464C38.7869 10.8545 41.4039 13.472 44.6142 13.472C47.8231 13.472 50.4405 10.8545 50.4405 7.64464H44.6142Z" fill="#E39F63"/>
<path fill-rule="evenodd" clip-rule="evenodd" d="M44.6142 7.64509H50.3413C50.3413 4.48507 47.7747 1.91699 44.6142 1.91699C41.4533 1.91699 38.8857 4.48459 38.8857 7.64509C38.8857 10.855 41.4533 13.4226 44.6142 13.4226C47.7747 13.4226 50.3413 10.855 50.3413 7.64509H44.6142Z" fill="#E39F64"/>
<path fill-rule="evenodd" clip-rule="evenodd" d="M44.6146 7.64501H50.2933C50.2933 4.53438 47.7751 1.96631 44.6146 1.96631C41.4537 1.96631 38.9355 4.53438 38.9355 7.64501C38.9355 10.8055 41.4537 13.3736 44.6146 13.3736C47.7751 13.3736 50.2933 10.8055 50.2933 7.64501H44.6146Z" fill="#E4A166"/>
<path fill-rule="evenodd" clip-rule="evenodd" d="M44.6143 7.64494H50.2431C50.2431 4.53432 47.7249 2.01562 44.6143 2.01562C41.5027 2.01562 38.9845 4.53384 38.9845 7.64494C38.9845 10.756 41.5027 13.2747 44.6143 13.2747C47.7249 13.2747 50.2431 10.756 50.2431 7.64494H44.6143Z" fill="#E4A367"/>
<path fill-rule="evenodd" clip-rule="evenodd" d="M44.6147 7.64436H50.1942C50.1942 4.5831 47.676 2.11377 44.6147 2.11377C41.5525 2.11377 39.0342 4.58262 39.0342 7.64436C39.0342 10.7555 41.5525 13.2243 44.6147 13.2243C47.676 13.2243 50.1942 10.7555 50.1942 7.64436H44.6147Z" fill="#E4A369"/>
<path fill-rule="evenodd" clip-rule="evenodd" d="M44.6148 7.6443H50.096C50.096 4.63241 47.676 2.16309 44.6148 2.16309C41.5525 2.16309 39.133 4.63241 39.133 7.6443C39.133 10.706 41.5525 13.1749 44.6148 13.1749C47.676 13.1749 50.096 10.706 50.096 7.6443H44.6148Z" fill="#E4A36A"/>
<path fill-rule="evenodd" clip-rule="evenodd" d="M44.6144 7.64477H50.0458C50.0478 6.93092 49.9087 6.22371 49.6365 5.56381C49.3642 4.9039 48.9642 4.30432 48.4595 3.79953C47.9547 3.29474 47.3552 2.89469 46.6953 2.62241C46.0354 2.35012 45.3282 2.21095 44.6144 2.21292C43.9004 2.21076 43.1931 2.34979 42.5331 2.622C41.8731 2.89421 41.2734 3.29423 40.7685 3.79904C40.2636 4.30386 39.8636 4.90351 39.5913 5.56351C39.319 6.22351 39.1799 6.93082 39.182 7.64477C39.182 10.6571 41.6015 13.126 44.6144 13.126C47.6258 13.126 50.0458 10.6571 50.0458 7.64477H44.6144Z" fill="#E5A56C"/>
<path fill-rule="evenodd" clip-rule="evenodd" d="M44.6148 7.64468H49.9968C49.9968 4.68217 47.5768 2.2627 44.6148 2.2627C41.6513 2.2627 39.2318 4.68217 39.2318 7.64468C39.2318 10.6077 41.6513 13.0272 44.6148 13.0272C47.5768 13.0272 49.9968 10.6077 49.9968 7.64468H44.6148Z" fill="#E5A56C"/>
<path fill-rule="evenodd" clip-rule="evenodd" d="M44.6144 7.64461H49.9466C49.9466 4.73145 47.5276 2.36133 44.6144 2.36133C41.7003 2.36133 39.2808 4.73145 39.2808 7.64461C39.2808 10.6076 41.7003 12.9773 44.6144 12.9773C47.5276 12.9773 49.9466 10.6076 49.9466 7.64461H44.6144Z" fill="#E5A76E"/>
<path fill-rule="evenodd" clip-rule="evenodd" d="M44.6148 7.64455H49.8487C49.8487 4.78076 47.5279 2.41064 44.6148 2.41064C41.7006 2.41064 39.3804 4.78076 39.3804 7.64455C39.3804 10.5582 41.7011 12.9283 44.6148 12.9283C47.5279 12.9283 49.8487 10.5582 49.8487 7.64455H44.6148Z" fill="#E5A770"/>
<path fill-rule="evenodd" clip-rule="evenodd" d="M44.6148 7.64449H49.7989C49.7989 4.7807 47.4781 2.45996 44.6148 2.45996C41.7501 2.45996 39.4294 4.7807 39.4294 7.64449C39.4294 10.5088 41.7501 12.8295 44.6148 12.8295C47.4786 12.8295 49.7989 10.5088 49.7989 7.64449H44.6148Z" fill="#E6A970"/>
<path fill-rule="evenodd" clip-rule="evenodd" d="M44.6145 7.64445H49.7492C49.7492 4.83003 47.4284 2.50928 44.6145 2.50928C41.7991 2.50928 39.4784 4.83003 39.4784 7.64445C39.4784 10.5087 41.7991 12.7796 44.6145 12.7796C47.4284 12.7796 49.7492 10.5087 49.7492 7.64445H44.6145Z" fill="#E6A972"/>
<path fill-rule="evenodd" clip-rule="evenodd" d="M44.6141 7.64482H49.6999C49.6999 4.87977 47.4281 2.6084 44.6141 2.6084C41.7987 2.6084 39.5273 4.87977 39.5273 7.64482C39.5264 8.31306 39.6573 8.97493 39.9126 9.59248C40.1679 10.21 40.5426 10.7711 41.0151 11.2436C41.4877 11.7161 42.0488 12.0907 42.6664 12.346C43.284 12.6012 43.9459 12.7321 44.6141 12.7311C45.2823 12.732 45.9441 12.601 46.5615 12.3457C47.179 12.0904 47.74 11.7158 48.2125 11.2433C48.6849 10.7708 49.0595 10.2098 49.3147 9.59226C49.57 8.97477 49.7009 8.31298 49.6999 7.64482H44.6141Z" fill="#E6AB74"/>
<path fill-rule="evenodd" clip-rule="evenodd" d="M44.615 7.64482H49.6016C49.6033 6.98945 49.4756 6.3402 49.2256 5.73437C48.9756 5.12854 48.6084 4.57808 48.145 4.11464C47.6816 3.6512 47.1312 3.28391 46.5254 3.03389C45.9196 2.78386 45.2703 2.65603 44.615 2.65774C43.9595 2.65584 43.3101 2.78353 42.7041 3.03347C42.0981 3.28341 41.5476 3.65067 41.084 4.11413C40.6205 4.57759 40.2531 5.12811 40.003 5.73403C39.753 6.33996 39.6252 6.98933 39.6269 7.64482C39.6269 10.4104 41.849 12.6818 44.615 12.6818C47.3796 12.6818 49.6016 10.4104 49.6016 7.64482H44.615Z" fill="#E6AB75"/>
<path fill-rule="evenodd" clip-rule="evenodd" d="M44.6146 7.64474H49.5518C49.5518 4.92857 47.3303 2.70703 44.6146 2.70703C41.8984 2.70703 39.6759 4.92905 39.6759 7.64474C39.6759 10.4103 41.8979 12.5829 44.6146 12.5829C45.2636 12.5852 45.9067 12.4589 46.5068 12.2115C47.1069 11.9641 47.6521 11.6005 48.111 11.1415C48.5699 10.6825 48.9335 10.1372 49.1808 9.53706C49.428 8.93693 49.5541 8.29381 49.5518 7.64474H44.6146Z" fill="#E7AD77"/>
<path fill-rule="evenodd" clip-rule="evenodd" d="M44.6142 7.64467H49.5025C49.5025 4.97836 47.3299 2.75635 44.6142 2.75635C41.898 2.75635 39.7249 4.97836 39.7249 7.64467C39.7249 10.3608 41.8976 12.5335 44.6142 12.5335C45.2569 12.5361 45.8938 12.4115 46.4881 12.1668C47.0824 11.922 47.6224 11.562 48.0769 11.1075C48.5313 10.653 48.8913 10.113 49.136 9.51865C49.3807 8.92431 49.5052 8.2874 49.5025 7.64467H44.6142Z" fill="#E7AD77"/>
<path fill-rule="evenodd" clip-rule="evenodd" d="M44.6146 7.64508H49.4536C49.4536 4.97874 47.281 2.85498 44.6146 2.85498C41.9478 2.85498 39.7747 4.97874 39.7747 7.64508C39.7747 10.3119 41.9473 12.4845 44.6146 12.4845C47.2805 12.4845 49.4536 10.3119 49.4536 7.64508H44.6146Z" fill="#E8AF79"/>
<path fill-rule="evenodd" clip-rule="evenodd" d="M44.6147 7.64501H49.3544C49.3544 5.02806 47.2311 2.90479 44.6147 2.90479C41.9972 2.90479 39.8735 5.02806 39.8735 7.64501C39.8735 10.3118 41.9967 12.4351 44.6147 12.4351C47.2311 12.4351 49.3544 10.3118 49.3544 7.64501H44.6147Z" fill="#E8AF7B"/>
<path fill-rule="evenodd" clip-rule="evenodd" d="M44.6143 7.64498H49.3051C49.3051 5.07738 47.2307 2.95361 44.6143 2.95361C41.9968 2.95361 39.9225 5.07738 39.9225 7.64498C39.9225 10.2619 41.9964 12.3363 44.6143 12.3363C47.2307 12.3363 49.3051 10.2624 49.3051 7.64498H44.6143Z" fill="#E8B17B"/>
<path fill-rule="evenodd" clip-rule="evenodd" d="M44.6147 7.6449H49.2562C49.2568 7.0352 49.1372 6.43136 48.9042 5.86794C48.6711 5.30453 48.3293 4.7926 47.8981 4.36147C47.467 3.93035 46.9551 3.58848 46.3917 3.35545C45.8283 3.12242 45.2244 3.00279 44.6147 3.00342C44.0049 3.00266 43.401 3.1222 42.8374 3.35517C42.2739 3.58815 41.7619 3.92999 41.3306 4.36113C40.8994 4.79227 40.5574 5.30424 40.3244 5.86772C40.0913 6.4312 39.9716 7.03512 39.9722 7.6449C39.9715 8.25473 40.0911 8.85871 40.3242 9.42224C40.5573 9.98577 40.8992 10.4978 41.3305 10.929C41.7617 11.3602 42.2738 11.7021 42.8373 11.9351C43.4009 12.1681 44.0049 12.2876 44.6147 12.2869C45.2244 12.2874 45.8283 12.1677 46.3917 11.9347C46.9551 11.7016 47.4671 11.3597 47.8982 10.9285C48.3293 10.4973 48.6712 9.98538 48.9042 9.42194C49.1372 8.8585 49.2568 8.25463 49.2562 7.6449H44.6147Z" fill="#E8B17D"/>
<path fill-rule="evenodd" clip-rule="evenodd" d="M44.6143 7.64431H49.206C49.206 5.1261 47.1325 3.10156 44.6143 3.10156C42.0956 3.10156 40.0212 5.1261 40.0212 7.64431C40.0212 10.1625 42.0951 12.2369 44.6143 12.2369C47.1325 12.2369 49.206 10.163 49.206 7.64431H44.6143Z" fill="#E8B17E"/>
<path fill-rule="evenodd" clip-rule="evenodd" d="M44.6147 7.64429H49.1081C49.1081 5.17545 47.083 3.15091 44.6147 3.15091C44.024 3.14888 43.4388 3.26372 42.8927 3.48881C42.3466 3.7139 41.8504 4.0448 41.4327 4.46244C41.015 4.88009 40.684 5.37624 40.4589 5.92232C40.2338 6.4684 40.1189 7.05362 40.1208 7.64429C40.1208 10.1625 42.096 12.1871 44.6147 12.1871C47.083 12.1871 49.1081 10.1625 49.1081 7.64429H44.6147Z" fill="#E9B381"/>
<path fill-rule="evenodd" clip-rule="evenodd" d="M44.6143 7.64475H49.0579C49.0604 7.0605 48.9471 6.48154 48.7247 5.94128C48.5023 5.40103 48.175 4.91016 47.7619 4.497C47.3488 4.08385 46.858 3.75659 46.3178 3.5341C45.7775 3.31162 45.1986 3.19831 44.6143 3.20072C44.03 3.19825 43.451 3.31151 42.9107 3.53396C42.3704 3.75641 41.8795 4.08365 41.4663 4.49681C41.0531 4.90996 40.7258 5.40084 40.5033 5.94113C40.2807 6.48143 40.1674 7.06044 40.1698 7.64475C40.1674 8.22908 40.2807 8.80812 40.5032 9.34844C40.7258 9.88876 41.053 10.3797 41.4662 10.7929C41.8794 11.2061 42.3703 11.5333 42.9107 11.7558C43.451 11.9784 44.03 12.0917 44.6143 12.0893C45.1986 12.0916 45.7776 11.9782 46.3178 11.7557C46.858 11.5332 47.3489 11.2059 47.762 10.7927C48.1751 10.3795 48.5023 9.88858 48.7247 9.34829C48.9471 8.808 49.0604 8.22902 49.0579 7.64475H44.6143Z" fill="#E9B381"/>
<path fill-rule="evenodd" clip-rule="evenodd" d="M44.6147 7.64467H49.0089C49.0089 5.22518 47.0337 3.25 44.6147 3.25C42.1948 3.25 40.2196 5.22518 40.2196 7.64467C40.2196 10.0642 42.1948 12.0393 44.6147 12.0393C47.0337 12.0393 49.0089 10.0642 49.0089 7.64467H44.6147Z" fill="#E9B583"/>
<path fill-rule="evenodd" clip-rule="evenodd" d="M44.6144 7.64458H48.9597C48.9597 5.27445 46.9835 3.34863 44.6144 3.34863C42.2438 3.34863 40.2686 5.27445 40.2686 7.64458C40.2686 10.0641 42.2438 11.9899 44.6144 11.9899C46.9835 11.9899 48.9597 10.0641 48.9597 7.64458H44.6144Z" fill="#E9B584"/>
<path fill-rule="evenodd" clip-rule="evenodd" d="M44.6144 7.64452H48.8605C48.8605 5.32376 46.9835 3.39795 44.6144 3.39795C42.2438 3.39795 40.3673 5.32376 40.3673 7.64452C40.3673 10.0146 42.2438 11.9405 44.6144 11.9405C46.9835 11.9405 48.8605 10.0146 48.8605 7.64452H44.6144Z" fill="#EAB786"/>
<path fill-rule="evenodd" clip-rule="evenodd" d="M44.6148 7.64444H48.8115C48.812 7.09316 48.7038 6.54719 48.493 6.03776C48.2823 5.52834 47.9732 5.06547 47.5834 4.67564C47.1936 4.2858 46.7308 3.97665 46.2214 3.76587C45.712 3.55509 45.166 3.44683 44.6148 3.44727C42.2935 3.44727 40.4171 5.3237 40.4171 7.64444C40.4171 9.96518 42.2935 11.8416 44.6148 11.8416C45.166 11.8421 45.712 11.7338 46.2214 11.523C46.7308 11.3122 47.1936 11.0031 47.5834 10.6132C47.9732 10.2234 48.2823 9.76054 48.493 9.25112C48.7038 8.74169 48.812 8.19572 48.8115 7.64444H44.6148Z" fill="#EAB788"/>
<path fill-rule="evenodd" clip-rule="evenodd" d="M44.6144 7.64443H48.7613C48.7613 5.37303 46.8853 3.49658 44.6144 3.49658C42.3426 3.49658 40.4661 5.37303 40.4661 7.64443C40.4661 9.96519 42.3426 11.7923 44.6144 11.7923C46.8853 11.7923 48.7613 9.96519 48.7613 7.64443H44.6144Z" fill="#EBB989"/>
<path fill-rule="evenodd" clip-rule="evenodd" d="M44.6141 7.64477H48.7126C48.7126 5.42277 46.8855 3.5957 44.6141 3.5957C42.3422 3.5957 40.5151 5.42277 40.5151 7.64477C40.5138 8.18339 40.6189 8.71698 40.8245 9.21485C41.03 9.71273 41.3319 10.1651 41.7128 10.5459C42.0937 10.9268 42.5461 11.2286 43.044 11.4341C43.5419 11.6395 44.0755 11.7446 44.6141 11.7432C45.1527 11.7445 45.6863 11.6394 46.1841 11.4339C46.682 11.2284 47.1343 10.9266 47.5151 10.5458C47.896 10.1649 48.1978 9.71258 48.4033 9.21474C48.6088 8.7169 48.7139 8.18335 48.7126 7.64477H44.6141Z" fill="#EBB98A"/>
<path fill-rule="evenodd" clip-rule="evenodd" d="M44.6149 7.64476H48.6141C48.6163 7.11893 48.5144 6.59786 48.3142 6.11162C48.114 5.62539 47.8195 5.1836 47.4477 4.81176C47.0759 4.43992 46.6342 4.14537 46.148 3.94513C45.6618 3.74488 45.1407 3.6429 44.6149 3.64505C42.3924 3.64505 40.6147 5.42227 40.6147 7.64476C40.6147 9.86724 42.3924 11.6943 44.6149 11.6943C46.8364 11.6943 48.6141 9.86724 48.6141 7.64476H44.6149Z" fill="#EBBB8C"/>
<path fill-rule="evenodd" clip-rule="evenodd" d="M44.6145 7.64467H48.5639C48.5639 5.47203 46.7872 3.69434 44.6145 3.69434C42.4414 3.69434 40.6637 5.47155 40.6637 7.64467C40.6637 9.86667 42.4414 11.5955 44.6145 11.5955C46.7872 11.5955 48.5639 9.86715 48.5639 7.64467H44.6145Z" fill="#EBBB8C"/>
<path fill-rule="evenodd" clip-rule="evenodd" d="M44.6142 7.64464H48.5152C48.5152 5.52136 46.7873 3.74365 44.6142 3.74365C42.4411 3.74365 40.7127 5.52088 40.7127 7.64464C40.7097 8.15781 40.8085 8.6665 41.0035 9.1412C41.1985 9.6159 41.4858 10.0472 41.8487 10.41C42.2116 10.7729 42.6429 11.0601 43.1176 11.255C43.5923 11.45 44.101 11.5487 44.6142 11.5456C45.1274 11.5487 45.636 11.45 46.1107 11.255C46.5854 11.0601 47.0167 10.7729 47.3796 10.41C47.7425 10.0471 48.0297 9.61586 48.2246 9.14116C48.4196 8.66646 48.5183 8.15779 48.5152 7.64464H44.6142Z" fill="#ECBD8F"/>
<path fill-rule="evenodd" clip-rule="evenodd" d="M44.6145 7.64501H48.4657C48.4657 5.52174 46.7378 3.84277 44.6145 3.84277C42.4908 3.84277 40.7625 5.52126 40.7625 7.64501C40.7625 9.76877 42.4908 11.4971 44.6145 11.4971C46.7378 11.4971 48.4657 9.76877 48.4657 7.64501H44.6145Z" fill="#ECBD90"/>
<path fill-rule="evenodd" clip-rule="evenodd" d="M44.6146 7.64449H48.3665C48.3667 7.15167 48.2699 6.66362 48.0814 6.20825C47.893 5.75288 47.6166 5.3391 47.2682 4.99057C46.9197 4.64205 46.5061 4.3656 46.0507 4.17704C45.5954 3.98847 45.1074 3.89148 44.6146 3.8916C44.1216 3.89135 43.6335 3.98825 43.178 4.17675C42.7226 4.36526 42.3087 4.64167 41.9602 4.99021C41.6116 5.33874 41.3351 5.75255 41.1466 6.20799C40.958 6.66343 40.861 7.15156 40.8612 7.64449C40.8612 9.71841 42.5402 11.4468 44.6146 11.4468C46.688 11.4468 48.3665 9.71841 48.3665 7.64449H44.6146Z" fill="#ECBF93"/>
<path fill-rule="evenodd" clip-rule="evenodd" d="M44.6143 7.64442H48.3178C48.3178 5.61988 46.6384 3.94092 44.6143 3.94092C42.5399 3.94092 40.9102 5.61988 40.9102 7.64442C40.9102 9.71833 42.5399 11.3479 44.6143 11.3479C46.6384 11.3479 48.3178 9.71833 48.3178 7.64442H44.6143Z" fill="#ECBF93"/>
<path fill-rule="evenodd" clip-rule="evenodd" d="M44.6147 7.64436H48.2684C48.2684 5.61983 46.6387 3.99023 44.6147 3.99023C42.5896 3.99023 40.96 5.61935 40.96 7.64436C40.96 9.66937 42.5896 11.2985 44.6147 11.2985C45.0948 11.2996 45.5705 11.2058 46.0143 11.0225C46.4581 10.8393 46.8613 10.5701 47.2008 10.2306C47.5403 9.89105 47.8094 9.48779 47.9926 9.04397C48.1758 8.60015 48.2695 8.12451 48.2684 7.64436H44.6147Z" fill="#EDC195"/>
<path fill-rule="evenodd" clip-rule="evenodd" d="M44.6143 7.64477H48.2186C48.2186 5.6696 46.5899 4.08984 44.6143 4.08984C42.6386 4.08984 41.009 5.67008 41.009 7.64477C41.009 9.61994 42.6386 11.2495 44.6143 11.2495C46.5894 11.2495 48.2186 9.61994 48.2186 7.64477H44.6143Z" fill="#EDC196"/>
<path fill-rule="evenodd" clip-rule="evenodd" d="M44.6143 7.64471H48.1199C48.1199 5.7189 46.5397 4.13867 44.6143 4.13867C42.688 4.13867 41.1078 5.7189 41.1078 7.64471C41.1078 9.61988 42.688 11.2001 44.6143 11.2001C46.5402 11.2001 48.1199 9.61988 48.1199 7.64471H44.6143Z" fill="#EEC397"/>
<path fill-rule="evenodd" clip-rule="evenodd" d="M44.614 7.64468H48.0703C48.0703 5.76823 46.5399 4.18848 44.614 4.18848C42.6877 4.18848 41.1569 5.76871 41.1569 7.64468C41.1541 8.09944 41.2416 8.55023 41.4143 8.97091C41.5871 9.39159 41.8416 9.77378 42.1632 10.0953C42.4848 10.4169 42.8671 10.6714 43.2878 10.8441C43.7085 11.0168 44.1593 11.1042 44.614 11.1014C45.0687 11.1042 45.5195 11.0167 45.9401 10.8439C46.3607 10.6712 46.7429 10.4167 47.0644 10.0951C47.3859 9.77359 47.6403 9.39141 47.813 8.97076C47.9857 8.55012 48.0731 8.09937 48.0703 7.64468H44.614Z" fill="#EEC399"/>
<path fill-rule="evenodd" clip-rule="evenodd" d="M44.6144 7.64462H48.0207C48.0207 5.76817 46.4903 4.2373 44.6144 4.2373C42.7374 4.2373 41.2066 5.76817 41.2066 7.64462C41.2066 9.52154 42.7374 11.0519 44.6144 11.0519C46.4903 11.0519 48.0207 9.52154 48.0207 7.64462H44.6144Z" fill="#EEC59B"/>
<path fill-rule="evenodd" clip-rule="evenodd" d="M44.614 7.64449H47.971C47.971 5.81743 46.4406 4.33594 44.614 4.33594C42.7864 4.33594 41.2556 5.81743 41.2556 7.64449C41.2556 9.5214 42.7864 11.0024 44.614 11.0024C46.4406 11.0024 47.971 9.5214 47.971 7.64449H44.614Z" fill="#EEC69D"/>
<path fill-rule="evenodd" clip-rule="evenodd" d="M44.6148 7.64447H47.8735C47.8735 5.86724 46.4414 4.38525 44.6148 4.38525C42.7873 4.38525 41.3551 5.86676 41.3551 7.64447C41.3551 9.47155 42.7873 10.9531 44.6148 10.9531C46.4414 10.9531 47.8735 9.47155 47.8735 7.64447H44.6148Z" fill="#EEC69F"/>
<path fill-rule="evenodd" clip-rule="evenodd" d="M44.6144 7.64489H47.8233C47.8241 7.22322 47.7417 6.80554 47.5807 6.4158C47.4198 6.02605 47.1834 5.67192 46.8853 5.37371C46.5872 5.0755 46.2331 4.83908 45.8434 4.678C45.4538 4.51693 45.0361 4.43437 44.6144 4.43507C44.1926 4.43418 43.7748 4.5166 43.385 4.67759C42.9951 4.83858 42.6409 5.07497 42.3426 5.3732C42.0443 5.67143 41.8079 6.02563 41.6468 6.41546C41.4858 6.8053 41.4033 7.2231 41.4041 7.64489C41.4033 8.06668 41.4858 8.48449 41.6468 8.87432C41.8079 9.26416 42.0443 9.61835 42.3426 9.91658C42.6409 10.2148 42.9951 10.4512 43.385 10.6122C43.7748 10.7732 44.1926 10.8556 44.6144 10.8547C45.0361 10.8555 45.4538 10.773 45.8435 10.6119C46.2332 10.4509 46.5873 10.2144 46.8855 9.91621C47.1836 9.61799 47.4199 9.26383 47.5808 8.87406C47.7418 8.48429 47.8242 8.06658 47.8233 7.64489H44.6144Z" fill="#EFC89F"/>
<path fill-rule="evenodd" clip-rule="evenodd" d="M44.6141 7.64439H47.7746C47.7746 5.91652 46.3424 4.48438 44.6141 4.48438C42.8853 4.48438 41.4531 5.91652 41.4531 7.64439C41.4519 8.05983 41.5328 8.47142 41.6912 8.85547C41.8496 9.23952 42.0824 9.58845 42.3762 9.88219C42.6699 10.1759 43.0189 10.4087 43.403 10.567C43.7871 10.7254 44.1987 10.8062 44.6141 10.8049C45.0295 10.8062 45.441 10.7253 45.825 10.5669C46.2091 10.4085 46.558 10.1758 46.8517 9.88202C47.1454 9.58829 47.3782 9.23938 47.5366 8.85536C47.695 8.47134 47.7758 8.05979 47.7746 7.64439H44.6141Z" fill="#EFC8A1"/>
<path fill-rule="evenodd" clip-rule="evenodd" d="M44.6145 7.64475H47.7251C47.7251 5.96626 46.3424 4.5835 44.6145 4.5835C42.8857 4.5835 41.5029 5.96626 41.5029 7.64475C41.5012 8.05383 41.5805 8.4592 41.7363 8.83746C41.8921 9.21572 42.1212 9.55938 42.4105 9.84862C42.6998 10.1379 43.0435 10.367 43.4218 10.5227C43.8001 10.6784 44.2054 10.7576 44.6145 10.7559C45.0235 10.7575 45.4288 10.6782 45.807 10.5224C46.1851 10.3666 46.5287 10.1375 46.8179 9.84828C47.1071 9.55906 47.3361 9.21543 47.4919 8.83723C47.6476 8.45904 47.7269 8.05375 47.7251 7.64475H44.6145Z" fill="#EFCAA3"/>
<path fill-rule="evenodd" clip-rule="evenodd" d="M44.6146 7.6448H47.626C47.6286 7.24858 47.5525 6.85578 47.4021 6.48921C47.2517 6.12264 47.03 5.78959 46.7498 5.5094C46.4697 5.2292 46.1366 5.00743 45.7701 4.85697C45.4036 4.7065 45.0108 4.63033 44.6146 4.63288C44.2183 4.63027 43.8254 4.70638 43.4588 4.85681C43.0921 5.00724 42.759 5.22898 42.4787 5.50917C42.1984 5.78936 41.9766 6.12242 41.826 6.48903C41.6755 6.85564 41.5993 7.24849 41.6017 7.6448C41.6017 9.32378 42.9351 10.7066 44.6146 10.7066C46.2931 10.7066 47.626 9.32426 47.626 7.6448H44.6146Z" fill="#EFCAA3"/>
<path fill-rule="evenodd" clip-rule="evenodd" d="M44.6141 7.64464H47.5762C47.5762 6.01505 46.2433 4.68213 44.6141 4.68213C42.9841 4.68213 41.6507 6.01505 41.6507 7.64464C41.6507 9.27424 42.9841 10.6076 44.6141 10.6076C46.2428 10.6076 47.5762 9.27424 47.5762 7.64464H44.6141Z" fill="#F0CCA6"/>
<path fill-rule="evenodd" clip-rule="evenodd" d="M44.6146 7.64462H47.5278C47.5278 6.06485 46.1939 4.73145 44.6146 4.73145C42.9845 4.73145 41.7004 6.06485 41.7004 7.64462C41.7004 9.27423 42.9845 10.5583 44.6146 10.5583C46.1939 10.5583 47.5278 9.27423 47.5278 7.64462H44.6146Z" fill="#F0CCA8"/>
<path fill-rule="evenodd" clip-rule="evenodd" d="M44.6142 7.6445H47.478C47.478 6.06474 46.1935 4.83008 44.6142 4.83008C43.034 4.83008 41.7495 6.06474 41.7495 7.6445C41.75 8.40408 42.052 9.1324 42.5891 9.66945C43.1263 10.2065 43.8546 10.5084 44.6142 10.5088C45.3736 10.5081 46.1017 10.2061 46.6387 9.66912C47.1756 9.13209 47.4775 8.40391 47.478 7.6445H44.6142Z" fill="#F1CEAA"/>
<path fill-rule="evenodd" clip-rule="evenodd" d="M44.6142 7.64493H47.3788C47.3795 7.28166 47.3085 6.92184 47.1698 6.58608C47.0311 6.25033 46.8275 5.94526 46.5706 5.68837C46.3138 5.43148 46.0088 5.22783 45.673 5.08909C45.3373 4.95035 44.9775 4.87926 44.6142 4.87989C43.0829 4.87989 41.8482 6.11407 41.8482 7.64493C41.8482 9.17579 43.0829 10.4598 44.6142 10.4598C46.1446 10.4598 47.3788 9.17579 47.3788 7.64493H44.6142Z" fill="#F1CEAA"/>
<path fill-rule="evenodd" clip-rule="evenodd" d="M44.6142 7.64439H47.3299C47.3299 6.16337 46.0952 4.92822 44.6142 4.92822C43.1322 4.92822 41.898 6.16289 41.898 7.64439C41.8969 8.00139 41.9665 8.35507 42.1026 8.6851C42.2387 9.01513 42.4387 9.31498 42.6912 9.56742C42.9436 9.81985 43.2435 10.0199 43.5735 10.156C43.9035 10.2921 44.2572 10.3616 44.6142 10.3606C44.9711 10.3616 45.3248 10.292 45.6547 10.1559C45.9847 10.0197 46.2845 9.81967 46.5369 9.56725C46.7893 9.31482 46.9892 9.01498 47.1253 8.68499C47.2614 8.35499 47.3309 8.00135 47.3299 7.64439H44.6142Z" fill="#F1D0AD"/>
<path fill-rule="evenodd" clip-rule="evenodd" d="M44.6146 7.64485H47.2804C47.2804 6.21271 46.0951 4.97852 44.6146 4.97852C43.1326 4.97852 41.9478 6.21271 41.9478 7.64485C41.9463 7.99548 42.0142 8.34295 42.1477 8.66719C42.2812 8.99143 42.4776 9.28602 42.7255 9.53396C42.9734 9.7819 43.268 9.97828 43.5923 10.1118C43.9165 10.2452 44.264 10.3132 44.6146 10.3117C44.9652 10.3131 45.3125 10.245 45.6366 10.1115C45.9608 9.97795 46.2552 9.78155 46.5031 9.53362C46.7509 9.28569 46.9472 8.99114 47.0806 8.66697C47.214 8.34279 47.282 7.9954 47.2804 7.64485H44.6146Z" fill="#F1D0AE"/>
<path fill-rule="evenodd" clip-rule="evenodd" d="M44.6142 7.64422H47.2307C47.2307 6.2121 46.0454 5.07666 44.6142 5.07666C43.1821 5.07666 41.9968 6.2121 41.9968 7.64422C41.9968 9.07635 43.1821 10.2612 44.6142 10.2612C46.0454 10.2612 47.2307 9.07587 47.2307 7.64422H44.6142Z" fill="#F2D2B1"/>
<path fill-rule="evenodd" clip-rule="evenodd" d="M44.6143 7.64468H47.1325C47.1325 6.26239 45.9961 5.12646 44.6143 5.12646C43.2315 5.12646 42.0956 6.26239 42.0956 7.64468C42.0956 9.07681 43.232 10.2123 44.6143 10.2123C45.9961 10.2123 47.1325 9.07633 47.1325 7.64468H44.6143Z" fill="#F2D2B3"/>
<path fill-rule="evenodd" clip-rule="evenodd" d="M44.6147 7.64461H47.0831C47.0831 6.31122 45.996 5.17578 44.6147 5.17578C43.2319 5.17578 42.1454 6.31122 42.1454 7.64461C42.1454 9.02737 43.2324 10.1134 44.6147 10.1134C45.9965 10.1134 47.0831 9.02689 47.0831 7.64461H44.6147Z" fill="#F3D4B4"/>
<path fill-rule="evenodd" clip-rule="evenodd" d="M44.6143 7.64458H47.0333C47.0324 7.00325 46.7773 6.38843 46.3238 5.9349C45.8704 5.48136 45.2556 5.22611 44.6143 5.2251C43.2804 5.2251 42.1943 6.31166 42.1943 7.64458C42.1943 8.9775 43.2804 10.0641 44.6143 10.0641C45.2556 10.0629 45.8703 9.80763 46.3237 9.35412C46.7771 8.90062 47.0323 8.28587 47.0333 7.64458H44.6143Z" fill="#F3D4B5"/>
<path fill-rule="evenodd" clip-rule="evenodd" d="M44.6139 7.64447H46.9831C46.9831 6.36092 45.897 5.32373 44.6139 5.32373C43.3294 5.32373 42.2433 6.36092 42.2433 7.64447C42.2433 8.97786 43.3299 10.0146 44.6139 10.0146C45.8975 10.0146 46.9831 8.97738 46.9831 7.64447H44.6139Z" fill="#F3D4B7"/>
<path fill-rule="evenodd" clip-rule="evenodd" d="M44.6148 7.64491H46.8857C46.8865 7.34644 46.8284 7.05075 46.7145 6.77483C46.6007 6.49892 46.4335 6.24822 46.2224 6.03715C46.0114 5.82608 45.7607 5.65879 45.4848 5.54491C45.209 5.43102 44.9133 5.37279 44.6148 5.37355C44.3162 5.37266 44.0204 5.4308 43.7444 5.54463C43.4684 5.65846 43.2177 5.82572 43.0065 6.03681C42.7954 6.24789 42.6281 6.49863 42.5142 6.77461C42.4003 7.05059 42.3421 7.34636 42.3429 7.64491C42.3429 8.92893 43.3307 9.96564 44.6148 9.96564C45.8984 9.96564 46.8857 8.92845 46.8857 7.64491H44.6148Z" fill="#F3D6B8"/>
<path fill-rule="evenodd" clip-rule="evenodd" d="M44.6144 7.6444H46.8359C46.8371 7.35231 46.7805 7.06286 46.6693 6.79276C46.5581 6.52266 46.3945 6.27725 46.188 6.07068C45.9815 5.86411 45.7361 5.70047 45.466 5.58921C45.1959 5.47794 44.9065 5.42124 44.6144 5.42238C43.3797 5.42238 42.3919 6.41021 42.3919 7.6444C42.3919 8.8786 43.3797 9.86643 44.6144 9.86643C44.9065 9.86757 45.1959 9.81088 45.466 9.69961C45.7361 9.58834 45.9815 9.4247 46.188 9.21813C46.3945 9.01156 46.5581 8.76615 46.6693 8.49605C46.7805 8.22595 46.8371 7.9365 46.8359 7.6444H44.6144Z" fill="#F4D8BA"/>
<path fill-rule="evenodd" clip-rule="evenodd" d="M44.614 7.64482H46.7867C46.7867 6.45952 45.7989 5.47217 44.614 5.47217C43.4292 5.47217 42.4409 6.46 42.4409 7.64482C42.4409 8.8795 43.4292 9.81749 44.614 9.81749C45.7989 9.81749 46.7867 8.87902 46.7867 7.64482H44.614Z" fill="#F4D9BC"/>
<path fill-rule="evenodd" clip-rule="evenodd" d="M44.6144 7.64471H46.7377C46.7377 6.50878 45.7997 5.5708 44.6144 5.5708C43.4291 5.5708 42.4907 6.50878 42.4907 7.64471C42.4907 8.83001 43.4291 9.768 44.6144 9.768C45.7997 9.768 46.7377 8.82954 46.7377 7.64471H44.6144Z" fill="#F4D9BE"/>
<path fill-rule="evenodd" clip-rule="evenodd" d="M44.6145 7.64464H46.6385C46.6385 6.50872 45.7499 5.62012 44.6145 5.62012C43.4781 5.62012 42.5894 6.50872 42.5894 7.64464C42.5894 8.78057 43.4781 9.71854 44.6145 9.71854C45.7499 9.71854 46.6385 8.78009 46.6385 7.64464H44.6145Z" fill="#F4DBBF"/>
<path fill-rule="evenodd" clip-rule="evenodd" d="M44.6149 7.64462H46.59C46.5885 7.12123 46.3799 6.61972 46.0098 6.24963C45.6397 5.87954 45.1382 5.67095 44.6149 5.66943C43.5278 5.66943 42.6392 6.55805 42.6392 7.64462C42.6392 8.73118 43.5278 9.6198 44.6149 9.6198C45.1382 9.61829 45.6397 9.4097 46.0098 9.03961C46.3799 8.66952 46.5885 8.168 46.59 7.64462H44.6149Z" fill="#F4DBC0"/>
<path fill-rule="evenodd" clip-rule="evenodd" d="M44.6145 7.64455H46.5403C46.5403 6.60736 45.6512 5.71875 44.6145 5.71875C43.5773 5.71875 42.6882 6.60736 42.6882 7.64455C42.6882 8.73111 43.5773 9.57036 44.6145 9.57036C45.6508 9.57036 46.5403 8.73111 46.5403 7.64455H44.6145Z" fill="#F5DDC3"/>
<path fill-rule="evenodd" clip-rule="evenodd" d="M44.6142 7.64496H46.4902C46.4902 6.65712 45.6504 5.81787 44.6142 5.81787C43.577 5.81787 42.7372 6.65712 42.7372 7.64496C42.7372 8.14263 42.9349 8.61991 43.2868 8.97182C43.6388 9.32372 44.116 9.52142 44.6137 9.52142C45.1114 9.52142 45.5887 9.32372 45.9406 8.97182C46.2925 8.61991 46.4902 8.14263 46.4902 7.64496H44.6142Z" fill="#F5DDC3"/>
<path fill-rule="evenodd" clip-rule="evenodd" d="M44.6142 7.64489H46.3909C46.3909 6.65707 45.602 5.86768 44.6142 5.86768C43.6264 5.86768 42.836 6.65755 42.836 7.64489C42.836 8.63224 43.6264 9.47196 44.6142 9.47196C45.602 9.47196 46.3909 8.63272 46.3909 7.64489H44.6142Z" fill="#F6DFC6"/>
<path fill-rule="evenodd" clip-rule="evenodd" d="M44.6145 7.64487H46.3424C46.3424 6.7064 45.5525 5.91699 44.6145 5.91699C43.6756 5.91699 42.8858 6.70688 42.8858 7.64487C42.8858 8.6327 43.6756 9.37322 44.6145 9.37322C45.5525 9.37322 46.3424 8.6327 46.3424 7.64487H44.6145Z" fill="#F6DFC7"/>
<path fill-rule="evenodd" clip-rule="evenodd" d="M44.6143 7.64479H46.2928C46.2928 6.75618 45.5523 5.96631 44.6143 5.96631C43.6754 5.96631 42.9348 6.75618 42.9348 7.64479C42.933 7.86584 42.9752 8.08504 43.0589 8.28961C43.1427 8.49418 43.2663 8.68002 43.4226 8.8363C43.579 8.99259 43.7649 9.11618 43.9694 9.19987C44.174 9.28356 44.3933 9.32568 44.6143 9.32376C44.8353 9.32555 45.0544 9.28334 45.2588 9.19959C45.4633 9.11584 45.6491 8.99223 45.8053 8.83596C45.9616 8.67969 46.0851 8.49389 46.1688 8.28938C46.2525 8.08488 46.2946 7.86575 46.2928 7.64479H44.6143Z" fill="#F6E1CA"/>
<path fill-rule="evenodd" clip-rule="evenodd" d="M44.6147 7.64472H46.2433C46.2433 6.75609 45.5028 6.06494 44.6147 6.06494C43.7256 6.06494 42.9846 6.75609 42.9846 7.64472C42.9846 8.53382 43.7251 9.27434 44.6147 9.27434C45.5033 9.27434 46.2433 8.53382 46.2433 7.64472H44.6147Z" fill="#F6E1CC"/>
<path fill-rule="evenodd" clip-rule="evenodd" d="M44.6147 7.64465H46.1451C46.1431 7.23934 45.9812 6.8512 45.6947 6.56455C45.4081 6.2779 45.02 6.11591 44.6147 6.11377C44.2092 6.11566 43.8209 6.27754 43.5341 6.56421C43.2474 6.85089 43.0854 7.23917 43.0833 7.64465C43.0833 8.53375 43.775 9.2249 44.6147 9.2249C45.4535 9.2249 46.1451 8.53375 46.1451 7.64465H44.6147Z" fill="#F7E3CD"/>
<path fill-rule="evenodd" clip-rule="evenodd" d="M44.6143 7.64459H46.0953C46.0953 6.85471 45.4531 6.16357 44.6143 6.16357C43.7746 6.16357 43.1323 6.85471 43.1323 7.64459C43.1323 8.48383 43.7746 9.12609 44.6143 9.12609C45.4531 9.12609 46.0953 8.48383 46.0953 7.64459H44.6143Z" fill="#F7E3CF"/>
<path fill-rule="evenodd" clip-rule="evenodd" d="M44.6142 7.64453H46.0454C46.0451 7.26495 45.8943 6.90097 45.626 6.63248C45.3577 6.36399 44.9938 6.21291 44.6142 6.2124C44.2408 6.22206 43.8859 6.37719 43.6252 6.64471C43.3646 6.91223 43.2187 7.27099 43.2187 7.64453C43.2187 8.01806 43.3646 8.37682 43.6252 8.64435C43.8859 8.91187 44.2408 9.06699 44.6142 9.07665C44.9938 9.07627 45.3578 8.92524 45.6261 8.65672C45.8945 8.3882 46.0452 8.02415 46.0454 7.64453H44.6142Z" fill="#F7E3D0"/>
<path fill-rule="evenodd" clip-rule="evenodd" d="M44.6147 7.64443H45.9965C45.9965 6.90392 45.3552 6.31104 44.6147 6.31104C43.8732 6.31104 43.2319 6.90392 43.2319 7.64443C43.2315 7.82612 43.267 8.0061 43.3364 8.17404C43.4057 8.34197 43.5076 8.49456 43.6361 8.62304C43.7645 8.75151 43.9171 8.85335 44.0851 8.92271C44.253 8.99206 44.433 9.02757 44.6147 9.02719C44.7963 9.02751 44.9762 8.99195 45.144 8.92256C45.3119 8.85317 45.4644 8.75131 45.5928 8.62284C45.7212 8.49436 45.8229 8.34179 45.8922 8.17389C45.9615 8.00599 45.9969 7.82606 45.9965 7.64443H44.6147Z" fill="#F8E5D1"/>
<path fill-rule="evenodd" clip-rule="evenodd" d="M44.6144 7.64442H45.898C45.898 6.95328 45.355 6.36088 44.6144 6.36088C44.4455 6.3596 44.278 6.39192 44.1216 6.45597C43.9652 6.52001 43.8232 6.61449 43.7037 6.73392C43.5841 6.85335 43.4895 6.99534 43.4254 7.15165C43.3612 7.30796 43.3288 7.47546 43.3299 7.64442C43.3299 8.38493 43.873 8.97781 44.6144 8.97781C45.355 8.97781 45.898 8.3854 45.898 7.64442H44.6144Z" fill="#F8E8D4"/>
<path fill-rule="evenodd" clip-rule="evenodd" d="M44.6144 7.64487H45.8481C45.8498 7.48235 45.819 7.32113 45.7576 7.17065C45.6962 7.02017 45.6054 6.88344 45.4905 6.76847C45.3757 6.6535 45.239 6.5626 45.0886 6.50108C44.9381 6.43957 44.7769 6.40868 44.6144 6.41022C44.4518 6.40861 44.2906 6.43945 44.14 6.50093C43.9895 6.56242 43.8528 6.6533 43.7378 6.76827C43.6228 6.88324 43.5319 7.01998 43.4705 7.1705C43.409 7.32102 43.3781 7.48229 43.3797 7.64487C43.3781 7.80747 43.4089 7.96877 43.4703 8.11932C43.5318 8.26986 43.6227 8.40664 43.7376 8.52162C43.8526 8.6366 43.9894 8.72748 44.14 8.78894C44.2905 8.8504 44.4518 8.88119 44.6144 8.87953C44.7769 8.88107 44.9381 8.85017 45.0886 8.78866C45.239 8.72714 45.3757 8.63624 45.4905 8.52127C45.6054 8.4063 45.6962 8.26958 45.7576 8.11909C45.819 7.96861 45.8498 7.80739 45.8481 7.64487H44.6144Z" fill="#F8E8D6"/>
<path fill-rule="evenodd" clip-rule="evenodd" d="M44.614 7.64472H45.7993C45.7993 7.00294 45.2553 6.50879 44.614 6.50879C43.9717 6.50879 43.4287 7.00246 43.4287 7.64472C43.4287 8.28697 43.9717 8.83001 44.614 8.83001C45.2553 8.83001 45.7993 8.28697 45.7993 7.64472H44.614Z" fill="#F8E8D8"/>
<path fill-rule="evenodd" clip-rule="evenodd" d="M44.6149 7.64465H45.7503C45.7503 7.05225 45.2063 6.55811 44.6149 6.55811C44.0215 6.55811 43.4785 7.05225 43.4785 7.64465C43.4785 8.28642 44.0215 8.78057 44.6149 8.78057C45.2063 8.78057 45.7503 8.2869 45.7503 7.64465H44.6149Z" fill="#F9EAD9"/>
<path fill-rule="evenodd" clip-rule="evenodd" d="M44.6144 7.64462H45.6506C45.6506 7.10158 45.2058 6.60742 44.6144 6.60742C44.021 6.60742 43.5772 7.1011 43.5772 7.64462C43.5772 8.23752 44.021 8.7312 44.6144 8.7312C45.2058 8.7312 45.6506 8.23752 45.6506 7.64462H44.6144Z" fill="#FAECDC"/>
<path fill-rule="evenodd" clip-rule="evenodd" d="M44.6141 7.64455H45.6019C45.601 7.38284 45.4967 7.1321 45.3116 6.94704C45.1265 6.76198 44.8758 6.65762 44.6141 6.65674C44.0701 6.65674 43.6262 7.10104 43.6262 7.64455C43.6262 8.18807 44.0701 8.63237 44.6141 8.63237C44.8758 8.63161 45.1267 8.52729 45.3118 8.34221C45.4968 8.15712 45.6012 7.9063 45.6019 7.64455H44.6141Z" fill="#FAECDD"/>
<path fill-rule="evenodd" clip-rule="evenodd" d="M44.6142 7.64448H45.5522C45.5522 7.1508 45.1074 6.75586 44.6142 6.75586C44.12 6.75586 43.6752 7.1508 43.6752 7.64448C43.6752 8.18752 44.12 8.58294 44.6142 8.58294C44.7374 8.58295 44.8594 8.55867 44.9733 8.5115C45.0871 8.46433 45.1905 8.3952 45.2776 8.30805C45.3647 8.2209 45.4338 8.11744 45.4809 8.00358C45.528 7.88972 45.5522 7.7677 45.5522 7.64448H44.6142Z" fill="#FAECDF"/>
<path fill-rule="evenodd" clip-rule="evenodd" d="M44.6149 7.64491H45.5035C45.5035 7.20061 45.1086 6.80566 44.6149 6.80566C44.1207 6.80566 43.7258 7.20061 43.7258 7.64491C43.7258 8.13907 44.1207 8.53401 44.6149 8.53401C44.7317 8.53446 44.8475 8.51176 44.9556 8.46723C45.0636 8.4227 45.1618 8.35722 45.2444 8.27456C45.327 8.19191 45.3924 8.09372 45.4369 7.98565C45.4814 7.87758 45.504 7.76177 45.5035 7.64491H44.6149Z" fill="#FAEEE0"/>
<path fill-rule="evenodd" clip-rule="evenodd" d="M44.6146 7.64487H45.4045C45.4045 7.20056 45.058 6.85498 44.6146 6.85498C44.1698 6.85498 43.8238 7.20056 43.8238 7.64487C43.8238 8.08919 44.1703 8.48413 44.6146 8.48413C45.0585 8.48413 45.4045 8.08919 45.4045 7.64487H44.6146Z" fill="#FBF0E3"/>
<path fill-rule="evenodd" clip-rule="evenodd" d="M44.6142 7.6448H45.3547C45.3547 7.24986 45.0082 6.9043 44.6142 6.9043C44.2193 6.9043 43.8728 7.24986 43.8728 7.6448C43.8728 8.0891 44.2193 8.3853 44.6142 8.3853C45.0082 8.3853 45.3547 8.0891 45.3547 7.6448H44.6142Z" fill="#FBF1E5"/>
<path fill-rule="evenodd" clip-rule="evenodd" d="M44.6142 7.64469H45.3048C45.3048 7.29913 45.0081 7.00293 44.6142 7.00293C44.2192 7.00293 43.9225 7.29913 43.9225 7.64469C43.9225 8.0401 44.2192 8.3363 44.6142 8.3363C45.0081 8.3363 45.3048 8.0401 45.3048 7.64469H44.6142Z" fill="#FBF1E7"/>
<path fill-rule="evenodd" clip-rule="evenodd" d="M44.6146 7.64465H45.2559C45.2559 7.29908 44.9602 7.05225 44.6146 7.05225C44.268 7.05225 43.9723 7.29908 43.9723 7.64465C43.9723 7.9907 44.268 8.28643 44.6146 8.28643C44.9602 8.28643 45.2559 7.99022 45.2559 7.64465H44.6146Z" fill="#FCF3E8"/>
<path fill-rule="evenodd" clip-rule="evenodd" d="M44.6143 7.6446H45.1574C45.1574 7.3484 44.9101 7.10156 44.6143 7.10156C44.3177 7.10156 44.0703 7.34888 44.0703 7.6446C44.0703 7.99066 44.3177 8.2375 44.6143 8.2375C44.9101 8.2375 45.1574 7.99066 45.1574 7.6446H44.6143Z" fill="#FCF3EA"/>
<path fill-rule="evenodd" clip-rule="evenodd" d="M44.6143 7.64453H45.1075C45.1075 7.3977 44.91 7.15088 44.6143 7.15088C44.3176 7.15088 44.1201 7.3977 44.1201 7.64453C44.1201 7.9412 44.3176 8.13866 44.6143 8.13866C44.91 8.13866 45.1075 7.9412 45.1075 7.64453H44.6143Z" fill="#FCF5ED"/>
<path fill-rule="evenodd" clip-rule="evenodd" d="M44.6147 7.64446H45.0586C45.0586 7.39762 44.8611 7.24951 44.6147 7.24951C44.3674 7.24951 44.1699 7.39762 44.1699 7.64446C44.1699 7.8913 44.3674 8.08878 44.6147 8.08878C44.6731 8.08897 44.7309 8.0776 44.7849 8.05533C44.8389 8.03307 44.8879 8.00034 44.9292 7.95904C44.9704 7.91773 45.0031 7.86867 45.0253 7.81468C45.0475 7.76069 45.0588 7.70284 45.0586 7.64446H44.6147Z" fill="#FCF5EF"/>
<path fill-rule="evenodd" clip-rule="evenodd" d="M44.6146 7.64438H45.0086C45.0086 7.44692 44.8111 7.29883 44.6146 7.29883C44.4171 7.29883 44.2197 7.4474 44.2197 7.64438C44.2197 7.84184 44.4171 8.03978 44.6146 8.03978C44.8111 8.03978 45.0086 7.84184 45.0086 7.64438H44.6146Z" fill="#FDF8F1"/>
<path fill-rule="evenodd" clip-rule="evenodd" d="M44.6144 7.64436H44.9101C44.9101 7.49625 44.762 7.34814 44.6144 7.34814C44.4653 7.34814 44.3177 7.49625 44.3177 7.64436C44.3177 7.84183 44.4658 7.99042 44.6144 7.99042C44.7625 7.99042 44.9101 7.84183 44.9101 7.64436H44.6144Z" fill="#FDF8F3"/>
<path fill-rule="evenodd" clip-rule="evenodd" d="M44.614 7.64477H44.8603C44.8603 7.54604 44.7621 7.39795 44.614 7.39795C44.4649 7.39795 44.3667 7.54604 44.3667 7.64477C44.3667 7.79287 44.4649 7.8916 44.614 7.8916C44.7621 7.8916 44.8603 7.79287 44.8603 7.64477H44.614Z" fill="#FDF8F5"/>
<path fill-rule="evenodd" clip-rule="evenodd" d="M44.6147 7.64469H44.8112C44.8112 7.54595 44.713 7.49658 44.6147 7.49658C44.5155 7.49658 44.4172 7.54595 44.4172 7.64469C44.4172 7.74342 44.5155 7.84216 44.6147 7.84216C44.713 7.84216 44.8112 7.74342 44.8112 7.64469H44.6147Z" fill="#FEFBF6"/>
<path fill-rule="evenodd" clip-rule="evenodd" d="M44.6145 7.64463H44.7128C44.7128 7.59526 44.6629 7.5459 44.6145 7.5459C44.5647 7.5459 44.4655 7.59526 44.4655 7.64463C44.4655 7.74336 44.5647 7.79273 44.6145 7.79273C44.6634 7.79273 44.7128 7.74336 44.7128 7.64463H44.6145Z" fill="#FFFFFB"/>
<path fill-rule="evenodd" clip-rule="evenodd" d="M44.6148 7.64459H44.6637C44.6637 7.64459 44.6637 7.59521 44.6148 7.59521C44.565 7.59521 44.565 7.64459 44.565 7.64459C44.565 7.69397 44.565 7.74335 44.6148 7.74335C44.6637 7.74335 44.6637 7.69397 44.6637 7.64459H44.6148Z" fill="white"/>
<path fill-rule="evenodd" clip-rule="evenodd" d="M57.5026 9.91683L53.9966 1.02832H51.1323L56.7621 14.6077H58.1449L63.8729 1.02832H61.058L57.5026 9.91683ZM65.0582 14.2626H72.3665V12.0401H67.6258V8.4847H72.1686V6.21333H67.6258V3.2997H72.3665V1.02832H65.0582V14.2626ZM82.588 4.9293C82.588 2.46045 80.9086 1.02832 77.8971 1.02832H74.0944V14.2621H76.662V8.97838H77.0076L80.563 14.2621H83.7234L79.5756 8.68169C81.501 8.28723 82.588 6.95383 82.588 4.9293ZM77.4025 7.15178H76.662V3.10271H77.4519C79.0815 3.10271 79.9202 3.79385 79.9202 5.07788C79.9207 6.4108 79.082 7.15178 77.4025 7.15178ZM1.35314 18.1482V19.334H2.81739V19.8138H1.35314V21.8795H0.826874V17.668H2.86532V18.1482H1.35314ZM5.26899 17.668H5.79573V21.8795H5.26899V17.668ZM8.3384 17.4657L11.497 20.78V17.668H12.0232V22.053L8.86131 18.7406V21.8795H8.3384V17.4657ZM16.8924 20.3444H15.3922L16.1418 18.639L16.8924 20.3444ZM17.1081 20.8246L17.5883 21.8795H18.1548L16.1423 17.4892L14.1307 21.8795H14.6948L15.1765 20.8246H17.1081ZM20.2614 17.4657L23.4233 20.78V17.668H23.95V22.053L20.7843 18.7406V21.8795H20.2614V17.4657ZM29.5674 18.4732C29.2678 18.2038 28.8527 18.0596 28.4554 18.0596C27.5136 18.0596 26.7927 18.847 26.7927 19.7802C26.7927 20.7019 27.5064 21.4889 28.4458 21.4889C28.8599 21.4889 29.2549 21.3336 29.5669 21.0532V21.6744C29.2297 21.8654 28.8492 21.9669 28.4616 21.9692C27.2581 21.9692 26.265 21.0144 26.265 19.796C26.265 18.5499 27.2648 17.5769 28.5076 17.5769C28.8772 17.5769 29.2505 17.668 29.5664 17.8631V18.4732H29.5674ZM31.9844 17.668H32.5078V21.8795H31.9844V17.668ZM37.4144 20.3444H35.9147L36.6681 18.639L37.4144 20.3444ZM37.6305 20.8246L38.1122 21.8795H38.6764L36.6681 17.4892L34.6556 21.8795H35.2183L35.6985 20.8246H37.6305ZM41.3585 21.4017H42.6387V21.8795H40.8351V17.668H41.3585V21.4017ZM50.0802 18.4674C49.9278 18.2034 49.7256 18.0696 49.4044 18.0696C49.0685 18.0696 48.6984 18.2983 48.6984 18.6683C48.6984 18.9966 49.0272 19.171 49.288 19.2712L49.5875 19.3896C50.1876 19.623 50.6343 19.9537 50.6343 20.6569C50.6343 21.4232 50.0409 21.9692 49.288 21.9692C48.6055 21.9692 48.0749 21.4673 47.9876 20.7911L48.5173 20.6803C48.5106 21.1429 48.8796 21.4784 49.3297 21.4784C49.7836 21.4784 50.1066 21.0997 50.1066 20.6569C50.1066 20.2054 49.7443 20.0089 49.3819 19.8569L49.0924 19.7357C48.6103 19.5286 48.175 19.2554 48.175 18.6683C48.175 17.9858 48.778 17.5769 49.4164 17.5769C49.8837 17.5769 50.2701 17.8075 50.4977 18.2144L50.0802 18.4674ZM53.0121 17.668H55.2763V18.1482H53.5388V19.3287H55.2288V19.8085H53.5388V21.4017H55.2763V21.8795H53.0121V17.668ZM58.258 18.1372H58.3927C58.917 18.1372 59.5411 18.2321 59.5411 18.8926C59.5411 19.5621 58.9568 19.6618 58.4214 19.6618H58.2575V18.1372H58.258ZM59.022 20.0486C59.6307 19.9748 60.0328 19.4735 60.0328 18.8691C60.0328 18.4674 59.8306 18.0696 59.4778 17.8626C59.1437 17.6733 58.7411 17.668 58.3687 17.668H57.7322V21.8795H58.2585V20.0999H58.4746L59.715 21.8795H60.3506L59.022 20.0486ZM63.9592 20.7853L65.2107 17.668H65.7873L63.9592 22.1053L62.1278 17.668H62.7035L63.9592 20.7853ZM67.9321 17.668H68.4579V21.8795H67.9321V17.668ZM74.1217 18.4732C73.8183 18.2038 73.4028 18.0596 73.004 18.0596C72.0632 18.0596 71.3423 18.847 71.3423 19.7802C71.3423 20.7019 72.0555 21.4889 72.9944 21.4889C73.409 21.4889 73.8078 21.3336 74.1217 21.0532V21.6744C73.7833 21.8651 73.402 21.9666 73.0136 21.9692C71.8134 21.9692 70.8155 21.0144 70.8155 19.796C70.8155 18.5499 71.8202 17.5769 73.0577 17.5769C73.4272 17.5769 73.8011 17.668 74.1222 17.8631V18.4732H74.1217ZM76.5479 17.668H78.8116V18.1482H77.0751V19.3287H78.7618V19.8085H77.0751V21.4017H78.8116V21.8795H76.5479V17.668ZM83.1344 18.4674C82.981 18.2034 82.7797 18.0696 82.4615 18.0696C82.1274 18.0696 81.7574 18.2983 81.7574 18.6683C81.7574 18.9966 82.0833 19.171 82.3436 19.2712L82.6479 19.3896C83.2432 19.623 83.6899 19.9537 83.6899 20.6569C83.6899 21.4232 83.0975 21.9692 82.3436 21.9692C81.6639 21.9692 81.1295 21.4673 81.0442 20.7911L81.5724 20.6803C81.5657 21.1429 81.9376 21.4784 82.3886 21.4784C82.8415 21.4784 83.1665 21.0997 83.1665 20.6569C83.1665 20.2054 82.8003 20.0089 82.4389 19.8569L82.149 19.7357C81.6668 19.5286 81.2316 19.2554 81.2316 18.6683C81.2316 17.9858 81.8355 17.5769 82.473 17.5769C82.9403 17.5769 83.3276 17.8075 83.5581 18.2144L83.1344 18.4674ZM84.0968 2.20211C84.0968 2.30372 84.0273 2.3574 83.8864 2.3574H83.8385V2.05401H83.8898C84.0297 2.05449 84.0968 2.10242 84.0968 2.20211ZM84.51 3.00397L84.1261 2.5218C84.29 2.47963 84.3844 2.3598 84.3844 2.19493C84.3844 1.96678 84.2243 1.83785 83.9396 1.83785H83.5682V3.00397H83.8433V2.55248L84.1702 3.00397H84.51ZM85.0003 2.41875C85.0003 1.86181 84.5474 1.40265 83.9976 1.40265C83.8638 1.40176 83.7312 1.42742 83.6074 1.47814C83.4835 1.52886 83.371 1.60363 83.2763 1.69813C83.1816 1.79263 83.1065 1.90498 83.0555 2.02868C83.0045 2.15237 82.9785 2.28495 82.9791 2.41875C82.9791 2.9848 83.434 3.4363 83.9976 3.4363C84.5474 3.43582 85.0003 2.97713 85.0003 2.41875ZM84.7952 2.42163C84.7952 2.87888 84.4357 3.25369 83.9928 3.25369C83.5471 3.25369 83.1804 2.8808 83.1804 2.42163C83.1804 1.9572 83.5437 1.58814 83.9928 1.58814C84.4357 1.58814 84.7952 1.96295 84.7952 2.42163Z" fill="white"/>
</svg>
