<svg width="58" height="58" viewBox="0 0 58 58" fill="none" xmlns="http://www.w3.org/2000/svg">
<path d="M49 23.05C49.0049 25.1811 48.4857 27.2808 47.4882 29.1641C46.4908 31.0474 45.0456 32.6566 43.28 33.85V29.15C43.2783 28.0872 43.0245 27.04 42.5395 26.0943C42.0545 25.1487 41.3521 24.3315 40.49 23.71C39.3541 22.8917 37.9899 22.451 36.59 22.45H22.9C23.0316 19.0263 24.5043 15.7917 27.0002 13.4445C29.4962 11.0973 32.8151 9.8258 36.2404 9.90458C39.6657 9.98335 42.9227 11.406 45.3081 13.8655C47.6935 16.325 49.016 19.6239 48.99 23.05H49Z" fill="#9E38FF"/>
<path d="M49 23.05C49.0049 25.1811 48.4857 27.2808 47.4882 29.1641C46.4908 31.0474 45.0456 32.6566 43.28 33.85V29.15C43.2783 28.0872 43.0245 27.04 42.5395 26.0943C42.0545 25.1487 41.3521 24.3315 40.49 23.71C39.3541 22.8917 37.9899 22.451 36.59 22.45H22.9C23.0316 19.0263 24.5043 15.7917 27.0002 13.4445C29.4962 11.0973 32.8151 9.8258 36.2404 9.90458C39.6657 9.98335 42.9227 11.406 45.3081 13.8655C47.6935 16.325 49.016 19.6239 48.99 23.05H49Z" fill="url(#paint0_linear_2_855)"/>
<path d="M40.48 23.71H40.47" stroke="url(#paint1_linear_2_855)" stroke-width="0.83" stroke-miterlimit="10"/>
<path d="M47.77 23.05C47.772 24.7788 47.3932 26.4869 46.6604 28.0528C45.9276 29.6187 44.8588 31.0039 43.53 32.11L43.27 31.8V31.24C44.6298 30.0385 45.6712 28.5193 46.3015 26.8177C46.9318 25.1161 47.1313 23.2851 46.8824 21.4877C46.6335 19.6903 45.9437 17.9825 44.8747 16.5163C43.8057 15.0501 42.3906 13.8711 40.7554 13.0844C39.1203 12.2977 37.3159 11.9277 35.5032 12.0074C33.6904 12.0872 31.9255 12.6141 30.3657 13.5413C28.8059 14.4684 27.4997 15.7671 26.5635 17.3215C25.6273 18.8758 25.0902 20.6377 25 22.45L24.17 22.4C24.2907 19.2906 25.6316 16.354 27.9023 14.2263C30.173 12.0987 33.1905 10.9513 36.3011 11.0329C39.4118 11.1144 42.365 12.4183 44.5211 14.662C46.6772 16.9057 47.8624 19.9085 47.82 23.02L47.77 23.05Z" fill="white"/>
<path d="M40.47 23.71C39.3341 22.8918 37.9699 22.451 36.57 22.45H32.71C32.2369 22.1589 31.852 21.7445 31.5966 21.2512C31.3411 20.7579 31.2248 20.2044 31.26 19.65C31.231 18.6962 31.506 17.7578 32.0453 16.9705C32.5846 16.1832 33.3601 15.5877 34.26 15.27V14.27C34.26 14.1109 34.3232 13.9583 34.4357 13.8458C34.5483 13.7333 34.7009 13.67 34.86 13.67C35.0191 13.67 35.1717 13.7333 35.2843 13.8458C35.3968 13.9583 35.46 14.1109 35.46 14.27V14.9C35.8537 14.8406 36.2523 14.8205 36.65 14.84V14.27C36.65 14.1109 36.7132 13.9583 36.8257 13.8458C36.9383 13.7333 37.0909 13.67 37.25 13.67C37.4091 13.67 37.5617 13.7333 37.6743 13.8458C37.7868 13.9583 37.85 14.1109 37.85 14.27V15.04C38.3667 15.1757 38.8462 15.426 39.253 15.7722C39.6598 16.1184 39.9834 16.5517 40.2 17.04C40.229 17.1129 40.2431 17.1907 40.2416 17.2691C40.2402 17.3474 40.2231 17.4247 40.1915 17.4963C40.1598 17.568 40.1142 17.6327 40.0573 17.6865C40.0004 17.7404 39.9333 17.7824 39.86 17.81C39.788 17.8407 39.7105 17.8564 39.6322 17.8563C39.5539 17.8562 39.4765 17.8402 39.4046 17.8094C39.3326 17.7786 39.2677 17.7335 39.2136 17.6769C39.1595 17.6203 39.1175 17.5533 39.09 17.48C38.65 16.4 37.09 15.81 35.5 16.11C34.6539 16.232 33.8817 16.6593 33.329 17.3114C32.7764 17.9636 32.4815 18.7954 32.5 19.65C32.48 23 38.59 21.27 40.47 23.71Z" fill="white"/>
<path d="M36.27 24.08H13.83C11.168 24.08 9.01 26.2379 9.01 28.9V43.18C9.01 45.842 11.168 48 13.83 48H36.27C38.932 48 41.09 45.842 41.09 43.18V28.9C41.09 26.2379 38.932 24.08 36.27 24.08Z" fill="url(#paint2_linear_2_855)"/>
<path d="M31.79 34.8499H41.09V33.9999H38.83V29.5699C38.8301 28.8147 38.5336 28.0896 38.0042 27.5509C37.4749 27.0123 36.7551 26.7031 36 26.6899H14.3C13.5379 26.6926 12.8079 26.9972 12.27 27.537C11.732 28.0768 11.43 28.8078 11.43 29.5699V42.4499C11.43 43.2111 11.7324 43.9411 12.2706 44.4793C12.8088 45.0176 13.5388 45.3199 14.3 45.3199H36C36.3777 45.3213 36.752 45.248 37.1014 45.1044C37.4507 44.9607 37.7683 44.7495 38.0359 44.4829C38.3034 44.2162 38.5157 43.8994 38.6606 43.5506C38.8054 43.2017 38.88 42.8277 38.88 42.4499V38.1699H41.14V37.3399H31.84C31.6763 37.3413 31.514 37.3102 31.3624 37.2484C31.2108 37.1867 31.0729 37.0956 30.9567 36.9803C30.8405 36.865 30.7483 36.7279 30.6853 36.5768C30.6224 36.4257 30.59 36.2636 30.59 36.0999C30.5905 35.766 30.7236 35.4458 30.96 35.2099C31.1809 34.9889 31.4776 34.8601 31.79 34.8499ZM31.79 38.1699H38V42.4499C38 42.9804 37.7893 43.4891 37.4142 43.8642C37.0391 44.2392 36.5304 44.4499 36 44.4499H14.3C13.7696 44.4499 13.2609 44.2392 12.8858 43.8642C12.5107 43.4891 12.3 42.9804 12.3 42.4499V29.5699C12.2933 29.3031 12.3401 29.0377 12.4376 28.7892C12.5352 28.5408 12.6814 28.3143 12.8678 28.1233C13.0542 27.9322 13.2769 27.7804 13.5229 27.6768C13.7689 27.5732 14.0331 27.5199 14.3 27.5199H36C36.535 27.533 37.0437 27.7547 37.4174 28.1378C37.7911 28.5208 38.0002 29.0348 38 29.5699V33.9999H31.79C31.24 34.0052 30.7139 34.226 30.325 34.6149C29.936 35.0039 29.7152 35.5299 29.71 36.0799C29.7073 36.3543 29.7593 36.6264 29.8627 36.8806C29.9662 37.1347 30.1191 37.3657 30.3127 37.5602C30.5062 37.7546 30.7365 37.9087 30.9901 38.0134C31.2437 38.1181 31.5156 38.1713 31.79 38.1699Z" fill="white"/>
<path d="M32.24 36.57C32.472 36.57 32.66 36.3819 32.66 36.15C32.66 35.918 32.472 35.73 32.24 35.73C32.008 35.73 31.82 35.918 31.82 36.15C31.82 36.3819 32.008 36.57 32.24 36.57Z" fill="white"/>
<defs>
<linearGradient id="paint0_linear_2_855" x1="22.9" y1="21.92" x2="48.99" y2="21.92" gradientUnits="userSpaceOnUse">
<stop stop-color="#8A5EFF" stop-opacity="0.44"/>
<stop offset="1" stop-color="#EC5076"/>
</linearGradient>
<linearGradient id="paint1_linear_2_855" x1="-nan" y1="-nan" x2="-nan" y2="-nan" gradientUnits="userSpaceOnUse">
<stop stop-color="#9E38FF"/>
<stop offset="0.06" stop-color="#9538FF"/>
<stop offset="0.33" stop-color="#7438FF"/>
<stop offset="0.58" stop-color="#5C38FF"/>
<stop offset="0.81" stop-color="#4D38FF"/>
<stop offset="1" stop-color="#4838FF"/>
</linearGradient>
<linearGradient id="paint2_linear_2_855" x1="9.01" y1="36.04" x2="41.09" y2="36.04" gradientUnits="userSpaceOnUse">
<stop stop-color="#4D38FF"/>
<stop offset="1" stop-color="#4838FF"/>
</linearGradient>
</defs>
</svg>
