<svg width="675" height="556" viewBox="0 0 675 556" fill="none" xmlns="http://www.w3.org/2000/svg">
<g filter="url(#filter0_f_76_79)">
<path d="M188.7 363.297C168.15 349.067 148.7 334.517 134.7 321.547C130.185 317.441 125.943 313.045 122 308.387C122.841 308.095 123.73 307.966 124.62 308.007C124.62 308.007 176.03 353.387 182.08 357.107C184.75 358.611 187.021 360.734 188.7 363.297V363.297Z" fill="#EC5076"/>
</g>
<path d="M626.75 71.6098V245.13C626.75 272.744 604.364 295.13 576.75 295.13H153.49C125.876 295.13 103.49 272.744 103.49 245.13V71.6098C103.488 66.6717 104.46 61.7818 106.349 57.2193C108.238 52.6569 111.008 48.5114 114.5 45.0196C117.991 41.5279 122.137 38.7583 126.699 36.8692C131.262 34.9801 136.152 34.0085 141.09 34.0098H589.16C594.097 34.0098 598.986 34.9824 603.547 36.8721C608.108 38.7618 612.253 41.5315 615.743 45.0232C619.234 48.5148 622.003 52.6598 623.891 57.2216C625.78 61.7834 626.751 66.6725 626.75 71.6098Z" fill="url(#paint0_linear_76_79)"/>
<path d="M69.59 269.932H69.82C69.82 269.932 72.57 233.272 98.46 226.962C124.35 220.652 136.77 267.582 152.56 272.642C168.35 277.702 194.03 204.862 217.39 214.962C240.75 225.062 298.22 243.382 319.11 246.532C340 249.682 332.37 224.432 348.79 228.222C365.21 232.012 385.42 247.802 430.25 246.532C475.08 245.262 593.11 245.932 593.11 245.932L592.969 262.635C592.737 290.083 570.42 312.212 542.971 312.212H111.284C88.0273 312.212 69.2655 293.187 69.59 269.932V269.932Z" fill="url(#paint1_linear_76_79)"/>
<path opacity="0.22" d="M136.97 112.24C138.367 112.24 139.5 111.107 139.5 109.71C139.5 108.312 138.367 107.18 136.97 107.18C135.573 107.18 134.44 108.312 134.44 109.71C134.44 111.107 135.573 112.24 136.97 112.24Z" fill="white"/>
<path opacity="0.22" d="M173.81 190.13C175.207 190.13 176.34 188.997 176.34 187.6C176.34 186.203 175.207 185.07 173.81 185.07C172.413 185.07 171.28 186.203 171.28 187.6C171.28 188.997 172.413 190.13 173.81 190.13Z" fill="white"/>
<path opacity="0.61" d="M173.92 188.44C174.329 188.44 174.66 188.108 174.66 187.7C174.66 187.291 174.329 186.96 173.92 186.96C173.511 186.96 173.18 187.291 173.18 187.7C173.18 188.108 173.511 188.44 173.92 188.44Z" fill="white"/>
<path opacity="0.61" d="M338.94 244.01C339.348 244.01 339.68 243.678 339.68 243.27C339.68 242.861 339.348 242.53 338.94 242.53C338.531 242.53 338.2 242.861 338.2 243.27C338.2 243.678 338.531 244.01 338.94 244.01Z" fill="white"/>
<path opacity="0.61" d="M162.13 49.0899C162.538 49.0899 162.87 48.7586 162.87 48.3499C162.87 47.9412 162.538 47.6099 162.13 47.6099C161.721 47.6099 161.39 47.9412 161.39 48.3499C161.39 48.7586 161.721 49.0899 162.13 49.0899Z" fill="white"/>
<path opacity="0.61" d="M346 47.6196C346.409 47.6196 346.74 47.2883 346.74 46.8796C346.74 46.471 346.409 46.1396 346 46.1396C345.591 46.1396 345.26 46.471 345.26 46.8796C345.26 47.2883 345.591 47.6196 346 47.6196Z" fill="white"/>
<path opacity="0.22" d="M212.96 85.9296C214.357 85.9296 215.49 84.7969 215.49 83.3996C215.49 82.0024 214.357 80.8696 212.96 80.8696C211.563 80.8696 210.43 82.0024 210.43 83.3996C210.43 84.7969 211.563 85.9296 212.96 85.9296Z" fill="white"/>
<path opacity="0.22" d="M277.16 192.23C278.557 192.23 279.69 191.097 279.69 189.7C279.69 188.302 278.557 187.17 277.16 187.17C275.763 187.17 274.63 188.302 274.63 189.7C274.63 191.097 275.763 192.23 277.16 192.23Z" fill="white"/>
<path opacity="0.22" d="M346 49.52C347.397 49.52 348.53 48.3872 348.53 46.99C348.53 45.5927 347.397 44.46 346 44.46C344.603 44.46 343.47 45.5927 343.47 46.99C343.47 48.3872 344.603 49.52 346 49.52Z" fill="white"/>
<path opacity="0.22" d="M152.24 124.66C152.88 124.66 153.4 124.14 153.4 123.5C153.4 122.859 152.88 122.34 152.24 122.34C151.599 122.34 151.08 122.859 151.08 123.5C151.08 124.14 151.599 124.66 152.24 124.66Z" fill="white"/>
<path opacity="0.22" d="M344.84 48.0397C345.48 48.0397 346 47.5204 346 46.8797C346 46.2391 345.48 45.7197 344.84 45.7197C344.199 45.7197 343.68 46.2391 343.68 46.8797C343.68 47.5204 344.199 48.0397 344.84 48.0397Z" fill="white"/>
<path opacity="0.22" d="M310.32 93.3C310.96 93.3 311.48 92.7806 311.48 92.14C311.48 91.4993 310.96 90.98 310.32 90.98C309.679 90.98 309.16 91.4993 309.16 92.14C309.16 92.7806 309.679 93.3 310.32 93.3Z" fill="white"/>
<path opacity="0.22" d="M133.92 199.39C134.56 199.39 135.08 198.87 135.08 198.23C135.08 197.589 134.56 197.07 133.92 197.07C133.279 197.07 132.76 197.589 132.76 198.23C132.76 198.87 133.279 199.39 133.92 199.39Z" fill="white"/>
<path opacity="0.22" d="M347.78 219.17C348.42 219.17 348.94 218.651 348.94 218.01C348.94 217.369 348.42 216.85 347.78 216.85C347.139 216.85 346.62 217.369 346.62 218.01C346.62 218.651 347.139 219.17 347.78 219.17Z" fill="white"/>
<path opacity="0.22" d="M565.65 193.91C566.29 193.91 566.81 193.39 566.81 192.75C566.81 192.109 566.29 191.59 565.65 191.59C565.009 191.59 564.49 192.109 564.49 192.75C564.49 193.39 565.009 193.91 565.65 193.91Z" fill="white"/>
<path opacity="0.22" d="M602.69 189.49C603.33 189.49 603.85 188.97 603.85 188.33C603.85 187.689 603.33 187.17 602.69 187.17C602.049 187.17 601.53 187.689 601.53 188.33C601.53 188.97 602.049 189.49 602.69 189.49Z" fill="white"/>
<path opacity="0.22" d="M605.01 211.38C605.65 211.38 606.17 210.86 606.17 210.22C606.17 209.579 605.65 209.06 605.01 209.06C604.369 209.06 603.85 209.579 603.85 210.22C603.85 210.86 604.369 211.38 605.01 211.38Z" fill="white"/>
<path opacity="0.22" d="M136.87 110.77C137.51 110.77 138.03 110.25 138.03 109.61C138.03 108.969 137.51 108.45 136.87 108.45C136.229 108.45 135.71 108.969 135.71 109.61C135.71 110.25 136.229 110.77 136.87 110.77Z" fill="white"/>
<path opacity="0.22" d="M213.07 84.4596C213.71 84.4596 214.23 83.9403 214.23 83.2996C214.23 82.659 213.71 82.1396 213.07 82.1396C212.429 82.1396 211.91 82.659 211.91 83.2996C211.91 83.9403 212.429 84.4596 213.07 84.4596Z" fill="white"/>
<path opacity="0.22" d="M201.07 173.07C201.71 173.07 202.23 172.55 202.23 171.91C202.23 171.269 201.71 170.75 201.07 170.75C200.429 170.75 199.91 171.269 199.91 171.91C199.91 172.55 200.429 173.07 201.07 173.07Z" fill="white"/>
<path d="M308.7 473.03C279.19 509.32 270.5 460 201.64 476.29C196.55 439.93 191.41 399.09 194.64 376.22C194.863 374.809 195.197 373.418 195.64 372.06C197.351 367.095 199.834 362.431 203 358.24C207.71 351.71 213.3 345.96 216.86 342.02L217.12 341.8C219.552 339.752 222.125 337.878 224.82 336.19L291.41 348.71L291.02 378.54L308.7 473.03Z" fill="#000C4F"/>
<path d="M260.29 425.09C260.29 425.09 257.03 398.09 243.53 385.53C230.03 372.97 197.41 372.29 197.41 372.29C196.816 372.247 196.225 372.17 195.64 372.06C197.351 367.095 199.834 362.431 203 358.24C219.41 360.87 246.24 375.02 260.75 397.12C281.23 428.35 260.29 425.09 260.29 425.09Z" fill="#000B38"/>
<path d="M259.5 478C260.01 474.48 259.36 418.57 259.36 418.57L267.73 414.28L276.5 481.5C276.5 481.5 276.5 484 276.5 484.5L259.5 478Z" fill="#000930"/>
<path d="M291.88 348.8L291.6 377.44L291.16 378.34C291.16 378.34 286.35 395.34 270.06 411.59C262.84 418.81 259.36 418.59 259.36 418.59C259.36 418.59 260.29 404.16 248.65 386.94C239 372.66 205.39 369.42 196.52 370.18C199.31 359.01 210.22 349.41 216.86 342.08C219.382 339.946 222.056 337.998 224.86 336.25L291.41 348.71L291.88 348.8Z" fill="#250B71"/>
<path d="M198.62 370.51C194.19 387.39 203.03 476.29 201.62 476.29C196.53 439.93 191.38 401.35 194.62 376.22C196.02 361.79 210.33 348.64 216.97 341.3C217.06 341.23 217.81 341.84 217.9 341.77C219.49 342.94 219.81 343.86 219.81 343.92C219.81 343.98 203.06 353.64 198.62 370.51Z" fill="#EC5076"/>
<g filter="url(#filter1_f_76_79)">
<path d="M192.01 370.216C187.58 387.096 196.42 475.996 195.01 475.996C189.92 439.636 184.77 401.056 188.01 375.926C189.41 361.496 203.72 348.346 210.36 341.006C210.45 340.936 211.2 341.546 211.29 341.476C212.88 342.646 213.2 343.566 213.2 343.626C213.2 343.686 196.45 353.346 192.01 370.216Z" fill="#EC5076"/>
</g>
<rect x="177" y="387" width="142" height="104" fill="url(#paint2_linear_76_79)"/>
<path d="M337.58 282.31C337.58 282.31 342.36 304.31 321.31 301.44C303.08 298.96 280.96 255.44 254.31 216.31C253.31 210.57 257.09 197.19 277.93 197.94C293.01 202.8 319.41 243.96 337.58 282.31Z" fill="#000C4F"/>
<path d="M301.521 254.09C297.991 287.78 291.941 348.75 291.941 348.75L291.881 348.8C290.501 349.94 287.401 351.86 280.511 353.42C273.992 354.769 267.365 355.535 260.711 355.71C245.461 356.34 231.041 354.18 216.861 340.66C216.491 320.76 209.781 293.28 200.701 262.95C179.111 257.95 172.121 233.78 185.291 214.39C194.994 209.985 204.944 206.145 215.091 202.89C229.181 198.47 242.391 196.04 255.351 195.89C262.985 195.803 270.607 196.548 278.081 198.11V198.17L278.151 198.27C278.151 198.27 278.151 198.27 278.151 198.35C280.311 201.69 303.141 238.59 301.521 254.09Z" fill="#876CD1"/>
<path d="M260.891 356.18C250.949 358.223 240.605 356.693 231.681 351.86C230.034 350.997 228.432 350.052 226.881 349.03C224.431 347.396 222.092 345.603 219.881 343.66C218.951 342.86 218.021 342.01 217.091 341.13C216.811 325.83 210.201 305.61 203.091 283.29C201.261 277.6 199.391 271.76 197.581 265.83C197.481 265.51 197.381 265.19 197.291 264.83L196.621 262.61C192.936 261.814 189.46 260.25 186.421 258.02C174.421 249.02 174.281 230.43 184.981 214.67C190.331 212.28 196.211 209.67 201.271 207.67C206.121 205.8 210.601 204.47 215.271 203.02L216.161 203.96C228.231 216.87 254.211 245.48 256.701 265.39V265.61C258.771 283.12 263.761 326.78 260.891 356.18Z" fill="#FF6490"/>
<path d="M263.681 358.97C248.681 361.97 234.021 357.44 219.841 343.92C219.471 324.02 208.391 295.76 199.311 265.43C177.721 260.43 174.511 235.01 187.671 215.63C193.021 213.24 197.511 211.06 202.571 209.11C207.411 207.24 211.431 205.44 216.071 203.99C227.701 216.39 256.801 247.81 259.361 268.23C259.356 268.3 259.356 268.37 259.361 268.44C261.571 285.92 266.561 329.57 263.681 358.97Z" fill="#250B71"/>
<path d="M302.181 257.05C299.841 284.38 293.181 332.54 291.881 348.8C290.501 349.94 287.401 351.86 280.511 353.42C283.891 328.42 298.201 283.42 295.661 260.78C295.571 259.94 295.351 258.26 295.071 256.42C294.641 253.49 294.071 250.16 293.801 249.14C287.801 228.86 274.021 206.08 266.801 197.01C268.621 197.46 268.391 196.42 274.451 197.44L274.891 197.51C275.951 197.7 277.021 197.91 278.081 198.13V198.19L278.151 198.29C278.151 198.29 278.151 198.29 278.151 198.37C280.411 201.68 304.511 236.57 302.181 257.05Z" fill="#250B71"/>
<path d="M202.571 211.44C203.571 212.44 236.271 250.07 236.571 261.71C237.031 281.26 248.671 282.65 253.791 283.59C255.191 290.59 262.631 346.43 252.861 350.59C243.091 354.75 223.561 355.34 223.081 339.94C222.601 324.54 215.151 293.34 206.311 277.94C201.801 270.1 185.831 217.43 185.831 217.43C185.831 217.43 196.981 211.44 202.571 211.44Z" fill="#000C4F"/>
<path d="M288.211 231.92L287.751 233.31L249.581 240.31C239.188 227.07 227.997 214.476 216.071 202.6V201.24L223.961 198.92C223.961 198.92 224.861 199.73 226.461 200.92C231.371 204.47 242.931 211.29 255.561 207.92C267.181 204.77 264.691 198.15 263.501 195.98C263.251 195.54 263.061 195.27 263.061 195.27H268.181C275.338 206.748 281.839 218.624 287.651 230.84L287.791 231.14C287.791 231.24 287.871 231.32 287.911 231.4L288.121 231.89L288.211 231.92Z" fill="#937CE8"/>
<path d="M288.211 231.92L287.751 233.78L249.581 240.3C239.188 227.06 227.997 214.467 216.071 202.59V201.24C227.701 211.48 239.301 225.08 250.071 238.47L250.441 238.41H250.631H250.841C255.281 237.52 277.761 233.59 288.211 231.92Z" fill="#6E57C1"/>
<path d="M223.981 198.87C223.981 198.87 224.881 199.68 226.481 200.87C225.6 200.957 224.715 201.001 223.831 201C221.249 200.843 218.659 200.917 216.091 201.22L223.981 198.87Z" fill="#BDB0FF"/>
<path d="M268.201 195.15L263.521 195.85C263.386 195.609 263.239 195.375 263.081 195.15H268.201Z" fill="#BDB0FF"/>
<path d="M218.861 337.12C218.861 337.58 235.861 348.02 245.861 347.36C256.331 346.66 250.071 290.15 250.051 290.1" stroke="#250B71" stroke-width="0.47" stroke-miterlimit="10"/>
<path d="M245.621 286.15C245.621 286.15 251.621 340.15 244.231 343.4C236.841 346.65 219.091 333.16 219.091 333.16" stroke="#250B71" stroke-width="0.47" stroke-miterlimit="10"/>
<path d="M241.411 282.89C241.411 282.89 247.471 337.81 241.881 339.68C234.601 342.1 218.611 328.97 218.611 328.97" stroke="#250B71" stroke-width="0.47" stroke-miterlimit="10"/>
<path d="M222.351 331.76L216.761 328.04" stroke="#4E2391" stroke-width="0.47" stroke-miterlimit="10"/>
<path d="M222.601 335.69L217.231 332.23" stroke="#4E2391" stroke-width="0.47" stroke-miterlimit="10"/>
<path d="M218.631 333.16L217.231 332.23" stroke="#F3B0C3" stroke-width="0.47" stroke-miterlimit="10"/>
<path d="M218.161 328.97L216.761 328.04" stroke="#F3B0C3" stroke-width="0.47" stroke-miterlimit="10"/>
<path d="M223.041 339.84L217.921 336.59" stroke="#4E2391" stroke-width="0.47" stroke-miterlimit="10"/>
<path d="M219.091 337.35L217.691 336.42" stroke="#F3B0C3" stroke-width="0.47" stroke-miterlimit="10"/>
<path d="M205.861 277.24C205.417 278.614 204.865 279.952 204.211 281.24C203.841 281.95 203.431 282.66 202.991 283.36C201.161 277.67 199.291 271.83 197.481 265.9V265.04L200.271 262.69L206.271 257.61C207.911 264.07 207.769 270.854 205.861 277.24Z" fill="#000B38"/>
<path d="M237.011 212.83L253.301 232.83L281.231 228.24L269.601 207.24C269.601 207.24 262.151 217.95 237.011 212.83Z" fill="#000C4F"/>
<path d="M288.221 231.92L287.751 233.78L249.581 240.3L250.051 238.43L250.421 238.37L250.611 238.34L250.821 238.3L288.221 231.92Z" fill="#5A48B7"/>
<path d="M246.471 231.84L284.411 225.56" stroke="#937CE8" stroke-width="0.47" stroke-miterlimit="10"/>
<path d="M244.141 229.98L282.081 223.7" stroke="#937CE8" stroke-width="0.47" stroke-miterlimit="10"/>
<path d="M243.701 227.59L279.291 221.84" stroke="#937CE8" stroke-width="0.47" stroke-miterlimit="10"/>
<path d="M242.431 225.49L276.961 219.98" stroke="#937CE8" stroke-width="0.47" stroke-miterlimit="10"/>
<path d="M238.091 223.93L276.031 217.65" stroke="#937CE8" stroke-width="0.47" stroke-miterlimit="10"/>
<path d="M236.691 221.6L274.631 215.32" stroke="#937CE8" stroke-width="0.47" stroke-miterlimit="10"/>
<path d="M235.301 219.28L273.231 212.99" stroke="#937CE8" stroke-width="0.47" stroke-miterlimit="10"/>
<path d="M234.371 217.42L272.301 211.13" stroke="#937CE8" stroke-width="0.47" stroke-miterlimit="10"/>
<path d="M232.971 215.55L270.911 209.27" stroke="#937CE8" stroke-width="0.47" stroke-miterlimit="10"/>
<path opacity="0.44" d="M250.411 238.37C263.751 224.68 269.341 210.24 268.191 195.14C275.348 206.618 281.849 218.494 287.661 230.71L287.801 231.01L287.921 231.27L288.131 231.76L288.201 231.92L250.411 238.37Z" fill="url(#paint3_linear_76_79)"/>
<path d="M222.78 201C223.91 197.004 224.624 192.902 224.91 188.76C225.66 178.63 224.15 167.84 220.91 156.99C236.13 151.99 250.18 151.14 262.04 157.99C261.92 160.3 261.8 162.5 261.69 164.61C261.53 167.74 261.39 170.61 261.32 173.38C261.27 175.38 261.25 177.38 261.32 179.19C261.349 182.205 261.606 185.214 262.09 188.19C262.593 191.316 263.56 194.35 264.96 197.19C269.66 210.57 241.91 214.39 222.78 201Z" fill="#FAE8EE"/>
<path d="M261.65 164.57C261.49 167.7 261.35 170.57 261.28 173.34C255.28 174.34 248.05 174.11 242.13 170.47C235.41 166.34 234.68 162.56 234.68 162.56C234.68 162.56 254.23 164.89 260.29 164.42C260.749 164.385 261.21 164.436 261.65 164.57V164.57Z" fill="#000C4F"/>
<path d="M262.85 205.45C256.02 211.39 237.02 210.97 222.78 201C223.91 197.004 224.624 192.902 224.91 188.76C231.14 190.63 240.91 193.06 247.72 192.35C251.199 191.998 254.619 191.208 257.9 190C259.305 189.497 260.677 188.909 262.01 188.24C262.513 191.366 263.48 194.399 264.88 197.24C265.467 198.645 265.586 200.202 265.221 201.68C264.855 203.158 264.024 204.48 262.85 205.45Z" fill="#000C4F"/>
<path d="M262.85 205.45C260.99 204.08 259.01 195.45 257.9 190C259.305 189.497 260.677 188.909 262.01 188.24C262.513 191.366 263.48 194.399 264.88 197.24C265.467 198.645 265.586 200.202 265.221 201.68C264.855 203.158 264.024 204.48 262.85 205.45Z" fill="#250B71"/>
<path opacity="0.43" d="M224.68 201.43C225.61 199.57 226.54 194.91 227 190.26L231.19 191.19C230.76 195.66 229.33 201.43 228.87 203.76C230.91 204.859 233.105 205.641 235.38 206.08L236.31 192.08" stroke="#876CD1" stroke-width="0.47" stroke-miterlimit="10" stroke-linecap="round"/>
<path d="M614 280.5C614 280.5 602.01 297.35 567.43 295.16C535.87 293.16 496.16 287.45 459.66 273.09C409.41 253.24 463.41 212.65 384.31 212.24C332 211.97 334.43 128.9 301.79 136.89C282.01 141.73 270.53 136.05 270.53 136.05C270.53 129.16 269.75 116.25 266.8 112.31C266.8 112.31 285.8 115.25 303.69 111C384.94 91.72 355.5 40.63 399.07 34H587.72C593.714 35.09 599.605 36.6857 605.33 38.77C608.419 39.9402 611.346 41.4995 614.04 43.41C618.041 46.9354 621.244 51.2733 623.435 56.1343C625.627 60.9953 626.757 66.2678 626.75 71.6L627.01 127.6C618.8 160.43 584.7 148.43 550.01 169.48C506.54 195.83 550.77 228.87 592.31 222.32C620.18 217.92 626.79 250 626.79 250C626.49 251.36 625.5 257 624 261.5C618.5 275.5 614 280.5 614 280.5Z" fill="url(#paint4_linear_76_79)"/>
<path d="M263.03 127.23C263.03 127.23 265.46 136 282.74 135.71C295.16 135.5 305.05 130.45 314.53 134.24C328.41 139.78 344.21 182.65 356.84 196.96C373.59 215.95 397.09 204.81 417.67 212.12C433.67 217.8 437.92 233.44 440.82 251.9C443.72 270.36 474.33 272.98 521.13 284.42C569.33 296.21 625.53 289.69 625.53 289.69C633.52 288.627 650.5 286.5 658 283.5" stroke="url(#paint5_linear_76_79)" stroke-width="2.1" stroke-miterlimit="10"/>
<path d="M270.54 115.9C270.54 115.9 289.48 120.97 319.54 110.9C349.6 100.83 361.22 85.9 366.48 75.75C371.74 65.6 371.67 60.69 379.11 52.17C386.794 43.304 397.396 37.4797 409 35.75" stroke="url(#paint6_linear_76_79)" stroke-width="2.1" stroke-miterlimit="10"/>
<path d="M269.26 121.18C281.158 122.307 293.15 121.921 304.95 120.03C323.89 116.87 342.63 110.13 356.1 98.3501C369.57 86.5701 372.97 69.9501 380.31 59.2401C392.52 41.3501 423.46 37.5601 423.46 37.5601" stroke="url(#paint7_linear_76_79)" stroke-width="2.1" stroke-miterlimit="10"/>
<path d="M263.03 127.24C263.03 127.24 267.28 129.7 278.22 130.76C289.16 131.82 302.68 126.13 315.68 130.13C332.73 135.39 352.68 190.96 366.83 199.59C380.98 208.22 411.1 202.56 421.98 208.22C442.61 218.96 440.56 242.41 449.98 256.67C461.35 273.9 510.82 273.71 544.49 281.9C578.16 290.09 624.9 281.69 624.9 281.69C637.267 279.46 664.4 273.8 674 269" stroke="url(#paint8_linear_76_79)" stroke-width="2.1" stroke-miterlimit="10"/>
<path d="M582.971 291.87L578.351 299.79V285.6L583.301 277.01V229.8C583.751 223.14 586.511 218.28 589.741 213.8C593.447 217.96 595.657 223.24 596.021 228.8L596.351 273.04L601.961 284.6V298.6L596.681 291.24H586.611L583.801 299.66L582.971 291.87Z" fill="#080B16"/>
<path d="M258.181 170.39C244.721 173.88 213.261 163.81 206.761 143.48C199.101 119.56 220.931 99.72 234.411 96.24C247.061 92.96 261.291 105.06 267.411 123.68C267.801 124.87 268.161 126.09 268.481 127.34C269.262 130.336 269.889 133.37 270.361 136.43C272.911 153.31 269.621 167.43 258.181 170.39Z" fill="#FAE8EE"/>
<path d="M270.331 136.43C266.961 136.36 260.251 136.31 256.561 136.96C248.651 138.36 237.481 138.82 224.561 152.6C221.231 149.06 212.851 130.91 232.861 126.25C245.941 123.25 260.011 119.98 267.421 123.68C267.811 124.87 268.171 126.09 268.491 127.34C269.258 130.337 269.872 133.371 270.331 136.43Z" fill="#F3B0C3"/>
<path d="M266.791 113.95C263.004 114.064 259.229 114.429 255.491 115.04C253.981 115.27 252.321 115.54 250.491 115.87C239.961 117.78 227.491 122.56 227.491 122.56C222.221 127.82 231.791 135.47 226.051 149.82C223.811 155.44 220.791 148.39 217.921 147.43C215.051 146.47 220.281 154.08 223.181 159.43C223.281 159.6 223.371 159.78 223.461 159.95C223.551 160.12 223.621 160.27 223.701 160.43L224.011 161.07L224.281 161.67C224.371 161.87 224.461 162.06 224.531 162.26C224.601 162.46 224.731 162.73 224.811 162.96C224.891 163.19 224.911 163.21 224.951 163.34C225.071 163.65 225.161 163.94 225.251 164.24C225.251 164.35 225.321 164.47 225.351 164.58C225.401 164.72 225.441 164.864 225.471 165.01C225.531 165.2 225.571 165.38 225.611 165.56C225.651 165.74 225.691 165.87 225.721 166.02L225.781 166.35C225.781 166.47 225.831 166.6 225.851 166.72L225.911 167.12C226.284 169.181 226.001 171.308 225.101 173.2V173.2C224.89 173.617 224.624 174.004 224.311 174.35C224.311 174.35 220.221 172.09 213.551 165.91C212.551 164.91 211.401 163.91 210.241 162.72L209.831 162.31C201.661 153.9 202.591 147.22 202.591 134.99C202.618 133.192 202.887 131.406 203.391 129.68C206.661 117.75 218.851 103.42 218.851 103.42C220.994 101.048 223.442 98.97 226.131 97.2399C231.871 93.4099 239.531 91.4999 251.961 94.3699C261.331 96.5299 264.961 106.59 266.241 111.37C266.641 112.94 266.791 113.95 266.791 113.95Z" fill="url(#paint9_linear_76_79)"/>
<path opacity="0.46" d="M263.171 110.04C263.171 110.04 262.491 98.1199 249.091 95.2999C243.783 94.1953 238.289 94.3556 233.055 95.768C227.821 97.1804 222.992 99.8052 218.961 103.43C221.07 101.062 223.48 98.9809 226.131 97.2399C231.871 93.4099 239.521 91.4999 251.961 94.3699C261.331 96.5299 264.961 106.59 266.241 111.37L263.171 110.04Z" fill="#EB86A0"/>
<path opacity="0.29" d="M225.211 173.24C225.003 173.659 224.737 174.046 224.421 174.39C224.421 174.39 218.961 171.39 210.351 162.77C201.741 154.15 202.701 147.46 202.701 135.02C202.729 133.225 202.998 131.443 203.501 129.72C202.032 137.139 202.92 144.831 206.041 151.72C211.771 164.14 225.201 165.14 225.211 173.24Z" fill="#876CD1"/>
<path opacity="0.26" d="M227.571 122.56C222.301 127.82 231.871 135.47 226.131 149.82C223.891 155.44 220.871 148.39 218.001 147.43C215.131 146.47 220.361 154.08 223.261 159.43C223.361 159.6 223.451 159.78 223.541 159.95C223.631 160.12 223.701 160.27 223.781 160.43L224.091 161.07L224.361 161.67C224.451 161.87 224.541 162.06 224.611 162.26C224.681 162.46 224.811 162.73 224.891 162.96C224.971 163.19 224.991 163.21 225.031 163.34C225.151 163.65 225.241 163.94 225.331 164.24C225.331 164.35 225.401 164.47 225.431 164.58C225.481 164.72 225.521 164.864 225.551 165.01V165.01C225.551 165.19 225.641 165.38 225.681 165.56C225.721 165.74 225.761 165.87 225.791 166.02L225.851 166.35C225.851 166.47 225.901 166.6 225.921 166.72L225.981 167.12C224.927 167.188 223.869 167.161 222.821 167.04C222.821 167.04 221.231 165.81 219.051 163.86C216.69 161.752 214.472 159.49 212.411 157.09C209.651 153.82 207.331 150.18 206.971 146.95C205.971 138.34 208.681 121.58 218.451 109.65C227.061 99.1197 244.281 88.6497 252.891 103.91C254.441 106.65 255.271 110.54 255.461 115.04C253.951 115.27 252.291 115.54 250.461 115.87C240.001 117.78 227.571 122.56 227.571 122.56Z" fill="url(#paint10_linear_76_79)"/>
<path d="M225.581 165.01C224.101 164.968 222.629 164.771 221.191 164.42C219.684 164.086 218.259 163.453 217.001 162.56L213.661 165.92C212.661 164.92 211.511 163.92 210.351 162.73L209.941 162.32C210.339 160.753 210.994 159.262 211.881 157.91C212.071 157.6 212.261 157.33 212.441 157.09C216.141 152.14 217.721 158.7 223.811 160.43L224.121 161.07L224.391 161.67C224.481 161.87 224.571 162.06 224.641 162.26C224.711 162.46 224.841 162.73 224.921 162.96C225.001 163.19 225.021 163.21 225.061 163.34C225.181 163.65 225.271 163.94 225.361 164.24C225.361 164.35 225.431 164.47 225.461 164.58C225.511 164.72 225.551 164.864 225.581 165.01Z" fill="#000C4F"/>
<path d="M232.85 141.65C227.11 150.26 217.61 158.44 212.34 165.82L206.76 158.37C209.421 150.958 212.455 143.686 215.85 136.58C217.3 138.92 218.85 140.37 219.6 139.98C220.6 139.5 220.72 136.98 219.32 134.17L218.39 132.31V131.49C220.06 128.24 221.22 126.15 221.39 126.35L232.85 141.65Z" fill="#000C4F"/>
<path d="M234.28 139.76C228.54 148.37 217.61 158.44 212.34 165.82C212.04 166.02 206.29 158.82 206.29 158.82C206.29 158.82 211.37 145.69 216.29 135.63C217.74 137.97 219.29 139.42 220.05 139.03C221.05 138.55 220.41 135.49 218.75 132.19L218.38 131.47C220.29 127.69 223.58 121.35 223.73 121.57L234.28 139.76Z" fill="url(#paint11_linear_76_79)"/>
<path d="M272.05 133.56C271.703 134.247 271.319 134.915 270.9 135.56C270.834 135.664 270.735 135.743 270.619 135.783C270.502 135.823 270.376 135.822 270.26 135.78C265.89 134.07 249.85 134.7 233.26 141.96C233.138 142.013 233.001 142.02 232.874 141.98C232.747 141.939 232.639 141.854 232.57 141.74L222.79 125.74C222.637 125.497 222.55 125.217 222.538 124.93C222.526 124.642 222.589 124.356 222.72 124.1L223.92 121.7C224.01 121.515 224.138 121.351 224.297 121.22C224.456 121.089 224.641 120.993 224.84 120.94C229.56 119.68 259.46 111.86 263.84 114.82C263.914 114.866 263.973 114.932 264.01 115.01C265.941 118.623 267.657 122.346 269.15 126.16V126.16C270.63 129.75 271.8 132.81 272.04 133.43C272.039 133.474 272.043 133.517 272.05 133.56Z" fill="#876CD1"/>
<path d="M272.05 133.56C271.649 134.379 271.184 135.165 270.66 135.91C270.644 135.922 270.625 135.929 270.605 135.929C270.585 135.929 270.566 135.922 270.55 135.91C266.65 134.05 250.19 134.54 233.18 142C233.08 142 233 141.94 233.06 141.85L235.68 138.35C236.45 138.02 260.33 127.63 269.08 126.2C270.96 125.91 272.08 126.01 272.26 126.71C272.695 128.993 272.61 131.345 272.01 133.59L272.05 133.56Z" fill="url(#paint12_linear_76_79)"/>
<path d="M270.59 133.16C264.22 131.96 247.01 133.47 235.94 138.71C235.613 138.866 235.241 138.893 234.895 138.788C234.549 138.682 234.254 138.451 234.07 138.14L224.61 121.8C224.483 121.58 224.416 121.33 224.416 121.075C224.416 120.821 224.483 120.571 224.61 120.35C228.32 113.99 243.61 108.62 254.37 108.68C260.05 108.68 266.01 110.97 267.97 112.33C268.139 112.447 268.279 112.601 268.38 112.78C271.45 118.22 272.68 127.21 272.3 131.88C272.283 132.081 272.223 132.276 272.126 132.453C272.028 132.629 271.894 132.783 271.732 132.904C271.571 133.025 271.385 133.11 271.189 133.154C270.992 133.198 270.788 133.2 270.59 133.16V133.16Z" fill="url(#paint13_linear_76_79)"/>
<path d="M246.7 111.08C246.7 111.08 255.79 109.64 258.7 110.6" stroke="url(#paint14_linear_76_79)" stroke-width="0.96" stroke-miterlimit="10" stroke-linecap="round"/>
<path d="M227.49 161.71C227.278 161.921 227.047 162.112 226.8 162.28C223.87 164.35 218.94 163.28 215.32 159.68C211.4 155.76 209.94 151.68 212.74 148.87C213.117 148.487 213.553 148.167 214.03 147.92V147.92C216.66 146.63 219.91 148.39 223.25 151.73C227.19 155.66 230.3 158.91 227.49 161.71Z" fill="#FAE8EE"/>
<path d="M226.8 162.24C223.87 164.31 218.94 163.24 215.32 159.64C211.4 155.72 209.94 151.64 212.74 148.83C213.117 148.447 213.553 148.127 214.03 147.88C213.38 148.4 211.52 151.15 214.2 156.01C215.407 158.216 217.263 159.997 219.518 161.112C221.772 162.226 224.314 162.62 226.8 162.24Z" fill="#F3B0C3"/>
<path d="M216.07 153.24C217 153.24 220.72 153.24 222.07 156.04C223.42 158.84 219.27 156.97 219.27 156.97C219.27 156.97 222.4 157.59 220.61 155.88C219.273 154.726 217.734 153.831 216.07 153.24V153.24Z" fill="#F3B0C3"/>
<path d="M200.78 262.24L162.52 291.88C147.21 304.31 123.3 313.88 124.26 290.88C124.53 290.44 124.9 289.88 125.34 289.24C130.06 282.24 143.34 264.24 149.49 257.95C169.98 237.04 173.71 220.24 185.34 214.24C204.41 206.24 225.52 241.37 200.78 262.24Z" fill="#000C4F"/>
<path d="M193.96 214.93C190.342 216.947 186.914 219.29 183.72 221.93C177.03 227.18 158.81 258.93 149.97 266.38C144.367 271.176 139.225 276.486 134.61 282.24" stroke="#4E2391" stroke-width="0.47" stroke-miterlimit="10"/>
<path d="M196.28 217.24C196.28 217.24 189.28 218.63 182.28 228.41C175.28 238.19 163.19 259.59 154.82 267.04C146.45 274.49 143.82 277.38 140.82 281.94" stroke="#4E2391" stroke-width="0.47" stroke-miterlimit="10"/>
<path d="M193.72 212.83L189.53 215.16C189.53 215.16 178.87 220.91 172.78 230.06C169.19 235.44 170.45 235.64 167.19 239.83C163.93 244.02 129.66 283.83 129.34 283.71C129.23 283.66 127.42 286.71 125.34 289.27C130.06 282.27 143.34 264.27 149.49 257.98C169.98 237.04 177.41 209.57 193.72 212.83Z" fill="#FF6490"/>
<path d="M202.7 368.87C201.58 368.11 200.48 367.34 199.37 366.58C178.82 352.35 159.37 337.8 145.37 324.83C140.869 320.723 136.64 316.327 132.71 311.67C126.09 303.67 122.83 296.67 124.37 291.5C132.37 277.5 139.96 279.5 150.43 280.33C156.43 280.79 157.55 287.33 160.81 293.52L161.4 294.31L203.85 351.58L206.11 354.58C215.64 362.24 215.41 368.24 202.7 368.87Z" fill="#482C99"/>
<path d="M135.33 311.29C134.77 311.72 134.22 312.11 133.68 312.45C119.01 298.85 122.04 297.99 124.41 290.1C127.16 285 129.96 281.65 132.65 279.53C142.2 272 150.45 280.12 150.36 280.2C131.81 297.08 142.55 305.77 135.33 311.29Z" fill="#000C4F"/>
<path d="M135.33 311.29C134.77 311.72 134.22 312.11 133.68 312.45C119.01 298.85 121.11 296.62 124.41 290.1C126.99 285.1 130.41 280.79 134.18 278.47C132.06 280.6 127.67 287.31 125.8 294.29C123.57 302.5 133.7 309.88 135.33 311.29Z" fill="#EC5076"/>
<path opacity="0.62" d="M204.01 352.08C204.01 352.08 181.62 325.48 175.57 317.08C170.444 309.754 165.717 302.156 161.41 294.32L203.86 351.59L204.01 352.08Z" fill="#EC5076"/>
<path d="M134.84 300.11C134.84 300.11 130.84 297.55 133.21 291.96C135.58 286.37 144.62 276.84 144.62 276.84" stroke="#4E2391" stroke-width="0.47" stroke-miterlimit="10"/>
<path d="M132.98 305.7C132.98 305.7 126.98 300.58 127.86 294.52C128.74 288.46 139.96 275.91 139.96 275.91" stroke="#4E2391" stroke-width="0.47" stroke-miterlimit="10"/>
<path d="M199.41 366.58C178.86 352.35 159.41 337.8 145.41 324.83C140.896 320.724 136.653 316.328 132.71 311.67C133.552 311.378 134.441 311.249 135.33 311.29C135.33 311.29 186.74 356.67 192.79 360.39C195.461 361.894 197.731 364.017 199.41 366.58V366.58Z" fill="#EC5076"/>
<path d="M134.84 308.49C135.354 308.49 135.77 308.074 135.77 307.56C135.77 307.046 135.354 306.63 134.84 306.63C134.327 306.63 133.91 307.046 133.91 307.56C133.91 308.074 134.327 308.49 134.84 308.49Z" stroke="#4E2391" stroke-width="0.47" stroke-miterlimit="10"/>
<path d="M136.7 301.97C137.214 301.97 137.63 301.554 137.63 301.04C137.63 300.526 137.214 300.11 136.7 300.11C136.187 300.11 135.77 300.526 135.77 301.04C135.77 301.554 136.187 301.97 136.7 301.97Z" stroke="#4E2391" stroke-width="0.47" stroke-miterlimit="10"/>
<path d="M310.79 295.7L304.04 222.24L302.18 201.95C302.062 200.663 302.157 199.366 302.46 198.11C304.58 189.48 316.86 190.11 319.4 201.95L337.57 282.3C339.49 300.49 325.14 307.18 310.79 295.7Z" fill="#482C99"/>
<path d="M304.23 206.88C304.08 206.88 304.05 217.59 304.04 222.25L302.18 201.96C302.062 200.673 302.157 199.376 302.46 198.12C302.722 198.427 302.919 198.784 303.04 199.17C304.04 202.59 304.41 206.97 304.23 206.88Z" fill="#EC5076"/>
<path d="M248.18 367.37C248.68 367.616 249.147 367.926 249.57 368.29C247.99 371.84 241.73 369.04 239.86 368.11L240.92 368.69C242.73 369.69 245.44 371.45 245.38 372.48C245.32 373.51 242.08 373.72 240.26 372.95C226.26 365.32 217.86 378.32 202.56 368.76C202.31 368.43 202.08 368.11 201.85 367.76C195.45 358.59 198.61 353.76 207.47 352.1C222.35 349.04 237.12 350.19 247.64 360.71L247.87 360.99C247.948 361.07 248.018 361.157 248.08 361.25C249.89 363.63 249.08 364.03 249.08 364.03C249.882 364.452 250.66 364.919 251.41 365.43C251.91 367.84 248.41 367.42 248.18 367.37Z" fill="#482C99"/>
<path d="M204.61 357.88C204.61 358.88 197.91 353.1 207.48 352.14C217.05 351.18 230.48 345.52 232.35 344.49C235.62 342.7 235.62 345.49 233.29 348.29C231.08 350.94 225.59 355.18 220.87 355.97C215.13 356.93 204.61 357.88 204.61 357.88Z" fill="#482C99"/>
<path d="M248.02 361.24C247.966 361.179 247.919 361.112 247.88 361.04C247.958 361.119 248.028 361.206 248.09 361.3C248.07 361.276 248.046 361.256 248.02 361.24V361.24Z" fill="#000C4F"/>
<path d="M234.86 357.24C236.33 357.92 246.86 362.78 248.18 363.24C249.5 363.7 248.44 361.84 248.11 361.39C249.92 363.77 249.11 364.17 249.11 364.17C249.11 364.17 236.3 357.92 234.86 357.24Z" fill="#000C4F"/>
<path d="M248.18 367.37L233.41 360.45C234.85 361.07 246.36 366 247.23 366.45C247.742 366.683 248.297 366.803 248.86 366.803C249.422 366.803 249.978 366.683 250.49 366.45C251.42 365.99 251.42 365.52 251.42 365.52C251.91 367.84 248.41 367.42 248.18 367.37Z" fill="#000C4F"/>
<path d="M249.58 368.3C248 371.85 241.74 369.05 239.87 368.12L240.93 368.7L240.33 368.42L231.92 363.66C232.47 363.91 241.4 367.94 243.06 368.77C243.76 369.172 244.537 369.42 245.34 369.5C246.144 369.579 246.955 369.487 247.72 369.23L249.58 368.3Z" fill="#000C4F"/>
<path d="M245.41 372.49C245.41 373.41 242.11 373.73 240.29 372.96C226.29 365.33 217.89 378.33 202.59 368.77C202.34 368.44 202.11 368.12 201.88 367.77C204.88 369.18 209.88 371.38 213.29 372C218.41 372.93 223.53 370.6 226.29 369.67C229.05 368.74 230.48 369.67 232.8 369.67C235.12 369.67 239.8 372 241.45 372.67C242.752 373.06 244.148 372.997 245.41 372.49V372.49Z" fill="#000C4F"/>
<path d="M335.691 177.46C334.691 184.08 329.921 187.61 324.181 195.26C318.441 202.91 320.311 201.54 320.361 205.78C320.411 210.02 305.051 207.69 305.051 207.69C305.051 207.69 304.701 207.57 304.231 206.88C303.611 205.97 302.771 204.08 302.231 200.2C301.331 194.02 300.471 193.41 301.711 186.35C301.841 185.58 302.001 184.74 302.181 183.81C304.091 174.25 304.971 173.81 305.901 168.18C306.691 163.46 305.271 158.66 307.301 159.33C308.701 159.8 310.561 162.46 310.561 167.25C310.561 172.04 310.091 173.76 310.791 176.16C310.971 176.776 311.205 177.375 311.491 177.95C313.991 174.5 317.011 172.32 317.491 171.38C318.441 169.46 318.441 162.76 319.401 157.02C320.361 151.28 320.191 147.91 322.271 148.42C322.622 148.916 322.911 149.453 323.131 150.02C323.131 150.02 323.131 146.77 324.521 146.3C325.921 146.3 326.381 150.02 326.381 150.02C326.381 150.02 326.741 144.54 328.711 147.7C331.041 151.42 331.041 156.08 331.501 159.8C331.611 160.62 332.411 170.21 332.131 171.17C333.48 167.943 334.518 164.594 335.231 161.17C336.231 157.34 336.111 156.07 338.021 155.11C339.931 154.15 336.631 171.24 335.691 177.46Z" fill="#482C99"/>
<path d="M311.021 197.47C311.84 194.191 313.439 191.159 315.681 188.63C319.401 184.44 327.311 179.78 327.781 178.85C328.762 177.078 329.851 175.368 331.041 173.73C328.904 174.919 326.893 176.323 325.041 177.92C323.591 179.32 311.491 184.9 311.021 197.47Z" fill="#250B71"/>
<path d="M304.231 206.88C303.611 205.97 302.771 204.08 302.231 200.2C301.331 194.02 300.471 193.41 301.711 186.35C301.401 188.36 301.565 190.415 302.191 192.35C303.591 196.08 304.521 198.35 304.521 198.35C304.521 198.35 305.041 204.67 304.231 206.88Z" fill="#EC5076"/>
<path opacity="0.36" d="M574 124C586.15 124 596 114.374 596 102.5C596 90.6259 586.15 81 574 81C561.85 81 552 90.6259 552 102.5C552 114.374 561.85 124 574 124Z" fill="white"/>

<path opacity="0.36" d="M574 103L548 100.031C548.338 92.4424 552.349 85.7038 560.71 80L574 103Z" fill="white" >
 <animate attributeName="rx" values="0;5;0" dur="10s" repeatCount="indefinite" />
</path>



<path opacity="0.36" d="M477.1 117H471V174.04H477.1V117Z" fill="white"/>
<path opacity="0.36" d="M485.1 133.84H479V174.04H485.1V133.84Z" fill="white"/>
<path opacity="0.36" d="M493.299 156.78H487.199V174.04H493.299V156.78Z" fill="white"/>
<path opacity="0.36" d="M501.719 123.32H495.619V174.05H501.719V123.32Z" fill="white"/>
<path opacity="0.36" d="M510.78 141.84H504.68V174.05H510.78V141.84Z" fill="white"/>
<path opacity="0.36" d="M436.31 82.1001H382V127.99H436.31V82.1001Z" stroke="white" stroke-width="0.21" stroke-miterlimit="10"/>
<path d="M387.47 82.52V127.36" stroke="white" stroke-width="0.21" stroke-miterlimit="10"/>
<path d="M391.89 82.21V127.04" stroke="white" stroke-width="0.21" stroke-miterlimit="10"/>
<path d="M396.52 82.4199V127.25" stroke="white" stroke-width="0.21" stroke-miterlimit="10"/>
<path d="M401.15 82V126.83" stroke="white" stroke-width="0.21" stroke-miterlimit="10"/>
<path d="M406 82.6299V127.46" stroke="white" stroke-width="0.21" stroke-miterlimit="10"/>
<path d="M411.05 82.4199V127.25" stroke="white" stroke-width="0.21" stroke-miterlimit="10"/>
<path d="M415.89 82.4199V127.25" stroke="white" stroke-width="0.21" stroke-miterlimit="10"/>
<path d="M420.73 82.4199V127.25" stroke="white" stroke-width="0.21" stroke-miterlimit="10"/>
<path d="M425.78 82.8398V127.68" stroke="white" stroke-width="0.21" stroke-miterlimit="10"/>
<path d="M430.83 82.6299V127.46" stroke="white" stroke-width="0.21" stroke-miterlimit="10"/>
<g opacity="0.44" filter="url(#filter2_f_76_79)">
<path d="M540.28 343.621C465.19 343.371 368.04 367.861 288.42 415.421C287.774 415.805 287.037 416.011 286.285 416.017C285.533 416.023 284.793 415.83 284.141 415.457C283.488 415.084 282.946 414.544 282.57 413.893C282.194 413.242 281.997 412.503 282 411.751V319.521C281.999 318.409 282.258 317.311 282.756 316.316C283.254 315.322 283.978 314.457 284.87 313.792C341.37 271.612 495.87 245.681 543.68 256.431C545.288 256.8 546.719 257.713 547.73 259.017C548.742 260.32 549.272 261.932 549.23 263.582L547.43 336.662C547.388 338.527 546.615 340.302 545.278 341.603C543.941 342.905 542.146 343.63 540.28 343.621V343.621Z" fill="#6038FF"/>
</g>
<path opacity="0.44" d="M545.16 313.74C470.07 313.49 372.92 337.98 293.3 385.54C292.653 385.924 291.917 386.129 291.165 386.135C290.413 386.142 289.673 385.948 289.02 385.575C288.368 385.202 287.826 384.663 287.45 384.012C287.074 383.361 286.877 382.622 286.88 381.87V289.64C286.879 288.527 287.137 287.43 287.636 286.435C288.134 285.44 288.858 284.575 289.75 283.91C346.25 241.73 500.75 215.8 548.56 226.55C550.168 226.919 551.599 227.832 552.61 229.135C553.622 230.438 554.151 232.051 554.11 233.7L552.31 306.78C552.268 308.646 551.495 310.42 550.158 311.722C548.821 313.024 547.026 313.748 545.16 313.74V313.74Z" fill="white"/>
<path d="M544.17 314.68C469.09 314.42 371.93 338.91 292.31 386.47C291.663 386.854 290.927 387.059 290.175 387.065C289.423 387.072 288.683 386.878 288.03 386.505C287.378 386.132 286.836 385.593 286.46 384.942C286.084 384.291 285.887 383.552 285.89 382.8V290.57C285.889 289.457 286.147 288.36 286.646 287.365C287.144 286.37 287.868 285.505 288.76 284.84C345.26 242.66 499.76 216.73 547.57 227.48C549.178 227.847 550.611 228.76 551.622 230.063C552.634 231.367 553.163 232.98 553.12 234.63L551.33 307.71C551.283 309.576 550.507 311.351 549.169 312.653C547.831 313.956 546.037 314.683 544.17 314.68V314.68Z" stroke="white" stroke-width="0.91" stroke-miterlimit="10"/>
<path d="M396.21 251.93V332.93C405.52 329.67 441.36 319.43 459.51 317.57L461.14 236.81" stroke="white" stroke-width="0.47" stroke-miterlimit="10"/>
<path d="M402.49 250.3V330.83" stroke="white" stroke-width="0.47" stroke-miterlimit="10"/>
<path d="M408.08 248.68V329.2" stroke="white" stroke-width="0.47" stroke-miterlimit="10"/>
<path d="M414.59 246.81V327.34" stroke="white" stroke-width="0.47" stroke-miterlimit="10"/>
<path d="M420.64 245.42V325.94" stroke="white" stroke-width="0.47" stroke-miterlimit="10"/>
<path d="M427.16 243.55V324.08" stroke="white" stroke-width="0.47" stroke-miterlimit="10"/>
<path d="M433.68 242.16V322.69" stroke="white" stroke-width="0.47" stroke-miterlimit="10"/>
<path d="M440.19 240.76V321.29" stroke="white" stroke-width="0.47" stroke-miterlimit="10"/>
<path d="M447.18 238.9V319.43" stroke="white" stroke-width="0.47" stroke-miterlimit="10"/>
<path d="M453.23 237.97V318.5" stroke="white" stroke-width="0.47" stroke-miterlimit="10"/>
<path d="M395.97 326.64C416.635 319.847 437.804 314.698 459.28 311.24" stroke="white" stroke-width="0.47" stroke-miterlimit="10"/>
<path d="M395.97 321.06C416.633 314.272 437.803 309.135 459.28 305.7" stroke="white" stroke-width="0.47" stroke-miterlimit="10"/>
<path d="M396.41 314.07C417.072 307.291 438.238 302.155 459.71 298.71" stroke="white" stroke-width="0.47" stroke-miterlimit="10"/>
<path d="M395.97 307.56C416.634 300.785 437.804 295.662 459.28 292.24" stroke="white" stroke-width="0.47" stroke-miterlimit="10"/>
<path d="M396.41 301.04C417.071 294.256 438.237 289.12 459.71 285.68" stroke="white" stroke-width="0.47" stroke-miterlimit="10"/>
<path d="M395.97 295.46C416.634 288.673 437.804 283.534 459.28 280.09" stroke="white" stroke-width="0.47" stroke-miterlimit="10"/>
<path d="M396.41 288.47C417.072 281.691 438.238 276.555 459.71 273.11" stroke="white" stroke-width="0.47" stroke-miterlimit="10"/>
<path d="M395.97 282.89C416.633 276.102 437.803 270.965 459.28 267.53" stroke="white" stroke-width="0.47" stroke-miterlimit="10"/>
<path d="M395.97 276.37C416.634 269.586 437.804 264.45 459.28 261.01" stroke="white" stroke-width="0.47" stroke-miterlimit="10"/>
<path d="M395.97 270.32C416.634 263.536 437.804 258.4 459.28 254.96" stroke="white" stroke-width="0.47" stroke-miterlimit="10"/>
<path d="M395.97 263.34C416.633 256.552 437.803 251.415 459.28 247.98" stroke="white" stroke-width="0.47" stroke-miterlimit="10"/>
<path d="M395.97 257.75C416.636 250.971 437.805 245.835 459.28 242.39" stroke="white" stroke-width="0.47" stroke-miterlimit="10"/>
<path opacity="0.75" d="M476.97 312.21H472.78V237.74L477.2 237.04L476.97 312.21Z" fill="white"/>
<path opacity="0.75" d="M489.07 312.21H484.88V237.74L489.3 237.04L489.07 312.21Z" fill="white"/>
<path opacity="0.75" d="M495.59 312.68H491.4V233.55L495.82 233.31L495.59 312.68Z" fill="white"/>
<path opacity="0.75" d="M483.02 312.21H478.83V256.36L483.25 255.66L483.02 312.21Z" fill="white"/>
<path opacity="0.75" d="M502.1 244.25H497.91V300.11H502.1V244.25Z" fill="white"/>
<path opacity="0.75" d="M523.51 243.79H519.32V299.65H523.51V243.79Z" fill="white"/>
<path opacity="0.75" d="M508.15 250.77H503.96V306.63H508.15V250.77Z" fill="white"/>
<path opacity="0.75" d="M516.07 255.42H511.88V311.28H516.07V255.42Z" fill="white"/>
<path d="M348.95 294.24C348.95 309.24 341 325.85 330.95 331.33C320.49 337.03 311.95 328.52 312.17 312.27C312.43 296.21 321.24 279.57 331.48 275.1C341.33 270.84 349 279.41 348.95 294.24Z" stroke="white" stroke-width="0.47" stroke-miterlimit="10"/>
<path d="M331.74 330.83C322.43 336.88 314.25 329.02 314.51 312.77C314.77 296.71 323.36 278.7 335.93 274.04" stroke="white" stroke-width="0.47" stroke-miterlimit="10"/>
<path opacity="0.75" d="M331.27 305.7C331.27 306.16 336.62 329.2 336.62 329.2C340.81 327.34 347.8 315.7 348.26 308.26L331.27 305.7Z" fill="white"/>
<path opacity="0.75" d="M390.41 331.3C390.23 330.77 349.27 344.74 349.41 345.3V350.42C349.24 349.97 390.2 335.08 390.41 335.53V331.3Z" fill="white"/>
<path opacity="0.75" d="M390.15 324.32C389.98 323.79 349.01 337.76 349.15 338.32V343.44C348.99 342.99 389.95 328.09 390.15 328.54V324.32Z" fill="white"/>
<path opacity="0.75" d="M389.69 316.87C389.51 316.34 348.55 330.31 348.69 330.87V335.99C348.52 335.54 389.49 320.65 389.69 321.1V316.87Z" fill="white"/>
<path opacity="0.75" d="M389.69 308.95C389.51 308.43 348.55 322.39 348.69 322.95V328.07C348.52 327.62 389.49 312.72 389.69 313.17V308.95Z" fill="white"/>
<path d="M291.01 296.62V378.29C291.015 378.486 291.07 378.678 291.17 378.847C291.269 379.016 291.41 379.157 291.579 379.257C291.747 379.357 291.939 379.412 292.135 379.418C292.331 379.424 292.525 379.38 292.7 379.29L346.86 351.97" stroke="white" stroke-width="0.47" stroke-miterlimit="10"/>
<path d="M613.96 415.56C575.2 409.02 496.47 390.39 378.28 475.67C371.36 480.663 364.314 486.013 357.14 491.72C356.985 491.844 356.804 491.932 356.61 491.977C356.416 492.022 356.215 492.023 356.02 491.98L271.9 449.66C271.7 449.66 269.59 447.56 270.99 445.8C339.5 393.57 483.4 346.6 564.28 363.15C564.34 363.15 569.28 365.85 569.33 365.89L597.03 396.72L613.96 415.56Z" fill="url(#paint15_linear_76_79)"/>
<path d="M613.96 415.56C614.22 415.61 614.15 415.75 613.96 415.56V415.56Z" fill="url(#paint16_linear_76_79)"/>
<path opacity="0.44" d="M597.03 396.72C568.5 400.24 496.54 415.95 464.71 426.09C425.04 438.73 357.15 491.76 357.15 491.76L270.99 445.76C339.5 393.53 483.4 346.56 564.28 363.11C566.157 363.611 567.887 364.55 569.33 365.85C571.65 367.99 597.03 396.72 597.03 396.72Z" fill="url(#paint17_linear_76_79)"/>
<path d="M494.82 379.36L492.98 379.82C456.59 389.1 411.8 403.91 379.46 418.72L351.46 408.9L348.27 407.77C423 374.09 480.46 366.52 480.46 366.52L494.82 379.36Z" fill="#7B94FF"/>
<path d="M494.82 379.36C494.21 379.51 494.38 379.62 493.76 379.78L480.08 367.36C440.93 373.24 388.52 390.93 349.41 408.24L348.41 407.82C423.14 374.14 480.6 366.57 480.6 366.57L494.82 379.36Z" fill="#0345EA"/>
<path opacity="0.48" d="M381.99 415.77L356.73 406.93C358.2 405.67 379.25 397.46 380.94 397.04L405.41 406.09C397.57 408.41 388.64 412.66 381.99 415.77Z" stroke="white" stroke-width="0.47" stroke-miterlimit="10"/>
<path opacity="0.48" d="M462.41 386.51C443.86 391.621 425.608 397.76 407.74 404.9L385.57 396.71L383.05 395.78C408.05 386.5 431.83 379 453.78 374.09L462.41 386.51Z" stroke="white" stroke-width="0.47" stroke-miterlimit="10"/>
<path opacity="0.48" d="M386.62 397.04C409.12 388.65 432.91 380.98 454.99 375.97" stroke="white" stroke-width="0.47" stroke-miterlimit="10"/>
<path opacity="0.48" d="M456.47 377.98C435.05 382.98 412.14 390.42 390.47 398.51" stroke="white" stroke-width="0.47" stroke-miterlimit="10"/>
<path opacity="0.48" d="M394.62 399.99C415.322 392.132 436.464 385.491 457.94 380.1" stroke="white" stroke-width="0.47" stroke-miterlimit="10"/>
<path opacity="0.48" d="M398.41 401.24C418.317 393.7 438.625 387.264 459.24 381.96" stroke="white" stroke-width="0.47" stroke-miterlimit="10"/>
<path opacity="0.48" d="M403.04 403.14C422.041 395.959 441.4 389.764 461.04 384.58" stroke="white" stroke-width="0.47" stroke-miterlimit="10"/>
<path d="M378.28 475.67C371.36 480.663 364.314 486.013 357.14 491.72C356.01 490.04 299.74 446.72 304.95 448.19C310.16 449.66 340.03 452.42 348.52 456.82C355.7 460.53 370.74 467.89 378.28 475.67Z" fill="url(#paint18_linear_76_79)"/>
<path d="M348.31 407.77L379.46 418.77C423.46 400.13 463.15 386.85 496.29 381.93L502.81 329.52C502.81 329.52 455.87 329.94 393.81 351.41C353.27 365.41 340.13 375.83 340.13 375.83L348.31 407.77Z" fill="url(#paint19_linear_76_79)"/>
<path d="M359.41 435.45C359.41 435.45 394.95 415.93 431.19 402.62C482.76 383.67 569.96 369.53 565.49 370.62C565.39 370.62 579.38 398.2 579.38 398.2C519.52 399.26 457.3 419.78 394.78 457.77L359.41 435.45Z" stroke="#030D3A" stroke-width="0.21" stroke-miterlimit="10"/>
<path d="M363.99 436.93C363.99 436.93 411.99 411.05 446.93 400.3C468.552 393.71 490.646 388.785 513.02 385.57" stroke="#030D3A" stroke-width="0.21" stroke-miterlimit="10"/>
<path d="M368.62 438.82C368.62 438.82 416.62 412.95 451.56 402.2C473.181 395.604 495.276 390.676 517.65 387.46" stroke="#030D3A" stroke-width="0.21" stroke-miterlimit="10"/>
<path d="M373.04 442.24C373.04 442.24 420.43 415.1 455.35 404.35C477.113 397.754 499.453 393.243 522.07 390.88" stroke="#030D3A" stroke-width="0.21" stroke-miterlimit="10"/>
<path d="M378.1 445.14C378.1 445.14 424.42 417.14 459.35 406.41C481.425 399.779 504.149 395.544 527.13 393.78" stroke="#030D3A" stroke-width="0.21" stroke-miterlimit="10"/>
<path d="M382.73 447.87C382.73 447.87 430.73 419.69 465.66 408.93C487.173 402.384 509.339 398.219 531.76 396.51" stroke="#030D3A" stroke-width="0.21" stroke-miterlimit="10"/>
<path d="M387.57 450.61C387.57 450.61 433.69 421.79 468.57 411.04C490.688 404.422 513.516 400.464 536.57 399.25" stroke="#030D3A" stroke-width="0.21" stroke-miterlimit="10"/>
<path d="M392.62 453.56C392.62 453.56 441.05 424.11 475.98 413.35C497.305 406.854 519.375 403.12 541.65 402.24" stroke="#030D3A" stroke-width="0.21" stroke-miterlimit="10"/>
<path d="M353.99 443.66C353.99 452.91 340.71 460.4 324.31 460.4C309.18 460.4 296.69 454.01 294.86 445.76C294.712 445.07 294.638 444.366 294.64 443.66C294.64 434.42 307.92 426.93 324.31 426.93C340.31 426.93 353.39 434.09 353.98 443.04C353.99 443.24 353.99 443.45 353.99 443.66Z" fill="#EC5076"/>
<path d="M353.99 443.66C353.99 452.91 340.71 460.4 324.31 460.4C309.18 460.4 296.69 454.01 294.86 445.76C294.86 445.55 294.86 445.35 294.86 445.14C294.86 435.89 308.14 428.4 324.54 428.4C339.67 428.4 352.16 434.79 353.99 443.04C353.99 443.24 353.99 443.45 353.99 443.66Z" fill="#F3B0C3"/>
<path d="M517.75 301.34C508.58 301.5 487.3 305.8 474.31 310.49C473.906 310.637 473.471 310.68 473.045 310.615C472.62 310.551 472.218 310.38 471.875 310.119C471.533 309.858 471.261 309.516 471.086 309.123C470.91 308.73 470.836 308.299 470.87 307.87L472.33 289.68C472.367 289.193 472.543 288.726 472.838 288.336C473.132 287.946 473.532 287.649 473.99 287.48C494.04 279.97 506.15 275.21 518.63 279.74C519.119 279.923 519.539 280.251 519.836 280.68C520.133 281.109 520.291 281.618 520.29 282.14V298.78C520.288 299.455 520.02 300.101 519.545 300.58C519.07 301.059 518.425 301.332 517.75 301.34V301.34Z" fill="url(#paint20_linear_76_79)"/>
<path d="M533.68 295.7C533.68 314.7 526.98 336.84 496.37 341.62C495.28 341.79 494.25 341.91 493.27 341.98C491.718 342.1 490.158 342.076 488.61 341.91C485.879 341.684 483.294 340.583 481.24 338.77C473 331.09 478.19 311.57 478.19 297.62C478.107 291.156 479.517 284.76 482.31 278.93C486.64 270.19 493.95 264.49 502.1 263.19C526.03 259.35 533.68 276.68 533.68 295.7Z" fill="#EC5076"/>
<path opacity="0.66" d="M488.61 341.91C470.53 339.74 478.19 314.58 478.19 297.62C478.107 291.156 479.517 284.76 482.31 278.93V278.93C482.31 278.93 479.97 284.86 479.31 295.39C478.65 305.92 474.89 327.39 480.01 336.18C482.21 340.01 486.7 340.97 488.61 341.91Z" fill="#F3AABF"/>
<path d="M493.27 341.98C491.718 342.1 490.158 342.076 488.61 341.91C485.879 341.684 483.294 340.583 481.24 338.77C485.11 339.44 487.44 337.58 487.9 334.32C488.5 330.15 488.37 318.96 491.16 325.48C492.85 329.43 493.35 336.61 493.27 341.98Z" fill="#CE386A"/>
<path d="M533.68 369.36C519.21 379.93 504.68 382.86 490.14 374.63C489.35 374.19 488.56 373.7 487.76 373.19C489.073 369.42 489.962 365.516 490.41 361.55C491.097 355.318 491.154 349.033 490.58 342.79C490.011 336.292 489.076 329.832 487.78 323.44C488.27 323.14 488.78 322.84 489.27 322.56C491.333 321.349 493.47 320.27 495.67 319.33C507.33 314.33 519.36 314.07 531.79 318.66C530.07 329.75 530.51 341.83 531.79 354.22C532.3 359.24 532.96 364.29 533.68 369.36Z" fill="#EC5076"/>
<path d="M516.3 345.96C504.8 342.73 498.14 332.96 493.02 319.89C495.14 318.65 493.5 320.25 495.65 319.33C500.9 322.33 529.02 327.99 530.26 333.39C531.66 339.44 528.87 349.49 516.3 345.96Z" fill="#CE386A"/>
<path opacity="0.66" d="M492.09 358.99C492.09 366.41 492.32 371.76 490.14 374.63C489.35 374.19 488.56 373.7 487.76 373.19C490.76 364.7 491.51 354.42 490.56 342.79C491.516 348.138 492.028 353.557 492.09 358.99V358.99Z" fill="#F3AABF"/>
<path d="M533.68 369.36C519.21 379.93 504.68 382.86 490.14 374.63C489.76 374.41 489.37 374.19 488.98 373.95C488.59 373.71 488.17 373.45 487.76 373.19C489.073 369.42 489.962 365.516 490.41 361.55L492 360.96C499.909 358.118 508.088 356.091 516.41 354.91C521.489 354.055 526.654 353.823 531.79 354.22C532.3 359.24 532.96 364.29 533.68 369.36Z" fill="#000C4F"/>
<path d="M491.98 360.96C491.61 364.39 491.26 371.38 489.14 373.78L488.98 373.95C488.57 373.71 488.17 373.45 487.76 373.19C489.073 369.42 489.962 365.516 490.41 361.55L491.98 360.96Z" fill="#EC5076"/>
<path d="M531.77 331.1C530.77 334.92 531.32 339.81 526.54 343.63C521.76 347.45 509.16 343.96 504.66 336.63C494.95 320.86 489.35 311.69 486.17 303.27C485.69 302.01 485.27 300.76 484.89 299.51C482.02 289.94 482.32 278.91 482.32 278.91C482.32 278.91 479.15 280.38 480.11 276.55C480.63 274.46 483.71 271.2 487.32 268.36C490.031 266.148 493.066 264.367 496.32 263.08C501.6 261.33 512.24 258.75 523.6 262.08C524.6 262.36 525.6 262.7 526.55 263.08C542.14 269.08 544.21 278.46 545.17 290.9C546.13 303.34 532.72 327.24 531.77 331.1Z" fill="#000C4F"/>
<path opacity="0.7" d="M541.41 301.74C540.48 314.31 531.17 339.91 521.86 340.84C512.55 341.77 510.25 335.24 503.73 328.24C497.21 321.24 492.09 314.24 487.9 299.85C483.71 285.46 488.84 277.04 487.09 274.6C486.23 273.39 485.99 271.11 487.32 268.35C490.031 266.138 493.066 264.357 496.32 263.07C501.61 261.32 512.27 258.74 523.63 262.07C526.82 264.28 530.19 266.9 534.03 269.58C547.95 279.4 542.41 289.17 541.41 301.74Z" fill="#000B38"/>
<path opacity="0.52" d="M523.56 262.1C515.024 260.611 506.246 261.44 498.14 264.5C485.14 269.62 482.78 275.21 483.72 276.14C484.362 276.908 485.151 277.54 486.04 278C486.04 278 486.44 302.8 486.24 303.2C486.221 303.233 486.198 303.264 486.17 303.29C485.69 302.03 485.27 300.78 484.89 299.53C482.02 289.96 482.32 278.93 482.32 278.93C482.32 278.93 479.15 280.4 480.11 276.57C480.63 274.48 483.71 271.22 487.32 268.38C490.031 266.168 493.066 264.387 496.32 263.1C501.56 261.35 512.2 258.77 523.56 262.1Z" fill="#071F84"/>
<path d="M473.98 288.42C472.2 287.5 472.28 290.25 472.12 292.25L470.74 309.53C470.675 310.211 470.863 310.893 471.266 311.446C471.67 311.998 472.261 312.384 472.93 312.53C482.02 314.53 514.51 321.33 526.07 321.33C536.2 321.33 537.46 319.89 537.45 319.17C537.45 318.77 540.45 312.02 540.45 312.02C540.83 311.02 541.92 308.16 541.92 308.25C541.92 308.34 543.18 308.46 536.86 308.88C524.93 309.64 473.98 288.42 473.98 288.42Z" fill="url(#paint21_linear_76_79)"/>
<path d="M472.86 310.37L473.86 295.02C473.875 294.772 473.954 294.532 474.09 294.324C474.225 294.115 474.412 293.945 474.633 293.83C474.853 293.716 475.099 293.66 475.348 293.669C475.596 293.677 475.838 293.75 476.05 293.88L477.05 294.51C477.271 294.643 477.451 294.833 477.573 295.06C477.694 295.287 477.752 295.543 477.74 295.8L477.11 310.38C477.096 310.716 477.199 311.046 477.402 311.314C477.604 311.582 477.893 311.772 478.22 311.85L479.84 312.23C480.049 312.277 480.265 312.278 480.474 312.232C480.683 312.185 480.879 312.094 481.048 311.963C481.217 311.832 481.356 311.665 481.453 311.474C481.55 311.284 481.604 311.074 481.61 310.86L481.99 296.42" stroke="url(#paint22_linear_76_79)" stroke-width="0.21" stroke-miterlimit="10"/>
<path d="M496.49 313.38C495.38 318.12 493.23 321.93 491.07 323.38C490.736 323.642 490.35 323.83 489.938 323.932C489.526 324.033 489.097 324.046 488.68 323.97C488.276 323.858 487.902 323.661 487.581 323.392C487.26 323.123 487.001 322.788 486.82 322.41C486.606 322.035 486.429 321.639 486.29 321.23C485.707 319.249 485.517 317.174 485.73 315.12C485.827 313.736 486.034 312.361 486.35 311.01C487.87 304.5 491.35 299.75 494.16 300.4C494.728 300.596 495.238 300.931 495.643 301.375C496.048 301.819 496.336 302.357 496.48 302.94C497.41 305.38 497.41 309.24 496.49 313.38Z" fill="#EC5076"/>
<path opacity="0.66" d="M496.48 302.96L496.28 303.14C496.23 303.21 495.45 300.63 493.97 300.84C489.65 301.46 485.97 314.09 485.73 315.14C485.827 313.756 486.034 312.381 486.35 311.03C487.87 304.52 491.35 299.77 494.16 300.42C494.728 300.616 495.238 300.951 495.643 301.395C496.048 301.839 496.336 302.377 496.48 302.96V302.96Z" fill="#F3AABF"/>
<path d="M486.29 321.24C486.826 321.208 487.364 321.208 487.9 321.24C487.9 321.24 494.39 319.32 492.5 309.84C491.37 304.22 494.23 300.94 494.42 300.29C498.14 302.62 497 309.11 496.49 313.29C495.35 322.6 489.3 324.46 487.9 323.99C487.034 323.311 486.459 322.328 486.29 321.24Z" fill="#CE386A"/>
<path d="M609.33 476.12C615.07 501.94 592.11 514.38 581.58 491.42C567.24 459.85 555.76 447.42 545.23 417.76C547.12 396.61 551.93 374.76 570.11 379.5C585.85 396.24 596.48 430.53 609.33 476.12Z" fill="#000C4F"/>
<path d="M570.99 524.33L473.99 542.07L459.16 478.47L443.16 408.09L442.79 406.47C446.52 398.09 471.24 378.92 487.94 372.96V373.42C503.55 367.86 519.09 358.6 532.63 361.79C548.46 365.51 564.99 373.97 571.73 381.34C588.91 415.77 583.2 460.67 570.99 524.33Z" fill="#000C4F"/>
<path d="M489.77 372.96C489.33 373.34 463.7 385.06 448.77 401.82C447.67 403.06 444.49 407.24 443.09 408.09L442.72 406.47C446.2 398.65 468.79 379.94 487.87 372.96C489.11 372.52 488.67 373.35 489.77 372.96Z" fill="#EC5076"/>
<path d="M469.59 524.33L459.15 478.47C459.574 478.927 459.968 479.412 460.33 479.92C472.78 497.04 469.59 524.33 469.59 524.33Z" fill="#250B71"/>
<path d="M566.05 524.33H481.05C482.05 515.43 482.26 501.9 479.05 482.81C472.53 444.18 455.78 412.99 462.29 404.61C468.8 396.23 508.82 352.51 554.92 374.82C594.63 394.02 574.05 499.73 566.05 524.33Z" fill="#030D3A"/>
<path d="M473.47 458.61L460.15 481.33L481.85 495.38L473.47 458.61Z" fill="#030D3A"/>
<path d="M434.41 526.24C430.46 530.14 425.49 532.31 419.92 531.24C415.26 530.31 409.24 526.17 402.84 520.49C383.59 503.4 360.84 472.33 360.84 472.33C348.44 458.98 356.01 450.39 370.27 458.86L370.4 458.94L430.16 495.4L443.65 500.98C444.33 509.62 440.66 520.09 434.41 526.24Z" fill="#000C4F"/>
<path d="M369.57 483.55C369.57 483.55 362.57 474.44 357.78 469.66C350.42 469.66 332.87 457.05 330 455.14C327.13 453.23 304.64 451.62 304.95 448.19C305.07 446.84 330.21 447.35 330.21 447.35C330.21 447.35 305.79 442.08 306 438.09C306.11 435.95 313.37 435.98 313.37 435.98C313.37 435.98 312.11 433.66 323.21 431.69C327.09 430.99 337.55 428.82 343.29 430.69C343.441 430.735 343.588 430.792 343.73 430.86C349.73 433.48 364.34 450.78 364.34 450.78C364.34 450.78 375.1 463.11 375.82 465.13C380.6 478.56 369.57 483.55 369.57 483.55Z" fill="#000C4F"/>
<path d="M430.19 495.38C429.86 507.18 413.43 488.38 413.43 488.38L372 459.98L430.19 495.38Z" fill="#EC5076"/>
<path d="M434.41 526.24C430.46 530.14 425.49 532.31 419.92 531.24C415.26 530.31 409.24 526.17 402.84 520.49C404.3 518.04 406.43 515.97 408.64 513.58L434.41 526.24Z" fill="#250B71"/>
<path d="M341.15 435.56C342.21 437.24 336.52 437.24 336.1 438.93C335.68 440.62 338.84 442.72 336.94 443.56C335.04 444.4 333.79 450.29 332.52 450.08C331.25 449.87 309.58 449.24 304.95 448.24C305.07 446.89 330.21 447.4 330.21 447.4C330.21 447.4 307.21 442.45 306.05 438.5C306.032 438.384 306.032 438.266 306.05 438.15C306.046 438.13 306.046 438.11 306.05 438.09C306.28 436.01 313.41 436.04 313.41 436.04C313.36 435.93 312.41 433.68 323.25 431.75C327.13 431.05 337.59 428.88 343.33 430.75C343.481 430.795 343.628 430.852 343.77 430.92C343.863 431.046 343.937 431.184 343.99 431.33C345.07 434.43 340.1 433.88 341.15 435.56Z" fill="#250B71"/>
<path d="M343.73 430.9C343.73 430.9 333.79 429.24 319.26 433.03C314.04 434.4 313.36 435.92 313.37 435.98C313.32 435.87 312.37 433.62 323.21 431.69C327.09 430.99 337.55 428.82 343.29 430.69C343.443 430.748 343.59 430.818 343.73 430.9V430.9Z" fill="#EC5076"/>
<path d="M328.95 436.61C328.95 436.61 310.84 435.98 308.53 436.82C307.667 437.173 306.826 437.577 306.01 438.03C306.24 435.95 313.37 435.98 313.37 435.98C313.79 435.97 328.95 436.61 328.95 436.61Z" fill="#EC5076"/>
<path d="M473.47 458.6C462.35 473.04 453.12 495.55 444.37 511.49C439.58 520.23 434.93 526.99 430.19 529.36C419.56 534.67 410.57 528.22 408.66 513.56C408.133 509.243 408.133 504.877 408.66 500.56C409.627 496.334 410.805 492.158 412.19 488.05C416.83 474.34 422.19 466.22 425.49 452.13C431.69 425.57 437.7 409.78 444.14 404.2C445.625 403.192 447.214 402.347 448.88 401.68C469.59 393.5 480.21 428.53 473.47 458.6Z" fill="#000C4F"/>
<path d="M426.23 456.05C426.23 456.05 426.63 467.12 434.14 468.15C444.38 469.54 456.48 453.72 461.14 438.36C470.56 407.28 451.83 401.58 451.83 401.58" stroke="#250B71" stroke-width="0.47" stroke-miterlimit="10"/>
<path d="M427.63 449.99C427.63 450.46 428.09 463.49 432.75 464.89C439.95 467.05 448 459.94 455.55 444.41C463.93 427.19 462.07 406.24 451.36 403.91C449.175 403.342 446.858 403.602 444.853 404.64C442.849 405.677 441.298 407.419 440.5 409.53" stroke="#250B71" stroke-width="0.47" stroke-miterlimit="10"/>
<path d="M432.28 438.82L445.31 443.01" stroke="#250B71" stroke-width="0.47" stroke-miterlimit="10"/>
<path d="M432.75 436.03L445.78 440.22" stroke="#250B71" stroke-width="0.47" stroke-miterlimit="10"/>
<path d="M433.68 432.77L446.71 436.96" stroke="#250B71" stroke-width="0.47" stroke-miterlimit="10"/>
<path d="M444.18 404.16C445.665 403.152 447.254 402.307 448.92 401.64C447.14 403.09 443.34 408.1 438.56 417.64C433.185 428.519 429.429 440.125 427.41 452.09C427.41 452.09 422.29 465.59 419.96 470.71C417.63 475.83 412.59 488.87 412.32 488.17C412.3 488.115 412.276 488.062 412.25 488.01C416.89 474.3 422.25 466.18 425.55 452.09C431.73 425.53 437.74 409.74 444.18 404.16Z" fill="#EC5076"/>
<path d="M451.13 400.89H450.06C450.79 400.64 451.13 400.89 451.13 400.89Z" fill="#250B71"/>
<path d="M444.41 511.49C439.62 520.23 434.97 526.99 430.23 529.36C419.6 534.67 410.61 528.22 408.7 513.56C413.06 509.81 418.55 505.56 424.34 504.81C432.3 503.76 439.51 505.83 444.41 511.49Z" fill="#250B71"/>
<path d="M577.91 513.81L485.97 546.49C479.26 547.77 471.97 551.72 473.35 545.02L500.12 416.6C500.497 414.71 501.434 412.977 502.809 411.627C504.184 410.277 505.934 409.372 507.83 409.03L594.96 393.24C596.507 392.958 598.099 393.06 599.597 393.537C601.096 394.013 602.454 394.849 603.554 395.972C604.655 397.095 605.463 398.47 605.909 399.978C606.354 401.486 606.423 403.079 606.11 404.62L585.54 506.24C585.166 508.118 584.24 509.841 582.881 511.19C581.522 512.538 579.791 513.451 577.91 513.81Z" fill="url(#paint23_linear_76_79)"/>
<path d="M580.77 522.71L487.65 554.66C486.468 555.064 485.199 555.148 483.973 554.903C482.747 554.658 481.608 554.093 480.671 553.265C479.735 552.437 479.034 551.376 478.64 550.19C478.247 549.003 478.174 547.733 478.43 546.51L505.09 419.45C505.378 418.088 506.06 416.84 507.053 415.864C508.045 414.887 509.304 414.225 510.67 413.96L603.34 395.96C604.5 395.734 605.697 395.802 606.823 396.157C607.949 396.512 608.969 397.143 609.789 397.993C610.609 398.843 611.203 399.884 611.518 401.023C611.832 402.161 611.857 403.36 611.59 404.51L585.41 517.62C585.136 518.794 584.565 519.878 583.753 520.769C582.941 521.66 581.914 522.328 580.77 522.71V522.71Z" fill="#080B16"/>
<g filter="url(#filter3_f_76_79)">
<rect x="96" y="218" width="122" height="33" rx="16.5" transform="rotate(-90 96 218)" fill="#C54B83"/>
</g>
<defs>
<filter id="filter0_f_76_79" x="112" y="298" width="86.7" height="75.2974" filterUnits="userSpaceOnUse" color-interpolation-filters="sRGB">
<feFlood flood-opacity="0" result="BackgroundImageFix"/>
<feBlend mode="normal" in="SourceGraphic" in2="BackgroundImageFix" result="shape"/>
<feGaussianBlur stdDeviation="5" result="effect1_foregroundBlur_76_79"/>
</filter>
<filter id="filter1_f_76_79" x="176" y="330" width="48.2004" height="156.996" filterUnits="userSpaceOnUse" color-interpolation-filters="sRGB">
<feFlood flood-opacity="0" result="BackgroundImageFix"/>
<feBlend mode="normal" in="SourceGraphic" in2="BackgroundImageFix" result="shape"/>
<feGaussianBlur stdDeviation="5.5" result="effect1_foregroundBlur_76_79"/>
</filter>
<filter id="filter2_f_76_79" x="188" y="160" width="455.232" height="350.017" filterUnits="userSpaceOnUse" color-interpolation-filters="sRGB">
<feFlood flood-opacity="0" result="BackgroundImageFix"/>
<feBlend mode="normal" in="SourceGraphic" in2="BackgroundImageFix" result="shape"/>
<feGaussianBlur stdDeviation="47" result="effect1_foregroundBlur_76_79"/>
</filter>
<filter id="filter3_f_76_79" x="-3.8147e-06" y="0" width="225" height="314" filterUnits="userSpaceOnUse" color-interpolation-filters="sRGB">
<feFlood flood-opacity="0" result="BackgroundImageFix"/>
<feBlend mode="normal" in="SourceGraphic" in2="BackgroundImageFix" result="shape"/>
<feGaussianBlur stdDeviation="48" result="effect1_foregroundBlur_76_79"/>
</filter>
<linearGradient id="paint0_linear_76_79" x1="366.79" y1="29.2398" x2="363.95" y2="291.32" gradientUnits="userSpaceOnUse">
<stop stop-color="#8A5EFF" stop-opacity="0.44"/>
<stop offset="1" stop-color="#EC5076"/>
</linearGradient>
<linearGradient id="paint1_linear_76_79" x1="142464" y1="19040.3" x2="142445" y2="28682" gradientUnits="userSpaceOnUse">
<stop stop-color="#8A5EFF" stop-opacity="0.44"/>
<stop offset="1" stop-color="#EC5076"/>
</linearGradient>
<linearGradient id="paint2_linear_76_79" x1="248.526" y1="478.5" x2="248.526" y2="387" gradientUnits="userSpaceOnUse">
<stop stop-color="#050810"/>
<stop offset="1" stop-color="#050810" stop-opacity="0"/>
</linearGradient>
<linearGradient id="paint3_linear_76_79" x1="254.321" y1="199.1" x2="276.751" y2="252.99" gradientUnits="userSpaceOnUse">
<stop stop-color="#BDB0FF"/>
<stop offset="0.16" stop-color="#B8A9FC"/>
<stop offset="0.39" stop-color="#A997F4"/>
<stop offset="0.63" stop-color="#937CE8"/>
</linearGradient>
<linearGradient id="paint4_linear_76_79" x1="266.8" y1="165.07" x2="627.01" y2="165.07" gradientUnits="userSpaceOnUse">
<stop stop-color="#9E38FF"/>
<stop offset="0.06" stop-color="#9538FF"/>
<stop offset="0.33" stop-color="#7438FF"/>
<stop offset="0.58" stop-color="#5C38FF"/>
<stop offset="0.81" stop-color="#4D38FF"/>
<stop offset="1" stop-color="#4838FF"/>
</linearGradient>
<linearGradient id="paint5_linear_76_79" x1="61018" y1="33718" x2="192838" y2="33718" gradientUnits="userSpaceOnUse">
<stop stop-color="#8A5EFF" stop-opacity="0.44"/>
<stop offset="1" stop-color="#EC5076"/>
</linearGradient>
<linearGradient id="paint6_linear_76_79" x1="24618.7" y1="5834.12" x2="43846.7" y2="5834.12" gradientUnits="userSpaceOnUse">
<stop stop-color="#8A5EFF" stop-opacity="0.44"/>
<stop offset="1" stop-color="#EC5076"/>
</linearGradient>
<linearGradient id="paint7_linear_76_79" x1="27211.1" y1="6307.45" x2="51028.8" y2="6307.45" gradientUnits="userSpaceOnUse">
<stop stop-color="#8A5EFF" stop-opacity="0.44"/>
<stop offset="1" stop-color="#EC5076"/>
</linearGradient>
<linearGradient id="paint8_linear_76_79" x1="61086.1" y1="31964.8" x2="192300" y2="31964.8" gradientUnits="userSpaceOnUse">
<stop stop-color="#8A5EFF" stop-opacity="0.44"/>
<stop offset="1" stop-color="#EC5076"/>
</linearGradient>
<linearGradient id="paint9_linear_76_79" x1="243.191" y1="104.53" x2="216.431" y2="159.71" gradientUnits="userSpaceOnUse">
<stop stop-color="#6751B7"/>
<stop offset="1" stop-color="#473CAA"/>
</linearGradient>
<linearGradient id="paint10_linear_76_79" x1="239.051" y1="106.67" x2="215.931" y2="154.37" gradientUnits="userSpaceOnUse">
<stop stop-color="#47359E"/>
<stop offset="1" stop-color="#352489"/>
</linearGradient>
<linearGradient id="paint11_linear_76_79" x1="213.59" y1="158.77" x2="230.39" y2="128.03" gradientUnits="userSpaceOnUse">
<stop stop-color="#000C4F"/>
<stop offset="1" stop-color="#876CD1"/>
</linearGradient>
<linearGradient id="paint12_linear_76_79" x1="255.64" y1="128.69" x2="247.72" y2="151.81" gradientUnits="userSpaceOnUse">
<stop stop-color="#58C0D6"/>
<stop offset="1" stop-color="#CEF8F2"/>
</linearGradient>
<linearGradient id="paint13_linear_76_79" x1="8553.05" y1="3204.83" x2="7444.25" y2="4840.19" gradientUnits="userSpaceOnUse">
<stop stop-color="#58C0D6"/>
<stop offset="1" stop-color="#CEF8F2"/>
</linearGradient>
<linearGradient id="paint14_linear_76_79" x1="2190.1" y1="193.035" x2="2189.24" y2="204.928" gradientUnits="userSpaceOnUse">
<stop stop-color="#58C0D6"/>
<stop offset="1" stop-color="#CEF8F2"/>
</linearGradient>
<linearGradient id="paint15_linear_76_79" x1="118217" y1="43795.9" x2="118717" y2="72599.4" gradientUnits="userSpaceOnUse">
<stop stop-color="#9E38FF"/>
<stop offset="0.06" stop-color="#9538FF"/>
<stop offset="0.33" stop-color="#7438FF"/>
<stop offset="0.58" stop-color="#5C38FF"/>
<stop offset="0.81" stop-color="#4D38FF"/>
<stop offset="1" stop-color="#4838FF"/>
</linearGradient>
<linearGradient id="paint16_linear_76_79" x1="702.172" y1="455.231" x2="702.173" y2="455.249" gradientUnits="userSpaceOnUse">
<stop stop-color="#9E38FF"/>
<stop offset="0.06" stop-color="#9538FF"/>
<stop offset="0.33" stop-color="#7438FF"/>
<stop offset="0.58" stop-color="#5C38FF"/>
<stop offset="0.81" stop-color="#4D38FF"/>
<stop offset="1" stop-color="#4838FF"/>
</linearGradient>
<linearGradient id="paint17_linear_76_79" x1="562.46" y1="355.89" x2="300.69" y2="482.27" gradientUnits="userSpaceOnUse">
<stop stop-color="#000C4F"/>
<stop offset="0.03" stop-color="#2E386F" stop-opacity="0.9"/>
<stop offset="0.07" stop-color="#6E759B" stop-opacity="0.76"/>
<stop offset="0.13" stop-color="#A4A8C0" stop-opacity="0.64"/>
<stop offset="0.19" stop-color="#CDCFDC" stop-opacity="0.55"/>
<stop offset="0.26" stop-color="#EAEBF0" stop-opacity="0.49"/>
<stop offset="0.35" stop-color="#FAFAFC" stop-opacity="0.45"/>
<stop offset="0.56" stop-color="white" stop-opacity="0.44"/>
</linearGradient>
<linearGradient id="paint18_linear_76_79" x1="340.25" y1="435.57" x2="343.86" y2="515.6" gradientUnits="userSpaceOnUse">
<stop stop-color="#000C4F"/>
<stop offset="1" stop-color="#000C4F" stop-opacity="0"/>
</linearGradient>
<linearGradient id="paint19_linear_76_79" x1="428.25" y1="411.38" x2="405.79" y2="217.15" gradientUnits="userSpaceOnUse">
<stop offset="0.07" stop-color="white" stop-opacity="0.44"/>
<stop offset="0.1" stop-color="#E4DCFF" stop-opacity="0.37"/>
<stop offset="0.14" stop-color="#C2AFFF" stop-opacity="0.27"/>
<stop offset="0.18" stop-color="#A68BFF" stop-opacity="0.19"/>
<stop offset="0.23" stop-color="#9372FF" stop-opacity="0.14"/>
<stop offset="0.28" stop-color="#8863FF" stop-opacity="0.11"/>
<stop offset="0.35" stop-color="#845EFF" stop-opacity="0.1"/>
</linearGradient>
<linearGradient id="paint20_linear_76_79" x1="19078.1" y1="9722.18" x2="21521.3" y2="9722.18" gradientUnits="userSpaceOnUse">
<stop stop-color="#58C0D6"/>
<stop offset="1" stop-color="#CEF8F2"/>
</linearGradient>
<linearGradient id="paint21_linear_76_79" x1="473.08" y1="304.76" x2="544.42" y2="304.76" gradientUnits="userSpaceOnUse">
<stop stop-color="#36B5C6"/>
<stop offset="0.14" stop-color="#38B6C7"/>
<stop offset="0.19" stop-color="#3FB8CA"/>
<stop offset="0.23" stop-color="#4ABCD0"/>
<stop offset="0.25" stop-color="#58C0D6"/>
<stop offset="0.58" stop-color="#5AC1D6"/>
<stop offset="0.69" stop-color="#61C4D8"/>
<stop offset="0.78" stop-color="#6CCADB"/>
<stop offset="0.85" stop-color="#7DD2DF"/>
<stop offset="0.9" stop-color="#93DCE4"/>
<stop offset="0.95" stop-color="#AEE9EA"/>
<stop offset="1" stop-color="#CEF8F2"/>
</linearGradient>
<linearGradient id="paint22_linear_76_79" x1="482.53" y1="303.5" x2="472.89" y2="302.43" gradientUnits="userSpaceOnUse">
<stop stop-color="#36B5C6"/>
<stop offset="0.14" stop-color="#38B6C7"/>
<stop offset="0.19" stop-color="#3FB8CA"/>
<stop offset="0.23" stop-color="#4ABCD0"/>
<stop offset="0.25" stop-color="#58C0D6"/>
<stop offset="0.29" stop-color="#63C5D9"/>
<stop offset="0.44" stop-color="#89D7E2"/>
<stop offset="0.58" stop-color="#A7E6E9"/>
<stop offset="0.73" stop-color="#BDF0EE"/>
<stop offset="0.87" stop-color="#CAF6F1"/>
<stop offset="1" stop-color="#CEF8F2"/>
</linearGradient>
<linearGradient id="paint23_linear_76_79" x1="554.86" y1="408.5" x2="515.53" y2="581.56" gradientUnits="userSpaceOnUse">
<stop stop-color="#250B71"/>
<stop offset="0.13" stop-color="#230B6A"/>
<stop offset="0.32" stop-color="#1C0B55"/>
<stop offset="0.55" stop-color="#120B35"/>
<stop offset="0.73" stop-color="#080B16"/>
</linearGradient>
</defs>
</svg>
