<svg width="58" height="58" viewBox="0 0 58 58" fill="none" xmlns="http://www.w3.org/2000/svg">
<path d="M19.58 21.2201L26.31 14.7101C26.4296 14.5954 26.5789 14.5164 26.7409 14.482C26.903 14.4475 27.0715 14.459 27.2274 14.5151C27.3833 14.5713 27.5204 14.6698 27.6234 14.7996C27.7263 14.9295 27.7909 15.0855 27.81 15.2501L28.87 24.5501C28.8891 24.6925 28.9417 24.8283 29.0233 24.9465C29.105 25.0647 29.2135 25.1619 29.34 25.2301L37.6 29.6301C37.7456 29.7071 37.8666 29.8235 37.9493 29.9659C38.032 30.1083 38.0731 30.2711 38.0679 30.4357C38.0627 30.6003 38.0114 30.7601 37.9198 30.897C37.8283 31.0339 37.7001 31.1424 37.55 31.2101L29 35.1001C28.8678 35.1577 28.752 35.2472 28.6629 35.3607C28.5739 35.4741 28.5145 35.6079 28.49 35.7501L26.91 45.0001C26.8819 45.1627 26.8086 45.3141 26.6985 45.437C26.5885 45.5599 26.4461 45.6495 26.2876 45.6953C26.1291 45.7412 25.9609 45.7416 25.8022 45.6965C25.6435 45.6513 25.5006 45.5625 25.39 45.4401L19.06 38.5401C18.961 38.4361 18.8385 38.3574 18.7028 38.3104C18.5671 38.2634 18.4221 38.2496 18.28 38.2701L9.00001 39.5401C8.83649 39.564 8.66954 39.5414 8.51826 39.4749C8.36698 39.4084 8.23749 39.3006 8.14462 39.1639C8.05175 39.0272 7.99925 38.8671 7.99313 38.702C7.98701 38.5368 8.02751 38.3733 8.11001 38.2301L12.71 30.0801C12.7766 29.9519 12.8114 29.8095 12.8114 29.6651C12.8114 29.5206 12.7766 29.3783 12.71 29.2501L8.64001 20.8401C8.56558 20.6889 8.5356 20.5197 8.55354 20.3522C8.57148 20.1847 8.63661 20.0257 8.74135 19.8937C8.8461 19.7617 8.98615 19.6622 9.14524 19.6067C9.30432 19.5511 9.47589 19.5419 9.64001 19.5801L18.82 21.4501C18.9558 21.4709 19.0946 21.4611 19.2261 21.4213C19.3576 21.3815 19.4785 21.3127 19.58 21.2201V21.2201Z" fill="#9E38FF"/>
<path d="M19.58 21.2201L26.31 14.7101C26.4296 14.5954 26.5789 14.5164 26.7409 14.482C26.903 14.4475 27.0715 14.459 27.2274 14.5151C27.3833 14.5713 27.5204 14.6698 27.6234 14.7996C27.7263 14.9295 27.7909 15.0855 27.81 15.2501L28.87 24.5501C28.8891 24.6925 28.9417 24.8283 29.0233 24.9465C29.105 25.0647 29.2135 25.1619 29.34 25.2301L37.6 29.6301C37.7456 29.7071 37.8666 29.8235 37.9493 29.9659C38.032 30.1083 38.0731 30.2711 38.0679 30.4357C38.0627 30.6003 38.0114 30.7601 37.9198 30.897C37.8283 31.0339 37.7001 31.1424 37.55 31.2101L29 35.1001C28.8678 35.1577 28.752 35.2472 28.6629 35.3607C28.5739 35.4741 28.5145 35.6079 28.49 35.7501L26.91 45.0001C26.8819 45.1627 26.8086 45.3141 26.6985 45.437C26.5885 45.5599 26.4461 45.6495 26.2876 45.6953C26.1291 45.7412 25.9609 45.7416 25.8022 45.6965C25.6435 45.6513 25.5006 45.5625 25.39 45.4401L19.06 38.5401C18.961 38.4361 18.8385 38.3574 18.7028 38.3104C18.5671 38.2634 18.4221 38.2496 18.28 38.2701L9.00001 39.5401C8.83649 39.564 8.66954 39.5414 8.51826 39.4749C8.36698 39.4084 8.23749 39.3006 8.14462 39.1639C8.05175 39.0272 7.99925 38.8671 7.99313 38.702C7.98701 38.5368 8.02751 38.3733 8.11001 38.2301L12.71 30.0801C12.7766 29.9519 12.8114 29.8095 12.8114 29.6651C12.8114 29.5206 12.7766 29.3783 12.71 29.2501L8.64001 20.8401C8.56558 20.6889 8.5356 20.5197 8.55354 20.3522C8.57148 20.1847 8.63661 20.0257 8.74135 19.8937C8.8461 19.7617 8.98615 19.6622 9.14524 19.6067C9.30432 19.5511 9.47589 19.5419 9.64001 19.5801L18.82 21.4501C18.9558 21.4709 19.0946 21.4611 19.2261 21.4213C19.3576 21.3815 19.4785 21.3127 19.58 21.2201V21.2201Z" fill="url(#paint0_linear_2_698)"/>
<path d="M42.89 17.54C42.89 17.8053 42.7847 18.0596 42.5971 18.2472C42.4096 18.4347 42.1552 18.54 41.89 18.54H39.43V21.28C39.43 21.5453 39.3247 21.7996 39.1371 21.9872C38.9496 22.1747 38.6952 22.28 38.43 22.28C38.1648 22.28 37.9104 22.1747 37.7229 21.9872C37.5354 21.7996 37.43 21.5453 37.43 21.28V18.52H35C34.8536 18.5534 34.7015 18.5534 34.555 18.5199C34.4086 18.4865 34.2716 18.4204 34.1542 18.3268C34.0368 18.2331 33.942 18.1142 33.8768 17.9789C33.8116 17.8435 33.7778 17.6953 33.7778 17.545C33.7778 17.3948 33.8116 17.2466 33.8768 17.1112C33.942 16.9759 34.0368 16.857 34.1542 16.7633C34.2716 16.6696 34.4086 16.6036 34.555 16.5702C34.7015 16.5367 34.8536 16.5367 35 16.57H37.42V13.3C37.42 13.0348 37.5254 12.7805 37.7129 12.5929C37.9004 12.4054 38.1548 12.3 38.42 12.3C38.6852 12.3 38.9396 12.4054 39.1271 12.5929C39.3146 12.7805 39.42 13.0348 39.42 13.3V16.57H41.91C42.1666 16.5751 42.4115 16.6786 42.5939 16.8591C42.7763 17.0397 42.8824 17.2835 42.89 17.54V17.54Z" fill="url(#paint1_linear_2_698)"/>
<path d="M33.52 44.4801V39.4801C32.9889 39.9907 32.3395 40.3617 31.63 40.5601C31.552 40.5599 31.4749 40.5428 31.4042 40.51C31.3334 40.4772 31.2706 40.4295 31.22 40.3701C31.1505 40.3132 31.0946 40.2414 31.0566 40.1601C31.0185 40.0787 30.9991 39.9899 31 39.9001C30.9935 39.8222 31.0066 39.7439 31.038 39.6723C31.0695 39.6007 31.1183 39.5381 31.18 39.4901C31.3733 39.3511 31.5812 39.2338 31.8 39.1401C32.1845 38.9689 32.5444 38.7469 32.87 38.4801C33.1401 38.2526 33.3788 37.9903 33.58 37.7001C33.7034 37.5136 33.8405 37.3364 33.99 37.1701C34.0385 37.1305 34.0945 37.1012 34.1547 37.084C34.2149 37.0668 34.2779 37.0621 34.34 37.0701C34.4303 37.0661 34.5202 37.084 34.602 37.1223C34.6839 37.1607 34.7552 37.2182 34.81 37.2901C34.939 37.4739 35.0024 37.6958 34.99 37.9201V44.2601C34.99 45.0001 34.74 45.3701 34.23 45.3701C34.1285 45.3745 34.0273 45.3561 33.9339 45.3163C33.8405 45.2765 33.7571 45.2163 33.69 45.1401C33.5519 44.9495 33.4911 44.7137 33.52 44.4801Z" fill="url(#paint2_linear_2_698)"/>
<path d="M43.26 41.2501C43.2699 41.7723 43.233 42.2944 43.15 42.8101C43.0849 43.2279 42.9461 43.6308 42.74 44.0001C42.4988 44.4143 42.1542 44.7589 41.74 45.0001C41.3357 45.2331 40.8766 45.3539 40.41 45.3501C39.8699 45.3554 39.3417 45.191 38.9 44.8801C38.4429 44.5492 38.0948 44.0897 37.9 43.5601C37.7795 43.2365 37.6924 42.9014 37.64 42.5601C37.5866 42.1623 37.5599 41.7614 37.56 41.3601C37.5567 40.8553 37.5868 40.3509 37.65 39.8501C37.7163 39.45 37.834 39.0601 38 38.6901C38.184 38.1983 38.5159 37.7755 38.95 37.4801C39.3891 37.1928 39.9054 37.0463 40.43 37.0601C40.7714 37.0601 41.11 37.1211 41.43 37.2401C41.7345 37.3677 42.0125 37.5508 42.25 37.7801C42.495 38.0417 42.6944 38.3426 42.84 38.6701C43.1574 39.4917 43.3004 40.3703 43.26 41.2501V41.2501ZM41.75 41.1401C41.7564 40.584 41.7129 40.0284 41.62 39.4801C41.5808 39.1146 41.4386 38.7679 41.21 38.4801C41.111 38.37 40.9887 38.2833 40.8521 38.2263C40.7155 38.1692 40.5679 38.1432 40.42 38.1501C40.1942 38.1424 39.9725 38.2113 39.7909 38.3457C39.6093 38.48 39.4786 38.6719 39.42 38.8901C39.1972 39.6251 39.1025 40.393 39.14 41.1601C39.1308 41.7292 39.1709 42.298 39.26 42.8601C39.3114 43.2223 39.4523 43.566 39.67 43.8601C39.767 43.9706 39.8872 44.0584 40.022 44.1172C40.1569 44.176 40.303 44.2043 40.45 44.2001C40.6003 44.2033 40.7493 44.1726 40.8861 44.1103C41.0229 44.048 41.1438 43.9556 41.24 43.8401C41.4616 43.5482 41.6029 43.2035 41.65 42.8401C41.7313 42.2773 41.7648 41.7086 41.75 41.1401V41.1401Z" fill="url(#paint3_linear_2_698)"/>
<path d="M50 41.2501C50.0048 41.7722 49.968 42.2939 49.89 42.8101C49.8249 43.2279 49.6861 43.6308 49.48 44.0001C49.236 44.4122 48.8921 44.7561 48.48 45.0001C48.0754 45.2322 47.6165 45.353 47.15 45.3501C46.6099 45.3554 46.0817 45.191 45.64 44.8801C45.1867 44.5454 44.8395 44.0871 44.64 43.5601C44.523 43.2361 44.4392 42.9011 44.39 42.5601C44.3366 42.1623 44.3099 41.7614 44.31 41.3601C44.3067 40.8553 44.3368 40.3509 44.4 39.8501C44.4447 39.4565 44.5388 39.0702 44.68 38.7001C44.8604 38.2063 45.1931 37.7825 45.63 37.4901C46.0691 37.2029 46.5854 37.0563 47.11 37.0701C47.4514 37.0701 47.79 37.1311 48.11 37.2501C48.4128 37.3753 48.688 37.5588 48.92 37.7901C49.1719 38.0483 49.3751 38.3498 49.52 38.6801C49.8565 39.4942 50.02 40.3694 50 41.2501ZM48.48 41.1401C48.4891 40.5843 48.4489 40.0288 48.36 39.4801C48.3177 39.1155 48.1758 38.7695 47.95 38.4801C47.8499 38.3687 47.726 38.2812 47.5875 38.2241C47.4491 38.167 47.2995 38.1417 47.15 38.1501C46.9242 38.1424 46.7025 38.2113 46.5209 38.3457C46.3393 38.48 46.2086 38.6719 46.15 38.8901C45.9231 39.6244 45.825 40.3924 45.86 41.1601C45.8484 41.7296 45.8919 42.299 45.99 42.8601C46.0384 43.2214 46.1759 43.5651 46.39 43.8601C46.4881 43.972 46.6099 44.0606 46.7466 44.1194C46.8832 44.1782 47.0313 44.2058 47.18 44.2001C47.3303 44.2033 47.4793 44.1726 47.6161 44.1103C47.7529 44.048 47.8738 43.9556 47.97 43.8401C48.1877 43.546 48.3286 43.2023 48.38 42.8401C48.4557 42.2767 48.4892 41.7085 48.48 41.1401Z" fill="url(#paint4_linear_2_698)"/>
<defs>
<linearGradient id="paint0_linear_2_698" x1="8.00001" y1="30.0801" x2="38.07" y2="30.0801" gradientUnits="userSpaceOnUse">
<stop stop-color="#8A5EFF" stop-opacity="0.44"/>
<stop offset="1" stop-color="#EC5076"/>
</linearGradient>
<linearGradient id="paint1_linear_2_698" x1="34.02" y1="17.28" x2="42.89" y2="17.28" gradientUnits="userSpaceOnUse">
<stop stop-color="#5C38FF"/>
<stop offset="0.81" stop-color="#4D38FF"/>
<stop offset="1" stop-color="#4838FF"/>
</linearGradient>
<linearGradient id="paint2_linear_2_698" x1="31.04" y1="41.2201" x2="35.03" y2="41.2201" gradientUnits="userSpaceOnUse">
<stop stop-color="#4D38FF"/>
<stop offset="1" stop-color="#4838FF"/>
</linearGradient>
<linearGradient id="paint3_linear_2_698" x1="38.74" y1="39.8101" x2="43.12" y2="43.4201" gradientUnits="userSpaceOnUse">
<stop offset="0.19" stop-color="#4D38FF"/>
<stop offset="1" stop-color="#4838FF"/>
</linearGradient>
<linearGradient id="paint4_linear_2_698" x1="296.631" y1="378.33" x2="328.904" y2="378.33" gradientUnits="userSpaceOnUse">
<stop stop-color="#5C38FF"/>
<stop offset="0.81" stop-color="#4D38FF"/>
<stop offset="1" stop-color="#4838FF"/>
</linearGradient>
</defs>
</svg>
