<svg width="58" height="58" viewBox="0 0 58 58" fill="none" xmlns="http://www.w3.org/2000/svg">
<path d="M40.6 28.79C38.47 30.91 31.5 31.79 31.5 25.19V24.55C31.5005 24.1345 31.4115 23.7238 31.2389 23.3459C31.0663 22.968 30.8143 22.6317 30.5 22.36C28.9266 21.0693 27.8952 19.2349 27.61 17.22C27.5896 16.9403 27.5896 16.6596 27.61 16.38C27.61 16.3057 27.5805 16.2345 27.528 16.182C27.4755 16.1295 27.4043 16.1 27.33 16.1H18.9C18.4561 16.1013 18.0169 16.19 17.6073 16.3611C17.1977 16.5322 16.8258 16.7822 16.5129 17.097C16.2 17.4118 15.9521 17.7852 15.7835 18.1957C15.6148 18.6063 15.5287 19.0461 15.53 19.49V45.4C15.5287 45.8058 15.6073 46.2078 15.7614 46.5832C15.9155 46.9586 16.142 47.3 16.428 47.5879C16.714 47.8757 17.0539 48.1044 17.4283 48.2609C17.8027 48.4174 18.2042 48.4987 18.61 48.5H35.74C37.1581 48.492 38.5152 47.9225 39.5142 46.916C40.5132 45.9095 41.0727 44.5481 41.07 43.13V29C41.0765 28.943 41.0647 28.8854 41.0362 28.8356C41.0078 28.7858 40.9642 28.7463 40.9119 28.7229C40.8595 28.6995 40.8011 28.6934 40.745 28.7055C40.6889 28.7175 40.6381 28.7471 40.6 28.79ZM32.33 33.62H22.33C22.07 33.39 22.09 33.1 22.33 32.78H32.33C32.4333 32.8955 32.4904 33.045 32.4904 33.2C32.4904 33.3549 32.4333 33.5045 32.33 33.62ZM32.33 31.1H22.33C22.2704 31.0474 22.2227 30.9828 22.19 30.9104C22.1573 30.838 22.1404 30.7594 22.1404 30.68C22.1404 30.6005 22.1573 30.522 22.19 30.4496C22.2227 30.3772 22.2704 30.3125 22.33 30.26H32.33C32.4313 30.3764 32.4871 30.5256 32.4871 30.68C32.4871 30.8343 32.4313 30.9835 32.33 31.1Z" fill="#9E38FF"/>
<path d="M40.6 28.79C38.47 30.91 31.5 31.79 31.5 25.19V24.55C31.5005 24.1345 31.4115 23.7238 31.2389 23.3459C31.0663 22.968 30.8143 22.6317 30.5 22.36C28.9266 21.0693 27.8952 19.2349 27.61 17.22C27.5896 16.9403 27.5896 16.6596 27.61 16.38C27.61 16.3057 27.5805 16.2345 27.528 16.182C27.4755 16.1295 27.4043 16.1 27.33 16.1H18.9C18.4561 16.1013 18.0169 16.19 17.6073 16.3611C17.1977 16.5322 16.8258 16.7822 16.5129 17.097C16.2 17.4118 15.9521 17.7852 15.7835 18.1957C15.6148 18.6063 15.5287 19.0461 15.53 19.49V45.4C15.5287 45.8058 15.6073 46.2078 15.7614 46.5832C15.9155 46.9586 16.142 47.3 16.428 47.5879C16.714 47.8757 17.0539 48.1044 17.4283 48.2609C17.8027 48.4174 18.2042 48.4987 18.61 48.5H35.74C37.1581 48.492 38.5152 47.9225 39.5142 46.916C40.5132 45.9095 41.0727 44.5481 41.07 43.13V29C41.0765 28.943 41.0647 28.8854 41.0362 28.8356C41.0078 28.7858 40.9642 28.7463 40.9119 28.7229C40.8595 28.6995 40.8011 28.6934 40.745 28.7055C40.6889 28.7175 40.6381 28.7471 40.6 28.79ZM32.33 33.62H22.33C22.07 33.39 22.09 33.1 22.33 32.78H32.33C32.4333 32.8955 32.4904 33.045 32.4904 33.2C32.4904 33.3549 32.4333 33.5045 32.33 33.62ZM32.33 31.1H22.33C22.2704 31.0474 22.2227 30.9828 22.19 30.9104C22.1573 30.838 22.1404 30.7594 22.1404 30.68C22.1404 30.6005 22.1573 30.522 22.19 30.4496C22.2227 30.3772 22.2704 30.3125 22.33 30.26H32.33C32.4313 30.3764 32.4871 30.5256 32.4871 30.68C32.4871 30.8343 32.4313 30.9835 32.33 31.1Z" fill="url(#paint0_linear_2_875)"/>
<path d="M35.88 22.24C39.5196 22.24 42.47 19.3881 42.47 15.87C42.47 12.3519 39.5196 9.5 35.88 9.5C32.2405 9.5 29.29 12.3519 29.29 15.87C29.29 19.3881 32.2405 22.24 35.88 22.24Z" fill="#9E38FF"/>
<path d="M39.17 22.87H33.13V25H39.17V22.87Z" fill="#9E38FF"/>
<path d="M39.17 26.11C39.17 26.9056 38.8539 27.6687 38.2913 28.2313C37.7287 28.7939 36.9657 29.11 36.17 29.11C35.3744 29.11 34.6113 28.7939 34.0487 28.2313C33.4861 27.6687 33.17 26.9056 33.17 26.11C33.1647 26.02 33.1647 25.9299 33.17 25.84H39.17C39.1752 25.9299 39.1752 26.02 39.17 26.11Z" fill="#9E38FF"/>
<path d="M35.88 22.24C39.5196 22.24 42.47 19.3881 42.47 15.87C42.47 12.3519 39.5196 9.5 35.88 9.5C32.2405 9.5 29.29 12.3519 29.29 15.87C29.29 19.3881 32.2405 22.24 35.88 22.24Z" fill="url(#paint1_linear_2_875)"/>
<path d="M39.17 22.87H33.13V25H39.17V22.87Z" fill="url(#paint2_linear_2_875)"/>
<path d="M39.17 26.11C39.17 26.9056 38.8539 27.6687 38.2913 28.2313C37.7287 28.7939 36.9657 29.11 36.17 29.11C35.3744 29.11 34.6113 28.7939 34.0487 28.2313C33.4861 27.6687 33.17 26.9056 33.17 26.11C33.1647 26.02 33.1647 25.9299 33.17 25.84H39.17C39.1752 25.9299 39.1752 26.02 39.17 26.11Z" fill="url(#paint3_linear_2_875)"/>
<path d="M27.62 17.22H19C18.2983 17.2974 17.6512 17.6351 17.1865 18.1665C16.7218 18.6979 16.4732 19.3843 16.49 20.09V47.64C16.182 47.3525 15.9348 47.0061 15.763 46.6213C15.5912 46.2366 15.4984 45.8213 15.49 45.4V19.49C15.4887 19.0427 15.5761 18.5997 15.7472 18.1865C15.9184 17.7733 16.1698 17.3981 16.487 17.0828C16.8042 16.7675 17.1808 16.5183 17.595 16.3496C18.0092 16.1808 18.4528 16.096 18.9 16.1H27.3C27.3368 16.1 27.3732 16.1072 27.4072 16.1213C27.4411 16.1354 27.472 16.156 27.498 16.182C27.524 16.208 27.5446 16.2389 27.5587 16.2728C27.5728 16.3068 27.58 16.3432 27.58 16.38C27.5729 16.6606 27.5863 16.9413 27.62 17.22Z" fill="url(#paint4_linear_2_875)"/>
<path d="M22 30.5H32.5" stroke="white" stroke-linecap="round"/>
<path d="M22 33H32.5" stroke="white" stroke-linecap="round"/>
<defs>
<linearGradient id="paint0_linear_2_875" x1="15.53" y1="32.3" x2="41.07" y2="32.3" gradientUnits="userSpaceOnUse">
<stop offset="0.12" stop-color="#4D38FF"/>
<stop offset="1" stop-color="#4838FF"/>
</linearGradient>
<linearGradient id="paint1_linear_2_875" x1="29.29" y1="15.87" x2="42.47" y2="15.87" gradientUnits="userSpaceOnUse">
<stop stop-color="#8A5EFF" stop-opacity="0.44"/>
<stop offset="1" stop-color="#EC5076"/>
</linearGradient>
<linearGradient id="paint2_linear_2_875" x1="233.235" y1="73.8622" x2="269.717" y2="73.8622" gradientUnits="userSpaceOnUse">
<stop stop-color="#8A5EFF" stop-opacity="0.44"/>
<stop offset="1" stop-color="#EC5076"/>
</linearGradient>
<linearGradient id="paint3_linear_2_875" x1="232.207" y1="115.307" x2="268.495" y2="115.307" gradientUnits="userSpaceOnUse">
<stop stop-color="#8A5EFF" stop-opacity="0.44"/>
<stop offset="1" stop-color="#EC5076"/>
</linearGradient>
<linearGradient id="paint4_linear_2_875" x1="11.35" y1="31.9" x2="58.25" y2="31.71" gradientUnits="userSpaceOnUse">
<stop stop-color="#8A5EFF" stop-opacity="0.44"/>
<stop offset="0.02" stop-color="#905DF6" stop-opacity="0.48"/>
<stop offset="0.1" stop-color="#A95AD4" stop-opacity="0.61"/>
<stop offset="0.18" stop-color="#BD57B7" stop-opacity="0.73"/>
<stop offset="0.26" stop-color="#CE54A0" stop-opacity="0.83"/>
<stop offset="0.35" stop-color="#DB528D" stop-opacity="0.91"/>
<stop offset="0.44" stop-color="#E55180" stop-opacity="0.96"/>
<stop offset="0.54" stop-color="#EA5078" stop-opacity="0.99"/>
<stop offset="0.68" stop-color="#EC5076"/>
</linearGradient>
</defs>
</svg>
