<svg width="307" height="102" viewBox="0 0 307 102" fill="none" xmlns="http://www.w3.org/2000/svg">
<path d="M286.49 0H20.14C9.01698 0 0 9.017 0 20.14V81.7C0 92.823 9.01698 101.84 20.14 101.84H286.49C297.613 101.84 306.63 92.823 306.63 81.7V20.14C306.63 9.017 297.613 0 286.49 0Z" fill="url(#paint0_linear_2_679)" fill-opacity="0.8"/>
<path d="M286.49 0.560059H20.14C9.32626 0.560059 0.559998 9.32634 0.559998 20.1401V81.7001C0.559998 92.5138 9.32626 101.28 20.14 101.28H286.49C297.304 101.28 306.07 92.5138 306.07 81.7001V20.1401C306.07 9.32634 297.304 0.560059 286.49 0.560059Z" stroke="url(#paint1_linear_2_679)" stroke-opacity="0.2" stroke-width="1.12"/>
<path d="M44.63 35.59H33.35V63.79H55.91V58.15H44.63V35.59ZM59.95 35.59V63.79H85.33V58.15H74.05V52.47H79.69V46.87H74.05V41.23H85.33V35.59H59.95ZM106.3 35.59V49.69H100.66V35.59H89.41V52.47H92.23V58.11H97.87V63.75H109.15V58.11H114.79V52.47H117.61V35.59H106.3ZM121.6 35.59V63.79H146.98V58.15H135.7V52.47H141.34V46.87H135.7V41.23H146.98V35.59H121.6ZM162.31 35.59H151.03V63.79H173.59V58.15H162.31V35.59ZM213.74 35.59V55.33H208.1V35.59H196.82V60.97H202.46V63.79H219.41V60.97H225.06V35.59H213.74ZM254.43 35.59H229.05V63.79H240.33V55.33H254.41V52.47H260.05V38.37H254.41L254.43 35.59ZM248.79 48.28H240.33V42.64H248.79V48.28ZM273.97 53.92H264.1V63.79H273.97V53.92ZM273.97 32.77H264.1V51.1H273.97V32.77Z" fill="#9E38FF"/>
<defs>
<linearGradient id="paint0_linear_2_679" x1="9113.04" y1="15741.4" x2="2511.16" y2="-14021.7" gradientUnits="userSpaceOnUse">
<stop stop-color="#24324F"/>
<stop offset="1" stop-color="#0C1424"/>
</linearGradient>
<linearGradient id="paint1_linear_2_679" x1="-39132.2" y1="-7379.19" x2="-31439" y2="25297" gradientUnits="userSpaceOnUse">
<stop stop-color="#8397CA"/>
<stop offset="1" stop-color="white"/>
</linearGradient>
</defs>
</svg>
