<svg width="606" height="522" viewBox="0 0 606 522" fill="none" xmlns="http://www.w3.org/2000/svg">
<g filter="url(#filter0_f_60_78)">
<path d="M119.7 329.297C99.15 315.067 79.7 300.517 65.7 287.547C61.1853 283.441 56.9429 279.045 53 274.387C53.8412 274.095 54.7304 273.966 55.62 274.007C55.62 274.007 107.03 319.387 113.08 323.107C115.75 324.611 118.021 326.734 119.7 329.297V329.297Z" fill="#EC5076"/>
</g>
<path d="M557.75 37.6098V211.13C557.75 238.744 535.364 261.13 507.75 261.13H84.4898C56.8756 261.13 34.4898 238.744 34.4898 211.13V37.6098C34.4885 32.6717 35.4602 27.7818 37.3493 23.2193C39.2384 18.6569 42.0079 14.5114 45.4997 11.0196C48.9914 7.52788 53.1369 4.75833 57.6994 2.86922C62.2618 0.980109 67.1517 0.00845311 72.0898 0.00976696H520.16C525.097 0.00976678 529.986 0.982391 534.547 2.87209C539.108 4.76179 543.253 7.53154 546.743 11.0232C550.234 14.5148 553.003 18.6598 554.891 23.2216C556.78 27.7834 557.751 32.6725 557.75 37.6098Z" fill="url(#paint0_linear_60_78)"/>
<path d="M0.589999 235.932H0.82C0.82 235.932 3.57 199.272 29.46 192.962C55.35 186.652 67.77 233.582 83.56 238.642C99.35 243.702 125.03 170.862 148.39 180.962C171.75 191.062 229.22 209.382 250.11 212.532C271 215.682 263.37 190.432 279.79 194.222C296.21 198.012 316.42 213.802 361.25 212.532C406.08 211.262 524.11 211.932 524.11 211.932L523.969 228.635C523.737 256.083 501.42 278.212 473.971 278.212H42.2842C19.0273 278.212 0.265492 259.187 0.589999 235.932V235.932Z" fill="url(#paint1_linear_60_78)"/>
<path opacity="0.22" d="M67.9698 78.2397C69.3671 78.2397 70.4998 77.107 70.4998 75.7097C70.4998 74.3124 69.3671 73.1797 67.9698 73.1797C66.5725 73.1797 65.4398 74.3124 65.4398 75.7097C65.4398 77.107 66.5725 78.2397 67.9698 78.2397Z" fill="white"/>
<path opacity="0.22" d="M104.81 156.13C106.207 156.13 107.34 154.997 107.34 153.6C107.34 152.203 106.207 151.07 104.81 151.07C103.413 151.07 102.28 152.203 102.28 153.6C102.28 154.997 103.413 156.13 104.81 156.13Z" fill="white"/>
<path opacity="0.61" d="M104.92 154.44C105.329 154.44 105.66 154.109 105.66 153.7C105.66 153.291 105.329 152.96 104.92 152.96C104.511 152.96 104.18 153.291 104.18 153.7C104.18 154.109 104.511 154.44 104.92 154.44Z" fill="white"/>
<path opacity="0.61" d="M269.94 210.01C270.348 210.01 270.68 209.678 270.68 209.27C270.68 208.861 270.348 208.53 269.94 208.53C269.531 208.53 269.2 208.861 269.2 209.27C269.2 209.678 269.531 210.01 269.94 210.01Z" fill="white"/>
<path opacity="0.61" d="M93.1298 15.0899C93.5385 15.0899 93.8698 14.7586 93.8698 14.3499C93.8698 13.9412 93.5385 13.6099 93.1298 13.6099C92.7211 13.6099 92.3898 13.9412 92.3898 14.3499C92.3898 14.7586 92.7211 15.0899 93.1298 15.0899Z" fill="white"/>
<path opacity="0.61" d="M277 13.6196C277.409 13.6196 277.74 13.2883 277.74 12.8796C277.74 12.471 277.409 12.1396 277 12.1396C276.591 12.1396 276.26 12.471 276.26 12.8796C276.26 13.2883 276.591 13.6196 277 13.6196Z" fill="white"/>
<path opacity="0.22" d="M143.96 51.9296C145.357 51.9296 146.49 50.7969 146.49 49.3996C146.49 48.0024 145.357 46.8696 143.96 46.8696C142.563 46.8696 141.43 48.0024 141.43 49.3996C141.43 50.7969 142.563 51.9296 143.96 51.9296Z" fill="white"/>
<path opacity="0.22" d="M208.16 158.23C209.557 158.23 210.69 157.097 210.69 155.7C210.69 154.303 209.557 153.17 208.16 153.17C206.763 153.17 205.63 154.303 205.63 155.7C205.63 157.097 206.763 158.23 208.16 158.23Z" fill="white"/>
<path opacity="0.22" d="M277 15.52C278.397 15.52 279.53 14.3872 279.53 12.99C279.53 11.5927 278.397 10.46 277 10.46C275.603 10.46 274.47 11.5927 274.47 12.99C274.47 14.3872 275.603 15.52 277 15.52Z" fill="white"/>
<path opacity="0.22" d="M83.2398 90.6598C83.8805 90.6598 84.3998 90.1405 84.3998 89.4998C84.3998 88.8592 83.8805 88.3398 83.2398 88.3398C82.5992 88.3398 82.0798 88.8592 82.0798 89.4998C82.0798 90.1405 82.5992 90.6598 83.2398 90.6598Z" fill="white"/>
<path opacity="0.22" d="M275.84 14.0397C276.48 14.0397 277 13.5204 277 12.8797C277 12.2391 276.48 11.7197 275.84 11.7197C275.199 11.7197 274.68 12.2391 274.68 12.8797C274.68 13.5204 275.199 14.0397 275.84 14.0397Z" fill="white"/>
<path opacity="0.22" d="M241.32 59.3C241.96 59.3 242.48 58.7806 242.48 58.14C242.48 57.4993 241.96 56.98 241.32 56.98C240.679 56.98 240.16 57.4993 240.16 58.14C240.16 58.7806 240.679 59.3 241.32 59.3Z" fill="white"/>
<path opacity="0.22" d="M64.9198 165.39C65.5605 165.39 66.0798 164.87 66.0798 164.23C66.0798 163.589 65.5605 163.07 64.9198 163.07C64.2792 163.07 63.7598 163.589 63.7598 164.23C63.7598 164.87 64.2792 165.39 64.9198 165.39Z" fill="white"/>
<path opacity="0.22" d="M278.78 185.17C279.42 185.17 279.94 184.65 279.94 184.01C279.94 183.369 279.42 182.85 278.78 182.85C278.139 182.85 277.62 183.369 277.62 184.01C277.62 184.65 278.139 185.17 278.78 185.17Z" fill="white"/>
<path opacity="0.22" d="M496.65 159.91C497.29 159.91 497.81 159.39 497.81 158.75C497.81 158.109 497.29 157.59 496.65 157.59C496.009 157.59 495.49 158.109 495.49 158.75C495.49 159.39 496.009 159.91 496.65 159.91Z" fill="white"/>
<path opacity="0.22" d="M533.69 155.49C534.33 155.49 534.85 154.971 534.85 154.33C534.85 153.689 534.33 153.17 533.69 153.17C533.049 153.17 532.53 153.689 532.53 154.33C532.53 154.971 533.049 155.49 533.69 155.49Z" fill="white"/>
<path opacity="0.22" d="M536.01 177.38C536.65 177.38 537.17 176.86 537.17 176.22C537.17 175.579 536.65 175.06 536.01 175.06C535.369 175.06 534.85 175.579 534.85 176.22C534.85 176.86 535.369 177.38 536.01 177.38Z" fill="white"/>
<path opacity="0.22" d="M67.8698 76.7697C68.5105 76.7697 69.0298 76.2504 69.0298 75.6097C69.0298 74.9691 68.5105 74.4497 67.8698 74.4497C67.2292 74.4497 66.7098 74.9691 66.7098 75.6097C66.7098 76.2504 67.2292 76.7697 67.8698 76.7697Z" fill="white"/>
<path opacity="0.22" d="M144.07 50.4596C144.71 50.4596 145.23 49.9403 145.23 49.2996C145.23 48.659 144.71 48.1396 144.07 48.1396C143.429 48.1396 142.91 48.659 142.91 49.2996C142.91 49.9403 143.429 50.4596 144.07 50.4596Z" fill="white"/>
<path opacity="0.22" d="M132.07 139.07C132.71 139.07 133.23 138.551 133.23 137.91C133.23 137.269 132.71 136.75 132.07 136.75C131.429 136.75 130.91 137.269 130.91 137.91C130.91 138.551 131.429 139.07 132.07 139.07Z" fill="white"/>
<path d="M239.7 439.03C210.19 475.32 201.5 426 132.64 442.29C127.55 405.93 122.41 365.09 125.64 342.22C125.863 340.809 126.197 339.418 126.64 338.06C128.351 333.095 130.834 328.431 134 324.24C138.71 317.71 144.3 311.96 147.86 308.02L148.12 307.8C150.552 305.752 153.125 303.878 155.82 302.19L222.41 314.71L222.02 344.54L239.7 439.03Z" fill="#000C4F"/>
<path d="M191.29 391.09C191.29 391.09 188.03 364.09 174.53 351.53C161.03 338.97 128.41 338.29 128.41 338.29C127.816 338.247 127.225 338.17 126.64 338.06C128.351 333.095 130.834 328.431 134 324.24C150.41 326.87 177.24 341.02 191.75 363.12C212.23 394.35 191.29 391.09 191.29 391.09Z" fill="#000B38"/>
<path d="M190.5 444C191.01 440.48 190.36 384.57 190.36 384.57L198.73 380.28L207.5 447.5C207.5 447.5 207.5 450 207.5 450.5L190.5 444Z" fill="#000930"/>
<path d="M222.88 314.8L222.6 343.44L222.16 344.34C222.16 344.34 217.35 361.34 201.06 377.59C193.84 384.81 190.36 384.59 190.36 384.59C190.36 384.59 191.29 370.16 179.65 352.94C170 338.66 136.39 335.42 127.52 336.18C130.31 325.01 141.22 315.41 147.86 308.08C150.382 305.946 153.056 303.998 155.86 302.25L222.41 314.71L222.88 314.8Z" fill="#250B71"/>
<path d="M129.62 336.51C125.19 353.39 134.03 442.29 132.62 442.29C127.53 405.93 122.38 367.35 125.62 342.22C127.02 327.79 141.33 314.64 147.97 307.3C148.06 307.23 148.81 307.84 148.9 307.77C150.49 308.94 150.81 309.86 150.81 309.92C150.81 309.98 134.06 319.64 129.62 336.51Z" fill="#EC5076"/>
<g filter="url(#filter1_f_60_78)">
<path d="M123.01 336.216C118.58 353.096 127.42 441.996 126.01 441.996C120.92 405.636 115.77 367.056 119.01 341.926C120.41 327.496 134.72 314.346 141.36 307.006C141.45 306.936 142.2 307.546 142.29 307.476C143.88 308.646 144.2 309.566 144.2 309.626C144.2 309.686 127.45 319.346 123.01 336.216Z" fill="#EC5076"/>
</g>
<rect x="108" y="353" width="142" height="104" fill="url(#paint2_linear_60_78)"/>
<path d="M268.58 248.31C268.58 248.31 273.36 270.31 252.31 267.44C234.08 264.96 211.96 221.44 185.31 182.31C184.31 176.57 188.09 163.19 208.93 163.94C224.01 168.8 250.41 209.96 268.58 248.31Z" fill="#000C4F"/>
<path d="M232.521 220.09C228.991 253.78 222.941 314.75 222.941 314.75L222.881 314.8C221.501 315.94 218.401 317.86 211.511 319.42C204.992 320.769 198.365 321.535 191.711 321.71C176.461 322.34 162.041 320.18 147.861 306.66C147.491 286.76 140.781 259.28 131.701 228.95C110.111 223.95 103.121 199.78 116.291 180.39C125.994 175.985 135.944 172.145 146.091 168.89C160.181 164.47 173.391 162.04 186.351 161.89C193.985 161.803 201.607 162.548 209.081 164.11V164.17L209.151 164.27C209.151 164.27 209.151 164.27 209.151 164.35C211.311 167.69 234.141 204.59 232.521 220.09Z" fill="#876CD1"/>
<path d="M191.891 322.18C181.949 324.223 171.605 322.693 162.681 317.86C161.034 316.997 159.432 316.052 157.881 315.03C155.431 313.396 153.092 311.603 150.881 309.66C149.951 308.86 149.021 308.01 148.091 307.13C147.811 291.83 141.201 271.61 134.091 249.29C132.261 243.6 130.391 237.76 128.581 231.83C128.481 231.51 128.381 231.19 128.291 230.83L127.621 228.61C123.936 227.814 120.46 226.25 117.421 224.02C105.421 215.02 105.281 196.43 115.981 180.67C121.331 178.28 127.211 175.67 132.271 173.67C137.121 171.8 141.601 170.47 146.271 169.02L147.161 169.96C159.231 182.87 185.211 211.48 187.701 231.39V231.61C189.771 249.12 194.761 292.78 191.891 322.18Z" fill="#FF6490"/>
<path d="M194.681 324.97C179.681 327.97 165.021 323.44 150.841 309.92C150.471 290.02 139.391 261.76 130.311 231.43C108.721 226.43 105.511 201.01 118.671 181.63C124.021 179.24 128.511 177.06 133.571 175.11C138.411 173.24 142.431 171.44 147.071 169.99C158.701 182.39 187.801 213.81 190.361 234.23C190.356 234.3 190.356 234.37 190.361 234.44C192.571 251.92 197.561 295.57 194.681 324.97Z" fill="#250B71"/>
<path d="M233.181 223.049C230.841 250.379 224.181 298.539 222.881 314.799C221.501 315.939 218.401 317.859 211.511 319.419C214.891 294.419 229.201 249.419 226.661 226.779C226.571 225.939 226.351 224.259 226.071 222.419C225.641 219.489 225.071 216.159 224.801 215.139C218.801 194.859 205.021 172.079 197.801 163.009C199.621 163.459 199.391 162.419 205.451 163.439L205.891 163.509C206.951 163.699 208.021 163.909 209.081 164.129V164.189L209.151 164.289C209.151 164.289 209.151 164.289 209.151 164.369C211.411 167.679 235.511 202.569 233.181 223.049Z" fill="#250B71"/>
<path d="M133.571 177.439C134.571 178.439 167.271 216.069 167.571 227.709C168.031 247.259 179.671 248.649 184.791 249.589C186.191 256.589 193.631 312.429 183.861 316.589C174.091 320.749 154.561 321.339 154.081 305.939C153.601 290.539 146.151 259.339 137.311 243.939C132.801 236.099 116.831 183.429 116.831 183.429C116.831 183.429 127.981 177.439 133.571 177.439Z" fill="#000C4F"/>
<path d="M219.211 197.92L218.751 199.31L180.581 206.31C170.188 193.07 158.997 180.476 147.071 168.6V167.24L154.961 164.92C154.961 164.92 155.861 165.73 157.461 166.92C162.371 170.47 173.931 177.29 186.561 173.92C198.181 170.77 195.691 164.15 194.501 161.98C194.251 161.54 194.061 161.27 194.061 161.27H199.181C206.338 172.748 212.839 184.624 218.651 196.84L218.791 197.14C218.791 197.24 218.871 197.32 218.911 197.4L219.121 197.89L219.211 197.92Z" fill="#937CE8"/>
<path d="M219.211 197.92L218.751 199.78L180.581 206.3C170.188 193.06 158.997 180.467 147.071 168.59V167.24C158.701 177.48 170.301 191.08 181.071 204.47L181.441 204.41H181.631H181.841C186.281 203.52 208.761 199.59 219.211 197.92Z" fill="#6E57C1"/>
<path d="M154.981 164.87C154.981 164.87 155.881 165.68 157.481 166.87C156.6 166.957 155.715 167.001 154.831 167C152.249 166.843 149.659 166.917 147.091 167.22L154.981 164.87Z" fill="#BDB0FF"/>
<path d="M199.201 161.149L194.521 161.849C194.386 161.609 194.239 161.375 194.081 161.149H199.201Z" fill="#BDB0FF"/>
<path d="M149.861 303.12C149.861 303.58 166.861 314.02 176.861 313.36C187.331 312.66 181.071 256.15 181.051 256.1" stroke="#250B71" stroke-width="0.47" stroke-miterlimit="10"/>
<path d="M176.621 252.15C176.621 252.15 182.621 306.15 175.231 309.4C167.841 312.65 150.091 299.16 150.091 299.16" stroke="#250B71" stroke-width="0.47" stroke-miterlimit="10"/>
<path d="M172.411 248.89C172.411 248.89 178.471 303.81 172.881 305.68C165.601 308.1 149.611 294.97 149.611 294.97" stroke="#250B71" stroke-width="0.47" stroke-miterlimit="10"/>
<path d="M153.351 297.76L147.761 294.04" stroke="#4E2391" stroke-width="0.47" stroke-miterlimit="10"/>
<path d="M153.601 301.69L148.231 298.23" stroke="#4E2391" stroke-width="0.47" stroke-miterlimit="10"/>
<path d="M149.631 299.16L148.231 298.23" stroke="#F3B0C3" stroke-width="0.47" stroke-miterlimit="10"/>
<path d="M149.161 294.97L147.761 294.04" stroke="#F3B0C3" stroke-width="0.47" stroke-miterlimit="10"/>
<path d="M154.041 305.84L148.921 302.59" stroke="#4E2391" stroke-width="0.47" stroke-miterlimit="10"/>
<path d="M150.091 303.35L148.691 302.42" stroke="#F3B0C3" stroke-width="0.47" stroke-miterlimit="10"/>
<path d="M136.861 243.24C136.417 244.615 135.865 245.952 135.211 247.24C134.841 247.95 134.431 248.66 133.991 249.36C132.161 243.67 130.291 237.83 128.481 231.9V231.04L131.271 228.69L137.271 223.61C138.911 230.07 138.769 236.854 136.861 243.24Z" fill="#000B38"/>
<path d="M168.011 178.83L184.301 198.83L212.231 194.24L200.601 173.24C200.601 173.24 193.151 183.95 168.011 178.83Z" fill="#000C4F"/>
<path d="M219.221 197.919L218.751 199.779L180.581 206.299L181.051 204.429L181.421 204.369L181.611 204.339L181.821 204.299L219.221 197.919Z" fill="#5A48B7"/>
<path d="M177.471 197.84L215.411 191.56" stroke="#937CE8" stroke-width="0.47" stroke-miterlimit="10"/>
<path d="M175.141 195.98L213.081 189.7" stroke="#937CE8" stroke-width="0.47" stroke-miterlimit="10"/>
<path d="M174.701 193.59L210.291 187.84" stroke="#937CE8" stroke-width="0.47" stroke-miterlimit="10"/>
<path d="M173.431 191.489L207.961 185.979" stroke="#937CE8" stroke-width="0.47" stroke-miterlimit="10"/>
<path d="M169.091 189.929L207.031 183.649" stroke="#937CE8" stroke-width="0.47" stroke-miterlimit="10"/>
<path d="M167.691 187.6L205.631 181.32" stroke="#937CE8" stroke-width="0.47" stroke-miterlimit="10"/>
<path d="M166.301 185.28L204.231 178.99" stroke="#937CE8" stroke-width="0.47" stroke-miterlimit="10"/>
<path d="M165.371 183.42L203.301 177.13" stroke="#937CE8" stroke-width="0.47" stroke-miterlimit="10"/>
<path d="M163.971 181.55L201.911 175.27" stroke="#937CE8" stroke-width="0.47" stroke-miterlimit="10"/>
<path opacity="0.44" d="M181.411 204.37C194.751 190.68 200.341 176.24 199.191 161.14C206.348 172.618 212.849 184.494 218.661 196.71L218.801 197.01L218.921 197.27L219.131 197.76L219.201 197.92L181.411 204.37Z" fill="url(#paint3_linear_60_78)"/>
<path d="M153.78 167C154.91 163.004 155.624 158.902 155.91 154.76C156.66 144.63 155.15 133.84 151.91 122.99C167.13 117.99 181.18 117.14 193.04 123.99C192.92 126.3 192.8 128.5 192.69 130.61C192.53 133.74 192.39 136.61 192.32 139.38C192.27 141.38 192.25 143.38 192.32 145.19C192.349 148.205 192.606 151.214 193.09 154.19C193.593 157.316 194.56 160.35 195.96 163.19C200.66 176.57 172.91 180.39 153.78 167Z" fill="#FAE8EE"/>
<path d="M192.65 130.57C192.49 133.7 192.35 136.57 192.28 139.34C186.28 140.34 179.05 140.11 173.13 136.47C166.41 132.34 165.68 128.56 165.68 128.56C165.68 128.56 185.23 130.89 191.29 130.42C191.749 130.385 192.21 130.436 192.65 130.57V130.57Z" fill="#000C4F"/>
<path d="M193.85 171.45C187.02 177.39 168.02 176.97 153.78 167C154.91 163.004 155.624 158.902 155.91 154.76C162.14 156.63 171.91 159.06 178.72 158.35C182.199 157.998 185.619 157.208 188.9 156C190.305 155.497 191.677 154.909 193.01 154.24C193.513 157.366 194.48 160.399 195.88 163.24C196.467 164.645 196.586 166.202 196.221 167.68C195.855 169.158 195.024 170.48 193.85 171.45Z" fill="#000C4F"/>
<path d="M193.85 171.45C191.99 170.08 190.01 161.45 188.9 156C190.305 155.497 191.677 154.909 193.01 154.24C193.513 157.366 194.48 160.399 195.88 163.24C196.467 164.645 196.586 166.202 196.221 167.68C195.855 169.158 195.024 170.48 193.85 171.45Z" fill="#250B71"/>
<path opacity="0.43" d="M155.68 167.43C156.61 165.57 157.54 160.91 158 156.26L162.19 157.19C161.76 161.66 160.33 167.43 159.87 169.76C161.91 170.859 164.105 171.641 166.38 172.08L167.31 158.08" stroke="#876CD1" stroke-width="0.47" stroke-miterlimit="10" stroke-linecap="round"/>
<path d="M545 246.5C545 246.5 533.01 263.35 498.43 261.16C466.87 259.16 427.16 253.45 390.66 239.09C340.41 219.24 394.41 178.65 315.31 178.24C263 177.97 265.43 94.9 232.79 102.89C213.01 107.73 201.53 102.05 201.53 102.05C201.53 95.16 200.75 82.25 197.8 78.31C197.8 78.31 216.8 81.25 234.69 77C315.94 57.72 286.5 6.63 330.07 0H518.72C524.714 1.09003 530.605 2.68573 536.33 4.77C539.419 5.94022 542.346 7.49946 545.04 9.41C549.041 12.9354 552.244 17.2733 554.435 22.1343C556.627 26.9953 557.757 32.2678 557.75 37.6L558.01 93.6C549.8 126.43 515.7 114.43 481.01 135.48C437.54 161.83 481.77 194.87 523.31 188.32C551.18 183.92 557.79 216 557.79 216C557.49 217.36 556.5 223 555 227.5C549.5 241.5 545 246.5 545 246.5Z" fill="url(#paint4_linear_60_78)"/>
<path d="M194.03 93.23C194.03 93.23 196.46 102 213.74 101.71C226.16 101.5 236.05 96.45 245.53 100.24C259.41 105.78 275.21 148.65 287.84 162.96C304.59 181.95 328.09 170.81 348.67 178.12C364.67 183.8 368.92 199.44 371.82 217.9C374.72 236.36 405.33 238.98 452.13 250.42C500.33 262.21 556.53 255.69 556.53 255.69C564.52 254.627 581.5 252.5 589 249.5" stroke="url(#paint5_linear_60_78)" stroke-width="2.1" stroke-miterlimit="10"/>
<path d="M201.54 81.9C201.54 81.9 220.48 86.97 250.54 76.9C280.6 66.83 292.22 51.9 297.48 41.75C302.74 31.6 302.67 26.69 310.11 18.17C317.794 9.30403 328.396 3.4797 340 1.75" stroke="url(#paint6_linear_60_78)" stroke-width="2.1" stroke-miterlimit="10"/>
<path d="M200.26 87.1801C212.158 88.3072 224.15 87.9208 235.95 86.0301C254.89 82.8701 273.63 76.1301 287.1 64.3501C300.57 52.5701 303.97 35.9501 311.31 25.2401C323.52 7.35006 354.46 3.56006 354.46 3.56006" stroke="url(#paint7_linear_60_78)" stroke-width="2.1" stroke-miterlimit="10"/>
<path d="M194.03 93.2402C194.03 93.2402 198.28 95.7002 209.22 96.7602C220.16 97.8202 233.68 92.1302 246.68 96.1302C263.73 101.39 283.68 156.96 297.83 165.59C311.98 174.22 342.1 168.56 352.98 174.22C373.61 184.96 371.56 208.41 380.98 222.67C392.35 239.9 441.82 239.71 475.49 247.9C509.16 256.09 555.9 247.69 555.9 247.69C568.267 245.46 595.4 239.8 605 235" stroke="url(#paint8_linear_60_78)" stroke-width="2.1" stroke-miterlimit="10"/>
<path d="M513.971 257.87L509.351 265.79V251.6L514.301 243.01V195.8C514.751 189.14 517.511 184.28 520.741 179.8C524.447 183.96 526.657 189.24 527.021 194.8L527.351 239.04L532.961 250.6V264.6L527.681 257.24H517.611L514.801 265.66L513.971 257.87Z" fill="#080B16"/>
<path d="M189.18 136.39C175.72 139.88 144.26 129.81 137.76 109.48C130.1 85.56 151.93 65.72 165.41 62.24C178.06 58.96 192.29 71.06 198.41 89.68C198.8 90.87 199.16 92.09 199.48 93.34C200.262 96.336 200.889 99.3699 201.36 102.43C203.91 119.31 200.62 133.43 189.18 136.39Z" fill="#FAE8EE"/>
<path d="M201.33 102.43C197.96 102.36 191.25 102.31 187.56 102.96C179.65 104.36 168.48 104.82 155.56 118.6C152.23 115.06 143.85 96.9099 163.86 92.2499C176.94 89.2499 191.01 85.9799 198.42 89.6799C198.81 90.8699 199.17 92.0899 199.49 93.3399C200.258 96.3365 200.872 99.3705 201.33 102.43Z" fill="#F3B0C3"/>
<path d="M197.791 79.9499C194.004 80.0644 190.229 80.4285 186.491 81.0399C184.981 81.2699 183.321 81.5399 181.491 81.8699C170.961 83.7799 158.491 88.5599 158.491 88.5599C153.221 93.8199 162.791 101.47 157.051 115.82C154.811 121.44 151.791 114.39 148.921 113.43C146.051 112.47 151.281 120.08 154.181 125.43C154.281 125.6 154.371 125.78 154.461 125.95C154.551 126.12 154.621 126.27 154.701 126.43L155.011 127.07L155.281 127.67C155.371 127.87 155.461 128.06 155.531 128.26C155.601 128.46 155.731 128.73 155.811 128.96C155.891 129.19 155.911 129.21 155.951 129.34C156.071 129.65 156.161 129.94 156.251 130.24C156.251 130.35 156.321 130.47 156.351 130.58C156.401 130.72 156.441 130.864 156.471 131.01C156.531 131.2 156.571 131.38 156.611 131.56C156.651 131.74 156.691 131.87 156.721 132.02L156.781 132.35C156.781 132.47 156.831 132.6 156.851 132.72L156.911 133.12C157.284 135.181 157.001 137.308 156.101 139.2V139.2C155.89 139.617 155.624 140.004 155.311 140.35C155.311 140.35 151.221 138.09 144.551 131.91C143.551 130.91 142.401 129.91 141.241 128.72L140.831 128.31C132.661 119.9 133.591 113.22 133.591 100.99C133.618 99.1921 133.887 97.4061 134.391 95.6799C137.661 83.7499 149.851 69.4199 149.851 69.4199C151.994 67.0481 154.442 64.97 157.131 63.2399C162.871 59.4099 170.531 57.4999 182.961 60.3699C192.331 62.5299 195.961 72.5899 197.241 77.3699C197.641 78.9399 197.791 79.9499 197.791 79.9499Z" fill="url(#paint9_linear_60_78)"/>
<path opacity="0.46" d="M194.171 76.0399C194.171 76.0399 193.491 64.1199 180.091 61.2999C174.783 60.1953 169.289 60.3556 164.055 61.768C158.821 63.1804 153.992 65.8052 149.961 69.4299C152.07 67.062 154.48 64.9809 157.131 63.2399C162.871 59.4099 170.521 57.4999 182.961 60.3699C192.331 62.5299 195.961 72.5899 197.241 77.3699L194.171 76.0399Z" fill="#EB86A0"/>
<path opacity="0.29" d="M156.211 139.24C156.003 139.659 155.737 140.046 155.421 140.39C155.421 140.39 149.961 137.39 141.351 128.77C132.741 120.15 133.701 113.46 133.701 101.02C133.729 99.2252 133.998 97.4427 134.501 95.7197C133.032 103.138 133.92 110.831 137.041 117.72C142.771 130.14 156.201 131.14 156.211 139.24Z" fill="#876CD1"/>
<path opacity="0.26" d="M158.571 88.5597C153.301 93.8197 162.871 101.47 157.131 115.82C154.891 121.44 151.871 114.39 149.001 113.43C146.131 112.47 151.361 120.08 154.261 125.43C154.361 125.6 154.451 125.78 154.541 125.95C154.631 126.12 154.701 126.27 154.781 126.43L155.091 127.07L155.361 127.67C155.451 127.87 155.541 128.06 155.611 128.26C155.681 128.46 155.811 128.73 155.891 128.96C155.971 129.19 155.991 129.21 156.031 129.34C156.151 129.65 156.241 129.94 156.331 130.24C156.331 130.35 156.401 130.47 156.431 130.58C156.481 130.72 156.521 130.864 156.551 131.01V131.01C156.551 131.19 156.641 131.38 156.681 131.56C156.721 131.74 156.761 131.87 156.791 132.02L156.851 132.35C156.851 132.47 156.901 132.6 156.921 132.72L156.981 133.12C155.927 133.188 154.869 133.161 153.821 133.04C153.821 133.04 152.231 131.81 150.051 129.86C147.69 127.752 145.472 125.49 143.411 123.09C140.651 119.82 138.331 116.18 137.971 112.95C136.971 104.34 139.681 87.5797 149.451 75.6497C158.061 65.1197 175.281 54.6497 183.891 69.9097C185.441 72.6497 186.271 76.5397 186.461 81.0397C184.951 81.2697 183.291 81.5397 181.461 81.8697C171.001 83.7797 158.571 88.5597 158.571 88.5597Z" fill="url(#paint10_linear_60_78)"/>
<path d="M156.581 131.01C155.101 130.968 153.629 130.771 152.191 130.42C150.684 130.086 149.259 129.453 148.001 128.56L144.661 131.92C143.661 130.92 142.511 129.92 141.351 128.73L140.941 128.32C141.339 126.753 141.994 125.262 142.881 123.91C143.071 123.6 143.261 123.33 143.441 123.09C147.141 118.14 148.721 124.7 154.811 126.43L155.121 127.07L155.391 127.67C155.481 127.87 155.571 128.06 155.641 128.26C155.711 128.46 155.841 128.73 155.921 128.96C156.001 129.19 156.021 129.21 156.061 129.34C156.181 129.65 156.271 129.94 156.361 130.24C156.361 130.35 156.431 130.47 156.461 130.58C156.511 130.72 156.551 130.864 156.581 131.01Z" fill="#000C4F"/>
<path d="M163.85 107.65C158.11 116.26 148.61 124.44 143.34 131.82L137.76 124.37C140.421 116.958 143.455 109.686 146.85 102.58C148.3 104.92 149.85 106.37 150.6 105.98C151.6 105.5 151.72 102.98 150.32 100.17L149.39 98.3101V97.4901C151.06 94.2401 152.22 92.1501 152.39 92.3501L163.85 107.65Z" fill="#000C4F"/>
<path d="M165.28 105.76C159.54 114.37 148.61 124.44 143.34 131.82C143.04 132.02 137.29 124.82 137.29 124.82C137.29 124.82 142.37 111.69 147.29 101.63C148.74 103.97 150.29 105.42 151.05 105.03C152.05 104.55 151.41 101.49 149.75 98.19L149.38 97.47C151.29 93.69 154.58 87.35 154.73 87.57L165.28 105.76Z" fill="url(#paint11_linear_60_78)"/>
<path d="M203.05 99.5604C202.703 100.247 202.319 100.915 201.9 101.56C201.834 101.664 201.735 101.743 201.619 101.783C201.502 101.823 201.376 101.822 201.26 101.78C196.89 100.07 180.85 100.7 164.26 107.96C164.138 108.013 164.001 108.02 163.874 107.98C163.747 107.939 163.639 107.854 163.57 107.74L153.79 91.7404C153.637 91.4965 153.55 91.2171 153.538 90.9296C153.526 90.6421 153.589 90.3563 153.72 90.1004L154.92 87.7004C155.01 87.5149 155.138 87.351 155.297 87.2198C155.456 87.0886 155.641 86.9933 155.84 86.9404C160.56 85.6804 190.46 77.8604 194.84 80.8204C194.914 80.8655 194.973 80.9316 195.01 81.0104C196.94 84.623 198.657 88.3461 200.15 92.1604V92.1604C201.63 95.7504 202.8 98.8104 203.04 99.4304C203.039 99.4739 203.043 99.5174 203.05 99.5604Z" fill="#876CD1"/>
<path d="M203.05 99.5602C202.649 100.379 202.184 101.165 201.66 101.91C201.644 101.922 201.625 101.929 201.605 101.929C201.585 101.929 201.566 101.922 201.55 101.91C197.65 100.05 181.19 100.54 164.18 108C164.08 108 164 107.94 164.06 107.85L166.68 104.35C167.45 104.02 191.33 93.6301 200.08 92.2001C201.96 91.9101 203.08 92.0101 203.26 92.7101C203.695 94.9931 203.61 97.3448 203.01 99.5902L203.05 99.5602Z" fill="url(#paint12_linear_60_78)"/>
<path d="M201.59 99.1602C195.22 97.9602 178.01 99.4702 166.94 104.71C166.613 104.866 166.24 104.893 165.895 104.788C165.549 104.682 165.254 104.451 165.07 104.14L155.61 87.8002C155.483 87.5798 155.416 87.3297 155.416 87.0752C155.416 86.8207 155.483 86.5706 155.61 86.3502C159.32 79.9902 174.61 74.6202 185.37 74.6802C191.05 74.6802 197.01 76.9702 198.97 78.3302C199.139 78.4473 199.279 78.6011 199.38 78.7802C202.45 84.2202 203.68 93.2102 203.3 97.8802C203.283 98.0812 203.223 98.2763 203.126 98.4527C203.028 98.6291 202.894 98.7828 202.732 98.9037C202.571 99.0246 202.385 99.11 202.188 99.1542C201.992 99.1984 201.788 99.2004 201.59 99.1602V99.1602Z" fill="url(#paint13_linear_60_78)"/>
<path d="M177.7 77.08C177.7 77.08 186.79 75.64 189.7 76.6" stroke="url(#paint14_linear_60_78)" stroke-width="0.96" stroke-miterlimit="10" stroke-linecap="round"/>
<path d="M158.49 127.71C158.278 127.921 158.047 128.112 157.8 128.28C154.87 130.35 149.94 129.28 146.32 125.68C142.4 121.76 140.94 117.68 143.74 114.87C144.117 114.487 144.553 114.167 145.03 113.92V113.92C147.66 112.63 150.91 114.39 154.25 117.73C158.19 121.66 161.3 124.91 158.49 127.71Z" fill="#FAE8EE"/>
<path d="M157.8 128.24C154.87 130.31 149.94 129.24 146.32 125.64C142.4 121.72 140.94 117.64 143.74 114.83C144.117 114.447 144.553 114.127 145.03 113.88C144.38 114.4 142.52 117.15 145.2 122.01C146.407 124.216 148.263 125.997 150.518 127.112C152.772 128.226 155.314 128.62 157.8 128.24Z" fill="#F3B0C3"/>
<path d="M147.07 119.24C148 119.24 151.72 119.24 153.07 122.04C154.42 124.84 150.27 122.97 150.27 122.97C150.27 122.97 153.4 123.59 151.61 121.88C150.273 120.726 148.734 119.831 147.07 119.24V119.24Z" fill="#F3B0C3"/>
<path d="M131.78 228.24L93.5204 257.88C78.2104 270.31 54.3004 279.88 55.2604 256.88C55.5304 256.44 55.9004 255.88 56.3404 255.24C61.0604 248.24 74.3404 230.24 80.4904 223.95C100.98 203.04 104.71 186.24 116.34 180.24C135.41 172.24 156.52 207.37 131.78 228.24Z" fill="#000C4F"/>
<path d="M124.96 180.93C121.342 182.947 117.914 185.29 114.72 187.93C108.03 193.18 89.8104 224.93 80.9704 232.38C75.3673 237.176 70.225 242.486 65.6104 248.24" stroke="#4E2391" stroke-width="0.47" stroke-miterlimit="10"/>
<path d="M127.28 183.24C127.28 183.24 120.28 184.63 113.28 194.41C106.28 204.19 94.1904 225.59 85.8204 233.04C77.4504 240.49 74.8204 243.38 71.8204 247.94" stroke="#4E2391" stroke-width="0.47" stroke-miterlimit="10"/>
<path d="M124.72 178.83L120.53 181.16C120.53 181.16 109.87 186.91 103.78 196.06C100.19 201.44 101.45 201.64 98.1904 205.83C94.9304 210.02 60.6604 249.83 60.3404 249.71C60.2304 249.66 58.4204 252.71 56.3404 255.27C61.0604 248.27 74.3404 230.27 80.4904 223.98C100.98 203.04 108.41 175.57 124.72 178.83Z" fill="#FF6490"/>
<path d="M133.7 334.87C132.58 334.11 131.48 333.34 130.37 332.58C109.82 318.35 90.3703 303.8 76.3703 290.83C71.8694 286.723 67.6404 282.327 63.7103 277.67C57.0903 269.67 53.8303 262.67 55.3703 257.5C63.3703 243.5 70.9603 245.5 81.4303 246.33C87.4303 246.79 88.5503 253.33 91.8103 259.52L92.4003 260.31L134.85 317.58L137.11 320.58C146.64 328.24 146.41 334.24 133.7 334.87Z" fill="#482C99"/>
<path d="M66.3303 277.29C65.7703 277.72 65.2203 278.11 64.6803 278.45C50.0103 264.85 53.0403 263.99 55.4103 256.1C58.1603 251 60.9603 247.65 63.6503 245.53C73.2003 238 81.4503 246.12 81.3603 246.2C62.8103 263.08 73.5503 271.77 66.3303 277.29Z" fill="#000C4F"/>
<path d="M66.3303 277.29C65.7703 277.72 65.2203 278.11 64.6803 278.45C50.0103 264.85 52.1103 262.62 55.4103 256.1C57.9903 251.1 61.4103 246.79 65.1803 244.47C63.0603 246.6 58.6703 253.31 56.8003 260.29C54.5703 268.5 64.7003 275.88 66.3303 277.29Z" fill="#EC5076"/>
<path opacity="0.62" d="M135.01 318.08C135.01 318.08 112.62 291.48 106.57 283.08C101.444 275.754 96.7174 268.156 92.4103 260.32L134.86 317.59L135.01 318.08Z" fill="#EC5076"/>
<path d="M65.8403 266.11C65.8403 266.11 61.8403 263.55 64.2103 257.96C66.5803 252.37 75.6203 242.84 75.6203 242.84" stroke="#4E2391" stroke-width="0.47" stroke-miterlimit="10"/>
<path d="M63.9803 271.7C63.9803 271.7 57.9803 266.58 58.8603 260.52C59.7403 254.46 70.9603 241.91 70.9603 241.91" stroke="#4E2391" stroke-width="0.47" stroke-miterlimit="10"/>
<path d="M130.41 332.58C109.86 318.35 90.4103 303.8 76.4103 290.83C71.8956 286.724 67.6533 282.328 63.7103 277.67C64.5515 277.378 65.4408 277.249 66.3303 277.29C66.3303 277.29 117.74 322.67 123.79 326.39C126.461 327.894 128.731 330.017 130.41 332.58V332.58Z" fill="#EC5076"/>
<path d="M65.8403 274.49C66.354 274.49 66.7703 274.074 66.7703 273.56C66.7703 273.046 66.354 272.63 65.8403 272.63C65.3267 272.63 64.9103 273.046 64.9103 273.56C64.9103 274.074 65.3267 274.49 65.8403 274.49Z" stroke="#4E2391" stroke-width="0.47" stroke-miterlimit="10"/>
<path d="M67.7003 267.97C68.214 267.97 68.6303 267.554 68.6303 267.04C68.6303 266.526 68.214 266.11 67.7003 266.11C67.1867 266.11 66.7703 266.526 66.7703 267.04C66.7703 267.554 67.1867 267.97 67.7003 267.97Z" stroke="#4E2391" stroke-width="0.47" stroke-miterlimit="10"/>
<path d="M241.79 261.7L235.04 188.24L233.18 167.95C233.062 166.663 233.157 165.366 233.46 164.11C235.58 155.48 247.86 156.11 250.4 167.95L268.57 248.3C270.49 266.49 256.14 273.18 241.79 261.7Z" fill="#482C99"/>
<path d="M235.23 172.88C235.08 172.88 235.05 183.59 235.04 188.25L233.18 167.96C233.062 166.673 233.157 165.376 233.46 164.12C233.722 164.427 233.919 164.784 234.04 165.17C235.04 168.59 235.41 172.97 235.23 172.88Z" fill="#EC5076"/>
<path d="M179.18 333.37C179.68 333.616 180.147 333.926 180.57 334.29C178.99 337.84 172.73 335.04 170.86 334.11L171.92 334.69C173.73 335.69 176.44 337.45 176.38 338.48C176.32 339.51 173.08 339.72 171.26 338.95C157.26 331.32 148.86 344.32 133.56 334.76C133.31 334.43 133.08 334.11 132.85 333.76C126.45 324.59 129.61 319.76 138.47 318.1C153.35 315.04 168.12 316.19 178.64 326.71L178.87 326.99C178.948 327.07 179.018 327.157 179.08 327.25C180.89 329.63 180.08 330.03 180.08 330.03C180.882 330.452 181.66 330.919 182.41 331.43C182.91 333.84 179.41 333.42 179.18 333.37Z" fill="#482C99"/>
<path d="M135.61 323.88C135.61 324.88 128.91 319.1 138.48 318.14C148.05 317.18 161.48 311.52 163.35 310.49C166.62 308.7 166.62 311.49 164.29 314.29C162.08 316.94 156.59 321.18 151.87 321.97C146.13 322.93 135.61 323.88 135.61 323.88Z" fill="#482C99"/>
<path d="M179.02 327.24C178.966 327.179 178.919 327.112 178.88 327.04C178.958 327.119 179.028 327.206 179.09 327.3C179.07 327.276 179.046 327.256 179.02 327.24V327.24Z" fill="#000C4F"/>
<path d="M165.86 323.24C167.33 323.92 177.86 328.78 179.18 329.24C180.5 329.7 179.44 327.84 179.11 327.39C180.92 329.77 180.11 330.17 180.11 330.17C180.11 330.17 167.3 323.92 165.86 323.24Z" fill="#000C4F"/>
<path d="M179.18 333.37L164.41 326.45C165.85 327.07 177.36 332 178.23 332.45C178.742 332.683 179.297 332.803 179.86 332.803C180.422 332.803 180.978 332.683 181.49 332.45C182.42 331.99 182.42 331.52 182.42 331.52C182.91 333.84 179.41 333.42 179.18 333.37Z" fill="#000C4F"/>
<path d="M180.58 334.3C179 337.85 172.74 335.05 170.87 334.12L171.93 334.7L171.33 334.42L162.92 329.66C163.47 329.91 172.4 333.94 174.06 334.77C174.76 335.172 175.537 335.42 176.34 335.5C177.144 335.579 177.955 335.487 178.72 335.23L180.58 334.3Z" fill="#000C4F"/>
<path d="M176.41 338.49C176.41 339.41 173.11 339.73 171.29 338.96C157.29 331.33 148.89 344.33 133.59 334.77C133.34 334.44 133.11 334.12 132.88 333.77C135.88 335.18 140.88 337.38 144.29 338C149.41 338.93 154.53 336.6 157.29 335.67C160.05 334.74 161.48 335.67 163.8 335.67C166.12 335.67 170.8 338 172.45 338.67C173.752 339.06 175.148 338.997 176.41 338.49V338.49Z" fill="#000C4F"/>
<path d="M266.691 143.46C265.691 150.08 260.921 153.61 255.181 161.26C249.441 168.91 251.311 167.54 251.361 171.78C251.411 176.02 236.051 173.69 236.051 173.69C236.051 173.69 235.701 173.57 235.231 172.88C234.611 171.97 233.771 170.08 233.231 166.2C232.331 160.02 231.471 159.41 232.711 152.35C232.841 151.58 233.001 150.74 233.181 149.81C235.091 140.25 235.971 139.81 236.901 134.18C237.691 129.46 236.271 124.66 238.301 125.33C239.701 125.8 241.561 128.46 241.561 133.25C241.561 138.04 241.091 139.76 241.791 142.16C241.971 142.776 242.205 143.375 242.491 143.95C244.991 140.5 248.011 138.32 248.491 137.38C249.441 135.46 249.441 128.76 250.401 123.02C251.361 117.28 251.191 113.91 253.271 114.42C253.622 114.916 253.911 115.453 254.131 116.02C254.131 116.02 254.131 112.77 255.521 112.3C256.921 112.3 257.381 116.02 257.381 116.02C257.381 116.02 257.741 110.54 259.711 113.7C262.041 117.42 262.041 122.08 262.501 125.8C262.611 126.62 263.411 136.21 263.131 137.17C264.48 133.943 265.518 130.594 266.231 127.17C267.231 123.34 267.111 122.07 269.021 121.11C270.931 120.15 267.631 137.24 266.691 143.46Z" fill="#482C99"/>
<path d="M242.021 163.47C242.84 160.191 244.439 157.159 246.681 154.63C250.401 150.44 258.311 145.78 258.781 144.85C259.762 143.078 260.851 141.369 262.041 139.73C259.904 140.92 257.893 142.323 256.041 143.92C254.591 145.32 242.491 150.9 242.021 163.47Z" fill="#250B71"/>
<path d="M235.231 172.88C234.611 171.97 233.771 170.08 233.231 166.2C232.331 160.02 231.471 159.41 232.711 152.35C232.401 154.36 232.565 156.414 233.191 158.35C234.591 162.08 235.521 164.35 235.521 164.35C235.521 164.35 236.041 170.67 235.231 172.88Z" fill="#EC5076"/>
<path opacity="0.36" d="M505 90C517.15 90 527 80.3741 527 68.5C527 56.6259 517.15 47 505 47C492.85 47 483 56.6259 483 68.5C483 80.3741 492.85 90 505 90Z" fill="white"/>
<path opacity="0.36" d="M505 69L479 66.0311C479.338 58.4424 483.349 51.7038 491.71 46L505 69Z" fill="white"/>
<path opacity="0.36" d="M408.1 83H402V140.04H408.1V83Z" fill="white"/>
<path opacity="0.36" d="M416.1 99.8398H410V140.04H416.1V99.8398Z" fill="white"/>
<path opacity="0.36" d="M424.299 122.78H418.199V140.04H424.299V122.78Z" fill="white"/>
<path opacity="0.36" d="M432.719 89.3198H426.619V140.05H432.719V89.3198Z" fill="white"/>
<path opacity="0.36" d="M441.78 107.84H435.68V140.05H441.78V107.84Z" fill="white"/>
<path opacity="0.36" d="M367.31 48.1001H313V93.9901H367.31V48.1001Z" stroke="white" stroke-width="0.21" stroke-miterlimit="10"/>
<path d="M318.47 48.52V93.36" stroke="white" stroke-width="0.21" stroke-miterlimit="10"/>
<path d="M322.89 48.21V93.04" stroke="white" stroke-width="0.21" stroke-miterlimit="10"/>
<path d="M327.52 48.4199V93.2499" stroke="white" stroke-width="0.21" stroke-miterlimit="10"/>
<path d="M332.15 48V92.83" stroke="white" stroke-width="0.21" stroke-miterlimit="10"/>
<path d="M337 48.6299V93.4599" stroke="white" stroke-width="0.21" stroke-miterlimit="10"/>
<path d="M342.05 48.4199V93.2499" stroke="white" stroke-width="0.21" stroke-miterlimit="10"/>
<path d="M346.89 48.4199V93.2499" stroke="white" stroke-width="0.21" stroke-miterlimit="10"/>
<path d="M351.73 48.4199V93.2499" stroke="white" stroke-width="0.21" stroke-miterlimit="10"/>
<path d="M356.78 48.8398V93.6798" stroke="white" stroke-width="0.21" stroke-miterlimit="10"/>
<path d="M361.83 48.6299V93.4599" stroke="white" stroke-width="0.21" stroke-miterlimit="10"/>
<g opacity="0.44" filter="url(#filter2_f_60_78)">
<path d="M471.28 309.621C396.19 309.371 299.04 333.861 219.42 381.421C218.774 381.805 218.037 382.011 217.285 382.017C216.533 382.023 215.793 381.83 215.141 381.457C214.488 381.084 213.946 380.544 213.57 379.893C213.194 379.242 212.997 378.503 213 377.751V285.521C212.999 284.409 213.258 283.311 213.756 282.316C214.254 281.322 214.978 280.457 215.87 279.792C272.37 237.612 426.87 211.681 474.68 222.431C476.288 222.8 477.719 223.713 478.73 225.017C479.742 226.32 480.272 227.932 480.23 229.582L478.43 302.662C478.388 304.527 477.615 306.302 476.278 307.603C474.941 308.905 473.146 309.63 471.28 309.621V309.621Z" fill="#6038FF"/>
</g>
<path opacity="0.44" d="M476.16 279.74C401.07 279.49 303.92 303.98 224.3 351.54C223.653 351.924 222.917 352.129 222.165 352.135C221.413 352.141 220.673 351.948 220.02 351.575C219.368 351.202 218.826 350.662 218.45 350.011C218.074 349.361 217.877 348.621 217.88 347.87V255.64C217.878 254.527 218.137 253.429 218.636 252.435C219.134 251.44 219.858 250.575 220.75 249.91C277.25 207.73 431.75 181.8 479.56 192.55C481.168 192.918 482.599 193.832 483.61 195.135C484.622 196.438 485.151 198.051 485.11 199.7L483.31 272.78C483.268 274.645 482.495 276.42 481.158 277.722C479.821 279.023 478.026 279.748 476.16 279.74V279.74Z" fill="white"/>
<path d="M475.17 280.68C400.09 280.42 302.93 304.91 223.31 352.47C222.663 352.854 221.927 353.059 221.175 353.065C220.423 353.072 219.683 352.878 219.03 352.505C218.378 352.132 217.836 351.593 217.46 350.942C217.084 350.291 216.887 349.552 216.89 348.8V256.57C216.888 255.457 217.147 254.36 217.646 253.365C218.144 252.37 218.868 251.505 219.76 250.84C276.26 208.66 430.76 182.73 478.57 193.48C480.178 193.847 481.611 194.76 482.622 196.063C483.634 197.367 484.163 198.98 484.12 200.63L482.33 273.71C482.283 275.576 481.507 277.351 480.169 278.653C478.831 279.956 477.037 280.683 475.17 280.68V280.68Z" stroke="white" stroke-width="0.91" stroke-miterlimit="10"/>
<path d="M327.21 217.93V298.93C336.52 295.67 372.36 285.43 390.51 283.57L392.14 202.81" stroke="white" stroke-width="0.47" stroke-miterlimit="10"/>
<path d="M333.49 216.3V296.83" stroke="white" stroke-width="0.47" stroke-miterlimit="10"/>
<path d="M339.08 214.68V295.2" stroke="white" stroke-width="0.47" stroke-miterlimit="10"/>
<path d="M345.59 212.81V293.34" stroke="white" stroke-width="0.47" stroke-miterlimit="10"/>
<path d="M351.64 211.42V291.94" stroke="white" stroke-width="0.47" stroke-miterlimit="10"/>
<path d="M358.16 209.55V290.08" stroke="white" stroke-width="0.47" stroke-miterlimit="10"/>
<path d="M364.68 208.16V288.69" stroke="white" stroke-width="0.47" stroke-miterlimit="10"/>
<path d="M371.19 206.76V287.29" stroke="white" stroke-width="0.47" stroke-miterlimit="10"/>
<path d="M378.18 204.9V285.43" stroke="white" stroke-width="0.47" stroke-miterlimit="10"/>
<path d="M384.23 203.97V284.5" stroke="white" stroke-width="0.47" stroke-miterlimit="10"/>
<path d="M326.97 292.64C347.635 285.847 368.804 280.698 390.28 277.24" stroke="white" stroke-width="0.47" stroke-miterlimit="10"/>
<path d="M326.97 287.06C347.633 280.272 368.803 275.135 390.28 271.7" stroke="white" stroke-width="0.47" stroke-miterlimit="10"/>
<path d="M327.41 280.07C348.072 273.291 369.238 268.155 390.71 264.71" stroke="white" stroke-width="0.47" stroke-miterlimit="10"/>
<path d="M326.97 273.56C347.634 266.785 368.804 261.662 390.28 258.24" stroke="white" stroke-width="0.47" stroke-miterlimit="10"/>
<path d="M327.41 267.04C348.071 260.256 369.237 255.12 390.71 251.68" stroke="white" stroke-width="0.47" stroke-miterlimit="10"/>
<path d="M326.97 261.46C347.634 254.673 368.804 249.534 390.28 246.09" stroke="white" stroke-width="0.47" stroke-miterlimit="10"/>
<path d="M327.41 254.47C348.072 247.691 369.238 242.555 390.71 239.11" stroke="white" stroke-width="0.47" stroke-miterlimit="10"/>
<path d="M326.97 248.89C347.633 242.102 368.803 236.965 390.28 233.53" stroke="white" stroke-width="0.47" stroke-miterlimit="10"/>
<path d="M326.97 242.37C347.634 235.586 368.804 230.45 390.28 227.01" stroke="white" stroke-width="0.47" stroke-miterlimit="10"/>
<path d="M326.97 236.32C347.634 229.536 368.804 224.4 390.28 220.96" stroke="white" stroke-width="0.47" stroke-miterlimit="10"/>
<path d="M326.97 229.34C347.633 222.552 368.803 217.415 390.28 213.98" stroke="white" stroke-width="0.47" stroke-miterlimit="10"/>
<path d="M326.97 223.75C347.636 216.971 368.805 211.835 390.28 208.39" stroke="white" stroke-width="0.47" stroke-miterlimit="10"/>
<path opacity="0.75" d="M407.97 278.21H403.78V203.74L408.2 203.04L407.97 278.21Z" fill="white"/>
<path opacity="0.75" d="M420.07 278.21H415.88V203.74L420.3 203.04L420.07 278.21Z" fill="white"/>
<path opacity="0.75" d="M426.59 278.68H422.4V199.55L426.82 199.31L426.59 278.68Z" fill="white"/>
<path opacity="0.75" d="M414.02 278.21H409.83V222.36L414.25 221.66L414.02 278.21Z" fill="white"/>
<path opacity="0.75" d="M433.1 210.25H428.91V266.11H433.1V210.25Z" fill="white"/>
<path opacity="0.75" d="M454.51 209.79H450.32V265.65H454.51V209.79Z" fill="white"/>
<path opacity="0.75" d="M439.15 216.77H434.96V272.63H439.15V216.77Z" fill="white"/>
<path opacity="0.75" d="M447.07 221.42H442.88V277.28H447.07V221.42Z" fill="white"/>
<path d="M279.95 260.24C279.95 275.24 272 291.85 261.95 297.33C251.49 303.03 242.95 294.52 243.17 278.27C243.43 262.21 252.24 245.57 262.48 241.1C272.33 236.84 280 245.41 279.95 260.24Z" stroke="white" stroke-width="0.47" stroke-miterlimit="10"/>
<path d="M262.74 296.83C253.43 302.88 245.25 295.02 245.51 278.77C245.77 262.71 254.36 244.7 266.93 240.04" stroke="white" stroke-width="0.47" stroke-miterlimit="10"/>
<path opacity="0.75" d="M262.27 271.7C262.27 272.16 267.62 295.2 267.62 295.2C271.81 293.34 278.8 281.7 279.26 274.26L262.27 271.7Z" fill="white"/>
<path opacity="0.75" d="M321.41 297.3C321.23 296.77 280.27 310.74 280.41 311.3V316.42C280.24 315.97 321.2 301.08 321.41 301.53V297.3Z" fill="white"/>
<path opacity="0.75" d="M321.15 290.32C320.98 289.79 280.01 303.76 280.15 304.32V309.44C279.99 308.99 320.95 294.09 321.15 294.54V290.32Z" fill="white"/>
<path opacity="0.75" d="M320.69 282.87C320.51 282.34 279.55 296.31 279.69 296.87V301.99C279.52 301.54 320.49 286.65 320.69 287.1V282.87Z" fill="white"/>
<path opacity="0.75" d="M320.69 274.95C320.51 274.43 279.55 288.39 279.69 288.95V294.07C279.52 293.62 320.49 278.72 320.69 279.17V274.95Z" fill="white"/>
<path d="M222.01 262.62V344.29C222.015 344.486 222.07 344.678 222.17 344.847C222.269 345.016 222.41 345.157 222.579 345.257C222.747 345.357 222.939 345.412 223.135 345.418C223.331 345.424 223.525 345.38 223.7 345.29L277.86 317.97" stroke="white" stroke-width="0.47" stroke-miterlimit="10"/>
<path d="M544.96 381.56C506.2 375.02 427.47 356.39 309.28 441.67C302.36 446.663 295.314 452.013 288.14 457.72C287.985 457.844 287.804 457.932 287.61 457.977C287.416 458.022 287.215 458.023 287.02 457.98L202.9 415.66C202.7 415.66 200.59 413.56 201.99 411.8C270.5 359.57 414.4 312.6 495.28 329.15C495.34 329.15 500.28 331.85 500.33 331.89L528.03 362.72L544.96 381.56Z" fill="url(#paint15_linear_60_78)"/>
<path d="M544.96 381.56C545.22 381.61 545.15 381.75 544.96 381.56V381.56Z" fill="url(#paint16_linear_60_78)"/>
<path opacity="0.44" d="M528.03 362.72C499.5 366.24 427.54 381.95 395.71 392.09C356.04 404.73 288.15 457.76 288.15 457.76L201.99 411.76C270.5 359.53 414.4 312.56 495.28 329.11C497.157 329.611 498.887 330.55 500.33 331.85C502.65 333.99 528.03 362.72 528.03 362.72Z" fill="url(#paint17_linear_60_78)"/>
<path d="M425.82 345.36L423.98 345.82C387.59 355.1 342.8 369.91 310.46 384.72L282.46 374.9L279.27 373.77C354 340.09 411.46 332.52 411.46 332.52L425.82 345.36Z" fill="#7B94FF"/>
<path d="M425.82 345.36C425.21 345.51 425.38 345.62 424.76 345.78L411.08 333.36C371.93 339.24 319.52 356.93 280.41 374.24L279.41 373.82C354.14 340.14 411.6 332.57 411.6 332.57L425.82 345.36Z" fill="#0345EA"/>
<path opacity="0.48" d="M312.99 381.77L287.73 372.93C289.2 371.67 310.25 363.46 311.94 363.04L336.41 372.09C328.57 374.41 319.64 378.66 312.99 381.77Z" stroke="white" stroke-width="0.47" stroke-miterlimit="10"/>
<path opacity="0.48" d="M393.41 352.51C374.86 357.621 356.608 363.76 338.74 370.9L316.57 362.71L314.05 361.78C339.05 352.5 362.83 345 384.78 340.09L393.41 352.51Z" stroke="white" stroke-width="0.47" stroke-miterlimit="10"/>
<path opacity="0.48" d="M317.62 363.04C340.12 354.65 363.91 346.98 385.99 341.97" stroke="white" stroke-width="0.47" stroke-miterlimit="10"/>
<path opacity="0.48" d="M387.47 343.98C366.05 348.98 343.14 356.42 321.47 364.51" stroke="white" stroke-width="0.47" stroke-miterlimit="10"/>
<path opacity="0.48" d="M325.62 365.99C346.322 358.132 367.464 351.491 388.94 346.1" stroke="white" stroke-width="0.47" stroke-miterlimit="10"/>
<path opacity="0.48" d="M329.41 367.24C349.317 359.7 369.625 353.264 390.24 347.96" stroke="white" stroke-width="0.47" stroke-miterlimit="10"/>
<path opacity="0.48" d="M334.04 369.14C353.041 361.959 372.4 355.764 392.04 350.58" stroke="white" stroke-width="0.47" stroke-miterlimit="10"/>
<path d="M309.28 441.67C302.36 446.663 295.314 452.013 288.14 457.72C287.01 456.04 230.74 412.72 235.95 414.19C241.16 415.66 271.03 418.42 279.52 422.82C286.7 426.53 301.74 433.89 309.28 441.67Z" fill="url(#paint18_linear_60_78)"/>
<path d="M279.31 373.77L310.46 384.77C354.46 366.13 394.15 352.85 427.29 347.93L433.81 295.52C433.81 295.52 386.87 295.94 324.81 317.41C284.27 331.41 271.13 341.83 271.13 341.83L279.31 373.77Z" fill="url(#paint19_linear_60_78)"/>
<path d="M290.41 401.45C290.41 401.45 325.95 381.93 362.19 368.62C413.76 349.67 500.96 335.53 496.49 336.62C496.39 336.62 510.38 364.2 510.38 364.2C450.52 365.26 388.3 385.78 325.78 423.77L290.41 401.45Z" stroke="#030D3A" stroke-width="0.21" stroke-miterlimit="10"/>
<path d="M294.99 402.93C294.99 402.93 342.99 377.05 377.93 366.3C399.552 359.71 421.646 354.785 444.02 351.57" stroke="#030D3A" stroke-width="0.21" stroke-miterlimit="10"/>
<path d="M299.62 404.82C299.62 404.82 347.62 378.95 382.56 368.2C404.181 361.604 426.276 356.676 448.65 353.46" stroke="#030D3A" stroke-width="0.21" stroke-miterlimit="10"/>
<path d="M304.04 408.24C304.04 408.24 351.43 381.1 386.35 370.35C408.113 363.754 430.453 359.243 453.07 356.88" stroke="#030D3A" stroke-width="0.21" stroke-miterlimit="10"/>
<path d="M309.1 411.14C309.1 411.14 355.42 383.14 390.35 372.41C412.425 365.779 435.149 361.544 458.13 359.78" stroke="#030D3A" stroke-width="0.21" stroke-miterlimit="10"/>
<path d="M313.73 413.87C313.73 413.87 361.73 385.69 396.66 374.93C418.173 368.384 440.339 364.219 462.76 362.51" stroke="#030D3A" stroke-width="0.21" stroke-miterlimit="10"/>
<path d="M318.57 416.61C318.57 416.61 364.69 387.79 399.57 377.04C421.688 370.422 444.516 366.464 467.57 365.25" stroke="#030D3A" stroke-width="0.21" stroke-miterlimit="10"/>
<path d="M323.62 419.56C323.62 419.56 372.05 390.11 406.98 379.35C428.305 372.854 450.375 369.12 472.65 368.24" stroke="#030D3A" stroke-width="0.21" stroke-miterlimit="10"/>
<path d="M284.99 409.66C284.99 418.91 271.71 426.4 255.31 426.4C240.18 426.4 227.69 420.01 225.86 411.76C225.712 411.07 225.638 410.366 225.64 409.66C225.64 400.42 238.92 392.93 255.31 392.93C271.31 392.93 284.39 400.09 284.98 409.04C284.99 409.24 284.99 409.45 284.99 409.66Z" fill="#EC5076"/>
<path d="M284.99 409.66C284.99 418.91 271.71 426.4 255.31 426.4C240.18 426.4 227.69 420.01 225.86 411.76C225.86 411.55 225.86 411.35 225.86 411.14C225.86 401.89 239.14 394.4 255.54 394.4C270.67 394.4 283.16 400.79 284.99 409.04C284.99 409.24 284.99 409.45 284.99 409.66Z" fill="#F3B0C3"/>
<path d="M448.75 267.34C439.58 267.5 418.3 271.8 405.31 276.49C404.906 276.637 404.471 276.68 404.045 276.615C403.62 276.551 403.218 276.38 402.875 276.119C402.533 275.858 402.261 275.516 402.086 275.123C401.91 274.73 401.836 274.299 401.87 273.87L403.33 255.68C403.367 255.193 403.543 254.726 403.838 254.336C404.132 253.946 404.532 253.649 404.99 253.48C425.04 245.97 437.15 241.21 449.63 245.74C450.119 245.923 450.539 246.251 450.836 246.68C451.133 247.109 451.291 247.618 451.29 248.14V264.78C451.288 265.455 451.02 266.101 450.545 266.58C450.07 267.059 449.425 267.332 448.75 267.34V267.34Z" fill="url(#paint20_linear_60_78)"/>
<path d="M464.68 261.7C464.68 280.7 457.98 302.84 427.37 307.62C426.28 307.79 425.25 307.91 424.27 307.98C422.718 308.1 421.158 308.076 419.61 307.91C416.879 307.684 414.294 306.583 412.24 304.77C404 297.09 409.19 277.57 409.19 263.62C409.107 257.156 410.517 250.76 413.31 244.93C417.64 236.19 424.95 230.49 433.1 229.19C457.03 225.35 464.68 242.68 464.68 261.7Z" fill="#EC5076"/>
<path opacity="0.66" d="M419.61 307.91C401.53 305.74 409.19 280.58 409.19 263.62C409.107 257.156 410.517 250.76 413.31 244.93V244.93C413.31 244.93 410.97 250.86 410.31 261.39C409.65 271.92 405.89 293.39 411.01 302.18C413.21 306.01 417.7 306.97 419.61 307.91Z" fill="#F3AABF"/>
<path d="M424.27 307.98C422.718 308.1 421.158 308.076 419.61 307.91C416.879 307.684 414.294 306.583 412.24 304.77C416.11 305.44 418.44 303.58 418.9 300.32C419.5 296.15 419.37 284.96 422.16 291.48C423.85 295.43 424.35 302.61 424.27 307.98Z" fill="#CE386A"/>
<path d="M464.68 335.36C450.21 345.93 435.68 348.86 421.14 340.63C420.35 340.19 419.56 339.7 418.76 339.19C420.073 335.42 420.962 331.516 421.41 327.55C422.097 321.318 422.154 315.033 421.58 308.79C421.011 302.292 420.076 295.832 418.78 289.44C419.27 289.14 419.78 288.84 420.27 288.56C422.333 287.349 424.47 286.27 426.67 285.33C438.33 280.33 450.36 280.07 462.79 284.66C461.07 295.75 461.51 307.83 462.79 320.22C463.3 325.24 463.96 330.29 464.68 335.36Z" fill="#EC5076"/>
<path d="M447.3 311.96C435.8 308.73 429.14 298.96 424.02 285.89C426.14 284.65 424.5 286.25 426.65 285.33C431.9 288.33 460.02 293.99 461.26 299.39C462.66 305.44 459.87 315.49 447.3 311.96Z" fill="#CE386A"/>
<path opacity="0.66" d="M423.09 324.99C423.09 332.41 423.32 337.76 421.14 340.63C420.35 340.19 419.56 339.7 418.76 339.19C421.76 330.7 422.51 320.42 421.56 308.79C422.516 314.138 423.028 319.557 423.09 324.99V324.99Z" fill="#F3AABF"/>
<path d="M464.68 335.36C450.21 345.93 435.68 348.86 421.14 340.63C420.76 340.41 420.37 340.19 419.98 339.95C419.59 339.71 419.17 339.45 418.76 339.19C420.073 335.42 420.962 331.516 421.41 327.55L423 326.96C430.909 324.118 439.088 322.091 447.41 320.91C452.489 320.055 457.654 319.823 462.79 320.22C463.3 325.24 463.96 330.29 464.68 335.36Z" fill="#000C4F"/>
<path d="M422.98 326.96C422.61 330.39 422.26 337.38 420.14 339.78L419.98 339.95C419.57 339.71 419.17 339.45 418.76 339.19C420.073 335.42 420.962 331.516 421.41 327.55L422.98 326.96Z" fill="#EC5076"/>
<path d="M462.77 297.099C461.77 300.919 462.32 305.809 457.54 309.629C452.76 313.449 440.16 309.959 435.66 302.629C425.95 286.859 420.35 277.689 417.17 269.269C416.69 268.009 416.27 266.759 415.89 265.509C413.02 255.939 413.32 244.909 413.32 244.909C413.32 244.909 410.15 246.379 411.11 242.549C411.63 240.459 414.71 237.199 418.32 234.359C421.031 232.147 424.066 230.367 427.32 229.079C432.6 227.329 443.24 224.749 454.6 228.079C455.6 228.359 456.6 228.699 457.55 229.079C473.14 235.079 475.21 244.459 476.17 256.899C477.13 269.339 463.72 293.239 462.77 297.099Z" fill="#000C4F"/>
<path opacity="0.7" d="M472.41 267.74C471.48 280.31 462.17 305.91 452.86 306.84C443.55 307.77 441.25 301.24 434.73 294.24C428.21 287.24 423.09 280.24 418.9 265.85C414.71 251.46 419.84 243.04 418.09 240.6C417.23 239.39 416.99 237.11 418.32 234.35C421.031 232.138 424.066 230.357 427.32 229.07C432.61 227.32 443.27 224.74 454.63 228.07C457.82 230.28 461.19 232.9 465.03 235.58C478.95 245.4 473.41 255.17 472.41 267.74Z" fill="#000B38"/>
<path opacity="0.52" d="M454.56 228.099C446.024 226.611 437.246 227.44 429.14 230.499C416.14 235.619 413.78 241.209 414.72 242.139C415.362 242.907 416.151 243.54 417.04 243.999C417.04 243.999 417.44 268.799 417.24 269.199C417.221 269.233 417.198 269.263 417.17 269.289C416.69 268.029 416.27 266.779 415.89 265.529C413.02 255.959 413.32 244.929 413.32 244.929C413.32 244.929 410.15 246.399 411.11 242.569C411.63 240.479 414.71 237.219 418.32 234.379C421.031 232.168 424.066 230.387 427.32 229.099C432.56 227.349 443.2 224.769 454.56 228.099Z" fill="#071F84"/>
<path d="M404.98 254.42C403.2 253.5 403.28 256.25 403.12 258.25L401.74 275.53C401.675 276.211 401.863 276.893 402.266 277.446C402.67 277.998 403.261 278.384 403.93 278.53C413.02 280.53 445.51 287.33 457.07 287.33C467.2 287.33 468.46 285.89 468.45 285.17C468.45 284.77 471.45 278.02 471.45 278.02C471.83 277.02 472.92 274.16 472.92 274.25C472.92 274.34 474.18 274.46 467.86 274.88C455.93 275.64 404.98 254.42 404.98 254.42Z" fill="url(#paint21_linear_60_78)"/>
<path d="M403.86 276.37L404.86 261.02C404.875 260.772 404.954 260.532 405.09 260.324C405.225 260.115 405.412 259.945 405.633 259.83C405.853 259.716 406.099 259.66 406.348 259.669C406.596 259.677 406.838 259.75 407.05 259.88L408.05 260.51C408.271 260.643 408.451 260.833 408.573 261.06C408.694 261.287 408.752 261.543 408.74 261.8L408.11 276.38C408.096 276.716 408.199 277.046 408.402 277.314C408.604 277.582 408.893 277.772 409.22 277.85L410.84 278.23C411.049 278.277 411.265 278.278 411.474 278.232C411.683 278.185 411.879 278.094 412.048 277.963C412.217 277.832 412.356 277.665 412.453 277.474C412.55 277.284 412.604 277.074 412.61 276.86L412.99 262.42" stroke="url(#paint22_linear_60_78)" stroke-width="0.21" stroke-miterlimit="10"/>
<path d="M427.49 279.38C426.38 284.12 424.23 287.93 422.07 289.38C421.736 289.642 421.35 289.83 420.938 289.932C420.526 290.033 420.097 290.046 419.68 289.97C419.276 289.858 418.902 289.661 418.581 289.392C418.26 289.123 418.001 288.788 417.82 288.41C417.606 288.035 417.429 287.639 417.29 287.23C416.707 285.249 416.517 283.174 416.73 281.12C416.827 279.736 417.034 278.361 417.35 277.01C418.87 270.5 422.35 265.75 425.16 266.4C425.728 266.596 426.238 266.931 426.643 267.375C427.048 267.819 427.336 268.357 427.48 268.94C428.41 271.38 428.41 275.24 427.49 279.38Z" fill="#EC5076"/>
<path opacity="0.66" d="M427.48 268.96L427.28 269.14C427.23 269.21 426.45 266.63 424.97 266.84C420.65 267.46 416.97 280.09 416.73 281.14C416.827 279.756 417.034 278.381 417.35 277.03C418.87 270.52 422.35 265.77 425.16 266.42C425.728 266.616 426.238 266.951 426.643 267.395C427.048 267.839 427.336 268.377 427.48 268.96V268.96Z" fill="#F3AABF"/>
<path d="M417.29 287.24C417.826 287.208 418.364 287.208 418.9 287.24C418.9 287.24 425.39 285.32 423.5 275.84C422.37 270.22 425.23 266.94 425.42 266.29C429.14 268.62 428 275.11 427.49 279.29C426.35 288.6 420.3 290.46 418.9 289.99C418.034 289.311 417.459 288.328 417.29 287.24Z" fill="#CE386A"/>
<path d="M540.33 442.12C546.07 467.94 523.11 480.38 512.58 457.42C498.24 425.85 486.76 413.42 476.23 383.76C478.12 362.61 482.93 340.76 501.11 345.5C516.85 362.24 527.48 396.53 540.33 442.12Z" fill="#000C4F"/>
<path d="M501.99 490.33L404.99 508.07L390.16 444.47L374.16 374.09L373.79 372.47C377.52 364.09 402.24 344.92 418.94 338.96V339.42C434.55 333.86 450.09 324.6 463.63 327.79C479.46 331.51 495.99 339.97 502.73 347.34C519.91 381.77 514.2 426.67 501.99 490.33Z" fill="#000C4F"/>
<path d="M420.77 338.96C420.33 339.34 394.7 351.06 379.77 367.82C378.67 369.06 375.49 373.24 374.09 374.09L373.72 372.47C377.2 364.65 399.79 345.94 418.87 338.96C420.11 338.52 419.67 339.35 420.77 338.96Z" fill="#EC5076"/>
<path d="M400.59 490.33L390.15 444.47C390.574 444.927 390.968 445.412 391.33 445.92C403.78 463.04 400.59 490.33 400.59 490.33Z" fill="#250B71"/>
<path d="M497.05 490.33H412.05C413.05 481.43 413.26 467.9 410.05 448.81C403.53 410.18 386.78 378.99 393.29 370.61C399.8 362.23 439.82 318.51 485.92 340.82C525.63 360.02 505.05 465.73 497.05 490.33Z" fill="#030D3A"/>
<path d="M404.47 424.61L391.15 447.33L412.85 461.38L404.47 424.61Z" fill="#030D3A"/>
<path d="M365.41 492.24C361.46 496.14 356.49 498.31 350.92 497.24C346.26 496.31 340.24 492.17 333.84 486.49C314.59 469.4 291.84 438.33 291.84 438.33C279.44 424.98 287.01 416.39 301.27 424.86L301.4 424.94L361.16 461.4L374.65 466.98C375.33 475.62 371.66 486.09 365.41 492.24Z" fill="#000C4F"/>
<path d="M300.57 449.55C300.57 449.55 293.57 440.44 288.78 435.66C281.42 435.66 263.87 423.05 261 421.14C258.13 419.23 235.64 417.62 235.95 414.19C236.07 412.84 261.21 413.35 261.21 413.35C261.21 413.35 236.79 408.08 237 404.09C237.11 401.95 244.37 401.98 244.37 401.98C244.37 401.98 243.11 399.66 254.21 397.69C258.09 396.99 268.55 394.82 274.29 396.69C274.441 396.735 274.588 396.792 274.73 396.86C280.73 399.48 295.34 416.78 295.34 416.78C295.34 416.78 306.1 429.11 306.82 431.13C311.6 444.56 300.57 449.55 300.57 449.55Z" fill="#000C4F"/>
<path d="M361.19 461.38C360.86 473.18 344.43 454.38 344.43 454.38L303 425.98L361.19 461.38Z" fill="#EC5076"/>
<path d="M365.41 492.24C361.46 496.14 356.49 498.31 350.92 497.24C346.26 496.31 340.24 492.17 333.84 486.49C335.3 484.04 337.43 481.97 339.64 479.58L365.41 492.24Z" fill="#250B71"/>
<path d="M272.15 401.56C273.21 403.24 267.52 403.24 267.1 404.93C266.68 406.62 269.84 408.72 267.94 409.56C266.04 410.4 264.79 416.29 263.52 416.08C262.25 415.87 240.58 415.24 235.95 414.24C236.07 412.89 261.21 413.4 261.21 413.4C261.21 413.4 238.21 408.45 237.05 404.5C237.032 404.384 237.032 404.266 237.05 404.15C237.046 404.13 237.046 404.11 237.05 404.09C237.28 402.01 244.41 402.04 244.41 402.04C244.36 401.93 243.41 399.68 254.25 397.75C258.13 397.05 268.59 394.88 274.33 396.75C274.481 396.795 274.628 396.852 274.77 396.92C274.863 397.046 274.937 397.184 274.99 397.33C276.07 400.43 271.1 399.88 272.15 401.56Z" fill="#250B71"/>
<path d="M274.73 396.9C274.73 396.9 264.79 395.24 250.26 399.03C245.04 400.4 244.36 401.92 244.37 401.98C244.32 401.87 243.37 399.62 254.21 397.69C258.09 396.99 268.55 394.82 274.29 396.69C274.443 396.748 274.59 396.818 274.73 396.9V396.9Z" fill="#EC5076"/>
<path d="M259.95 402.61C259.95 402.61 241.84 401.98 239.53 402.82C238.667 403.173 237.826 403.577 237.01 404.03C237.24 401.95 244.37 401.98 244.37 401.98C244.79 401.97 259.95 402.61 259.95 402.61Z" fill="#EC5076"/>
<path d="M404.47 424.6C393.35 439.04 384.12 461.55 375.37 477.49C370.58 486.23 365.93 492.99 361.19 495.36C350.56 500.67 341.57 494.22 339.66 479.56C339.133 475.243 339.133 470.877 339.66 466.56C340.626 462.334 341.805 458.158 343.19 454.05C347.83 440.34 353.19 432.22 356.49 418.13C362.69 391.57 368.7 375.78 375.14 370.2C376.625 369.192 378.214 368.347 379.88 367.68C400.59 359.5 411.21 394.53 404.47 424.6Z" fill="#000C4F"/>
<path d="M357.23 422.05C357.23 422.05 357.63 433.12 365.14 434.15C375.38 435.54 387.48 419.72 392.14 404.36C401.56 373.28 382.83 367.58 382.83 367.58" stroke="#250B71" stroke-width="0.47" stroke-miterlimit="10"/>
<path d="M358.63 415.99C358.63 416.46 359.09 429.49 363.75 430.89C370.95 433.05 379 425.94 386.55 410.41C394.93 393.19 393.07 372.24 382.36 369.91C380.175 369.342 377.858 369.602 375.853 370.64C373.849 371.677 372.298 373.419 371.5 375.53" stroke="#250B71" stroke-width="0.47" stroke-miterlimit="10"/>
<path d="M363.28 404.82L376.31 409.01" stroke="#250B71" stroke-width="0.47" stroke-miterlimit="10"/>
<path d="M363.75 402.03L376.78 406.22" stroke="#250B71" stroke-width="0.47" stroke-miterlimit="10"/>
<path d="M364.68 398.77L377.71 402.96" stroke="#250B71" stroke-width="0.47" stroke-miterlimit="10"/>
<path d="M375.18 370.16C376.665 369.152 378.254 368.307 379.92 367.64C378.14 369.09 374.34 374.1 369.56 383.64C364.185 394.519 360.429 406.125 358.41 418.09C358.41 418.09 353.29 431.59 350.96 436.71C348.63 441.83 343.59 454.87 343.32 454.17C343.3 454.115 343.276 454.062 343.25 454.01C347.89 440.3 353.25 432.18 356.55 418.09C362.73 391.53 368.74 375.74 375.18 370.16Z" fill="#EC5076"/>
<path d="M382.13 366.89H381.06C381.79 366.64 382.13 366.89 382.13 366.89Z" fill="#250B71"/>
<path d="M375.41 477.49C370.62 486.23 365.97 492.99 361.23 495.36C350.6 500.67 341.61 494.22 339.7 479.56C344.06 475.81 349.55 471.56 355.34 470.81C363.3 469.76 370.51 471.83 375.41 477.49Z" fill="#250B71"/>
<path d="M508.91 479.81L416.97 512.49C410.26 513.77 402.97 517.72 404.35 511.02L431.12 382.6C431.497 380.71 432.434 378.977 433.809 377.627C435.184 376.277 436.934 375.372 438.83 375.03L525.96 359.24C527.507 358.958 529.099 359.06 530.597 359.537C532.096 360.013 533.454 360.849 534.554 361.972C535.655 363.095 536.463 364.47 536.909 365.978C537.354 367.486 537.423 369.079 537.11 370.62L516.54 472.24C516.166 474.118 515.24 475.841 513.881 477.19C512.522 478.538 510.791 479.451 508.91 479.81Z" fill="url(#paint23_linear_60_78)"/>
<path d="M511.77 488.71L418.65 520.66C417.468 521.064 416.199 521.148 414.973 520.903C413.747 520.658 412.608 520.093 411.671 519.265C410.735 518.437 410.034 517.376 409.64 516.19C409.247 515.003 409.174 513.733 409.43 512.51L436.09 385.45C436.378 384.088 437.06 382.84 438.053 381.864C439.045 380.887 440.304 380.225 441.67 379.96L534.34 361.96C535.5 361.734 536.697 361.802 537.823 362.157C538.949 362.512 539.969 363.143 540.789 363.993C541.609 364.843 542.203 365.884 542.518 367.023C542.832 368.161 542.857 369.36 542.59 370.51L516.41 483.62C516.136 484.794 515.565 485.878 514.753 486.769C513.941 487.66 512.914 488.328 511.77 488.71V488.71Z" fill="#080B16"/>
<defs>
<filter id="filter0_f_60_78" x="43" y="264" width="86.7" height="75.2974" filterUnits="userSpaceOnUse" color-interpolation-filters="sRGB">
<feFlood flood-opacity="0" result="BackgroundImageFix"/>
<feBlend mode="normal" in="SourceGraphic" in2="BackgroundImageFix" result="shape"/>
<feGaussianBlur stdDeviation="5" result="effect1_foregroundBlur_60_78"/>
</filter>
<filter id="filter1_f_60_78" x="107" y="296" width="48.2004" height="156.996" filterUnits="userSpaceOnUse" color-interpolation-filters="sRGB">
<feFlood flood-opacity="0" result="BackgroundImageFix"/>
<feBlend mode="normal" in="SourceGraphic" in2="BackgroundImageFix" result="shape"/>
<feGaussianBlur stdDeviation="5.5" result="effect1_foregroundBlur_60_78"/>
</filter>
<filter id="filter2_f_60_78" x="119" y="126" width="455.232" height="350.017" filterUnits="userSpaceOnUse" color-interpolation-filters="sRGB">
<feFlood flood-opacity="0" result="BackgroundImageFix"/>
<feBlend mode="normal" in="SourceGraphic" in2="BackgroundImageFix" result="shape"/>
<feGaussianBlur stdDeviation="47" result="effect1_foregroundBlur_60_78"/>
</filter>
<linearGradient id="paint0_linear_60_78" x1="297.79" y1="-4.76023" x2="294.95" y2="257.32" gradientUnits="userSpaceOnUse">
<stop stop-color="#8A5EFF" stop-opacity="0.44"/>
<stop offset="1" stop-color="#EC5076"/>
</linearGradient>
<linearGradient id="paint1_linear_60_78" x1="142395" y1="19006.3" x2="142376" y2="28648" gradientUnits="userSpaceOnUse">
<stop stop-color="#8A5EFF" stop-opacity="0.44"/>
<stop offset="1" stop-color="#EC5076"/>
</linearGradient>
<linearGradient id="paint2_linear_60_78" x1="179.526" y1="444.5" x2="179.526" y2="353" gradientUnits="userSpaceOnUse">
<stop stop-color="#050810"/>
<stop offset="1" stop-color="#050810" stop-opacity="0"/>
</linearGradient>
<linearGradient id="paint3_linear_60_78" x1="185.321" y1="165.1" x2="207.751" y2="218.99" gradientUnits="userSpaceOnUse">
<stop stop-color="#BDB0FF"/>
<stop offset="0.16" stop-color="#B8A9FC"/>
<stop offset="0.39" stop-color="#A997F4"/>
<stop offset="0.63" stop-color="#937CE8"/>
</linearGradient>
<linearGradient id="paint4_linear_60_78" x1="197.8" y1="131.07" x2="558.01" y2="131.07" gradientUnits="userSpaceOnUse">
<stop stop-color="#9E38FF"/>
<stop offset="0.06" stop-color="#9538FF"/>
<stop offset="0.33" stop-color="#7438FF"/>
<stop offset="0.58" stop-color="#5C38FF"/>
<stop offset="0.81" stop-color="#4D38FF"/>
<stop offset="1" stop-color="#4838FF"/>
</linearGradient>
<linearGradient id="paint5_linear_60_78" x1="60949" y1="33684" x2="192769" y2="33684" gradientUnits="userSpaceOnUse">
<stop stop-color="#8A5EFF" stop-opacity="0.44"/>
<stop offset="1" stop-color="#EC5076"/>
</linearGradient>
<linearGradient id="paint6_linear_60_78" x1="24549.7" y1="5800.12" x2="43777.7" y2="5800.12" gradientUnits="userSpaceOnUse">
<stop stop-color="#8A5EFF" stop-opacity="0.44"/>
<stop offset="1" stop-color="#EC5076"/>
</linearGradient>
<linearGradient id="paint7_linear_60_78" x1="27142.1" y1="6273.45" x2="50959.8" y2="6273.45" gradientUnits="userSpaceOnUse">
<stop stop-color="#8A5EFF" stop-opacity="0.44"/>
<stop offset="1" stop-color="#EC5076"/>
</linearGradient>
<linearGradient id="paint8_linear_60_78" x1="61017.1" y1="31930.8" x2="192231" y2="31930.8" gradientUnits="userSpaceOnUse">
<stop stop-color="#8A5EFF" stop-opacity="0.44"/>
<stop offset="1" stop-color="#EC5076"/>
</linearGradient>
<linearGradient id="paint9_linear_60_78" x1="174.191" y1="70.5299" x2="147.431" y2="125.71" gradientUnits="userSpaceOnUse">
<stop stop-color="#6751B7"/>
<stop offset="1" stop-color="#473CAA"/>
</linearGradient>
<linearGradient id="paint10_linear_60_78" x1="170.051" y1="72.6697" x2="146.931" y2="120.37" gradientUnits="userSpaceOnUse">
<stop stop-color="#47359E"/>
<stop offset="1" stop-color="#352489"/>
</linearGradient>
<linearGradient id="paint11_linear_60_78" x1="144.59" y1="124.77" x2="161.39" y2="94.03" gradientUnits="userSpaceOnUse">
<stop stop-color="#000C4F"/>
<stop offset="1" stop-color="#876CD1"/>
</linearGradient>
<linearGradient id="paint12_linear_60_78" x1="186.64" y1="94.6901" x2="178.72" y2="117.81" gradientUnits="userSpaceOnUse">
<stop stop-color="#58C0D6"/>
<stop offset="1" stop-color="#CEF8F2"/>
</linearGradient>
<linearGradient id="paint13_linear_60_78" x1="8484.05" y1="3170.83" x2="7375.25" y2="4806.19" gradientUnits="userSpaceOnUse">
<stop stop-color="#58C0D6"/>
<stop offset="1" stop-color="#CEF8F2"/>
</linearGradient>
<linearGradient id="paint14_linear_60_78" x1="2121.1" y1="159.035" x2="2120.24" y2="170.928" gradientUnits="userSpaceOnUse">
<stop stop-color="#58C0D6"/>
<stop offset="1" stop-color="#CEF8F2"/>
</linearGradient>
<linearGradient id="paint15_linear_60_78" x1="118148" y1="43761.9" x2="118648" y2="72565.4" gradientUnits="userSpaceOnUse">
<stop stop-color="#9E38FF"/>
<stop offset="0.06" stop-color="#9538FF"/>
<stop offset="0.33" stop-color="#7438FF"/>
<stop offset="0.58" stop-color="#5C38FF"/>
<stop offset="0.81" stop-color="#4D38FF"/>
<stop offset="1" stop-color="#4838FF"/>
</linearGradient>
<linearGradient id="paint16_linear_60_78" x1="633.172" y1="421.231" x2="633.173" y2="421.249" gradientUnits="userSpaceOnUse">
<stop stop-color="#9E38FF"/>
<stop offset="0.06" stop-color="#9538FF"/>
<stop offset="0.33" stop-color="#7438FF"/>
<stop offset="0.58" stop-color="#5C38FF"/>
<stop offset="0.81" stop-color="#4D38FF"/>
<stop offset="1" stop-color="#4838FF"/>
</linearGradient>
<linearGradient id="paint17_linear_60_78" x1="493.46" y1="321.89" x2="231.69" y2="448.27" gradientUnits="userSpaceOnUse">
<stop stop-color="#000C4F"/>
<stop offset="0.03" stop-color="#2E386F" stop-opacity="0.9"/>
<stop offset="0.07" stop-color="#6E759B" stop-opacity="0.76"/>
<stop offset="0.13" stop-color="#A4A8C0" stop-opacity="0.64"/>
<stop offset="0.19" stop-color="#CDCFDC" stop-opacity="0.55"/>
<stop offset="0.26" stop-color="#EAEBF0" stop-opacity="0.49"/>
<stop offset="0.35" stop-color="#FAFAFC" stop-opacity="0.45"/>
<stop offset="0.56" stop-color="white" stop-opacity="0.44"/>
</linearGradient>
<linearGradient id="paint18_linear_60_78" x1="271.25" y1="401.57" x2="274.86" y2="481.6" gradientUnits="userSpaceOnUse">
<stop stop-color="#000C4F"/>
<stop offset="1" stop-color="#000C4F" stop-opacity="0"/>
</linearGradient>
<linearGradient id="paint19_linear_60_78" x1="359.25" y1="377.38" x2="336.79" y2="183.15" gradientUnits="userSpaceOnUse">
<stop offset="0.07" stop-color="white" stop-opacity="0.44"/>
<stop offset="0.1" stop-color="#E4DCFF" stop-opacity="0.37"/>
<stop offset="0.14" stop-color="#C2AFFF" stop-opacity="0.27"/>
<stop offset="0.18" stop-color="#A68BFF" stop-opacity="0.19"/>
<stop offset="0.23" stop-color="#9372FF" stop-opacity="0.14"/>
<stop offset="0.28" stop-color="#8863FF" stop-opacity="0.11"/>
<stop offset="0.35" stop-color="#845EFF" stop-opacity="0.1"/>
</linearGradient>
<linearGradient id="paint20_linear_60_78" x1="19009.1" y1="9688.18" x2="21452.3" y2="9688.18" gradientUnits="userSpaceOnUse">
<stop stop-color="#58C0D6"/>
<stop offset="1" stop-color="#CEF8F2"/>
</linearGradient>
<linearGradient id="paint21_linear_60_78" x1="404.08" y1="270.76" x2="475.42" y2="270.76" gradientUnits="userSpaceOnUse">
<stop stop-color="#36B5C6"/>
<stop offset="0.14" stop-color="#38B6C7"/>
<stop offset="0.19" stop-color="#3FB8CA"/>
<stop offset="0.23" stop-color="#4ABCD0"/>
<stop offset="0.25" stop-color="#58C0D6"/>
<stop offset="0.58" stop-color="#5AC1D6"/>
<stop offset="0.69" stop-color="#61C4D8"/>
<stop offset="0.78" stop-color="#6CCADB"/>
<stop offset="0.85" stop-color="#7DD2DF"/>
<stop offset="0.9" stop-color="#93DCE4"/>
<stop offset="0.95" stop-color="#AEE9EA"/>
<stop offset="1" stop-color="#CEF8F2"/>
</linearGradient>
<linearGradient id="paint22_linear_60_78" x1="413.53" y1="269.5" x2="403.89" y2="268.43" gradientUnits="userSpaceOnUse">
<stop stop-color="#36B5C6"/>
<stop offset="0.14" stop-color="#38B6C7"/>
<stop offset="0.19" stop-color="#3FB8CA"/>
<stop offset="0.23" stop-color="#4ABCD0"/>
<stop offset="0.25" stop-color="#58C0D6"/>
<stop offset="0.29" stop-color="#63C5D9"/>
<stop offset="0.44" stop-color="#89D7E2"/>
<stop offset="0.58" stop-color="#A7E6E9"/>
<stop offset="0.73" stop-color="#BDF0EE"/>
<stop offset="0.87" stop-color="#CAF6F1"/>
<stop offset="1" stop-color="#CEF8F2"/>
</linearGradient>
<linearGradient id="paint23_linear_60_78" x1="485.86" y1="374.5" x2="446.53" y2="547.56" gradientUnits="userSpaceOnUse">
<stop stop-color="#250B71"/>
<stop offset="0.13" stop-color="#230B6A"/>
<stop offset="0.32" stop-color="#1C0B55"/>
<stop offset="0.55" stop-color="#120B35"/>
<stop offset="0.73" stop-color="#080B16"/>
</linearGradient>
</defs>
</svg>
