<svg width="675" height="594" viewBox="0 0 675 594" fill="none" xmlns="http://www.w3.org/2000/svg">
<g filter="url(#filter0_f_60_78)">
<path d="M188.7 401.297C168.15 387.067 148.7 372.517 134.7 359.547C130.185 355.441 125.943 351.045 122 346.387C122.841 346.095 123.73 345.966 124.62 346.007C124.62 346.007 176.03 391.387 182.08 395.107C184.75 396.611 187.021 398.734 188.7 401.297Z" fill="#EC5076"/>
</g>
<path d="M626.75 109.61V283.13C626.75 310.744 604.364 333.13 576.75 333.13H153.49C125.876 333.13 103.49 310.744 103.49 283.13V109.61C103.488 104.672 104.46 99.7818 106.349 95.2193C108.238 90.6569 111.008 86.5114 114.5 83.0196C117.991 79.5279 122.137 76.7583 126.699 74.8692C131.262 72.9801 136.152 72.0085 141.09 72.0098H589.16C594.097 72.0098 598.986 72.9824 603.547 74.8721C608.108 76.7618 612.253 79.5315 615.743 83.0232C619.234 86.5148 622.003 90.6598 623.891 95.2216C625.78 99.7834 626.751 104.673 626.75 109.61Z" fill="url(#paint0_linear_60_78)"/>
<path d="M69.59 307.932H69.82C69.82 307.932 72.57 271.272 98.46 264.962C124.35 258.652 136.77 305.582 152.56 310.642C168.35 315.702 194.03 242.862 217.39 252.962C240.75 263.062 298.22 281.382 319.11 284.532C340 287.682 332.37 262.432 348.79 266.222C365.21 270.012 385.42 285.802 430.25 284.532C475.08 283.262 593.11 283.932 593.11 283.932L592.969 300.635C592.737 328.083 570.42 350.212 542.971 350.212H111.284C88.0273 350.212 69.2655 331.187 69.59 307.932Z" fill="url(#paint1_linear_60_78)"/>
<path opacity="0.22" d="M136.97 150.24C138.367 150.24 139.5 149.107 139.5 147.71C139.5 146.312 138.367 145.18 136.97 145.18C135.573 145.18 134.44 146.312 134.44 147.71C134.44 149.107 135.573 150.24 136.97 150.24Z" fill="white"/>
<path opacity="0.22" d="M173.81 228.13C175.207 228.13 176.34 226.997 176.34 225.6C176.34 224.203 175.207 223.07 173.81 223.07C172.413 223.07 171.28 224.203 171.28 225.6C171.28 226.997 172.413 228.13 173.81 228.13Z" fill="white"/>
<path opacity="0.61" d="M173.92 226.44C174.329 226.44 174.66 226.109 174.66 225.7C174.66 225.291 174.329 224.96 173.92 224.96C173.511 224.96 173.18 225.291 173.18 225.7C173.18 226.109 173.511 226.44 173.92 226.44Z" fill="white"/>
<path opacity="0.61" d="M338.94 282.01C339.348 282.01 339.68 281.678 339.68 281.27C339.68 280.861 339.348 280.53 338.94 280.53C338.531 280.53 338.2 280.861 338.2 281.27C338.2 281.678 338.531 282.01 338.94 282.01Z" fill="white"/>
<path opacity="0.61" d="M162.13 87.0899C162.538 87.0899 162.87 86.7586 162.87 86.3499C162.87 85.9412 162.538 85.6099 162.13 85.6099C161.721 85.6099 161.39 85.9412 161.39 86.3499C161.39 86.7586 161.721 87.0899 162.13 87.0899Z" fill="white"/>
<path opacity="0.61" d="M346 85.6196C346.409 85.6196 346.74 85.2883 346.74 84.8796C346.74 84.471 346.409 84.1396 346 84.1396C345.591 84.1396 345.26 84.471 345.26 84.8796C345.26 85.2883 345.591 85.6196 346 85.6196Z" fill="white"/>
<path opacity="0.22" d="M212.96 123.93C214.357 123.93 215.49 122.797 215.49 121.4C215.49 120.002 214.357 118.87 212.96 118.87C211.563 118.87 210.43 120.002 210.43 121.4C210.43 122.797 211.563 123.93 212.96 123.93Z" fill="white"/>
<path opacity="0.22" d="M277.16 230.23C278.557 230.23 279.69 229.097 279.69 227.7C279.69 226.303 278.557 225.17 277.16 225.17C275.763 225.17 274.63 226.303 274.63 227.7C274.63 229.097 275.763 230.23 277.16 230.23Z" fill="white"/>
<path opacity="0.22" d="M346 87.52C347.397 87.52 348.53 86.3872 348.53 84.99C348.53 83.5927 347.397 82.46 346 82.46C344.603 82.46 343.47 83.5927 343.47 84.99C343.47 86.3872 344.603 87.52 346 87.52Z" fill="white"/>
<path opacity="0.22" d="M152.24 162.66C152.88 162.66 153.4 162.14 153.4 161.5C153.4 160.859 152.88 160.34 152.24 160.34C151.599 160.34 151.08 160.859 151.08 161.5C151.08 162.14 151.599 162.66 152.24 162.66Z" fill="white"/>
<path opacity="0.22" d="M344.84 86.0397C345.48 86.0397 346 85.5204 346 84.8797C346 84.2391 345.48 83.7197 344.84 83.7197C344.199 83.7197 343.68 84.2391 343.68 84.8797C343.68 85.5204 344.199 86.0397 344.84 86.0397Z" fill="white"/>
<path opacity="0.22" d="M310.32 131.3C310.96 131.3 311.48 130.781 311.48 130.14C311.48 129.499 310.96 128.98 310.32 128.98C309.679 128.98 309.16 129.499 309.16 130.14C309.16 130.781 309.679 131.3 310.32 131.3Z" fill="white"/>
<path opacity="0.22" d="M133.92 237.39C134.56 237.39 135.08 236.87 135.08 236.23C135.08 235.589 134.56 235.07 133.92 235.07C133.279 235.07 132.76 235.589 132.76 236.23C132.76 236.87 133.279 237.39 133.92 237.39Z" fill="white"/>
<path opacity="0.22" d="M347.78 257.17C348.42 257.17 348.94 256.65 348.94 256.01C348.94 255.369 348.42 254.85 347.78 254.85C347.139 254.85 346.62 255.369 346.62 256.01C346.62 256.65 347.139 257.17 347.78 257.17Z" fill="white"/>
<path opacity="0.22" d="M565.65 231.91C566.29 231.91 566.81 231.39 566.81 230.75C566.81 230.109 566.29 229.59 565.65 229.59C565.009 229.59 564.49 230.109 564.49 230.75C564.49 231.39 565.009 231.91 565.65 231.91Z" fill="white"/>
<path opacity="0.22" d="M602.69 227.49C603.33 227.49 603.85 226.971 603.85 226.33C603.85 225.689 603.33 225.17 602.69 225.17C602.049 225.17 601.53 225.689 601.53 226.33C601.53 226.971 602.049 227.49 602.69 227.49Z" fill="white"/>
<path opacity="0.22" d="M605.01 249.38C605.65 249.38 606.17 248.86 606.17 248.22C606.17 247.579 605.65 247.06 605.01 247.06C604.369 247.06 603.85 247.579 603.85 248.22C603.85 248.86 604.369 249.38 605.01 249.38Z" fill="white"/>
<path opacity="0.22" d="M136.87 148.77C137.51 148.77 138.03 148.25 138.03 147.61C138.03 146.969 137.51 146.45 136.87 146.45C136.229 146.45 135.71 146.969 135.71 147.61C135.71 148.25 136.229 148.77 136.87 148.77Z" fill="white"/>
<path opacity="0.22" d="M213.07 122.46C213.71 122.46 214.23 121.94 214.23 121.3C214.23 120.659 213.71 120.14 213.07 120.14C212.429 120.14 211.91 120.659 211.91 121.3C211.91 121.94 212.429 122.46 213.07 122.46Z" fill="white"/>
<path opacity="0.22" d="M201.07 211.07C201.71 211.07 202.23 210.551 202.23 209.91C202.23 209.269 201.71 208.75 201.07 208.75C200.429 208.75 199.91 209.269 199.91 209.91C199.91 210.551 200.429 211.07 201.07 211.07Z" fill="white"/>
<path d="M308.7 511.03C279.19 547.32 270.5 498 201.64 514.29C196.55 477.93 191.41 437.09 194.64 414.22C194.863 412.809 195.197 411.418 195.64 410.06C197.351 405.095 199.834 400.431 203 396.24C207.71 389.71 213.3 383.96 216.86 380.02L217.12 379.8C219.552 377.752 222.125 375.878 224.82 374.19L291.41 386.71L291.02 416.54L308.7 511.03Z" fill="#000C4F"/>
<path d="M260.29 463.09C260.29 463.09 257.03 436.09 243.53 423.53C230.03 410.97 197.41 410.29 197.41 410.29C196.816 410.247 196.225 410.17 195.64 410.06C197.351 405.095 199.834 400.431 203 396.24C219.41 398.87 246.24 413.02 260.75 435.12C281.23 466.35 260.29 463.09 260.29 463.09Z" fill="#000B38"/>
<path d="M259.5 516C260.01 512.48 259.36 456.57 259.36 456.57L267.73 452.28L276.5 519.5C276.5 519.5 276.5 522 276.5 522.5L259.5 516Z" fill="#000930"/>
<path d="M291.88 386.8L291.6 415.44L291.16 416.34C291.16 416.34 286.35 433.34 270.06 449.59C262.84 456.81 259.36 456.59 259.36 456.59C259.36 456.59 260.29 442.16 248.65 424.94C239 410.66 205.39 407.42 196.52 408.18C199.31 397.01 210.22 387.41 216.86 380.08C219.382 377.946 222.056 375.998 224.86 374.25L291.41 386.71L291.88 386.8Z" fill="#250B71"/>
<path d="M198.62 408.51C194.19 425.39 203.03 514.29 201.62 514.29C196.53 477.93 191.38 439.35 194.62 414.22C196.02 399.79 210.33 386.64 216.97 379.3C217.06 379.23 217.81 379.84 217.9 379.77C219.49 380.94 219.81 381.86 219.81 381.92C219.81 381.98 203.06 391.64 198.62 408.51Z" fill="#EC5076"/>
<g filter="url(#filter1_f_60_78)">
<path d="M192.01 408.216C187.58 425.096 196.42 513.996 195.01 513.996C189.92 477.636 184.77 439.056 188.01 413.926C189.41 399.496 203.72 386.346 210.36 379.006C210.45 378.936 211.2 379.546 211.29 379.476C212.88 380.646 213.2 381.566 213.2 381.626C213.2 381.686 196.45 391.346 192.01 408.216Z" fill="#EC5076"/>
</g>
<rect x="177" y="425" width="142" height="104" fill="url(#paint2_linear_60_78)"/>
<path d="M337.58 320.31C337.58 320.31 342.36 342.31 321.31 339.44C303.08 336.96 280.96 293.44 254.31 254.31C253.31 248.57 257.09 235.19 277.93 235.94C293.01 240.8 319.41 281.96 337.58 320.31Z" fill="#000C4F"/>
<path d="M301.521 292.09C297.991 325.78 291.941 386.75 291.941 386.75L291.881 386.8C290.501 387.94 287.401 389.86 280.511 391.42C273.992 392.769 267.365 393.535 260.711 393.71C245.461 394.34 231.041 392.18 216.861 378.66C216.491 358.76 209.781 331.28 200.701 300.95C179.111 295.95 172.121 271.78 185.291 252.39C194.994 247.985 204.944 244.145 215.091 240.89C229.181 236.47 242.391 234.04 255.351 233.89C262.985 233.803 270.607 234.548 278.081 236.11V236.17L278.151 236.27C278.151 236.27 278.151 236.27 278.151 236.35C280.311 239.69 303.141 276.59 301.521 292.09Z" fill="#876CD1"/>
<path d="M260.891 394.18C250.949 396.223 240.605 394.693 231.681 389.86C230.034 388.997 228.432 388.052 226.881 387.03C224.431 385.396 222.092 383.603 219.881 381.66C218.951 380.86 218.021 380.01 217.091 379.13C216.811 363.83 210.201 343.61 203.091 321.29C201.261 315.6 199.391 309.76 197.581 303.83C197.481 303.51 197.381 303.19 197.291 302.83L196.621 300.61C192.936 299.814 189.46 298.25 186.421 296.02C174.421 287.02 174.281 268.43 184.981 252.67C190.331 250.28 196.211 247.67 201.271 245.67C206.121 243.8 210.601 242.47 215.271 241.02L216.161 241.96C228.231 254.87 254.211 283.48 256.701 303.39V303.61C258.771 321.12 263.761 364.78 260.891 394.18Z" fill="#FF6490"/>
<path d="M263.681 396.97C248.681 399.97 234.021 395.44 219.841 381.92C219.471 362.02 208.391 333.76 199.311 303.43C177.721 298.43 174.511 273.01 187.671 253.63C193.021 251.24 197.511 249.06 202.571 247.11C207.411 245.24 211.431 243.44 216.071 241.99C227.701 254.39 256.801 285.81 259.361 306.23C259.356 306.3 259.356 306.37 259.361 306.44C261.571 323.92 266.561 367.57 263.681 396.97Z" fill="#250B71"/>
<path d="M302.181 295.049C299.841 322.379 293.181 370.539 291.881 386.799C290.501 387.939 287.401 389.859 280.511 391.419C283.891 366.419 298.201 321.419 295.661 298.779C295.571 297.939 295.351 296.259 295.071 294.419C294.641 291.489 294.071 288.159 293.801 287.139C287.801 266.859 274.021 244.079 266.801 235.009C268.621 235.459 268.391 234.419 274.451 235.439L274.891 235.509C275.951 235.699 277.021 235.909 278.081 236.129V236.189L278.151 236.289C278.151 236.289 278.151 236.289 278.151 236.369C280.411 239.679 304.511 274.569 302.181 295.049Z" fill="#250B71"/>
<path d="M202.571 249.439C203.571 250.439 236.271 288.069 236.571 299.709C237.031 319.259 248.671 320.649 253.791 321.589C255.191 328.589 262.631 384.429 252.861 388.589C243.091 392.749 223.561 393.339 223.081 377.939C222.601 362.539 215.151 331.339 206.311 315.939C201.801 308.099 185.831 255.429 185.831 255.429C185.831 255.429 196.981 249.439 202.571 249.439Z" fill="#000C4F"/>
<path d="M288.211 269.92L287.751 271.31L249.581 278.31C239.188 265.07 227.997 252.476 216.071 240.6V239.24L223.961 236.92C223.961 236.92 224.861 237.73 226.461 238.92C231.371 242.47 242.931 249.29 255.561 245.92C267.181 242.77 264.691 236.15 263.501 233.98C263.251 233.54 263.061 233.27 263.061 233.27H268.181C275.338 244.748 281.839 256.624 287.651 268.84L287.791 269.14C287.791 269.24 287.871 269.32 287.911 269.4L288.121 269.89L288.211 269.92Z" fill="#937CE8"/>
<path d="M288.211 269.92L287.751 271.78L249.581 278.3C239.188 265.06 227.997 252.467 216.071 240.59V239.24C227.701 249.48 239.301 263.08 250.071 276.47L250.441 276.41H250.631H250.841C255.281 275.52 277.761 271.59 288.211 269.92Z" fill="#6E57C1"/>
<path d="M223.981 236.87C223.981 236.87 224.881 237.68 226.481 238.87C225.6 238.957 224.715 239.001 223.831 239C221.249 238.843 218.659 238.917 216.091 239.22L223.981 236.87Z" fill="#BDB0FF"/>
<path d="M268.201 233.149L263.521 233.849C263.386 233.609 263.239 233.375 263.081 233.149H268.201Z" fill="#BDB0FF"/>
<path d="M218.861 375.12C218.861 375.58 235.861 386.02 245.861 385.36C256.331 384.66 250.071 328.15 250.051 328.1" stroke="#250B71" stroke-width="0.47" stroke-miterlimit="10"/>
<path d="M245.621 324.15C245.621 324.15 251.621 378.15 244.231 381.4C236.841 384.65 219.091 371.16 219.091 371.16" stroke="#250B71" stroke-width="0.47" stroke-miterlimit="10"/>
<path d="M241.411 320.89C241.411 320.89 247.471 375.81 241.881 377.68C234.601 380.1 218.611 366.97 218.611 366.97" stroke="#250B71" stroke-width="0.47" stroke-miterlimit="10"/>
<path d="M222.351 369.76L216.761 366.04" stroke="#4E2391" stroke-width="0.47" stroke-miterlimit="10"/>
<path d="M222.601 373.69L217.231 370.23" stroke="#4E2391" stroke-width="0.47" stroke-miterlimit="10"/>
<path d="M218.631 371.16L217.231 370.23" stroke="#F3B0C3" stroke-width="0.47" stroke-miterlimit="10"/>
<path d="M218.161 366.97L216.761 366.04" stroke="#F3B0C3" stroke-width="0.47" stroke-miterlimit="10"/>
<path d="M223.041 377.84L217.921 374.59" stroke="#4E2391" stroke-width="0.47" stroke-miterlimit="10"/>
<path d="M219.091 375.35L217.691 374.42" stroke="#F3B0C3" stroke-width="0.47" stroke-miterlimit="10"/>
<path d="M205.861 315.24C205.417 316.614 204.865 317.952 204.211 319.24C203.841 319.95 203.431 320.66 202.991 321.36C201.161 315.67 199.291 309.83 197.481 303.9V303.04L200.271 300.69L206.271 295.61C207.911 302.07 207.769 308.854 205.861 315.24Z" fill="#000B38"/>
<path d="M237.011 250.83L253.301 270.83L281.231 266.24L269.601 245.24C269.601 245.24 262.151 255.95 237.011 250.83Z" fill="#000C4F"/>
<path d="M288.221 269.92L287.751 271.78L249.581 278.3L250.051 276.43L250.421 276.37L250.611 276.34L250.821 276.3L288.221 269.92Z" fill="#5A48B7"/>
<path d="M246.471 269.84L284.411 263.56" stroke="#937CE8" stroke-width="0.47" stroke-miterlimit="10"/>
<path d="M244.141 267.98L282.081 261.7" stroke="#937CE8" stroke-width="0.47" stroke-miterlimit="10"/>
<path d="M243.701 265.59L279.291 259.84" stroke="#937CE8" stroke-width="0.47" stroke-miterlimit="10"/>
<path d="M242.431 263.489L276.961 257.979" stroke="#937CE8" stroke-width="0.47" stroke-miterlimit="10"/>
<path d="M238.091 261.929L276.031 255.649" stroke="#937CE8" stroke-width="0.47" stroke-miterlimit="10"/>
<path d="M236.691 259.6L274.631 253.32" stroke="#937CE8" stroke-width="0.47" stroke-miterlimit="10"/>
<path d="M235.301 257.28L273.231 250.99" stroke="#937CE8" stroke-width="0.47" stroke-miterlimit="10"/>
<path d="M234.371 255.42L272.301 249.13" stroke="#937CE8" stroke-width="0.47" stroke-miterlimit="10"/>
<path d="M232.971 253.55L270.911 247.27" stroke="#937CE8" stroke-width="0.47" stroke-miterlimit="10"/>
<path opacity="0.44" d="M250.411 276.37C263.751 262.68 269.341 248.24 268.191 233.14C275.348 244.618 281.849 256.494 287.661 268.71L287.801 269.01L287.921 269.27L288.131 269.76L288.201 269.92L250.411 276.37Z" fill="url(#paint3_linear_60_78)"/>
<path d="M222.78 239C223.91 235.004 224.624 230.902 224.91 226.76C225.66 216.63 224.15 205.84 220.91 194.99C236.13 189.99 250.18 189.14 262.04 195.99C261.92 198.3 261.8 200.5 261.69 202.61C261.53 205.74 261.39 208.61 261.32 211.38C261.27 213.38 261.25 215.38 261.32 217.19C261.349 220.205 261.606 223.214 262.09 226.19C262.593 229.316 263.56 232.35 264.96 235.19C269.66 248.57 241.91 252.39 222.78 239Z" fill="#FAE8EE"/>
<path d="M261.65 202.57C261.49 205.7 261.35 208.57 261.28 211.34C255.28 212.34 248.05 212.11 242.13 208.47C235.41 204.34 234.68 200.56 234.68 200.56C234.68 200.56 254.23 202.89 260.29 202.42C260.749 202.385 261.21 202.436 261.65 202.57Z" fill="#000C4F"/>
<path d="M262.85 243.45C256.02 249.39 237.02 248.97 222.78 239C223.91 235.004 224.624 230.902 224.91 226.76C231.14 228.63 240.91 231.06 247.72 230.35C251.199 229.998 254.619 229.208 257.9 228C259.305 227.497 260.677 226.909 262.01 226.24C262.513 229.366 263.48 232.399 264.88 235.24C265.467 236.645 265.586 238.202 265.221 239.68C264.855 241.158 264.024 242.48 262.85 243.45Z" fill="#000C4F"/>
<path d="M262.85 243.45C260.99 242.08 259.01 233.45 257.9 228C259.305 227.497 260.677 226.909 262.01 226.24C262.513 229.366 263.48 232.399 264.88 235.24C265.467 236.645 265.586 238.202 265.221 239.68C264.855 241.158 264.024 242.48 262.85 243.45Z" fill="#250B71"/>
<path opacity="0.43" d="M224.68 239.43C225.61 237.57 226.54 232.91 227 228.26L231.19 229.19C230.76 233.66 229.33 239.43 228.87 241.76C230.91 242.859 233.105 243.641 235.38 244.08L236.31 230.08" stroke="#876CD1" stroke-width="0.47" stroke-miterlimit="10" stroke-linecap="round"/>
<path d="M614 318.5C614 318.5 602.01 335.35 567.43 333.16C535.87 331.16 496.16 325.45 459.66 311.09C409.41 291.24 463.41 250.65 384.31 250.24C332 249.97 334.43 166.9 301.79 174.89C282.01 179.73 270.53 174.05 270.53 174.05C270.53 167.16 269.75 154.25 266.8 150.31C266.8 150.31 285.8 153.25 303.69 149C384.94 129.72 355.5 78.63 399.07 72H587.72C593.714 73.09 599.605 74.6857 605.33 76.77C608.419 77.9402 611.346 79.4995 614.04 81.41C618.041 84.9354 621.244 89.2733 623.435 94.1343C625.627 98.9953 626.757 104.268 626.75 109.6L627.01 165.6C618.8 198.43 584.7 186.43 550.01 207.48C506.54 233.83 550.77 266.87 592.31 260.32C620.18 255.92 626.79 288 626.79 288C626.49 289.36 625.5 295 624 299.5C618.5 313.5 614 318.5 614 318.5Z" fill="url(#paint4_linear_60_78)"/>
<path d="M263.03 165.23C263.03 165.23 265.46 174 282.74 173.71C295.16 173.5 305.05 168.45 314.53 172.24C328.41 177.78 344.21 220.65 356.84 234.96C373.59 253.95 397.09 242.81 417.67 250.12C433.67 255.8 437.92 271.44 440.82 289.9C443.72 308.36 474.33 310.98 521.13 322.42C569.33 334.21 625.53 327.69 625.53 327.69C633.52 326.627 650.5 324.5 658 321.5" stroke="url(#paint5_linear_60_78)" stroke-width="2.1" stroke-miterlimit="10"/>
<path d="M270.54 153.9C270.54 153.9 289.48 158.97 319.54 148.9C349.6 138.83 361.22 123.9 366.48 113.75C371.74 103.6 371.67 98.69 379.11 90.17C386.794 81.304 397.396 75.4797 409 73.75" stroke="url(#paint6_linear_60_78)" stroke-width="2.1" stroke-miterlimit="10"/>
<path d="M269.26 159.18C281.158 160.307 293.15 159.921 304.95 158.03C323.89 154.87 342.63 148.13 356.1 136.35C369.57 124.57 372.97 107.95 380.31 97.2401C392.52 79.3501 423.46 75.5601 423.46 75.5601" stroke="url(#paint7_linear_60_78)" stroke-width="2.1" stroke-miterlimit="10"/>
<path d="M263.03 165.24C263.03 165.24 267.28 167.7 278.22 168.76C289.16 169.82 302.68 164.13 315.68 168.13C332.73 173.39 352.68 228.96 366.83 237.59C380.98 246.22 411.1 240.56 421.98 246.22C442.61 256.96 440.56 280.41 449.98 294.67C461.35 311.9 510.82 311.71 544.49 319.9C578.16 328.09 624.9 319.69 624.9 319.69C637.267 317.46 664.4 311.8 674 307" stroke="url(#paint8_linear_60_78)" stroke-width="2.1" stroke-miterlimit="10"/>
<path d="M582.971 329.87L578.351 337.79V323.6L583.301 315.01V267.8C583.751 261.14 586.511 256.28 589.741 251.8C593.447 255.96 595.657 261.24 596.021 266.8L596.351 311.04L601.961 322.6V336.6L596.681 329.24H586.611L583.801 337.66L582.971 329.87Z" fill="#080B16"/>
<path d="M258.181 208.39C244.721 211.88 213.261 201.81 206.761 181.48C199.101 157.56 220.931 137.72 234.411 134.24C247.061 130.96 261.291 143.06 267.411 161.68C267.801 162.87 268.161 164.09 268.481 165.34C269.262 168.336 269.889 171.37 270.361 174.43C272.911 191.31 269.621 205.43 258.181 208.39Z" fill="#FAE8EE"/>
<path d="M270.331 174.43C266.961 174.36 260.251 174.31 256.561 174.96C248.651 176.36 237.481 176.82 224.561 190.6C221.231 187.06 212.851 168.91 232.861 164.25C245.941 161.25 260.011 157.98 267.421 161.68C267.811 162.87 268.171 164.09 268.491 165.34C269.258 168.337 269.872 171.37 270.331 174.43Z" fill="#F3B0C3"/>
<path d="M266.791 151.95C263.004 152.064 259.229 152.429 255.491 153.04C253.981 153.27 252.321 153.54 250.491 153.87C239.961 155.78 227.491 160.56 227.491 160.56C222.221 165.82 231.791 173.47 226.051 187.82C223.811 193.44 220.791 186.39 217.921 185.43C215.051 184.47 220.281 192.08 223.181 197.43C223.281 197.6 223.371 197.78 223.461 197.95C223.551 198.12 223.621 198.27 223.701 198.43L224.011 199.07L224.281 199.67C224.371 199.87 224.461 200.06 224.531 200.26C224.601 200.46 224.731 200.73 224.811 200.96C224.891 201.19 224.911 201.21 224.951 201.34C225.071 201.65 225.161 201.94 225.251 202.24C225.251 202.35 225.321 202.47 225.351 202.58C225.401 202.72 225.441 202.864 225.471 203.01C225.531 203.2 225.571 203.38 225.611 203.56C225.651 203.74 225.691 203.87 225.721 204.02L225.781 204.35C225.781 204.47 225.831 204.6 225.851 204.72L225.911 205.12C226.284 207.181 226.001 209.308 225.101 211.2C224.89 211.617 224.624 212.004 224.311 212.35C224.311 212.35 220.221 210.09 213.551 203.91C212.551 202.91 211.401 201.91 210.241 200.72L209.831 200.31C201.661 191.9 202.591 185.22 202.591 172.99C202.618 171.192 202.887 169.406 203.391 167.68C206.661 155.75 218.851 141.42 218.851 141.42C220.994 139.048 223.442 136.97 226.131 135.24C231.871 131.41 239.531 129.5 251.961 132.37C261.331 134.53 264.961 144.59 266.241 149.37C266.641 150.94 266.791 151.95 266.791 151.95Z" fill="url(#paint9_linear_60_78)"/>
<path opacity="0.46" d="M263.171 148.04C263.171 148.04 262.491 136.12 249.091 133.3C243.783 132.195 238.289 132.356 233.055 133.768C227.821 135.18 222.992 137.805 218.961 141.43C221.07 139.062 223.48 136.981 226.131 135.24C231.871 131.41 239.521 129.5 251.961 132.37C261.331 134.53 264.961 144.59 266.241 149.37L263.171 148.04Z" fill="#EB86A0"/>
<path opacity="0.29" d="M225.211 211.24C225.003 211.659 224.737 212.046 224.421 212.39C224.421 212.39 218.961 209.39 210.351 200.77C201.741 192.15 202.701 185.46 202.701 173.02C202.729 171.225 202.998 169.443 203.501 167.72C202.032 175.138 202.92 182.831 206.041 189.72C211.771 202.14 225.201 203.14 225.211 211.24Z" fill="#876CD1"/>
<path opacity="0.26" d="M227.571 160.56C222.301 165.82 231.871 173.47 226.131 187.82C223.891 193.44 220.871 186.39 218.001 185.43C215.131 184.47 220.361 192.08 223.261 197.43C223.361 197.6 223.451 197.78 223.541 197.95C223.631 198.12 223.701 198.27 223.781 198.43L224.091 199.07L224.361 199.67C224.451 199.87 224.541 200.06 224.611 200.26C224.681 200.46 224.811 200.73 224.891 200.96C224.971 201.19 224.991 201.21 225.031 201.34C225.151 201.65 225.241 201.94 225.331 202.24C225.331 202.35 225.401 202.47 225.431 202.58C225.481 202.72 225.521 202.864 225.551 203.01C225.551 203.19 225.641 203.38 225.681 203.56C225.721 203.74 225.761 203.87 225.791 204.02L225.851 204.35C225.851 204.47 225.901 204.6 225.921 204.72L225.981 205.12C224.927 205.188 223.869 205.161 222.821 205.04C222.821 205.04 221.231 203.81 219.051 201.86C216.69 199.752 214.472 197.49 212.411 195.09C209.651 191.82 207.331 188.18 206.971 184.95C205.971 176.34 208.681 159.58 218.451 147.65C227.061 137.12 244.281 126.65 252.891 141.91C254.441 144.65 255.271 148.54 255.461 153.04C253.951 153.27 252.291 153.54 250.461 153.87C240.001 155.78 227.571 160.56 227.571 160.56Z" fill="url(#paint10_linear_60_78)"/>
<path d="M225.581 203.01C224.101 202.968 222.629 202.771 221.191 202.42C219.684 202.086 218.259 201.453 217.001 200.56L213.661 203.92C212.661 202.92 211.511 201.92 210.351 200.73L209.941 200.32C210.339 198.753 210.994 197.262 211.881 195.91C212.071 195.6 212.261 195.33 212.441 195.09C216.141 190.14 217.721 196.7 223.811 198.43L224.121 199.07L224.391 199.67C224.481 199.87 224.571 200.06 224.641 200.26C224.711 200.46 224.841 200.73 224.921 200.96C225.001 201.19 225.021 201.21 225.061 201.34C225.181 201.65 225.271 201.94 225.361 202.24C225.361 202.35 225.431 202.47 225.461 202.58C225.511 202.72 225.551 202.864 225.581 203.01Z" fill="#000C4F"/>
<path d="M232.85 179.65C227.11 188.26 217.61 196.44 212.34 203.82L206.76 196.37C209.421 188.958 212.455 181.686 215.85 174.58C217.3 176.92 218.85 178.37 219.6 177.98C220.6 177.5 220.72 174.98 219.32 172.17L218.39 170.31V169.49C220.06 166.24 221.22 164.15 221.39 164.35L232.85 179.65Z" fill="#000C4F"/>
<path d="M234.28 177.76C228.54 186.37 217.61 196.44 212.34 203.82C212.04 204.02 206.29 196.82 206.29 196.82C206.29 196.82 211.37 183.69 216.29 173.63C217.74 175.97 219.29 177.42 220.05 177.03C221.05 176.55 220.41 173.49 218.75 170.19L218.38 169.47C220.29 165.69 223.58 159.35 223.73 159.57L234.28 177.76Z" fill="url(#paint11_linear_60_78)"/>
<path d="M272.05 171.56C271.703 172.247 271.319 172.915 270.9 173.56C270.834 173.664 270.735 173.743 270.619 173.783C270.502 173.823 270.376 173.822 270.26 173.78C265.89 172.07 249.85 172.7 233.26 179.96C233.138 180.013 233.001 180.02 232.874 179.98C232.747 179.939 232.639 179.854 232.57 179.74L222.79 163.74C222.637 163.497 222.55 163.217 222.538 162.93C222.526 162.642 222.589 162.356 222.72 162.1L223.92 159.7C224.01 159.515 224.138 159.351 224.297 159.22C224.456 159.089 224.641 158.993 224.84 158.94C229.56 157.68 259.46 149.86 263.84 152.82C263.914 152.866 263.973 152.932 264.01 153.01C265.941 156.623 267.657 160.346 269.15 164.16C270.63 167.75 271.8 170.81 272.04 171.43C272.039 171.474 272.043 171.517 272.05 171.56Z" fill="#876CD1"/>
<path d="M272.05 171.56C271.649 172.379 271.184 173.165 270.66 173.91C270.644 173.922 270.625 173.929 270.605 173.929C270.585 173.929 270.566 173.922 270.55 173.91C266.65 172.05 250.19 172.54 233.18 180C233.08 180 233 179.94 233.06 179.85L235.68 176.35C236.45 176.02 260.33 165.63 269.08 164.2C270.96 163.91 272.08 164.01 272.26 164.71C272.695 166.993 272.61 169.345 272.01 171.59L272.05 171.56Z" fill="url(#paint12_linear_60_78)"/>
<path d="M270.59 171.16C264.22 169.96 247.01 171.47 235.94 176.71C235.613 176.866 235.241 176.893 234.895 176.788C234.549 176.682 234.254 176.451 234.07 176.14L224.61 159.8C224.483 159.58 224.416 159.33 224.416 159.075C224.416 158.821 224.483 158.571 224.61 158.35C228.32 151.99 243.61 146.62 254.37 146.68C260.05 146.68 266.01 148.97 267.97 150.33C268.139 150.447 268.279 150.601 268.38 150.78C271.45 156.22 272.68 165.21 272.3 169.88C272.283 170.081 272.223 170.276 272.126 170.453C272.028 170.629 271.894 170.783 271.732 170.904C271.571 171.025 271.385 171.11 271.189 171.154C270.992 171.198 270.788 171.2 270.59 171.16Z" fill="url(#paint13_linear_60_78)"/>
<path d="M246.7 149.08C246.7 149.08 255.79 147.64 258.7 148.6" stroke="url(#paint14_linear_60_78)" stroke-width="0.96" stroke-miterlimit="10" stroke-linecap="round"/>
<path d="M227.49 199.71C227.278 199.921 227.047 200.112 226.8 200.28C223.87 202.35 218.94 201.28 215.32 197.68C211.4 193.76 209.94 189.68 212.74 186.87C213.117 186.487 213.553 186.167 214.03 185.92C216.66 184.63 219.91 186.39 223.25 189.73C227.19 193.66 230.3 196.91 227.49 199.71Z" fill="#FAE8EE"/>
<path d="M226.8 200.24C223.87 202.31 218.94 201.24 215.32 197.64C211.4 193.72 209.94 189.64 212.74 186.83C213.117 186.447 213.553 186.127 214.03 185.88C213.38 186.4 211.52 189.15 214.2 194.01C215.407 196.216 217.263 197.997 219.518 199.112C221.772 200.226 224.314 200.62 226.8 200.24Z" fill="#F3B0C3"/>
<path d="M216.07 191.24C217 191.24 220.72 191.24 222.07 194.04C223.42 196.84 219.27 194.97 219.27 194.97C219.27 194.97 222.4 195.59 220.61 193.88C219.273 192.726 217.734 191.831 216.07 191.24Z" fill="#F3B0C3"/>
<path d="M200.78 300.24L162.52 329.88C147.21 342.31 123.3 351.88 124.26 328.88C124.53 328.44 124.9 327.88 125.34 327.24C130.06 320.24 143.34 302.24 149.49 295.95C169.98 275.04 173.71 258.24 185.34 252.24C204.41 244.24 225.52 279.37 200.78 300.24Z" fill="#000C4F"/>
<path d="M193.96 252.93C190.342 254.947 186.914 257.29 183.72 259.93C177.03 265.18 158.81 296.93 149.97 304.38C144.367 309.176 139.225 314.486 134.61 320.24" stroke="#4E2391" stroke-width="0.47" stroke-miterlimit="10"/>
<path d="M196.28 255.24C196.28 255.24 189.28 256.63 182.28 266.41C175.28 276.19 163.19 297.59 154.82 305.04C146.45 312.49 143.82 315.38 140.82 319.94" stroke="#4E2391" stroke-width="0.47" stroke-miterlimit="10"/>
<path d="M193.72 250.83L189.53 253.16C189.53 253.16 178.87 258.91 172.78 268.06C169.19 273.44 170.45 273.64 167.19 277.83C163.93 282.02 129.66 321.83 129.34 321.71C129.23 321.66 127.42 324.71 125.34 327.27C130.06 320.27 143.34 302.27 149.49 295.98C169.98 275.04 177.41 247.57 193.72 250.83Z" fill="#FF6490"/>
<path d="M202.7 406.87C201.58 406.11 200.48 405.34 199.37 404.58C178.82 390.35 159.37 375.8 145.37 362.83C140.869 358.723 136.64 354.327 132.71 349.67C126.09 341.67 122.83 334.67 124.37 329.5C132.37 315.5 139.96 317.5 150.43 318.33C156.43 318.79 157.55 325.33 160.81 331.52L161.4 332.31L203.85 389.58L206.11 392.58C215.64 400.24 215.41 406.24 202.7 406.87Z" fill="#482C99"/>
<path d="M135.33 349.29C134.77 349.72 134.22 350.11 133.68 350.45C119.01 336.85 122.04 335.99 124.41 328.1C127.16 323 129.96 319.65 132.65 317.53C142.2 310 150.45 318.12 150.36 318.2C131.81 335.08 142.55 343.77 135.33 349.29Z" fill="#000C4F"/>
<path d="M135.33 349.29C134.77 349.72 134.22 350.11 133.68 350.45C119.01 336.85 121.11 334.62 124.41 328.1C126.99 323.1 130.41 318.79 134.18 316.47C132.06 318.6 127.67 325.31 125.8 332.29C123.57 340.5 133.7 347.88 135.33 349.29Z" fill="#EC5076"/>
<path opacity="0.62" d="M204.01 390.08C204.01 390.08 181.62 363.48 175.57 355.08C170.444 347.754 165.717 340.156 161.41 332.32L203.86 389.59L204.01 390.08Z" fill="#EC5076"/>
<path d="M134.84 338.11C134.84 338.11 130.84 335.55 133.21 329.96C135.58 324.37 144.62 314.84 144.62 314.84" stroke="#4E2391" stroke-width="0.47" stroke-miterlimit="10"/>
<path d="M132.98 343.7C132.98 343.7 126.98 338.58 127.86 332.52C128.74 326.46 139.96 313.91 139.96 313.91" stroke="#4E2391" stroke-width="0.47" stroke-miterlimit="10"/>
<path d="M199.41 404.58C178.86 390.35 159.41 375.8 145.41 362.83C140.896 358.724 136.653 354.328 132.71 349.67C133.552 349.378 134.441 349.249 135.33 349.29C135.33 349.29 186.74 394.67 192.79 398.39C195.461 399.894 197.731 402.017 199.41 404.58Z" fill="#EC5076"/>
<path d="M134.84 346.49C135.354 346.49 135.77 346.074 135.77 345.56C135.77 345.046 135.354 344.63 134.84 344.63C134.327 344.63 133.91 345.046 133.91 345.56C133.91 346.074 134.327 346.49 134.84 346.49Z" stroke="#4E2391" stroke-width="0.47" stroke-miterlimit="10"/>
<path d="M136.7 339.97C137.214 339.97 137.63 339.554 137.63 339.04C137.63 338.526 137.214 338.11 136.7 338.11C136.187 338.11 135.77 338.526 135.77 339.04C135.77 339.554 136.187 339.97 136.7 339.97Z" stroke="#4E2391" stroke-width="0.47" stroke-miterlimit="10"/>
<path d="M310.79 333.7L304.04 260.24L302.18 239.95C302.062 238.663 302.157 237.366 302.46 236.11C304.58 227.48 316.86 228.11 319.4 239.95L337.57 320.3C339.49 338.49 325.14 345.18 310.79 333.7Z" fill="#482C99"/>
<path d="M304.23 244.88C304.08 244.88 304.05 255.59 304.04 260.25L302.18 239.96C302.062 238.673 302.157 237.376 302.46 236.12C302.722 236.427 302.919 236.784 303.04 237.17C304.04 240.59 304.41 244.97 304.23 244.88Z" fill="#EC5076"/>
<path d="M248.18 405.37C248.68 405.616 249.147 405.926 249.57 406.29C247.99 409.84 241.73 407.04 239.86 406.11L240.92 406.69C242.73 407.69 245.44 409.45 245.38 410.48C245.32 411.51 242.08 411.72 240.26 410.95C226.26 403.32 217.86 416.32 202.56 406.76C202.31 406.43 202.08 406.11 201.85 405.76C195.45 396.59 198.61 391.76 207.47 390.1C222.35 387.04 237.12 388.19 247.64 398.71L247.87 398.99C247.948 399.07 248.018 399.157 248.08 399.25C249.89 401.63 249.08 402.03 249.08 402.03C249.882 402.452 250.66 402.919 251.41 403.43C251.91 405.84 248.41 405.42 248.18 405.37Z" fill="#482C99"/>
<path d="M204.61 395.88C204.61 396.88 197.91 391.1 207.48 390.14C217.05 389.18 230.48 383.52 232.35 382.49C235.62 380.7 235.62 383.49 233.29 386.29C231.08 388.94 225.59 393.18 220.87 393.97C215.13 394.93 204.61 395.88 204.61 395.88Z" fill="#482C99"/>
<path d="M248.02 399.24C247.966 399.179 247.919 399.112 247.88 399.04C247.958 399.119 248.028 399.206 248.09 399.3C248.07 399.276 248.046 399.256 248.02 399.24Z" fill="#000C4F"/>
<path d="M234.86 395.24C236.33 395.92 246.86 400.78 248.18 401.24C249.5 401.7 248.44 399.84 248.11 399.39C249.92 401.77 249.11 402.17 249.11 402.17C249.11 402.17 236.3 395.92 234.86 395.24Z" fill="#000C4F"/>
<path d="M248.18 405.37L233.41 398.45C234.85 399.07 246.36 404 247.23 404.45C247.742 404.683 248.297 404.803 248.86 404.803C249.422 404.803 249.978 404.683 250.49 404.45C251.42 403.99 251.42 403.52 251.42 403.52C251.91 405.84 248.41 405.42 248.18 405.37Z" fill="#000C4F"/>
<path d="M249.58 406.3C248 409.85 241.74 407.05 239.87 406.12L240.93 406.7L240.33 406.42L231.92 401.66C232.47 401.91 241.4 405.94 243.06 406.77C243.76 407.172 244.537 407.42 245.34 407.5C246.144 407.579 246.955 407.487 247.72 407.23L249.58 406.3Z" fill="#000C4F"/>
<path d="M245.41 410.49C245.41 411.41 242.11 411.73 240.29 410.96C226.29 403.33 217.89 416.33 202.59 406.77C202.34 406.44 202.11 406.12 201.88 405.77C204.88 407.18 209.88 409.38 213.29 410C218.41 410.93 223.53 408.6 226.29 407.67C229.05 406.74 230.48 407.67 232.8 407.67C235.12 407.67 239.8 410 241.45 410.67C242.752 411.06 244.148 410.997 245.41 410.49Z" fill="#000C4F"/>
<path d="M335.691 215.46C334.691 222.08 329.921 225.61 324.181 233.26C318.441 240.91 320.311 239.54 320.361 243.78C320.411 248.02 305.051 245.69 305.051 245.69C305.051 245.69 304.701 245.57 304.231 244.88C303.611 243.97 302.771 242.08 302.231 238.2C301.331 232.02 300.471 231.41 301.711 224.35C301.841 223.58 302.001 222.74 302.181 221.81C304.091 212.25 304.971 211.81 305.901 206.18C306.691 201.46 305.271 196.66 307.301 197.33C308.701 197.8 310.561 200.46 310.561 205.25C310.561 210.04 310.091 211.76 310.791 214.16C310.971 214.776 311.205 215.375 311.491 215.95C313.991 212.5 317.011 210.32 317.491 209.38C318.441 207.46 318.441 200.76 319.401 195.02C320.361 189.28 320.191 185.91 322.271 186.42C322.622 186.916 322.911 187.453 323.131 188.02C323.131 188.02 323.131 184.77 324.521 184.3C325.921 184.3 326.381 188.02 326.381 188.02C326.381 188.02 326.741 182.54 328.711 185.7C331.041 189.42 331.041 194.08 331.501 197.8C331.611 198.62 332.411 208.21 332.131 209.17C333.48 205.943 334.518 202.594 335.231 199.17C336.231 195.34 336.111 194.07 338.021 193.11C339.931 192.15 336.631 209.24 335.691 215.46Z" fill="#482C99"/>
<path d="M311.021 235.47C311.84 232.191 313.439 229.159 315.681 226.63C319.401 222.44 327.311 217.78 327.781 216.85C328.762 215.078 329.851 213.369 331.041 211.73C328.904 212.92 326.893 214.323 325.041 215.92C323.591 217.32 311.491 222.9 311.021 235.47Z" fill="#250B71"/>
<path d="M304.231 244.88C303.611 243.97 302.771 242.08 302.231 238.2C301.331 232.02 300.471 231.41 301.711 224.35C301.401 226.36 301.565 228.414 302.191 230.35C303.591 234.08 304.521 236.35 304.521 236.35C304.521 236.35 305.041 242.67 304.231 244.88Z" fill="#EC5076"/>
<path opacity="0.36" d="M574 162C586.15 162 596 152.374 596 140.5C596 128.626 586.15 119 574 119C561.85 119 552 128.626 552 140.5C552 152.374 561.85 162 574 162Z" fill="white"/>
<path opacity="0.36" d="M574 141L548 138.031C548.338 130.442 552.349 123.704 560.71 118L574 141Z" fill="white"/>
<path opacity="0.36" d="M477.1 155H471V212.04H477.1V155Z" fill="white"/>
<path opacity="0.36" d="M485.1 171.84H479V212.04H485.1V171.84Z" fill="white"/>
<path opacity="0.36" d="M493.299 194.78H487.199V212.04H493.299V194.78Z" fill="white"/>
<path opacity="0.36" d="M501.719 161.32H495.619V212.05H501.719V161.32Z" fill="white"/>
<path opacity="0.36" d="M510.78 179.84H504.68V212.05H510.78V179.84Z" fill="white"/>
<path opacity="0.36" d="M436.31 120.1H382V165.99H436.31V120.1Z" stroke="white" stroke-width="0.21" stroke-miterlimit="10"/>
<path d="M387.47 120.52V165.36" stroke="white" stroke-width="0.21" stroke-miterlimit="10"/>
<path d="M391.89 120.21V165.04" stroke="white" stroke-width="0.21" stroke-miterlimit="10"/>
<path d="M396.52 120.42V165.25" stroke="white" stroke-width="0.21" stroke-miterlimit="10"/>
<path d="M401.15 120V164.83" stroke="white" stroke-width="0.21" stroke-miterlimit="10"/>
<path d="M406 120.63V165.46" stroke="white" stroke-width="0.21" stroke-miterlimit="10"/>
<path d="M411.05 120.42V165.25" stroke="white" stroke-width="0.21" stroke-miterlimit="10"/>
<path d="M415.89 120.42V165.25" stroke="white" stroke-width="0.21" stroke-miterlimit="10"/>
<path d="M420.73 120.42V165.25" stroke="white" stroke-width="0.21" stroke-miterlimit="10"/>
<path d="M425.78 120.84V165.68" stroke="white" stroke-width="0.21" stroke-miterlimit="10"/>
<path d="M430.83 120.63V165.46" stroke="white" stroke-width="0.21" stroke-miterlimit="10"/>
<g opacity="0.44" filter="url(#filter2_f_60_78)">
<path d="M540.28 381.621C465.19 381.371 368.04 405.861 288.42 453.421C287.774 453.805 287.037 454.011 286.285 454.017C285.533 454.023 284.793 453.83 284.141 453.457C283.488 453.084 282.946 452.544 282.57 451.893C282.194 451.242 281.997 450.503 282 449.751V357.521C281.999 356.409 282.258 355.311 282.756 354.316C283.254 353.322 283.978 352.457 284.87 351.792C341.37 309.612 495.87 283.681 543.68 294.431C545.288 294.8 546.719 295.713 547.73 297.017C548.742 298.32 549.272 299.932 549.23 301.582L547.43 374.662C547.388 376.527 546.615 378.302 545.278 379.603C543.941 380.905 542.146 381.63 540.28 381.621Z" fill="#6038FF"/>
</g>
<path opacity="0.44" d="M545.16 351.74C470.07 351.49 372.92 375.98 293.3 423.54C292.653 423.924 291.917 424.129 291.165 424.135C290.413 424.142 289.673 423.948 289.02 423.575C288.368 423.202 287.826 422.663 287.45 422.012C287.074 421.361 286.877 420.622 286.88 419.87V327.64C286.878 326.527 287.137 325.43 287.636 324.435C288.134 323.44 288.858 322.575 289.75 321.91C346.25 279.73 500.75 253.8 548.56 264.55C550.168 264.919 551.599 265.832 552.61 267.135C553.622 268.438 554.151 270.051 554.11 271.7L552.31 344.78C552.268 346.646 551.495 348.42 550.158 349.722C548.821 351.024 547.026 351.748 545.16 351.74Z" fill="white"/>
<path d="M544.17 352.68C469.09 352.42 371.93 376.91 292.31 424.47C291.663 424.854 290.927 425.059 290.175 425.065C289.423 425.072 288.683 424.878 288.03 424.505C287.378 424.132 286.836 423.593 286.46 422.942C286.084 422.291 285.887 421.552 285.89 420.8V328.57C285.889 327.457 286.147 326.36 286.646 325.365C287.144 324.37 287.868 323.505 288.76 322.84C345.26 280.66 499.76 254.73 547.57 265.48C549.178 265.847 550.611 266.76 551.622 268.063C552.634 269.367 553.163 270.98 553.12 272.63L551.33 345.71C551.283 347.576 550.507 349.351 549.169 350.653C547.831 351.956 546.037 352.683 544.17 352.68V352.68Z" stroke="white" stroke-width="0.91" stroke-miterlimit="10"/>
<path d="M396.21 289.93V370.93C405.52 367.67 441.36 357.43 459.51 355.57L461.14 274.81" stroke="white" stroke-width="0.47" stroke-miterlimit="10"/>
<path d="M402.49 288.3V368.83" stroke="white" stroke-width="0.47" stroke-miterlimit="10"/>
<path d="M408.08 286.68V367.2" stroke="white" stroke-width="0.47" stroke-miterlimit="10"/>
<path d="M414.59 284.81V365.34" stroke="white" stroke-width="0.47" stroke-miterlimit="10"/>
<path d="M420.64 283.42V363.94" stroke="white" stroke-width="0.47" stroke-miterlimit="10"/>
<path d="M427.16 281.55V362.08" stroke="white" stroke-width="0.47" stroke-miterlimit="10"/>
<path d="M433.68 280.16V360.69" stroke="white" stroke-width="0.47" stroke-miterlimit="10"/>
<path d="M440.19 278.76V359.29" stroke="white" stroke-width="0.47" stroke-miterlimit="10"/>
<path d="M447.18 276.9V357.43" stroke="white" stroke-width="0.47" stroke-miterlimit="10"/>
<path d="M453.23 275.97V356.5" stroke="white" stroke-width="0.47" stroke-miterlimit="10"/>
<path d="M395.97 364.64C416.635 357.847 437.804 352.698 459.28 349.24" stroke="white" stroke-width="0.47" stroke-miterlimit="10"/>
<path d="M395.97 359.06C416.633 352.272 437.803 347.135 459.28 343.7" stroke="white" stroke-width="0.47" stroke-miterlimit="10"/>
<path d="M396.41 352.07C417.072 345.291 438.238 340.155 459.71 336.71" stroke="white" stroke-width="0.47" stroke-miterlimit="10"/>
<path d="M395.97 345.56C416.634 338.785 437.804 333.662 459.28 330.24" stroke="white" stroke-width="0.47" stroke-miterlimit="10"/>
<path d="M396.41 339.04C417.071 332.256 438.237 327.12 459.71 323.68" stroke="white" stroke-width="0.47" stroke-miterlimit="10"/>
<path d="M395.97 333.46C416.634 326.673 437.804 321.534 459.28 318.09" stroke="white" stroke-width="0.47" stroke-miterlimit="10"/>
<path d="M396.41 326.47C417.072 319.691 438.238 314.555 459.71 311.11" stroke="white" stroke-width="0.47" stroke-miterlimit="10"/>
<path d="M395.97 320.89C416.633 314.102 437.803 308.965 459.28 305.53" stroke="white" stroke-width="0.47" stroke-miterlimit="10"/>
<path d="M395.97 314.37C416.634 307.586 437.804 302.45 459.28 299.01" stroke="white" stroke-width="0.47" stroke-miterlimit="10"/>
<path d="M395.97 308.32C416.634 301.536 437.804 296.4 459.28 292.96" stroke="white" stroke-width="0.47" stroke-miterlimit="10"/>
<path d="M395.97 301.34C416.633 294.552 437.803 289.415 459.28 285.98" stroke="white" stroke-width="0.47" stroke-miterlimit="10"/>
<path d="M395.97 295.75C416.636 288.971 437.805 283.835 459.28 280.39" stroke="white" stroke-width="0.47" stroke-miterlimit="10"/>
<path opacity="0.75" d="M476.97 350.21H472.78V275.74L477.2 275.04L476.97 350.21Z" fill="white"/>
<path opacity="0.75" d="M489.07 350.21H484.88V275.74L489.3 275.04L489.07 350.21Z" fill="white"/>
<path opacity="0.75" d="M495.59 350.68H491.4V271.55L495.82 271.31L495.59 350.68Z" fill="white"/>
<path opacity="0.75" d="M483.02 350.21H478.83V294.36L483.25 293.66L483.02 350.21Z" fill="white"/>
<path opacity="0.75" d="M502.1 282.25H497.91V338.11H502.1V282.25Z" fill="white"/>
<path opacity="0.75" d="M523.51 281.79H519.32V337.65H523.51V281.79Z" fill="white"/>
<path opacity="0.75" d="M508.15 288.77H503.96V344.63H508.15V288.77Z" fill="white"/>
<path opacity="0.75" d="M516.07 293.42H511.88V349.28H516.07V293.42Z" fill="white"/>
<path d="M348.95 332.24C348.95 347.24 341 363.85 330.95 369.33C320.49 375.03 311.95 366.52 312.17 350.27C312.43 334.21 321.24 317.57 331.48 313.1C341.33 308.84 349 317.41 348.95 332.24Z" stroke="white" stroke-width="0.47" stroke-miterlimit="10"/>
<path d="M331.74 368.83C322.43 374.88 314.25 367.02 314.51 350.77C314.77 334.71 323.36 316.7 335.93 312.04" stroke="white" stroke-width="0.47" stroke-miterlimit="10"/>
<path opacity="0.75" d="M331.27 343.7C331.27 344.16 336.62 367.2 336.62 367.2C340.81 365.34 347.8 353.7 348.26 346.26L331.27 343.7Z" fill="white"/>
<path opacity="0.75" d="M390.41 369.3C390.23 368.77 349.27 382.74 349.41 383.3V388.42C349.24 387.97 390.2 373.08 390.41 373.53V369.3Z" fill="white"/>
<path opacity="0.75" d="M390.15 362.32C389.98 361.79 349.01 375.76 349.15 376.32V381.44C348.99 380.99 389.95 366.09 390.15 366.54V362.32Z" fill="white"/>
<path opacity="0.75" d="M389.69 354.87C389.51 354.34 348.55 368.31 348.69 368.87V373.99C348.52 373.54 389.49 358.65 389.69 359.1V354.87Z" fill="white"/>
<path opacity="0.75" d="M389.69 346.95C389.51 346.43 348.55 360.39 348.69 360.95V366.07C348.52 365.62 389.49 350.72 389.69 351.17V346.95Z" fill="white"/>
<path d="M291.01 334.62V416.29C291.015 416.486 291.07 416.678 291.17 416.847C291.269 417.016 291.41 417.157 291.579 417.257C291.747 417.357 291.939 417.412 292.135 417.418C292.331 417.424 292.525 417.38 292.7 417.29L346.86 389.97" stroke="white" stroke-width="0.47" stroke-miterlimit="10"/>
<path d="M613.96 453.56C575.2 447.02 496.47 428.39 378.28 513.67C371.36 518.663 364.314 524.013 357.14 529.72C356.985 529.844 356.804 529.932 356.61 529.977C356.416 530.022 356.215 530.023 356.02 529.98L271.9 487.66C271.7 487.66 269.59 485.56 270.99 483.8C339.5 431.57 483.4 384.6 564.28 401.15C564.34 401.15 569.28 403.85 569.33 403.89L597.03 434.72L613.96 453.56Z" fill="url(#paint15_linear_60_78)"/>
<path d="M613.96 453.56C614.22 453.61 614.15 453.75 613.96 453.56V453.56Z" fill="url(#paint16_linear_60_78)"/>
<path opacity="0.44" d="M597.03 434.72C568.5 438.24 496.54 453.95 464.71 464.09C425.04 476.73 357.15 529.76 357.15 529.76L270.99 483.76C339.5 431.53 483.4 384.56 564.28 401.11C566.157 401.611 567.887 402.55 569.33 403.85C571.65 405.99 597.03 434.72 597.03 434.72Z" fill="url(#paint17_linear_60_78)"/>
<path d="M494.82 417.36L492.98 417.82C456.59 427.1 411.8 441.91 379.46 456.72L351.46 446.9L348.27 445.77C423 412.09 480.46 404.52 480.46 404.52L494.82 417.36Z" fill="#7B94FF"/>
<path d="M494.82 417.36C494.21 417.51 494.38 417.62 493.76 417.78L480.08 405.36C440.93 411.24 388.52 428.93 349.41 446.24L348.41 445.82C423.14 412.14 480.6 404.57 480.6 404.57L494.82 417.36Z" fill="#0345EA"/>
<path opacity="0.48" d="M381.99 453.77L356.73 444.93C358.2 443.67 379.25 435.46 380.94 435.04L405.41 444.09C397.57 446.41 388.64 450.66 381.99 453.77Z" stroke="white" stroke-width="0.47" stroke-miterlimit="10"/>
<path opacity="0.48" d="M462.41 424.51C443.86 429.621 425.608 435.76 407.74 442.9L385.57 434.71L383.05 433.78C408.05 424.5 431.83 417 453.78 412.09L462.41 424.51Z" stroke="white" stroke-width="0.47" stroke-miterlimit="10"/>
<path opacity="0.48" d="M386.62 435.04C409.12 426.65 432.91 418.98 454.99 413.97" stroke="white" stroke-width="0.47" stroke-miterlimit="10"/>
<path opacity="0.48" d="M456.47 415.98C435.05 420.98 412.14 428.42 390.47 436.51" stroke="white" stroke-width="0.47" stroke-miterlimit="10"/>
<path opacity="0.48" d="M394.62 437.99C415.322 430.132 436.464 423.491 457.94 418.1" stroke="white" stroke-width="0.47" stroke-miterlimit="10"/>
<path opacity="0.48" d="M398.41 439.24C418.317 431.7 438.625 425.264 459.24 419.96" stroke="white" stroke-width="0.47" stroke-miterlimit="10"/>
<path opacity="0.48" d="M403.04 441.14C422.041 433.959 441.4 427.764 461.04 422.58" stroke="white" stroke-width="0.47" stroke-miterlimit="10"/>
<path d="M378.28 513.67C371.36 518.663 364.314 524.013 357.14 529.72C356.01 528.04 299.74 484.72 304.95 486.19C310.16 487.66 340.03 490.42 348.52 494.82C355.7 498.53 370.74 505.89 378.28 513.67Z" fill="url(#paint18_linear_60_78)"/>
<path d="M348.31 445.77L379.46 456.77C423.46 438.13 463.15 424.85 496.29 419.93L502.81 367.52C502.81 367.52 455.87 367.94 393.81 389.41C353.27 403.41 340.13 413.83 340.13 413.83L348.31 445.77Z" fill="url(#paint19_linear_60_78)"/>
<path d="M359.41 473.45C359.41 473.45 394.95 453.93 431.19 440.62C482.76 421.67 569.96 407.53 565.49 408.62C565.39 408.62 579.38 436.2 579.38 436.2C519.52 437.26 457.3 457.78 394.78 495.77L359.41 473.45Z" stroke="#030D3A" stroke-width="0.21" stroke-miterlimit="10"/>
<path d="M363.99 474.93C363.99 474.93 411.99 449.05 446.93 438.3C468.552 431.71 490.646 426.785 513.02 423.57" stroke="#030D3A" stroke-width="0.21" stroke-miterlimit="10"/>
<path d="M368.62 476.82C368.62 476.82 416.62 450.95 451.56 440.2C473.181 433.604 495.276 428.676 517.65 425.46" stroke="#030D3A" stroke-width="0.21" stroke-miterlimit="10"/>
<path d="M373.04 480.24C373.04 480.24 420.43 453.1 455.35 442.35C477.113 435.754 499.453 431.243 522.07 428.88" stroke="#030D3A" stroke-width="0.21" stroke-miterlimit="10"/>
<path d="M378.1 483.14C378.1 483.14 424.42 455.14 459.35 444.41C481.425 437.779 504.149 433.544 527.13 431.78" stroke="#030D3A" stroke-width="0.21" stroke-miterlimit="10"/>
<path d="M382.73 485.87C382.73 485.87 430.73 457.69 465.66 446.93C487.173 440.384 509.339 436.219 531.76 434.51" stroke="#030D3A" stroke-width="0.21" stroke-miterlimit="10"/>
<path d="M387.57 488.61C387.57 488.61 433.69 459.79 468.57 449.04C490.688 442.422 513.516 438.464 536.57 437.25" stroke="#030D3A" stroke-width="0.21" stroke-miterlimit="10"/>
<path d="M392.62 491.56C392.62 491.56 441.05 462.11 475.98 451.35C497.305 444.854 519.375 441.12 541.65 440.24" stroke="#030D3A" stroke-width="0.21" stroke-miterlimit="10"/>
<path d="M353.99 481.66C353.99 490.91 340.71 498.4 324.31 498.4C309.18 498.4 296.69 492.01 294.86 483.76C294.712 483.07 294.638 482.366 294.64 481.66C294.64 472.42 307.92 464.93 324.31 464.93C340.31 464.93 353.39 472.09 353.98 481.04C353.99 481.24 353.99 481.45 353.99 481.66Z" fill="#EC5076"/>
<path d="M353.99 481.66C353.99 490.91 340.71 498.4 324.31 498.4C309.18 498.4 296.69 492.01 294.86 483.76C294.86 483.55 294.86 483.35 294.86 483.14C294.86 473.89 308.14 466.4 324.54 466.4C339.67 466.4 352.16 472.79 353.99 481.04C353.99 481.24 353.99 481.45 353.99 481.66Z" fill="#F3B0C3"/>
<path d="M517.75 339.34C508.58 339.5 487.3 343.8 474.31 348.49C473.906 348.637 473.471 348.68 473.045 348.615C472.62 348.551 472.218 348.38 471.875 348.119C471.533 347.858 471.261 347.516 471.086 347.123C470.91 346.73 470.836 346.299 470.87 345.87L472.33 327.68C472.367 327.193 472.543 326.726 472.838 326.336C473.132 325.946 473.532 325.649 473.99 325.48C494.04 317.97 506.15 313.21 518.63 317.74C519.119 317.923 519.539 318.251 519.836 318.68C520.133 319.109 520.291 319.618 520.29 320.14V336.78C520.288 337.455 520.02 338.101 519.545 338.58C519.07 339.059 518.425 339.332 517.75 339.34Z" fill="url(#paint20_linear_60_78)"/>
<path d="M533.68 333.7C533.68 352.7 526.98 374.84 496.37 379.62C495.28 379.79 494.25 379.91 493.27 379.98C491.718 380.1 490.158 380.076 488.61 379.91C485.879 379.684 483.294 378.583 481.24 376.77C473 369.09 478.19 349.57 478.19 335.62C478.107 329.156 479.517 322.76 482.31 316.93C486.64 308.19 493.95 302.49 502.1 301.19C526.03 297.35 533.68 314.68 533.68 333.7Z" fill="#EC5076"/>
<path opacity="0.66" d="M488.61 379.91C470.53 377.74 478.19 352.58 478.19 335.62C478.107 329.156 479.517 322.76 482.31 316.93C482.31 316.93 479.97 322.86 479.31 333.39C478.65 343.92 474.89 365.39 480.01 374.18C482.21 378.01 486.7 378.97 488.61 379.91Z" fill="#F3AABF"/>
<path d="M493.27 379.98C491.718 380.1 490.158 380.076 488.61 379.91C485.879 379.684 483.294 378.583 481.24 376.77C485.11 377.44 487.44 375.58 487.9 372.32C488.5 368.15 488.37 356.96 491.16 363.48C492.85 367.43 493.35 374.61 493.27 379.98Z" fill="#CE386A"/>
<path d="M533.68 407.36C519.21 417.93 504.68 420.86 490.14 412.63C489.35 412.19 488.56 411.7 487.76 411.19C489.073 407.42 489.962 403.516 490.41 399.55C491.097 393.318 491.154 387.033 490.58 380.79C490.011 374.292 489.076 367.832 487.78 361.44C488.27 361.14 488.78 360.84 489.27 360.56C491.333 359.349 493.47 358.27 495.67 357.33C507.33 352.33 519.36 352.07 531.79 356.66C530.07 367.75 530.51 379.83 531.79 392.22C532.3 397.24 532.96 402.29 533.68 407.36Z" fill="#EC5076"/>
<path d="M516.3 383.96C504.8 380.73 498.14 370.96 493.02 357.89C495.14 356.65 493.5 358.25 495.65 357.33C500.9 360.33 529.02 365.99 530.26 371.39C531.66 377.44 528.87 387.49 516.3 383.96Z" fill="#CE386A"/>
<path opacity="0.66" d="M492.09 396.99C492.09 404.41 492.32 409.76 490.14 412.63C489.35 412.19 488.56 411.7 487.76 411.19C490.76 402.7 491.51 392.42 490.56 380.79C491.516 386.138 492.028 391.557 492.09 396.99Z" fill="#F3AABF"/>
<path d="M533.68 407.36C519.21 417.93 504.68 420.86 490.14 412.63C489.76 412.41 489.37 412.19 488.98 411.95C488.59 411.71 488.17 411.45 487.76 411.19C489.073 407.42 489.962 403.516 490.41 399.55L492 398.96C499.909 396.118 508.088 394.091 516.41 392.91C521.489 392.055 526.654 391.823 531.79 392.22C532.3 397.24 532.96 402.29 533.68 407.36Z" fill="#000C4F"/>
<path d="M491.98 398.96C491.61 402.39 491.26 409.38 489.14 411.78L488.98 411.95C488.57 411.71 488.17 411.45 487.76 411.19C489.073 407.42 489.962 403.516 490.41 399.55L491.98 398.96Z" fill="#EC5076"/>
<path d="M531.77 369.1C530.77 372.92 531.32 377.81 526.54 381.63C521.76 385.45 509.16 381.96 504.66 374.63C494.95 358.86 489.35 349.69 486.17 341.27C485.69 340.01 485.27 338.76 484.89 337.51C482.02 327.94 482.32 316.91 482.32 316.91C482.32 316.91 479.15 318.38 480.11 314.55C480.63 312.46 483.71 309.2 487.32 306.36C490.031 304.148 493.066 302.367 496.32 301.08C501.6 299.33 512.24 296.75 523.6 300.08C524.6 300.36 525.6 300.7 526.55 301.08C542.14 307.08 544.21 316.46 545.17 328.9C546.13 341.34 532.72 365.24 531.77 369.1Z" fill="#000C4F"/>
<path opacity="0.7" d="M541.41 339.74C540.48 352.31 531.17 377.91 521.86 378.84C512.55 379.77 510.25 373.24 503.73 366.24C497.21 359.24 492.09 352.24 487.9 337.85C483.71 323.46 488.84 315.04 487.09 312.6C486.23 311.39 485.99 309.11 487.32 306.35C490.031 304.138 493.066 302.357 496.32 301.07C501.61 299.32 512.27 296.74 523.63 300.07C526.82 302.28 530.19 304.9 534.03 307.58C547.95 317.4 542.41 327.17 541.41 339.74Z" fill="#000B38"/>
<path opacity="0.52" d="M523.56 300.1C515.024 298.611 506.246 299.44 498.14 302.5C485.14 307.62 482.78 313.21 483.72 314.14C484.362 314.908 485.151 315.54 486.04 316C486.04 316 486.44 340.8 486.24 341.2C486.221 341.233 486.198 341.264 486.17 341.29C485.69 340.03 485.27 338.78 484.89 337.53C482.02 327.96 482.32 316.93 482.32 316.93C482.32 316.93 479.15 318.4 480.11 314.57C480.63 312.48 483.71 309.22 487.32 306.38C490.031 304.168 493.066 302.387 496.32 301.1C501.56 299.35 512.2 296.77 523.56 300.1Z" fill="#071F84"/>
<path d="M473.98 326.42C472.2 325.5 472.28 328.25 472.12 330.25L470.74 347.53C470.675 348.211 470.863 348.893 471.266 349.446C471.67 349.998 472.261 350.384 472.93 350.53C482.02 352.53 514.51 359.33 526.07 359.33C536.2 359.33 537.46 357.89 537.45 357.17C537.45 356.77 540.45 350.02 540.45 350.02C540.83 349.02 541.92 346.16 541.92 346.25C541.92 346.34 543.18 346.46 536.86 346.88C524.93 347.64 473.98 326.42 473.98 326.42Z" fill="url(#paint21_linear_60_78)"/>
<path d="M472.86 348.37L473.86 333.02C473.875 332.772 473.954 332.532 474.09 332.324C474.225 332.115 474.412 331.945 474.633 331.83C474.853 331.716 475.099 331.66 475.348 331.669C475.596 331.677 475.838 331.75 476.05 331.88L477.05 332.51C477.271 332.643 477.451 332.833 477.573 333.06C477.694 333.287 477.752 333.543 477.74 333.8L477.11 348.38C477.096 348.716 477.199 349.046 477.402 349.314C477.604 349.582 477.893 349.772 478.22 349.85L479.84 350.23C480.049 350.277 480.265 350.278 480.474 350.232C480.683 350.185 480.879 350.094 481.048 349.963C481.217 349.832 481.356 349.665 481.453 349.474C481.55 349.284 481.604 349.074 481.61 348.86L481.99 334.42" stroke="url(#paint22_linear_60_78)" stroke-width="0.21" stroke-miterlimit="10"/>
<path d="M496.49 351.38C495.38 356.12 493.23 359.93 491.07 361.38C490.736 361.642 490.35 361.83 489.938 361.932C489.526 362.033 489.097 362.046 488.68 361.97C488.276 361.858 487.902 361.661 487.581 361.392C487.26 361.123 487.001 360.788 486.82 360.41C486.606 360.035 486.429 359.639 486.29 359.23C485.707 357.249 485.517 355.174 485.73 353.12C485.827 351.736 486.034 350.361 486.35 349.01C487.87 342.5 491.35 337.75 494.16 338.4C494.728 338.596 495.238 338.931 495.643 339.375C496.048 339.819 496.336 340.357 496.48 340.94C497.41 343.38 497.41 347.24 496.49 351.38Z" fill="#EC5076"/>
<path opacity="0.66" d="M496.48 340.96L496.28 341.14C496.23 341.21 495.45 338.63 493.97 338.84C489.65 339.46 485.97 352.09 485.73 353.14C485.827 351.756 486.034 350.381 486.35 349.03C487.87 342.52 491.35 337.77 494.16 338.42C494.728 338.616 495.238 338.951 495.643 339.395C496.048 339.839 496.336 340.377 496.48 340.96Z" fill="#F3AABF"/>
<path d="M486.29 359.24C486.826 359.208 487.364 359.208 487.9 359.24C487.9 359.24 494.39 357.32 492.5 347.84C491.37 342.22 494.23 338.94 494.42 338.29C498.14 340.62 497 347.11 496.49 351.29C495.35 360.6 489.3 362.46 487.9 361.99C487.034 361.311 486.459 360.328 486.29 359.24Z" fill="#CE386A"/>
<path d="M609.33 514.12C615.07 539.94 592.11 552.38 581.58 529.42C567.24 497.85 555.76 485.42 545.23 455.76C547.12 434.61 551.93 412.76 570.11 417.5C585.85 434.24 596.48 468.53 609.33 514.12Z" fill="#000C4F"/>
<path d="M570.99 562.33L473.99 580.07L459.16 516.47L443.16 446.09L442.79 444.47C446.52 436.09 471.24 416.92 487.94 410.96V411.42C503.55 405.86 519.09 396.6 532.63 399.79C548.46 403.51 564.99 411.97 571.73 419.34C588.91 453.77 583.2 498.67 570.99 562.33Z" fill="#000C4F"/>
<path d="M489.77 410.96C489.33 411.34 463.7 423.06 448.77 439.82C447.67 441.06 444.49 445.24 443.09 446.09L442.72 444.47C446.2 436.65 468.79 417.94 487.87 410.96C489.11 410.52 488.67 411.35 489.77 410.96Z" fill="#EC5076"/>
<path d="M469.59 562.33L459.15 516.47C459.574 516.927 459.968 517.412 460.33 517.92C472.78 535.04 469.59 562.33 469.59 562.33Z" fill="#250B71"/>
<path d="M566.05 562.33H481.05C482.05 553.43 482.26 539.9 479.05 520.81C472.53 482.18 455.78 450.99 462.29 442.61C468.8 434.23 508.82 390.51 554.92 412.82C594.63 432.02 574.05 537.73 566.05 562.33Z" fill="#030D3A"/>
<path d="M473.47 496.61L460.15 519.33L481.85 533.38L473.47 496.61Z" fill="#030D3A"/>
<path d="M434.41 564.24C430.46 568.14 425.49 570.31 419.92 569.24C415.26 568.31 409.24 564.17 402.84 558.49C383.59 541.4 360.84 510.33 360.84 510.33C348.44 496.98 356.01 488.39 370.27 496.86L370.4 496.94L430.16 533.4L443.65 538.98C444.33 547.62 440.66 558.09 434.41 564.24Z" fill="#000C4F"/>
<path d="M369.57 521.55C369.57 521.55 362.57 512.44 357.78 507.66C350.42 507.66 332.87 495.05 330 493.14C327.13 491.23 304.64 489.62 304.95 486.19C305.07 484.84 330.21 485.35 330.21 485.35C330.21 485.35 305.79 480.08 306 476.09C306.11 473.95 313.37 473.98 313.37 473.98C313.37 473.98 312.11 471.66 323.21 469.69C327.09 468.99 337.55 466.82 343.29 468.69C343.441 468.735 343.588 468.792 343.73 468.86C349.73 471.48 364.34 488.78 364.34 488.78C364.34 488.78 375.1 501.11 375.82 503.13C380.6 516.56 369.57 521.55 369.57 521.55Z" fill="#000C4F"/>
<path d="M430.19 533.38C429.86 545.18 413.43 526.38 413.43 526.38L372 497.98L430.19 533.38Z" fill="#EC5076"/>
<path d="M434.41 564.24C430.46 568.14 425.49 570.31 419.92 569.24C415.26 568.31 409.24 564.17 402.84 558.49C404.3 556.04 406.43 553.97 408.64 551.58L434.41 564.24Z" fill="#250B71"/>
<path d="M341.15 473.56C342.21 475.24 336.52 475.24 336.1 476.93C335.68 478.62 338.84 480.72 336.94 481.56C335.04 482.4 333.79 488.29 332.52 488.08C331.25 487.87 309.58 487.24 304.95 486.24C305.07 484.89 330.21 485.4 330.21 485.4C330.21 485.4 307.21 480.45 306.05 476.5C306.032 476.384 306.032 476.266 306.05 476.15C306.046 476.13 306.046 476.11 306.05 476.09C306.28 474.01 313.41 474.04 313.41 474.04C313.36 473.93 312.41 471.68 323.25 469.75C327.13 469.05 337.59 466.88 343.33 468.75C343.481 468.795 343.628 468.852 343.77 468.92C343.863 469.046 343.937 469.184 343.99 469.33C345.07 472.43 340.1 471.88 341.15 473.56Z" fill="#250B71"/>
<path d="M343.73 468.9C343.73 468.9 333.79 467.24 319.26 471.03C314.04 472.4 313.36 473.92 313.37 473.98C313.32 473.87 312.37 471.62 323.21 469.69C327.09 468.99 337.55 466.82 343.29 468.69C343.443 468.748 343.59 468.818 343.73 468.9Z" fill="#EC5076"/>
<path d="M328.95 474.61C328.95 474.61 310.84 473.98 308.53 474.82C307.667 475.173 306.826 475.577 306.01 476.03C306.24 473.95 313.37 473.98 313.37 473.98C313.79 473.97 328.95 474.61 328.95 474.61Z" fill="#EC5076"/>
<path d="M473.47 496.6C462.35 511.04 453.12 533.55 444.37 549.49C439.58 558.23 434.93 564.99 430.19 567.36C419.56 572.67 410.57 566.22 408.66 551.56C408.133 547.243 408.133 542.877 408.66 538.56C409.627 534.334 410.805 530.158 412.19 526.05C416.83 512.34 422.19 504.22 425.49 490.13C431.69 463.57 437.7 447.78 444.14 442.2C445.625 441.192 447.214 440.347 448.88 439.68C469.59 431.5 480.21 466.53 473.47 496.6Z" fill="#000C4F"/>
<path d="M426.23 494.05C426.23 494.05 426.63 505.12 434.14 506.15C444.38 507.54 456.48 491.72 461.14 476.36C470.56 445.28 451.83 439.58 451.83 439.58" stroke="#250B71" stroke-width="0.47" stroke-miterlimit="10"/>
<path d="M427.63 487.99C427.63 488.46 428.09 501.49 432.75 502.89C439.95 505.05 448 497.94 455.55 482.41C463.93 465.19 462.07 444.24 451.36 441.91C449.175 441.342 446.858 441.602 444.853 442.64C442.849 443.677 441.298 445.419 440.5 447.53" stroke="#250B71" stroke-width="0.47" stroke-miterlimit="10"/>
<path d="M432.28 476.82L445.31 481.01" stroke="#250B71" stroke-width="0.47" stroke-miterlimit="10"/>
<path d="M432.75 474.03L445.78 478.22" stroke="#250B71" stroke-width="0.47" stroke-miterlimit="10"/>
<path d="M433.68 470.77L446.71 474.96" stroke="#250B71" stroke-width="0.47" stroke-miterlimit="10"/>
<path d="M444.18 442.16C445.665 441.152 447.254 440.307 448.92 439.64C447.14 441.09 443.34 446.1 438.56 455.64C433.185 466.519 429.429 478.125 427.41 490.09C427.41 490.09 422.29 503.59 419.96 508.71C417.63 513.83 412.59 526.87 412.32 526.17C412.3 526.115 412.276 526.062 412.25 526.01C416.89 512.3 422.25 504.18 425.55 490.09C431.73 463.53 437.74 447.74 444.18 442.16Z" fill="#EC5076"/>
<path d="M451.13 438.89H450.06C450.79 438.64 451.13 438.89 451.13 438.89Z" fill="#250B71"/>
<path d="M444.41 549.49C439.62 558.23 434.97 564.99 430.23 567.36C419.6 572.67 410.61 566.22 408.7 551.56C413.06 547.81 418.55 543.56 424.34 542.81C432.3 541.76 439.51 543.83 444.41 549.49Z" fill="#250B71"/>
<path d="M577.91 551.81L485.97 584.49C479.26 585.77 471.97 589.72 473.35 583.02L500.12 454.6C500.497 452.71 501.434 450.977 502.809 449.627C504.184 448.277 505.934 447.372 507.83 447.03L594.96 431.24C596.507 430.958 598.099 431.06 599.597 431.537C601.096 432.013 602.454 432.849 603.554 433.972C604.655 435.095 605.463 436.47 605.909 437.978C606.354 439.486 606.423 441.079 606.11 442.62L585.54 544.24C585.166 546.118 584.24 547.841 582.881 549.19C581.522 550.538 579.791 551.451 577.91 551.81Z" fill="url(#paint23_linear_60_78)"/>
<path d="M580.77 560.71L487.65 592.66C486.468 593.064 485.199 593.148 483.973 592.903C482.747 592.658 481.608 592.093 480.671 591.265C479.735 590.437 479.034 589.376 478.64 588.19C478.247 587.003 478.174 585.733 478.43 584.51L505.09 457.45C505.378 456.088 506.06 454.84 507.053 453.864C508.045 452.887 509.304 452.225 510.67 451.96L603.34 433.96C604.5 433.734 605.697 433.802 606.823 434.157C607.949 434.512 608.969 435.143 609.789 435.993C610.609 436.843 611.203 437.884 611.518 439.023C611.832 440.161 611.857 441.36 611.59 442.51L585.41 555.62C585.136 556.794 584.565 557.878 583.753 558.769C582.941 559.66 581.914 560.328 580.77 560.71Z" fill="#080B16"/>
<g filter="url(#filter3_f_60_78)">
<rect x="132" y="68" width="230" height="19" rx="9.5" fill="#4F3890"/>
</g>
<g filter="url(#filter4_f_60_78)">
<rect x="96" y="256" width="122" height="33" rx="16.5" transform="rotate(-90 96 256)" fill="#C54B83"/>
</g>
<defs>
<filter id="filter0_f_60_78" x="112" y="336" width="86.7" height="75.2974" filterUnits="userSpaceOnUse" color-interpolation-filters="sRGB">
<feFlood flood-opacity="0" result="BackgroundImageFix"/>
<feBlend mode="normal" in="SourceGraphic" in2="BackgroundImageFix" result="shape"/>
<feGaussianBlur stdDeviation="5" result="effect1_foregroundBlur_60_78"/>
</filter>
<filter id="filter1_f_60_78" x="176" y="368" width="48.2004" height="156.996" filterUnits="userSpaceOnUse" color-interpolation-filters="sRGB">
<feFlood flood-opacity="0" result="BackgroundImageFix"/>
<feBlend mode="normal" in="SourceGraphic" in2="BackgroundImageFix" result="shape"/>
<feGaussianBlur stdDeviation="5.5" result="effect1_foregroundBlur_60_78"/>
</filter>
<filter id="filter2_f_60_78" x="188" y="198" width="455.232" height="350.017" filterUnits="userSpaceOnUse" color-interpolation-filters="sRGB">
<feFlood flood-opacity="0" result="BackgroundImageFix"/>
<feBlend mode="normal" in="SourceGraphic" in2="BackgroundImageFix" result="shape"/>
<feGaussianBlur stdDeviation="47" result="effect1_foregroundBlur_60_78"/>
</filter>
<filter id="filter3_f_60_78" x="64" y="0" width="366" height="155" filterUnits="userSpaceOnUse" color-interpolation-filters="sRGB">
<feFlood flood-opacity="0" result="BackgroundImageFix"/>
<feBlend mode="normal" in="SourceGraphic" in2="BackgroundImageFix" result="shape"/>
<feGaussianBlur stdDeviation="34" result="effect1_foregroundBlur_60_78"/>
</filter>
<filter id="filter4_f_60_78" x="-7.62939e-06" y="38" width="225" height="314" filterUnits="userSpaceOnUse" color-interpolation-filters="sRGB">
<feFlood flood-opacity="0" result="BackgroundImageFix"/>
<feBlend mode="normal" in="SourceGraphic" in2="BackgroundImageFix" result="shape"/>
<feGaussianBlur stdDeviation="48" result="effect1_foregroundBlur_60_78"/>
</filter>
<linearGradient id="paint0_linear_60_78" x1="366.79" y1="67.2398" x2="363.95" y2="329.32" gradientUnits="userSpaceOnUse">
<stop stop-color="#8A5EFF" stop-opacity="0.44"/>
<stop offset="1" stop-color="#EC5076"/>
</linearGradient>
<linearGradient id="paint1_linear_60_78" x1="142464" y1="19078.3" x2="142445" y2="28720" gradientUnits="userSpaceOnUse">
<stop stop-color="#8A5EFF" stop-opacity="0.44"/>
<stop offset="1" stop-color="#EC5076"/>
</linearGradient>
<linearGradient id="paint2_linear_60_78" x1="248.526" y1="516.5" x2="248.526" y2="425" gradientUnits="userSpaceOnUse">
<stop stop-color="#050810"/>
<stop offset="1" stop-color="#050810" stop-opacity="0"/>
</linearGradient>
<linearGradient id="paint3_linear_60_78" x1="254.321" y1="237.1" x2="276.751" y2="290.99" gradientUnits="userSpaceOnUse">
<stop stop-color="#BDB0FF"/>
<stop offset="0.16" stop-color="#B8A9FC"/>
<stop offset="0.39" stop-color="#A997F4"/>
<stop offset="0.63" stop-color="#937CE8"/>
</linearGradient>
<linearGradient id="paint4_linear_60_78" x1="266.8" y1="203.07" x2="627.01" y2="203.07" gradientUnits="userSpaceOnUse">
<stop stop-color="#9E38FF"/>
<stop offset="0.06" stop-color="#9538FF"/>
<stop offset="0.33" stop-color="#7438FF"/>
<stop offset="0.58" stop-color="#5C38FF"/>
<stop offset="0.81" stop-color="#4D38FF"/>
<stop offset="1" stop-color="#4838FF"/>
</linearGradient>
<linearGradient id="paint5_linear_60_78" x1="61018" y1="33756" x2="192838" y2="33756" gradientUnits="userSpaceOnUse">
<stop stop-color="#8A5EFF" stop-opacity="0.44"/>
<stop offset="1" stop-color="#EC5076"/>
</linearGradient>
<linearGradient id="paint6_linear_60_78" x1="24618.7" y1="5872.12" x2="43846.7" y2="5872.12" gradientUnits="userSpaceOnUse">
<stop stop-color="#8A5EFF" stop-opacity="0.44"/>
<stop offset="1" stop-color="#EC5076"/>
</linearGradient>
<linearGradient id="paint7_linear_60_78" x1="27211.1" y1="6345.45" x2="51028.8" y2="6345.45" gradientUnits="userSpaceOnUse">
<stop stop-color="#8A5EFF" stop-opacity="0.44"/>
<stop offset="1" stop-color="#EC5076"/>
</linearGradient>
<linearGradient id="paint8_linear_60_78" x1="61086.1" y1="32002.8" x2="192300" y2="32002.8" gradientUnits="userSpaceOnUse">
<stop stop-color="#8A5EFF" stop-opacity="0.44"/>
<stop offset="1" stop-color="#EC5076"/>
</linearGradient>
<linearGradient id="paint9_linear_60_78" x1="243.191" y1="142.53" x2="216.431" y2="197.71" gradientUnits="userSpaceOnUse">
<stop stop-color="#6751B7"/>
<stop offset="1" stop-color="#473CAA"/>
</linearGradient>
<linearGradient id="paint10_linear_60_78" x1="239.051" y1="144.67" x2="215.931" y2="192.37" gradientUnits="userSpaceOnUse">
<stop stop-color="#47359E"/>
<stop offset="1" stop-color="#352489"/>
</linearGradient>
<linearGradient id="paint11_linear_60_78" x1="213.59" y1="196.77" x2="230.39" y2="166.03" gradientUnits="userSpaceOnUse">
<stop stop-color="#000C4F"/>
<stop offset="1" stop-color="#876CD1"/>
</linearGradient>
<linearGradient id="paint12_linear_60_78" x1="255.64" y1="166.69" x2="247.72" y2="189.81" gradientUnits="userSpaceOnUse">
<stop stop-color="#58C0D6"/>
<stop offset="1" stop-color="#CEF8F2"/>
</linearGradient>
<linearGradient id="paint13_linear_60_78" x1="8553.05" y1="3242.83" x2="7444.25" y2="4878.19" gradientUnits="userSpaceOnUse">
<stop stop-color="#58C0D6"/>
<stop offset="1" stop-color="#CEF8F2"/>
</linearGradient>
<linearGradient id="paint14_linear_60_78" x1="2190.1" y1="231.035" x2="2189.24" y2="242.928" gradientUnits="userSpaceOnUse">
<stop stop-color="#58C0D6"/>
<stop offset="1" stop-color="#CEF8F2"/>
</linearGradient>
<linearGradient id="paint15_linear_60_78" x1="118217" y1="43833.9" x2="118717" y2="72637.4" gradientUnits="userSpaceOnUse">
<stop stop-color="#9E38FF"/>
<stop offset="0.06" stop-color="#9538FF"/>
<stop offset="0.33" stop-color="#7438FF"/>
<stop offset="0.58" stop-color="#5C38FF"/>
<stop offset="0.81" stop-color="#4D38FF"/>
<stop offset="1" stop-color="#4838FF"/>
</linearGradient>
<linearGradient id="paint16_linear_60_78" x1="702.172" y1="493.231" x2="702.173" y2="493.249" gradientUnits="userSpaceOnUse">
<stop stop-color="#9E38FF"/>
<stop offset="0.06" stop-color="#9538FF"/>
<stop offset="0.33" stop-color="#7438FF"/>
<stop offset="0.58" stop-color="#5C38FF"/>
<stop offset="0.81" stop-color="#4D38FF"/>
<stop offset="1" stop-color="#4838FF"/>
</linearGradient>
<linearGradient id="paint17_linear_60_78" x1="562.46" y1="393.89" x2="300.69" y2="520.27" gradientUnits="userSpaceOnUse">
<stop stop-color="#000C4F"/>
<stop offset="0.03" stop-color="#2E386F" stop-opacity="0.9"/>
<stop offset="0.07" stop-color="#6E759B" stop-opacity="0.76"/>
<stop offset="0.13" stop-color="#A4A8C0" stop-opacity="0.64"/>
<stop offset="0.19" stop-color="#CDCFDC" stop-opacity="0.55"/>
<stop offset="0.26" stop-color="#EAEBF0" stop-opacity="0.49"/>
<stop offset="0.35" stop-color="#FAFAFC" stop-opacity="0.45"/>
<stop offset="0.56" stop-color="white" stop-opacity="0.44"/>
</linearGradient>
<linearGradient id="paint18_linear_60_78" x1="340.25" y1="473.57" x2="343.86" y2="553.6" gradientUnits="userSpaceOnUse">
<stop stop-color="#000C4F"/>
<stop offset="1" stop-color="#000C4F" stop-opacity="0"/>
</linearGradient>
<linearGradient id="paint19_linear_60_78" x1="428.25" y1="449.38" x2="405.79" y2="255.15" gradientUnits="userSpaceOnUse">
<stop offset="0.07" stop-color="white" stop-opacity="0.44"/>
<stop offset="0.1" stop-color="#E4DCFF" stop-opacity="0.37"/>
<stop offset="0.14" stop-color="#C2AFFF" stop-opacity="0.27"/>
<stop offset="0.18" stop-color="#A68BFF" stop-opacity="0.19"/>
<stop offset="0.23" stop-color="#9372FF" stop-opacity="0.14"/>
<stop offset="0.28" stop-color="#8863FF" stop-opacity="0.11"/>
<stop offset="0.35" stop-color="#845EFF" stop-opacity="0.1"/>
</linearGradient>
<linearGradient id="paint20_linear_60_78" x1="19078.1" y1="9760.18" x2="21521.3" y2="9760.18" gradientUnits="userSpaceOnUse">
<stop stop-color="#58C0D6"/>
<stop offset="1" stop-color="#CEF8F2"/>
</linearGradient>
<linearGradient id="paint21_linear_60_78" x1="473.08" y1="342.76" x2="544.42" y2="342.76" gradientUnits="userSpaceOnUse">
<stop stop-color="#36B5C6"/>
<stop offset="0.14" stop-color="#38B6C7"/>
<stop offset="0.19" stop-color="#3FB8CA"/>
<stop offset="0.23" stop-color="#4ABCD0"/>
<stop offset="0.25" stop-color="#58C0D6"/>
<stop offset="0.58" stop-color="#5AC1D6"/>
<stop offset="0.69" stop-color="#61C4D8"/>
<stop offset="0.78" stop-color="#6CCADB"/>
<stop offset="0.85" stop-color="#7DD2DF"/>
<stop offset="0.9" stop-color="#93DCE4"/>
<stop offset="0.95" stop-color="#AEE9EA"/>
<stop offset="1" stop-color="#CEF8F2"/>
</linearGradient>
<linearGradient id="paint22_linear_60_78" x1="482.53" y1="341.5" x2="472.89" y2="340.43" gradientUnits="userSpaceOnUse">
<stop stop-color="#36B5C6"/>
<stop offset="0.14" stop-color="#38B6C7"/>
<stop offset="0.19" stop-color="#3FB8CA"/>
<stop offset="0.23" stop-color="#4ABCD0"/>
<stop offset="0.25" stop-color="#58C0D6"/>
<stop offset="0.29" stop-color="#63C5D9"/>
<stop offset="0.44" stop-color="#89D7E2"/>
<stop offset="0.58" stop-color="#A7E6E9"/>
<stop offset="0.73" stop-color="#BDF0EE"/>
<stop offset="0.87" stop-color="#CAF6F1"/>
<stop offset="1" stop-color="#CEF8F2"/>
</linearGradient>
<linearGradient id="paint23_linear_60_78" x1="554.86" y1="446.5" x2="515.53" y2="619.56" gradientUnits="userSpaceOnUse">
<stop stop-color="#250B71"/>
<stop offset="0.13" stop-color="#230B6A"/>
<stop offset="0.32" stop-color="#1C0B55"/>
<stop offset="0.55" stop-color="#120B35"/>
<stop offset="0.73" stop-color="#080B16"/>
</linearGradient>
</defs>
</svg>
