<svg width="52" height="32" viewBox="0 0 52 32" fill="none" xmlns="http://www.w3.org/2000/svg">
<path fill-rule="evenodd" clip-rule="evenodd" d="M26.0126 27.2502C28.7539 29.7761 32.4352 31.3082 36.4395 31.3082C45.0391 31.3082 51.9994 24.2942 51.9994 15.6674C51.9994 7.01435 45.0391 0 36.4395 0C32.4352 0 28.7539 1.53179 26.0126 4.058C22.8684 6.93338 20.8795 11.072 20.8795 15.6674C20.8798 20.2628 22.8684 24.4017 26.0126 27.2502Z" fill="#E9B040"/>
<path fill-rule="evenodd" clip-rule="evenodd" d="M49.9317 24.3742C49.9317 24.1054 50.1468 23.8906 50.4153 23.8906C50.7108 23.8906 50.9255 24.1057 50.9255 24.3742C50.9255 24.6702 50.7104 24.885 50.4153 24.885C50.1468 24.885 49.9317 24.6702 49.9317 24.3742ZM50.4153 24.7778C50.6304 24.7778 50.818 24.5893 50.818 24.3745C50.818 24.1598 50.6301 23.9985 50.4153 23.9985C50.2268 23.9985 50.0393 24.1598 50.0393 24.3745C50.0393 24.5893 50.2271 24.7778 50.4153 24.7778ZM50.3616 24.6165H50.254V24.1595H50.4419C50.4691 24.1595 50.5229 24.1595 50.5494 24.1867C50.6032 24.2132 50.6032 24.2404 50.6032 24.2942C50.6032 24.3479 50.5766 24.4017 50.5229 24.4017L50.6304 24.6168H50.4957L50.4419 24.4283H50.3616V24.6165V24.3476H50.4691C50.4957 24.3476 50.4957 24.3204 50.4957 24.2939C50.4957 24.2667 50.4957 24.2667 50.4691 24.2401H50.3616V24.6165Z" fill="#E9B040"/>
<path fill-rule="evenodd" clip-rule="evenodd" d="M31.0392 14.0015C30.9854 13.4372 30.8778 12.8999 30.7703 12.3353H21.2569C21.3645 11.771 21.5258 11.2337 21.6868 10.696H30.3136C30.1263 10.1302 29.9111 9.57414 29.6687 9.02975H22.3589C22.6278 8.46052 22.9237 7.90448 23.2458 7.36354H28.7552C28.4007 6.78959 28.0056 6.24175 27.5729 5.72421H24.4284C24.9148 5.1302 25.4448 4.57325 26.0139 4.058C23.2461 1.55868 19.591 0 15.5599 0C6.98717 0 0 7.01435 0 15.6674C0 24.2942 6.98717 31.3082 15.5599 31.3082C19.591 31.3082 23.2458 29.7761 26.0139 27.2502C26.5744 26.744 27.0956 26.1959 27.5729 25.6106H24.4284C23.9982 25.0732 23.6221 24.5358 23.2458 23.9444H28.7552C29.1017 23.413 29.4071 22.856 29.669 22.2782H22.3589C22.1169 21.7408 21.8753 21.2034 21.6868 20.6385H30.3136C30.5015 20.1012 30.6362 19.5372 30.77 18.9723C30.8775 18.4349 30.9851 17.871 31.0388 17.3061C31.0933 16.7613 31.1203 16.214 31.1198 15.6665C31.1198 15.1031 31.0929 14.5389 31.0392 14.0015Z" fill="#CC2131"/>
<path fill-rule="evenodd" clip-rule="evenodd" d="M49.9317 19.2953C49.9317 18.9999 50.1468 18.7852 50.4153 18.7852C50.7108 18.7852 50.9255 19.0002 50.9255 19.2953C50.9255 19.5641 50.7104 19.8061 50.4153 19.8061C50.1468 19.8061 49.9317 19.5638 49.9317 19.2953ZM50.4153 19.6713C50.6304 19.6713 50.818 19.51 50.818 19.2953C50.818 19.0806 50.6301 18.9193 50.4153 18.9193C50.2268 18.9193 50.0393 19.0806 50.0393 19.2953C50.0393 19.51 50.2271 19.6713 50.4153 19.6713ZM50.3616 19.51H50.254V19.0802H50.5494C50.6032 19.1074 50.6032 19.1612 50.6032 19.215C50.6032 19.2415 50.5766 19.2953 50.5229 19.3225L50.6304 19.5104H50.4957L50.4419 19.3491H50.3616V19.51V19.2684H50.4153C50.4419 19.2684 50.4691 19.2684 50.4691 19.2412C50.4957 19.2412 50.4957 19.2147 50.4957 19.1875C50.4957 19.1875 50.4957 19.1609 50.4691 19.1609C50.4691 19.1337 50.4419 19.1609 50.4153 19.1609H50.3616V19.51Z" fill="white"/>
<path fill-rule="evenodd" clip-rule="evenodd" d="M20.7193 20.1826C20.2088 20.3167 19.8324 20.3977 19.4563 20.3977C18.6501 20.3977 18.1662 19.8869 18.1662 18.9731C18.1662 18.7852 18.1931 18.597 18.22 18.382L18.3275 17.7642L18.4082 17.2534L19.1337 12.8463H20.7462L20.558 13.8138H21.5793L21.3373 15.4262H20.316L19.8862 18.0597C19.8593 18.1944 19.8593 18.2747 19.8593 18.3285C19.8593 18.678 20.0206 18.8121 20.4236 18.8121C20.6117 18.8121 20.7727 18.7855 20.934 18.7583L20.7193 20.1826ZM25.933 20.1288C25.3419 20.2901 24.8045 20.3705 24.213 20.3705C22.3855 20.3705 21.3373 19.4029 21.3373 17.4954C21.3373 15.2646 22.5737 13.6522 24.2934 13.6522C25.6639 13.6522 26.5507 14.5659 26.5507 15.9899C26.5507 16.4741 26.497 16.9308 26.3629 17.5757H23.0035C22.9766 17.6833 22.9766 17.737 22.9766 17.7908C22.9766 18.5433 23.4871 18.9193 24.4547 18.9193C25.0727 18.9193 25.6101 18.7852 26.2015 18.5167L25.933 20.1288ZM24.9386 16.2859V15.9633C24.9386 15.4259 24.6429 15.1302 24.1324 15.1302C23.5947 15.1302 23.2186 15.5332 23.0573 16.2856H24.9386V16.2859ZM7.8197 20.2629H6.15348L7.12101 14.163L4.9443 20.2629H3.78889L3.65447 14.1899L2.63317 20.2629H0.993835L2.31055 12.3355H4.75611L4.80988 17.2269L6.44921 12.3355H9.13673L7.8197 20.2629ZM11.878 17.3879C11.7167 17.3607 11.6629 17.3607 11.5554 17.3607C10.5879 17.3607 10.1043 17.7367 10.1043 18.3282C10.1043 18.7315 10.3462 19.0003 10.7223 19.0003C11.5285 19.0003 11.8508 18.3282 11.878 17.3879ZM13.2216 20.2629H11.7705L11.7974 19.5914C11.421 20.1016 10.9105 20.3705 10.0236 20.3705C9.21739 20.3705 8.5187 19.6452 8.5187 18.597C8.5187 18.3016 8.57247 18.0331 8.65312 17.7642C8.92165 16.7695 9.91607 16.1518 11.4479 16.1246C11.6361 16.1246 11.9315 16.1246 12.2003 16.1518C12.2538 15.9367 12.2538 15.8558 12.2538 15.7217C12.2538 15.2915 11.9046 15.1571 11.1252 15.1571C10.6416 15.1571 10.1039 15.2377 9.72788 15.3722L9.48592 15.4259L9.37838 15.4525L9.62034 14.0014C10.3997 13.7594 10.9639 13.6522 11.5823 13.6522C13.0334 13.6522 13.8128 14.324 13.8128 15.56C13.8128 15.8826 13.8397 16.1246 13.7321 16.8233L13.356 19.1344L13.3023 19.5377L13.2754 19.8603L13.2485 20.0754L13.2216 20.2629ZM34.049 13.8673C34.5326 13.8673 34.9628 14.0017 35.5539 14.2971L35.8493 12.5771C35.688 12.4965 35.6343 12.4965 35.4195 12.4158L34.748 12.2276C34.533 12.1739 34.2644 12.147 33.9684 12.147C33.1349 12.147 32.6513 12.1739 32.1412 12.4696C31.8723 12.6578 31.5228 12.8997 31.1464 13.3296L30.9314 13.2758L29.2114 14.485L29.2923 13.8132H27.5183L26.4707 20.2626H28.1641L28.7818 16.7964C28.7818 16.7964 29.0241 16.3122 29.1313 16.1515C29.454 15.7482 29.7225 15.7482 30.0717 15.7482H30.2064C30.15 16.1578 30.1229 16.5709 30.1254 16.9843C30.1254 19.0803 31.3077 20.3973 33.1353 20.3973C33.5923 20.3973 33.9959 20.3436 34.6136 20.1823L34.9097 18.3551C34.3723 18.6505 33.8884 18.7849 33.4851 18.7849C32.491 18.7849 31.8992 18.0325 31.8992 16.8502C31.8986 15.1033 32.7858 13.8673 34.049 13.8673ZM48.3185 12.3355L47.9427 14.5928C47.5394 13.9748 47.0555 13.6791 46.4106 13.6791C45.5234 13.6791 44.6906 14.1896 44.1798 15.1571V15.1305L43.105 14.4853L43.2126 13.8135H41.4119L40.3907 20.2629H42.0569L42.6214 16.7967C42.6214 16.7967 43.0513 16.3125 43.1588 16.1518C43.4277 15.8292 43.6962 15.7751 43.9113 15.7485C43.7234 16.2859 43.6159 16.9308 43.6159 17.6567C43.6159 19.2691 44.4487 20.3439 45.6847 20.3439C46.3031 20.3439 46.7867 20.1288 47.2434 19.618L47.1631 20.2629H48.7489L50.0388 12.3355H48.3185ZM46.2496 18.7315C45.685 18.7315 45.3896 18.3016 45.3896 17.4682C45.3896 16.2049 45.927 15.2915 46.706 15.2915C47.2972 15.2915 47.5932 15.7485 47.5932 16.5548C47.5932 17.8446 47.0558 18.7315 46.2496 18.7315ZM38.4834 17.3879C38.3221 17.3607 38.2683 17.3607 38.1608 17.3607C37.1926 17.3607 36.709 17.7367 36.709 18.3282C36.709 18.7315 36.9513 19.0003 37.3274 19.0003C38.1336 19.0003 38.4562 18.3282 38.4834 17.3879ZM39.827 20.2629H38.3487L38.4024 19.5914C38.0264 20.1016 37.5153 20.3705 36.629 20.3705C35.7956 20.3705 35.0703 19.6718 35.0703 18.597C35.0703 17.0656 36.2254 16.1249 38.0529 16.1249C38.2415 16.1249 38.5366 16.1249 38.7788 16.1521C38.8326 15.9371 38.8598 15.8561 38.8598 15.722C38.8598 15.2918 38.5103 15.1574 37.7041 15.1574C37.247 15.1574 36.6828 15.2381 36.3067 15.3725L36.0916 15.4262L35.9841 15.4528L36.2257 14.0017C37.0054 13.7597 37.57 13.6525 38.1877 13.6525C39.6388 13.6525 40.3913 14.3243 40.3913 15.5604C40.3913 15.883 40.445 16.1249 40.3109 16.8236L39.9614 19.1347L39.9077 19.538L39.8539 19.8606L39.8273 20.0757V20.2629H39.827ZM16.7419 15.184C17.0646 15.184 17.5213 15.2109 18.0052 15.2915L18.2472 13.7866C17.7632 13.7328 17.1183 13.6522 16.7419 13.6522C14.861 13.6522 14.2429 14.6735 14.2429 15.8558C14.2429 16.6354 14.5921 17.1994 15.5059 17.6292C16.1777 17.9518 16.2852 18.0053 16.2852 18.3013C16.2852 18.7039 15.936 18.9462 15.2908 18.9462C14.7803 18.9462 14.2964 18.8652 13.759 18.6774L13.5708 20.1551L13.5974 20.1823L13.92 20.236C14.0275 20.2626 14.162 20.2898 14.3501 20.3164C14.7531 20.3436 15.1026 20.3701 15.3177 20.3701C17.199 20.3701 17.9783 19.6449 17.9783 18.2203C17.9783 17.3338 17.5482 16.7964 16.715 16.4203C15.9895 16.0974 15.9088 16.0443 15.9088 15.7482C15.9088 15.4528 16.2314 15.184 16.7419 15.184Z" fill="#1B3771"/>
<path fill-rule="evenodd" clip-rule="evenodd" d="M36.3062 12.066L36.0102 13.786C35.419 13.4903 34.9889 13.3562 34.5053 13.3562C33.242 13.3562 32.3555 14.5923 32.3555 16.3391C32.3555 17.5486 32.9466 18.2739 33.9413 18.2739C34.344 18.2739 34.8279 18.1398 35.3653 17.8712L35.0699 19.6713C34.4515 19.8326 34.0486 19.9135 33.5915 19.9135C31.7643 19.9135 30.6355 18.5965 30.6355 16.4739C30.6355 13.6519 32.1942 11.6631 34.4246 11.6631C34.72 11.6631 34.9886 11.69 35.2037 11.7437L35.8758 11.905C36.0912 11.9857 36.1449 12.0126 36.3062 12.066ZM30.8774 13.2487H30.7161C30.1522 13.2487 29.8296 13.5175 29.3188 14.2965L29.4801 13.3021H27.948L26.9004 19.7519H28.5938C29.2115 15.8014 29.3728 15.1296 30.1791 15.1296H30.2866C30.4479 14.3503 30.6627 13.7857 30.9315 13.2752L30.8774 13.2487ZM21.1493 19.6713C20.6926 19.8326 20.3162 19.8863 19.9401 19.8863C19.0801 19.8863 18.5962 19.4027 18.5962 18.4624C18.5962 18.3011 18.6231 18.0863 18.65 17.8978L18.7575 17.2529L18.8382 16.7427L19.5637 12.3349H21.2299L21.0417 13.3024H21.9017L21.6867 14.888H20.8267L20.3699 17.5755C20.3431 17.6831 20.3431 17.764 20.3431 17.8444C20.3431 18.167 20.5044 18.3014 20.9073 18.3014C21.0955 18.3014 21.2565 18.3014 21.364 18.2476L21.1493 19.6713ZM14.6726 15.3447C14.6726 16.1513 15.0487 16.7152 15.9356 17.1454C16.6342 17.468 16.7418 17.5752 16.7418 17.844C16.7418 18.2473 16.446 18.4352 15.7742 18.4352C15.2638 18.4352 14.8067 18.3549 14.2693 18.1935L14.0274 19.6713L14.108 19.6985L14.4038 19.7522C14.511 19.7788 14.6457 19.806 14.8605 19.806C15.2366 19.8598 15.5592 19.8598 15.7742 19.8598C17.5477 19.8598 18.3811 19.1877 18.3811 17.7099C18.3811 16.8227 18.0319 16.3119 17.1988 15.9093C16.4732 15.5867 16.3926 15.5063 16.3926 15.2106C16.3926 14.8614 16.6883 14.7001 17.2257 14.7001C17.5483 14.7001 18.005 14.727 18.4352 14.7808L18.6768 13.3027C18.247 13.2221 17.5752 13.1683 17.1988 13.1683C15.3175 13.168 14.6457 14.1624 14.6726 15.3447ZM49.179 19.7522H47.5931L47.674 19.1339C47.217 19.6175 46.7331 19.8326 46.1147 19.8326C44.8787 19.8326 44.0724 18.785 44.0724 17.1726C44.0724 15.0224 45.3357 13.1949 46.8134 13.1949C47.4855 13.1949 47.9691 13.4906 48.4265 14.0818L48.8026 11.8244H50.4688L49.179 19.7522ZM46.7062 18.2473C47.4858 18.2473 48.0232 17.3336 48.0232 16.0703C48.0232 15.2372 47.7272 14.807 47.136 14.807C46.3836 14.807 45.8196 15.6939 45.8196 16.9572C45.8196 17.8175 46.115 18.2473 46.7062 18.2473ZM26.3089 19.6175C25.7175 19.806 25.1801 19.8863 24.5621 19.8863C22.6808 19.8863 21.7132 18.8922 21.7132 16.9841C21.7132 14.7805 22.9496 13.1411 24.6427 13.1411C26.0401 13.1411 26.9266 14.0549 26.9266 15.4791C26.9266 15.9631 26.8729 16.4201 26.7116 17.0916H23.3798C23.3529 17.1726 23.3529 17.2263 23.3529 17.2801C23.3529 18.0326 23.8637 18.4086 24.8309 18.4086C25.4489 18.4086 25.9863 18.3011 26.5778 18.0054L26.3089 19.6175ZM25.3683 15.7746V15.4523C25.3683 14.9149 25.0726 14.6191 24.5621 14.6191C24.0247 14.6191 23.6483 15.0224 23.487 15.7746H25.3683ZM8.2497 19.7522H6.58348L7.55101 13.6516L5.3743 19.7522H4.21858L4.08415 13.7054L3.06317 19.7522H1.50449L2.8212 11.8244H5.23988L5.32053 16.7424L6.93266 11.8244H9.56641L8.2497 19.7522ZM12.4152 16.8765C12.2539 16.8765 12.1733 16.8499 12.0389 16.8499C11.0982 16.8499 10.6146 17.1991 10.6146 17.844C10.6146 18.2473 10.8297 18.489 11.2057 18.489C11.9044 18.489 12.3884 17.844 12.4152 16.8765ZM13.6513 19.7522H12.2536L12.2805 19.0801C11.8503 19.6175 11.2861 19.8598 10.5067 19.8598C9.59298 19.8598 8.97495 19.1611 8.97495 18.1129C8.97495 16.5276 10.0497 15.6139 11.931 15.6139C12.1192 15.6139 12.3612 15.6408 12.6297 15.6673C12.6835 15.4526 12.6835 15.3719 12.6835 15.2644C12.6835 14.8345 12.3877 14.6732 11.6084 14.6732C11.1248 14.6732 10.5871 14.727 10.211 14.8345L9.96905 14.9152L9.80774 14.9421L10.0497 13.4909C10.8828 13.249 11.4471 13.1683 12.0654 13.1683C13.5166 13.1683 14.2959 13.8132 14.2959 15.0493C14.2959 15.3719 14.269 15.6139 14.1615 16.3395L13.7851 18.624L13.7313 19.0267L13.7044 19.3493L13.6776 19.5916L13.6513 19.7522ZM39.0206 16.8765C38.8321 16.8765 38.7518 16.8499 38.6446 16.8499C37.677 16.8499 37.1928 17.1991 37.1928 17.844C37.1928 18.2473 37.4351 18.489 37.8111 18.489C38.4833 18.489 38.9934 17.844 39.0206 16.8765ZM40.2567 19.7522H38.8593L38.8859 19.0801C38.4561 19.6175 37.8918 19.8598 37.1125 19.8598C36.1987 19.8598 35.5804 19.1611 35.5804 18.1129C35.5804 16.5276 36.6551 15.6139 38.5364 15.6139C38.7249 15.6139 38.9669 15.6408 39.2085 15.6673C39.2623 15.4526 39.2895 15.3719 39.2895 15.2644C39.2895 14.8345 38.9934 14.6732 38.2147 14.6732C37.7305 14.6732 37.1666 14.727 36.7902 14.8345L36.5751 14.9152L36.4138 14.9421L36.6554 13.4909C37.4889 13.249 38.0528 13.1683 38.6711 13.1683C40.1223 13.1683 40.8747 13.8132 40.8747 15.0493C40.8747 15.3719 40.8747 15.6139 40.7406 16.3395L40.3911 18.624L40.3374 19.0267L40.2836 19.3493L40.257 19.5916V19.7522H40.2567ZM44.7714 13.2487H44.6101C44.0462 13.2487 43.7236 13.5175 43.2128 14.2965L43.3741 13.3021H41.842L40.8207 19.7519H42.4869C43.1052 15.8014 43.2665 15.1296 44.0728 15.1296H44.1803C44.3416 14.3503 44.5564 13.7857 44.8252 13.2752L44.7714 13.2487Z" fill="white"/>
</svg>
