<svg width="58" height="58" viewBox="0 0 58 58" fill="none" xmlns="http://www.w3.org/2000/svg">
<path d="M32.85 24.76L36 22.56C34.33 19.1 32 16.8 28.87 16.16V11.77H27.46V15.77C26.3003 15.5508 25.1097 15.5508 23.95 15.77V11.65H22.64V15.86C18.59 17.24 15.79 19.7 15.47 24.26C15.78 28.39 18.28 30.8 22.68 31.73C26.03 32.78 28.32 32.65 29.68 34.17C31.18 35.89 31.1 39.39 29.15 40.51C27.83 41.26 25.6 41.65 22.71 40.75C20.03 39.64 17.85 37.27 15.81 34.51L13.11 37.51C15.6 41.42 18.6 44.45 22.59 45.76V50H23.75V45.76H27.56V49.88H28.95V45.65C32.74 45 35 42.33 36 37.82C36.25 32.66 33.78 29.5 28.87 28.11C26.16 27.18 23.59 27.11 22.19 26.36C18.7 24.49 20.13 20.66 23.71 19.75C25.12 19.4 26.71 19.68 28.87 20.6C30.52 21.27 31.76 22.85 32.85 24.76Z" fill="#9E38FF"/>
<path d="M32.85 24.76L36 22.56C34.33 19.1 32 16.8 28.87 16.16V11.77H27.46V15.77C26.3003 15.5508 25.1097 15.5508 23.95 15.77V11.65H22.64V15.86C18.59 17.24 15.79 19.7 15.47 24.26C15.78 28.39 18.28 30.8 22.68 31.73C26.03 32.78 28.32 32.65 29.68 34.17C31.18 35.89 31.1 39.39 29.15 40.51C27.83 41.26 25.6 41.65 22.71 40.75C20.03 39.64 17.85 37.27 15.81 34.51L13.11 37.51C15.6 41.42 18.6 44.45 22.59 45.76V50H23.75V45.76H27.56V49.88H28.95V45.65C32.74 45 35 42.33 36 37.82C36.25 32.66 33.78 29.5 28.87 28.11C26.16 27.18 23.59 27.11 22.19 26.36C18.7 24.49 20.13 20.66 23.71 19.75C25.12 19.4 26.71 19.68 28.87 20.6C30.52 21.27 31.76 22.85 32.85 24.76Z" fill="url(#paint0_linear_2_171)"/>
<path d="M44.96 16.04L40.45 21.89L35.95 16.04H38.26V8H42.65V16.04H44.96Z" fill="url(#paint1_linear_2_171)"/>
<defs>
<linearGradient id="paint0_linear_2_171" x1="13.04" y1="30.83" x2="36.03" y2="30.83" gradientUnits="userSpaceOnUse">
<stop stop-color="#8A5EFF" stop-opacity="0.44"/>
<stop offset="1" stop-color="#EC5076"/>
</linearGradient>
<linearGradient id="paint1_linear_2_171" x1="35.95" y1="14.94" x2="44.96" y2="14.94" gradientUnits="userSpaceOnUse">
<stop stop-color="#4D38FF"/>
<stop offset="1" stop-color="#4838FF"/>
</linearGradient>
</defs>
</svg>
