<svg width="78" height="21" viewBox="0 0 78 21" fill="none" xmlns="http://www.w3.org/2000/svg">
<path d="M9.34539 0.00146501H3.28775C3.08721 0.00133914 2.89322 0.0724906 2.74073 0.202099C2.58824 0.331708 2.48727 0.511251 2.45603 0.70838L0.00605294 16.1662C-0.00521037 16.2379 -0.000717373 16.3112 0.0192204 16.3811C0.0391581 16.4509 0.0740674 16.5156 0.121546 16.5707C0.169024 16.6258 0.227943 16.6701 0.294246 16.7004C0.360549 16.7306 0.432659 16.7463 0.505614 16.7462H3.39758C3.59825 16.7463 3.79235 16.675 3.94486 16.5452C4.09737 16.4154 4.19825 16.2357 4.2293 16.0384L4.89007 11.8692C4.9211 11.672 5.02185 11.4924 5.17418 11.3626C5.3265 11.2329 5.52038 11.1615 5.7209 11.1614H7.63855C11.6288 11.1614 13.9318 9.23983 14.5332 5.43201C14.8043 3.76609 14.5447 2.45716 13.7608 1.54046C12.8999 0.533854 11.3729 0.00146501 9.34539 0.00146501ZM10.0442 5.64708C9.71297 7.81014 8.05219 7.81014 6.44633 7.81014H5.53224L6.17352 3.7705C6.1923 3.65231 6.25284 3.54468 6.34425 3.46696C6.43567 3.38923 6.55196 3.34653 6.6722 3.34653H7.09116C8.18506 3.34653 9.21695 3.34653 9.75017 3.96706C10.0682 4.33727 10.1656 4.88728 10.0442 5.64708ZM27.4527 5.57745H24.5519C24.4317 5.57745 24.3154 5.62016 24.224 5.69788C24.1326 5.7756 24.072 5.88324 24.0532 6.00142L23.9248 6.80882L23.722 6.51618C23.094 5.60918 21.6936 5.30597 20.2959 5.30597C17.0904 5.30597 14.3525 7.72199 13.8193 11.1111C13.5421 12.8017 13.9362 14.4183 14.8999 15.5456C15.7839 16.5822 17.0487 17.0141 18.5536 17.0141C21.1365 17.0141 22.5687 15.3614 22.5687 15.3614L22.4394 16.1635C22.4279 16.2353 22.4321 16.3086 22.4518 16.3785C22.4715 16.4485 22.5062 16.5133 22.5536 16.5686C22.6009 16.6239 22.6597 16.6683 22.7259 16.6988C22.7921 16.7293 22.8642 16.7452 22.9372 16.7453H25.5502C25.7508 16.7454 25.9449 16.6741 26.0974 16.5443C26.2499 16.4145 26.3508 16.2348 26.3819 16.0375L27.9496 6.15744C27.9612 6.08588 27.957 6.01269 27.9373 5.94291C27.9177 5.87313 27.883 5.80843 27.8357 5.75329C27.7885 5.69814 27.7298 5.65386 27.6637 5.6235C27.5975 5.59314 27.5256 5.57743 27.4527 5.57745ZM23.4093 11.1957C23.1294 12.8449 21.8141 13.952 20.1365 13.952C19.2941 13.952 18.6209 13.6832 18.1887 13.1737C17.76 12.6678 17.597 11.9476 17.7334 11.1455C17.9947 9.51043 19.3322 8.36721 20.9841 8.36721C21.8079 8.36721 22.4775 8.63957 22.9186 9.15345C23.3606 9.67262 23.536 10.3972 23.4093 11.1957ZM42.902 5.57745H39.987C39.8495 5.57767 39.7142 5.61126 39.5927 5.67531C39.4712 5.73936 39.3673 5.83194 39.2899 5.94501L35.2695 11.8383L33.5653 6.17507C33.513 6.00234 33.4062 5.85096 33.2607 5.74333C33.1152 5.6357 32.9388 5.57754 32.7575 5.57745H29.893C29.8126 5.57724 29.7333 5.59614 29.6617 5.63258C29.5901 5.66903 29.5283 5.72196 29.4814 5.78697C29.4346 5.85199 29.404 5.9272 29.3922 6.00636C29.3804 6.08551 29.3878 6.16632 29.4138 6.24206L32.6246 15.6188L29.606 19.8594C29.5524 19.9346 29.5205 20.023 29.514 20.115C29.5075 20.207 29.5266 20.299 29.5691 20.3809C29.6116 20.4628 29.676 20.5315 29.7552 20.5795C29.8343 20.6274 29.9252 20.6527 30.0179 20.6527H32.9293C33.0653 20.6529 33.1992 20.6203 33.3197 20.5576C33.4402 20.495 33.5436 20.4042 33.6211 20.2931L43.3165 6.36634C43.3691 6.29099 43.3999 6.20277 43.4056 6.11123C43.4114 6.01969 43.3918 5.92834 43.3491 5.84706C43.3064 5.76579 43.2422 5.69769 43.1634 5.65017C43.0845 5.60264 42.9941 5.57749 42.902 5.57745Z" fill="white"/>
<path d="M52.5528 0.000881374H46.4942C46.2938 0.000965502 46.1001 0.0722118 45.9478 0.201802C45.7955 0.331391 45.6946 0.510817 45.6634 0.707795L43.2134 16.1656C43.202 16.2372 43.2064 16.3104 43.2261 16.3802C43.2459 16.4499 43.2807 16.5146 43.328 16.5698C43.3753 16.6249 43.434 16.6691 43.5002 16.6995C43.5664 16.7298 43.6384 16.7456 43.7112 16.7456H46.8202C46.9604 16.7454 47.096 16.6954 47.2025 16.6045C47.3091 16.5137 47.3795 16.3881 47.4012 16.2502L48.0966 11.8686C48.1276 11.6714 48.2283 11.4918 48.3807 11.362C48.533 11.2323 48.7269 11.1609 48.9274 11.1608H50.8442C54.8353 11.1608 57.1374 9.23924 57.7397 5.43142C58.0116 3.7655 57.7503 2.45657 56.9665 1.53987C56.1064 0.53327 54.5802 0.000881374 52.5528 0.000881374ZM53.2516 5.64649C52.9212 7.80954 51.2605 7.80954 49.6537 7.80954H48.7405L49.3827 3.76991C49.4011 3.65172 49.4614 3.544 49.5527 3.46623C49.644 3.38846 49.7603 3.34579 49.8805 3.34594H50.2994C51.3924 3.34594 52.4252 3.34594 52.9584 3.96647C53.2764 4.33668 53.373 4.88669 53.2516 5.64649ZM70.6593 5.57686H67.7602C67.64 5.57653 67.5236 5.61914 67.4323 5.69694C67.3409 5.77474 67.2806 5.88257 67.2624 6.00083L67.134 6.80823L66.9302 6.51559C66.3023 5.60859 64.9028 5.30538 63.5051 5.30538C60.2995 5.30538 57.5626 7.7214 57.0293 11.1105C56.753 12.8011 57.1454 14.4177 58.1091 15.545C58.9948 16.5816 60.2579 17.0135 61.7628 17.0135C64.3456 17.0135 65.7779 15.3608 65.7779 15.3608L65.6486 16.1629C65.637 16.2348 65.6413 16.3083 65.6611 16.3783C65.6809 16.4484 65.7158 16.5133 65.7633 16.5687C65.8108 16.624 65.8698 16.6684 65.9363 16.6988C66.0027 16.7292 66.075 16.7448 66.1481 16.7447H68.7602C68.9607 16.7446 69.1546 16.6732 69.3069 16.5434C69.4593 16.4137 69.56 16.234 69.591 16.0369L71.1597 6.15685C71.1708 6.08507 71.1662 6.01174 71.1462 5.94191C71.1261 5.87207 71.0911 5.80738 71.0436 5.75228C70.996 5.69718 70.937 5.65297 70.8707 5.62269C70.8044 5.59241 70.7322 5.57678 70.6593 5.57686ZM66.6158 11.1951C66.3377 12.8443 65.0206 13.9514 63.343 13.9514C62.5024 13.9514 61.8274 13.6826 61.3952 13.1731C60.9665 12.6672 60.8053 11.947 60.9399 11.1449C61.203 9.50984 62.5387 8.36661 64.1906 8.36661C65.0144 8.36661 65.684 8.63898 66.1251 9.15285C66.5689 9.67202 66.7442 10.3966 66.6158 11.1951ZM74.0791 0.424853L71.5928 16.1656C71.5814 16.2372 71.5858 16.3104 71.6056 16.3802C71.6253 16.4499 71.6601 16.5146 71.7074 16.5698C71.7547 16.6249 71.8135 16.6691 71.8796 16.6995C71.9458 16.7298 72.0178 16.7456 72.0906 16.7456H74.5902C75.0056 16.7456 75.3582 16.4459 75.4219 16.0378L77.8737 0.580868C77.8851 0.509219 77.8807 0.435967 77.861 0.366148C77.8412 0.296329 77.8064 0.231598 77.7592 0.176405C77.7119 0.121212 77.6531 0.076865 77.587 0.0464136C77.5208 0.0159622 77.4488 0.000128372 77.3759 0H74.5769C74.4568 0.000423423 74.3407 0.0434098 74.2495 0.121259C74.1582 0.199108 74.0979 0.306733 74.0791 0.424853Z" fill="#179BD7"/>
</svg>
