<svg width="375" height="78" viewBox="0 0 375 78" fill="none" xmlns="http://www.w3.org/2000/svg">
<g clip-path="url(#clip0_5127_969)">
<path d="M0 0H375V78H0V0Z" fill="url(#paint0_linear_5127_969)"/>
<path d="M271.065 47.4175C261.784 57.2509 300.85 72 325.933 72H338.474C368.573 70.4243 407.138 63.9951 420.933 50.8838C438.178 34.4947 342.55 29.4531 318.094 19.6821C308.444 15.8265 271.065 -1.54056 303.358 -8.99985L227.17 -9C201.774 1.08559 300.792 19.5573 298.029 28.507C295.265 37.4567 282.665 35.1257 271.065 47.4175Z" fill="url(#paint1_linear_5127_969)"/>
<path d="M391.673 76.5076C401.077 84.9873 380.364 49.9119 358.447 36.9358C344.655 28.7702 324.364 25.3276 299.83 16.8359C283.723 11.2611 292.24 -9.93845 339.438 -12.7023C342.826 -12.8183 346.34 -12.9178 349.983 -13C346.273 -13 342.76 -12.8968 339.438 -12.7023C213.41 -8.38501 261.388 18.9324 277.261 38.5061C293.018 57.9369 297.72 71.2608 298.027 76.5076H295.128C296.725 79.908 298.216 79.7526 298.027 76.5076H391.673Z" fill="#F9F9F9" fill-opacity="0.3"/>
<path d="M380.401 18.2317C410.388 8.07512 362.824 -9 337.401 -9H274C274 -9 332.794 -4.46455 329.241 11.3455C325.16 29.5 284.907 32.3171 299.423 46.4024C305.9 52.6871 339.912 68 380.401 68C377.576 50.1585 337.401 38.6058 342.737 32.3171C348.845 25.1179 363.766 23.8659 380.401 18.2317Z" fill="url(#paint2_linear_5127_969)"/>
<circle cx="346.73" cy="59.7004" r="35.6242" fill="#FEF97D"/>
<circle cx="346.732" cy="59.7004" r="26.5287" fill="#EBE66B"/>
<circle cx="326.268" cy="42.2675" r="49.2675" fill="url(#paint3_radial_5127_969)" fill-opacity="0.7"/>
<path d="M346.802 69.9336C354.723 69.9336 357.344 75.7978 357.344 77.8922H336.121C336.121 75.7978 338.88 69.9336 346.802 69.9336Z" fill="#A26019"/>
<path d="M330.68 49.9402C324.459 61.4896 336.279 73.669 341.878 68.2093C347.476 62.7496 332.339 56.2399 330.68 49.9402Z" fill="#2CDDA6"/>
<path d="M348.246 61.2166C358.2 65.8362 363.651 58.1298 361.37 50.5702C356.808 54.35 347.914 54.497 348.246 61.2166Z" fill="#2CDDA6"/>
<path d="M342.751 58.1848C353.326 55.0349 347.131 43.0105 351.416 37.3408C340.841 37.3408 333.419 54.195 342.751 58.1848Z" fill="#2CDDA6"/>
<path d="M348.343 68.923C349.892 72.5288 351.028 76.251 350.511 80.9241H348.343C349.269 76.5316 347.959 72.7098 346.233 68.9095C340.27 68.5651 331.262 65.6048 330.816 55.4481C331.149 59.3783 334.521 67.1966 345.353 67.0281C341.988 59.9648 338.228 53.1974 345.692 44.9209C341.641 50.9351 342.405 55.7295 344.392 60.5012C346.431 60.9223 351.726 60.8381 356.587 57.1325C354.408 61.3434 347.981 62.1154 345.04 61.975C346.077 64.227 347.303 66.5012 348.343 68.923Z" fill="#081B31"/>
<path d="M356.743 72.207C363.487 72.207 368.545 75.9968 370.231 77.8917H347.47H343.044H327.027C327.449 76.5799 329.767 73.3002 336.511 73.3002C340.945 73.3002 343.831 74.4346 345.587 75.7709C348.145 74.0241 352.073 72.207 356.743 72.207Z" fill="#AA6B26"/>
<ellipse cx="363" cy="27.5" rx="38" ry="37.5" fill="url(#paint4_radial_5127_969)" fill-opacity="0.7"/>
<path d="M84.5 18C84.5 19.1046 83.6046 20 82.5 20C81.3954 20 80.5 19.1046 80.5 18C80.5 16.8954 81.3954 16 82.5 16C83.6046 16 84.5 16.8954 84.5 18Z" fill="white" fill-opacity="0.7"/>
<path d="M135.5 49C135.5 50.1046 134.605 51 133.5 51C132.395 51 131.5 50.1046 131.5 49C131.5 47.8954 132.395 47 133.5 47C134.605 47 135.5 47.8954 135.5 49Z" fill="white" fill-opacity="0.7"/>
<path d="M347.5 47C347.5 48.1046 346.605 49 345.5 49C344.395 49 343.5 48.1046 343.5 47C343.5 45.8954 344.395 45 345.5 45C346.605 45 347.5 45.8954 347.5 47Z" fill="white" fill-opacity="0.7"/>
<path d="M282.5 41C282.5 42.1046 281.605 43 280.5 43C279.395 43 278.5 42.1046 278.5 41C278.5 39.8954 279.395 39 280.5 39C281.605 39 282.5 39.8954 282.5 41Z" fill="white" fill-opacity="0.7"/>
<ellipse cx="363" cy="64.5" rx="38" ry="37.5" fill="url(#paint5_radial_5127_969)" fill-opacity="0.7"/>
</g>
<defs>
<linearGradient id="paint0_linear_5127_969" x1="187.5" y1="0" x2="187.5" y2="146.9" gradientUnits="userSpaceOnUse">
<stop stop-color="#18C7F2"/>
<stop offset="1" stop-color="#00A5EA"/>
</linearGradient>
<linearGradient id="paint1_linear_5127_969" x1="423" y1="72.0002" x2="-410.971" y2="-75.8554" gradientUnits="userSpaceOnUse">
<stop stop-color="#65D2EC"/>
<stop offset="1" stop-color="#72EAB5"/>
</linearGradient>
<linearGradient id="paint2_linear_5127_969" x1="-347.457" y1="-9" x2="-347.457" y2="68" gradientUnits="userSpaceOnUse">
<stop stop-color="#1CBDE8"/>
<stop offset="1" stop-color="#582EDC"/>
</linearGradient>
<radialGradient id="paint3_radial_5127_969" cx="0" cy="0" r="1" gradientUnits="userSpaceOnUse" gradientTransform="translate(326.268 42.2675) rotate(90) scale(49.2675)">
<stop offset="0.03125" stop-color="#FF784E"/>
<stop offset="1" stop-color="white" stop-opacity="0"/>
</radialGradient>
<radialGradient id="paint4_radial_5127_969" cx="0" cy="0" r="1" gradientUnits="userSpaceOnUse" gradientTransform="translate(363 27.5) rotate(90) scale(37.5 38)">
<stop offset="0.03125" stop-color="#F8EE12"/>
<stop offset="1" stop-color="white" stop-opacity="0"/>
</radialGradient>
<radialGradient id="paint5_radial_5127_969" cx="0" cy="0" r="1" gradientUnits="userSpaceOnUse" gradientTransform="translate(363 64.5) rotate(90) scale(37.5 38)">
<stop offset="0.03125" stop-color="#F8EE12"/>
<stop offset="1" stop-color="white" stop-opacity="0"/>
</radialGradient>
<clipPath id="clip0_5127_969">
<rect width="375" height="78" fill="white"/>
</clipPath>
</defs>
</svg>
