<svg width="1243" height="113" viewBox="0 0 1243 113" fill="none" xmlns="http://www.w3.org/2000/svg">
<g clip-path="url(#clip0_4929_1454)">
<rect width="1243" height="113" rx="15" fill="#1E315A"/>
<rect width="1243" height="113" rx="6" fill="url(#paint0_linear_4929_1454)"/>
<path d="M1323.5 77.5C1338.3 93.1 1374 114.332 1397 116.498H1216C1168 113.999 1066.5 103.799 1044.5 82.999C1017 56.999 1103 56.4991 1090.5 39.9991C1080.5 26.7991 975.001 -0.168127 923.501 -12.0017L1216 -12.002C1256.5 3.99805 1205.59 47.301 1210 61.499C1219 90.4983 1305 58 1323.5 77.5Z" fill="url(#paint1_linear_4929_1454)"/>
<path d="M170 85.5012C184.8 101.101 122.5 124.5 82.4999 124.5H62.4999C14.4999 122 -47 111.8 -69 91.0003C-96.5 65.0003 55.9998 57.0022 95 41.5012C110.389 35.3847 170 7.83311 118.5 -4.00048L240 -4.00072C280.5 11.9993 122.593 41.3032 127 55.5012C131.406 69.6992 151.5 66.0012 170 85.5012Z" fill="url(#paint2_linear_4929_1454)"/>
<path d="M1046.5 44C1038.12 30.55 1062 3.5 1077 -10H1200C1193.33 4.16667 1184 39.6 1200 68C1216 96.4 1145.67 114.167 1108.5 119.5C1116.17 116.167 1132.4 106.9 1136 96.5C1140.5 83.5 1070.5 82.5 1046.5 44Z" fill="#F9F9F9" fill-opacity="0.3"/>
<path d="M1046.5 42.5C1038.12 29.05 1051 -1 1066 -14.5H1220C1213.33 -0.333333 1187 59.525 1248.5 79C1278.5 88.5 1331.5 129 1109.5 124C1199.5 124 1203.61 94.4466 1195.5 87C1165 59 1070.5 81 1046.5 42.5Z" fill="#F9F9F9" fill-opacity="0.3"/>
<path d="M-21.9997 131.5C-36.9997 145 -3.96036 89.1585 30.9999 68.5C52.9998 55.5 85.3657 50.0192 124.5 36.5C150.192 27.6247 136.607 -6.12589 61.3212 -10.526C55.9169 -10.7108 50.3119 -10.8691 44.5 -11C50.4179 -11 56.0224 -10.8357 61.3212 -10.526C262.348 -3.65274 185.819 39.8377 160.5 71C135.366 101.935 127.866 123.147 127.376 131.5H132C129.453 136.914 127.074 136.666 127.376 131.5H-21.9997Z" fill="#F9F9F9" fill-opacity="0.3"/>
<path d="M1162 53.5C1113.2 40.7 1202.5 -5 1243 -5H1294V118H1098C1102.5 89.5 1218 92 1222.5 83C1227 74 1223 69.5 1162 53.5Z" fill="url(#paint3_linear_4929_1454)"/>
<path d="M-3.49965 38.5C-51.2705 22.2758 24.5 -5 65.0001 -5H166C166 -5 72.3395 2.24495 78 27.5C84.4998 56.5 148.625 61 125.5 83.5C115.182 93.5392 61 118 -3.49965 118C1.00035 89.5 65.0001 71.0456 56.5 61C46.7692 49.5 23.0002 47.5 -3.49965 38.5Z" fill="url(#paint4_linear_4929_1454)"/>
<circle cx="112" cy="65" r="94" fill="#FEF97D"/>
<circle cx="112" cy="65" r="70" fill="#EBE66B"/>
<circle cx="58" cy="19" r="130" fill="url(#paint5_radial_4929_1454)" fill-opacity="0.7"/>
<path d="M112.182 92C133.085 92 140 107.474 140 113H84C84 107.474 91.28 92 112.182 92Z" fill="#A26019"/>
<path d="M69.6488 39.2454C53.2339 69.7204 84.4223 101.858 99.1959 87.4512C113.97 73.0449 74.026 55.8681 69.6488 39.2454Z" fill="#2CDDA6"/>
<path d="M116 69C142.264 81.1895 156.649 60.8549 150.63 40.9077C138.592 50.8813 115.125 51.2691 116 69Z" fill="#2CDDA6"/>
<path d="M101.5 61C129.405 52.6886 113.057 20.9604 124.365 6C96.4599 6 76.8775 50.4723 101.5 61Z" fill="#2CDDA6"/>
<path d="M116.248 89.3333C120.334 98.8476 123.331 108.669 121.967 121H116.248C118.691 109.41 115.233 99.3253 110.678 89.2977C94.9457 88.3888 71.1766 80.5778 70 53.7778C70.8767 64.1482 79.7753 84.7778 108.356 84.3333C99.479 65.6957 89.557 47.839 109.252 26C98.562 41.8694 100.578 54.5201 105.821 67.1111C111.203 68.2222 125.174 68 138 58.2222C132.25 69.3333 115.292 71.3704 107.531 71C110.267 76.9421 113.503 82.9431 116.248 89.3333Z" fill="#081B31"/>
<path d="M138.41 98C156.205 98 169.551 108 174 113H113.941H102.263H60C61.1122 109.538 67.2293 100.885 85.0244 100.885C96.7251 100.885 104.339 103.878 108.972 107.404C115.721 102.795 126.088 98 138.41 98Z" fill="#AA6B26"/>
<path d="M231 40C231 41.1046 230.105 42 229 42C227.895 42 227 41.1046 227 40C227 38.8954 227.895 38 229 38C230.105 38 231 38.8954 231 40Z" fill="white" fill-opacity="0.7"/>
<path d="M342 86C342 87.1046 341.105 88 340 88C338.895 88 338 87.1046 338 86C338 84.8954 338.895 84 340 84C341.105 84 342 84.8954 342 86Z" fill="white" fill-opacity="0.7"/>
<path d="M484.5 10C484.5 11.1046 483.605 12 482.5 12C481.395 12 480.5 11.1046 480.5 10C480.5 8.89543 481.395 8 482.5 8C483.605 8 484.5 8.89543 484.5 10Z" fill="white" fill-opacity="0.7"/>
<path d="M415.5 61C415.5 62.1046 414.605 63 413.5 63C412.395 63 411.5 62.1046 411.5 61C411.5 59.8954 412.395 59 413.5 59C414.605 59 415.5 59.8954 415.5 61Z" fill="white" fill-opacity="0.7"/>
<path d="M647.5 99C647.5 100.105 646.605 101 645.5 101C644.395 101 643.5 100.105 643.5 99C643.5 97.8954 644.395 97 645.5 97C646.605 97 647.5 97.8954 647.5 99Z" fill="white" fill-opacity="0.7"/>
<path d="M682.5 53C682.5 54.1046 681.605 55 680.5 55C679.395 55 678.5 54.1046 678.5 53C678.5 51.8954 679.395 51 680.5 51C681.605 51 682.5 51.8954 682.5 53Z" fill="white" fill-opacity="0.7"/>
<path d="M962.5 10C962.5 11.1046 961.605 12 960.5 12C959.395 12 958.5 11.1046 958.5 10C958.5 8.89543 959.395 8 960.5 8C961.605 8 962.5 8.89543 962.5 10Z" fill="white" fill-opacity="0.7"/>
<path d="M896 74.5C896 75.6046 895.105 76.5 894 76.5C892.895 76.5 892 75.6046 892 74.5C892 73.3954 892.895 72.5 894 72.5C895.105 72.5 896 73.3954 896 74.5Z" fill="white" fill-opacity="0.7"/>
<path d="M858.5 12C858.5 13.1046 857.605 14 856.5 14C855.395 14 854.5 13.1046 854.5 12C854.5 10.8954 855.395 10 856.5 10C857.605 10 858.5 10.8954 858.5 12Z" fill="white" fill-opacity="0.7"/>
<path d="M1015 87C1015 88.1046 1014.1 89 1013 89C1011.9 89 1011 88.1046 1011 87C1011 85.8954 1011.9 85 1013 85C1014.1 85 1015 85.8954 1015 87Z" fill="white" fill-opacity="0.7"/>
<path d="M1141 18.5C1141 19.6046 1140.1 20.5 1139 20.5C1137.9 20.5 1137 19.6046 1137 18.5C1137 17.3954 1137.9 16.5 1139 16.5C1140.1 16.5 1141 17.3954 1141 18.5Z" fill="white" fill-opacity="0.7"/>
<path d="M1214 47C1214 48.1046 1213.1 49 1212 49C1210.9 49 1210 48.1046 1210 47C1210 45.8954 1210.9 45 1212 45C1213.1 45 1214 45.8954 1214 47Z" fill="white" fill-opacity="0.7"/>
<circle cx="182" cy="103" r="100" fill="url(#paint6_radial_4929_1454)" fill-opacity="0.7"/>
</g>
<defs>
<linearGradient id="paint0_linear_4929_1454" x1="621.5" y1="0" x2="621.5" y2="113" gradientUnits="userSpaceOnUse">
<stop stop-color="#18C7F2"/>
<stop offset="1" stop-color="#00A5EA"/>
</linearGradient>
<linearGradient id="paint1_linear_4929_1454" x1="-72.2959" y1="124.5" x2="1257.24" y2="-112.449" gradientUnits="userSpaceOnUse">
<stop stop-color="#65D2EC"/>
<stop offset="1" stop-color="#72EAB5"/>
</linearGradient>
<linearGradient id="paint2_linear_4929_1454" x1="-72.2959" y1="124.5" x2="1257.24" y2="-112.449" gradientUnits="userSpaceOnUse">
<stop stop-color="#65D2EC"/>
<stop offset="1" stop-color="#72EAB5"/>
</linearGradient>
<linearGradient id="paint3_linear_4929_1454" x1="1156" y1="-5" x2="1156" y2="118" gradientUnits="userSpaceOnUse">
<stop stop-color="#1CBDE8"/>
<stop offset="1" stop-color="#582EDC"/>
</linearGradient>
<linearGradient id="paint4_linear_4929_1454" x1="1156" y1="-5" x2="1156" y2="118" gradientUnits="userSpaceOnUse">
<stop stop-color="#1CBDE8"/>
<stop offset="1" stop-color="#582EDC"/>
</linearGradient>
<radialGradient id="paint5_radial_4929_1454" cx="0" cy="0" r="1" gradientUnits="userSpaceOnUse" gradientTransform="translate(58 19) rotate(90) scale(130)">
<stop offset="0.03125" stop-color="#FF784E"/>
<stop offset="1" stop-color="white" stop-opacity="0"/>
</radialGradient>
<radialGradient id="paint6_radial_4929_1454" cx="0" cy="0" r="1" gradientUnits="userSpaceOnUse" gradientTransform="translate(182 103) rotate(90) scale(100)">
<stop offset="0.03125" stop-color="#F8EE12"/>
<stop offset="1" stop-color="white" stop-opacity="0"/>
</radialGradient>
<clipPath id="clip0_4929_1454">
<rect width="1243" height="113" rx="15" fill="white"/>
</clipPath>
</defs>
</svg>
