<svg width="58" height="58" viewBox="0 0 58 58" fill="none" xmlns="http://www.w3.org/2000/svg">
<path d="M45.64 26.7301V41.5801C45.6374 41.8296 45.5857 42.0761 45.4877 42.3057C45.3898 42.5352 45.2477 42.7432 45.0694 42.9177C44.8911 43.0923 44.6802 43.2301 44.4486 43.3231C44.2171 43.4162 43.9695 43.4627 43.72 43.4601L6.63 43.4101C6.52008 43.3966 6.41646 43.3514 6.3318 43.28C6.24715 43.2086 6.18512 43.1141 6.1533 43.0081C6.12148 42.902 6.12124 42.789 6.15262 42.6828C6.184 42.5766 6.24564 42.4818 6.33 42.4101L13.72 37.8501C13.9941 37.6849 14.221 37.4517 14.3787 37.1732C14.5363 36.8946 14.6195 36.5801 14.62 36.2601V23.5401C14.6253 23.0379 14.8292 22.5582 15.1871 22.2059C15.545 21.8537 16.0278 21.6574 16.53 21.6601H39.7C40.0358 23.02 40.7895 24.2406 41.8549 25.15C42.9204 26.0594 44.2442 26.612 45.64 26.7301Z" fill="#9E38FF"/>
<path d="M45.64 26.7301V41.5801C45.6374 41.8296 45.5857 42.0761 45.4877 42.3057C45.3898 42.5352 45.2477 42.7432 45.0694 42.9177C44.8911 43.0923 44.6802 43.2301 44.4486 43.3231C44.2171 43.4162 43.9695 43.4627 43.72 43.4601L6.63 43.4101C6.52008 43.3966 6.41646 43.3514 6.3318 43.28C6.24715 43.2086 6.18512 43.1141 6.1533 43.0081C6.12148 42.902 6.12124 42.789 6.15262 42.6828C6.184 42.5766 6.24564 42.4818 6.33 42.4101L13.72 37.8501C13.9941 37.6849 14.221 37.4517 14.3787 37.1732C14.5363 36.8946 14.6195 36.5801 14.62 36.2601V23.5401C14.6253 23.0379 14.8292 22.5582 15.1871 22.2059C15.545 21.8537 16.0278 21.6574 16.53 21.6601H39.7C40.0358 23.02 40.7895 24.2406 41.8549 25.15C42.9204 26.0594 44.2442 26.612 45.64 26.7301Z" fill="url(#paint0_linear_2_177)"/>
<path d="M23.48 35.1C24.9049 35.1 26.06 33.9628 26.06 32.56C26.06 31.1572 24.9049 30.02 23.48 30.02C22.0551 30.02 20.9 31.1572 20.9 32.56C20.9 33.9628 22.0551 35.1 23.48 35.1Z" fill="url(#paint1_linear_2_177)"/>
<path d="M46.27 25.68C49.3959 25.68 51.93 23.1863 51.93 20.11C51.93 17.0338 49.3959 14.54 46.27 14.54C43.1441 14.54 40.61 17.0338 40.61 20.11C40.61 23.1863 43.1441 25.68 46.27 25.68Z" fill="url(#paint2_linear_2_177)"/>
<path d="M30.87 35.1C32.2949 35.1 33.45 33.9628 33.45 32.56C33.45 31.1572 32.2949 30.02 30.87 30.02C29.4451 30.02 28.29 31.1572 28.29 32.56C28.29 33.9628 29.4451 35.1 30.87 35.1Z" fill="url(#paint3_linear_2_177)"/>
<path d="M37.56 35.1C38.9849 35.1 40.14 33.9628 40.14 32.56C40.14 31.1572 38.9849 30.02 37.56 30.02C36.1351 30.02 34.98 31.1572 34.98 32.56C34.98 33.9628 36.1351 35.1 37.56 35.1Z" fill="url(#paint4_linear_2_177)"/>
<path d="M45.78 22.1V18.33C45.3751 18.7106 44.8846 18.9884 44.35 19.14C44.2852 19.1421 44.2206 19.1307 44.1604 19.1066C44.1001 19.0825 44.0455 19.0462 44 19C43.9579 18.9582 43.9246 18.9083 43.9023 18.8533C43.8799 18.7983 43.869 18.7394 43.87 18.68C43.8648 18.6217 43.8739 18.5629 43.8966 18.5089C43.9192 18.4549 43.9547 18.4072 44 18.37C44.1518 18.2689 44.3124 18.1819 44.48 18.11C44.772 17.9861 45.0447 17.8211 45.29 17.62C45.4878 17.444 45.6686 17.2498 45.83 17.04C45.9258 16.901 46.0293 16.7675 46.14 16.64C46.1752 16.609 46.2165 16.5858 46.2614 16.572C46.3062 16.5582 46.3535 16.5541 46.4 16.56C46.469 16.5588 46.5374 16.5735 46.5998 16.603C46.6622 16.6325 46.7171 16.676 46.76 16.73C46.858 16.8666 46.9073 17.0321 46.9 17.2V21.94C46.9 22.49 46.7 22.77 46.32 22.77C46.2434 22.773 46.1671 22.7593 46.0963 22.73C46.0256 22.7006 45.962 22.6563 45.91 22.6C45.8088 22.454 45.7628 22.2768 45.78 22.1Z" fill="white"/>
<defs>
<linearGradient id="paint0_linear_2_177" x1="6.06" y1="32.5601" x2="45.64" y2="32.5601" gradientUnits="userSpaceOnUse">
<stop stop-color="#8A5EFF" stop-opacity="0.44"/>
<stop offset="1" stop-color="#EC5076"/>
</linearGradient>
<linearGradient id="paint1_linear_2_177" x1="20.81" y1="32.56" x2="25.98" y2="32.56" gradientUnits="userSpaceOnUse">
<stop offset="0.11" stop-color="#4D38FF"/>
<stop offset="1" stop-color="#4838FF"/>
</linearGradient>
<linearGradient id="paint2_linear_2_177" x1="40.61" y1="20.11" x2="51.94" y2="20.11" gradientUnits="userSpaceOnUse">
<stop offset="0.16" stop-color="#4D38FF"/>
<stop offset="1" stop-color="#4838FF"/>
</linearGradient>
<linearGradient id="paint3_linear_2_177" x1="28.28" y1="32.56" x2="33.45" y2="32.56" gradientUnits="userSpaceOnUse">
<stop stop-color="#5C38FF"/>
<stop offset="0.81" stop-color="#4D38FF"/>
<stop offset="1" stop-color="#4838FF"/>
</linearGradient>
<linearGradient id="paint4_linear_2_177" x1="215.425" y1="195.425" x2="242.102" y2="195.425" gradientUnits="userSpaceOnUse">
<stop offset="0.16" stop-color="#4D38FF"/>
<stop offset="1" stop-color="#4838FF"/>
</linearGradient>
</defs>
</svg>
