<svg width="58" height="58" viewBox="0 0 58 58" fill="none" xmlns="http://www.w3.org/2000/svg">
<path d="M47.33 36.74L30.43 48.22C30.2472 48.3412 30.0421 48.425 29.8267 48.4665C29.6112 48.508 29.3897 48.5064 29.1749 48.4618C28.9601 48.4171 28.7562 48.3304 28.5752 48.2065C28.3941 48.0826 28.2394 47.924 28.12 47.74L26.49 45.26L43 34.07C43.3762 33.8105 43.636 33.4142 43.7238 32.9657C43.8116 32.5172 43.7205 32.0522 43.47 31.67L31.22 13.05L31.62 12.77C31.8018 12.6469 32.0064 12.5614 32.2216 12.5184C32.4369 12.4754 32.6586 12.4758 32.8738 12.5196C33.0889 12.5633 33.2931 12.6496 33.4745 12.7733C33.6559 12.897 33.8107 13.0557 33.93 13.24L47.79 34.38C48.0343 34.7562 48.1228 35.2126 48.037 35.6529C47.9512 36.0932 47.6977 36.483 47.33 36.74Z" fill="url(#paint0_linear_2_159)"/>
<path d="M41.35 33.75L24.45 45.23C24.2682 45.353 24.0636 45.4386 23.8484 45.4816C23.6331 45.5246 23.4114 45.5241 23.1962 45.4804C22.9811 45.4366 22.7769 45.3503 22.5955 45.2266C22.4141 45.1029 22.2593 44.9443 22.14 44.76L8.28 23.62C8.03574 23.2437 7.94718 22.7873 8.033 22.347C8.11882 21.9067 8.37232 21.517 8.74 21.26L25.64 9.78999C25.8218 9.66694 26.0264 9.58142 26.2416 9.53842C26.4569 9.49543 26.6786 9.49583 26.8938 9.5396C27.1089 9.58337 27.3131 9.66963 27.4945 9.79333C27.6759 9.91703 27.8307 10.0757 27.95 10.26L41.81 31.4C42.0563 31.7739 42.146 32.2295 42.06 32.6689C41.974 33.1083 41.7191 33.4965 41.35 33.75Z" fill="#9E38FF"/>
<path d="M15.84 28.14C18.0105 28.14 19.77 26.3492 19.77 24.14C19.77 21.9309 18.0105 20.14 15.84 20.14C13.6695 20.14 11.91 21.9309 11.91 24.14C11.91 26.3492 13.6695 28.14 15.84 28.14Z" fill="url(#paint1_linear_2_159)"/>
<path d="M32.3 34.74C34.4705 34.74 36.23 32.9491 36.23 30.74C36.23 28.5309 34.4705 26.74 32.3 26.74C30.1295 26.74 28.37 28.5309 28.37 30.74C28.37 32.9491 30.1295 34.74 32.3 34.74Z" fill="url(#paint2_linear_2_159)"/>
<path d="M44.41 15.36C45.5698 15.36 46.51 14.4063 46.51 13.23C46.51 12.0536 45.5698 11.1 44.41 11.1C43.2502 11.1 42.31 12.0536 42.31 13.23C42.31 14.4063 43.2502 15.36 44.41 15.36Z" fill="url(#paint3_linear_2_159)"/>
<path d="M47.03 23.37C48.1898 23.37 49.13 22.4164 49.13 21.24C49.13 20.0636 48.1898 19.11 47.03 19.11C45.8702 19.11 44.93 20.0636 44.93 21.24C44.93 22.4164 45.8702 23.37 47.03 23.37Z" fill="url(#paint4_linear_2_159)"/>
<path d="M50 12.66L41.67 21.15" stroke="#9E38FF" stroke-width="0.84" stroke-miterlimit="10" stroke-linecap="round"/>
<path d="M14.59 24.99L17.09 23.29" stroke="#0D1320" stroke-width="0.84" stroke-miterlimit="10" stroke-linecap="round"/>
<path d="M33.78 30.24L32.9 30.85L33.52 31.71C33.586 31.8013 33.6144 31.9144 33.5996 32.026C33.5847 32.1376 33.5276 32.2393 33.44 32.31C33.3677 32.3634 33.2798 32.3915 33.19 32.39C33.1242 32.3889 33.0595 32.3731 33.0007 32.3436C32.9419 32.3142 32.8904 32.272 32.85 32.22L32.2 31.31L31.28 31.94C31.21 31.9814 31.1311 32.0054 31.05 32.01C30.9805 32.0098 30.9121 31.9923 30.851 31.9592C30.79 31.926 30.7381 31.8782 30.7 31.82C30.6378 31.7268 30.6145 31.6129 30.635 31.5027C30.6556 31.3925 30.7184 31.2946 30.81 31.23L31.7 30.63L31.07 29.76C31.0364 29.7161 31.0118 29.6659 30.9976 29.6125C30.9834 29.559 30.98 29.5032 30.9874 29.4484C30.9948 29.3936 31.013 29.3408 31.0409 29.293C31.0688 29.2452 31.1059 29.2034 31.15 29.17C31.1939 29.1364 31.2441 29.1118 31.2976 29.0976C31.351 29.0835 31.4068 29.08 31.4616 29.0874C31.5164 29.0949 31.5693 29.1131 31.617 29.141C31.6648 29.1689 31.7066 29.2059 31.74 29.25L32.4 30.16L33.31 29.53C33.4045 29.4688 33.5192 29.4471 33.6295 29.4695C33.7398 29.492 33.8369 29.5568 33.9 29.65C33.9587 29.7452 33.979 29.8592 33.9567 29.9688C33.9344 30.0784 33.8712 30.1754 33.78 30.24V30.24Z" fill="#0D1320"/>
<defs>
<linearGradient id="paint0_linear_2_159" x1="26.49" y1="30.49" x2="48.07" y2="30.49" gradientUnits="userSpaceOnUse">
<stop stop-color="#8A5EFF" stop-opacity="0.44"/>
<stop offset="1" stop-color="#EC5076"/>
</linearGradient>
<linearGradient id="paint1_linear_2_159" x1="11.91" y1="24.14" x2="19.77" y2="24.14" gradientUnits="userSpaceOnUse">
<stop stop-color="#E8E5FF"/>
<stop offset="1" stop-color="#E1DEFF"/>
</linearGradient>
<linearGradient id="paint2_linear_2_159" x1="251.358" y1="272.66" x2="313.138" y2="272.66" gradientUnits="userSpaceOnUse">
<stop stop-color="#E8E6FF"/>
<stop offset="1" stop-color="#4838FF"/>
</linearGradient>
<linearGradient id="paint3_linear_2_159" x1="220.012" y1="67.4598" x2="237.61" y2="67.4598" gradientUnits="userSpaceOnUse">
<stop stop-color="#E8E5FF"/>
<stop offset="1" stop-color="#4838FF"/>
</linearGradient>
<linearGradient id="paint4_linear_2_159" x1="233.636" y1="109.592" x2="251.234" y2="109.592" gradientUnits="userSpaceOnUse">
<stop stop-color="#E8E5FF"/>
<stop offset="1" stop-color="#4838FF"/>
</linearGradient>
</defs>
</svg>
