<svg width="62" height="21" viewBox="0 0 62 21" fill="none" xmlns="http://www.w3.org/2000/svg">
<path d="M26.8776 19.7789H21.8185L24.9804 0.347216H30.04L26.8776 19.7789ZM17.5625 0.347216L12.7394 13.7125L12.1687 10.8344L12.1692 10.8354L10.4669 2.09681C10.4669 2.09681 10.2611 0.347216 8.06707 0.347216H0.0935615L0 0.67624C0 0.67624 2.43831 1.18355 5.29193 2.89728L9.68724 19.7794H14.9584L23.0073 0.347216H17.5625ZM57.3547 19.7789H62L57.9498 0.346697H53.883C52.0051 0.346697 51.5476 1.79482 51.5476 1.79482L44.0024 19.7789H49.2762L50.3308 16.8925H56.7621L57.3547 19.7789ZM51.7878 12.9052L54.446 5.63343L55.9414 12.9052H51.7878ZM44.398 5.02009L45.12 0.847249C45.12 0.847249 42.8922 0 40.5698 0C38.0592 0 32.0973 1.09727 32.0973 6.43286C32.0973 11.453 39.0946 11.5153 39.0946 14.1522C39.0946 16.7891 32.8182 16.3166 30.7469 14.6538L29.9947 19.0169C29.9947 19.0169 32.2537 20.1141 35.7051 20.1141C39.1575 20.1141 44.3658 18.3266 44.3658 13.4614C44.3658 8.40909 37.3055 7.93868 37.3055 5.74207C37.306 3.54494 42.2331 3.82718 44.398 5.02009Z" fill="white"/>
<path d="M12.1692 10.8349L10.4669 2.09627C10.4669 2.09627 10.2611 0.34668 8.06706 0.34668H0.0935614L0 0.675703C0 0.675703 3.83237 1.46993 7.50829 4.4457C11.0231 7.28996 12.1692 10.8349 12.1692 10.8349Z" fill="#E6A540"/>
</svg>
