<svg width="366" height="523" fill="none" xmlns="http://www.w3.org/2000/svg"><path d="M209 237a2 2 0 0 1 2-2h6a2 2 0 0 1 2 2v59a2 2 0 0 1-2 2h-6a2 2 0 0 1-2-2v-59Z" fill="url(#a)"/><path d="M224 197a2 2 0 0 1 2-2h6a2 2 0 0 1 2 2v99a2 2 0 0 1-2 2h-6a2 2 0 0 1-2-2v-99Z" fill="url(#b)"/><path d="M239 247a2 2 0 0 1 2-2h6a2 2 0 0 1 2 2v49a2 2 0 0 1-2 2h-6a2 2 0 0 1-2-2v-49Z" fill="url(#c)"/><path d="M254 237a2 2 0 0 1 2-2h6a2 2 0 0 1 2 2v59a2 2 0 0 1-2 2h-6a2 2 0 0 1-2-2v-59Z" fill="url(#d)"/><path d="M269 217a2 2 0 0 1 2-2h6a2 2 0 0 1 2 2v79a2 2 0 0 1-2 2h-6a2 2 0 0 1-2-2v-79Z" fill="url(#e)"/><path d="M284 207a2 2 0 0 1 2-2h6a2 2 0 0 1 2 2v89a2 2 0 0 1-2 2h-6a2 2 0 0 1-2-2v-89Z" fill="url(#f)"/><path d="M299 187a2 2 0 0 1 2-2h6a2 2 0 0 1 2 2v109a2 2 0 0 1-2 2h-6a2 2 0 0 1-2-2V187Z" fill="url(#g)"/><path d="M314 217a2 2 0 0 1 2-2h6a2 2 0 0 1 2 2v79a2 2 0 0 1-2 2h-6a2 2 0 0 1-2-2v-79Z" fill="url(#h)"/><path d="M149 227a2 2 0 0 1 2-2h6a2 2 0 0 1 2 2v69a2 2 0 0 1-2 2h-6a2 2 0 0 1-2-2v-69Z" fill="url(#i)"/><path d="M164 247a2 2 0 0 1 2-2h6a2 2 0 0 1 2 2v49a2 2 0 0 1-2 2h-6a2 2 0 0 1-2-2v-49Z" fill="url(#j)"/><path d="M179 227a2 2 0 0 1 2-2h6a2 2 0 0 1 2 2v69a2 2 0 0 1-2 2h-6a2 2 0 0 1-2-2v-69Z" fill="url(#k)"/><path d="M194 207a2 2 0 0 1 2-2h6a2 2 0 0 1 2 2v89a2 2 0 0 1-2 2h-6a2 2 0 0 1-2-2v-89Z" fill="url(#l)"/><g filter="url(#m)"><path d="M31 77a8 8 0 0 0 8 8h12.456a3 3 0 0 1 2.441 1.256l3.29 4.605a1 1 0 0 0 1.627 0l3.289-4.605A3 3 0 0 1 64.543 85H154a8 8 0 0 0 8-8V48a8 8 0 0 0-8-8H39a8 8 0 0 0-8 8v29Z" fill="#fff"/><path d="M39 85.5a8.5 8.5 0 0 1-8.5-8.5V48a8.5 8.5 0 0 1 8.5-8.5h115a8.5 8.5 0 0 1 8.5 8.5v29a8.5 8.5 0 0 1-8.5 8.5H64.544a2.5 2.5 0 0 0-2.034 1.047l-3.29 4.604a1.5 1.5 0 0 1-2.44 0l-3.29-4.604a2.5 2.5 0 0 0-2.034-1.047H39Z" stroke="#D9DDDE"/></g><path d="M40 52a2 2 0 0 1 2-2h34a2 2 0 0 1 2 2v21a2 2 0 0 1-2 2H42a2 2 0 0 1-2-2V52Z" fill="url(#n)"/><path d="M82.5 52a2 2 0 0 1 2-2h36a2 2 0 0 1 2 2v1a2 2 0 0 1-2 2h-36a2 2 0 0 1-2-2v-1Z" fill="url(#o)"/><path d="M82.5 61a2 2 0 0 1 2-2h66a2 2 0 0 1 2 2v1a2 2 0 0 1-2 2h-66a2 2 0 0 1-2-2v-1Z" fill="url(#p)"/><path d="M82.5 72a2 2 0 0 1 2-2h36a2 2 0 0 1 2 2v1a2 2 0 0 1-2 2h-36a2 2 0 0 1-2-2v-1Z" fill="url(#q)"/><g filter="url(#r)"><path d="M71 107a8 8 0 0 0 8 8h12.456a3 3 0 0 1 2.441 1.256l3.29 4.605a1 1 0 0 0 1.627 0l3.289-4.605a3 3 0 0 1 2.441-1.256H194a8 8 0 0 0 8-8V78a8 8 0 0 0-8-8H79a8 8 0 0 0-8 8v29Z" fill="#fff"/><path d="M79 115.5a8.5 8.5 0 0 1-8.5-8.5V78a8.5 8.5 0 0 1 8.5-8.5h115a8.5 8.5 0 0 1 8.5 8.5v29a8.5 8.5 0 0 1-8.5 8.5h-89.456c-.808 0-1.565.39-2.034 1.047l-3.29 4.604a1.5 1.5 0 0 1-2.44 0l-3.29-4.604a2.5 2.5 0 0 0-2.034-1.047H79Z" stroke="#D9DDDE"/></g><path d="M80 82a2 2 0 0 1 2-2h34a2 2 0 0 1 2 2v21a2 2 0 0 1-2 2H82a2 2 0 0 1-2-2V82Z" fill="url(#s)"/><path d="M122.5 82a2 2 0 0 1 2-2h36a2 2 0 0 1 2 2v1a2 2 0 0 1-2 2h-36a2 2 0 0 1-2-2v-1Z" fill="url(#t)"/><path d="M122.5 91a2 2 0 0 1 2-2h66a2 2 0 0 1 2 2v1a2 2 0 0 1-2 2h-66a2 2 0 0 1-2-2v-1Z" fill="url(#u)"/><path d="M122.5 102a2 2 0 0 1 2-2h36a2 2 0 0 1 2 2v1a2 2 0 0 1-2 2h-36a2 2 0 0 1-2-2v-1Z" fill="url(#v)"/><g filter="url(#w)"><path d="M21 137a8 8 0 0 0 8 8h12.456a3 3 0 0 1 2.441 1.256l3.29 4.605a1 1 0 0 0 1.627 0l3.289-4.605a3 3 0 0 1 2.44-1.256H144a8 8 0 0 0 8-8v-29a8 8 0 0 0-8-8H29a8 8 0 0 0-8 8v29Z" fill="#fff"/><path d="M29 145.5a8.5 8.5 0 0 1-8.5-8.5v-29a8.5 8.5 0 0 1 8.5-8.5h115a8.5 8.5 0 0 1 8.5 8.5v29a8.5 8.5 0 0 1-8.5 8.5H54.544a2.5 2.5 0 0 0-2.034 1.047l-3.29 4.604a1.5 1.5 0 0 1-2.44 0l-3.29-4.604a2.5 2.5 0 0 0-2.034-1.047H29Z" stroke="#D9DDDE"/></g><path d="M30 112a2 2 0 0 1 2-2h34a2 2 0 0 1 2 2v21a2 2 0 0 1-2 2H32a2 2 0 0 1-2-2v-21Z" fill="url(#x)"/><path d="M72.5 112a2 2 0 0 1 2-2h36a2 2 0 0 1 2 2v1a2 2 0 0 1-2 2h-36a2 2 0 0 1-2-2v-1Z" fill="url(#y)"/><path d="M72.5 121a2 2 0 0 1 2-2h66a2 2 0 0 1 2 2v1a2 2 0 0 1-2 2h-66a2 2 0 0 1-2-2v-1Z" fill="url(#z)"/><path d="M72.5 132a2 2 0 0 1 2-2h36a2 2 0 0 1 2 2v1a2 2 0 0 1-2 2h-36a2 2 0 0 1-2-2v-1Z" fill="url(#A)"/><path d="M239.362 437.901c-.791 4.826-3.89 8.95-8.506 10.563-10.162 3.55-30.554 9.136-58.256 9.136s-48.094-5.586-58.256-9.136c-4.616-1.613-7.715-5.737-8.506-10.563L87.1 323.6h171l-18.738 114.301Z" fill="url(#B)"/><path d="M265.5 278.6h-186S67 318.2 67 318.6c0 8.3 47.2 15 105.5 15s105.5-6.7 105.5-15c0-.4-12.5-40-12.5-40Z" fill="url(#C)"/><path d="M172.5 293.6c51.362 0 93-6.716 93-15 0-8.284-41.638-15-93-15s-93 6.716-93 15c0 8.284 41.638 15 93 15Z" fill="#07AFEC"/><path d="M95.9 287.1c16.8 3.9 44.8 6.5 76.6 6.5 31.8 0 59.9-2.6 76.6-6.5-16.8-3.9-44.8-6.5-76.6-6.5-31.8 0-59.8 2.6-76.6 6.5Z" fill="#342424"/><path d="M218.4 53.7c-21.1 7.3-26.8 15.2-32.7 20.9-5.9 5.8-11.4 40.4-11.4 40.4-11-21.6-32.9-40.6-33.6-49.2-1-11.8-9-40.5-10.1-40.4-1.1.1-3.1 3.9 7.4 41.9 3.5 12.8 40 45.9 36.3 77.1-1.5 12.4-.5 22.9 1.1 27.5l-4.6 18.4s-12.9 46-14.6 56.3c-1.6 9.6-4.4 42.7-4.8 46.6 4.5.2 9.2.3 14 .3 2.3-8.9 3.9-33 4.6-40 4.3-39.8 15.6-54.5 15.6-71.5 0-14.2-3.8-25.6-5-29 0-3.9 0-8.5-.2-13.6.3-4.6-.4-9.3-1.8-13.8.8-5.7 6.3-43.7 8.9-48.5 7.3-13.4 27.9-20.9 30.7-22 2.8-1.2 4.8-3 .2-1.4Z" fill="#96581A"/><path d="M230.1 125.5c-19.5-12.8-48.8 11.9-47.3 7.2 3.7-11.2 9.9-32.3 11.4-52.6.4-5.2-3-40.6-3-42.2 0-1.6-.5-2.9-1.1-.6-.6 2.3 1.9 23.9 1.5 42.4-.4 18.5-17.3 64.8-17.3 64.8s-6.3 18.2-6 25c.3 6.8 4.3 33.8 7.3 48.3s11.5 57.1 6.5 75.9c4.7-.1 9.4-.2 13.9-.4.6-12.7 1.1-41-4.4-57.5-7.3-21.8-14-60.3-13.8-65.3.2-3.1 3.2-15.3 5.5-24.1 5.3-16.4 32.4-28.2 46.6-19.9 2.2 1.2 1-.7.2-1Z" fill="#AA6B26"/><path d="M145.9 106.7c-1-20.3 32.5-58.7-16-80.3-3.6 2-39 18.6 16 80.3Z" fill="#2CDDA6"/><path d="M129.8 25.5S99.1 45.2 88 56.3C73.5 70.7 22.5 69.9 33.5 93c-3.8-11.6 12-44.9 36.9-53 24.9-8.1 53.6-15.6 59.4-14.5Z" fill="#2CDDA6"/><path d="M131.5 25.4s7.6 3.3 14.8 5.8c13.2 4.5 37.7 2.2 45.2 15.7 1.4-9.5-16.7-26.3-30-26-13.3.3-27.1 4.5-30 4.5Z" fill="#42E8B1"/><path d="M130.7 24.2s-17.9-18-10.6-22.6c7.3-4.6 13.5 3.1 14.4 2.9.9-.2 8.1-6.6 10.4-3.7 2.3 2.9-2.4 21-14.2 23.4Z" fill="#2CDDA6"/><path d="M218.3 57.1c-.8.5-23 7.3-16.5 25s24.5 37.5 18.8 44.3c7.7-6.5 23.5-27.5 19.8-42.5-3.7-15-22.1-26.8-22.1-26.8ZM222.3 55.6s11.4 10.1 18.6 10.9c7.2.8 22.4-1.4 32.2 4.1 9.8 5.5 48.8 13.8 51 18.8 5.5-13.8-11.9-21-22.5-28.5-28.3-20.2-61.3-3-79.3-5.3Z" fill="#42E8B1"/><path d="M192.7 37.4s34.8 16.7 41.8 16.3c18-.8 33.8-7.2 30.2-10-2.2-1.7-5-21.3-5-22.8s-22.8-6-27.5-2.3c-4.7 3.6-42.1 17.5-39.5 18.8ZM190.2 37.5s8 13.3 1.4 20.7C185 65.6 172.7 75 172.5 77c-.2 2-17.1-47.5 17.7-39.5ZM190.2 36.1s7.8-17.2 5.6-22.8c-2.2-5.6-17.9-14.1-23.7-10.6 3.9.3 6.2 10.3 8.3 14.9 2.1 4.6 7.2 17.8 9.8 18.5ZM228.7 126.4s-32.1 1.5-37.3 12.8c-5.2 11.3-18.1 19.8-18.9 19.6-.8-.2 22.1 10.1 41-3.1s15.2-29.3 15.2-29.3ZM234.7 128.4s20.1 6.1 26.3 8.3c15.7 5.7 25 39.8 14 48-4.3-17-16.7-15-21.3-28.2-4.7-13.1-19-28.1-19-28.1Z" fill="#2CDDA6"/><path d="M229.9 128.4s2.5 29 11 42.7c8.5 13.7 17 25.8 17 26.7 0 .9 10.7-32.5 3.5-44.8-7.2-12.5-29.4-18.6-31.5-24.6ZM230.7 126.4s22.7-23.5 34.5-23.3c11.8.2 39-3.8 43.7 16.5-5.7-15.3-34.3 5.7-40.2 7.8-5.8 2.1-31.5 2.6-38-1Z" fill="#42E8B1"/><path d="M45.9 69.4C63 61 67.2 54.6 72.5 48.5c9-10.3 48.2-20.3 48.2-20.3m9 0s1 16.6 3.7 31c2.7 14.3 8.8 34.5 8.8 34.5m46.3-54.5S174.8 49.4 173.3 70m-41.8-49.1s3-9.7 3-14.3m61.8 30.1s50 2.5 63-5.3m-70.8-1.5s5-16.9-4.3-25.7m115.1 106.2c-32.3-7.3-64.6 14.8-64.6 14.8m22.6 60.7c-1.3-22.8-24.7-51.9-24.7-51.9M181 158.4c27.9-1.3 44.8-29.3 44.8-29.3m-1.5-12.1c7-27.6-6.5-56.1-6.5-56.1m102.7 20.5s-16.4-18.8-42-20.4c-25.6-1.7-47.8-3.8-47.8-3.8m-46.6-21.8s-22.5-9.8-41.9-9.1m-60 30.8 4.7-13.6M56 51.7 68 48m52.7 15.5 6.7-16.7m20 24.9-10.5-14.8m83.8 38.5-15.9-20.5m25.1-3.2-.9 10.7m55.5-18.1 9.5 9.3m-30.1-16.5 11.8-3.4m-44.5-14.5 12.1 9.6m0-17.4 10.5-8.8m11.4 99.1-11.4-2.6m9-10.2 7-3.8m-22.9 44.3 12.4 13m-14.4-4 2 16.3m-32.6-37.8h-13.7m12.2 16.5 1.5-7.1m-27.2-89.2-2.9-7.3m-10.8-3.9 8.9-4.5" stroke="#B8F4E0" stroke-miterlimit="10"/><g filter="url(#D)"><path d="M146 368c0-5.523 4.477-10 10-10h170c5.523 0 10 4.477 10 10v110c0 5.523-4.477 10-10 10H156c-5.523 0-10-4.477-10-10V368Z" fill="#EBEDF1"/><g filter="url(#E)"><path d="M146 368c0-5.523 4.477-10 10-10h8a2 2 0 0 1 2 2v3c0 8.284-6.716 15-15 15h-3a2 2 0 0 1-2-2v-8Z" fill="url(#F)"/><path d="M316 358h10c5.523 0 10 4.477 10 10v10h-5c-8.284 0-15-6.716-15-15v-5Z" fill="url(#G)"/><path d="M146 470a2 2 0 0 1 2-2h3c8.284 0 15 6.716 15 15v3a2 2 0 0 1-2 2h-8c-5.523 0-10-4.477-10-10v-8Z" fill="url(#H)"/><path d="M316 483c0-8.284 6.716-15 15-15h3a2 2 0 0 1 2 2v8c0 5.523-4.477 10-10 10h-8a2 2 0 0 1-2-2v-3Z" fill="url(#I)"/></g><g filter="url(#J)"><path d="M191 459a2 2 0 0 1 2-2h97a2 2 0 0 1 2 2v2a2 2 0 0 1-2 2h-97a2 2 0 0 1-2-2v-2Z" fill="url(#K)"/><path d="M191 387a2 2 0 0 1 2-2h97a2 2 0 0 1 2 2v2a2 2 0 0 1-2 2h-97a2 2 0 0 1-2-2v-2Z" fill="url(#L)"/><path d="M237 471a2 2 0 0 1 2-2h5a2 2 0 0 1 2 2v2a2 2 0 0 1-2 2h-5a2 2 0 0 1-2-2v-2Z" fill="url(#M)"/><path d="M216 471a2 2 0 0 1 2-2h15a2 2 0 0 1 2 2v2a2 2 0 0 1-2 2h-15a2 2 0 0 1-2-2v-2Z" fill="url(#N)"/><path d="M248 471a2 2 0 0 1 2-2h15a2 2 0 0 1 2 2v2a2 2 0 0 1-2 2h-15a2 2 0 0 1-2-2v-2Z" fill="url(#O)"/><path d="M206 376a2 2 0 0 1 2-2h30a2 2 0 0 1 2 2v2a2 2 0 0 1-2 2h-30a2 2 0 0 1-2-2v-2Z" fill="url(#P)"/><path d="M243 376a2 2 0 0 1 2-2h30a2 2 0 0 1 2 2v2a2 2 0 0 1-2 2h-30a2 2 0 0 1-2-2v-2Z" fill="url(#Q)"/></g><circle cx="241" cy="425" r="23.5" fill="#fff" stroke="#71E8B8"/></g><defs><linearGradient id="q" x1="42" y1="69" x2="62" y2="40.5" gradientUnits="userSpaceOnUse"><stop stop-color="#65D2EC"/><stop offset="1" stop-color="#72EAB5"/></linearGradient><linearGradient id="Q" x1="193" y1="511" x2="260.313" y2="357.72" gradientUnits="userSpaceOnUse"><stop stop-color="#65D2EC"/><stop offset="1" stop-color="#72EAB5"/></linearGradient><linearGradient id="P" x1="193" y1="511" x2="260.313" y2="357.72" gradientUnits="userSpaceOnUse"><stop stop-color="#65D2EC"/><stop offset="1" stop-color="#72EAB5"/></linearGradient><linearGradient id="O" x1="193" y1="511" x2="260.313" y2="357.72" gradientUnits="userSpaceOnUse"><stop stop-color="#65D2EC"/><stop offset="1" stop-color="#72EAB5"/></linearGradient><linearGradient id="N" x1="193" y1="511" x2="260.313" y2="357.72" gradientUnits="userSpaceOnUse"><stop stop-color="#65D2EC"/><stop offset="1" stop-color="#72EAB5"/></linearGradient><linearGradient id="M" x1="193" y1="511" x2="260.313" y2="357.72" gradientUnits="userSpaceOnUse"><stop stop-color="#65D2EC"/><stop offset="1" stop-color="#72EAB5"/></linearGradient><linearGradient id="a" x1="240.5" y1="306.5" x2="240.5" y2="185" gradientUnits="userSpaceOnUse"><stop stop-color="#65D2EC" stop-opacity="0"/><stop offset="1" stop-color="#72EAB5"/></linearGradient><linearGradient id="b" x1="240.5" y1="306.5" x2="240.5" y2="185" gradientUnits="userSpaceOnUse"><stop stop-color="#65D2EC" stop-opacity="0"/><stop offset="1" stop-color="#72EAB5"/></linearGradient><linearGradient id="c" x1="240.5" y1="306.5" x2="240.5" y2="185" gradientUnits="userSpaceOnUse"><stop stop-color="#65D2EC" stop-opacity="0"/><stop offset="1" stop-color="#72EAB5"/></linearGradient><linearGradient id="d" x1="240.5" y1="306.5" x2="240.5" y2="185" gradientUnits="userSpaceOnUse"><stop stop-color="#65D2EC" stop-opacity="0"/><stop offset="1" stop-color="#72EAB5"/></linearGradient><linearGradient id="e" x1="240.5" y1="306.5" x2="240.5" y2="185" gradientUnits="userSpaceOnUse"><stop stop-color="#65D2EC" stop-opacity="0"/><stop offset="1" stop-color="#72EAB5"/></linearGradient><linearGradient id="f" x1="240.5" y1="306.5" x2="240.5" y2="185" gradientUnits="userSpaceOnUse"><stop stop-color="#65D2EC" stop-opacity="0"/><stop offset="1" stop-color="#72EAB5"/></linearGradient><linearGradient id="g" x1="240.5" y1="306.5" x2="240.5" y2="185" gradientUnits="userSpaceOnUse"><stop stop-color="#65D2EC" stop-opacity="0"/><stop offset="1" stop-color="#72EAB5"/></linearGradient><linearGradient id="h" x1="240.5" y1="306.5" x2="240.5" y2="185" gradientUnits="userSpaceOnUse"><stop stop-color="#65D2EC" stop-opacity="0"/><stop offset="1" stop-color="#72EAB5"/></linearGradient><linearGradient id="i" x1="240.5" y1="306.5" x2="240.5" y2="185" gradientUnits="userSpaceOnUse"><stop stop-color="#65D2EC" stop-opacity="0"/><stop offset="1" stop-color="#72EAB5"/></linearGradient><linearGradient id="j" x1="240.5" y1="306.5" x2="240.5" y2="185" gradientUnits="userSpaceOnUse"><stop stop-color="#65D2EC" stop-opacity="0"/><stop offset="1" stop-color="#72EAB5"/></linearGradient><linearGradient id="k" x1="240.5" y1="306.5" x2="240.5" y2="185" gradientUnits="userSpaceOnUse"><stop stop-color="#65D2EC" stop-opacity="0"/><stop offset="1" stop-color="#72EAB5"/></linearGradient><linearGradient id="l" x1="240.5" y1="306.5" x2="240.5" y2="185" gradientUnits="userSpaceOnUse"><stop stop-color="#65D2EC" stop-opacity="0"/><stop offset="1" stop-color="#72EAB5"/></linearGradient><linearGradient id="n" x1="42" y1="69" x2="62" y2="40.5" gradientUnits="userSpaceOnUse"><stop stop-color="#65D2EC"/><stop offset="1" stop-color="#72EAB5"/></linearGradient><linearGradient id="o" x1="42" y1="69" x2="62" y2="40.5" gradientUnits="userSpaceOnUse"><stop stop-color="#65D2EC"/><stop offset="1" stop-color="#72EAB5"/></linearGradient><linearGradient id="p" x1="42" y1="69" x2="62" y2="40.5" gradientUnits="userSpaceOnUse"><stop stop-color="#65D2EC"/><stop offset="1" stop-color="#72EAB5"/></linearGradient><linearGradient id="L" x1="193" y1="511" x2="260.313" y2="357.72" gradientUnits="userSpaceOnUse"><stop stop-color="#65D2EC"/><stop offset="1" stop-color="#72EAB5"/></linearGradient><linearGradient id="s" x1="82" y1="99" x2="102" y2="70.5" gradientUnits="userSpaceOnUse"><stop stop-color="#65D2EC"/><stop offset="1" stop-color="#72EAB5"/></linearGradient><linearGradient id="t" x1="82" y1="99" x2="102" y2="70.5" gradientUnits="userSpaceOnUse"><stop stop-color="#65D2EC"/><stop offset="1" stop-color="#72EAB5"/></linearGradient><linearGradient id="u" x1="82" y1="99" x2="102" y2="70.5" gradientUnits="userSpaceOnUse"><stop stop-color="#65D2EC"/><stop offset="1" stop-color="#72EAB5"/></linearGradient><linearGradient id="v" x1="82" y1="99" x2="102" y2="70.5" gradientUnits="userSpaceOnUse"><stop stop-color="#65D2EC"/><stop offset="1" stop-color="#72EAB5"/></linearGradient><linearGradient id="x" x1="32" y1="129" x2="52" y2="100.5" gradientUnits="userSpaceOnUse"><stop stop-color="#65D2EC"/><stop offset="1" stop-color="#72EAB5"/></linearGradient><linearGradient id="y" x1="32" y1="129" x2="52" y2="100.5" gradientUnits="userSpaceOnUse"><stop stop-color="#65D2EC"/><stop offset="1" stop-color="#72EAB5"/></linearGradient><linearGradient id="z" x1="32" y1="129" x2="52" y2="100.5" gradientUnits="userSpaceOnUse"><stop stop-color="#65D2EC"/><stop offset="1" stop-color="#72EAB5"/></linearGradient><linearGradient id="A" x1="32" y1="129" x2="52" y2="100.5" gradientUnits="userSpaceOnUse"><stop stop-color="#65D2EC"/><stop offset="1" stop-color="#72EAB5"/></linearGradient><linearGradient id="B" x1="172.6" y1="323.6" x2="172.6" y2="457.6" gradientUnits="userSpaceOnUse"><stop stop-color="#00FCBA"/><stop offset="1" stop-color="#07AFEC"/></linearGradient><linearGradient id="C" x1="172.5" y1="278.6" x2="172.5" y2="333.6" gradientUnits="userSpaceOnUse"><stop stop-color="#46CEF2"/><stop offset="0" stop-color="#00E6FA"/><stop offset="1" stop-color="#46CEF2"/></linearGradient><linearGradient id="F" x1="153" y1="502" x2="307.936" y2="334.536" gradientUnits="userSpaceOnUse"><stop stop-color="#65D2EC"/><stop offset="1" stop-color="#72EAB5"/></linearGradient><linearGradient id="G" x1="153" y1="502" x2="307.936" y2="334.536" gradientUnits="userSpaceOnUse"><stop stop-color="#65D2EC"/><stop offset="1" stop-color="#72EAB5"/></linearGradient><linearGradient id="H" x1="153" y1="502" x2="307.936" y2="334.536" gradientUnits="userSpaceOnUse"><stop stop-color="#65D2EC"/><stop offset="1" stop-color="#72EAB5"/></linearGradient><linearGradient id="I" x1="153" y1="502" x2="307.936" y2="334.536" gradientUnits="userSpaceOnUse"><stop stop-color="#65D2EC"/><stop offset="1" stop-color="#72EAB5"/></linearGradient><linearGradient id="K" x1="193" y1="511" x2="260.313" y2="357.72" gradientUnits="userSpaceOnUse"><stop stop-color="#65D2EC"/><stop offset="1" stop-color="#72EAB5"/></linearGradient><filter id="r" x="50" y="54" width="173" height="93.279" filterUnits="userSpaceOnUse" color-interpolation-filters="sRGB"><feFlood flood-opacity="0" result="BackgroundImageFix"/><feColorMatrix in="SourceAlpha" values="0 0 0 0 0 0 0 0 0 0 0 0 0 0 0 0 0 0 127 0" result="hardAlpha"/><feOffset dy="5"/><feGaussianBlur stdDeviation="10"/><feComposite in2="hardAlpha" operator="out"/><feColorMatrix values="0 0 0 0 0 0 0 0 0 0.647059 0 0 0 0 0.917647 0 0 0 0.15 0"/><feBlend in2="BackgroundImageFix" result="effect1_dropShadow_4853_716"/><feBlend in="SourceGraphic" in2="effect1_dropShadow_4853_716" result="shape"/></filter><filter id="J" x="176" y="364" width="131" height="131" filterUnits="userSpaceOnUse" color-interpolation-filters="sRGB"><feFlood flood-opacity="0" result="BackgroundImageFix"/><feColorMatrix in="SourceAlpha" values="0 0 0 0 0 0 0 0 0 0 0 0 0 0 0 0 0 0 127 0" result="hardAlpha"/><feOffset dy="5"/><feGaussianBlur stdDeviation="7.5"/><feComposite in2="hardAlpha" operator="out"/><feColorMatrix values="0 0 0 0 0.215686 0 0 0 0 0.796078 0 0 0 0 0.94902 0 0 0 0.3 0"/><feBlend in2="BackgroundImageFix" result="effect1_dropShadow_4853_716"/><feBlend in="SourceGraphic" in2="effect1_dropShadow_4853_716" result="shape"/></filter><filter id="E" x="131" y="348" width="220" height="160" filterUnits="userSpaceOnUse" color-interpolation-filters="sRGB"><feFlood flood-opacity="0" result="BackgroundImageFix"/><feColorMatrix in="SourceAlpha" values="0 0 0 0 0 0 0 0 0 0 0 0 0 0 0 0 0 0 127 0" result="hardAlpha"/><feOffset dy="5"/><feGaussianBlur stdDeviation="7.5"/><feComposite in2="hardAlpha" operator="out"/><feColorMatrix values="0 0 0 0 0.215686 0 0 0 0 0.796078 0 0 0 0 0.94902 0 0 0 0.3 0"/><feBlend in2="BackgroundImageFix" result="effect1_dropShadow_4853_716"/><feBlend in="SourceGraphic" in2="effect1_dropShadow_4853_716" result="shape"/></filter><filter id="D" x="116" y="333" width="250" height="190" filterUnits="userSpaceOnUse" color-interpolation-filters="sRGB"><feFlood flood-opacity="0" result="BackgroundImageFix"/><feColorMatrix in="SourceAlpha" values="0 0 0 0 0 0 0 0 0 0 0 0 0 0 0 0 0 0 127 0" result="hardAlpha"/><feOffset dy="5"/><feGaussianBlur stdDeviation="15"/><feComposite in2="hardAlpha" operator="out"/><feColorMatrix values="0 0 0 0 0 0 0 0 0 0.647059 0 0 0 0 0.917647 0 0 0 0.2 0"/><feBlend in2="BackgroundImageFix" result="effect1_dropShadow_4853_716"/><feBlend in="SourceGraphic" in2="effect1_dropShadow_4853_716" result="shape"/></filter><filter id="w" x="0" y="84" width="173" height="93.279" filterUnits="userSpaceOnUse" color-interpolation-filters="sRGB"><feFlood flood-opacity="0" result="BackgroundImageFix"/><feColorMatrix in="SourceAlpha" values="0 0 0 0 0 0 0 0 0 0 0 0 0 0 0 0 0 0 127 0" result="hardAlpha"/><feOffset dy="5"/><feGaussianBlur stdDeviation="10"/><feComposite in2="hardAlpha" operator="out"/><feColorMatrix values="0 0 0 0 0 0 0 0 0 0.647059 0 0 0 0 0.917647 0 0 0 0.15 0"/><feBlend in2="BackgroundImageFix" result="effect1_dropShadow_4853_716"/><feBlend in="SourceGraphic" in2="effect1_dropShadow_4853_716" result="shape"/></filter><filter id="m" x="10" y="24" width="173" height="93.279" filterUnits="userSpaceOnUse" color-interpolation-filters="sRGB"><feFlood flood-opacity="0" result="BackgroundImageFix"/><feColorMatrix in="SourceAlpha" values="0 0 0 0 0 0 0 0 0 0 0 0 0 0 0 0 0 0 127 0" result="hardAlpha"/><feOffset dy="5"/><feGaussianBlur stdDeviation="10"/><feComposite in2="hardAlpha" operator="out"/><feColorMatrix values="0 0 0 0 0 0 0 0 0 0.647059 0 0 0 0 0.917647 0 0 0 0.15 0"/><feBlend in2="BackgroundImageFix" result="effect1_dropShadow_4853_716"/><feBlend in="SourceGraphic" in2="effect1_dropShadow_4853_716" result="shape"/></filter></defs></svg>