<svg width="348" height="359" fill="none" xmlns="http://www.w3.org/2000/svg"><path d="M0 0h192v359H0V0Z" fill="url(#a)" fill-opacity=".3"/><path d="M239.85 313.098a5.065 5.065 0 0 1-2.52-.644 4.816 4.816 0 0 1-1.82-1.778c-.448-.765-.672-1.629-.672-2.59 0-.952.224-1.806.672-2.562a4.788 4.788 0 0 1 1.82-1.792 5.065 5.065 0 0 1 2.52-.644c.924 0 1.764.215 2.52.644a4.697 4.697 0 0 1 1.806 1.792c.448.756.672 1.61.672 2.562 0 .961-.224 1.825-.672 2.59a4.723 4.723 0 0 1-1.806 1.778 5.07 5.07 0 0 1-2.52.644Zm0-1.75c.588 0 1.106-.131 1.554-.392a2.782 2.782 0 0 0 1.05-1.148c.252-.495.378-1.069.378-1.722s-.126-1.223-.378-1.708a2.685 2.685 0 0 0-1.05-1.134c-.448-.261-.966-.392-1.554-.392-.588 0-1.111.131-1.568.392a2.685 2.685 0 0 0-1.05 1.134c-.252.485-.378 1.055-.378 1.708s.126 1.227.378 1.722c.252.495.602.877 1.05 1.148.457.261.98.392 1.568.392Zm13.582-5.096c0 .523-.126 1.013-.378 1.47-.243.457-.63.826-1.162 1.106-.523.28-1.185.42-1.988.42h-1.638V313h-1.96v-9.772h3.598c.756 0 1.4.131 1.932.392s.929.621 1.19 1.078c.271.457.406.975.406 1.554Zm-3.612 1.414c.541 0 .943-.121 1.204-.364.261-.252.392-.602.392-1.05 0-.952-.532-1.428-1.596-1.428h-1.554v2.842h1.554Zm11.653-4.438v1.582h-2.604V313h-1.96v-8.19h-2.604v-1.582h7.168Zm3.391 0V313h-1.96v-9.772h1.96Zm6.472 9.87a5.065 5.065 0 0 1-2.52-.644 4.824 4.824 0 0 1-1.82-1.778c-.448-.765-.672-1.629-.672-2.59 0-.952.224-1.806.672-2.562a4.795 4.795 0 0 1 1.82-1.792 5.065 5.065 0 0 1 2.52-.644c.924 0 1.764.215 2.52.644a4.697 4.697 0 0 1 1.806 1.792c.448.756.672 1.61.672 2.562 0 .961-.224 1.825-.672 2.59a4.723 4.723 0 0 1-1.806 1.778 5.065 5.065 0 0 1-2.52.644Zm0-1.75c.588 0 1.106-.131 1.554-.392a2.782 2.782 0 0 0 1.05-1.148c.252-.495.378-1.069.378-1.722s-.126-1.223-.378-1.708a2.685 2.685 0 0 0-1.05-1.134c-.448-.261-.966-.392-1.554-.392-.588 0-1.111.131-1.568.392a2.685 2.685 0 0 0-1.05 1.134c-.252.485-.378 1.055-.378 1.708s.126 1.227.378 1.722c.252.495.602.877 1.05 1.148.457.261.98.392 1.568.392ZM286.15 313h-1.96l-4.438-6.706V313h-1.96v-9.786h1.96l4.438 6.72v-6.72h1.96V313Zm5.311.098c-.681 0-1.297-.117-1.848-.35a3.024 3.024 0 0 1-1.288-1.008c-.317-.439-.481-.957-.49-1.554h2.1c.028.401.168.719.42.952.261.233.616.35 1.064.35.457 0 .817-.107 1.078-.322a1.09 1.09 0 0 0 .392-.868.997.997 0 0 0-.266-.714 1.776 1.776 0 0 0-.672-.434 9.221 9.221 0 0 0-1.092-.364 13.148 13.148 0 0 1-1.554-.546 2.88 2.88 0 0 1-1.022-.826c-.28-.373-.42-.868-.42-1.484 0-.579.145-1.083.434-1.512.289-.429.695-.756 1.218-.98.523-.233 1.12-.35 1.792-.35 1.008 0 1.825.247 2.45.742.635.485.985 1.167 1.05 2.044h-2.156a1.091 1.091 0 0 0-.434-.826c-.261-.224-.611-.336-1.05-.336-.383 0-.691.098-.924.294-.224.196-.336.481-.336.854a.92.92 0 0 0 .252.658c.177.168.392.308.644.42.261.103.625.224 1.092.364.635.187 1.153.373 1.554.56.401.187.747.467 1.036.84.289.373.434.863.434 1.47 0 .523-.135 1.008-.406 1.456-.271.448-.667.807-1.19 1.078-.523.261-1.143.392-1.862.392Z" fill="#F0FBFF"/><path d="M255 285v-7m-12 7v-3m44-63v2m0 4v11m0 4v25.5h9a2 2 0 0 1 2 2v1.597c0 .574-.246 1.12-.677 1.5L281 285l-16.323-14.403a1.999 1.999 0 0 1-.677-1.5V267.5a2 2 0 0 1 2-2h9V236m0-13v8m-32 46v-7m0-4v-28.5h-9a2 2 0 0 1-2-2v-1.556c0-.598.267-1.164.729-1.544L249 219l16.271 13.4c.462.38.729.946.729 1.544v1.556a2 2 0 0 1-2 2h-9V258m0 13v-8" stroke="#4EFDD5" stroke-width="2" stroke-linecap="round" stroke-linejoin="round"/><circle cx="296" cy="273" r="12" fill="#fff"/><path d="m290 273 4 4 8-7" stroke="#193E75" stroke-width="2" stroke-linecap="round" stroke-linejoin="round"/><path d="M240.758 134.098c-.681 0-1.297-.117-1.848-.35a3.024 3.024 0 0 1-1.288-1.008c-.317-.439-.481-.957-.49-1.554h2.1c.028.401.168.719.42.952.261.233.616.35 1.064.35.457 0 .817-.107 1.078-.322a1.09 1.09 0 0 0 .392-.868.997.997 0 0 0-.266-.714 1.776 1.776 0 0 0-.672-.434 9.221 9.221 0 0 0-1.092-.364 13.148 13.148 0 0 1-1.554-.546 2.88 2.88 0 0 1-1.022-.826c-.28-.373-.42-.868-.42-1.484 0-.579.145-1.083.434-1.512.289-.429.695-.756 1.218-.98.523-.233 1.12-.35 1.792-.35 1.008 0 1.825.247 2.45.742.635.485.985 1.167 1.05 2.044h-2.156a1.091 1.091 0 0 0-.434-.826c-.261-.224-.611-.336-1.05-.336-.383 0-.691.098-.924.294-.224.196-.336.481-.336.854a.92.92 0 0 0 .252.658c.177.168.392.308.644.42.261.103.625.224 1.092.364.635.187 1.153.373 1.554.56.401.187.747.467 1.036.84.289.373.434.863.434 1.47 0 .523-.135 1.008-.406 1.456-.271.448-.667.807-1.19 1.078-.523.261-1.143.392-1.862.392Zm11.807-9.87v1.582h-2.604V134h-1.96v-8.19h-2.604v-1.582h7.168Zm5.966 9.87a5.07 5.07 0 0 1-2.52-.644 4.824 4.824 0 0 1-1.82-1.778c-.448-.765-.672-1.629-.672-2.59 0-.952.224-1.806.672-2.562a4.795 4.795 0 0 1 1.82-1.792 5.07 5.07 0 0 1 2.52-.644c.924 0 1.764.215 2.52.644a4.683 4.683 0 0 1 1.806 1.792c.448.756.672 1.61.672 2.562 0 .961-.224 1.825-.672 2.59a4.71 4.71 0 0 1-1.806 1.778 5.065 5.065 0 0 1-2.52.644Zm0-1.75c.588 0 1.106-.131 1.554-.392a2.782 2.782 0 0 0 1.05-1.148c.252-.495.378-1.069.378-1.722s-.126-1.223-.378-1.708a2.685 2.685 0 0 0-1.05-1.134c-.448-.261-.966-.392-1.554-.392-.588 0-1.11.131-1.568.392a2.685 2.685 0 0 0-1.05 1.134c-.252.485-.378 1.055-.378 1.708s.126 1.227.378 1.722c.252.495.602.877 1.05 1.148.458.261.98.392 1.568.392Zm5.98-3.248c0-.961.215-1.82.644-2.576a4.657 4.657 0 0 1 1.778-1.778c.756-.429 1.601-.644 2.534-.644 1.092 0 2.049.28 2.87.84.822.56 1.396 1.335 1.722 2.324h-2.254c-.224-.467-.541-.817-.952-1.05-.401-.233-.868-.35-1.4-.35a2.89 2.89 0 0 0-1.526.406 2.741 2.741 0 0 0-1.036 1.12c-.242.485-.364 1.055-.364 1.708 0 .644.122 1.213.364 1.708.252.485.598.863 1.036 1.134.448.261.957.392 1.526.392.532 0 .999-.117 1.4-.35.411-.243.728-.597.952-1.064h2.254c-.326.999-.9 1.778-1.722 2.338-.812.551-1.768.826-2.87.826-.933 0-1.778-.21-2.534-.63a4.785 4.785 0 0 1-1.778-1.778c-.429-.756-.644-1.615-.644-2.576Zm16.739 4.9-3.556-4.354V134h-1.96v-9.772h1.96v4.382l3.556-4.382h2.366l-4.032 4.844 4.144 4.928h-2.478Zm7.141.098c-.682 0-1.298-.117-1.848-.35a3.018 3.018 0 0 1-1.288-1.008c-.318-.439-.481-.957-.49-1.554h2.1c.028.401.168.719.42.952.261.233.616.35 1.064.35.457 0 .816-.107 1.078-.322a1.09 1.09 0 0 0 .392-.868.997.997 0 0 0-.266-.714 1.792 1.792 0 0 0-.672-.434 9.35 9.35 0 0 0-1.092-.364 13.148 13.148 0 0 1-1.554-.546 2.88 2.88 0 0 1-1.022-.826c-.28-.373-.42-.868-.42-1.484 0-.579.144-1.083.434-1.512.289-.429.695-.756 1.218-.98.522-.233 1.12-.35 1.792-.35 1.008 0 1.824.247 2.45.742.634.485.984 1.167 1.05 2.044h-2.156a1.094 1.094 0 0 0-.434-.826c-.262-.224-.612-.336-1.05-.336-.383 0-.691.098-.924.294-.224.196-.336.481-.336.854a.92.92 0 0 0 .252.658c.177.168.392.308.644.42.261.103.625.224 1.092.364.634.187 1.152.373 1.554.56.401.187.746.467 1.036.84.289.373.434.863.434 1.47a2.77 2.77 0 0 1-.406 1.456c-.271.448-.668.807-1.19 1.078-.523.261-1.144.392-1.862.392Z" fill="#F0FBFF"/><path d="M295 45h-3v21h6V45h-3Zm0 0v-5m-10 15h-3v15h6V55h-3Zm0 0V43m-10 18h-3v14h6V61h-3Zm0 0V50m-10 5h-3v12h6V55h-3Zm0 0v-5m-10-3h-3v14h6V47h-3Zm0 0v-7m-10 17h-3v17h6V57h-3Zm0 0v-5m-10 0h-3v13h6V52h-3Zm0 0v-9m60 25v-2m-10 13v-9m-10 9v-4m-10-5v-3m-10-3v-3m-10 15v-2m-10-4v-5m2.117 31.125a3 3 0 1 1-4.234-4.25 3 3 0 0 1 4.234 4.25Zm0 0 5.331 3.297m4.57-.642a3 3 0 1 1-4.57.642m4.57-.642a2.998 2.998 0 0 0-4.57.642m4.57-.642 5.964-6.56m0 0a3 3 0 1 1 4.591-.676m-4.591.676a3 3 0 0 0 4.591-.676m0 0 4.854 2.912m5.031 3.264a3 3 0 0 1-5.031-3.264m5.031 3.264a3 3 0 1 0-5.031-3.264m5.031 3.264 5.084 3.559m0 0a3 3 0 0 1 5.031.177m-5.031-.177a3 3 0 1 0 5.031.177m0 0 4.854-2.912m0 0a3 3 0 0 1 4.402-3.922m-4.402 3.922A3 3 0 0 0 288 97c0-.968-.459-1.83-1.171-2.378m0 0 6.342-8.244m0 0a3 3 0 1 1 3.658-4.756 3 3 0 0 1-3.658 4.756Z" stroke="#4EFDD5" stroke-width="2" stroke-linecap="round" stroke-linejoin="round"/><circle cx="296" cy="94" r="12" fill="#fff"/><path d="m290 94 4 4 8-7" stroke="#193E75" stroke-width="2" stroke-linecap="round" stroke-linejoin="round"/><path d="M45.616 309.228v1.582h-2.604V319h-1.96v-8.19h-2.604v-1.582h7.168Zm6.47 9.772-2.156-3.808h-.924V319h-1.96v-9.772h3.668c.756 0 1.4.135 1.932.406.532.261.929.621 1.19 1.078.27.448.406.952.406 1.512 0 .644-.187 1.227-.56 1.75-.373.513-.929.868-1.666 1.064L54.354 319h-2.268Zm-3.08-5.278h1.638c.532 0 .929-.126 1.19-.378.261-.261.392-.621.392-1.078 0-.448-.13-.793-.392-1.036-.261-.252-.658-.378-1.19-.378h-1.638v2.87Zm13 3.416h-3.891L57.47 319h-2.058l3.514-9.786h2.282L64.723 319H62.65l-.644-1.862Zm-.531-1.568-1.414-4.088-1.414 4.088h2.828Zm7.977-6.342c1.027 0 1.928.201 2.702.602a4.232 4.232 0 0 1 1.806 1.722c.43.737.644 1.596.644 2.576s-.214 1.839-.644 2.576a4.283 4.283 0 0 1-1.806 1.694c-.774.401-1.675.602-2.702.602h-3.416v-9.772h3.416Zm-.07 8.106c1.027 0 1.82-.28 2.38-.84.56-.56.84-1.349.84-2.366 0-1.017-.28-1.811-.84-2.38-.56-.579-1.353-.868-2.38-.868h-1.386v6.454h1.386Zm8.65-6.524v2.45h3.29v1.554h-3.29v2.59h3.71V319h-5.67v-9.786h5.67v1.596h-3.71Zm8.865 8.288c-.682 0-1.298-.117-1.848-.35a3.025 3.025 0 0 1-1.288-1.008c-.318-.439-.481-.957-.49-1.554h2.1c.028.401.168.719.42.952.261.233.616.35 1.064.35.457 0 .816-.107 1.078-.322a1.09 1.09 0 0 0 .392-.868.996.996 0 0 0-.266-.714 1.78 1.78 0 0 0-.672-.434 9.26 9.26 0 0 0-1.092-.364 13.2 13.2 0 0 1-1.554-.546 2.884 2.884 0 0 1-1.022-.826c-.28-.373-.42-.868-.42-1.484 0-.579.144-1.083.434-1.512.289-.429.695-.756 1.218-.98.522-.233 1.12-.35 1.792-.35 1.008 0 1.824.247 2.45.742.634.485.984 1.167 1.05 2.044h-2.156a1.09 1.09 0 0 0-.434-.826c-.262-.224-.612-.336-1.05-.336-.383 0-.691.098-.924.294-.224.196-.336.481-.336.854a.92.92 0 0 0 .252.658c.177.168.392.308.644.42.261.103.625.224 1.092.364.634.187 1.152.373 1.554.56.401.187.746.467 1.036.84.289.373.434.863.434 1.47 0 .523-.136 1.008-.406 1.456-.271.448-.668.807-1.19 1.078-.523.261-1.144.392-1.862.392Zm14.485-1.96H97.49L96.846 319h-2.058l3.514-9.786h2.282l3.514 9.786h-2.072l-.644-1.862Zm-.532-1.568-1.414-4.088-1.414 4.088h2.828Zm6.521 1.876h3.22V319h-5.18v-9.772h1.96v8.218Zm6.426-6.636v2.45h3.29v1.554h-3.29v2.59h3.71V319h-5.67v-9.786h5.67v1.596h-3.71Zm10.531 8.19-2.156-3.808h-.924V319h-1.96v-9.772h3.668c.756 0 1.4.135 1.932.406.532.261.929.621 1.19 1.078.271.448.406.952.406 1.512 0 .644-.186 1.227-.56 1.75-.373.513-.928.868-1.666 1.064l2.338 3.962h-2.268Zm-3.08-5.278h1.638c.532 0 .929-.126 1.19-.378.262-.261.392-.621.392-1.078 0-.448-.13-.793-.392-1.036-.261-.252-.658-.378-1.19-.378h-1.638v2.87Zm13.659-4.494v1.582h-2.604V319h-1.96v-8.19h-2.604v-1.582h7.168Zm3.39 1.582v2.45h3.29v1.554h-3.29v2.59h3.71V319h-5.67v-9.786h5.67v1.596h-3.71Zm8.907-1.582c1.027 0 1.928.201 2.702.602a4.232 4.232 0 0 1 1.806 1.722c.43.737.644 1.596.644 2.576s-.214 1.839-.644 2.576a4.283 4.283 0 0 1-1.806 1.694c-.774.401-1.675.602-2.702.602h-3.416v-9.772h3.416Zm-.07 8.106c1.027 0 1.82-.28 2.38-.84.56-.56.84-1.349.84-2.366 0-1.017-.28-1.811-.84-2.38-.56-.579-1.353-.868-2.38-.868h-1.386v6.454h1.386Z" fill="#F0FBFF"/><path d="m39.248 284.256 12.72-13.296c.896-.96 1.616-1.808 2.16-2.544.576-.768.992-1.488 1.248-2.16a6.144 6.144 0 0 0 .384-2.112c0-1.408-.464-2.512-1.392-3.312-.896-.8-2.064-1.2-3.504-1.2-1.472 0-2.784.384-3.936 1.152-1.12.768-2.176 1.984-3.168 3.648l-4.464-3.792c1.344-2.272 3.008-3.984 4.992-5.136 2.016-1.184 4.32-1.776 6.912-1.776 2.208 0 4.128.432 5.76 1.296 1.664.864 2.944 2.064 3.84 3.6.896 1.536 1.344 3.328 1.344 5.376 0 1.376-.176 2.624-.528 3.744-.32 1.12-.88 2.24-1.68 3.36-.768 1.088-1.84 2.32-3.216 3.696l-9.264 9.456h-8.208Zm0 3.744v-3.744l5.568-1.92h18.048V288H39.248Zm38.627.48c-2.4 0-4.48-.416-6.24-1.248-1.728-.832-3.088-2-4.08-3.504-.96-1.504-1.44-3.2-1.44-5.088 0-1.568.304-2.992.912-4.272a8.744 8.744 0 0 1 2.592-3.216c1.152-.896 2.496-1.52 4.032-1.872l-.144 1.584c-1.28-.32-2.368-.88-3.264-1.68a7.671 7.671 0 0 1-2.016-2.832 9.226 9.226 0 0 1-.672-3.456c0-1.824.432-3.424 1.296-4.8.896-1.376 2.112-2.448 3.648-3.216 1.568-.768 3.36-1.152 5.376-1.152 2.016 0 3.792.384 5.328 1.152 1.536.768 2.736 1.84 3.6 3.216.896 1.376 1.344 2.976 1.344 4.8a9.226 9.226 0 0 1-.672 3.456 7.671 7.671 0 0 1-2.016 2.832c-.864.8-1.952 1.36-3.264 1.68l-.144-1.584c1.568.352 2.912.976 4.032 1.872a8.744 8.744 0 0 1 2.592 3.216c.608 1.28.912 2.704.912 4.272 0 1.888-.48 3.584-1.44 5.088s-2.32 2.672-4.08 3.504c-1.76.832-3.824 1.248-6.192 1.248Zm0-5.712c1.056 0 2-.208 2.832-.624.832-.448 1.472-1.056 1.92-1.824.48-.768.72-1.632.72-2.592 0-.992-.24-1.856-.72-2.592-.448-.768-1.088-1.36-1.92-1.776-.832-.448-1.776-.672-2.832-.672-1.088 0-2.048.224-2.88.672a4.883 4.883 0 0 0-1.92 1.776c-.48.736-.72 1.6-.72 2.592 0 .96.24 1.824.72 2.592a5.252 5.252 0 0 0 1.92 1.824c.832.416 1.792.624 2.88.624Zm0-15.024c1.248 0 2.272-.4 3.072-1.2.8-.8 1.2-1.824 1.2-3.072 0-1.28-.4-2.32-1.2-3.12-.8-.8-1.824-1.2-3.072-1.2s-2.288.4-3.12 1.2c-.8.8-1.2 1.824-1.2 3.072 0 1.28.4 2.32 1.2 3.12.832.8 1.872 1.2 3.12 1.2Zm14.481 8.352 11.52-21.84h7.2l-11.808 21.84h-6.912Zm0 3.84v-3.84l2.4-1.872h24.192v5.712H92.356ZM108.292 288v-21.504h6.432V288h-6.432Z" fill="#4EFDD5"/><path d="M44.958 212.138h-3.892L40.422 214h-2.058l3.514-9.786h2.282L47.674 214h-2.072l-.644-1.862Zm-.532-1.568-1.414-4.088-1.414 4.088h2.828Zm13.34-6.342L54.181 214h-2.38l-3.584-9.772h2.1l2.688 7.77 2.673-7.77h2.087Zm3.135 1.582v2.45h3.29v1.554H60.9v2.59h3.71V214h-5.67v-9.786h5.67v1.596H60.9ZM71.43 214l-2.155-3.808h-.924V214h-1.96v-9.772h3.668c.756 0 1.4.135 1.932.406.532.261.928.621 1.19 1.078.27.448.406.952.406 1.512 0 .644-.187 1.227-.56 1.75-.374.513-.929.868-1.666 1.064L73.7 214h-2.268Zm-3.08-5.278h1.639c.532 0 .928-.126 1.19-.378.261-.261.392-.621.392-1.078 0-.448-.13-.793-.392-1.036-.262-.252-.658-.378-1.19-.378h-1.638v2.87Zm13.002 3.416H77.46L76.816 214h-2.058l3.513-9.786h2.282L84.069 214h-2.072l-.643-1.862Zm-.532-1.568-1.415-4.088-1.413 4.088h2.828Zm11.365-3.402a2.294 2.294 0 0 0-.924-.938c-.392-.215-.85-.322-1.372-.322-.579 0-1.092.131-1.54.392a2.707 2.707 0 0 0-1.05 1.12c-.252.485-.378 1.045-.378 1.68 0 .653.126 1.223.378 1.708.261.485.62.859 1.078 1.12.457.261.99.392 1.596.392.747 0 1.358-.196 1.834-.588.476-.401.789-.957.938-1.666h-3.36v-1.498h5.292v1.708a4.595 4.595 0 0 1-.84 1.89 4.793 4.793 0 0 1-1.666 1.4c-.672.345-1.428.518-2.268.518-.943 0-1.797-.21-2.562-.63a4.748 4.748 0 0 1-1.792-1.778c-.43-.756-.644-1.615-.644-2.576 0-.961.215-1.82.644-2.576a4.623 4.623 0 0 1 1.792-1.778c.765-.429 1.615-.644 2.548-.644 1.101 0 2.058.271 2.87.812.812.532 1.372 1.283 1.68 2.254h-2.254Zm5.902-1.358v2.45h3.29v1.554h-3.29v2.59h3.71V214h-5.67v-9.786h5.67v1.596h-3.71Zm13.867 8.19-2.156-3.808h-.924V214h-1.96v-9.772h3.668c.756 0 1.4.135 1.932.406.532.261.929.621 1.19 1.078.271.448.406.952.406 1.512 0 .644-.186 1.227-.56 1.75-.373.513-.928.868-1.666 1.064l2.338 3.962h-2.268Zm-3.08-5.278h1.638c.532 0 .929-.126 1.19-.378.262-.261.392-.621.392-1.078 0-.448-.13-.793-.392-1.036-.261-.252-.658-.378-1.19-.378h-1.638v2.87Zm8.969-2.912v2.45h3.29v1.554h-3.29v2.59h3.71V214h-5.67v-9.786h5.67v1.596h-3.71Zm12.141-1.582v1.582h-2.604V214h-1.96v-8.19h-2.604v-1.582h7.168Zm3.362 0v6.048c0 .663.173 1.171.518 1.526.346.345.831.518 1.456.518.635 0 1.125-.173 1.47-.518.346-.355.518-.863.518-1.526v-6.048h1.974v6.034c0 .831-.182 1.535-.546 2.114a3.373 3.373 0 0 1-1.442 1.288c-.597.289-1.264.434-2.002.434-.728 0-1.39-.145-1.988-.434a3.33 3.33 0 0 1-1.4-1.288c-.345-.579-.518-1.283-.518-2.114v-6.034h1.96Zm12.87 9.772-2.156-3.808h-.924V214h-1.96v-9.772h3.668c.756 0 1.4.135 1.932.406.532.261.929.621 1.19 1.078.271.448.406.952.406 1.512 0 .644-.187 1.227-.56 1.75-.373.513-.929.868-1.666 1.064l2.338 3.962h-2.268Zm-3.08-5.278h1.638c.532 0 .929-.126 1.19-.378.261-.261.392-.621.392-1.078 0-.448-.131-.793-.392-1.036-.261-.252-.658-.378-1.19-.378h-1.638v2.87ZM158.504 214h-1.96l-4.438-6.706V214h-1.96v-9.786h1.96l4.438 6.72v-6.72h1.96V214Z" fill="#F0FBFF"/><path d="M40.448 169.656v-5.472h21.744v5.472H40.448Zm8.112-14.16h5.568v22.8H48.56v-22.8ZM72.353 183v-33.744h6.432V183h-6.432Zm-6.624-28.08v-5.664h12.576v5.664H65.729Zm17.721 16.176 11.52-21.84h7.2l-11.808 21.84H83.45Zm0 3.84v-3.84l2.4-1.872h24.192v5.712H83.45ZM99.386 183v-21.504h6.432V183h-6.432Zm20.521-20.352a7.069 7.069 0 0 1-3.504-.912 7.043 7.043 0 0 1-2.496-2.544c-.608-1.056-.912-2.224-.912-3.504 0-1.312.304-2.48.912-3.504a6.786 6.786 0 0 1 2.496-2.448c1.056-.64 2.224-.96 3.504-.96 1.312 0 2.496.32 3.552.96 1.088.608 1.936 1.424 2.544 2.448.608 1.024.912 2.192.912 3.504 0 1.28-.32 2.448-.96 3.504a7.043 7.043 0 0 1-2.496 2.544c-1.024.608-2.208.912-3.552.912Zm0-4.56c.736 0 1.312-.224 1.728-.672.416-.448.624-1.024.624-1.728s-.224-1.28-.672-1.728c-.416-.448-.976-.672-1.68-.672-.672 0-1.216.224-1.632.672-.416.448-.624 1.024-.624 1.728s.208 1.28.624 1.728c.416.448.96.672 1.632.672Zm14.784 25.392c-1.28 0-2.448-.304-3.504-.912a7.594 7.594 0 0 1-2.544-2.496c-.608-1.056-.912-2.24-.912-3.552 0-1.312.304-2.48.912-3.504a7.306 7.306 0 0 1 2.496-2.448c1.056-.64 2.24-.96 3.552-.96 1.312 0 2.496.32 3.552.96a6.786 6.786 0 0 1 2.496 2.448c.64 1.024.96 2.192.96 3.504 0 1.312-.32 2.496-.96 3.552a7.17 7.17 0 0 1-2.496 2.496c-1.024.608-2.208.912-3.552.912Zm0-4.56c.704 0 1.28-.224 1.728-.672.448-.448.672-1.024.672-1.728 0-.672-.24-1.232-.72-1.68-.448-.448-1.008-.672-1.68-.672-.672 0-1.232.224-1.68.672-.416.448-.624 1.008-.624 1.68 0 .704.208 1.28.624 1.728.448.448 1.008.672 1.68.672ZM113.907 183l20.928-33.744h5.952L119.859 183h-5.952Z" fill="#4EFDD5"/><path d="M52.028 99.228 49.298 109h-2.31l-1.834-6.958L43.236 109l-2.296.014-2.632-9.786h2.1l1.722 7.588 1.988-7.588h2.184l1.876 7.546 1.736-7.546h2.114Zm3.24 0V109h-1.96v-9.772h1.96ZM65.562 109h-1.96l-4.438-6.706V109h-1.96v-9.786h1.96l4.438 6.72v-6.72h1.96V109Zm10.313 0-2.156-3.808h-.924V109h-1.96v-9.772h3.668c.756 0 1.4.135 1.932.406.532.261.929.621 1.19 1.078.27.448.406.952.406 1.512a2.94 2.94 0 0 1-.56 1.75c-.373.513-.928.868-1.666 1.064L78.143 109h-2.268Zm-3.08-5.278h1.638c.532 0 .929-.126 1.19-.378.261-.261.392-.621.392-1.078 0-.448-.13-.793-.392-1.036-.261-.252-.658-.378-1.19-.378h-1.638v2.87Zm13 3.416h-3.891L81.26 109h-2.058l3.514-9.786h2.282L88.512 109H86.44l-.644-1.862Zm-.531-1.568-1.414-4.088-1.414 4.088h2.828Zm11.211-6.342v1.582h-2.604V109h-1.96v-8.19h-2.604v-1.582h7.168Zm3.39 1.582v2.45h3.29v1.554h-3.29v2.59h3.71V109h-5.67v-9.786h5.67v1.596h-3.71Z" fill="#F0FBFF"/><path d="m43.76 78 11.856-29.952h6.432L50.528 78H43.76Zm-4.656-28.08v-5.664h22.944v3.792L59.6 49.92H39.104Zm25.082 24.336 12.72-13.296c.895-.96 1.615-1.808 2.16-2.544.575-.768.992-1.488 1.248-2.16a6.144 6.144 0 0 0 .384-2.112c0-1.408-.464-2.512-1.392-3.312-.897-.8-2.064-1.2-3.504-1.2-1.473 0-2.785.384-3.937 1.152-1.12.768-2.175 1.984-3.167 3.648l-4.464-3.792c1.344-2.272 3.008-3.984 4.992-5.136 2.016-1.184 4.32-1.776 6.912-1.776 2.207 0 4.127.432 5.76 1.296 1.663.864 2.944 2.064 3.84 3.6.895 1.536 1.344 3.328 1.344 5.376 0 1.376-.176 2.624-.528 3.744-.32 1.12-.88 2.24-1.68 3.36-.768 1.088-1.84 2.32-3.216 3.696l-9.264 9.456h-8.209Zm0 3.744v-3.744l5.567-1.92h18.049V78H64.184Zm33.97-20.352a7.069 7.069 0 0 1-3.503-.912 7.043 7.043 0 0 1-2.496-2.544c-.608-1.056-.912-2.224-.912-3.504 0-1.312.304-2.48.912-3.504a6.786 6.786 0 0 1 2.496-2.448c1.056-.64 2.224-.96 3.504-.96 1.312 0 2.496.32 3.552.96 1.088.608 1.936 1.424 2.544 2.448.608 1.024.912 2.192.912 3.504 0 1.28-.32 2.448-.96 3.504a7.043 7.043 0 0 1-2.496 2.544c-1.024.608-2.208.912-3.552.912Zm0-4.56c.737 0 1.313-.224 1.729-.672.416-.448.624-1.024.624-1.728s-.224-1.28-.672-1.728c-.416-.448-.976-.672-1.68-.672-.672 0-1.216.224-1.632.672-.416.448-.624 1.024-.624 1.728s.208 1.28.624 1.728c.416.448.96.672 1.632.672Zm14.785 25.392c-1.28 0-2.448-.304-3.504-.912a7.594 7.594 0 0 1-2.544-2.496c-.608-1.056-.912-2.24-.912-3.552 0-1.312.304-2.48.912-3.504a7.306 7.306 0 0 1 2.496-2.448c1.056-.64 2.24-.96 3.552-.96 1.312 0 2.496.32 3.552.96a6.786 6.786 0 0 1 2.496 2.448c.64 1.024.96 2.192.96 3.504 0 1.312-.32 2.496-.96 3.552a7.17 7.17 0 0 1-2.496 2.496c-1.024.608-2.208.912-3.552.912Zm0-4.56c.704 0 1.28-.224 1.728-.672.448-.448.672-1.024.672-1.728 0-.672-.24-1.232-.72-1.68-.448-.448-1.008-.672-1.68-.672-.672 0-1.232.224-1.68.672-.416.448-.624 1.008-.624 1.68 0 .704.208 1.28.624 1.728.448.448 1.008.672 1.68.672ZM92.157 78l20.928-33.744h5.952L98.109 78h-5.952Z" fill="#4EFDD5"/><path d="M.5.5h347v358H.5V.5ZM192 .5v358M225 179h82.5" stroke="#4EFDD5"/><defs><linearGradient id="a" x1="100.62" y1="0" x2="100.62" y2="329" gradientUnits="userSpaceOnUse"><stop stop-color="#356EC1" stop-opacity=".35"/><stop offset="1" stop-color="#39E5EE"/></linearGradient></defs></svg>