<svg width="413" height="585" fill="none" xmlns="http://www.w3.org/2000/svg"><rect opacity=".3" x="104" y="32" width="308" height="517" rx="19" stroke="url(#a)" stroke-width="2"/><path opacity=".36" d="m102 518 311-217v49L102 567v-49Z" fill="url(#b)"/><path opacity=".36" d="M102 288 413 71v189L102 477V288Z" fill="url(#c)"/><rect opacity=".67" x="53" width="310" height="560" rx="20" fill="url(#d)"/><path opacity=".25" fill-rule="evenodd" clip-rule="evenodd" d="M53 193S166 45 233 45s130 87 130 98v145s-53-22-120-22S76 585 53 585V193Z" fill="url(#e)"/><circle opacity=".4" cx="99" cy="187" r="99" fill="url(#f)"/><circle opacity=".4" cx="206" cy="106" r="99" fill="url(#g)"/><circle opacity=".4" cx="296" cy="319" r="99" fill="url(#h)"/><circle opacity=".4" cx="182" cy="439" r="99" fill="url(#i)"/><defs><linearGradient id="a" x1="258" y1="550" x2="258" y2="31" gradientUnits="userSpaceOnUse"><stop stop-color="#00E8F6"/><stop offset="1" stop-color="#00FCBD" stop-opacity="0"/></linearGradient><linearGradient id="b" x1="379.392" y1="161" x2="308.503" y2="459.463" gradientUnits="userSpaceOnUse"><stop stop-color="#00FDBA"/><stop offset="1" stop-color="#081B31" stop-opacity="0"/></linearGradient><linearGradient id="c" x1="379.392" y1="71" x2="308.503" y2="369.463" gradientUnits="userSpaceOnUse"><stop stop-color="#00FDBA"/><stop offset="1" stop-color="#081B31" stop-opacity="0"/></linearGradient><linearGradient id="d" x1="329.5" y1="0" x2="200.5" y2="392.5" gradientUnits="userSpaceOnUse"><stop stop-color="#00FDBA"/><stop offset="1" stop-color="#081B31" stop-opacity="0"/></linearGradient><linearGradient id="e" x1="329.5" y1="45" x2="208.724" y2="426.088" gradientUnits="userSpaceOnUse"><stop stop-color="#00FDBA"/><stop offset="1" stop-color="#081B31" stop-opacity="0"/></linearGradient><radialGradient id="f" cx="0" cy="0" r="1" gradientUnits="userSpaceOnUse" gradientTransform="matrix(0 99 -99 0 99 187)"><stop stop-color="#4E8EEB"/><stop offset="1" stop-color="#081B31" stop-opacity="0"/></radialGradient><radialGradient id="g" cx="0" cy="0" r="1" gradientUnits="userSpaceOnUse" gradientTransform="matrix(0 99 -99 0 206 106)"><stop stop-color="#DE4E48"/><stop offset="1" stop-color="#081B31" stop-opacity="0"/></radialGradient><radialGradient id="h" cx="0" cy="0" r="1" gradientUnits="userSpaceOnUse" gradientTransform="matrix(0 99 -99 0 296 319)"><stop stop-color="#39E2CF"/><stop offset="1" stop-color="#081B31" stop-opacity="0"/></radialGradient><radialGradient id="i" cx="0" cy="0" r="1" gradientUnits="userSpaceOnUse" gradientTransform="matrix(0 99 -99 0 182 439)"><stop stop-color="#39E2CF"/><stop offset="1" stop-color="#081B31" stop-opacity="0"/></radialGradient></defs></svg>