<svg width="602" height="357" fill="none" xmlns="http://www.w3.org/2000/svg"><path d="M14.22 232.805h1.704v-2.748h1.584v2.748h1.848v-3.108H21v5.16h-8.424v-5.16h1.644v3.108Zm2.556-5.292c-.832 0-1.572-.18-2.22-.54a3.82 3.82 0 0 1-1.524-1.5c-.368-.648-.552-1.38-.552-2.196 0-1 .264-1.856.792-2.568s1.248-1.188 2.16-1.428v2.256a1.81 1.81 0 0 0-.804.72 1.976 1.976 0 0 0-.276 1.044c0 .632.22 1.144.66 1.536.44.392 1.028.588 1.764.588s1.324-.196 1.764-.588c.44-.392.66-.904.66-1.536 0-.392-.092-.74-.276-1.044a1.81 1.81 0 0 0-.804-.72v-2.256c.912.24 1.632.716 2.16 1.428.52.712.78 1.568.78 2.568 0 .816-.18 1.548-.54 2.196a3.924 3.924 0 0 1-1.524 1.5c-.648.36-1.388.54-2.22.54Zm4.308-14.673a4.43 4.43 0 0 1-.552 2.184 4.197 4.197 0 0 1-1.536 1.572c-.664.384-1.408.576-2.232.576-.824 0-1.564-.192-2.22-.576a4.197 4.197 0 0 1-1.536-1.572 4.43 4.43 0 0 1-.552-2.184c0-.792.184-1.516.552-2.172a3.999 3.999 0 0 1 1.536-1.56c.656-.384 1.396-.576 2.22-.576.824 0 1.568.192 2.232.576a4.108 4.108 0 0 1 1.536 1.56c.368.656.552 1.38.552 2.172Zm-1.872 0c0-.672-.224-1.208-.672-1.608-.448-.408-1.04-.612-1.776-.612-.744 0-1.336.204-1.776.612-.448.4-.672.936-.672 1.608 0 .68.22 1.224.66 1.632.44.4 1.036.6 1.788.6.744 0 1.34-.2 1.788-.6.44-.408.66-.952.66-1.632ZM21 198.655v2.052l-5.196 3.432H21v2.052h-8.424v-2.052l5.22-3.432h-5.22v-2.052H21Zm.084-6.672a4.43 4.43 0 0 1-.552 2.184 4.197 4.197 0 0 1-1.536 1.572c-.664.384-1.408.576-2.232.576-.824 0-1.564-.192-2.22-.576a4.197 4.197 0 0 1-1.536-1.572 4.43 4.43 0 0 1-.552-2.184c0-.792.184-1.516.552-2.172a3.999 3.999 0 0 1 1.536-1.56c.656-.384 1.396-.576 2.22-.576.824 0 1.568.192 2.232.576a4.108 4.108 0 0 1 1.536 1.56c.368.656.552 1.38.552 2.172Zm-1.872 0c0-.672-.224-1.208-.672-1.608-.448-.408-1.04-.612-1.776-.612-.744 0-1.336.204-1.776.612-.448.4-.672.936-.672 1.608 0 .68.22 1.224.66 1.632.44.4 1.036.6 1.788.6.744 0 1.34-.2 1.788-.6.44-.408.66-.952.66-1.632Zm-6.636-16.189H21v2.052h-5.052L21 179.73v1.656l-5.064 1.896H21v2.052h-8.424v-2.424l5.832-2.364-5.832-2.34v-2.412Zm0-4.728H21v2.052h-8.424v-2.052Zm4.2-2.339c-.832 0-1.572-.18-2.22-.54a3.82 3.82 0 0 1-1.524-1.5c-.368-.648-.552-1.38-.552-2.196 0-1 .264-1.856.792-2.568s1.248-1.188 2.16-1.428v2.256a1.81 1.81 0 0 0-.804.72 1.976 1.976 0 0 0-.276 1.044c0 .632.22 1.144.66 1.536.44.392 1.028.588 1.764.588s1.324-.196 1.764-.588c.44-.392.66-.904.66-1.536 0-.392-.092-.74-.276-1.044a1.81 1.81 0 0 0-.804-.72v-2.256c.912.24 1.632.716 2.16 1.428.52.712.78 1.568.78 2.568 0 .816-.18 1.548-.54 2.196a3.924 3.924 0 0 1-1.524 1.5c-.648.36-1.388.54-2.22.54Zm-4.2-23.972H21v2.052h-5.052L21 148.691v1.656l-5.064 1.896H21v2.052h-8.424v-2.424l5.832-2.364-5.832-2.34v-2.412Zm6.936-7.919v3.144l1.488.504v2.148l-8.424-3.048v-2.376L21 134.16v2.172l-1.488.504Zm-1.584.528-3.084 1.044 3.084 1.032v-2.076ZM21 127.736l-3.18 1.752v.492H21v2.052h-8.424v-3.444c0-.664.116-1.228.348-1.692.232-.472.552-.824.96-1.056a2.63 2.63 0 0 1 1.344-.348c.56 0 1.06.16 1.5.48.44.312.752.776.936 1.392L21 125.42v2.316Zm-4.632 2.244v-1.272c0-.376-.092-.656-.276-.84-.184-.192-.444-.288-.78-.288-.32 0-.572.096-.756.288-.184.184-.276.464-.276.84v1.272h2.088Zm-1.128-12.568c-.28.152-.492.372-.636.66-.152.28-.228.612-.228.996 0 .664.22 1.196.66 1.596.432.4 1.012.6 1.74.6.776 0 1.384-.208 1.824-.624.432-.424.648-1.004.648-1.74 0-.504-.128-.928-.384-1.272-.256-.352-.624-.608-1.104-.768v2.604h-1.512V115h1.908a3.98 3.98 0 0 1 1.428.78c.44.36.796.82 1.068 1.38.272.56.408 1.192.408 1.896 0 .832-.18 1.576-.54 2.232a3.985 3.985 0 0 1-1.524 1.524c-.648.36-1.388.54-2.22.54-.832 0-1.572-.18-2.22-.54a3.878 3.878 0 0 1-1.524-1.524c-.368-.648-.552-1.388-.552-2.22 0-1.008.244-1.856.732-2.544.488-.696 1.164-1.156 2.028-1.38v2.268Zm-2.664-6.801H21v2.052h-8.424v-2.052ZM21 100.388v2.052l-5.196 3.432H21v2.052h-8.424v-2.052l5.22-3.432h-5.22v-2.052H21Zm-1.488-7.931V95.6l1.488.504v2.148l-8.424-3.048v-2.376L21 89.78v2.172l-1.488.504Zm-1.584.528-3.084 1.044 3.084 1.032v-2.076Zm1.488-7.384v-2.688H21v4.74h-8.424v-2.052h6.84Zm-6.84-6.918H21v2.051h-8.424v-2.051Zm0-8.748h1.644v2.232H21v2.052h-6.78v2.232h-1.644v-6.516Zm0-9.453 5.64 2.916H21v2.052h-2.784l-5.64 2.916v-2.328l3.528-1.632-3.528-1.62v-2.304Z" fill="#A7CAFF"/><path d="M15 332c334.727 0 537-153.148 537-317" stroke="#FFC737" stroke-width="5" stroke-linecap="round" stroke-linejoin="round"/><path d="M483.7 313h-2.052l-3.432-5.196V313h-2.052v-8.424h2.052l3.432 5.22v-5.22h2.052V313Zm4.704-8.424v5.04c0 .504.124.892.372 1.164.248.272.612.408 1.092.408.48 0 .848-.136 1.104-.408.256-.272.384-.66.384-1.164v-5.04h2.052v5.028c0 .752-.16 1.388-.48 1.908-.32.52-.752.912-1.296 1.176a4.019 4.019 0 0 1-1.8.396c-.664 0-1.26-.128-1.788-.384a2.964 2.964 0 0 1-1.236-1.176c-.304-.528-.456-1.168-.456-1.92v-5.028h2.052Zm17.185 0V313h-2.052v-5.052L501.653 313h-1.656l-1.896-5.064V313h-2.052v-8.424h2.424l2.364 5.832 2.34-5.832h2.412Zm7.775 4.104c.488.104.88.348 1.176.732.296.376.444.808.444 1.296 0 .704-.248 1.264-.744 1.68-.488.408-1.172.612-2.052.612h-3.924v-8.424h3.792c.856 0 1.524.196 2.004.588.488.392.732.924.732 1.596 0 .496-.132.908-.396 1.236-.256.328-.6.556-1.032.684Zm-3.048-.696h1.344c.336 0 .592-.072.768-.216.184-.152.276-.372.276-.66 0-.288-.092-.508-.276-.66-.176-.152-.432-.228-.768-.228h-1.344v1.764Zm1.512 3.36c.344 0 .608-.076.792-.228.192-.16.288-.388.288-.684 0-.296-.1-.528-.3-.696-.192-.168-.46-.252-.804-.252h-1.488v1.86h1.512Zm7.598-5.124v1.704h2.748v1.584h-2.748v1.848h3.108V313h-5.16v-8.424h5.16v1.644h-3.108Zm9.937 6.78-1.752-3.18h-.492V313h-2.052v-8.424h3.444c.664 0 1.228.116 1.692.348.472.232.824.552 1.056.96.232.4.348.848.348 1.344 0 .56-.16 1.06-.48 1.5-.312.44-.776.752-1.392.936l1.944 3.336h-2.316Zm-2.244-4.632h1.272c.376 0 .656-.092.84-.276.192-.184.288-.444.288-.78 0-.32-.096-.572-.288-.756-.184-.184-.464-.276-.84-.276h-1.272v2.088Zm14.703 4.716a4.43 4.43 0 0 1-2.184-.552 4.197 4.197 0 0 1-1.572-1.536c-.384-.664-.576-1.408-.576-2.232 0-.824.192-1.564.576-2.22a4.197 4.197 0 0 1 1.572-1.536 4.43 4.43 0 0 1 2.184-.552c.792 0 1.516.184 2.172.552.664.368 1.184.88 1.56 1.536.384.656.576 1.396.576 2.22 0 .824-.192 1.568-.576 2.232a4.108 4.108 0 0 1-1.56 1.536 4.363 4.363 0 0 1-2.172.552Zm0-1.872c.672 0 1.208-.224 1.608-.672.408-.448.612-1.04.612-1.776 0-.744-.204-1.336-.612-1.776-.4-.448-.936-.672-1.608-.672-.68 0-1.224.22-1.632.66-.4.44-.6 1.036-.6 1.788 0 .744.2 1.34.6 1.788.408.44.952.66 1.632.66Zm12.133-6.636v1.644h-3.432v1.776h2.568v1.596h-2.568V313h-2.052v-8.424h5.484Zm8.038 0v5.04c0 .504.124.892.372 1.164.248.272.612.408 1.092.408.48 0 .848-.136 1.104-.408.256-.272.384-.66.384-1.164v-5.04h2.052v5.028c0 .752-.16 1.388-.48 1.908-.32.52-.752.912-1.296 1.176a4.019 4.019 0 0 1-1.8.396c-.664 0-1.26-.128-1.788-.384a2.964 2.964 0 0 1-1.236-1.176c-.304-.528-.456-1.168-.456-1.92v-5.028h2.052Zm10.693 8.508c-.616 0-1.168-.1-1.656-.3-.488-.2-.88-.496-1.176-.888-.288-.392-.44-.864-.456-1.416h2.184c.032.312.14.552.324.72.184.16.424.24.72.24.304 0 .544-.068.72-.204a.72.72 0 0 0 .264-.588.68.68 0 0 0-.216-.516 1.602 1.602 0 0 0-.516-.336 7.798 7.798 0 0 0-.864-.3 9.473 9.473 0 0 1-1.332-.504 2.461 2.461 0 0 1-.888-.744c-.248-.328-.372-.756-.372-1.284 0-.784.284-1.396.852-1.836.568-.448 1.308-.672 2.22-.672.928 0 1.676.224 2.244.672.568.44.872 1.056.912 1.848h-2.22c-.016-.272-.116-.484-.3-.636-.184-.16-.42-.24-.708-.24-.248 0-.448.068-.6.204-.152.128-.228.316-.228.564 0 .272.128.484.384.636.256.152.656.316 1.2.492.544.184.984.36 1.32.528.344.168.64.412.888.732s.372.732.372 1.236c0 .48-.124.916-.372 1.308-.24.392-.592.704-1.056.936-.464.232-1.012.348-1.644.348Zm7.587-6.864v1.704h2.748v1.584h-2.748v1.848h3.108V313h-5.16v-8.424h5.16v1.644h-3.108Zm9.936 6.78-1.752-3.18h-.492V313h-2.052v-8.424h3.444c.664 0 1.228.116 1.692.348.472.232.824.552 1.056.96.232.4.348.848.348 1.344 0 .56-.16 1.06-.48 1.5-.312.44-.776.752-1.392.936l1.944 3.336h-2.316Zm-2.244-4.632h1.272c.376 0 .656-.092.84-.276.192-.184.288-.444.288-.78 0-.32-.096-.572-.288-.756-.184-.184-.464-.276-.84-.276h-1.272v2.088Zm10.024 4.716c-.616 0-1.168-.1-1.656-.3-.488-.2-.88-.496-1.176-.888-.288-.392-.44-.864-.456-1.416h2.184c.032.312.14.552.324.72.184.16.424.24.72.24.304 0 .544-.068.72-.204a.72.72 0 0 0 .264-.588.68.68 0 0 0-.216-.516 1.602 1.602 0 0 0-.516-.336 7.798 7.798 0 0 0-.864-.3 9.473 9.473 0 0 1-1.332-.504 2.461 2.461 0 0 1-.888-.744c-.248-.328-.372-.756-.372-1.284 0-.784.284-1.396.852-1.836.568-.448 1.308-.672 2.22-.672.928 0 1.676.224 2.244.672.568.44.872 1.056.912 1.848h-2.22c-.016-.272-.116-.484-.3-.636-.184-.16-.42-.24-.708-.24-.248 0-.448.068-.6.204-.152.128-.228.316-.228.564 0 .272.128.484.384.636.256.152.656.316 1.2.492.544.184.984.36 1.32.528.344.168.64.412.888.732s.372.732.372 1.236c0 .48-.124.916-.372 1.308-.24.392-.592.704-1.056.936-.464.232-1.012.348-1.644.348Z" fill="#A7CAFF"/><path d="M41 10v345M1 285l600-1" stroke="#6195E2" stroke-linecap="round" stroke-linejoin="round"/><path d="m118 298-92 6 119 33.5M118 298l77.5-3m-77.5 3 27 39.5m50.5-42.5 62-28.5m-62 28.5 93 10m-31-38.5 46-20.5m-46 20.5 31 38.5m-31-38.5 71-138.5m-71 138.5 81 20.5m-81-20.5-112.5 71M303.5 246l44-15m-44 15-15 59m15-59 25-118m-25 118 30.5-82.5M303.5 246l73 20.5m-29-35.5 47-18.5m-47 18.5-9 56m9-56 29 35.5m-29-35.5L334 163.5m13.5 67.5 17.5-44m29.5 25.5L405 182m-10.5 30.5L365 187m29.5 25.5L491 190m-96.5 22.5L415 245m-20.5-32.5-18 54M405 182l-17-21m17 21 47.5 43M405 182l26-21m-26 21 9-48m-9 48 10 63m-27-84-24.5-27m24.5 27-23 26m23-26 1-48m-1 48 26-27m-50.5 0L349 98m14.5 36L334 163.5m29.5-29.5 1.5 53m-1.5-53 25.5-21m-40-15 12.5-28M349 98l-20.5 30m33-58 10-34.5L391 51m-29.5 19 27.5 43m2-62 26-18.5M391 51l-27.5 19 37.5 6m-10-25 10 25m-10-25-2 62m28-80.5 42.5-13m-42.5 13 16 31m26.5-44L509 35m-49.5-15.5-26.5 44m26.5-44 9 25.5M509 35l26.5 28.5M509 35l-40.5 10M509 35l-13 36.5m39.5-8-39.5 8m39.5-8L501 98m34.5-34.5 20 37.5m-20-37.5L576 77m-40.5-13.5L567 38.3m9 38.7-8-39.5-1 .8m9 38.7-9 57m9-57-20.5 24m11.5 33 2 48m-2-48-27 19m27-19-11.5-33m11.5 33-61-14m63 62-18 22.5m18-22.5-29-29m29 29-18 43m0-20.5V225m0-20.5-29.5 4.5m29.5-4.5L540 153m11 72-24 18m24-18-29.5-16m5.5 34-112 2m112-2-5.5-34m5.5 34-31-19.5m31 19.5-74.5-18M415 245l-38.5 21.5M415 245l81-21.5M415 245l37.5-20m-76 41.5-38 20.5m38-20.5L365 187m-26.5 100-50 18m0 0L145 337.5M328.5 128l5.5 35.5m0 0 31 23.5m87.5 38 43.5-1.5m-43.5 1.5 38.5-35m-38.5 35 27.5-84m-27.5 84-3.5-85m3.5 85L431 161m65 62.5 25.5-14.5M496 223.5l-5-33.5m30.5 19v-27m0 27L491 190m30.5-8 18.5-29m-18.5 29L506 120m15.5 62L480 141m41.5 41-30.5 8m49-37-34-33m34 33-60-12m60 12c-1.648-1.6 9.646-35.333 15.5-52M506 120l-5-22m5 22 49.5-19M506 120l-26 21m26-21-63.5-7M501 98l-36-5m36 5-5-26.5m5 26.5-52 42m52-42 54.5 3M465 93l15 48m-15-48 3.5-48M465 93l-32-29.5M465 93l-22.5 20m37.5 28-31-1m31 1 11 49m-11-49-37.5-28m6.5 27-6.5-27m6.5 27-18 21m18-21-35-6m28.5-21L418 98m24.5 15L414 134m28.5-21L433 63.5M418 98l-17-22m17 22-4 36m4-36 15-34.5M401 76l32-12.5M401 76l-12 37m44-49.5L468.5 45M433 63.5l63 8M468.5 45 496 71.5m0 0 59.5 29.5M389 113l25 21m0 0 17 27m0 0 60 29m64.5-89L567 38.3" stroke="#14B08D" stroke-linecap="round" stroke-linejoin="round"/><g filter="url(#a)"><path d="M18 304a8 8 0 1 1 16 0 8 8 0 0 1-16 0ZM110 298a8 8 0 1 1 16 0 8 8 0 0 1-16 0ZM137 337.5a8 8 0 1 1 16 0 8 8 0 0 1-16 0ZM187.5 295a8 8 0 1 1 16 0 8 8 0 0 1-16 0ZM280.5 305a8 8 0 1 1 16 0 8 8 0 0 1-16 0ZM249.5 266.5a8 8 0 1 1 16 0 8 8 0 0 1-16 0ZM295.5 246a8 8 0 1 1 16 0 8 8 0 0 1-16 0ZM330.5 287a8 8 0 1 1 16 0 8 8 0 0 1-16 0ZM368.5 266.5a8 8 0 1 1 16 0 8 8 0 0 1-16 0ZM339.5 231.5a8 8 0 1 1 16 0 8 8 0 0 1-16 0ZM386.5 212.5a8 8 0 1 1 16 0 8 8 0 0 1-16 0ZM407 245a8 8 0 1 1 16 0 8 8 0 0 1-16 0ZM444.5 225a8 8 0 1 1 16 0 8 8 0 0 1-16 0ZM397 182a8 8 0 1 1 16 0 8 8 0 0 1-16 0ZM380 161a8 8 0 1 1 16 0 8 8 0 0 1-16 0ZM355.5 134a8 8 0 1 1 16 0 8 8 0 0 1-16 0ZM341 98a8 8 0 1 1 16 0 8 8 0 0 1-16 0ZM320.5 128a8 8 0 1 1 16 0 8 8 0 0 1-16 0ZM326 163.5a8 8 0 1 1 16 0 8 8 0 0 1-16 0ZM357 187a8 8 0 1 1 16 0 8 8 0 0 1-16 0ZM423 161a8 8 0 1 1 16 0 8 8 0 0 1-16 0ZM406 134a8 8 0 1 1 16 0 8 8 0 0 1-16 0ZM381 113a8 8 0 1 1 16 0 8 8 0 0 1-16 0ZM441 139.5a8 8 0 1 1 16 0 8 8 0 0 1-16 0ZM472 140.5a8 8 0 1 1 16 0 8 8 0 0 1-16 0ZM434.5 113a8 8 0 1 1 16 0 8 8 0 0 1-16 0ZM410 98a8 8 0 1 1 16 0 8 8 0 0 1-16 0ZM393 76a8 8 0 1 1 16 0 8 8 0 0 1-16 0ZM425 63.5a8 8 0 1 1 16 0 8 8 0 0 1-16 0ZM383 51a8 8 0 1 1 16 0 8 8 0 0 1-16 0ZM363.5 35.5a8 8 0 1 1 16 0 8 8 0 0 1-16 0ZM353.5 70.5a8 8 0 1 1 16 0 8 8 0 0 1-16 0ZM409 32.5a8 8 0 1 1 16 0 8 8 0 0 1-16 0ZM451.5 19.5a8 8 0 1 1 16 0 8 8 0 0 1-16 0ZM460.5 45.5a8 8 0 1 1 16 0 8 8 0 0 1-16 0ZM501 35a8 8 0 1 1 16 0 8 8 0 0 1-16 0ZM488 71.5a8 8 0 1 1 16 0 8 8 0 0 1-16 0ZM527.5 63.5a8 8 0 1 1 16 0 8 8 0 0 1-16 0ZM560 37.5a8 8 0 1 1 16 0 8 8 0 0 1-16 0ZM547.5 101a8 8 0 1 1 16 0 8 8 0 0 1-16 0ZM532 153a8 8 0 1 1 16 0 8 8 0 0 1-16 0ZM559 134a8 8 0 1 1 16 0 8 8 0 0 1-16 0ZM543 204.5a8 8 0 1 1 16 0 8 8 0 0 1-16 0ZM543 225a8 8 0 1 1 16 0 8 8 0 0 1-16 0ZM561 182a8 8 0 1 1 16 0 8 8 0 0 1-16 0ZM513.5 182a8 8 0 1 1 16 0 8 8 0 0 1-16 0ZM482.5 190a8 8 0 1 1 16 0 8 8 0 0 1-16 0ZM513.5 209a8 8 0 1 1 16 0 8 8 0 0 1-16 0ZM488 223.5a8 8 0 1 1 16 0 8 8 0 0 1-16 0ZM519 243a8 8 0 1 1 16 0 8 8 0 0 1-16 0ZM568 77a8 8 0 1 1 16 0 8 8 0 0 1-16 0ZM498 120a8 8 0 1 1 16 0 8 8 0 0 1-16 0ZM493 98a8 8 0 1 1 16 0 8 8 0 0 1-16 0ZM457 93a8 8 0 1 1 16 0 8 8 0 0 1-16 0Z" fill="#4EFDD5"/><path d="M18 304a8 8 0 1 1 16 0 8 8 0 0 1-16 0ZM110 298a8 8 0 1 1 16 0 8 8 0 0 1-16 0ZM137 337.5a8 8 0 1 1 16 0 8 8 0 0 1-16 0ZM187.5 295a8 8 0 1 1 16 0 8 8 0 0 1-16 0ZM280.5 305a8 8 0 1 1 16 0 8 8 0 0 1-16 0ZM249.5 266.5a8 8 0 1 1 16 0 8 8 0 0 1-16 0ZM295.5 246a8 8 0 1 1 16 0 8 8 0 0 1-16 0ZM330.5 287a8 8 0 1 1 16 0 8 8 0 0 1-16 0ZM368.5 266.5a8 8 0 1 1 16 0 8 8 0 0 1-16 0ZM339.5 231.5a8 8 0 1 1 16 0 8 8 0 0 1-16 0ZM386.5 212.5a8 8 0 1 1 16 0 8 8 0 0 1-16 0ZM407 245a8 8 0 1 1 16 0 8 8 0 0 1-16 0ZM444.5 225a8 8 0 1 1 16 0 8 8 0 0 1-16 0ZM397 182a8 8 0 1 1 16 0 8 8 0 0 1-16 0ZM380 161a8 8 0 1 1 16 0 8 8 0 0 1-16 0ZM355.5 134a8 8 0 1 1 16 0 8 8 0 0 1-16 0ZM341 98a8 8 0 1 1 16 0 8 8 0 0 1-16 0ZM320.5 128a8 8 0 1 1 16 0 8 8 0 0 1-16 0ZM326 163.5a8 8 0 1 1 16 0 8 8 0 0 1-16 0ZM357 187a8 8 0 1 1 16 0 8 8 0 0 1-16 0ZM423 161a8 8 0 1 1 16 0 8 8 0 0 1-16 0ZM406 134a8 8 0 1 1 16 0 8 8 0 0 1-16 0ZM381 113a8 8 0 1 1 16 0 8 8 0 0 1-16 0ZM441 139.5a8 8 0 1 1 16 0 8 8 0 0 1-16 0ZM472 140.5a8 8 0 1 1 16 0 8 8 0 0 1-16 0ZM434.5 113a8 8 0 1 1 16 0 8 8 0 0 1-16 0ZM410 98a8 8 0 1 1 16 0 8 8 0 0 1-16 0ZM393 76a8 8 0 1 1 16 0 8 8 0 0 1-16 0ZM425 63.5a8 8 0 1 1 16 0 8 8 0 0 1-16 0ZM383 51a8 8 0 1 1 16 0 8 8 0 0 1-16 0ZM363.5 35.5a8 8 0 1 1 16 0 8 8 0 0 1-16 0ZM353.5 70.5a8 8 0 1 1 16 0 8 8 0 0 1-16 0ZM409 32.5a8 8 0 1 1 16 0 8 8 0 0 1-16 0ZM451.5 19.5a8 8 0 1 1 16 0 8 8 0 0 1-16 0ZM460.5 45.5a8 8 0 1 1 16 0 8 8 0 0 1-16 0ZM501 35a8 8 0 1 1 16 0 8 8 0 0 1-16 0ZM488 71.5a8 8 0 1 1 16 0 8 8 0 0 1-16 0ZM527.5 63.5a8 8 0 1 1 16 0 8 8 0 0 1-16 0ZM560 37.5a8 8 0 1 1 16 0 8 8 0 0 1-16 0ZM547.5 101a8 8 0 1 1 16 0 8 8 0 0 1-16 0ZM532 153a8 8 0 1 1 16 0 8 8 0 0 1-16 0ZM559 134a8 8 0 1 1 16 0 8 8 0 0 1-16 0ZM543 204.5a8 8 0 1 1 16 0 8 8 0 0 1-16 0ZM543 225a8 8 0 1 1 16 0 8 8 0 0 1-16 0ZM561 182a8 8 0 1 1 16 0 8 8 0 0 1-16 0ZM513.5 182a8 8 0 1 1 16 0 8 8 0 0 1-16 0ZM482.5 190a8 8 0 1 1 16 0 8 8 0 0 1-16 0ZM513.5 209a8 8 0 1 1 16 0 8 8 0 0 1-16 0ZM488 223.5a8 8 0 1 1 16 0 8 8 0 0 1-16 0ZM519 243a8 8 0 1 1 16 0 8 8 0 0 1-16 0ZM568 77a8 8 0 1 1 16 0 8 8 0 0 1-16 0ZM498 120a8 8 0 1 1 16 0 8 8 0 0 1-16 0ZM493 98a8 8 0 1 1 16 0 8 8 0 0 1-16 0ZM457 93a8 8 0 1 1 16 0 8 8 0 0 1-16 0Z" stroke="#4682DB" stroke-width="2" stroke-linecap="round" stroke-linejoin="round"/></g><defs><filter id="a" x="7" y=".5" width="588" height="356" filterUnits="userSpaceOnUse" color-interpolation-filters="sRGB"><feFlood flood-opacity="0" result="BackgroundImageFix"/><feColorMatrix in="SourceAlpha" values="0 0 0 0 0 0 0 0 0 0 0 0 0 0 0 0 0 0 127 0" result="hardAlpha"/><feOffset/><feGaussianBlur stdDeviation="5"/><feComposite in2="hardAlpha" operator="out"/><feColorMatrix values="0 0 0 0 0.305882 0 0 0 0 0.992157 0 0 0 0 0.835294 0 0 0 0.8 0"/><feBlend in2="BackgroundImageFix" result="effect1_dropShadow_4853_412"/><feBlend in="SourceGraphic" in2="effect1_dropShadow_4853_412" result="shape"/></filter></defs></svg>