<svg width="267" height="192" fill="none" xmlns="http://www.w3.org/2000/svg"><g filter="url(#a)"><path d="M46 50c0-13.807 11.193-25 25-25h125c13.807 0 25 11.193 25 25v50c0 13.807-11.193 25-25 25H71c-13.807 0-25-11.193-25-25V50Z" fill="url(#b)"/></g><path d="M221 50v50c0 13.807-11.193 25-25 25h-50l75-75Z" fill="url(#c)"/><path d="m139.879 69.257 9.328-6.62m-21.204 3.996-3.022-5.288m-1.34 11.41-8.103-1.594m10.716 9.919-7.851 8.28m15.728-6.036 1.07 5.774m4.678-9.51 6.884 4.747m-14.266-18.563a8.725 8.725 0 1 0 0 17.45 8.725 8.725 0 0 0 0-17.45ZM114.04 87.919a6.04 6.04 0 1 0 0 12.081 6.04 6.04 0 1 0 0-12.08Zm37.92-6.04a6.04 6.04 0 1 0 0 12.082 6.04 6.04 0 0 0 0-12.082ZM121.758 50a6.04 6.04 0 1 0 0 12.08 6.04 6.04 0 1 0 0-12.08Zm31.544 5.034a4.698 4.698 0 1 0 0 9.395 4.698 4.698 0 0 0 0-9.395Zm-17.45 34.228a3.355 3.355 0 1 0 0 6.71 3.355 3.355 0 0 0 0-6.71Zm-23.825-22.148a3.356 3.356 0 1 0 0 6.712 3.356 3.356 0 0 0 0-6.712Z" stroke="#0E2C59" stroke-linecap="round"/><defs><linearGradient id="b" x1="256" y1="10" x2="148" y2="226" gradientUnits="userSpaceOnUse"><stop stop-color="#50FFD4"/><stop offset="1" stop-color="#39E5EE"/></linearGradient><linearGradient id="c" x1="166.5" y1="42" x2="221" y2="125" gradientUnits="userSpaceOnUse"><stop stop-color="#fff"/><stop offset="1" stop-color="#39E5EE" stop-opacity="0"/></linearGradient><filter id="a" x="0" y="0" width="267" height="192" filterUnits="userSpaceOnUse" color-interpolation-filters="sRGB"><feFlood flood-opacity="0" result="BackgroundImageFix"/><feColorMatrix in="SourceAlpha" values="0 0 0 0 0 0 0 0 0 0 0 0 0 0 0 0 0 0 127 0" result="hardAlpha"/><feOffset dy="21"/><feGaussianBlur stdDeviation="23"/><feComposite in2="hardAlpha" operator="out"/><feColorMatrix values="0 0 0 0 0.00784314 0 0 0 0 0.0666667 0 0 0 0 0.14902 0 0 0 0.25 0"/><feBlend in2="BackgroundImageFix" result="effect1_dropShadow_6714_401"/><feBlend in="SourceGraphic" in2="effect1_dropShadow_6714_401" result="shape"/></filter></defs></svg>