<svg width="267" height="192" fill="none" xmlns="http://www.w3.org/2000/svg"><g filter="url(#a)"><path d="M46 50c0-13.807 11.193-25 25-25h125c13.807 0 25 11.193 25 25v50c0 13.807-11.193 25-25 25H71c-13.807 0-25-11.193-25-25V50Z" fill="url(#b)"/></g><path d="M221 50v50c0 13.807-11.193 25-25 25h-50l75-75Z" fill="url(#c)"/><path d="M143.333 58a1.333 1.333 0 1 1 0-2.667 1.333 1.333 0 0 1 0 2.667Zm0 0v2l-4 1.333v2M128 52.667A1.333 1.333 0 1 1 128 50a1.333 1.333 0 0 1 0 2.667Zm0 0v4.666L130 60v3.333m8.333-10a1.333 1.333 0 1 1 0-2.666 1.333 1.333 0 0 1 0 2.666Zm0 0V56l-1.666 2v5.333m-3.334-6a1.333 1.333 0 1 1 0-2.666 1.333 1.333 0 0 1 0 2.666Zm0 0v6M128 96a1.333 1.333 0 1 0 0 2.667A1.333 1.333 0 0 0 128 96Zm0 0v-2.667l2-2v-4.666m8.333 10.666a1.333 1.333 0 1 0 0 2.667 1.333 1.333 0 0 0 0-2.667Zm0 0v-4.666l-1.666-2v-4m-3.334 6.666a1.333 1.333 0 1 0 0 2.667 1.333 1.333 0 0 0 0-2.667Zm0 0v-6.666m-18.666-1.334a1.334 1.334 0 1 1-2.667 0 1.334 1.334 0 0 1 2.667 0Zm0 0h2l2-2.666h2.666m-10.666-7.334a1.334 1.334 0 1 1-2.667 0 1.334 1.334 0 0 1 2.667 0Zm0 0h10.666M112.667 70A1.333 1.333 0 1 1 110 70a1.333 1.333 0 0 1 2.667 0Zm0 0h2.666l2 1.333h4m4-8h-1a3 3 0 0 0-3 3v1m4-4H130m-4.667 0V60l-1.833-2.292m6.5 5.625h3.333m0 0h3.334m0 0h2.666m0 0H142L144.667 66v1.333M140 86.667h1.667a3 3 0 0 0 3-3V82M140 86.667V90l2.292 1.834M140 86.667h-3.333m0 0h-3.334m0 0H130m0 0h-3.333m-3 5.118a1.333 1.333 0 1 1-2 1.764 1.333 1.333 0 0 1 2-1.764Zm0 0 3-2.452v-2.666m0 0h-2.334a3 3 0 0 1-3-3v-1m30-18a1.334 1.334 0 1 1 2.667 0 1.334 1.334 0 0 1-2.667 0Zm0 0h-2L148 67.333h-3.333M150 74a1.333 1.333 0 1 1 2.667 0A1.333 1.333 0 0 1 150 74Zm0 0h-5.333M154 79a1.333 1.333 0 1 1 2.667 0A1.333 1.333 0 0 1 154 79Zm0 0h-4l-2-1.667h-3.333m10.666-8a1.334 1.334 0 1 1 2.667 0 1.334 1.334 0 0 1-2.667 0Zm0 0H150l-1.333 2h-4m0 2.667v3.333m0-3.333v-2.667m0 6V82m7 2.451a1.333 1.333 0 1 1 2 1.764 1.333 1.333 0 0 1-2-1.764Zm0 0L148 82h-3.333m0-10.667v-4m-29.118-1.666a1.334 1.334 0 1 1-1.765-2 1.334 1.334 0 0 1 1.765 2Zm0 0L118 67.333h3.333m0 0v4m0 0v4m0 0V78m-5.625 1.5a1.333 1.333 0 1 1-2.083 1.666 1.333 1.333 0 0 1 2.083-1.665Zm0 0 1.625-1.5h4m0 0v4.667m2.167-24.96a1.334 1.334 0 1 1-1.667-2.083 1.334 1.334 0 0 1 1.667 2.084Zm17.833 21.626v4h-16.666v-6.666m16.666.666V76m0-2v-7.333h-16.666v2.666m0 2V74m17.625 17.834a1.334 1.334 0 1 1 2.083 1.666 1.334 1.334 0 0 1-2.083-1.666Z" stroke="#0E2C59" stroke-linecap="round" stroke-linejoin="round"/><defs><linearGradient id="b" x1="256" y1="10" x2="148" y2="226" gradientUnits="userSpaceOnUse"><stop stop-color="#50FFD4"/><stop offset="1" stop-color="#39E5EE"/></linearGradient><linearGradient id="c" x1="166.5" y1="42" x2="221" y2="125" gradientUnits="userSpaceOnUse"><stop stop-color="#fff"/><stop offset="1" stop-color="#39E5EE" stop-opacity="0"/></linearGradient><filter id="a" x="0" y="0" width="267" height="192" filterUnits="userSpaceOnUse" color-interpolation-filters="sRGB"><feFlood flood-opacity="0" result="BackgroundImageFix"/><feColorMatrix in="SourceAlpha" values="0 0 0 0 0 0 0 0 0 0 0 0 0 0 0 0 0 0 127 0" result="hardAlpha"/><feOffset dy="21"/><feGaussianBlur stdDeviation="23"/><feComposite in2="hardAlpha" operator="out"/><feColorMatrix values="0 0 0 0 0.00784314 0 0 0 0 0.0666667 0 0 0 0 0.14902 0 0 0 0.25 0"/><feBlend in2="BackgroundImageFix" result="effect1_dropShadow_6714_402"/><feBlend in="SourceGraphic" in2="effect1_dropShadow_6714_402" result="shape"/></filter></defs></svg>