<svg width="267" height="192" fill="none" xmlns="http://www.w3.org/2000/svg"><g filter="url(#a)"><path d="M46 50c0-13.807 11.193-25 25-25h125c13.807 0 25 11.193 25 25v50c0 13.807-11.193 25-25 25H71c-13.807 0-25-11.193-25-25V50Z" fill="url(#b)"/></g><path d="M221 50v50c0 13.807-11.193 25-25 25h-50l75-75Z" fill="url(#c)"/><path d="M154 53.333h-1.667v14h3.334v-14H154Zm0 0V50m-7.333 10H145v10h3.333V60h-1.666Zm0 0v-8m-7.334 12h-1.666v9.333H141V64h-1.667Zm0 0v-7.333M132 60h-1.667v8h3.334v-8H132Zm0 0v-3.333m-7.333-2H123V64h3.333v-9.333h-1.666Zm0 0V50m-7.334 11.333h-1.666v11.334H119V61.333h-1.667Zm0 0V58M110 58h-1.667v8.667h3.334V58H110Zm0 0v-6m44 16.667v-1.334M146.667 76v-6m-7.334 6v-2.667M132 70v-2m-7.333-2v-2m-7.334 10v-1.333M110 70v-3.333m47 2v12M107 70v25a5 5 0 0 0 5 5h40.333A4.667 4.667 0 0 0 157 95.333v0M111.667 84h12m-12 4H129m-17.333 4h12m20-3.333 3 2.666 6.333-6m-5-6.666A9.333 9.333 0 0 0 138.667 88 9.333 9.333 0 0 0 148 97.333 9.333 9.333 0 0 0 157.333 88 9.333 9.333 0 0 0 148 78.667Z" stroke="#0E2C59" stroke-linecap="round" stroke-linejoin="round"/><defs><linearGradient id="b" x1="256" y1="10" x2="148" y2="226" gradientUnits="userSpaceOnUse"><stop stop-color="#50FFD4"/><stop offset="1" stop-color="#39E5EE"/></linearGradient><linearGradient id="c" x1="166.5" y1="42" x2="221" y2="125" gradientUnits="userSpaceOnUse"><stop stop-color="#fff"/><stop offset="1" stop-color="#39E5EE" stop-opacity="0"/></linearGradient><filter id="a" x="0" y="0" width="267" height="192" filterUnits="userSpaceOnUse" color-interpolation-filters="sRGB"><feFlood flood-opacity="0" result="BackgroundImageFix"/><feColorMatrix in="SourceAlpha" values="0 0 0 0 0 0 0 0 0 0 0 0 0 0 0 0 0 0 127 0" result="hardAlpha"/><feOffset dy="21"/><feGaussianBlur stdDeviation="23"/><feComposite in2="hardAlpha" operator="out"/><feColorMatrix values="0 0 0 0 0.00784314 0 0 0 0 0.0666667 0 0 0 0 0.14902 0 0 0 0.25 0"/><feBlend in2="BackgroundImageFix" result="effect1_dropShadow_6714_403"/><feBlend in="SourceGraphic" in2="effect1_dropShadow_6714_403" result="shape"/></filter></defs></svg>