<svg width="267" height="192" fill="none" xmlns="http://www.w3.org/2000/svg"><g filter="url(#a)"><path d="M46 50c0-13.807 11.193-25 25-25h125c13.807 0 25 11.193 25 25v50c0 13.807-11.193 25-25 25H71c-13.807 0-25-11.193-25-25V50Z" fill="url(#b)"/></g><path d="M221 50v50c0 13.807-11.193 25-25 25h-50l75-75Z" fill="url(#c)"/><path d="M155.667 53.333H154v14h3.333v-14h-1.666Zm0 0V50m-7.334 10h-1.666v10H150V60h-1.667Zm0 0v-8M141 64h-1.667v9.333h3.334V64H141Zm0 0v-7.333M133.667 60H132v8h3.333v-8h-1.666Zm0 0v-3.333m-7.334-2h-1.666V64H128v-9.333h-1.667Zm0 0V50M119 61.333h-1.667v11.334h3.334V61.333H119Zm0 0V58m-7.333 0H110v8.667h3.333V58h-1.666Zm0 0v-6m44 16.667v-1.334M148.333 76v-6M141 76v-2.667M133.667 70v-2m-7.334-2v-2M119 74v-1.333M111.667 70v-3.333M154 100v-2.9c0-1.16-.275-2.328-1.11-3.132-1.203-1.159-3.472-2.635-7.223-2.635-2.016 0-3.604.426-4.828 1M113.333 100v-2.9c0-1.16.275-2.328 1.11-3.132 1.204-1.159 3.472-2.635 7.224-2.635 2.065 0 3.68.447 4.916 1.043M133.667 80a3.667 3.667 0 1 0 0 7.334 3.667 3.667 0 0 0 0-7.334Zm0 10c-3.752 0-6.02 1.476-7.224 2.635-.835.804-1.11 1.972-1.11 3.132V97a3 3 0 0 0 3 3H139a3 3 0 0 0 3-3v-1.233c0-1.16-.275-2.328-1.11-3.132-1.203-1.16-3.472-2.635-7.223-2.635Zm12-8.667a3.667 3.667 0 1 0 0 7.334 3.667 3.667 0 0 0 0-7.334Zm-24 0a3.667 3.667 0 1 0 0 7.334 3.667 3.667 0 0 0 0-7.334Z" stroke="#0E2C59" stroke-linecap="round" stroke-linejoin="round"/><defs><linearGradient id="b" x1="256" y1="10" x2="148" y2="226" gradientUnits="userSpaceOnUse"><stop stop-color="#50FFD4"/><stop offset="1" stop-color="#39E5EE"/></linearGradient><linearGradient id="c" x1="166.5" y1="42" x2="221" y2="125" gradientUnits="userSpaceOnUse"><stop stop-color="#fff"/><stop offset="1" stop-color="#39E5EE" stop-opacity="0"/></linearGradient><filter id="a" x="0" y="0" width="267" height="192" filterUnits="userSpaceOnUse" color-interpolation-filters="sRGB"><feFlood flood-opacity="0" result="BackgroundImageFix"/><feColorMatrix in="SourceAlpha" values="0 0 0 0 0 0 0 0 0 0 0 0 0 0 0 0 0 0 127 0" result="hardAlpha"/><feOffset dy="21"/><feGaussianBlur stdDeviation="23"/><feComposite in2="hardAlpha" operator="out"/><feColorMatrix values="0 0 0 0 0.00784314 0 0 0 0 0.0666667 0 0 0 0 0.14902 0 0 0 0.25 0"/><feBlend in2="BackgroundImageFix" result="effect1_dropShadow_6714_400"/><feBlend in="SourceGraphic" in2="effect1_dropShadow_6714_400" result="shape"/></filter></defs></svg>