<svg width="191" height="31" fill="none" xmlns="http://www.w3.org/2000/svg"><g fill="#FFCD1A"><path d="M14.494 1.392c.45-1.382 2.405-1.382 2.854 0l3.04 9.359h9.839c1.453 0 2.057 1.859.881 2.713l-7.96 5.785 3.04 9.36c.45 1.382-1.133 2.531-2.308 1.677L15.921 24.5l-7.959 5.785c-1.175.854-2.757-.295-2.308-1.677l3.04-9.36-7.96-5.785c-1.176-.854-.572-2.713.881-2.713h9.84l3.04-9.36ZM54.284 1.392c.449-1.382 2.404-1.382 2.853 0l3.04 9.359h9.84c1.452 0 2.056 1.859.88 2.713l-7.96 5.785 3.041 9.36c.449 1.382-1.133 2.531-2.308 1.677L55.71 24.5l-7.959 5.785c-1.175.854-2.757-.295-2.308-1.677l3.04-9.36-7.96-5.785c-1.175-.854-.571-2.713.882-2.713h9.839l3.04-9.36ZM94.073 1.392c.45-1.382 2.405-1.382 2.854 0l3.04 9.359h9.839c1.453 0 2.057 1.859.881 2.713l-7.96 5.785 3.04 9.36c.449 1.382-1.132 2.531-2.308 1.677L95.5 24.502l-7.959 5.784c-1.175.854-2.757-.295-2.308-1.677l3.04-9.36-7.96-5.785c-1.176-.854-.572-2.713.882-2.713h9.838l3.04-9.36ZM133.863 1.392c.449-1.382 2.404-1.382 2.853 0l3.04 9.359h9.839c1.453 0 2.057 1.859.882 2.713l-7.96 5.785 3.04 9.36c.449 1.382-1.133 2.531-2.308 1.677l-7.96-5.784-7.959 5.784c-1.175.854-2.757-.295-2.308-1.677l3.04-9.36-7.96-5.785c-1.175-.854-.571-2.713.882-2.713h9.839l3.04-9.36ZM173.652 1.392c.449-1.382 2.405-1.382 2.854 0l3.04 9.359h9.839c1.452 0 2.057 1.859.881 2.713l-7.96 5.785 3.04 9.36c.449 1.382-1.133 2.531-2.308 1.677l-7.959-5.784-7.959 5.784c-1.176.854-2.757-.295-2.309-1.677l3.041-9.36-7.96-5.785c-1.176-.854-.572-2.713.881-2.713h9.839l3.04-9.36Z"/></g></svg>