<svg width="560" height="642" fill="none" xmlns="http://www.w3.org/2000/svg"><path d="M452.156 583.776c0 .604-.101 1.158-.297 1.665a3.789 3.789 0 0 1-2.166 2.194 4.617 4.617 0 0 1-1.719.314 4.646 4.646 0 0 1-1.697-.31 3.918 3.918 0 0 1-1.32-.868 3.885 3.885 0 0 1-.858-1.323 4.53 4.53 0 0 1-.307-1.672c.003-.59.105-1.139.307-1.643.202-.507.486-.95.858-1.332a3.973 3.973 0 0 1 1.32-.892 4.45 4.45 0 0 1 1.697-.323 4.508 4.508 0 0 1 1.719.323 3.864 3.864 0 0 1 2.166 2.216c.196.507.297 1.058.297 1.653m2.842 0c-.003-1.056-.173-2-.51-2.834a5.922 5.922 0 0 0-1.44-2.133 6.297 6.297 0 0 0-2.222-1.341c-.854-.312-1.809-.465-2.852-.468-1.043.003-1.994.157-2.852.468a6.302 6.302 0 0 0-2.221 1.341 5.91 5.91 0 0 0-1.44 2.133c-.334.834-.508 1.779-.511 2.834.003 1.055.177 2 .511 2.834a5.918 5.918 0 0 0 1.44 2.133 6.292 6.292 0 0 0 2.221 1.342c.858.311 1.809.464 2.852.467 1.043-.003 1.998-.157 2.852-.467a6.332 6.332 0 0 0 2.222-1.342 5.931 5.931 0 0 0 1.44-2.133c.337-.834.507-1.779.51-2.834Zm-21.702 6.463h2.881v-10.36h3.958v-2.567H429.34v2.567h3.956V590.241Zm-9.681-3.657c.828-.013 1.552-.139 2.175-.375.622-.24 1.14-.565 1.557-.988.415-.418.728-.906.934-1.461a5.157 5.157 0 0 0 .313-1.809c0-.649-.102-1.219-.311-1.777a4.188 4.188 0 0 0-.933-1.477c-.415-.428-.931-.763-1.557-1.01-.622-.244-1.347-.37-2.179-.373h-6.132v12.925h2.899v-3.657h3.233l.001.002Zm-3.232-6.536h3.232c.459.004.843.098 1.152.277.307.181.539.418.697.715.156.295.232.615.232.967s-.076.672-.228.963a1.729 1.729 0 0 1-.694.702c-.308.179-.695.267-1.159.274h-3.232v-3.899.001Zm-14.009-2.734h-3.344v.147l4.98 7.645v5.133h2.899v-5.133l5.201-7.645v-.147h-3.326l-3.289 5.132-3.121-5.132Zm-8.529 2.474c.337.003.632.065.872.182.246.117.446.271.605.465.158.191.275.403.353.63.077.227.117.456.121.68a1.855 1.855 0 0 1-.456 1.211 1.69 1.69 0 0 1-.594.431 2.103 2.103 0 0 1-.865.169h-3.307v-3.768h3.271Zm5.37 10.229-3.568-4.284c.619-.222 1.125-.479 1.517-.773.394-.291.699-.611.913-.96.217-.351.365-.719.452-1.111.084-.391.127-.797.127-1.219 0-.572-.105-1.121-.31-1.64a4.113 4.113 0 0 0-.92-1.391 4.374 4.374 0 0 0-1.505-.967c-.601-.234-1.292-.353-2.078-.36h-6.168v12.927h2.899v-4.247h2.099l3.326 4.247h3.214v-.222h.002Zm-15.07-3.342c-.198.194-.424.37-.681.521a4.806 4.806 0 0 1-.821.391 5.739 5.739 0 0 1-.864.244 4.48 4.48 0 0 1-.83.083c-.607-.003-1.14-.083-1.595-.237a3.614 3.614 0 0 1-1.155-.637 3.46 3.46 0 0 1-.768-.92 4.135 4.135 0 0 1-.43-1.09 5.139 5.139 0 0 1-.14-1.141c-.004-.381.04-.766.133-1.154.095-.391.245-.766.446-1.123a3.75 3.75 0 0 1 .786-.957 3.65 3.65 0 0 1 1.161-.671c.449-.163.97-.246 1.561-.249.35 0 .699.033 1.056.108.352.074.691.19 1.016.348.326.161.619.363.883.615l1.821-1.791a7.047 7.047 0 0 0-2.22-1.489 6.552 6.552 0 0 0-2.555-.507c-.953.006-1.809.136-2.558.391a6.269 6.269 0 0 0-1.958 1.058 6.213 6.213 0 0 0-1.372 1.546 6.953 6.953 0 0 0-.804 1.859 7.505 7.505 0 0 0-.257 1.996c.003.708.087 1.395.254 2.053.167.659.424 1.269.771 1.831a5.512 5.512 0 0 0 1.34 1.474c.546.422 1.198.752 1.957.986.76.237 1.636.356 2.627.359.97.004 1.876-.15 2.722-.459a6.42 6.42 0 0 0 2.277-1.443l-1.803-1.993v-.002Z" fill="url(#a)"/><path d="M453.461 593.129a2.784 2.784 0 0 0-.699-.599 2.51 2.51 0 0 0-.791-.305 4.297 4.297 0 0 0-.919-.086c-.267 0-.526.028-.776.081a2.965 2.965 0 0 0-.698.24 2.199 2.199 0 0 0-.562.395 1.744 1.744 0 0 0-.381.546c-.09.205-.138.438-.142.693 0 .302.04.559.129.774.088.216.212.395.372.539.162.145.349.261.566.35.215.088.45.158.704.206.255.048.519.086.794.109.439.034.766.12.983.256.217.136.324.34.319.607a.566.566 0 0 1-.165.401 1.04 1.04 0 0 1-.452.265 2.241 2.241 0 0 1-.676.095c-.166 0-.337-.017-.516-.053a2.577 2.577 0 0 1-.531-.164 2.379 2.379 0 0 1-.928-.692l-.857.891c.138.225.308.421.514.587.205.166.432.303.684.414.25.108.514.189.791.244.275.053.554.078.836.076.28 0 .554-.028.819-.081.266-.051.513-.131.743-.237.229-.108.431-.242.604-.403.174-.164.309-.357.407-.579.099-.224.147-.477.149-.763a2.09 2.09 0 0 0-.135-.776 1.669 1.669 0 0 0-.372-.567 2.096 2.096 0 0 0-.551-.385 3.231 3.231 0 0 0-.678-.237 5.312 5.312 0 0 0-.747-.116 6.23 6.23 0 0 1-.568-.069 1.842 1.842 0 0 1-.44-.125.645.645 0 0 1-.286-.22.594.594 0 0 1-.102-.359.552.552 0 0 1 .157-.379.977.977 0 0 1 .416-.243c.172-.056.365-.086.581-.086.172 0 .348.018.534.057.183.038.36.096.525.177.169.08.314.182.436.307l.904-.79.005.004Zm-13.285.467c.168 0 .313.032.434.09a.856.856 0 0 1 .3.231 1.057 1.057 0 0 1 .235.651.91.91 0 0 1-.225.601.861.861 0 0 1-.295.214 1.079 1.079 0 0 1-.429.084h-1.644v-1.871h1.624Zm2.668 5.082-1.772-2.128a2.91 2.91 0 0 0 .754-.383c.195-.146.347-.304.454-.478.107-.174.182-.358.225-.552.042-.194.064-.396.064-.605 0-.284-.052-.557-.154-.814a2.051 2.051 0 0 0-.457-.692 2.163 2.163 0 0 0-.748-.479 2.892 2.892 0 0 0-1.033-.179h-3.064v6.421h1.44v-2.11h1.044l1.652 2.11h1.597v-.11l-.002-.001Zm-11.8-1.211h-3.508v-1.293h3.184v-1.257h-3.184v-1.239h3.379v-1.312h-4.791v6.421h4.92v-1.32Zm-15.382-3.808h1.228c.335 0 .619.055.849.16.229.104.414.242.553.419.138.176.238.373.298.594.062.219.092.446.091.68 0 .186-.015.373-.052.559a2.094 2.094 0 0 1-.175.529 1.446 1.446 0 0 1-.84.749 2.135 2.135 0 0 1-.724.115h-1.228v-3.808.003Zm-1.422-1.293v6.421h2.648c.452 0 .853-.061 1.203-.177.349-.116.651-.279.905-.486.254-.207.462-.448.624-.722.165-.273.286-.57.364-.888a4.122 4.122 0 0 0-.003-1.957 3.195 3.195 0 0 0-.369-.866 2.688 2.688 0 0 0-.631-.695 2.902 2.902 0 0 0-.903-.461 3.967 3.967 0 0 0-1.19-.167h-2.648v-.002Zm-8.191 4.055h-2.225l1.117-2.606 1.108 2.606Zm1.015 2.366h1.56l-2.899-6.421h-1.569l-2.898 6.421h1.55l.471-1.101h3.314l.471 1.101Zm-13.61-5.192c.167 0 .314.031.434.089a.85.85 0 0 1 .3.231.97.97 0 0 1 .175.313.92.92 0 0 1-.165.939.836.836 0 0 1-.295.214c-.12.055-.264.083-.429.084h-1.644v-1.87h1.626-.002Zm2.668 5.081-1.772-2.128c.307-.109.559-.238.754-.383.196-.146.348-.303.454-.477.109-.174.182-.359.226-.553a2.92 2.92 0 0 0 .063-.605c0-.283-.052-.557-.153-.814a2.069 2.069 0 0 0-1.205-1.171 2.896 2.896 0 0 0-1.033-.179h-3.064v6.421h1.44v-2.109h1.043l1.652 2.109h1.597v-.109l-.002-.002Zm-14.938.11h1.431v-5.146h1.966v-1.276h-5.364v1.276h1.966v5.146h.001Z" fill="url(#b)"/><path fill-rule="evenodd" clip-rule="evenodd" d="M360.233 574.082c5.703 2.102 9.767 7.54 9.767 13.919 0 6.378-4.064 11.815-9.767 13.919v-2.321c4.476-1.983 7.597-6.431 7.597-11.598 0-5.168-3.121-9.616-7.597-11.598v-2.321Zm-2.273 9.064h.694v-2.292a8.137 8.137 0 0 0-3.655-.861c-.374 0-.742.026-1.102.074v4.414h.693v3.582h-.693v3.755h-.918v-3.755h-.694v-3.582h.694v-4.236c-3.49.887-6.07 4.024-6.07 7.756 0 2.571 1.225 4.858 3.128 6.324v-1.421h-.693v-3.583h.693v-4.774h.918v4.774h.693v3.583h-.693v2.035a8.114 8.114 0 0 0 4.625 1.049v-3.838h-.693v-3.583h.693v-3.831h.918v3.831h.694v3.583h-.694v3.72a8.097 8.097 0 0 0 5.645-4.113h3.66a11.421 11.421 0 0 1-6.61 6.791V604h-2.695v-4.764a11.609 11.609 0 0 1-3.001 0V604h-2.695v-5.452c-4.248-1.656-7.255-5.757-7.255-10.549s3.011-8.891 7.259-10.547V572h2.694v4.764a11.62 11.62 0 0 1 3.002 0V572h2.694v5.452a11.428 11.428 0 0 1 6.611 6.791h-3.66a8.072 8.072 0 0 0-2.574-2.848v1.751h.694v3.583h-.694v4.281h-.918v-4.281h-.693v-3.583h-.002Zm-8.193 18.772c-5.703-2.102-9.767-7.54-9.767-13.917s4.064-11.817 9.767-13.919v2.321c-4.476 1.981-7.597 6.429-7.597 11.598 0 5.169 3.121 9.615 7.597 11.598v2.321-.002Z" fill="url(#c)"/><path d="m144.441 596.163 5.181-8.376-5.252-8.186h3.478l3.714 5.773 3.408-5.773h3.407l-5.182 8.328 5.3 8.234h-3.478l-3.762-5.844-3.407 5.844h-3.407ZM165.211 596.163c-1.231 0-2.217-.3-2.958-.899-.741-.599-1.112-1.664-1.112-3.194v-5.111h-2.011v-2.531h2.011l.355-3.147h2.674v3.147h3.17v2.531h-3.17v5.135c0 .567.118.962.354 1.183.253.205.679.307 1.278.307h1.467v2.579h-2.058ZM169.152 596.163v-11.735h2.697l.284 2.2a4.849 4.849 0 0 1 1.727-1.798c.741-.457 1.609-.686 2.602-.686v3.194h-.851c-.663 0-1.254.102-1.775.308-.52.205-.93.559-1.23 1.064-.284.505-.426 1.207-.426 2.106v5.347h-3.028ZM181.79 596.447c-1.01 0-1.838-.158-2.485-.473-.646-.331-1.128-.765-1.443-1.302a3.427 3.427 0 0 1-.473-1.774c0-1.088.426-1.972 1.277-2.65.852-.678 2.13-1.017 3.833-1.017h2.981v-.284c0-.805-.228-1.396-.686-1.775-.457-.378-1.025-.568-1.703-.568-.615 0-1.152.15-1.609.45-.458.284-.741.71-.852 1.278h-2.957c.079-.852.362-1.593.851-2.224a4.84 4.84 0 0 1 1.941-1.444c.788-.347 1.672-.52 2.649-.52 1.672 0 2.989.418 3.952 1.254.962.836 1.443 2.019 1.443 3.549v7.216h-2.579l-.284-1.893a4.338 4.338 0 0 1-1.467 1.562c-.615.41-1.412.615-2.389.615Zm.686-2.366c.867 0 1.538-.284 2.011-.852.489-.568.796-1.27.922-2.105h-2.578c-.805 0-1.381.149-1.728.449-.347.284-.52.639-.52 1.065 0 .457.173.812.52 1.064.347.253.805.379 1.373.379ZM196.005 596.447c-1.104 0-2.09-.268-2.958-.804a5.772 5.772 0 0 1-2.058-2.201c-.505-.93-.757-1.987-.757-3.17 0-1.183.252-2.232.757-3.147.505-.931 1.191-1.656 2.058-2.177.868-.536 1.854-.804 2.958-.804.883 0 1.656.165 2.318.497a4.168 4.168 0 0 1 1.609 1.396v-6.909h3.029v17.035h-2.697l-.332-1.68c-.378.521-.883.978-1.514 1.372-.615.395-1.42.592-2.413.592Zm.639-2.65c.977 0 1.774-.323 2.389-.97.631-.662.947-1.506.947-2.532 0-1.025-.316-1.861-.947-2.508-.615-.662-1.412-.993-2.389-.993-.963 0-1.759.323-2.39.97-.631.647-.946 1.482-.946 2.508 0 1.025.315 1.869.946 2.531.631.663 1.427.994 2.39.994ZM210.958 596.447c-1.183 0-2.232-.252-3.147-.757a5.484 5.484 0 0 1-2.153-2.13c-.52-.914-.781-1.971-.781-3.17 0-1.214.253-2.295.758-3.241a5.603 5.603 0 0 1 2.129-2.201c.915-.536 1.987-.804 3.218-.804 1.151 0 2.169.252 3.052.757a5.335 5.335 0 0 1 2.058 2.082c.505.868.757 1.838.757 2.91 0 .174-.008.355-.023.544 0 .19-.008.387-.024.592h-8.92c.063.915.379 1.632.947 2.153.583.52 1.285.781 2.105.781.616 0 1.128-.134 1.538-.403.426-.283.742-.646.947-1.088h3.075a5.583 5.583 0 0 1-1.112 2.035 5.34 5.34 0 0 1-1.892 1.419c-.742.347-1.586.521-2.532.521Zm.024-9.843c-.742 0-1.396.213-1.964.639-.568.41-.931 1.041-1.088 1.893h5.844c-.048-.773-.332-1.388-.852-1.845-.521-.458-1.167-.687-1.94-.687ZM223.458 596.447c-1.041 0-1.956-.166-2.744-.497-.789-.347-1.42-.82-1.893-1.419a4.085 4.085 0 0 1-.852-2.083h3.052c.095.458.347.852.757 1.183.426.316.97.474 1.633.474.662 0 1.143-.134 1.443-.403.316-.268.473-.575.473-.922 0-.505-.221-.844-.662-1.018-.442-.189-1.057-.37-1.846-.544a19.993 19.993 0 0 1-1.538-.402 7.912 7.912 0 0 1-1.443-.592 3.33 3.33 0 0 1-1.041-.946c-.268-.394-.402-.875-.402-1.443 0-1.041.41-1.917 1.23-2.626.836-.71 2.003-1.065 3.502-1.065 1.388 0 2.492.323 3.312.97.836.647 1.333 1.538 1.491 2.673h-2.863c-.174-.867-.828-1.301-1.964-1.301-.568 0-1.009.111-1.325.331-.299.221-.449.497-.449.829 0 .347.228.623.686.828.457.205 1.065.394 1.822.567.82.19 1.569.403 2.247.639.694.221 1.246.56 1.657 1.018.41.441.615 1.08.615 1.916a3.297 3.297 0 0 1-.568 1.964c-.394.583-.962 1.041-1.704 1.372-.741.331-1.616.497-2.626.497ZM109.095 576.551a.338.338 0 0 1 .262-.551h6.398c.1 0 .194.044.258.12l9.856 11.65a.339.339 0 0 1 0 .436l-9.856 11.651a.336.336 0 0 1-.258.119h-6.398a.338.338 0 0 1-.262-.551l9.178-11.223a.339.339 0 0 0 0-.427l-9.178-11.224Z" fill="#fff"/><path fill-rule="evenodd" clip-rule="evenodd" d="M134.805 576.001c.285 0 .442.331.262.551l-8.065 9.863-3.71-4.553 4.856-5.741a.34.34 0 0 1 .259-.12h6.398Zm-11.603 18.009 4.946 5.848a.343.343 0 0 0 .259.119h6.398a.338.338 0 0 0 .262-.551l-8.112-9.92-3.753 4.504Z" fill="#fff"/><path fill-rule="evenodd" clip-rule="evenodd" d="M101.041 576a.507.507 0 0 0-.507.507V578.238h-3.047a.487.487 0 0 0 0 .974h3.047v1.708c0 .28.227.507.507.507h8.165c.438 0 .67-.517.379-.844l-3.912-4.39a.508.508 0 0 0-.294-.162.51.51 0 0 0-.174-.031h-4.164Zm1.858 9.648c0-.28.227-.506.507-.506h9.229c.151 0 .295.067.391.184l1.949 2.364a.507.507 0 0 1 0 .644l-1.949 2.364a.506.506 0 0 1-.391.184h-9.229a.506.506 0 0 1-.507-.506v-1.877h-3.046a.487.487 0 1 1 0-.974h3.046v-1.877ZM101.033 600a.507.507 0 0 1-.507-.507v-1.707h-3.039a.487.487 0 0 1 0-.974h3.039v-1.709c0-.279.227-.506.507-.506h8.01c.435 0 .668.512.381.84l-3.845 4.39a.506.506 0 0 1-.382.173h-4.164Z" fill="url(#d)"/><path d="M157.924 536.098a5.065 5.065 0 0 1-2.52-.644 4.824 4.824 0 0 1-1.82-1.778c-.448-.765-.672-1.629-.672-2.59 0-.952.224-1.806.672-2.562a4.795 4.795 0 0 1 1.82-1.792 5.065 5.065 0 0 1 2.52-.644c.924 0 1.764.215 2.52.644a4.697 4.697 0 0 1 1.806 1.792c.448.756.672 1.61.672 2.562 0 .961-.224 1.825-.672 2.59a4.723 4.723 0 0 1-1.806 1.778 5.065 5.065 0 0 1-2.52.644Zm0-1.75c.588 0 1.106-.131 1.554-.392a2.782 2.782 0 0 0 1.05-1.148c.252-.495.378-1.069.378-1.722s-.126-1.223-.378-1.708a2.685 2.685 0 0 0-1.05-1.134c-.448-.261-.966-.392-1.554-.392-.588 0-1.111.131-1.568.392a2.685 2.685 0 0 0-1.05 1.134c-.252.485-.378 1.055-.378 1.708s.126 1.227.378 1.722c.252.495.602.877 1.05 1.148.457.261.98.392 1.568.392ZM172.738 536h-1.96l-4.438-6.706V536h-1.96v-9.786h1.96l4.438 6.72v-6.72h1.96V536Zm7.481-5.012a2.198 2.198 0 0 1 1.358.826c.355.448.532.961.532 1.54 0 .523-.131.985-.392 1.386-.252.392-.621.7-1.106.924-.485.224-1.059.336-1.722.336h-4.214v-9.772h4.032c.663 0 1.232.107 1.708.322.485.215.849.513 1.092.896.252.383.378.817.378 1.302 0 .569-.154 1.045-.462 1.428-.299.383-.7.653-1.204.812Zm-3.584-.728h1.792c.467 0 .826-.103 1.078-.308.252-.215.378-.518.378-.91s-.126-.695-.378-.91c-.252-.215-.611-.322-1.078-.322h-1.792v2.45Zm1.974 4.144c.476 0 .845-.112 1.106-.336.271-.224.406-.541.406-.952 0-.42-.14-.747-.42-.98-.28-.243-.658-.364-1.134-.364h-1.932v2.632h1.974Zm9.598 1.694a5.065 5.065 0 0 1-2.52-.644 4.824 4.824 0 0 1-1.82-1.778c-.448-.765-.672-1.629-.672-2.59 0-.952.224-1.806.672-2.562a4.795 4.795 0 0 1 1.82-1.792 5.065 5.065 0 0 1 2.52-.644c.924 0 1.764.215 2.52.644a4.697 4.697 0 0 1 1.806 1.792c.448.756.672 1.61.672 2.562 0 .961-.224 1.825-.672 2.59a4.723 4.723 0 0 1-1.806 1.778 5.065 5.065 0 0 1-2.52.644Zm0-1.75c.588 0 1.106-.131 1.554-.392a2.782 2.782 0 0 0 1.05-1.148c.252-.495.378-1.069.378-1.722s-.126-1.223-.378-1.708a2.685 2.685 0 0 0-1.05-1.134c-.448-.261-.966-.392-1.554-.392-.588 0-1.111.131-1.568.392a2.685 2.685 0 0 0-1.05 1.134c-.252.485-.378 1.055-.378 1.708s.126 1.227.378 1.722c.252.495.602.877 1.05 1.148.457.261.98.392 1.568.392Zm12.448-.21h-3.892l-.644 1.862h-2.058l3.514-9.786h2.282l3.514 9.786h-2.072l-.644-1.862Zm-.532-1.568-1.414-4.088-1.414 4.088h2.828Zm9.602 3.43-2.156-3.808h-.924V536h-1.96v-9.772h3.668c.756 0 1.4.135 1.932.406.532.261.928.621 1.19 1.078.27.448.406.952.406 1.512 0 .644-.187 1.227-.56 1.75-.374.513-.929.868-1.666 1.064l2.338 3.962h-2.268Zm-3.08-5.278h1.638c.532 0 .928-.126 1.19-.378.261-.261.392-.621.392-1.078 0-.448-.131-.793-.392-1.036-.262-.252-.658-.378-1.19-.378h-1.638v2.87Zm10.425-4.494c1.026 0 1.927.201 2.702.602a4.232 4.232 0 0 1 1.806 1.722c.429.737.644 1.596.644 2.576s-.215 1.839-.644 2.576a4.283 4.283 0 0 1-1.806 1.694c-.775.401-1.676.602-2.702.602h-3.416v-9.772h3.416Zm-.07 8.106c1.026 0 1.82-.28 2.38-.84.56-.56.84-1.349.84-2.366 0-1.017-.28-1.811-.84-2.38-.56-.579-1.354-.868-2.38-.868h-1.386v6.454H217Zm8.649-8.106V536h-1.96v-9.772h1.96ZM235.943 536h-1.96l-4.438-6.706V536h-1.96v-9.786h1.96l4.438 6.72v-6.72h1.96V536Zm8.741-6.832a2.294 2.294 0 0 0-.924-.938c-.392-.215-.849-.322-1.372-.322-.579 0-1.092.131-1.54.392a2.707 2.707 0 0 0-1.05 1.12c-.252.485-.378 1.045-.378 1.68 0 .653.126 1.223.378 1.708.261.485.621.859 1.078 1.12.457.261.989.392 1.596.392.747 0 1.358-.196 1.834-.588.476-.401.789-.957.938-1.666h-3.36v-1.498h5.292v1.708a4.603 4.603 0 0 1-.84 1.89 4.793 4.793 0 0 1-1.666 1.4c-.672.345-1.428.518-2.268.518-.943 0-1.797-.21-2.562-.63a4.75 4.75 0 0 1-1.792-1.778c-.429-.756-.644-1.615-.644-2.576 0-.961.215-1.82.644-2.576a4.625 4.625 0 0 1 1.792-1.778c.765-.429 1.615-.644 2.548-.644 1.101 0 2.058.271 2.87.812.812.532 1.372 1.283 1.68 2.254h-2.254Zm13.928-2.94v1.582h-2.604V536h-1.96v-8.19h-2.604v-1.582h7.168Zm6.47 9.772-2.156-3.808h-.924V536h-1.96v-9.772h3.668c.756 0 1.4.135 1.932.406.532.261.929.621 1.19 1.078.271.448.406.952.406 1.512 0 .644-.186 1.227-.56 1.75-.373.513-.928.868-1.666 1.064L267.35 536h-2.268Zm-3.08-5.278h1.638c.532 0 .929-.126 1.19-.378.262-.261.392-.621.392-1.078 0-.448-.13-.793-.392-1.036-.261-.252-.658-.378-1.19-.378h-1.638v2.87Zm13.001 3.416h-3.892l-.644 1.862h-2.058l3.514-9.786h2.282l3.514 9.786h-2.072l-.644-1.862Zm-.532-1.568-1.414-4.088-1.414 4.088h2.828Zm7.977-6.342c1.027 0 1.928.201 2.702.602a4.232 4.232 0 0 1 1.806 1.722c.43.737.644 1.596.644 2.576s-.214 1.839-.644 2.576a4.283 4.283 0 0 1-1.806 1.694c-.774.401-1.675.602-2.702.602h-3.416v-9.772h3.416Zm-.07 8.106c1.027 0 1.82-.28 2.38-.84.56-.56.84-1.349.84-2.366 0-1.017-.28-1.811-.84-2.38-.56-.579-1.353-.868-2.38-.868h-1.386v6.454h1.386Zm12.724-8.106v1.582h-4.074v2.506h3.122v1.554h-3.122V536h-1.96v-9.772h6.034Zm3.349 0V536h-1.96v-9.772h1.96Zm11.923 0v1.582h-2.604V536h-1.96v-8.19h-2.604v-1.582h7.168Zm5.966 9.87a5.065 5.065 0 0 1-2.52-.644 4.824 4.824 0 0 1-1.82-1.778c-.448-.765-.672-1.629-.672-2.59 0-.952.224-1.806.672-2.562a4.795 4.795 0 0 1 1.82-1.792 5.065 5.065 0 0 1 2.52-.644c.924 0 1.764.215 2.52.644a4.697 4.697 0 0 1 1.806 1.792c.448.756.672 1.61.672 2.562 0 .961-.224 1.825-.672 2.59a4.723 4.723 0 0 1-1.806 1.778 5.065 5.065 0 0 1-2.52.644Zm0-1.75c.588 0 1.106-.131 1.554-.392a2.782 2.782 0 0 0 1.05-1.148c.252-.495.378-1.069.378-1.722s-.126-1.223-.378-1.708a2.685 2.685 0 0 0-1.05-1.134c-.448-.261-.966-.392-1.554-.392-.588 0-1.111.131-1.568.392a2.685 2.685 0 0 0-1.05 1.134c-.252.485-.378 1.055-.378 1.708s.126 1.227.378 1.722c.252.495.602.877 1.05 1.148.457.261.98.392 1.568.392Zm9.316-3.248c0-.961.215-1.82.644-2.576a4.65 4.65 0 0 1 1.778-1.778c.756-.429 1.601-.644 2.534-.644 1.092 0 2.049.28 2.87.84.821.56 1.395 1.335 1.722 2.324h-2.254c-.224-.467-.541-.817-.952-1.05-.401-.233-.868-.35-1.4-.35a2.89 2.89 0 0 0-1.526.406 2.735 2.735 0 0 0-1.036 1.12c-.243.485-.364 1.055-.364 1.708 0 .644.121 1.213.364 1.708.252.485.597.863 1.036 1.134.448.261.957.392 1.526.392.532 0 .999-.117 1.4-.35.411-.243.728-.597.952-1.064h2.254c-.327.999-.901 1.778-1.722 2.338-.812.551-1.769.826-2.87.826-.933 0-1.778-.21-2.534-.63a4.778 4.778 0 0 1-1.778-1.778c-.429-.756-.644-1.615-.644-2.576Zm16.262 4.9-2.156-3.808h-.924V536h-1.96v-9.772h3.668c.756 0 1.4.135 1.932.406.532.261.929.621 1.19 1.078.271.448.406.952.406 1.512 0 .644-.187 1.227-.56 1.75-.373.513-.929.868-1.666 1.064l2.338 3.962h-2.268Zm-3.08-5.278h1.638c.532 0 .929-.126 1.19-.378.261-.261.392-.621.392-1.078 0-.448-.131-.793-.392-1.036-.261-.252-.658-.378-1.19-.378h-1.638v2.87Zm14.779-4.494-3.304 6.37V536h-1.96v-3.402l-3.318-6.37h2.212l2.1 4.466 2.086-4.466h2.184Zm8.256 3.024c0 .523-.126 1.013-.378 1.47-.242.457-.63.826-1.162 1.106-.522.28-1.185.42-1.988.42h-1.638V536h-1.96v-9.772h3.598c.756 0 1.4.131 1.932.392s.929.621 1.19 1.078c.271.457.406.975.406 1.554Zm-3.612 1.414c.542 0 .943-.121 1.204-.364.262-.252.392-.602.392-1.05 0-.952-.532-1.428-1.596-1.428h-1.554v2.842h1.554Zm11.654-4.438v1.582h-2.604V536h-1.96v-8.19h-2.604v-1.582h7.168Zm5.966 9.87a5.065 5.065 0 0 1-2.52-.644 4.824 4.824 0 0 1-1.82-1.778c-.448-.765-.672-1.629-.672-2.59 0-.952.224-1.806.672-2.562a4.795 4.795 0 0 1 1.82-1.792 5.065 5.065 0 0 1 2.52-.644c.924 0 1.764.215 2.52.644a4.697 4.697 0 0 1 1.806 1.792c.448.756.672 1.61.672 2.562 0 .961-.224 1.825-.672 2.59a4.723 4.723 0 0 1-1.806 1.778 5.065 5.065 0 0 1-2.52.644Zm0-1.75c.588 0 1.106-.131 1.554-.392a2.782 2.782 0 0 0 1.05-1.148c.252-.495.378-1.069.378-1.722s-.126-1.223-.378-1.708a2.685 2.685 0 0 0-1.05-1.134c-.448-.261-.966-.392-1.554-.392-.588 0-1.111.131-1.568.392a2.685 2.685 0 0 0-1.05 1.134c-.252.485-.378 1.055-.378 1.708s.126 1.227.378 1.722c.252.495.602.877 1.05 1.148.457.261.98.392 1.568.392Zm18.57-8.12L390.867 536h-2.38l-3.584-9.772h2.1l2.688 7.77 2.674-7.77h2.086Zm3.135 0V536h-1.96v-9.772h1.96Zm7.929 7.91h-3.892l-.644 1.862h-2.058l3.514-9.786h2.282l3.514 9.786h-2.072l-.644-1.862Zm-.532-1.568-1.414-4.088-1.414 4.088h2.828Z" fill="#F0FBFF"/><path d="M.5.5h559v641H.5V.5ZM0 160.5h560M0 324h560M373.5 41v78m0 83v80.5M186.5 41v78m0 83v80.5M0 498.5h560" stroke="#4EFDD5"/><path d="M399.887 453.1c0-.961.215-1.82.644-2.576a4.657 4.657 0 0 1 1.778-1.778c.756-.429 1.601-.644 2.534-.644 1.092 0 2.049.28 2.87.84.822.56 1.396 1.335 1.722 2.324h-2.254c-.224-.467-.541-.817-.952-1.05-.401-.233-.868-.35-1.4-.35a2.89 2.89 0 0 0-1.526.406 2.741 2.741 0 0 0-1.036 1.12c-.242.485-.364 1.055-.364 1.708 0 .644.122 1.213.364 1.708.252.485.598.863 1.036 1.134.448.261.957.392 1.526.392.532 0 .999-.117 1.4-.35.411-.243.728-.597.952-1.064h2.254c-.326.999-.9 1.778-1.722 2.338-.812.551-1.768.826-2.87.826-.933 0-1.778-.21-2.534-.63a4.785 4.785 0 0 1-1.778-1.778c-.429-.756-.644-1.615-.644-2.576Zm16.263 4.9-2.156-3.808h-.924V458h-1.96v-9.772h3.668c.756 0 1.4.135 1.932.406.532.261.928.621 1.19 1.078.27.448.406.952.406 1.512 0 .644-.187 1.227-.56 1.75-.374.513-.929.868-1.666 1.064l2.338 3.962h-2.268Zm-3.08-5.278h1.638c.532 0 .928-.126 1.19-.378.261-.261.392-.621.392-1.078 0-.448-.131-.793-.392-1.036-.262-.252-.658-.378-1.19-.378h-1.638v2.87Zm14.778-4.494-3.304 6.37V458h-1.96v-3.402l-3.318-6.37h2.212l2.1 4.466 2.086-4.466h2.184Zm8.257 3.024c0 .523-.126 1.013-.378 1.47-.243.457-.63.826-1.162 1.106-.523.28-1.186.42-1.988.42h-1.638V458h-1.96v-9.772h3.598c.756 0 1.4.131 1.932.392s.928.621 1.19 1.078c.27.457.406.975.406 1.554Zm-3.612 1.414c.541 0 .942-.121 1.204-.364.261-.252.392-.602.392-1.05 0-.952-.532-1.428-1.596-1.428h-1.554v2.842h1.554Zm11.653-4.438v1.582h-2.604V458h-1.96v-8.19h-2.604v-1.582h7.168Zm5.966 9.87a5.07 5.07 0 0 1-2.52-.644 4.824 4.824 0 0 1-1.82-1.778c-.448-.765-.672-1.629-.672-2.59 0-.952.224-1.806.672-2.562a4.795 4.795 0 0 1 1.82-1.792 5.07 5.07 0 0 1 2.52-.644c.924 0 1.764.215 2.52.644a4.683 4.683 0 0 1 1.806 1.792c.448.756.672 1.61.672 2.562 0 .961-.224 1.825-.672 2.59a4.71 4.71 0 0 1-1.806 1.778 5.065 5.065 0 0 1-2.52.644Zm0-1.75c.588 0 1.106-.131 1.554-.392a2.782 2.782 0 0 0 1.05-1.148c.252-.495.378-1.069.378-1.722s-.126-1.223-.378-1.708a2.685 2.685 0 0 0-1.05-1.134c-.448-.261-.966-.392-1.554-.392-.588 0-1.11.131-1.568.392a2.685 2.685 0 0 0-1.05 1.134c-.252.485-.378 1.055-.378 1.708s.126 1.227.378 1.722c.252.495.602.877 1.05 1.148.458.261.98.392 1.568.392Z" fill="#F0FBFF"/><path d="M418.377 420c4.18 5.757 10.964 9.5 18.623 9.5 12.703 0 23-10.297 23-23 0-7.878-3.961-14.831-10-18.976M435 398v1a2 2 0 0 1-2 2h-18a6 6 0 0 1-6-6v-6a6 6 0 0 1 6-6h18a2 2 0 0 1 2 2v1m-13-4v-4m0 28v-4m0-33c1.364 0 2.701.119 4 .347M399 392c0-.674.029-1.341.086-2M422 415c-10.262 0-18.954-6.72-21.915-16M445 392c0 2.813-.505 5.508-1.429 8A23.06 23.06 0 0 1 429 413.915m-16-43.087c-6.433 2.738-11.364 8.322-13.21 15.172M432 371.282A23.075 23.075 0 0 1 443.571 384M422 364c-15.464 0-28 12.536-28 28s12.536 28 28 28 28-12.536 28-28-12.536-28-28-28Z" stroke="#4EFDD5" stroke-width="2" stroke-linecap="round"/><path d="M254.85 458.098a5.065 5.065 0 0 1-2.52-.644 4.816 4.816 0 0 1-1.82-1.778c-.448-.765-.672-1.629-.672-2.59 0-.952.224-1.806.672-2.562a4.788 4.788 0 0 1 1.82-1.792 5.065 5.065 0 0 1 2.52-.644c.924 0 1.764.215 2.52.644a4.697 4.697 0 0 1 1.806 1.792c.448.756.672 1.61.672 2.562 0 .961-.224 1.825-.672 2.59a4.723 4.723 0 0 1-1.806 1.778 5.07 5.07 0 0 1-2.52.644Zm0-1.75c.588 0 1.106-.131 1.554-.392a2.782 2.782 0 0 0 1.05-1.148c.252-.495.378-1.069.378-1.722s-.126-1.223-.378-1.708a2.685 2.685 0 0 0-1.05-1.134c-.448-.261-.966-.392-1.554-.392-.588 0-1.111.131-1.568.392a2.685 2.685 0 0 0-1.05 1.134c-.252.485-.378 1.055-.378 1.708s.126 1.227.378 1.722c.252.495.602.877 1.05 1.148.457.261.98.392 1.568.392Zm13.582-5.096c0 .523-.126 1.013-.378 1.47-.243.457-.63.826-1.162 1.106-.523.28-1.185.42-1.988.42h-1.638V458h-1.96v-9.772h3.598c.756 0 1.4.131 1.932.392s.929.621 1.19 1.078c.271.457.406.975.406 1.554Zm-3.612 1.414c.541 0 .943-.121 1.204-.364.261-.252.392-.602.392-1.05 0-.952-.532-1.428-1.596-1.428h-1.554v2.842h1.554Zm11.653-4.438v1.582h-2.604V458h-1.96v-8.19h-2.604v-1.582h7.168Zm3.391 0V458h-1.96v-9.772h1.96Zm6.472 9.87a5.065 5.065 0 0 1-2.52-.644 4.824 4.824 0 0 1-1.82-1.778c-.448-.765-.672-1.629-.672-2.59 0-.952.224-1.806.672-2.562a4.795 4.795 0 0 1 1.82-1.792 5.065 5.065 0 0 1 2.52-.644c.924 0 1.764.215 2.52.644a4.697 4.697 0 0 1 1.806 1.792c.448.756.672 1.61.672 2.562 0 .961-.224 1.825-.672 2.59a4.723 4.723 0 0 1-1.806 1.778 5.065 5.065 0 0 1-2.52.644Zm0-1.75c.588 0 1.106-.131 1.554-.392a2.782 2.782 0 0 0 1.05-1.148c.252-.495.378-1.069.378-1.722s-.126-1.223-.378-1.708a2.685 2.685 0 0 0-1.05-1.134c-.448-.261-.966-.392-1.554-.392-.588 0-1.111.131-1.568.392a2.685 2.685 0 0 0-1.05 1.134c-.252.485-.378 1.055-.378 1.708s.126 1.227.378 1.722c.252.495.602.877 1.05 1.148.457.261.98.392 1.568.392ZM301.15 458h-1.96l-4.438-6.706V458h-1.96v-9.786h1.96l4.438 6.72v-6.72h1.96V458Zm5.311.098c-.681 0-1.297-.117-1.848-.35a3.024 3.024 0 0 1-1.288-1.008c-.317-.439-.481-.957-.49-1.554h2.1c.028.401.168.719.42.952.261.233.616.35 1.064.35.457 0 .817-.107 1.078-.322a1.09 1.09 0 0 0 .392-.868.997.997 0 0 0-.266-.714 1.776 1.776 0 0 0-.672-.434 9.221 9.221 0 0 0-1.092-.364 13.148 13.148 0 0 1-1.554-.546 2.88 2.88 0 0 1-1.022-.826c-.28-.373-.42-.868-.42-1.484 0-.579.145-1.083.434-1.512.289-.429.695-.756 1.218-.98.523-.233 1.12-.35 1.792-.35 1.008 0 1.825.247 2.45.742.635.485.985 1.167 1.05 2.044h-2.156a1.091 1.091 0 0 0-.434-.826c-.261-.224-.611-.336-1.05-.336-.383 0-.691.098-.924.294-.224.196-.336.481-.336.854a.92.92 0 0 0 .252.658c.177.168.392.308.644.42.261.103.625.224 1.092.364.635.187 1.153.373 1.554.56.401.187.747.467 1.036.84.289.373.434.863.434 1.47 0 .523-.135 1.008-.406 1.456-.271.448-.667.807-1.19 1.078-.523.261-1.143.392-1.862.392Z" fill="#F0FBFF"/><path d="M270 430v-7m-12 7v-3m44-63v2m0 4v11m0 4v25.5h9a2 2 0 0 1 2 2v1.597c0 .574-.246 1.12-.677 1.5L296 430l-16.323-14.403a1.999 1.999 0 0 1-.677-1.5V412.5a2 2 0 0 1 2-2h9V381m0-13v8m-32 46v-7m0-4v-28.5h-9a2 2 0 0 1-2-2v-1.556c0-.598.267-1.164.729-1.544L264 364l16.271 13.4c.462.38.729.946.729 1.544v1.556a2 2 0 0 1-2 2h-9V403m0 13v-8" stroke="#4EFDD5" stroke-width="2" stroke-linecap="round" stroke-linejoin="round"/><path d="M108.758 458.098c-.681 0-1.297-.117-1.848-.35a3.024 3.024 0 0 1-1.288-1.008c-.317-.439-.481-.957-.49-1.554h2.1c.028.401.168.719.42.952.261.233.616.35 1.064.35.457 0 .817-.107 1.078-.322a1.09 1.09 0 0 0 .392-.868.997.997 0 0 0-.266-.714 1.776 1.776 0 0 0-.672-.434 9.221 9.221 0 0 0-1.092-.364 13.148 13.148 0 0 1-1.554-.546 2.88 2.88 0 0 1-1.022-.826c-.28-.373-.42-.868-.42-1.484 0-.579.145-1.083.434-1.512.289-.429.695-.756 1.218-.98.523-.233 1.12-.35 1.792-.35 1.008 0 1.825.247 2.45.742.635.485.985 1.167 1.05 2.044h-2.156a1.091 1.091 0 0 0-.434-.826c-.261-.224-.611-.336-1.05-.336-.383 0-.691.098-.924.294-.224.196-.336.481-.336.854a.92.92 0 0 0 .252.658c.177.168.392.308.644.42.261.103.625.224 1.092.364.635.187 1.153.373 1.554.56.401.187.747.467 1.036.84.289.373.434.863.434 1.47 0 .523-.135 1.008-.406 1.456-.271.448-.667.807-1.19 1.078-.523.261-1.143.392-1.862.392Zm11.807-9.87v1.582h-2.604V458h-1.96v-8.19h-2.604v-1.582h7.168Zm5.966 9.87a5.07 5.07 0 0 1-2.52-.644 4.824 4.824 0 0 1-1.82-1.778c-.448-.765-.672-1.629-.672-2.59 0-.952.224-1.806.672-2.562a4.795 4.795 0 0 1 1.82-1.792 5.07 5.07 0 0 1 2.52-.644c.924 0 1.764.215 2.52.644a4.683 4.683 0 0 1 1.806 1.792c.448.756.672 1.61.672 2.562 0 .961-.224 1.825-.672 2.59a4.71 4.71 0 0 1-1.806 1.778 5.065 5.065 0 0 1-2.52.644Zm0-1.75c.588 0 1.106-.131 1.554-.392a2.782 2.782 0 0 0 1.05-1.148c.252-.495.378-1.069.378-1.722s-.126-1.223-.378-1.708a2.685 2.685 0 0 0-1.05-1.134c-.448-.261-.966-.392-1.554-.392-.588 0-1.11.131-1.568.392a2.685 2.685 0 0 0-1.05 1.134c-.252.485-.378 1.055-.378 1.708s.126 1.227.378 1.722c.252.495.602.877 1.05 1.148.458.261.98.392 1.568.392Zm5.98-3.248c0-.961.215-1.82.644-2.576a4.657 4.657 0 0 1 1.778-1.778c.756-.429 1.601-.644 2.534-.644 1.092 0 2.049.28 2.87.84.822.56 1.396 1.335 1.722 2.324h-2.254c-.224-.467-.541-.817-.952-1.05-.401-.233-.868-.35-1.4-.35a2.89 2.89 0 0 0-1.526.406 2.741 2.741 0 0 0-1.036 1.12c-.242.485-.364 1.055-.364 1.708 0 .644.122 1.213.364 1.708.252.485.598.863 1.036 1.134.448.261.957.392 1.526.392.532 0 .999-.117 1.4-.35.411-.243.728-.597.952-1.064h2.254c-.326.999-.9 1.778-1.722 2.338-.812.551-1.768.826-2.87.826-.933 0-1.778-.21-2.534-.63a4.785 4.785 0 0 1-1.778-1.778c-.429-.756-.644-1.615-.644-2.576Zm16.739 4.9-3.556-4.354V458h-1.96v-9.772h1.96v4.382l3.556-4.382h2.366l-4.032 4.844 4.144 4.928h-2.478Zm7.141.098c-.682 0-1.298-.117-1.848-.35a3.018 3.018 0 0 1-1.288-1.008c-.318-.439-.481-.957-.49-1.554h2.1c.028.401.168.719.42.952.261.233.616.35 1.064.35.457 0 .816-.107 1.078-.322a1.09 1.09 0 0 0 .392-.868.997.997 0 0 0-.266-.714 1.792 1.792 0 0 0-.672-.434 9.35 9.35 0 0 0-1.092-.364 13.148 13.148 0 0 1-1.554-.546 2.88 2.88 0 0 1-1.022-.826c-.28-.373-.42-.868-.42-1.484 0-.579.144-1.083.434-1.512.289-.429.695-.756 1.218-.98.522-.233 1.12-.35 1.792-.35 1.008 0 1.824.247 2.45.742.634.485.984 1.167 1.05 2.044h-2.156a1.094 1.094 0 0 0-.434-.826c-.262-.224-.612-.336-1.05-.336-.383 0-.691.098-.924.294-.224.196-.336.481-.336.854a.92.92 0 0 0 .252.658c.177.168.392.308.644.42.261.103.625.224 1.092.364.634.187 1.152.373 1.554.56.401.187.746.467 1.036.84.289.373.434.863.434 1.47a2.77 2.77 0 0 1-.406 1.456c-.271.448-.668.807-1.19 1.078-.523.261-1.144.392-1.862.392Z" fill="#F0FBFF"/><path d="M163 369h-3v21h6v-21h-3Zm0 0v-5m-10 15h-3v15h6v-15h-3Zm0 0v-12m-10 18h-3v14h6v-14h-3Zm0 0v-11m-10 5h-3v12h6v-12h-3Zm0 0v-5m-10-3h-3v14h6v-14h-3Zm0 0v-7m-10 17h-3v17h6v-17h-3Zm0 0v-5m-10 0h-3v13h6v-13h-3Zm0 0v-9m60 25v-2m-10 13v-9m-10 9v-4m-10-5v-3m-10-3v-3m-10 15v-2m-10-4v-5m2.117 31.125a3 3 0 1 1-4.234-4.25 3 3 0 0 1 4.234 4.25Zm0 0 5.331 3.297m4.57-.642a3 3 0 1 1-4.57.642m4.57-.642a2.997 2.997 0 0 0-4.57.642m4.57-.642 5.964-6.56m0 0a3 3 0 1 1 4.591-.676m-4.591.676a3 3 0 0 0 4.591-.676m0 0 4.854 2.912m5.031 3.265a3 3 0 0 1-5.031-3.265m5.031 3.265a3 3 0 1 0-5.031-3.265m5.031 3.265 5.084 3.558m0 0a3 3 0 0 1 5.031.177m-5.031-.177a3 3 0 1 0 5.031.177m0 0 4.854-2.912m0 0a3 3 0 0 1 4.402-3.922m-4.402 3.922a3 3 0 1 0 4.402-3.922m0 0 6.342-8.244m0 0a3 3 0 1 1 3.658-4.756 3 3 0 0 1-3.658 4.756Z" stroke="#4EFDD5" stroke-width="2" stroke-linecap="round" stroke-linejoin="round"/><path d="M418.918 262.988a2.195 2.195 0 0 1 1.358.826c.355.448.532.961.532 1.54 0 .523-.13.985-.392 1.386-.252.392-.62.7-1.106.924-.485.224-1.059.336-1.722.336h-4.214v-9.772h4.032c.663 0 1.232.107 1.708.322.486.215.85.513 1.092.896.252.383.378.817.378 1.302 0 .569-.154 1.045-.462 1.428-.298.383-.7.653-1.204.812Zm-3.584-.728h1.792c.467 0 .826-.103 1.078-.308.252-.215.378-.518.378-.91s-.126-.695-.378-.91c-.252-.215-.611-.322-1.078-.322h-1.792v2.45Zm1.974 4.144c.476 0 .845-.112 1.106-.336.271-.224.406-.541.406-.952 0-.42-.14-.747-.42-.98-.28-.243-.658-.364-1.134-.364h-1.932v2.632h1.974Zm9.598 1.694a5.07 5.07 0 0 1-2.52-.644 4.824 4.824 0 0 1-1.82-1.778c-.448-.765-.672-1.629-.672-2.59 0-.952.224-1.806.672-2.562a4.795 4.795 0 0 1 1.82-1.792 5.07 5.07 0 0 1 2.52-.644c.924 0 1.764.215 2.52.644a4.683 4.683 0 0 1 1.806 1.792c.448.756.672 1.61.672 2.562 0 .961-.224 1.825-.672 2.59a4.71 4.71 0 0 1-1.806 1.778 5.065 5.065 0 0 1-2.52.644Zm0-1.75c.588 0 1.106-.131 1.554-.392a2.782 2.782 0 0 0 1.05-1.148c.252-.495.378-1.069.378-1.722s-.126-1.223-.378-1.708a2.685 2.685 0 0 0-1.05-1.134c-.448-.261-.966-.392-1.554-.392-.588 0-1.11.131-1.568.392a2.685 2.685 0 0 0-1.05 1.134c-.252.485-.378 1.055-.378 1.708s.126 1.227.378 1.722c.252.495.602.877 1.05 1.148.458.261.98.392 1.568.392Zm10.992 1.75a5.07 5.07 0 0 1-2.52-.644 4.824 4.824 0 0 1-1.82-1.778c-.448-.765-.672-1.629-.672-2.59 0-.952.224-1.806.672-2.562a4.795 4.795 0 0 1 1.82-1.792 5.07 5.07 0 0 1 2.52-.644c.924 0 1.764.215 2.52.644a4.683 4.683 0 0 1 1.806 1.792c.448.756.672 1.61.672 2.562 0 .961-.224 1.825-.672 2.59a4.71 4.71 0 0 1-1.806 1.778 5.065 5.065 0 0 1-2.52.644Zm0-1.75c.588 0 1.106-.131 1.554-.392a2.782 2.782 0 0 0 1.05-1.148c.252-.495.378-1.069.378-1.722s-.126-1.223-.378-1.708a2.685 2.685 0 0 0-1.05-1.134c-.448-.261-.966-.392-1.554-.392-.588 0-1.11.131-1.568.392a2.685 2.685 0 0 0-1.05 1.134c-.252.485-.378 1.055-.378 1.708s.126 1.227.378 1.722c.252.495.602.877 1.05 1.148.458.261.98.392 1.568.392Zm13.107-8.12v1.582h-2.604V268h-1.96v-8.19h-2.604v-1.582h7.168Zm4.804 9.87c-.682 0-1.298-.117-1.848-.35a3.018 3.018 0 0 1-1.288-1.008c-.318-.439-.481-.957-.49-1.554h2.1c.028.401.168.719.42.952.261.233.616.35 1.064.35.457 0 .816-.107 1.078-.322a1.09 1.09 0 0 0 .392-.868.997.997 0 0 0-.266-.714 1.792 1.792 0 0 0-.672-.434 9.35 9.35 0 0 0-1.092-.364 13.148 13.148 0 0 1-1.554-.546 2.88 2.88 0 0 1-1.022-.826c-.28-.373-.42-.868-.42-1.484 0-.579.144-1.083.434-1.512.289-.429.695-.756 1.218-.98.522-.233 1.12-.35 1.792-.35 1.008 0 1.824.247 2.45.742.634.485.984 1.167 1.05 2.044h-2.156a1.094 1.094 0 0 0-.434-.826c-.262-.224-.612-.336-1.05-.336-.383 0-.691.098-.924.294-.224.196-.336.481-.336.854a.92.92 0 0 0 .252.658c.177.168.392.308.644.42.261.103.625.224 1.092.364.634.187 1.152.373 1.554.56.401.187.746.467 1.036.84.289.373.434.863.434 1.47a2.77 2.77 0 0 1-.406 1.456c-.271.448-.668.807-1.19 1.078-.523.261-1.144.392-1.862.392Zm11.807-9.87v1.582h-2.604V268h-1.96v-8.19h-2.604v-1.582h7.168Zm6.47 9.772-2.156-3.808h-.924V268h-1.96v-9.772h3.668c.756 0 1.4.135 1.932.406.532.261.929.621 1.19 1.078.271.448.406.952.406 1.512 0 .644-.187 1.227-.56 1.75-.373.513-.929.868-1.666 1.064l2.338 3.962h-2.268Zm-3.08-5.278h1.638c.532 0 .929-.126 1.19-.378.261-.261.392-.621.392-1.078 0-.448-.131-.793-.392-1.036-.261-.252-.658-.378-1.19-.378h-1.638v2.87Zm13.001 3.416h-3.892l-.644 1.862h-2.058l3.514-9.786h2.282l3.514 9.786h-2.072l-.644-1.862Zm-.532-1.568-1.414-4.088-1.414 4.088h2.828Zm11.687-3.318c0 .523-.126 1.013-.378 1.47-.242.457-.63.826-1.162 1.106-.522.28-1.185.42-1.988.42h-1.638V268h-1.96v-9.772h3.598c.756 0 1.4.131 1.932.392s.929.621 1.19 1.078c.271.457.406.975.406 1.554Zm-3.612 1.414c.542 0 .943-.121 1.204-.364.262-.252.392-.602.392-1.05 0-.952-.532-1.428-1.596-1.428h-1.554v2.842h1.554Zm12.13-1.414c0 .523-.126 1.013-.378 1.47-.243.457-.63.826-1.162 1.106-.523.28-1.185.42-1.988.42h-1.638V268h-1.96v-9.772h3.598c.756 0 1.4.131 1.932.392s.929.621 1.19 1.078c.271.457.406.975.406 1.554Zm-3.612 1.414c.541 0 .943-.121 1.204-.364.261-.252.392-.602.392-1.05 0-.952-.532-1.428-1.596-1.428h-1.554v2.842h1.554Zm6.963-2.856v2.45h3.29v1.554h-3.29v2.59h3.71V268h-5.67v-9.786h5.67v1.596h-3.71Zm8.908-1.582c1.026 0 1.927.201 2.702.602a4.232 4.232 0 0 1 1.806 1.722c.429.737.644 1.596.644 2.576s-.215 1.839-.644 2.576a4.283 4.283 0 0 1-1.806 1.694c-.775.401-1.676.602-2.702.602h-3.416v-9.772h3.416Zm-.07 8.106c1.026 0 1.82-.28 2.38-.84.56-.56.84-1.349.84-2.366 0-1.017-.28-1.811-.84-2.38-.56-.579-1.354-.868-2.38-.868h-1.386v6.454h1.386Z" fill="#F0FBFF"/><path d="M417.126 237v-33.744h6.432V237h-6.432Zm-6.624-28.08v-5.664h12.576v5.664h-12.576Zm32.457 28.56c-2.656 0-5.056-.72-7.2-2.16-2.144-1.44-3.856-3.472-5.136-6.096-1.248-2.624-1.872-5.68-1.872-9.168 0-3.488.624-6.528 1.872-9.12 1.248-2.592 2.928-4.608 5.04-6.048 2.144-1.44 4.528-2.16 7.152-2.16 2.688 0 5.088.72 7.2 2.16 2.144 1.44 3.84 3.472 5.088 6.096 1.248 2.592 1.872 5.648 1.872 9.168 0 3.488-.624 6.544-1.872 9.168-1.248 2.592-2.928 4.608-5.04 6.048-2.112 1.408-4.48 2.112-7.104 2.112Zm-.096-5.904c1.536 0 2.864-.432 3.984-1.296 1.12-.864 1.984-2.144 2.592-3.84.64-1.696.96-3.808.96-6.336 0-2.528-.32-4.64-.96-6.336-.608-1.696-1.488-2.96-2.64-3.792-1.12-.864-2.448-1.296-3.984-1.296-1.504 0-2.816.432-3.936 1.296-1.12.832-2 2.096-2.64 3.792-.608 1.664-.912 3.76-.912 6.288 0 2.56.304 4.688.912 6.384.64 1.696 1.52 2.976 2.64 3.84 1.12.864 2.448 1.296 3.984 1.296Zm31.784 5.904c-2.656 0-5.056-.72-7.2-2.16-2.144-1.44-3.856-3.472-5.136-6.096-1.248-2.624-1.872-5.68-1.872-9.168 0-3.488.624-6.528 1.872-9.12 1.248-2.592 2.928-4.608 5.04-6.048 2.144-1.44 4.528-2.16 7.152-2.16 2.688 0 5.088.72 7.2 2.16 2.144 1.44 3.84 3.472 5.088 6.096 1.248 2.592 1.872 5.648 1.872 9.168 0 3.488-.624 6.544-1.872 9.168-1.248 2.592-2.928 4.608-5.04 6.048-2.112 1.408-4.48 2.112-7.104 2.112Zm-.096-5.904c1.536 0 2.864-.432 3.984-1.296 1.12-.864 1.984-2.144 2.592-3.84.64-1.696.96-3.808.96-6.336 0-2.528-.32-4.64-.96-6.336-.608-1.696-1.488-2.96-2.64-3.792-1.12-.864-2.448-1.296-3.984-1.296-1.504 0-2.816.432-3.936 1.296-1.12.832-2 2.096-2.64 3.792-.608 1.664-.912 3.76-.912 6.288 0 2.56.304 4.688.912 6.384.64 1.696 1.52 2.976 2.64 3.84 1.12.864 2.448 1.296 3.984 1.296Zm24.535-14.928a7.069 7.069 0 0 1-3.504-.912 7.043 7.043 0 0 1-2.496-2.544c-.608-1.056-.912-2.224-.912-3.504 0-1.312.304-2.48.912-3.504a6.786 6.786 0 0 1 2.496-2.448c1.056-.64 2.224-.96 3.504-.96 1.312 0 2.496.32 3.552.96 1.088.608 1.936 1.424 2.544 2.448.608 1.024.912 2.192.912 3.504 0 1.28-.32 2.448-.96 3.504a7.043 7.043 0 0 1-2.496 2.544c-1.024.608-2.208.912-3.552.912Zm0-4.56c.736 0 1.312-.224 1.728-.672.416-.448.624-1.024.624-1.728s-.224-1.28-.672-1.728c-.416-.448-.976-.672-1.68-.672-.672 0-1.216.224-1.632.672-.416.448-.624 1.024-.624 1.728s.208 1.28.624 1.728c.416.448.96.672 1.632.672Zm14.784 25.392c-1.28 0-2.448-.304-3.504-.912a7.594 7.594 0 0 1-2.544-2.496c-.608-1.056-.912-2.24-.912-3.552 0-1.312.304-2.48.912-3.504a7.306 7.306 0 0 1 2.496-2.448c1.056-.64 2.24-.96 3.552-.96 1.312 0 2.496.32 3.552.96a6.786 6.786 0 0 1 2.496 2.448c.64 1.024.96 2.192.96 3.504 0 1.312-.32 2.496-.96 3.552a7.17 7.17 0 0 1-2.496 2.496c-1.024.608-2.208.912-3.552.912Zm0-4.56c.704 0 1.28-.224 1.728-.672.448-.448.672-1.024.672-1.728 0-.672-.24-1.232-.72-1.68-.448-.448-1.008-.672-1.68-.672-.672 0-1.232.224-1.68.672-.416.448-.624 1.008-.624 1.68 0 .704.208 1.28.624 1.728.448.448 1.008.672 1.68.672ZM493.086 237l20.928-33.744h5.952L499.038 237h-5.952Z" fill="#4EFDD5"/><path d="M209.82 263.1c0-.961.215-1.82.644-2.576a4.65 4.65 0 0 1 1.778-1.778c.756-.429 1.601-.644 2.534-.644 1.092 0 2.049.28 2.87.84.821.56 1.395 1.335 1.722 2.324h-2.254c-.224-.467-.541-.817-.952-1.05-.401-.233-.868-.35-1.4-.35a2.89 2.89 0 0 0-1.526.406 2.735 2.735 0 0 0-1.036 1.12c-.243.485-.364 1.055-.364 1.708 0 .644.121 1.213.364 1.708.252.485.597.863 1.036 1.134.448.261.957.392 1.526.392.532 0 .999-.117 1.4-.35.411-.243.728-.597.952-1.064h2.254c-.327.999-.901 1.778-1.722 2.338-.812.551-1.769.826-2.87.826-.933 0-1.778-.21-2.534-.63a4.778 4.778 0 0 1-1.778-1.778c-.429-.756-.644-1.615-.644-2.576Zm15.758 4.998a5.07 5.07 0 0 1-2.52-.644 4.824 4.824 0 0 1-1.82-1.778c-.448-.765-.672-1.629-.672-2.59 0-.952.224-1.806.672-2.562a4.795 4.795 0 0 1 1.82-1.792 5.07 5.07 0 0 1 2.52-.644c.924 0 1.764.215 2.52.644a4.683 4.683 0 0 1 1.806 1.792c.448.756.672 1.61.672 2.562 0 .961-.224 1.825-.672 2.59a4.71 4.71 0 0 1-1.806 1.778 5.065 5.065 0 0 1-2.52.644Zm0-1.75c.588 0 1.106-.131 1.554-.392a2.782 2.782 0 0 0 1.05-1.148c.252-.495.378-1.069.378-1.722s-.126-1.223-.378-1.708a2.685 2.685 0 0 0-1.05-1.134c-.448-.261-.966-.392-1.554-.392-.588 0-1.11.131-1.568.392a2.685 2.685 0 0 0-1.05 1.134c-.252.485-.378 1.055-.378 1.708s.126 1.227.378 1.722c.252.495.602.877 1.05 1.148.458.261.98.392 1.568.392ZM240.392 268h-1.96l-4.438-6.706V268h-1.96v-9.786h1.96l4.438 6.72v-6.72h1.96V268Zm8.587-9.772v1.582h-2.604V268h-1.96v-8.19h-2.604v-1.582h7.168Zm6.47 9.772-2.156-3.808h-.924V268h-1.96v-9.772h3.668c.756 0 1.4.135 1.932.406.532.261.929.621 1.19 1.078.271.448.406.952.406 1.512 0 .644-.186 1.227-.56 1.75-.373.513-.928.868-1.666 1.064l2.338 3.962h-2.268Zm-3.08-5.278h1.638c.532 0 .929-.126 1.19-.378.262-.261.392-.621.392-1.078 0-.448-.13-.793-.392-1.036-.261-.252-.658-.378-1.19-.378h-1.638v2.87Zm11.545 5.376a5.065 5.065 0 0 1-2.52-.644 4.824 4.824 0 0 1-1.82-1.778c-.448-.765-.672-1.629-.672-2.59 0-.952.224-1.806.672-2.562a4.795 4.795 0 0 1 1.82-1.792 5.065 5.065 0 0 1 2.52-.644c.924 0 1.764.215 2.52.644a4.697 4.697 0 0 1 1.806 1.792c.448.756.672 1.61.672 2.562 0 .961-.224 1.825-.672 2.59a4.723 4.723 0 0 1-1.806 1.778 5.065 5.065 0 0 1-2.52.644Zm0-1.75c.588 0 1.106-.131 1.554-.392a2.782 2.782 0 0 0 1.05-1.148c.252-.495.378-1.069.378-1.722s-.126-1.223-.378-1.708a2.685 2.685 0 0 0-1.05-1.134c-.448-.261-.966-.392-1.554-.392-.588 0-1.111.131-1.568.392a2.685 2.685 0 0 0-1.05 1.134c-.252.485-.378 1.055-.378 1.708s.126 1.227.378 1.722c.252.495.602.877 1.05 1.148.457.261.98.392 1.568.392Zm8.416.098h3.22V268h-5.18v-9.772h1.96v8.218Zm12.338 1.652a5.065 5.065 0 0 1-2.52-.644 4.824 4.824 0 0 1-1.82-1.778c-.448-.765-.672-1.629-.672-2.59 0-.952.224-1.806.672-2.562a4.795 4.795 0 0 1 1.82-1.792 5.065 5.065 0 0 1 2.52-.644c.924 0 1.764.215 2.52.644a4.697 4.697 0 0 1 1.806 1.792c.448.756.672 1.61.672 2.562 0 .961-.224 1.825-.672 2.59a4.723 4.723 0 0 1-1.806 1.778 5.065 5.065 0 0 1-2.52.644Zm0-1.75c.588 0 1.106-.131 1.554-.392a2.782 2.782 0 0 0 1.05-1.148c.252-.495.378-1.069.378-1.722s-.126-1.223-.378-1.708a2.685 2.685 0 0 0-1.05-1.134c-.448-.261-.966-.392-1.554-.392-.588 0-1.111.131-1.568.392a2.685 2.685 0 0 0-1.05 1.134c-.252.485-.378 1.055-.378 1.708s.126 1.227.378 1.722c.252.495.602.877 1.05 1.148.457.261.98.392 1.568.392ZM296.164 268l-2.156-3.808h-.924V268h-1.96v-9.772h3.668c.756 0 1.4.135 1.932.406.532.261.929.621 1.19 1.078.271.448.406.952.406 1.512 0 .644-.186 1.227-.56 1.75-.373.513-.928.868-1.666 1.064l2.338 3.962h-2.268Zm-3.08-5.278h1.638c.532 0 .929-.126 1.19-.378.262-.261.392-.621.392-1.078 0-.448-.13-.793-.392-1.036-.261-.252-.658-.378-1.19-.378h-1.638v2.87Zm12.305-4.494V268h-1.96v-9.772h1.96ZM315.683 268h-1.96l-4.438-6.706V268h-1.96v-9.786h1.96l4.438 6.72v-6.72h1.96V268Zm10.715-9.772L322.814 268h-2.38l-3.584-9.772h2.1l2.688 7.77 2.674-7.77h2.086Zm3.135 1.582v2.45h3.29v1.554h-3.29v2.59h3.71V268h-5.67v-9.786h5.67v1.596h-3.71Zm8.866 8.288c-.682 0-1.298-.117-1.848-.35a3.018 3.018 0 0 1-1.288-1.008c-.318-.439-.481-.957-.49-1.554h2.1c.028.401.168.719.42.952.261.233.616.35 1.064.35.457 0 .816-.107 1.078-.322a1.09 1.09 0 0 0 .392-.868.997.997 0 0 0-.266-.714 1.792 1.792 0 0 0-.672-.434 9.35 9.35 0 0 0-1.092-.364 13.148 13.148 0 0 1-1.554-.546 2.88 2.88 0 0 1-1.022-.826c-.28-.373-.42-.868-.42-1.484 0-.579.144-1.083.434-1.512.289-.429.695-.756 1.218-.98.522-.233 1.12-.35 1.792-.35 1.008 0 1.824.247 2.45.742.634.485.984 1.167 1.05 2.044h-2.156a1.094 1.094 0 0 0-.434-.826c-.262-.224-.612-.336-1.05-.336-.383 0-.691.098-.924.294-.224.196-.336.481-.336.854a.92.92 0 0 0 .252.658c.177.168.392.308.644.42.261.103.625.224 1.092.364.634.187 1.152.373 1.554.56.401.187.746.467 1.036.84.289.373.434.863.434 1.47a2.77 2.77 0 0 1-.406 1.456c-.271.448-.668.807-1.19 1.078-.523.261-1.144.392-1.862.392Zm11.807-9.87v1.582h-2.604V268h-1.96v-8.19h-2.604v-1.582h7.168Zm-101.405 21v1.582h-4.074v2.506h3.122v1.554h-3.122V289h-1.96v-9.772h6.034Zm6.43 9.772-2.156-3.808h-.924V289h-1.96v-9.772h3.668c.756 0 1.4.135 1.932.406.532.261.928.621 1.19 1.078.27.448.406.952.406 1.512 0 .644-.187 1.227-.56 1.75-.374.513-.929.868-1.666 1.064l2.338 3.962h-2.268Zm-3.08-5.278h1.638c.532 0 .928-.126 1.19-.378.261-.261.392-.621.392-1.078 0-.448-.131-.793-.392-1.036-.262-.252-.658-.378-1.19-.378h-1.638v2.87Zm11.544 5.376a5.07 5.07 0 0 1-2.52-.644 4.824 4.824 0 0 1-1.82-1.778c-.448-.765-.672-1.629-.672-2.59 0-.952.224-1.806.672-2.562a4.795 4.795 0 0 1 1.82-1.792 5.07 5.07 0 0 1 2.52-.644c.924 0 1.764.215 2.52.644a4.683 4.683 0 0 1 1.806 1.792c.448.756.672 1.61.672 2.562 0 .961-.224 1.825-.672 2.59a4.71 4.71 0 0 1-1.806 1.778 5.065 5.065 0 0 1-2.52.644Zm0-1.75c.588 0 1.106-.131 1.554-.392a2.782 2.782 0 0 0 1.05-1.148c.252-.495.378-1.069.378-1.722s-.126-1.223-.378-1.708a2.685 2.685 0 0 0-1.05-1.134c-.448-.261-.966-.392-1.554-.392-.588 0-1.11.131-1.568.392a2.685 2.685 0 0 0-1.05 1.134c-.252.485-.378 1.055-.378 1.708s.126 1.227.378 1.722c.252.495.602.877 1.05 1.148.458.261.98.392 1.568.392Zm17.111-8.12V289h-1.96v-6.356L276.228 289h-1.484l-2.632-6.356V289h-1.96v-9.772h2.226l3.108 7.266 3.108-7.266h2.212Zm14.051 0L291.273 289h-2.38l-3.584-9.772h2.1l2.688 7.77 2.674-7.77h2.086Zm.699 4.872c0-.961.215-1.82.644-2.576a4.657 4.657 0 0 1 1.778-1.778c.756-.429 1.601-.644 2.534-.644 1.092 0 2.049.28 2.87.84.822.56 1.396 1.335 1.722 2.324h-2.254c-.224-.467-.541-.817-.952-1.05-.401-.233-.868-.35-1.4-.35a2.89 2.89 0 0 0-1.526.406 2.741 2.741 0 0 0-1.036 1.12c-.242.485-.364 1.055-.364 1.708 0 .644.122 1.213.364 1.708.252.485.598.863 1.036 1.134.448.261.957.392 1.526.392.532 0 .999-.117 1.4-.35.411-.243.728-.597.952-1.064h2.254c-.326.999-.9 1.778-1.722 2.338-.812.551-1.768.826-2.87.826-.933 0-1.778-.21-2.534-.63a4.785 4.785 0 0 1-1.778-1.778c-.429-.756-.644-1.615-.644-2.576Zm11.615-4.872h2.058l-1.512 3.528h-1.344l.798-3.528Zm6.837 9.87c-.681 0-1.297-.117-1.848-.35a3.024 3.024 0 0 1-1.288-1.008c-.317-.439-.481-.957-.49-1.554h2.1c.028.401.168.719.42.952.261.233.616.35 1.064.35.457 0 .817-.107 1.078-.322a1.09 1.09 0 0 0 .392-.868.997.997 0 0 0-.266-.714 1.776 1.776 0 0 0-.672-.434 9.221 9.221 0 0 0-1.092-.364 13.148 13.148 0 0 1-1.554-.546 2.88 2.88 0 0 1-1.022-.826c-.28-.373-.42-.868-.42-1.484 0-.579.145-1.083.434-1.512.289-.429.695-.756 1.218-.98.523-.233 1.12-.35 1.792-.35 1.008 0 1.825.247 2.45.742.635.485.985 1.167 1.05 2.044h-2.156a1.091 1.091 0 0 0-.434-.826c-.261-.224-.611-.336-1.05-.336-.383 0-.691.098-.924.294-.224.196-.336.481-.336.854a.92.92 0 0 0 .252.658c.177.168.392.308.644.42.261.103.625.224 1.092.364.635.187 1.153.373 1.554.56.401.187.747.467 1.036.84.289.373.434.863.434 1.47 0 .523-.135 1.008-.406 1.456-.271.448-.667.807-1.19 1.078-.523.261-1.143.392-1.862.392Z" fill="#F0FBFF"/><path d="M280.092 237.48c-2.656 0-5.056-.72-7.2-2.16-2.144-1.44-3.856-3.472-5.136-6.096-1.248-2.624-1.872-5.68-1.872-9.168 0-3.488.624-6.528 1.872-9.12 1.248-2.592 2.928-4.608 5.04-6.048 2.144-1.44 4.528-2.16 7.152-2.16 2.688 0 5.088.72 7.2 2.16 2.144 1.44 3.84 3.472 5.088 6.096 1.248 2.592 1.872 5.648 1.872 9.168 0 3.488-.624 6.544-1.872 9.168-1.248 2.592-2.928 4.608-5.04 6.048-2.112 1.408-4.48 2.112-7.104 2.112Zm-.096-5.904c1.536 0 2.864-.432 3.984-1.296 1.12-.864 1.984-2.144 2.592-3.84.64-1.696.96-3.808.96-6.336 0-2.528-.32-4.64-.96-6.336-.608-1.696-1.488-2.96-2.64-3.792-1.12-.864-2.448-1.296-3.984-1.296-1.504 0-2.816.432-3.936 1.296-1.12.832-2 2.096-2.64 3.792-.608 1.664-.912 3.76-.912 6.288 0 2.56.304 4.688.912 6.384.64 1.696 1.52 2.976 2.64 3.84 1.12.864 2.448 1.296 3.984 1.296Z" fill="#4EFDD5"/><path d="M59.189 259.488h-4.536v2.394c.196-.243.476-.439.84-.588a2.87 2.87 0 0 1 1.162-.238c.747 0 1.358.163 1.834.49.476.327.821.747 1.036 1.26.215.504.322 1.045.322 1.624 0 1.073-.308 1.937-.924 2.59-.607.653-1.475.98-2.604.98-1.064 0-1.913-.266-2.548-.798s-.994-1.227-1.078-2.086h1.904c.084.373.27.672.56.896.299.224.677.336 1.134.336.55 0 .966-.173 1.246-.518.28-.345.42-.803.42-1.372 0-.579-.145-1.017-.434-1.316-.28-.308-.695-.462-1.246-.462-.392 0-.719.098-.98.294a1.602 1.602 0 0 0-.56.784H52.86v-5.992h6.328v1.722Zm7.442.854c-.094-.392-.257-.686-.49-.882-.224-.196-.551-.294-.98-.294-.644 0-1.12.261-1.428.784-.299.513-.453 1.353-.462 2.52.224-.373.55-.663.98-.868.429-.215.896-.322 1.4-.322.606 0 1.143.131 1.61.392.466.261.83.644 1.092 1.148.261.495.392 1.092.392 1.792 0 .663-.136 1.255-.406 1.778a2.834 2.834 0 0 1-1.162 1.204c-.514.289-1.125.434-1.834.434-.971 0-1.736-.215-2.296-.644-.551-.429-.938-1.027-1.162-1.792-.215-.775-.322-1.727-.322-2.856 0-1.708.294-2.996.882-3.864.588-.877 1.516-1.316 2.786-1.316.98 0 1.74.266 2.282.798.541.532.854 1.195.938 1.988h-1.82Zm-1.428 2.548c-.495 0-.91.145-1.246.434-.336.289-.504.709-.504 1.26s.154.985.462 1.302c.317.317.76.476 1.33.476.504 0 .9-.154 1.19-.462.298-.308.448-.723.448-1.246 0-.541-.145-.971-.434-1.288-.28-.317-.696-.476-1.246-.476Zm19.305-4.662V268h-1.96v-6.356L79.93 268h-1.484l-2.632-6.356V268h-1.96v-9.772h2.226l3.108 7.266 3.108-7.266h2.212Zm6.474 9.87a5.066 5.066 0 0 1-2.52-.644 4.821 4.821 0 0 1-1.82-1.778c-.448-.765-.672-1.629-.672-2.59 0-.952.224-1.806.671-2.562a4.793 4.793 0 0 1 1.82-1.792 5.066 5.066 0 0 1 2.52-.644c.925 0 1.765.215 2.52.644a4.693 4.693 0 0 1 1.806 1.792c.448.756.672 1.61.672 2.562 0 .961-.224 1.825-.671 2.59a4.72 4.72 0 0 1-1.807 1.778 5.066 5.066 0 0 1-2.52.644Zm0-1.75c.588 0 1.106-.131 1.553-.392a2.782 2.782 0 0 0 1.05-1.148c.253-.495.379-1.069.379-1.722s-.126-1.223-.379-1.708a2.685 2.685 0 0 0-1.05-1.134c-.447-.261-.965-.392-1.553-.392s-1.111.131-1.569.392a2.685 2.685 0 0 0-1.05 1.134c-.251.485-.377 1.055-.377 1.708s.126 1.227.377 1.722c.252.495.603.877 1.05 1.148.458.261.98.392 1.569.392ZM105.796 268h-1.96l-4.438-6.706V268h-1.96v-9.786h1.96l4.438 6.72v-6.72h1.96V268Zm8.587-9.772v1.582h-2.604V268h-1.96v-8.19h-2.604v-1.582h7.168Zm9.536 0V268h-1.96v-4.158h-4.186V268h-1.96v-9.772h1.96v4.018h4.186v-4.018h1.96Zm5.303 9.87c-.681 0-1.297-.117-1.848-.35a3.024 3.024 0 0 1-1.288-1.008c-.317-.439-.481-.957-.49-1.554h2.1c.028.401.168.719.42.952.261.233.616.35 1.064.35.457 0 .817-.107 1.078-.322a1.09 1.09 0 0 0 .392-.868.997.997 0 0 0-.266-.714 1.776 1.776 0 0 0-.672-.434 9.221 9.221 0 0 0-1.092-.364 13.148 13.148 0 0 1-1.554-.546 2.88 2.88 0 0 1-1.022-.826c-.28-.373-.42-.868-.42-1.484 0-.579.145-1.083.434-1.512.289-.429.695-.756 1.218-.98.523-.233 1.12-.35 1.792-.35 1.008 0 1.825.247 2.45.742.635.485.985 1.167 1.05 2.044h-2.156a1.091 1.091 0 0 0-.434-.826c-.261-.224-.611-.336-1.05-.336-.383 0-.691.098-.924.294-.224.196-.336.481-.336.854a.92.92 0 0 0 .252.658c.177.168.392.308.644.42.261.103.625.224 1.092.364.635.187 1.153.373 1.554.56.401.187.747.467 1.036.84.289.373.434.863.434 1.47 0 .523-.135 1.008-.406 1.456-.271.448-.667.807-1.19 1.078-.523.261-1.143.392-1.862.392Zm-96.853 14.154c0 .523-.126 1.013-.378 1.47-.242.457-.63.826-1.162 1.106-.522.28-1.185.42-1.988.42h-1.638V289h-1.96v-9.772h3.598c.756 0 1.4.131 1.932.392s.929.621 1.19 1.078c.271.457.406.975.406 1.554Zm-3.612 1.414c.542 0 .943-.121 1.204-.364.262-.252.392-.602.392-1.05 0-.952-.532-1.428-1.596-1.428h-1.554v2.842h1.554ZM38.801 289l-2.156-3.808h-.924V289h-1.96v-9.772h3.668c.756 0 1.4.135 1.932.406.532.261.929.621 1.19 1.078.27.448.406.952.406 1.512a2.94 2.94 0 0 1-.56 1.75c-.373.513-.929.868-1.666 1.064L41.069 289H38.8Zm-3.08-5.278h1.638c.532 0 .929-.126 1.19-.378.261-.261.392-.621.392-1.078 0-.448-.13-.793-.392-1.036-.261-.252-.658-.378-1.19-.378H35.72v2.87Zm11.545 5.376a5.066 5.066 0 0 1-2.52-.644 4.82 4.82 0 0 1-1.82-1.778c-.448-.765-.672-1.629-.672-2.59 0-.952.224-1.806.672-2.562a4.792 4.792 0 0 1 1.82-1.792 5.066 5.066 0 0 1 2.52-.644c.924 0 1.764.215 2.52.644a4.693 4.693 0 0 1 1.806 1.792c.448.756.672 1.61.672 2.562 0 .961-.224 1.825-.672 2.59a4.72 4.72 0 0 1-1.806 1.778 5.067 5.067 0 0 1-2.52.644Zm0-1.75c.588 0 1.106-.131 1.554-.392a2.782 2.782 0 0 0 1.05-1.148c.252-.495.378-1.069.378-1.722s-.126-1.223-.378-1.708a2.685 2.685 0 0 0-1.05-1.134c-.448-.261-.966-.392-1.554-.392-.588 0-1.111.131-1.568.392a2.685 2.685 0 0 0-1.05 1.134c-.252.485-.378 1.055-.378 1.708s.126 1.227.378 1.722c.252.495.602.877 1.05 1.148.457.261.98.392 1.568.392Zm12.49-8.12v1.582h-4.074v2.506h3.122v1.554h-3.122V289h-1.96v-9.772h6.034Zm3.35 0V289h-1.96v-9.772h1.96Zm8.586 0v1.582h-2.604V289h-1.96v-8.19h-2.604v-1.582h7.168Zm7.422 7.91h-3.892L74.578 289H72.52l3.514-9.786h2.282L81.83 289h-2.072l-.644-1.862Zm-.532-1.568-1.414-4.088-1.414 4.088h2.828Zm10.106-1.582c.55.103 1.003.378 1.358.826.354.448.532.961.532 1.54 0 .523-.13.985-.392 1.386-.252.392-.62.7-1.106.924-.486.224-1.06.336-1.722.336h-4.214v-9.772h4.032c.662 0 1.232.107 1.708.322.485.215.85.513 1.092.896.252.383.378.817.378 1.302 0 .569-.154 1.045-.462 1.428-.299.383-.7.653-1.204.812Zm-3.584-.728h1.792c.466 0 .826-.103 1.078-.308.252-.215.378-.518.378-.91s-.126-.695-.378-.91c-.252-.215-.612-.322-1.078-.322h-1.792v2.45Zm1.974 4.144c.476 0 .844-.112 1.106-.336.27-.224.406-.541.406-.952 0-.42-.14-.747-.42-.98-.28-.243-.658-.364-1.134-.364h-1.932v2.632h1.974Zm7.022.042h3.22V289h-5.18v-9.772h1.96v8.218Zm6.426-6.636v2.45h3.29v1.554h-3.29v2.59h3.71V289h-5.67v-9.786h5.67v1.596h-3.71Zm12.201 8.288c-.682 0-1.298-.117-1.848-.35a3.018 3.018 0 0 1-1.288-1.008c-.318-.439-.481-.957-.49-1.554h2.1c.028.401.168.719.42.952.261.233.616.35 1.064.35.457 0 .816-.107 1.078-.322a1.09 1.09 0 0 0 .392-.868.997.997 0 0 0-.266-.714 1.792 1.792 0 0 0-.672-.434 9.35 9.35 0 0 0-1.092-.364 13.148 13.148 0 0 1-1.554-.546 2.88 2.88 0 0 1-1.022-.826c-.28-.373-.42-.868-.42-1.484 0-.579.144-1.083.434-1.512.289-.429.695-.756 1.218-.98.522-.233 1.12-.35 1.792-.35 1.008 0 1.824.247 2.45.742.634.485.984 1.167 1.05 2.044h-2.156a1.094 1.094 0 0 0-.434-.826c-.262-.224-.612-.336-1.05-.336-.383 0-.691.098-.924.294-.224.196-.336.481-.336.854a.92.92 0 0 0 .252.658c.177.168.392.308.644.42.261.103.625.224 1.092.364.634.187 1.152.373 1.554.56.401.187.746.467 1.036.84.289.373.434.863.434 1.47a2.77 2.77 0 0 1-.406 1.456c-.271.448-.668.807-1.19 1.078-.523.261-1.144.392-1.862.392Zm11.807-9.87v1.582h-2.604V289h-1.96v-8.19h-2.604v-1.582h7.168Zm6.47 9.772-2.156-3.808h-.924V289h-1.96v-9.772h3.668c.756 0 1.4.135 1.932.406.532.261.929.621 1.19 1.078.271.448.406.952.406 1.512 0 .644-.187 1.227-.56 1.75-.373.513-.929.868-1.666 1.064l2.338 3.962h-2.268Zm-3.08-5.278h1.638c.532 0 .929-.126 1.19-.378.261-.261.392-.621.392-1.078 0-.448-.131-.793-.392-1.036-.261-.252-.658-.378-1.19-.378h-1.638v2.87Zm8.969-2.912v2.45h3.29v1.554h-3.29v2.59h3.71V289h-5.67v-9.786h5.67v1.596h-3.71Zm11.483 6.328h-3.892L143.84 289h-2.058l3.514-9.786h2.282l3.514 9.786h-2.072l-.644-1.862Zm-.532-1.568-1.414-4.088-1.414 4.088h2.828Zm10.077 3.43-3.556-4.354V289h-1.96v-9.772h1.96v4.382l3.556-4.382h2.366l-4.032 4.844 4.144 4.928h-2.478Z" fill="#F0FBFF"/><path d="M43.126 237v-33.744h6.432V237h-6.432Zm-6.624-28.08v-5.664h12.576v5.664H36.502Zm32.457 28.56c-2.656 0-5.056-.72-7.2-2.16-2.144-1.44-3.856-3.472-5.136-6.096-1.248-2.624-1.872-5.68-1.872-9.168 0-3.488.624-6.528 1.872-9.12 1.248-2.592 2.928-4.608 5.04-6.048 2.144-1.44 4.528-2.16 7.152-2.16 2.688 0 5.088.72 7.2 2.16 2.144 1.44 3.84 3.472 5.088 6.096 1.248 2.592 1.872 5.648 1.872 9.168 0 3.488-.624 6.544-1.872 9.168-1.248 2.592-2.928 4.608-5.04 6.048-2.112 1.408-4.48 2.112-7.104 2.112Zm-.096-5.904c1.536 0 2.864-.432 3.984-1.296 1.12-.864 1.984-2.144 2.592-3.84.64-1.696.96-3.808.96-6.336 0-2.528-.32-4.64-.96-6.336-.608-1.696-1.488-2.96-2.64-3.792-1.12-.864-2.448-1.296-3.984-1.296-1.504 0-2.816.432-3.936 1.296-1.12.832-2 2.096-2.64 3.792-.608 1.664-.912 3.76-.912 6.288 0 2.56.304 4.688.912 6.384.64 1.696 1.52 2.976 2.64 3.84 1.12.864 2.448 1.296 3.984 1.296Zm31.784 5.904c-2.656 0-5.056-.72-7.2-2.16-2.144-1.44-3.856-3.472-5.136-6.096-1.248-2.624-1.872-5.68-1.872-9.168 0-3.488.624-6.528 1.872-9.12 1.248-2.592 2.928-4.608 5.04-6.048 2.144-1.44 4.528-2.16 7.152-2.16 2.688 0 5.088.72 7.2 2.16 2.144 1.44 3.84 3.472 5.088 6.096 1.248 2.592 1.872 5.648 1.872 9.168 0 3.488-.624 6.544-1.872 9.168-1.248 2.592-2.928 4.608-5.04 6.048-2.112 1.408-4.48 2.112-7.104 2.112Zm-.096-5.904c1.536 0 2.864-.432 3.984-1.296 1.12-.864 1.984-2.144 2.592-3.84.64-1.696.96-3.808.96-6.336 0-2.528-.32-4.64-.96-6.336-.608-1.696-1.488-2.96-2.64-3.792-1.12-.864-2.448-1.296-3.984-1.296-1.504 0-2.816.432-3.936 1.296-1.12.832-2 2.096-2.64 3.792-.608 1.664-.912 3.76-.912 6.288 0 2.56.304 4.688.912 6.384.64 1.696 1.52 2.976 2.64 3.84 1.12.864 2.448 1.296 3.984 1.296Zm24.535-14.928a7.069 7.069 0 0 1-3.504-.912 7.043 7.043 0 0 1-2.496-2.544c-.608-1.056-.912-2.224-.912-3.504 0-1.312.304-2.48.912-3.504a6.786 6.786 0 0 1 2.496-2.448c1.056-.64 2.224-.96 3.504-.96 1.312 0 2.496.32 3.552.96 1.088.608 1.936 1.424 2.544 2.448.608 1.024.912 2.192.912 3.504 0 1.28-.32 2.448-.96 3.504a7.043 7.043 0 0 1-2.496 2.544c-1.024.608-2.208.912-3.552.912Zm0-4.56c.736 0 1.312-.224 1.728-.672.416-.448.624-1.024.624-1.728s-.224-1.28-.672-1.728c-.416-.448-.976-.672-1.68-.672-.672 0-1.216.224-1.632.672-.416.448-.624 1.024-.624 1.728s.208 1.28.624 1.728c.416.448.96.672 1.632.672Zm14.784 25.392c-1.28 0-2.448-.304-3.504-.912a7.594 7.594 0 0 1-2.544-2.496c-.608-1.056-.912-2.24-.912-3.552 0-1.312.304-2.48.912-3.504a7.306 7.306 0 0 1 2.496-2.448c1.056-.64 2.24-.96 3.552-.96 1.312 0 2.496.32 3.552.96a6.786 6.786 0 0 1 2.496 2.448c.64 1.024.96 2.192.96 3.504 0 1.312-.32 2.496-.96 3.552a7.17 7.17 0 0 1-2.496 2.496c-1.024.608-2.208.912-3.552.912Zm0-4.56c.704 0 1.28-.224 1.728-.672.448-.448.672-1.024.672-1.728 0-.672-.24-1.232-.72-1.68-.448-.448-1.008-.672-1.68-.672-.672 0-1.232.224-1.68.672-.416.448-.624 1.008-.624 1.68 0 .704.208 1.28.624 1.728.448.448 1.008.672 1.68.672ZM119.086 237l20.928-33.744h5.952L125.038 237h-5.952Z" fill="#4EFDD5"/><path d="M430.105 94.228V104h-1.96v-6.356L425.527 104h-1.484l-2.632-6.356V104h-1.96v-9.772h2.226l3.108 7.266 3.108-7.266h2.212Zm6.978 9.772-2.156-3.808h-.924V104h-1.96v-9.772h3.668c.756 0 1.4.135 1.932.406.532.261.929.62 1.19 1.078.271.448.406.952.406 1.512 0 .644-.187 1.227-.56 1.75-.373.513-.929.868-1.666 1.064l2.338 3.962h-2.268Zm-3.08-5.278h1.638c.532 0 .929-.126 1.19-.378.261-.261.392-.62.392-1.078 0-.448-.131-.793-.392-1.036-.261-.252-.658-.378-1.19-.378h-1.638v2.87ZM446.052 104l-2.156-3.808h-.924V104h-1.96v-9.772h3.668c.756 0 1.4.135 1.932.406.532.261.929.62 1.19 1.078.271.448.406.952.406 1.512 0 .644-.187 1.227-.56 1.75-.373.513-.929.868-1.666 1.064L448.32 104h-2.268Zm-3.08-5.278h1.638c.532 0 .929-.126 1.19-.378.261-.261.392-.62.392-1.078 0-.448-.131-.793-.392-1.036-.261-.252-.658-.378-1.19-.378h-1.638v2.87Zm17.149-1.554a2.294 2.294 0 0 0-.924-.938c-.392-.215-.85-.322-1.372-.322-.579 0-1.092.13-1.54.392a2.707 2.707 0 0 0-1.05 1.12c-.252.485-.378 1.045-.378 1.68 0 .653.126 1.223.378 1.708.261.485.62.859 1.078 1.12.457.261.989.392 1.596.392.746 0 1.358-.196 1.834-.588.476-.401.788-.957.938-1.666h-3.36v-1.498h5.292v1.708a4.603 4.603 0 0 1-.84 1.89 4.802 4.802 0 0 1-1.666 1.4c-.672.345-1.428.518-2.268.518-.943 0-1.797-.21-2.562-.63a4.743 4.743 0 0 1-1.792-1.778c-.43-.756-.644-1.615-.644-2.576 0-.961.214-1.82.644-2.576a4.616 4.616 0 0 1 1.792-1.778c.765-.43 1.614-.644 2.548-.644 1.101 0 2.058.27 2.87.812.812.532 1.372 1.283 1.68 2.254h-2.254Zm8.982 6.832-2.156-3.808h-.924V104h-1.96v-9.772h3.668c.756 0 1.4.135 1.932.406.532.261.928.62 1.19 1.078.27.448.406.952.406 1.512 0 .644-.187 1.227-.56 1.75-.374.513-.929.868-1.666 1.064l2.338 3.962h-2.268Zm-3.08-5.278h1.638c.532 0 .928-.126 1.19-.378.261-.261.392-.62.392-1.078 0-.448-.131-.793-.392-1.036-.262-.252-.658-.378-1.19-.378h-1.638v2.87Zm11.544 5.376a5.07 5.07 0 0 1-2.52-.644 4.824 4.824 0 0 1-1.82-1.778c-.448-.765-.672-1.629-.672-2.59 0-.952.224-1.806.672-2.562a4.795 4.795 0 0 1 1.82-1.792 5.067 5.067 0 0 1 2.52-.644c.924 0 1.764.215 2.52.644a4.683 4.683 0 0 1 1.806 1.792c.448.756.672 1.61.672 2.562 0 .961-.224 1.825-.672 2.59a4.71 4.71 0 0 1-1.806 1.778 5.065 5.065 0 0 1-2.52.644Zm0-1.75c.588 0 1.106-.131 1.554-.392a2.782 2.782 0 0 0 1.05-1.148c.252-.495.378-1.069.378-1.722s-.126-1.223-.378-1.708a2.689 2.689 0 0 0-1.05-1.134c-.448-.261-.966-.392-1.554-.392-.588 0-1.11.13-1.568.392-.448.261-.798.64-1.05 1.134-.252.485-.378 1.055-.378 1.708s.126 1.227.378 1.722c.252.495.602.877 1.05 1.148.458.261.98.392 1.568.392Zm19.519-8.12-2.73 9.772h-2.31l-1.834-6.958-1.918 6.958-2.296.014-2.632-9.786h2.1l1.722 7.588 1.988-7.588h2.184l1.876 7.546 1.736-7.546h2.114Zm7.929 0v1.582h-2.604V104h-1.96v-8.19h-2.604v-1.582h7.168Zm9.536 0V104h-1.96v-4.158h-4.186V104h-1.96v-9.772h1.96v4.018h4.186v-4.018h1.96Zm-100.816 21v1.582h-2.604V125h-1.96v-8.19h-2.604v-1.582h7.168Zm9.536 0V125h-1.96v-4.158h-4.186V125h-1.96v-9.772h1.96v4.018h4.186v-4.018h1.96Zm3.889 1.582v2.45h3.29v1.554h-3.29v2.59h3.71V125h-5.67v-9.786h5.67v1.596h-3.71Zm10.787 6.636h3.22V125h-5.18v-9.772h1.96v8.218Zm10.458-.308h-3.892l-.644 1.862h-2.058l3.514-9.786h2.282l3.514 9.786h-2.072l-.644-1.862Zm-.532-1.568-1.414-4.088-1.414 4.088h2.828Zm7.936 3.528c-.682 0-1.298-.117-1.848-.35a3.018 3.018 0 0 1-1.288-1.008c-.318-.439-.481-.957-.49-1.554h2.1c.028.401.168.719.42.952.261.233.616.35 1.064.35.457 0 .816-.107 1.078-.322a1.09 1.09 0 0 0 .392-.868.997.997 0 0 0-.266-.714 1.792 1.792 0 0 0-.672-.434 9.35 9.35 0 0 0-1.092-.364 13.148 13.148 0 0 1-1.554-.546 2.88 2.88 0 0 1-1.022-.826c-.28-.373-.42-.868-.42-1.484 0-.579.144-1.083.434-1.512.289-.429.695-.756 1.218-.98.522-.233 1.12-.35 1.792-.35 1.008 0 1.824.247 2.45.742.634.485.984 1.167 1.05 2.044h-2.156a1.094 1.094 0 0 0-.434-.826c-.262-.224-.612-.336-1.05-.336-.383 0-.691.098-.924.294-.224.196-.336.481-.336.854a.92.92 0 0 0 .252.658c.177.168.392.308.644.42.261.103.625.224 1.092.364.634.187 1.152.373 1.554.56.401.187.746.467 1.036.84.289.373.434.863.434 1.47a2.77 2.77 0 0 1-.406 1.456c-.271.448-.668.807-1.19 1.078-.523.261-1.144.392-1.862.392Zm11.807-9.87v1.582h-2.604V125h-1.96v-8.19h-2.604v-1.582h7.168Zm4.458 7.784v-1.54l4.578-6.552h2.282v6.384h1.232v1.708h-1.232V125h-1.96v-1.988h-4.9Zm5.026-5.992-2.87 4.284h2.87v-4.284Zm15.644-1.792-3.304 6.37V125h-1.96v-3.402l-3.318-6.37h2.212l2.1 4.466 2.086-4.466h2.184Zm3.09 1.582v2.45h3.29v1.554h-3.29v2.59h3.71V125h-5.67v-9.786h5.67v1.596h-3.71Zm11.483 6.328h-3.892l-.644 1.862h-2.058l3.514-9.786h2.282l3.514 9.786h-2.072l-.644-1.862Zm-.532-1.568-1.414-4.088-1.414 4.088h2.828Zm9.602 3.43-2.156-3.808h-.924V125h-1.96v-9.772h3.668c.756 0 1.4.135 1.932.406.532.261.929.621 1.19 1.078.271.448.406.952.406 1.512 0 .644-.187 1.227-.56 1.75-.373.513-.929.868-1.666 1.064l2.338 3.962h-2.268Zm-3.08-5.278h1.638c.532 0 .929-.126 1.19-.378.261-.261.392-.621.392-1.078 0-.448-.131-.793-.392-1.036-.261-.252-.658-.378-1.19-.378h-1.638v2.87Zm10.383 5.376c-.682 0-1.298-.117-1.848-.35a3.018 3.018 0 0 1-1.288-1.008c-.318-.439-.481-.957-.49-1.554h2.1c.028.401.168.719.42.952.261.233.616.35 1.064.35.457 0 .816-.107 1.078-.322a1.09 1.09 0 0 0 .392-.868.997.997 0 0 0-.266-.714 1.792 1.792 0 0 0-.672-.434 9.35 9.35 0 0 0-1.092-.364 13.148 13.148 0 0 1-1.554-.546 2.88 2.88 0 0 1-1.022-.826c-.28-.373-.42-.868-.42-1.484 0-.579.144-1.083.434-1.512.289-.429.695-.756 1.218-.98.522-.233 1.12-.35 1.792-.35 1.008 0 1.824.247 2.45.742.634.485.984 1.167 1.05 2.044h-2.156a1.094 1.094 0 0 0-.434-.826c-.262-.224-.612-.336-1.05-.336-.383 0-.691.098-.924.294-.224.196-.336.481-.336.854a.92.92 0 0 0 .252.658c.177.168.392.308.644.42.261.103.625.224 1.092.364.634.187 1.152.373 1.554.56.401.187.746.467 1.036.84.289.373.434.863.434 1.47a2.77 2.77 0 0 1-.406 1.456c-.271.448-.668.807-1.19 1.078-.523.261-1.144.392-1.862.392Z" fill="#F0FBFF"/><path d="M411.767 73V39.256h6.432V73h-6.432Zm-6.624-28.08v-5.664h12.576v5.664h-12.576Zm23.625 28.56c-1.152 0-2.096-.384-2.832-1.152-.736-.768-1.104-1.712-1.104-2.832 0-1.12.368-2.064 1.104-2.832.736-.768 1.68-1.152 2.832-1.152 1.12 0 2.048.384 2.784 1.152.736.768 1.104 1.712 1.104 2.832 0 1.12-.368 2.064-1.104 2.832-.736.768-1.664 1.152-2.784 1.152Zm7.174-12.384 11.52-21.84h7.2l-11.808 21.84h-6.912Zm0 3.84v-3.84l2.4-1.872h24.192v5.712h-26.592ZM451.878 73V51.496h6.432V73h-6.432Zm35.689 0-14.64-17.616 14.256-16.128h8.16l-15.888 17.52.048-3.024L495.871 73h-8.304Zm-20.4 0V39.256h6.528V73h-6.528Zm38.279-20.352a7.069 7.069 0 0 1-3.504-.912 7.043 7.043 0 0 1-2.496-2.544c-.608-1.056-.912-2.224-.912-3.504 0-1.312.304-2.48.912-3.504a6.786 6.786 0 0 1 2.496-2.448c1.056-.64 2.224-.96 3.504-.96 1.312 0 2.496.32 3.552.96 1.088.608 1.936 1.424 2.544 2.448.608 1.024.912 2.192.912 3.504 0 1.28-.32 2.448-.96 3.504a7.043 7.043 0 0 1-2.496 2.544c-1.024.608-2.208.912-3.552.912Zm0-4.56c.736 0 1.312-.224 1.728-.672.416-.448.624-1.024.624-1.728s-.224-1.28-.672-1.728c-.416-.448-.976-.672-1.68-.672-.672 0-1.216.224-1.632.672-.416.448-.624 1.024-.624 1.728s.208 1.28.624 1.728c.416.448.96.672 1.632.672ZM520.23 73.48c-1.28 0-2.448-.304-3.504-.912a7.594 7.594 0 0 1-2.544-2.496c-.608-1.056-.912-2.24-.912-3.552 0-1.312.304-2.48.912-3.504a7.306 7.306 0 0 1 2.496-2.448c1.056-.64 2.24-.96 3.552-.96 1.312 0 2.496.32 3.552.96a6.786 6.786 0 0 1 2.496 2.448c.64 1.024.96 2.192.96 3.504 0 1.312-.32 2.496-.96 3.552a7.17 7.17 0 0 1-2.496 2.496c-1.024.608-2.208.912-3.552.912Zm0-4.56c.704 0 1.28-.224 1.728-.672.448-.448.672-1.024.672-1.728 0-.672-.24-1.232-.72-1.68-.448-.448-1.008-.672-1.68-.672-.672 0-1.232.224-1.68.672-.416.448-.624 1.008-.624 1.68 0 .704.208 1.28.624 1.728.448.448 1.008.672 1.68.672ZM499.446 73l20.928-33.744h5.952L505.398 73h-5.952Z" fill="#4EFDD5"/><path d="M233.296 102.138h-3.892L228.76 104h-2.058l3.514-9.786h2.282l3.514 9.786h-2.072l-.644-1.862Zm-.532-1.568-1.414-4.088-1.414 4.088h2.828Zm11.687-3.318c0 .523-.126 1.013-.378 1.47-.242.457-.63.826-1.162 1.106-.522.28-1.185.42-1.988.42h-1.638V104h-1.96v-9.772h3.598c.756 0 1.4.13 1.932.392.532.261.929.62 1.19 1.078.271.457.406.975.406 1.554Zm-3.612 1.414c.542 0 .943-.121 1.204-.364.262-.252.392-.602.392-1.05 0-.952-.532-1.428-1.596-1.428h-1.554v2.842h1.554Zm12.13-1.414c0 .523-.126 1.013-.378 1.47-.243.457-.63.826-1.162 1.106-.523.28-1.185.42-1.988.42h-1.638V104h-1.96v-9.772h3.598c.756 0 1.4.13 1.932.392.532.261.929.62 1.19 1.078.271.457.406.975.406 1.554Zm-3.612 1.414c.541 0 .943-.121 1.204-.364.261-.252.392-.602.392-1.05 0-.952-.532-1.428-1.596-1.428h-1.554v2.842h1.554Zm10.271-4.438v6.048c0 .663.173 1.171.518 1.526.346.345.831.518 1.456.518.635 0 1.125-.173 1.47-.518.346-.355.518-.863.518-1.526v-6.048h1.974v6.034c0 .831-.182 1.535-.546 2.114a3.373 3.373 0 0 1-1.442 1.288c-.597.289-1.264.434-2.002.434-.728 0-1.39-.145-1.988-.434a3.33 3.33 0 0 1-1.4-1.288c-.345-.579-.518-1.283-.518-2.114v-6.034h1.96Zm11.204 9.87c-.681 0-1.297-.117-1.848-.35a3.03 3.03 0 0 1-1.288-1.008c-.317-.439-.48-.957-.49-1.554h2.1c.028.401.168.719.42.952.262.233.616.35 1.064.35.458 0 .817-.107 1.078-.322.262-.224.392-.513.392-.868a.993.993 0 0 0-.266-.714 1.776 1.776 0 0 0-.672-.434 9.166 9.166 0 0 0-1.092-.364 13.17 13.17 0 0 1-1.554-.546 2.886 2.886 0 0 1-1.022-.826c-.28-.373-.42-.868-.42-1.484 0-.579.145-1.083.434-1.512.29-.43.696-.756 1.218-.98.523-.233 1.12-.35 1.792-.35 1.008 0 1.825.247 2.45.742.635.485.985 1.167 1.05 2.044h-2.156a1.088 1.088 0 0 0-.434-.826c-.261-.224-.611-.336-1.05-.336-.382 0-.69.098-.924.294-.224.196-.336.48-.336.854 0 .261.084.48.252.658.178.168.392.308.644.42.262.103.626.224 1.092.364.635.187 1.153.373 1.554.56.402.187.747.467 1.036.84.29.373.434.863.434 1.47 0 .523-.135 1.008-.406 1.456-.27.448-.667.807-1.19 1.078-.522.261-1.143.392-1.862.392Zm7.117-8.288v2.45h3.29v1.554h-3.29v2.59h3.71V104h-5.67v-9.786h5.67v1.596h-3.71Zm10.532 8.19-2.156-3.808h-.924V104h-1.96v-9.772h3.668c.756 0 1.4.135 1.932.406.532.261.928.62 1.19 1.078.27.448.406.952.406 1.512 0 .644-.187 1.227-.56 1.75-.374.513-.929.868-1.666 1.064l2.338 3.962h-2.268Zm-3.08-5.278h1.638c.532 0 .928-.126 1.19-.378.261-.261.392-.62.392-1.078 0-.448-.131-.793-.392-1.036-.262-.252-.658-.378-1.19-.378h-1.638v2.87Zm10.382 5.376c-.681 0-1.297-.117-1.848-.35a3.03 3.03 0 0 1-1.288-1.008c-.317-.439-.48-.957-.49-1.554h2.1c.028.401.168.719.42.952.262.233.616.35 1.064.35.458 0 .817-.107 1.078-.322.262-.224.392-.513.392-.868a.993.993 0 0 0-.266-.714 1.776 1.776 0 0 0-.672-.434 9.166 9.166 0 0 0-1.092-.364 13.17 13.17 0 0 1-1.554-.546 2.886 2.886 0 0 1-1.022-.826c-.28-.373-.42-.868-.42-1.484 0-.579.145-1.083.434-1.512.29-.43.696-.756 1.218-.98.523-.233 1.12-.35 1.792-.35 1.008 0 1.825.247 2.45.742.635.485.985 1.167 1.05 2.044h-2.156a1.088 1.088 0 0 0-.434-.826c-.261-.224-.611-.336-1.05-.336-.382 0-.69.098-.924.294-.224.196-.336.48-.336.854 0 .261.084.48.252.658.178.168.392.308.644.42.262.103.626.224 1.092.364.635.187 1.153.373 1.554.56.402.187.747.467 1.036.84.29.373.434.863.434 1.47 0 .523-.135 1.008-.406 1.456-.27.448-.667.807-1.19 1.078-.522.261-1.143.392-1.862.392Zm14.486-1.96h-3.892l-.644 1.862h-2.058l3.514-9.786h2.282l3.514 9.786h-2.072l-.644-1.862Zm-.532-1.568-1.414-4.088-1.414 4.088h2.828Zm12.919 3.43h-1.96l-4.438-6.706V104h-1.96v-9.786h1.96l4.438 6.72v-6.72h1.96V104Zm5.353-9.772c1.027 0 1.927.2 2.702.602a4.235 4.235 0 0 1 1.806 1.722c.429.737.644 1.596.644 2.576s-.215 1.839-.644 2.576a4.283 4.283 0 0 1-1.806 1.694c-.775.401-1.675.602-2.702.602h-3.416v-9.772h3.416Zm-.07 8.106c1.027 0 1.82-.28 2.38-.84.56-.56.84-1.349.84-2.366 0-1.017-.28-1.81-.84-2.38-.56-.579-1.353-.868-2.38-.868h-1.386v6.454h1.386Zm-77.637 15.834a2.294 2.294 0 0 0-.924-.938c-.392-.215-.849-.322-1.372-.322-.578 0-1.092.131-1.54.392a2.707 2.707 0 0 0-1.05 1.12c-.252.485-.378 1.045-.378 1.68 0 .653.126 1.223.378 1.708.262.485.621.859 1.078 1.12.458.261.99.392 1.596.392.747 0 1.358-.196 1.834-.588.476-.401.789-.957.938-1.666h-3.36v-1.498h5.292v1.708a4.577 4.577 0 0 1-.84 1.89 4.784 4.784 0 0 1-1.666 1.4c-.672.345-1.428.518-2.268.518-.942 0-1.796-.21-2.562-.63a4.75 4.75 0 0 1-1.792-1.778c-.429-.756-.644-1.615-.644-2.576 0-.961.215-1.82.644-2.576a4.625 4.625 0 0 1 1.792-1.778c.766-.429 1.615-.644 2.548-.644 1.102 0 2.058.271 2.87.812.812.532 1.372 1.283 1.68 2.254h-2.254Zm8.982 6.832-2.156-3.808h-.924V125h-1.96v-9.772h3.668c.756 0 1.4.135 1.932.406.532.261.929.621 1.19 1.078.271.448.406.952.406 1.512 0 .644-.186 1.227-.56 1.75-.373.513-.928.868-1.666 1.064l2.338 3.962h-2.268Zm-3.08-5.278h1.638c.532 0 .929-.126 1.19-.378.262-.261.392-.621.392-1.078 0-.448-.13-.793-.392-1.036-.261-.252-.658-.378-1.19-.378h-1.638v2.87Zm11.545 5.376a5.065 5.065 0 0 1-2.52-.644 4.824 4.824 0 0 1-1.82-1.778c-.448-.765-.672-1.629-.672-2.59 0-.952.224-1.806.672-2.562a4.795 4.795 0 0 1 1.82-1.792 5.065 5.065 0 0 1 2.52-.644c.924 0 1.764.215 2.52.644a4.697 4.697 0 0 1 1.806 1.792c.448.756.672 1.61.672 2.562 0 .961-.224 1.825-.672 2.59a4.723 4.723 0 0 1-1.806 1.778 5.065 5.065 0 0 1-2.52.644Zm0-1.75c.588 0 1.106-.131 1.554-.392a2.782 2.782 0 0 0 1.05-1.148c.252-.495.378-1.069.378-1.722s-.126-1.223-.378-1.708a2.685 2.685 0 0 0-1.05-1.134c-.448-.261-.966-.392-1.554-.392-.588 0-1.111.131-1.568.392a2.685 2.685 0 0 0-1.05 1.134c-.252.485-.378 1.055-.378 1.708s.126 1.227.378 1.722c.252.495.602.877 1.05 1.148.457.261.98.392 1.568.392Zm19.518-8.12-2.73 9.772h-2.31l-1.834-6.958-1.918 6.958-2.296.014-2.632-9.786h2.1l1.722 7.588 1.988-7.588h2.184l1.876 7.546 1.736-7.546h2.114Zm3.24 0V125h-1.96v-9.772h1.96ZM300.802 125h-1.96l-4.438-6.706V125h-1.96v-9.786h1.96l4.438 6.72v-6.72h1.96V125Zm8.74-6.832a2.294 2.294 0 0 0-.924-.938c-.392-.215-.849-.322-1.372-.322-.578 0-1.092.131-1.54.392a2.707 2.707 0 0 0-1.05 1.12c-.252.485-.378 1.045-.378 1.68 0 .653.126 1.223.378 1.708.262.485.621.859 1.078 1.12.458.261.99.392 1.596.392.747 0 1.358-.196 1.834-.588.476-.401.789-.957.938-1.666h-3.36v-1.498h5.292v1.708a4.577 4.577 0 0 1-.84 1.89 4.784 4.784 0 0 1-1.666 1.4c-.672.345-1.428.518-2.268.518-.942 0-1.796-.21-2.562-.63a4.75 4.75 0 0 1-1.792-1.778c-.429-.756-.644-1.615-.644-2.576 0-.961.215-1.82.644-2.576a4.625 4.625 0 0 1 1.792-1.778c.766-.429 1.615-.644 2.548-.644 1.102 0 2.058.271 2.87.812.812.532 1.372 1.283 1.68 2.254h-2.254Zm6.477-3.108-.224 6.762h-1.652l-.238-6.762h2.114Zm-1.008 10.038c-.355 0-.649-.107-.882-.322a1.122 1.122 0 0 1-.336-.826c0-.327.112-.597.336-.812.233-.224.527-.336.882-.336.345 0 .63.112.854.336.224.215.336.485.336.812 0 .327-.112.602-.336.826-.224.215-.509.322-.854.322Z" fill="#F0FBFF"/><path d="M263.508 73.48c-2.4 0-4.48-.416-6.24-1.248-1.728-.832-3.088-2-4.08-3.504-.96-1.504-1.44-3.2-1.44-5.088 0-1.568.304-2.992.912-4.272a8.744 8.744 0 0 1 2.592-3.216c1.152-.896 2.496-1.52 4.032-1.872l-.144 1.584c-1.28-.32-2.368-.88-3.264-1.68a7.671 7.671 0 0 1-2.016-2.832 9.226 9.226 0 0 1-.672-3.456c0-1.824.432-3.424 1.296-4.8.896-1.376 2.112-2.448 3.648-3.216 1.568-.768 3.36-1.152 5.376-1.152 2.016 0 3.792.384 5.328 1.152 1.536.768 2.736 1.84 3.6 3.216.896 1.376 1.344 2.976 1.344 4.8a9.226 9.226 0 0 1-.672 3.456 7.671 7.671 0 0 1-2.016 2.832c-.864.8-1.952 1.36-3.264 1.68l-.144-1.584c1.568.352 2.912.976 4.032 1.872a8.744 8.744 0 0 1 2.592 3.216c.608 1.28.912 2.704.912 4.272 0 1.888-.48 3.584-1.44 5.088s-2.32 2.672-4.08 3.504c-1.76.832-3.824 1.248-6.192 1.248Zm0-5.712c1.056 0 2-.208 2.832-.624.832-.448 1.472-1.056 1.92-1.824.48-.768.72-1.632.72-2.592 0-.992-.24-1.856-.72-2.592-.448-.768-1.088-1.36-1.92-1.776-.832-.448-1.776-.672-2.832-.672-1.088 0-2.048.224-2.88.672a4.883 4.883 0 0 0-1.92 1.776c-.48.736-.72 1.6-.72 2.592 0 .96.24 1.824.72 2.592a5.252 5.252 0 0 0 1.92 1.824c.832.416 1.792.624 2.88.624Zm0-15.024c1.248 0 2.272-.4 3.072-1.2.8-.8 1.2-1.824 1.2-3.072 0-1.28-.4-2.32-1.2-3.12-.8-.8-1.824-1.2-3.072-1.2s-2.288.4-3.12 1.2c-.8.8-1.2 1.824-1.2 3.072 0 1.28.4 2.32 1.2 3.12.832.8 1.872 1.2 3.12 1.2ZM300.645 73l-14.64-17.616 14.256-16.128h8.16l-15.888 17.52.048-3.024L308.949 73h-8.304Zm-20.4 0V39.256h6.528V73h-6.528Z" fill="#4EFDD5"/><path d="M70.46 94.228V104H68.5v-6.356L65.882 104h-1.484l-2.632-6.356V104h-1.96v-9.772h2.226l3.108 7.266 3.108-7.266h2.212Zm6.474 9.87a5.067 5.067 0 0 1-2.52-.644 4.821 4.821 0 0 1-1.82-1.778c-.448-.765-.672-1.629-.672-2.59 0-.952.224-1.806.672-2.562a4.793 4.793 0 0 1 1.82-1.792 5.064 5.064 0 0 1 2.52-.644c.924 0 1.764.215 2.52.644a4.691 4.691 0 0 1 1.806 1.792c.448.756.672 1.61.672 2.562 0 .961-.224 1.825-.672 2.59a4.718 4.718 0 0 1-1.806 1.778 5.066 5.066 0 0 1-2.52.644Zm0-1.75c.588 0 1.106-.131 1.554-.392a2.782 2.782 0 0 0 1.05-1.148c.252-.495.378-1.069.378-1.722s-.126-1.223-.378-1.708a2.689 2.689 0 0 0-1.05-1.134c-.448-.261-.966-.392-1.554-.392-.588 0-1.111.13-1.568.392-.448.261-.798.64-1.05 1.134-.252.485-.378 1.055-.378 1.708s.126 1.227.378 1.722c.252.495.602.877 1.05 1.148.457.261.98.392 1.568.392ZM91.748 104h-1.96l-4.438-6.706V104h-1.96v-9.786h1.96l4.438 6.72v-6.72h1.96V104Zm8.587-9.772v1.582h-2.604V104h-1.96v-8.19h-2.604v-1.582h7.168Zm9.536 0V104h-1.96v-4.158h-4.186V104h-1.96v-9.772h1.96v4.018h4.186v-4.018h1.96Zm3.889 8.218h3.22V104h-5.18v-9.772h1.96v8.218Zm12.236-8.218-3.304 6.37V104h-1.96v-3.402l-3.318-6.37h2.212l2.1 4.466 2.086-4.466h2.184Zm-74.902 28.91h-3.892L46.558 125H44.5l3.514-9.786h2.282L53.81 125h-2.072l-.644-1.862Zm-.532-1.568-1.414-4.088-1.414 4.088h2.828Zm4.085-1.47c0-.961.215-1.82.644-2.576a4.651 4.651 0 0 1 1.778-1.778c.756-.429 1.6-.644 2.534-.644 1.092 0 2.049.28 2.87.84.822.56 1.396 1.335 1.722 2.324h-2.254c-.224-.467-.541-.817-.952-1.05-.401-.233-.868-.35-1.4-.35a2.89 2.89 0 0 0-1.526.406 2.737 2.737 0 0 0-1.036 1.12c-.242.485-.364 1.055-.364 1.708 0 .644.122 1.213.364 1.708a2.84 2.84 0 0 0 1.036 1.134c.448.261.957.392 1.526.392.532 0 .999-.117 1.4-.35.41-.243.728-.597.952-1.064h2.254c-.326.999-.9 1.778-1.722 2.338-.812.551-1.768.826-2.87.826-.933 0-1.778-.21-2.534-.63a4.779 4.779 0 0 1-1.778-1.778c-.43-.756-.644-1.615-.644-2.576Zm17.872-4.872v1.582h-2.604V125h-1.96v-8.19h-2.604v-1.582h7.168Zm3.39 0V125h-1.96v-9.772h1.96Zm10.715 0L83.04 125h-2.38l-3.584-9.772h2.1l2.688 7.77 2.674-7.77h2.086Zm3.135 1.582v2.45h3.29v1.554h-3.29v2.59h3.71V125h-5.67v-9.786h5.67v1.596h-3.71Zm10.759-1.582v6.048c0 .663.173 1.171.518 1.526.345.345.831.518 1.456.518.635 0 1.125-.173 1.47-.518.345-.355.518-.863.518-1.526v-6.048h1.974v6.034c0 .831-.182 1.535-.546 2.114a3.379 3.379 0 0 1-1.442 1.288c-.597.289-1.265.434-2.002.434a4.504 4.504 0 0 1-1.988-.434 3.327 3.327 0 0 1-1.4-1.288c-.345-.579-.518-1.283-.518-2.114v-6.034h1.96Zm11.204 9.87c-.681 0-1.297-.117-1.848-.35a3.024 3.024 0 0 1-1.288-1.008c-.317-.439-.481-.957-.49-1.554h2.1c.028.401.168.719.42.952.261.233.616.35 1.064.35.457 0 .817-.107 1.078-.322a1.09 1.09 0 0 0 .392-.868.997.997 0 0 0-.266-.714 1.776 1.776 0 0 0-.672-.434 9.221 9.221 0 0 0-1.092-.364 13.148 13.148 0 0 1-1.554-.546 2.88 2.88 0 0 1-1.022-.826c-.28-.373-.42-.868-.42-1.484 0-.579.145-1.083.434-1.512.289-.429.695-.756 1.218-.98.523-.233 1.12-.35 1.792-.35 1.008 0 1.825.247 2.45.742.635.485.985 1.167 1.05 2.044h-2.156a1.091 1.091 0 0 0-.434-.826c-.261-.224-.611-.336-1.05-.336-.383 0-.691.098-.924.294-.224.196-.336.481-.336.854a.92.92 0 0 0 .252.658c.177.168.392.308.644.42.261.103.625.224 1.092.364.635.187 1.153.373 1.554.56.401.187.747.467 1.036.84.289.373.434.863.434 1.47 0 .523-.135 1.008-.406 1.456-.271.448-.667.807-1.19 1.078-.523.261-1.143.392-1.862.392Zm7.117-8.288v2.45h3.29v1.554h-3.29v2.59h3.71V125h-5.67v-9.786h5.67v1.596h-3.71ZM129.37 125l-2.156-3.808h-.924V125h-1.96v-9.772h3.668c.756 0 1.4.135 1.932.406.532.261.929.621 1.19 1.078.271.448.406.952.406 1.512 0 .644-.186 1.227-.56 1.75-.373.513-.928.868-1.666 1.064l2.338 3.962h-2.268Zm-3.08-5.278h1.638c.532 0 .929-.126 1.19-.378.262-.261.392-.621.392-1.078 0-.448-.13-.793-.392-1.036-.261-.252-.658-.378-1.19-.378h-1.638v2.87Zm10.383 5.376c-.681 0-1.297-.117-1.848-.35a3.024 3.024 0 0 1-1.288-1.008c-.317-.439-.481-.957-.49-1.554h2.1c.028.401.168.719.42.952.261.233.616.35 1.064.35.457 0 .817-.107 1.078-.322a1.09 1.09 0 0 0 .392-.868.997.997 0 0 0-.266-.714 1.776 1.776 0 0 0-.672-.434 9.221 9.221 0 0 0-1.092-.364 13.148 13.148 0 0 1-1.554-.546 2.88 2.88 0 0 1-1.022-.826c-.28-.373-.42-.868-.42-1.484 0-.579.145-1.083.434-1.512.289-.429.695-.756 1.218-.98.523-.233 1.12-.35 1.792-.35 1.008 0 1.825.247 2.45.742.635.485.985 1.167 1.05 2.044h-2.156a1.091 1.091 0 0 0-.434-.826c-.261-.224-.611-.336-1.05-.336-.383 0-.691.098-.924.294-.224.196-.336.481-.336.854a.92.92 0 0 0 .252.658c.177.168.392.308.644.42.261.103.625.224 1.092.364.635.187 1.153.373 1.554.56.401.187.747.467 1.036.84.289.373.434.863.434 1.47 0 .523-.135 1.008-.406 1.456-.271.448-.667.807-1.19 1.078-.523.261-1.143.392-1.862.392Z" fill="#F0FBFF"/><path d="m50.356 61.096 11.52-21.84h7.2l-11.808 21.84h-6.912Zm0 3.84v-3.84l2.4-1.872h24.192v5.712H50.356ZM66.292 73V51.496h6.432V73h-6.432Zm25.224.48c-2.4 0-4.48-.416-6.24-1.248-1.728-.832-3.088-2-4.08-3.504-.96-1.504-1.44-3.2-1.44-5.088 0-1.568.304-2.992.912-4.272a8.744 8.744 0 0 1 2.592-3.216c1.152-.896 2.496-1.52 4.032-1.872l-.144 1.584c-1.28-.32-2.368-.88-3.264-1.68a7.671 7.671 0 0 1-2.016-2.832 9.226 9.226 0 0 1-.672-3.456c0-1.824.432-3.424 1.296-4.8.896-1.376 2.112-2.448 3.648-3.216 1.568-.768 3.36-1.152 5.376-1.152 2.016 0 3.792.384 5.328 1.152 1.536.768 2.736 1.84 3.6 3.216.896 1.376 1.344 2.976 1.344 4.8a9.226 9.226 0 0 1-.672 3.456 7.672 7.672 0 0 1-2.016 2.832c-.864.8-1.952 1.36-3.264 1.68l-.144-1.584c1.568.352 2.912.976 4.032 1.872a8.744 8.744 0 0 1 2.592 3.216c.608 1.28.912 2.704.912 4.272 0 1.888-.48 3.584-1.44 5.088s-2.32 2.672-4.08 3.504c-1.76.832-3.824 1.248-6.192 1.248Zm0-5.712c1.056 0 2-.208 2.832-.624.832-.448 1.472-1.056 1.92-1.824.48-.768.72-1.632.72-2.592 0-.992-.24-1.856-.72-2.592-.448-.768-1.088-1.36-1.92-1.776-.832-.448-1.776-.672-2.832-.672-1.088 0-2.048.224-2.88.672a4.883 4.883 0 0 0-1.92 1.776c-.48.736-.72 1.6-.72 2.592 0 .96.24 1.824.72 2.592a5.252 5.252 0 0 0 1.92 1.824c.832.416 1.792.624 2.88.624Zm0-15.024c1.248 0 2.272-.4 3.072-1.2.8-.8 1.2-1.824 1.2-3.072 0-1.28-.4-2.32-1.2-3.12-.8-.8-1.824-1.2-3.072-1.2s-2.288.4-3.12 1.2c-.8.8-1.2 1.824-1.2 3.072 0 1.28.4 2.32 1.2 3.12.832.8 1.872 1.2 3.12 1.2ZM128.653 73l-14.64-17.616 14.256-16.128h8.16l-15.888 17.52.048-3.024L136.957 73h-8.304Zm-20.4 0V39.256h6.528V73h-6.528Z" fill="#4EFDD5"/><defs><linearGradient id="a" x1="395.966" y1="577.85" x2="396.343" y2="597.907" gradientUnits="userSpaceOnUse"><stop stop-color="#fff"/><stop offset="1" stop-color="#999"/></linearGradient><linearGradient id="b" x1="396.615" y1="592.567" x2="396.715" y2="602.71" gradientUnits="userSpaceOnUse"><stop stop-color="#fff"/><stop offset="1" stop-color="#999"/></linearGradient><linearGradient id="c" x1="347" y1="574" x2="362" y2="604" gradientUnits="userSpaceOnUse"><stop stop-color="#fff"/><stop offset="1" stop-color="#999"/></linearGradient><linearGradient id="d" x1="113.089" y1="578.734" x2="94.171" y2="593.215" gradientUnits="userSpaceOnUse"><stop stop-color="#00F595"/><stop offset="1" stop-color="#00D5FB"/></linearGradient></defs></svg>