<svg width="212" height="212" fill="none" xmlns="http://www.w3.org/2000/svg"><g filter="url(#a)"><circle cx="106" cy="85" r="60" fill="url(#b)"/></g><path d="M106 80.938v6.5m4.875-7.313v7.313m4.875-12.188v12.188m4.875-10.563v10.563m4.875-16.25v16.25m-19.5 6.5h8.938M106 97.188h19.5m-19.5 3.25h12.188M106 75.25c6.5-1.219 14.219-4.063 19.5-10.563m0 0h-3.25m3.25 0v3.25m-26 19.5V63a4 4 0 0 1 4-4H128a4 4 0 0 1 4 4v44a4 4 0 0 1-4 4h-24.5a4 4 0 0 1-4-4v-1.688m-8.938-15.437c3.024 0 6.048 1.065 8.08 1.976 1.585.71 2.483 2.332 2.483 4.068v3.144a3 3 0 0 1-3 2.999H83a3 3 0 0 1-3-3V95.92c0-1.736.898-3.358 2.483-4.068 2.032-.91 5.056-1.976 8.08-1.976Zm0-3.25a5.688 5.688 0 1 1 0-11.375 5.688 5.688 0 0 1 0 11.375Z" stroke="#0E2C59" stroke-linecap="round" stroke-linejoin="round"/><circle cx="106" cy="85" r="70" stroke="#F4F9FF" stroke-linecap="round" stroke-dasharray="1 9"/><defs><linearGradient id="b" x1="166" y1="4.456" x2="41.011" y2="11.008" gradientUnits="userSpaceOnUse"><stop stop-color="#50FFD4"/><stop offset="1" stop-color="#39E5EE"/></linearGradient><filter id="a" x="0" y="0" width="212" height="212" filterUnits="userSpaceOnUse" color-interpolation-filters="sRGB"><feFlood flood-opacity="0" result="BackgroundImageFix"/><feColorMatrix in="SourceAlpha" values="0 0 0 0 0 0 0 0 0 0 0 0 0 0 0 0 0 0 127 0" result="hardAlpha"/><feOffset dy="21"/><feGaussianBlur stdDeviation="23"/><feComposite in2="hardAlpha" operator="out"/><feColorMatrix values="0 0 0 0 0.00625 0 0 0 0 0.0652243 0 0 0 0 0.15 0 0 0 0.6 0"/><feBlend in2="BackgroundImageFix" result="effect1_dropShadow_4853_682"/><feBlend in="SourceGraphic" in2="effect1_dropShadow_4853_682" result="shape"/></filter></defs></svg>