<svg width="212" height="212" fill="none" xmlns="http://www.w3.org/2000/svg"><g filter="url(#a)"><circle cx="106" cy="85" r="60" fill="url(#b)"/></g><path d="M100 74v-5a2 2 0 0 1 2-2v0m10 7v-4m-10-3-7-11c.822-.548 2.724-1.396 5-2.05M102 67h8m0 0v0a2 2 0 0 1 2 2v1m-2-3 7-11c-1.5-1-6.6-3-11-3-1.989 0-4.122.409-6 .95m0 0 3 8.05m9 8h-5m-7 33h9.094a2.906 2.906 0 0 0 2.906-2.906v0c0-1.25-.8-2.36-1.987-2.756l-7.629-2.543A3.486 3.486 0 0 1 100 91.487v0A3.487 3.487 0 0 1 103.487 88H112m-6-4v22m-11 6c1.866 1.324 7.037 3.974 12.798 3.985m0 0c-.587.01-1.187.015-1.798.015-5.035 0-9.282-.338-12.702-.787-6.194-.814-9.955-6.505-9.456-12.733l.558-6.977c.395-4.942 1.767-9.845 5.058-13.552C93.155 77.786 98.94 73 106 73c7.06 0 12.845 4.786 16.542 8.95 3.291 3.708 4.663 8.61 5.058 13.553l.558 6.977c.499 6.228-3.263 11.92-9.457 12.733-3.005.395-6.648.703-10.903.772Z" stroke="#0E2C59" stroke-linecap="round" stroke-linejoin="round"/><circle cx="106" cy="85" r="70" stroke="#F4F9FF" stroke-linecap="round" stroke-dasharray="1 9"/><defs><linearGradient id="b" x1="166" y1="4.456" x2="41.011" y2="11.008" gradientUnits="userSpaceOnUse"><stop stop-color="#50FFD4"/><stop offset="1" stop-color="#39E5EE"/></linearGradient><filter id="a" x="0" y="0" width="212" height="212" filterUnits="userSpaceOnUse" color-interpolation-filters="sRGB"><feFlood flood-opacity="0" result="BackgroundImageFix"/><feColorMatrix in="SourceAlpha" values="0 0 0 0 0 0 0 0 0 0 0 0 0 0 0 0 0 0 127 0" result="hardAlpha"/><feOffset dy="21"/><feGaussianBlur stdDeviation="23"/><feComposite in2="hardAlpha" operator="out"/><feColorMatrix values="0 0 0 0 0.00625 0 0 0 0 0.0652243 0 0 0 0 0.15 0 0 0 0.6 0"/><feBlend in2="BackgroundImageFix" result="effect1_dropShadow_4853_664"/><feBlend in="SourceGraphic" in2="effect1_dropShadow_4853_664" result="shape"/></filter></defs></svg>