<svg width="212" height="212" fill="none" xmlns="http://www.w3.org/2000/svg"><circle cx="106" cy="86" r="70" stroke="#F4F9FF" stroke-linecap="round" stroke-dasharray="1 9"/><g filter="url(#a)"><circle cx="106" cy="85" r="60" fill="url(#b)"/></g><path d="M96.063 108.75h17.875m-17.876 0 .227.227a2 2 0 0 0 1.414.585h14.594a2 2 0 0 0 1.414-.585l.227-.227m-17.876 0H82.25m31.688 0h13.812m-45.5 0H79V110a2 2 0 0 0 2 2h48a2 2 0 0 0 2-2v-1.25h-3.25m-45.5 0V83.312a3 3 0 0 1 3-3h23m19.5 28.438V83.312c0-1.656-1.345-3-3.001-3h-10.811M89.156 64.876h2.031v6.5h-2.03m0-6.5h-2.032v6.5h2.031m0-6.5V63.25m0 8.125v4.063M96.47 63.25H98.5v8.125h-2.031m0-8.125h-2.031v8.125h2.03m0-8.125V60m0 11.375V73m7.313-4.469h2.031v6.5h-2.031m0-6.5h-2.031v6.5h2.031m0-6.5v-4.875m0 11.375v1.625m7.313-9.75h2.031v9.75h-2.031m0-9.75h-2.032v9.75h2.032m0-9.75v-3.25m0 13v4.063m7.312-7.313h-2.031v-8.125H120.438v8.125h-2.032Zm0 0v1.625M87.125 85.187h2.438m3.25 0h4.062m-9.75 3.25h2.438m3.25 0h4.062m-9.75 3.25h2.438m3.25 0h4.062m-9.75 3.25h2.438m3.25 0h4.062m6.5-9.75v9.75h20.313m-17.876-3.25 3.25-2.437 1.626 1.625 4.874-3.25L118 90.063 123.688 86" stroke="#0E2C59" stroke-linecap="round" stroke-linejoin="round"/><defs><linearGradient id="b" x1="166" y1="4.456" x2="41.011" y2="11.008" gradientUnits="userSpaceOnUse"><stop stop-color="#50FFD4"/><stop offset="1" stop-color="#39E5EE"/></linearGradient><filter id="a" x="0" y="0" width="212" height="212" filterUnits="userSpaceOnUse" color-interpolation-filters="sRGB"><feFlood flood-opacity="0" result="BackgroundImageFix"/><feColorMatrix in="SourceAlpha" values="0 0 0 0 0 0 0 0 0 0 0 0 0 0 0 0 0 0 127 0" result="hardAlpha"/><feOffset dy="21"/><feGaussianBlur stdDeviation="23"/><feComposite in2="hardAlpha" operator="out"/><feColorMatrix values="0 0 0 0 0.00625 0 0 0 0 0.0652243 0 0 0 0 0.15 0 0 0 0.6 0"/><feBlend in2="BackgroundImageFix" result="effect1_dropShadow_4853_690"/><feBlend in="SourceGraphic" in2="effect1_dropShadow_4853_690" result="shape"/></filter></defs></svg>