<svg width="212" height="212" fill="none" xmlns="http://www.w3.org/2000/svg"><g filter="url(#a)"><circle cx="106" cy="85" r="60" fill="url(#b)"/></g><path d="M110 111v-5m10 5v-3m4 3v-7m6 5v-3m-28 5v-4m6 3v-2m0-3v-2m0-2v-9h5v-2l-8-7-8 7v2h5v11.5m8-1V94m0-9V74h-7v-3l12-12 12 12v3h-7v6m0 25v-2m0-3V89m10 8V86h5v-2l-8-7-8 7v2h5v14.5m6 .5v2M80 63l-4 6m4-6h6.75M80 63l3.75 6M76 69l16.5 18M76 69h7.75M105 63h-6.75m6.75 0-3.75 6m3.75-6 1.333 2M92.5 87l8.75-18M92.5 87V69m0 18 9.5-10.364M92.5 87l-5.833-12m5.833-6h8.75m-8.75 0 5.75-6m-5.75 6-5.75-6m5.75 6H91m7.25-6h-11.5m11.5 0 3 6m-14.5-6-3 6m0 0H89m-5.25 0 1.458 3m16.042-3h.75M77 81h6m-3-3v6m1.5 2h4m-2-2v4" stroke="#0E2C59" stroke-linecap="round" stroke-linejoin="round"/><circle cx="106" cy="85" r="70" stroke="#F4F9FF" stroke-linecap="round" stroke-dasharray="1 9"/><defs><linearGradient id="b" x1="166" y1="4.456" x2="41.011" y2="11.008" gradientUnits="userSpaceOnUse"><stop stop-color="#50FFD4"/><stop offset="1" stop-color="#39E5EE"/></linearGradient><filter id="a" x="0" y="0" width="212" height="212" filterUnits="userSpaceOnUse" color-interpolation-filters="sRGB"><feFlood flood-opacity="0" result="BackgroundImageFix"/><feColorMatrix in="SourceAlpha" values="0 0 0 0 0 0 0 0 0 0 0 0 0 0 0 0 0 0 127 0" result="hardAlpha"/><feOffset dy="21"/><feGaussianBlur stdDeviation="23"/><feComposite in2="hardAlpha" operator="out"/><feColorMatrix values="0 0 0 0 0.00625 0 0 0 0 0.0652243 0 0 0 0 0.15 0 0 0 0.6 0"/><feBlend in2="BackgroundImageFix" result="effect1_dropShadow_4853_673"/><feBlend in="SourceGraphic" in2="effect1_dropShadow_4853_673" result="shape"/></filter></defs></svg>