<svg width="212" height="212" fill="none" xmlns="http://www.w3.org/2000/svg"><g filter="url(#a)"><circle cx="106" cy="85" r="60" fill="url(#b)"/></g><circle cx="106" cy="85" r="70" stroke="#F4F9FF" stroke-linecap="round" stroke-dasharray="1 9"/><path d="M89.5 85v1.104a7 7 0 0 0 3.473 6.047l4.546 2.652A5 5 0 0 1 100 99.122V105M89.5 85l-5.216-2.196A7 7 0 0 1 80 76.352V66a2 2 0 0 1 2-2h7.5m0 21V64m25 21v1.188a7 7 0 0 1-3.527 6.077l-4.454 2.545A5 5 0 0 0 104 99.152V105m10.5-20 5.07-2.001a7 7 0 0 0 4.43-6.511V66a2 2 0 0 0-2-2h-7.5m0 21V64m-25 0v-2.5m25 2.5v-5h-25v2.5m.5 46.503-.999-.001a1 1 0 0 0-1.001 1V111h28v-1.998a1 1 0 0 0-1.002-1l-.998.003m-24-.002 10 .015h4l10-.013m-24-.002V106a1 1 0 0 1 1-1h9m14 3.005V106a1 1 0 0 0-1-1h-9m0 0h-4M89.5 61.5h25M126 111v-2.982m0-2.018v-2m-5 5v-4m0-2v-9h-6l8.5-8 8.5 8h-6v8" stroke="#0E2C59" stroke-linecap="round" stroke-linejoin="round"/><defs><linearGradient id="b" x1="166" y1="4.456" x2="41.011" y2="11.008" gradientUnits="userSpaceOnUse"><stop stop-color="#50FFD4"/><stop offset="1" stop-color="#39E5EE"/></linearGradient><filter id="a" x="0" y="0" width="212" height="212" filterUnits="userSpaceOnUse" color-interpolation-filters="sRGB"><feFlood flood-opacity="0" result="BackgroundImageFix"/><feColorMatrix in="SourceAlpha" values="0 0 0 0 0 0 0 0 0 0 0 0 0 0 0 0 0 0 127 0" result="hardAlpha"/><feOffset dy="21"/><feGaussianBlur stdDeviation="23"/><feComposite in2="hardAlpha" operator="out"/><feColorMatrix values="0 0 0 0 0.00625 0 0 0 0 0.0652243 0 0 0 0 0.15 0 0 0 0.6 0"/><feBlend in2="BackgroundImageFix" result="effect1_dropShadow_4853_655"/><feBlend in="SourceGraphic" in2="effect1_dropShadow_4853_655" result="shape"/></filter></defs></svg>