<svg width="192" height="192" fill="none" xmlns="http://www.w3.org/2000/svg"><g filter="url(#a)"><path d="M46 50c0-13.807 11.193-25 25-25h50c13.807 0 25 11.193 25 25v50c0 13.807-11.193 25-25 25H71c-13.807 0-25-11.193-25-25V50Z" fill="url(#b)"/></g><path d="M146 50v50c0 13.807-11.193 25-25 25H71l75-75Z" fill="url(#c)"/><path d="M119 52.667h.667c.736 0 1.333-.597 1.333-1.334v0c0-.736-.597-1.333-1.333-1.333H72.333c-.736 0-1.333.597-1.333 1.333v0c0 .737.597 1.334 1.333 1.334H73m46 0v34m0-34H73m0 0v34m26.667-1.005c.914-.2 1.92-.329 3-.329 2.401 0 4.441.634 5.902 1.284 1.617.719 2.431 2.417 2.431 4.187v0A3.196 3.196 0 0 1 107.804 94h-8.137M79 86.667h-6.667c-.736 0-1.333.597-1.333 1.333v0c0 .736.597 1.333 1.333 1.333H79m34-2.666h6.667c.736 0 1.333.597 1.333 1.333v0c0 .736-.597 1.333-1.333 1.333H113M99 100v-4m-6 4v-4M76.333 56h5.334m-5.334 3.333H79m-2.667 3.334h3.334M76.333 66h2m14.334-10H91m3 3.333h-3.667M94 62.667h-5M85 56h2.667m-6 3.333h6m-6 3.334h4.666m-6 3.333h3.334m2.666 0H90.5m7.833-10h5.334m-5.334 3.333H101m-2.667 3.334h3.334M98.333 66h2m14.334-10H113m3 3.333h-3.667M116 62.667h-5M107 56h2.667m-6 3.333h6m-6 3.334h4.666m-6 3.333h3.334m2.666 0h4.167M89.333 82.667c1.82 0 3.434.364 4.744.823 2.413.846 3.59 3.337 3.59 5.893v0A4.617 4.617 0 0 1 93.05 94h-7.433A4.617 4.617 0 0 1 81 89.383v0c0-2.556 1.177-5.047 3.59-5.893 1.31-.459 2.923-.823 4.743-.823Zm0-12.667a5 5 0 1 1 0 10 5 5 0 0 1 0-10Zm13.334 2.667a5 5 0 1 1 0 10 5 5 0 0 1 0-10Z" stroke="#0E2C59" stroke-linecap="round" stroke-linejoin="round"/><defs><linearGradient id="b" x1="146" y1="12.5" x2="77.91" y2="155.965" gradientUnits="userSpaceOnUse"><stop stop-color="#50FFD4"/><stop offset="1" stop-color="#39E5EE"/></linearGradient><linearGradient id="c" x1="91.5" y1="42" x2="146" y2="125" gradientUnits="userSpaceOnUse"><stop stop-color="#fff"/><stop offset="1" stop-color="#39E5EE" stop-opacity="0"/></linearGradient><filter id="a" x="0" y="0" width="192" height="192" filterUnits="userSpaceOnUse" color-interpolation-filters="sRGB"><feFlood flood-opacity="0" result="BackgroundImageFix"/><feColorMatrix in="SourceAlpha" values="0 0 0 0 0 0 0 0 0 0 0 0 0 0 0 0 0 0 127 0" result="hardAlpha"/><feOffset dy="21"/><feGaussianBlur stdDeviation="23"/><feComposite in2="hardAlpha" operator="out"/><feColorMatrix values="0 0 0 0 0.00625 0 0 0 0 0.0652243 0 0 0 0 0.15 0 0 0 0.6 0"/><feBlend in2="BackgroundImageFix" result="effect1_dropShadow_6721_415"/><feBlend in="SourceGraphic" in2="effect1_dropShadow_6721_415" result="shape"/></filter></defs></svg>