<svg width="192" height="192" fill="none" xmlns="http://www.w3.org/2000/svg"><g filter="url(#a)"><path d="M46 50c0-13.807 11.193-25 25-25h50c13.807 0 25 11.193 25 25v50c0 13.807-11.193 25-25 25H71c-13.807 0-25-11.193-25-25V50Z" fill="url(#b)"/></g><path d="M146 50v50c0 13.807-11.193 25-25 25H71l75-75Z" fill="url(#c)"/><path d="M121 79.333v-18m0 31.334V95a5 5 0 0 1-5 5H76a5 5 0 0 1-5-5V61.333m14 0v0c-.92 0-1.667-.746-1.667-1.666v0c0-.92.746-1.667 1.667-1.667h16.667M85 61.333l1.164 6.987a6 6 0 0 0 5.919 5.013h10.25M85 61.333h14M102.667 50l-11 8M89 50l11.274 8m-14.607 6.667h12.666m-12 4H99m-28-7.334v-3.666a5 5 0 0 1 5-5h40a5 5 0 0 1 5 5v3.666m-50 0h9.333m31.334 0h-3.836c-.827 0-1.498.67-1.498 1.498v0c0 .687.468 1.286 1.135 1.453l3.064.766a1.498 1.498 0 0 1 1.135 1.453v0c0 .827-.671 1.497-1.498 1.497h-3.836M121 61.333h-2m-10-2V70M79 92h3.333m-6.666 2.667h10.666M94 92h3.333m-6.666 2.667h10.666M109 92h3.333m-6.666 2.667h10.666m-15.333-30a8 8 0 1 1 16 0 8 8 0 0 1-16 0Zm-2.667 24.666h-4.666a3 3 0 0 1-3-3v-4.666a3 3 0 0 1 3-3h4.666a3 3 0 0 1 3 3v4.666a3 3 0 0 1-3 3Zm15-10.666h-4.666a3 3 0 0 0-3 3v4.666a3 3 0 0 0 3 3h4.666a3 3 0 0 0 3-3v-4.666a3 3 0 0 0-3-3Zm-30 10.666h-4.666a3 3 0 0 1-3-3v-4.666a3 3 0 0 1 3-3h4.666a3 3 0 0 1 3 3v4.666a3 3 0 0 1-3 3Z" stroke="#0E2C59" stroke-linecap="round" stroke-linejoin="round"/><defs><linearGradient id="b" x1="166" y1="10" x2="32.195" y2="162.92" gradientUnits="userSpaceOnUse"><stop stop-color="#50FFD4"/><stop offset="1" stop-color="#39E5EE"/></linearGradient><linearGradient id="c" x1="91.5" y1="42" x2="146" y2="125" gradientUnits="userSpaceOnUse"><stop stop-color="#fff"/><stop offset="1" stop-color="#39E5EE" stop-opacity="0"/></linearGradient><filter id="a" x="0" y="0" width="192" height="192" filterUnits="userSpaceOnUse" color-interpolation-filters="sRGB"><feFlood flood-opacity="0" result="BackgroundImageFix"/><feColorMatrix in="SourceAlpha" values="0 0 0 0 0 0 0 0 0 0 0 0 0 0 0 0 0 0 127 0" result="hardAlpha"/><feOffset dy="21"/><feGaussianBlur stdDeviation="23"/><feComposite in2="hardAlpha" operator="out"/><feColorMatrix values="0 0 0 0 0.00784314 0 0 0 0 0.0666667 0 0 0 0 0.14902 0 0 0 0.25 0"/><feBlend in2="BackgroundImageFix" result="effect1_dropShadow_6721_416"/><feBlend in="SourceGraphic" in2="effect1_dropShadow_6721_416" result="shape"/></filter></defs></svg>