<svg width="192" height="192" fill="none" xmlns="http://www.w3.org/2000/svg"><g filter="url(#a)"><path d="M46 50c0-13.807 11.193-25 25-25h50c13.807 0 25 11.193 25 25v50c0 13.807-11.193 25-25 25H71c-13.807 0-25-11.193-25-25V50Z" fill="url(#b)"/></g><path d="M146 50v50c0 13.807-11.193 25-25 25H71l75-75Z" fill="url(#c)"/><path d="M71 58.333v19.334a5 5 0 0 0 5 5h17M71 58.333V55a5 5 0 0 1 5-5h22a5 5 0 0 1 5 5v3.333m-32 0h32m0 0V72m10 9.333h-8.42a2.247 2.247 0 0 0-2.247 2.246v0c0 1.031.702 1.93 1.702 2.18l7.264 1.816c1 .25 1.701 1.148 1.701 2.179v0A2.246 2.246 0 0 1 110.754 92h-8.421M109 77.333 106.333 96m-.666-37.667h2M115 72.667v-2m-4.667-12.334v0A4.667 4.667 0 0 1 115 63v1m0 2.667V68M78.333 85.333v2m16 10h-2m-14-4v0a4 4 0 0 0 4 4v0m-4-6v-2m6 8h2m2 0h2m8-34.666V66H95v-3.333h3.333Zm-23.333 6V72h3.333v-3.333H75Zm23.333 0V72H95v-3.333h3.333Zm-16.666 0V72H85v-3.333h-3.333Zm10 0V72h-3.334v-3.333h3.334Zm-16.667 6V78h3.333v-3.333H75Zm32.667-1.334c-7.364 0-13.334 5.97-13.334 13.334S100.303 100 107.667 100C115.03 100 121 94.03 121 86.667c0-7.364-5.97-13.334-13.333-13.334Z" stroke="#0E2C59" stroke-linecap="round" stroke-linejoin="round"/><defs><linearGradient id="b" x1="166" y1="10" x2="32.195" y2="162.92" gradientUnits="userSpaceOnUse"><stop stop-color="#50FFD4"/><stop offset="1" stop-color="#39E5EE"/></linearGradient><linearGradient id="c" x1="91.5" y1="42" x2="146" y2="125" gradientUnits="userSpaceOnUse"><stop stop-color="#fff"/><stop offset="1" stop-color="#39E5EE" stop-opacity="0"/></linearGradient><filter id="a" x="0" y="0" width="192" height="192" filterUnits="userSpaceOnUse" color-interpolation-filters="sRGB"><feFlood flood-opacity="0" result="BackgroundImageFix"/><feColorMatrix in="SourceAlpha" values="0 0 0 0 0 0 0 0 0 0 0 0 0 0 0 0 0 0 127 0" result="hardAlpha"/><feOffset dy="21"/><feGaussianBlur stdDeviation="23"/><feComposite in2="hardAlpha" operator="out"/><feColorMatrix values="0 0 0 0 0.00784314 0 0 0 0 0.0666667 0 0 0 0 0.14902 0 0 0 0.25 0"/><feBlend in2="BackgroundImageFix" result="effect1_dropShadow_6721_414"/><feBlend in="SourceGraphic" in2="effect1_dropShadow_6721_414" result="shape"/></filter></defs></svg>