<svg width="192" height="192" fill="none" xmlns="http://www.w3.org/2000/svg"><g filter="url(#a)"><path d="M46 50c0-13.807 11.193-25 25-25h50c13.807 0 25 11.193 25 25v50c0 13.807-11.193 25-25 25H71c-13.807 0-25-11.193-25-25V50Z" fill="url(#b)"/></g><path d="M146 50v50c0 13.807-11.193 25-25 25H71l75-75Z" fill="url(#c)"/><path d="M71 56.667V54a4 4 0 0 1 4-4h28.667a4 4 0 0 1 4 4v2.667m-36.667 0v20.666a4 4 0 0 0 4 4h10.667M71 56.667h36.667m0 0V69m-22 6.667V73a4 4 0 0 1 4-4h18m-22 6.667H121m-35.333 0v5.666M121 75.667v20.666a4 4 0 0 1-4 4H88.101a2.434 2.434 0 0 1-2.434-2.434v0M121 75.667V73a4 4 0 0 0-4-4h-9.333m-22 12.333V86M74.333 64.667l1-2m4.334 2-1-2m-3.334 0L77 59.333l1.667 3.334m-3.334 0h3.334m11-3.334h10m-10 5.334h8m-8-2.667h14.666M85.667 97.899a7 7 0 1 1-10-9.798 7 7 0 0 1 10 9.798ZM82 88.667l-2.667 8.666M83 90.667h-3.717a.95.95 0 0 0-.95.95v0a.95.95 0 0 0 .69.913l3.288.94a.95.95 0 0 1 .689.913v0a.95.95 0 0 1-.95.95h-3.717m26.667-42a.666.666 0 1 0-1.333 0 .666.666 0 0 0 1.333 0Zm-3.333 0a.667.667 0 1 0-1.334.001.667.667 0 0 0 1.334 0Zm-26.334 0a.667.667 0 1 0-1.333 0 .667.667 0 0 0 1.333 0Zm43 19a.666.666 0 1 0-1.332 0 .666.666 0 0 0 1.332 0Zm-3.333 0a.666.666 0 1 0-1.333 0 .666.666 0 0 0 1.333 0Zm-25 0a.667.667 0 1 0-1.333 0 .667.667 0 0 0 1.333 0Zm-8.227-13v5.334h1.894a2 2 0 0 0 2-2v-1.334a2 2 0 0 0-2-2h-1.894ZM118 82v0a3 3 0 0 1-3 3H91.667a3 3 0 0 1-3-3v0a3 3 0 0 1 3-3H115a3 3 0 0 1 3 3Z" stroke="#0E2C59" stroke-linecap="round" stroke-linejoin="round"/><defs><linearGradient id="b" x1="166" y1="10" x2="32.195" y2="162.92" gradientUnits="userSpaceOnUse"><stop stop-color="#50FFD4"/><stop offset="1" stop-color="#39E5EE"/></linearGradient><linearGradient id="c" x1="91.5" y1="42" x2="146" y2="125" gradientUnits="userSpaceOnUse"><stop stop-color="#fff"/><stop offset="1" stop-color="#39E5EE" stop-opacity="0"/></linearGradient><filter id="a" x="0" y="0" width="192" height="192" filterUnits="userSpaceOnUse" color-interpolation-filters="sRGB"><feFlood flood-opacity="0" result="BackgroundImageFix"/><feColorMatrix in="SourceAlpha" values="0 0 0 0 0 0 0 0 0 0 0 0 0 0 0 0 0 0 127 0" result="hardAlpha"/><feOffset dy="21"/><feGaussianBlur stdDeviation="23"/><feComposite in2="hardAlpha" operator="out"/><feColorMatrix values="0 0 0 0 0.00784314 0 0 0 0 0.0666667 0 0 0 0 0.14902 0 0 0 0.25 0"/><feBlend in2="BackgroundImageFix" result="effect1_dropShadow_6721_418"/><feBlend in="SourceGraphic" in2="effect1_dropShadow_6721_418" result="shape"/></filter></defs></svg>