<svg width="192" height="192" fill="none" xmlns="http://www.w3.org/2000/svg"><g filter="url(#a)"><path d="M46 50c0-13.807 11.193-25 25-25h50c13.807 0 25 11.193 25 25v50c0 13.807-11.193 25-25 25H71c-13.807 0-25-11.193-25-25V50Z" fill="url(#b)"/></g><path d="M146 50v50c0 13.807-11.193 25-25 25H71l75-75Z" fill="url(#c)"/><path d="m112.133 62.733 2.134-.8a3.418 3.418 0 0 0 2.066-4.333A3.418 3.418 0 0 0 112 55.533l-2.867 1.067m0 0-2.333.867m2.333-.867a3.419 3.419 0 0 0 2.067-4.333 3.418 3.418 0 0 0-4.333-2.067l-5.667 2.067c-4.8 1.8-6.4 3.066-9.133 5.2M109.8 63.6l2.4-.867a3.418 3.418 0 0 1 4.333 2.067 3.418 3.418 0 0 1-2.066 4.333l-2.134.8 1.467-.533a3.418 3.418 0 0 1 4.333 2.067 3.418 3.418 0 0 1-2.066 4.333l-1.4.533-4.2 1.334s-3.2 1.333-8.6 3.933c-1.467.733-6.2 3.667-7.4 4.733m-18.467-6L71 86m23.467.333c-4.734 4.2-11.6 13.667-11.6 13.667m11.6-13.667s3.533.934 5.2 2.667c1.666 1.733 11.266 11 11.266 11M114 76.533s1.2 2.734 2.467 4.4C117.733 82.6 121 86 121 86m-17.533-34.6s-.934-1.4-4-1.4c-3.067 0-6.934 1.267-8.4 1.533-1.467.267-5.867-.733-6.134.267-.266 1 1 3.6 1 3.6M90.4 71.467l-11.333-4.134A3.418 3.418 0 0 1 77 63a3.418 3.418 0 0 1 4.333-2.067l11.4 4.134c1.8.666 2.667 2.6 2.067 4.333-.667 1.8-2.6 2.667-4.4 2.067Zm-1.467 3.066a3.315 3.315 0 0 0-2.066-4.333L81.2 68.133a3.315 3.315 0 0 0-4.333 2.067 3.315 3.315 0 0 0 2.066 4.333L84.6 76.6c1.733.6 3.667-.333 4.333-2.067ZM94.267 62a3.315 3.315 0 0 0-2.067-4.333L86.533 55.6a3.315 3.315 0 0 0-4.333 2.067A3.315 3.315 0 0 0 84.267 62l5.666 2.067c1.734.6 3.734-.334 4.334-2.067ZM83 79.6a3.315 3.315 0 0 0-2.067-4.333l-1.4-.534A3.315 3.315 0 0 0 75.2 76.8a3.315 3.315 0 0 0 2.067 4.333l1.4.534C80.4 82.267 82.4 81.4 83 79.6Z" stroke="#0E2C59" stroke-miterlimit="10" stroke-linecap="round" stroke-linejoin="round"/><defs><linearGradient id="b" x1="146" y1="12.5" x2="77.91" y2="155.965" gradientUnits="userSpaceOnUse"><stop stop-color="#50FFD4"/><stop offset="1" stop-color="#39E5EE"/></linearGradient><linearGradient id="c" x1="91.5" y1="42" x2="146" y2="125" gradientUnits="userSpaceOnUse"><stop stop-color="#fff"/><stop offset="1" stop-color="#39E5EE" stop-opacity="0"/></linearGradient><filter id="a" x="0" y="0" width="192" height="192" filterUnits="userSpaceOnUse" color-interpolation-filters="sRGB"><feFlood flood-opacity="0" result="BackgroundImageFix"/><feColorMatrix in="SourceAlpha" values="0 0 0 0 0 0 0 0 0 0 0 0 0 0 0 0 0 0 127 0" result="hardAlpha"/><feOffset dy="21"/><feGaussianBlur stdDeviation="23"/><feComposite in2="hardAlpha" operator="out"/><feColorMatrix values="0 0 0 0 0.00625 0 0 0 0 0.0652243 0 0 0 0 0.15 0 0 0 0.6 0"/><feBlend in2="BackgroundImageFix" result="effect1_dropShadow_6721_419"/><feBlend in="SourceGraphic" in2="effect1_dropShadow_6721_419" result="shape"/></filter></defs></svg>