<svg width="192" height="192" fill="none" xmlns="http://www.w3.org/2000/svg"><g filter="url(#a)"><path d="M46 50c0-13.807 11.193-25 25-25h50c13.807 0 25 11.193 25 25v50c0 13.807-11.193 25-25 25H71c-13.807 0-25-11.193-25-25V50Z" fill="url(#b)"/></g><path d="M146 50v50c0 13.807-11.193 25-25 25H71l75-75Z" fill="url(#c)"/><path d="m80 66.667-8-4L77.333 52l5.334-2h4.666l5 4M80 61v31h24.667V61m0 5.667 8-4L107.333 52 102 50h-4.667l-5 4m0 0v7m20.334 13.667 8-4L115.333 60l-2.666-1m0 10v31H88v-6" stroke="#0E2C59" stroke-linecap="round" stroke-linejoin="round"/><defs><linearGradient id="b" x1="146" y1="12.5" x2="77.91" y2="155.965" gradientUnits="userSpaceOnUse"><stop stop-color="#50FFD4"/><stop offset="1" stop-color="#39E5EE"/></linearGradient><linearGradient id="c" x1="91.5" y1="42" x2="146" y2="125" gradientUnits="userSpaceOnUse"><stop stop-color="#fff"/><stop offset="1" stop-color="#39E5EE" stop-opacity="0"/></linearGradient><filter id="a" x="0" y="0" width="192" height="192" filterUnits="userSpaceOnUse" color-interpolation-filters="sRGB"><feFlood flood-opacity="0" result="BackgroundImageFix"/><feColorMatrix in="SourceAlpha" values="0 0 0 0 0 0 0 0 0 0 0 0 0 0 0 0 0 0 127 0" result="hardAlpha"/><feOffset dy="21"/><feGaussianBlur stdDeviation="23"/><feComposite in2="hardAlpha" operator="out"/><feColorMatrix values="0 0 0 0 0.00625 0 0 0 0 0.0652243 0 0 0 0 0.15 0 0 0 0.6 0"/><feBlend in2="BackgroundImageFix" result="effect1_dropShadow_6721_417"/><feBlend in="SourceGraphic" in2="effect1_dropShadow_6721_417" result="shape"/></filter></defs></svg>