<svg xmlns="http://www.w3.org/2000/svg" xmlns:xlink="http://www.w3.org/1999/xlink" viewBox="0 0 625 320"><defs><style>.cls-1{isolation:isolate;}.cls-2{fill:url(#linear-gradient);}.cls-3{fill:#e6e4ff;}.cls-26,.cls-4{opacity:0.5;}.cls-4{fill:url(#linear-gradient-2);}.cls-12,.cls-14,.cls-5{fill:#fff;}.cls-5{opacity:0.2;mix-blend-mode:overlay;}.cls-6{fill:#21146f;}.cls-7{fill:#ec5076;}.cls-8{fill:#000c4f;}.cls-9{fill:#876cd1;}.cls-10{opacity:0.58;}.cls-11,.cls-13{fill:none;stroke:#fff;stroke-linecap:round;stroke-linejoin:round;}.cls-11{stroke-width:0.79px;}.cls-12{opacity:0.4;}.cls-13{stroke-width:0.75px;}.cls-15{fill:#482c99;}.cls-16,.cls-21{fill:#fae8ee;}.cls-17{fill:#9c92ff;}.cls-18{fill:#796bff;}.cls-19,.cls-26{fill:#2b1287;}.cls-20{fill:#ec5177;}.cls-21{opacity:0.36;}.cls-22{fill:#4c38ff;}.cls-23{fill:#e3e1ff;opacity:0.47;}.cls-24{fill:#250a71;}.cls-25{fill:#58c0d6;}.cls-27{fill:#493198;}</style><linearGradient id="linear-gradient" x1="313.78" y1="356.62" x2="311.96" y2="-7.14" gradientUnits="userSpaceOnUse"><stop offset="0.09" stop-color="#ec5076"/><stop offset="0.12" stop-color="#ea517b"/><stop offset="0.38" stop-color="#d45fa8"/><stop offset="0.52" stop-color="#cc64b9"/><stop offset="0.56" stop-color="#be5fb5"/><stop offset="0.84" stop-color="#6b3fa1"/><stop offset="0.97" stop-color="#4a3299"/></linearGradient><linearGradient id="linear-gradient-2" x1="741.19" y1="296.67" x2="742.02" y2="47.46" gradientTransform="translate(-428.59)" gradientUnits="userSpaceOnUse"><stop offset="0.41" stop-color="#ec5076"/><stop offset="0.47" stop-color="#d04b7c"/><stop offset="0.63" stop-color="#883e8c"/><stop offset="0.74" stop-color="#5b3595"/><stop offset="0.8" stop-color="#4a3299"/></linearGradient></defs><g class="cls-1"><g id="Layer_30" data-name="Layer 30"><rect class="cls-2" x="0.55" y="0.07" width="624.49" height="319.94"/><circle class="cls-3" cx="544" cy="62.14" r="1.32"/><circle class="cls-3" cx="601.17" cy="191.36" r="2.31"/><circle class="cls-3" cx="303.08" cy="138.48" r="2.31"/><circle class="cls-3" cx="67.45" cy="39.67" r="3.3"/><circle class="cls-3" cx="268.05" cy="206.56" r="2.31"/><circle class="cls-3" cx="406.19" cy="103.45" r="1.65"/><circle class="cls-3" cx="467.66" cy="26.78" r="2.97"/><circle class="cls-3" cx="13.25" cy="216.81" r="1.98"/><circle class="cls-3" cx="409.16" cy="251.18" r="2.64"/><circle class="cls-3" cx="183.78" cy="26.45" r="1.98"/><path class="cls-4" d="M545.65.49C521.89,30.76,483.54,69.24,428,84.43,326.21,112.26,259.42,36.46,160.31,56,117.24,64.5,59.38,92.72.36,182.91v97.17c25-58.39,67.14-130.72,134.43-144.68,68.89-14.29,113.61,43.07,208.61,68.66,61.08,16.46,153.18,22.54,282.23-31.72V.74Z"/><path class="cls-5" d="M625,295.11v-113q-56.82-91-113.66-182L495.81,1.63q33.7,80.82,67.4,161.64l.76,22.32Q473.85,92.28,383.72-1L368,.15q82.44,135.59,164.9,271.17-32.56-67.42-65.14-134.84L576.85,306.15l-27.27-83.94L617,292.76Z"/><path class="cls-6" d="M560.72.33V45.52c-62.65-5.25-127.53-8.81-194-10.44q-61.46-1.52-120.93-.79V.33H235.07V34.42C152.93,35.65,74.14,40,0,47v9.77c48-4.19,132.63-10.29,235-12.14V198.27C153,199.92,74.17,204.63,0,212v9.78c48.7-4.48,133.18-11,235-13.32l.24,111.58,10.41.42q0-56.12.07-112.23c38.88-.78,80.12-.94,122.77-.16,65.18,1.2,130,5,130,5q31.41,1.81,62.14,4.2,0,51.19-.05,102.37l9.35.25,1.43-101.74q12.69.87,26.06,2.2,14.67,1.49,28.43,3.38v-9.95q-13.94-1.64-28.43-3-13.25-1.26-26.06-2.23V56.09q26.67,2.29,52.81,5V51.5q-26.1-2.73-52.81-5V.33Zm0,207.3c-63.1-4.94-128.46-8.15-195.44-9.42q-60.7-1.14-119.49-.13V44.46c39.29-.59,81-.53,124.2.51,65.07,1.56,129.79,5.71,129.79,5.71q30.79,2,60.94,4.48Z"/><path class="cls-7" d="M577.06,48.11q23.81,2.09,47.2,4.46V51.5q-23.34-2.45-47.2-4.53Z"/><path class="cls-7" d="M243.25.82V35.63q60.9-.71,124,.81c68.14,1.68,134.64,5.32,198.87,10.7V.82L560.72.33V45.52c-62.65-5.25-127.53-8.81-194-10.44q-61.46-1.52-120.93-.79V.33H235.07V.82Z"/><path class="cls-7" d="M565.84,55.79l-5.12-.63V207.63c-63.1-4.94-128.46-8.15-195.44-9.42q-60.7-1.14-119.49-.13V46l-2.54,0V203.52Q273.34,203,304,203s28.9,0,61.75.62C441.3,205,551,209.88,563.66,210.45Z"/><path class="cls-7" d="M232.26,203.72v-5.39C151.15,200,73.32,204.71,0,212v5C73.48,209.88,151.28,205.34,232.26,203.72Z"/><path class="cls-7" d="M243.25,213.94l-.45,106.53h2.92Q244.49,267.2,243.25,213.94Z"/><path class="cls-7" d="M232.26,35.76V34.47C151.13,35.75,73.29,40.05,0,47v.86C73.46,41.13,151.26,37,232.26,35.76Z"/></g><g id="Layer_31" data-name="Layer 31"><polygon class="cls-8" points="599.94 273.39 599.94 320.86 558.92 320.86 599.94 273.39"/><path class="cls-9" d="M-.18,319.88H570c19.42-13.42,29.92-27.75,29.92-42.62,0-75.16-267.82-136.21-600.12-137.35Z"/><path class="cls-8" d="M-.18,215.34V319.88h440c4.72-4.69,7.18-9.49,7.18-14.39C447,262.48,257.62,226.25-.18,215.34Z"/></g><g id="Layer_32" data-name="Layer 32"><g class="cls-10"><path class="cls-11" d="M279.4,222.62l56.84-25.23c53.07-1.9,118.53,6.05,169.2,44.94q4,3.06,7.72,6.28l-27.29,8.84-34,11c-.69-.58-1.72-1.44-3-2.46,0,0-20.91-16.68-54-27.74C372.16,230.68,331,222.77,279.4,222.62Z"/><path class="cls-11" d="M287.87,219c35-2.39,93.86-.71,149.82,31.23a220.59,220.59,0,0,1,23.43,15.43"/><path class="cls-11" d="M300.54,213.3c31.29-2.46,88.85-2.1,144.3,28.88a213.12,213.12,0,0,1,28.09,18.75"/><path class="cls-11" d="M312,208.49c29.47-2.51,83.94-2.75,140,24.3A237.32,237.32,0,0,1,490.38,256"/><path class="cls-11" d="M325.87,202.24A264.58,264.58,0,0,1,420,210.88a256,256,0,0,1,84,40.7"/></g><path class="cls-12" d="M455.52,117.88V284.17c48.25-11.18,78.87-27.82,78.87-46.41V71.48C534.39,90.07,503.77,106.71,455.52,117.88Z"/><path class="cls-11" d="M455.52,117.88V284.17c48.25-11.18,78.87-27.82,78.87-46.41V71.48C534.39,90.07,503.77,106.71,455.52,117.88Z"/><path class="cls-12" d="M419.61,170.61c-12.3-4.34-22.25-18.74-22.19-32.09s10.11-20.69,22.41-16.34,22.26,18.74,22.2,32.1S431.91,175,419.61,170.61Zm.21-45.82c-11-3.88-19.94,2.66-20,14.58s8.83,24.76,19.81,28.63,19.94-2.66,20-14.57S430.79,128.66,419.82,124.79Z"/><path class="cls-12" d="M419.59,175.71c-14.89-5.26-26.94-22.69-26.86-38.85l2.07.73c-.07,14.92,11.06,31,24.8,35.87s25-3.34,25-18.26-11.06-31-24.8-35.87v-2.25c14.88,5.26,26.93,22.69,26.86,38.85S434.48,181,419.59,175.71Z"/><path class="cls-12" d="M442.09,178.91l-1.46-2.11c11.65-8.5,11.75-29,.21-45.67l1.47-1.08C454.65,147.9,454.55,169.82,442.09,178.91Z"/><polygon class="cls-13" points="461.82 158.38 450.62 154.42 450.62 154.2 461.83 158.16 461.82 158.38"/><polygon class="cls-13" points="467.73 170.14 445.16 162.17 445.16 161.94 467.73 169.92 467.73 170.14"/><polygon class="cls-13" points="473.89 180.97 435.6 167.44 435.6 167.21 473.89 180.74 473.89 180.97"/><path class="cls-14" d="M460.6,158a.88.88,0,0,1,1.23-.9,2,2,0,0,1,1.22,1.77.87.87,0,0,1-1.23.89A2,2,0,0,1,460.6,158Z"/><path class="cls-14" d="M466.5,169.42a.87.87,0,0,1,1.23-.89,2,2,0,0,1,1.22,1.76.87.87,0,0,1-1.23.89A2,2,0,0,1,466.5,169.42Z"/><path class="cls-14" d="M472.67,180.42a.88.88,0,0,1,1.23-.9,2,2,0,0,1,1.22,1.76.88.88,0,0,1-1.23.9A2,2,0,0,1,472.67,180.42Z"/><path class="cls-14" d="M428.77,144.18l-1.53-.54V141.5a11.83,11.83,0,0,0-7.41-10.43c-4.08-1.42-7.41,1-7.41,5.28v2.14L411,138a1,1,0,0,0-1.46,1.08v15.51a2.37,2.37,0,0,0,1.46,2.09l17.74,6.17a1,1,0,0,0,1.46-1.08v-15.5A2.35,2.35,0,0,0,428.77,144.18Zm-7.41,9.12a1,1,0,0,1-1.46,1.08,2.37,2.37,0,0,1-1.46-2.1v-4.72a1,1,0,0,1,1.46-1.08,2.35,2.35,0,0,1,1.46,2.1Zm3-10.67-9-3.13v-2.13c0-2.58,2-4,4.49-3.12a7.11,7.11,0,0,1,4.49,6.24Z"/><path class="cls-12" d="M534.39,71.48c0-33.65-100.28-60.92-224-60.92-22.64,0-44.48.92-65.08,2.61V179.46c20.6-1.7,42.44-2.62,65.08-2.62,123.69,0,224,27.28,224,60.92V73.4h-.13A15.48,15.48,0,0,0,534.39,71.48Z"/><path class="cls-11" d="M534.39,71.48c0-33.65-100.28-60.92-224-60.92-22.64,0-44.48.92-65.08,2.61V179.46c20.6-1.7,42.44-2.62,65.08-2.62,123.69,0,224,27.28,224,60.92V73.4h-.13A15.48,15.48,0,0,0,534.39,71.48Z"/><circle class="cls-12" cx="339.98" cy="66.72" r="45.5"/><circle class="cls-11" cx="340.66" cy="67.06" r="45.5"/><circle class="cls-13" cx="340.66" cy="67.06" r="31.91"/><path class="cls-14" d="M357.48,55.88a7.89,7.89,0,0,0-7,7.22L329.8,65.49,316.8,67a.81.81,0,0,0-.71.89l.21,1.8.86,7.54,1.63-.19-.8-6.88.95-.11.79,6.88.63-.07L320,73.49l.95-.11.38,3.35,1.89-.21-.77-6.69.94-.11.77,6.69,1.68-.2-.57-4.93.94-.1.57,4.93,1.47-.17-.49-4.22.95-.11.48,4.22,1.81-.21-.78-6.74a.8.8,0,0,1,.71-.88l19.85-2.29a7.89,7.89,0,1,0,6.73-9.83Zm3.25,13.21a.76.76,0,0,1-1.05-.61l-1.19-9.57a.76.76,0,0,1,.87-.85,5.79,5.79,0,0,1,1.37,11Z"/><line class="cls-11" x1="410.38" y1="40.15" x2="410.38" y2="94.36"/><path class="cls-11" d="M415.07,39.72S491.48,41,515.39,70.88"/><path class="cls-11" d="M413.79,50.82c1.28,0,78.55,6.4,96.47,33.3"/><path class="cls-11" d="M415.07,64.48s69.58,4.7,86.66,31.59"/><path class="cls-11" d="M415.93,77.71s64.45,6.41,74.27,23.91"/><path class="cls-11" d="M416.78,91s56.35,8.53,60.62,16.64"/><path class="cls-11" d="M535,105a152,152,0,0,1-26.89,15.8,153.93,153.93,0,0,1-22.2,8.11v28.17"/><path class="cls-11" d="M535,143.88a152,152,0,0,1-26.89,15.79,151.57,151.57,0,0,1-22.2,8.11V196"/><path class="cls-11" d="M535,182.3a151.9,151.9,0,0,1-49.09,23.9v28.17"/></g><g id="Layer_35" data-name="Layer 35"><rect class="cls-15" x="199.94" y="298.76" width="180.86" height="21.37"/><path class="cls-16" d="M384.37,296.49c.05.88.11,1.75.17,2.63a5.63,5.63,0,0,1-5.36,6L200.8,313.2l1-7.65Z"/><path class="cls-17" d="M201.54,294.26l172-6.83a4.11,4.11,0,0,1,2.58.77l6.66,4.76a4.16,4.16,0,0,1-2.2,7.54l-178,9.1a4.16,4.16,0,0,1-4.18-5.42l3.18-9.92"/></g><g id="Layer_33" data-name="Layer 33"><path class="cls-16" d="M271,64.61A61.82,61.82,0,0,1,271.51,94c-1.79,7.71-4.81,20.75-16.37,28.4s-30.78,9.21-41.4-1.44C201,108.18,206.63,84.1,219,71.35,231.58,58.44,252.72,55.45,271,64.61Z"/><path class="cls-18" d="M218.42,114.73c5.88,1.7,12.28,3.29,19.15,4.65a230.62,230.62,0,0,0,23.49,3.38,2.1,2.1,0,0,1,1.32,3.57c-1.24,1.25-2.53,2.51-3.89,3.76a130.46,130.46,0,0,1-26.62,19,66.82,66.82,0,0,1,8.72,7.6c14.81,15.33,17,32.41,25.14,64.42,2.21,8.75,5.82,22.42,11,39.37l64.94-11.61c18.43-4.24,33.19-.68,35.09,5.23s-8.38,18-27.23,25.14a398.13,398.13,0,0,1-49.76,21.48c-29.34,10.33-39.8,10.08-48.09,5.66a33.41,33.41,0,0,1-13.18-13.52l-44,2.76c-6.27-13.62-33.2-75.87-5.23-138.41A146.23,146.23,0,0,1,218.42,114.73Z"/><path class="cls-19" d="M231.87,149.12l-16.43-8.19a43.15,43.15,0,0,0-16.11,9.59c-13.1,12.57-14.18,31-14.19,48.72,0,21.5,1.52,54.29,9.35,96.41l44-2.76c-3.17-5.42-6.28-11.19-9.25-17.32A260.36,260.36,0,0,1,207,206.14c-6.24-30-.66-53.19,11.39-57.91C220.87,147.26,225.16,146.48,231.87,149.12Z"/><path class="cls-20" d="M229.59,26.68a46,46,0,0,0-22.35,2.12C182.33,38,173.54,69.08,166,97.22c-5.46,20.35-11.56,53.05-7.71,95a71.87,71.87,0,0,0,32,14.95,68.46,68.46,0,0,0,14.71,1.1c1.77-10.91,4.43-26.69,8.09-46,.88-4.63,1.8-9.47,2.94-15.08,2.53-12.4,6.38-29.69,12.14-50.74A11.53,11.53,0,0,1,223,91.34c-2.15-4.52-1.36-11.47,3.68-14.34,3.62-2.07,8.49-1.5,12.13,1.47,4.49,14.65,8.44,27.56,8.39,27.58l0-.06c-.53-1.6-.53-29.28-.53-29.28l29.67-1.55a45.59,45.59,0,0,0-2.94-23.54,55.66,55.66,0,0,1,5.88,8.09,54.7,54.7,0,0,1,4.11,8.48c.66-18.08-8.68-34.32-23.42-41C246.17,21,232.89,25.46,229.59,26.68Z"/><path class="cls-21" d="M247.16,106l0,.06a1.28,1.28,0,0,0-.06-.25A.78.78,0,0,0,247.16,106Z"/><path class="cls-21" d="M246.24,79.76s0,15.32.22,23.82c.33,1.09.55,1.85.66,2.22-.39-2.27-.47-19.08-.49-26.06Z"/><path class="cls-21" d="M275.29,57.51c-.79-1-1.58-2-2.32-2.83a45.82,45.82,0,0,1,3.31,14.71,43.81,43.81,0,0,1-.06,5.77h.08a45.14,45.14,0,0,0-1-17.65Z"/><path class="cls-16" d="M259.93,27.21c-13.76-6.23-27-1.75-30.34-.53a46,46,0,0,0-22.35,2.12C182.33,38,173.54,69.08,166,97.22a258.83,258.83,0,0,0-7,36.14,257.86,257.86,0,0,1,6.58-33.09c7.56-28.14,16.35-59.18,41.26-68.41a46,46,0,0,1,22.36-2.13c3.29-1.22,16.57-5.7,30.34.53,13.61,6.16,22.62,20.5,23.39,36.91.14.34.29.7.41,1C284,50.11,274.67,33.87,259.93,27.21Z"/><path class="cls-9" d="M231.46,30.63s6.65.41,15.17,46.08h3.75S237.67,21.17,231.46,30.63Z"/><path class="cls-22" d="M336.06,248.31a60.6,60.6,0,0,0-6.88,7,59.89,59.89,0,0,0-6.64,9.66,58.48,58.48,0,0,1,25.14,19.51l42.72-20.5a33.52,33.52,0,0,0,8.79-.42c3-.56,6.2-1.59,16.7-7.24,2.52-1.36,6-3.26,10.06-5.64,4.57-1.35,7.53-4.45,7.44-7.44a5.14,5.14,0,0,0-1-2.82,4.44,4.44,0,0,0-.8-7.64,5.45,5.45,0,0,0,.6-1.41,5,5,0,0,0,.2-1.41,11.29,11.29,0,0,0,7.25,0c.9-.33,2.21-.82,2.41-1.81.15-.73-.42-1.77-3-3.42-2.24-1.42-6.89-3.87-15.89-5.83a83.12,83.12,0,0,0-9.86.2,86,86,0,0,0-16.81,3,10.34,10.34,0,0,0-5.31,3.55l-11.68,14.76Z"/><path class="cls-23" d="M378.21,243.22l12.28-15.54a10.89,10.89,0,0,1,5.59-3.72,90,90,0,0,1,28.06-3.39c9.46,2.07,14.36,4.64,16.72,6.14.43.28.8.54,1.13.78-.22-.67-1-1.57-3-2.8-2.24-1.42-6.89-3.87-15.89-5.83a83.12,83.12,0,0,0-9.86.2,86,86,0,0,0-16.81,3,10.34,10.34,0,0,0-5.31,3.55l-11.68,14.76-43.41,7.93c-1.11.95-2.28,2-3.48,3.24Z"/><path class="cls-24" d="M414.2,228.07c.08.25,3.77-.56,12-1.11,1.44-.1,4-.24,5.43,1.39a3.78,3.78,0,0,1,.79,1.57,9.16,9.16,0,0,0,7.25,0,7.72,7.72,0,0,0,2.41-1.81,10.29,10.29,0,0,1-6.42.93,9.2,9.2,0,0,1-1.81-.55c-.29-.31-.72-.75-1.25-1.26,0,0-.92-.88-1.67-1.53C428.81,223.91,414,227.56,414.2,228.07Z"/><path class="cls-24" d="M431.58,232.74a7.41,7.41,0,0,0-1-.36,8.29,8.29,0,0,0-1.67-.28c-1-.06-6.41,1.68-13.49,4.87,6-1.55,10.56-2.5,12.52-2.78a15.32,15.32,0,0,1,3.34-.14,15.49,15.49,0,0,1,2.11.31C433.23,234.17,433,234,431.58,232.74Z"/><path class="cls-24" d="M432.5,240.14a4.45,4.45,0,0,0-1.92-.86c-.77-.14-5,1.12-10.75,3.67a86.69,86.69,0,0,1,9.77-1.68,9.14,9.14,0,0,1,2.54.15,8.83,8.83,0,0,1,1.56.49C433.58,241.71,433.45,241.5,432.5,240.14Z"/><path class="cls-16" d="M226.5,198.69a1.68,1.68,0,0,1,1.33-2.06,119.91,119.91,0,0,0,28.79-8.83,1.67,1.67,0,0,1,2.3,1.11l3.74,14.41a1.67,1.67,0,0,1-.83,1.9,84,84,0,0,1-16,6.75,85.08,85.08,0,0,1-13.67,3,1.68,1.68,0,0,1-1.85-1.26Z"/><path class="cls-25" d="M229.87,199.81a111.4,111.4,0,0,0,16.56-4,109.19,109.19,0,0,0,11.82-4.6l.83,2.34c-3.53,1.56-7.45,3.1-11.74,4.51a125.14,125.14,0,0,1-16.86,4.29C230.28,201.52,230.07,200.67,229.87,199.81Z"/><path class="cls-25" d="M231.15,204.26a111,111,0,0,0,28.38-8.58l.83,2.33c-3.53,1.56-7.45,3.1-11.74,4.51a126.81,126.81,0,0,1-16.86,4.3C231.55,206,231.35,205.11,231.15,204.26Z"/><path class="cls-25" d="M232.36,208.92a110.72,110.72,0,0,0,28.37-8.58l.83,2.34c-3.53,1.56-7.45,3.1-11.74,4.51A127.83,127.83,0,0,1,233,211.48Z"/><polygon class="cls-26" points="276.73 260.51 279.56 275.5 313.64 253.85 276.73 260.51"/></g><g id="Layer_34" data-name="Layer 34"><path class="cls-17" d="M157.58,44.32a16.4,16.4,0,0,0-11.19,6.75L97.45,120a8.11,8.11,0,0,0,8.44,12.6l38.18-1.82,74.07-91.19Z"/><path class="cls-12" d="M98.38,122.74l48.94-68.87a16.37,16.37,0,0,1,11.2-6.75l57.13-4.52,2.49-3.06-60.56,4.78a16.4,16.4,0,0,0-11.19,6.75L97.45,120a7.94,7.94,0,0,0-.51,8.56A7.91,7.91,0,0,1,98.38,122.74Z"/><path class="cls-27" d="M218.14,39.54l-22.38,3a16.33,16.33,0,0,0-11.19,6.74l-48.94,68.88a8.11,8.11,0,0,0,8.44,12.6l25.56-5.92a9.39,9.39,0,0,0,5.36-3.48L226.3,53.55A8.79,8.79,0,0,0,218.14,39.54Z"/><path class="cls-27" d="M203.46,319.81l-6-148.92a36.87,36.87,0,0,0-36.84-35.39h-26.1a36.87,36.87,0,0,0-36.84,35.39l-6,148.92Z"/><path class="cls-17" d="M165.2,319.81l-6-148.92a36.82,36.82,0,0,0-18.71-30.61,24.39,24.39,0,0,0-24.11,0,36.81,36.81,0,0,0-18.7,30.61l-6,148.92Z"/></g></g></svg>