<svg width="38" height="33" viewBox="0 0 38 33" fill="none" xmlns="http://www.w3.org/2000/svg">
<path d="M37.2412 24.8377L23.9848 2.74836C23.4488 1.9058 22.7103 1.21239 21.8373 0.732077C20.9644 0.251763 19.9852 0 18.9899 0C17.9947 0 17.0155 0.251763 16.1425 0.732077C15.2696 1.21239 14.5311 1.9058 13.995 2.74836L0.7387 24.8377C0.270413 25.6221 0.0158897 26.5164 0.000720163 27.431C-0.0144494 28.3455 0.210269 29.2479 0.652283 30.0475C1.16332 30.9475 1.90301 31.695 2.79577 32.2137C3.68853 32.7324 4.70234 33.0036 5.73359 32.9997H32.2463C33.2708 33.0107 34.28 32.7499 35.1721 32.2438C36.0643 31.7377 36.8078 31.004 37.3276 30.1169C37.7826 29.309 38.0145 28.3937 37.9993 27.4655C37.9841 26.5374 37.7224 25.6301 37.2412 24.8377ZM18.9899 26.0533C18.6481 26.0533 18.314 25.9515 18.0297 25.7607C17.7455 25.5698 17.524 25.2986 17.3932 24.9813C17.2624 24.664 17.2281 24.3148 17.2948 23.978C17.3615 23.6411 17.5261 23.3317 17.7678 23.0888C18.0095 22.8459 18.3175 22.6805 18.6528 22.6135C18.988 22.5465 19.3355 22.5809 19.6514 22.7123C19.9672 22.8438 20.2371 23.0664 20.427 23.3519C20.6169 23.6375 20.7183 23.9733 20.7183 24.3167C20.7183 24.7773 20.5362 25.219 20.2121 25.5447C19.8879 25.8704 19.4483 26.0533 18.9899 26.0533ZM20.7183 19.107C20.7183 19.5676 20.5362 20.0093 20.2121 20.3349C19.8879 20.6606 19.4483 20.8436 18.9899 20.8436C18.5316 20.8436 18.0919 20.6606 17.7678 20.3349C17.4437 20.0093 17.2616 19.5676 17.2616 19.107V12.1606C17.2616 11.7001 17.4437 11.2584 17.7678 10.9327C18.0919 10.607 18.5316 10.4241 18.9899 10.4241C19.4483 10.4241 19.8879 10.607 20.2121 10.9327C20.5362 11.2584 20.7183 11.7001 20.7183 12.1606V19.107Z" fill="black"/>
</svg>
