<svg xmlns="http://www.w3.org/2000/svg" xmlns:xlink="http://www.w3.org/1999/xlink" viewBox="0 0 625 320"><defs><style>.cls-1{isolation:isolate;}.cls-2{fill:url(#linear-gradient);}.cls-23,.cls-29,.cls-3,.cls-4,.cls-41{opacity:0.5;}.cls-3{fill:url(#linear-gradient-2);}.cls-4{fill:url(#linear-gradient-3);}.cls-30,.cls-34,.cls-35,.cls-5{fill:#fff;}.cls-16,.cls-5{opacity:0.2;}.cls-5{mix-blend-mode:overlay;}.cls-6{fill:#e6e4ff;}.cls-7{fill:#493198;}.cls-8{fill:#21146f;}.cls-9{fill:#ec5076;}.cls-10{fill:#e3e1ff;}.cls-11{fill:#796bff;}.cls-12,.cls-16,.cls-41,.cls-43{fill:#2b1287;}.cls-13,.cls-28,.cls-29{fill:#fae8ee;}.cls-14{fill:#4a38ff;}.cls-15{fill:#9d5ed4;}.cls-17,.cls-18,.cls-19,.cls-20,.cls-36,.cls-53,.cls-56{fill:none;stroke-linecap:round;stroke-linejoin:round;}.cls-17,.cls-36,.cls-53{stroke:#fff;}.cls-17,.cls-18,.cls-19,.cls-20{stroke-width:0.75px;}.cls-18,.cls-19,.cls-20{stroke:#796bff;}.cls-19{stroke-dasharray:5.37 5.37;}.cls-20{stroke-dasharray:5;}.cls-21{fill:#b4afff;}.cls-22{fill:#dbbdc2;}.cls-23,.cls-31{fill:#eb86a0;}.cls-24{fill:#000c4f;}.cls-25,.cls-33{fill:#2a0e7e;}.cls-26{fill:#be457e;}.cls-27{fill:#ec5177;}.cls-28{opacity:0.47;}.cls-32{fill:#150949;}.cls-33,.cls-34{opacity:0.4;}.cls-35,.cls-43,.cls-49{opacity:0.3;}.cls-36{stroke-width:0.61px;}.cls-37{fill:#e7e4ff;}.cls-38{fill:#998eff;opacity:0.49;}.cls-39,.cls-45,.cls-49{fill:#58c0d6;}.cls-40{fill:#ce386a;}.cls-42,.cls-44{fill:#4c38ff;}.cls-44{opacity:0.61;}.cls-45{opacity:0.7;}.cls-46{fill:url(#linear-gradient-4);}.cls-47{fill:url(#linear-gradient-5);}.cls-48{opacity:0.96;}.cls-50{fill:url(#linear-gradient-6);}.cls-51{fill:url(#linear-gradient-7);}.cls-52{fill:#9d88c4;}.cls-53{stroke-width:0.81px;}.cls-54{fill:#582cdd;}.cls-55{fill:#e75130;}.cls-56{stroke:#000;stroke-width:0.24px;}.cls-57{fill:#1bbde8;}</style><linearGradient id="linear-gradient" x1="313.65" y1="356.7" x2="311.83" y2="-7.07" gradientUnits="userSpaceOnUse"><stop offset="0.09" stop-color="#ec5076"/><stop offset="0.12" stop-color="#ea517b"/><stop offset="0.38" stop-color="#d45fa8"/><stop offset="0.52" stop-color="#cc64b9"/><stop offset="0.56" stop-color="#be5fb5"/><stop offset="0.84" stop-color="#6b3fa1"/><stop offset="0.97" stop-color="#4a3299"/></linearGradient><linearGradient id="linear-gradient-2" x1="743.47" y1="312.03" x2="744.34" y2="49.57" gradientTransform="matrix(-1, 0, 0, 1, 1056.1, 0)" gradientUnits="userSpaceOnUse"><stop offset="0.41" stop-color="#ec5076"/><stop offset="0.43" stop-color="#e64f79"/><stop offset="0.7" stop-color="#6433b6"/><stop offset="0.81" stop-color="#3028ce"/></linearGradient><linearGradient id="linear-gradient-3" x1="549.34" y1="113.22" x2="549.03" y2="18.37" gradientUnits="userSpaceOnUse"><stop offset="0.41" stop-color="#ec5076"/><stop offset="0.47" stop-color="#d24c8c"/><stop offset="0.64" stop-color="#8a41ca"/><stop offset="0.75" stop-color="#5d3bf0"/><stop offset="0.81" stop-color="#4c38ff"/></linearGradient><linearGradient id="linear-gradient-4" x1="274.6" y1="259.34" x2="274.6" y2="201.36" gradientUnits="userSpaceOnUse"><stop offset="0.09" stop-color="#58c0d6"/><stop offset="0.1" stop-color="#5cc1d7" stop-opacity="0.98"/><stop offset="0.52" stop-color="#b3e2ec" stop-opacity="0.62"/><stop offset="0.82" stop-color="#eaf7fa" stop-opacity="0.39"/><stop offset="0.97" stop-color="#fff" stop-opacity="0.3"/></linearGradient><linearGradient id="linear-gradient-5" x1="298.4" y1="259.25" x2="298.4" y2="173.6" xlink:href="#linear-gradient-4"/><linearGradient id="linear-gradient-6" x1="339.06" y1="259.15" x2="339.06" y2="226.59" xlink:href="#linear-gradient-4"/><linearGradient id="linear-gradient-7" x1="326.08" y1="256.64" x2="326.08" y2="205.77" xlink:href="#linear-gradient-4"/></defs><g class="cls-1"><g id="Layer_37" data-name="Layer 37"><rect class="cls-2" x="0.42" y="0.14" width="624.49" height="319.94"/><path class="cls-3" d="M79.52.05c23.77,30.27,62.11,68.76,117.65,84C299,111.82,365.75,36,464.86,55.57c43.08,8.5,100.93,36.72,160,126.91v97.16c-280.79,28.1-356.74,14.48-362-8.09-8.57-37.07,167.55-125,188.9-100,6.42,7.53.25,26.93-4.72,37-12.31,24.94-36,30.69-34.63,34.63,2.82,8.16,110,1.27,119.64-43.29,4.87-22.42-15.39-52.32-41.67-64.95-57.61-27.7-116.92,44-208.6,68.66C220.69,220.09,128.59,226.17-.46,171.9V.31Z"/><path class="cls-4" d="M473.8.79S629.64-11.8,624.13,107.05V.79Z"/><path class="cls-5" d="M288.63.26l-184,242.6,48.36-9,162.47-98.15L225,232.1l49.36,1.61,20,9.49L488.35-.32l-58,2.1L219.28,153.25l82.61-154Z"/><polygon class="cls-5" points="600.09 1.78 390.3 231.6 441.96 251.63 624.13 0.79 600.09 1.78"/><circle class="cls-6" cx="77.57" cy="49.44" r="1.32"/><circle class="cls-6" cx="20.4" cy="178.66" r="2.31"/><circle class="cls-6" cx="318.5" cy="125.78" r="2.31"/><circle class="cls-6" cx="554.13" cy="26.97" r="3.3"/><circle class="cls-6" cx="353.53" cy="193.86" r="2.31"/><circle class="cls-6" cx="215.39" cy="90.75" r="1.65"/><circle class="cls-6" cx="153.92" cy="14.08" r="2.97"/><circle class="cls-6" cx="608.33" cy="204.11" r="1.98"/><circle class="cls-6" cx="212.41" cy="238.48" r="2.64"/><circle class="cls-6" cx="437.8" cy="13.75" r="1.98"/></g><g id="Layer_38" data-name="Layer 38"><path class="cls-7" d="M0,320.57H624.87V242.31c-86-18.82-189.48-29.8-300.83-29.8C202.47,212.51,90.27,225.6,0,247.69Z"/><path class="cls-8" d="M512.52,223.53V.33h-9.28v222.1A1583.28,1583.28,0,0,0,324,212.51c-74.09,0-144.68,4.87-209,13.67V.33h-9.29V227.48C68.06,232.92,32.58,239.71,0,247.69v10.47c90.94-22.51,203.76-35.84,326-35.84,110.37,0,213.06,10.87,298.92,29.56v-9.57C590.07,234.7,552.41,228.37,512.52,223.53Z"/><rect class="cls-9" x="105.78" y="0.02" width="1.77" height="227.46"/><rect class="cls-9" x="502.13" y="0.02" width="1.77" height="222.19"/></g><g id="Layer_42" data-name="Layer 42"><path class="cls-10" d="M293.37,143.69a15.22,15.22,0,0,0-7.37,4.64c-3,3.63-3.3,8-3.42,9.84-.54,8.29-2.19,27.54-4.11,53.41l.33,6.57-1,10.13,13.91-.4,1.83-32.41,1.8-20c1,5.22,1.86,10.88,2.42,16.93a173.71,173.71,0,0,1-.4,35.89c9.06-.28,18.69-.25,28.83.2q9.19.42,17.74,1.21c-.76-41.13-2-71.09-2.38-77.36a25.66,25.66,0,0,0-3.81-12.5,19.21,19.21,0,0,0-1.67-2.26c-5.65-6.35-21.88-1.87-23.92-1.29Z"/><path class="cls-11" d="M295.94,149.64a66.63,66.63,0,0,1-2.3,15.74c.24,1.75.52,3.56.86,5.42q.64,3.6,1.43,6.86c.39,4.45.72,9,1,13.65.72,13,.8,25.32.43,37l33.79-.72q-.9-25.35-1.79-50.7-1.18-8.09-2.36-16.17a32,32,0,0,1-2.71-16.38c.72-5.72,3-7.68,3.51-8.13a8.68,8.68,0,0,1,3.12-1.61,43.5,43.5,0,0,0-7.34-.3,44,44,0,0,0-15,3.37Z"/><path class="cls-12" d="M301.29,154.48c.54,1.21,1.07,2.43,1.61,3.64,6.19,1.64,12.05.33,14.79-3.43a9,9,0,0,0,1.61-4.07l-1.28-10a19.47,19.47,0,0,1-16.73,13.83Z"/><path class="cls-12" d="M291.64,144.19s-10.61,1.07-9.32,17.36c0,0,3.85-.21,7.71-4.18S299.36,144.61,291.64,144.19Z"/><path class="cls-13" d="M290.2,140.16a31.11,31.11,0,0,0,3.53,7.54c2.41,3.74,4.72,7.32,8.82,8.34,5.25,1.3,10-2.46,10.9-3.21a11.37,11.37,0,0,0,3.85-8.18,6.66,6.66,0,0,0,3.37-3.69c.56-1.65.67-4.45-.8-5.13-1.2-.55-2.79.61-3.05.8a15.94,15.94,0,0,0,.16-3.85,16.14,16.14,0,0,0-1.76-6.09c-1.39-1.65-4.77-5.14-9.3-5.29C299.05,121.17,291.47,128.64,290.2,140.16Z"/><path class="cls-14" d="M310.93,118a12.25,12.25,0,0,0-4.11-2.39c-9.55-3.24-21.47,6.85-21.39,7h0c.67,0,2.24-.46,2.9-.51a2.7,2.7,0,0,1,1.71.51,12.42,12.42,0,0,0-3.59,4.28c-3.36,6.71,1.13,14.05,1.54,14.71a40.48,40.48,0,0,0,12-1.2,39.44,39.44,0,0,0,5.42-1.82c0-.44,0-.89-.08-1.34-.11-1.4-.28-2.71-.5-3.94a12.38,12.38,0,0,0,1.25,2.85,12.53,12.53,0,0,0,1.55,2l4.51-1.9a23.34,23.34,0,0,0-1.62-11.11,30.52,30.52,0,0,1,4.35,6.5,30.85,30.85,0,0,1,2,5l3.05-.8c-.27-3-1.73-18.3-6.37-18.87A3.34,3.34,0,0,0,310.93,118Z"/><path class="cls-15" d="M286.38,122.46c3.56-2.68,12.37-8.16,19.77-5.65a12.13,12.13,0,0,1,4.1,2.39,3.3,3.3,0,0,1,2.57-1c4.25.52,5.84,13.37,6.28,17.85l.77-.2c-.27-3-1.73-18.3-6.37-18.87a3.34,3.34,0,0,0-2.57,1,12.25,12.25,0,0,0-4.11-2.39c-9.55-3.24-21.47,6.85-21.39,7h0A7.85,7.85,0,0,0,286.38,122.46Z"/><path class="cls-12" d="M330.9,134.57a4.13,4.13,0,0,0-1.63.07,5.19,5.19,0,0,0-3.21,3.22c3.53,3.52,6.33,6.59,8.36,8.9,3.74,4.25,5.94,7.17,7.07,6.65.75-.35.65-2,.54-3.65a17.92,17.92,0,0,0-4.82-11.58C336.7,137.66,334.05,135,330.9,134.57Z"/><path class="cls-16" d="M291,166.71l4.32,8.75-2.91,34.64Z"/><path class="cls-17" d="M308.81,155.43l1.54,3.21q.5,34.88,1,69.77"/><path class="cls-18" d="M327.78,136.18s.56.8,1.45,2"/><path class="cls-19" d="M332.47,142.5a57.44,57.44,0,0,0,5.35,6"/><path class="cls-18" d="M340,150.15c1,.55,1.74.52,2.08-.39"/><path class="cls-20" d="M282.58,158.17s8.36-1.9,11.37-11.83"/></g><g id="Layer_39" data-name="Layer 39"><rect class="cls-12" x="152.87" y="267.41" width="310" height="52.6"/><path class="cls-11" d="M495.57,267c-17.16-18-94.66-31.61-187.7-31.61S137.34,249,120.17,267h-3.55v7.53c0,21.61,85.63,39.13,191.25,39.13s191.26-17.52,191.26-39.13V267Z"/><ellipse class="cls-21" cx="307.87" cy="266.96" rx="191.25" ry="39.13"/></g><g id="Layer_45" data-name="Layer 45"><path class="cls-22" d="M286.89,222.29c.5-1.52,1.35-2.45,2-2.36s1.11,1.59,1.23,2.09a7,7,0,0,1-.55,4.48,3.51,3.51,0,0,1-2.24-1.55A3.56,3.56,0,0,1,286.89,222.29Z"/><path class="cls-13" d="M287.58,222.26c-.55-.87-1.22-1.84-2.07-1.79s-1.29.88-1.5,1.25a2.24,2.24,0,0,0-1.45.11,2.4,2.4,0,0,0-1.24,1.89,2,2,0,0,0-1.31.19,2.56,2.56,0,0,0-1,2.84,1.69,1.69,0,0,0-1,.44,2.1,2.1,0,0,0-.11,2.48c2.39,3.68,3.87,5.4,4.43,5.13q.48-.21.09-2.28c.84,1.68,2.36,2.27,3,1.9s.9-1.82.12-3.33c1.09,1.8,2.49,2.68,3.06,2.39s.64-1.94-.2-3.85c1.58,1.22,2.24,1.29,2.55,1.08C292.12,229.88,288.7,224,287.58,222.26Z"/><polygon class="cls-23" points="282.39 232.52 278.99 226.75 277.98 227.19 282.39 232.52"/><path class="cls-23" d="M281.32,223.72c1.32,2.39,2.65,4.77,4,7.15a3,3,0,0,1,.67,2.59,2.45,2.45,0,0,1-.55,1,5,5,0,0,0,0-1.42,6.71,6.71,0,0,0-.4-1.5,53.78,53.78,0,0,0-5-7.59Z"/><path class="cls-23" d="M284.14,222l2.1,3.81c.72,1.28,1.44,2.54,2.15,3.79l1,3.33a43.07,43.07,0,0,0-4.86-8.64c-.65-.89-1.3-1.72-2-2.49Z"/></g><g id="Layer_43" data-name="Layer 43"><path class="cls-13" d="M355.24,132c4.42,12.69,11.39,20.47,16.92,19.67a7.09,7.09,0,0,0,4.19-2.49l2.11,1.17a19.46,19.46,0,0,0,8.29-5.47,19.2,19.2,0,0,0,3.39-5.46q-.81-3.24-1.61-6.48a16.17,16.17,0,0,0-1.58-8.91c-5.55-10.69-25.15-14.16-31.16-6.67C352,122.06,354.52,129.87,355.24,132Z"/><path class="cls-24" d="M376.35,149.2s2.23-1.24,5-7a19.73,19.73,0,0,1-1.29,6.59,20.42,20.42,0,0,1-1.39,2.88Z"/><path class="cls-13" d="M364.72,166.25s1.6,25.59,1.6,31.27-.71,32.33-.71,32.33l10.66.18A223.64,223.64,0,0,0,378,203.74c.06-7-.22-13.63-.71-19.72C371.93,169.69,368.22,162.75,364.72,166.25Z"/><path class="cls-25" d="M367.72,151.12q-1.71,3.82-3.39,7.91-1.5,3.65-2.83,7.16a10,10,0,0,1,8.67,3,30.71,30.71,0,0,0,.19,9c.85,4.94,2.64,7.81,3.95,10.74,1.66,3.7,2.2,9.11,3.21,19.78.54,5.77,1.09,13.24,1.32,22q11,.78,22.79,2.07,13.83,1.53,26.57,3.58-3.58-29.29-7.16-58.6,2.64-3.66,5.27-7.34a77,77,0,0,0-7.72-15.45c-3.8-5.83-6.25-9.38-10.93-11.68a22,22,0,0,0-13.38-1.7L390,138.33c-.24,1-2.23,9.14-8.9,11.42a11.35,11.35,0,0,1-3.87.58,12.84,12.84,0,0,1-5.09,1.36A12.63,12.63,0,0,1,367.72,151.12Z"/><path class="cls-26" d="M394.2,142.76a20.38,20.38,0,0,1,12.36,1.4c4.46,2.14,6.87,5.76,11.5,12.89a108.23,108.23,0,0,1,7.14,12.89q-3.15,4.65-6.31,9.28,3.47,28.44,6.95,56.89c.78.12,1.58.23,2.36.36q-3.58-29.29-7.16-58.6,2.64-3.66,5.27-7.34a77,77,0,0,0-7.72-15.45c-3.8-5.83-6.25-9.38-10.93-11.68a22,22,0,0,0-13.38-1.7L390,138.33l-.24.89Z"/><path class="cls-27" d="M362.69,109.08a33.38,33.38,0,0,0-7.59,4.42c-2.83,2.19-5.23,4.1-6.34,7.47a12.49,12.49,0,0,0-.57,4.19A20,20,0,0,0,351.7,136l3.58-.66,2-.36a26.09,26.09,0,0,1-1.58-3.74s-.4-1.21-1.36-5.55a19.55,19.55,0,0,0,3.85,7.93,18.79,18.79,0,0,0,1.81,1.92l5,.34a89.45,89.45,0,0,1,7.13,18.58,88.36,88.36,0,0,1,2.72,17.33l2.83-4.76a97,97,0,0,0-3.17-35.68,45.75,45.75,0,0,1,7.59,18.47l6.23-4.76c-.18-.95-.4-1.93-.68-2.95a39,39,0,0,0-3.51-8.61,66.25,66.25,0,0,1,4.53,6q.84,1.26,1.59,2.49a31.54,31.54,0,0,0,8.49-13.25c-5.16-17.31-16.89-27.33-26.28-25.94C370.65,103.11,366.79,104.11,362.69,109.08Z"/><path class="cls-28" d="M355.3,130a20.84,20.84,0,0,1-1-3.09c1,4.34,1.36,5.55,1.36,5.55a22.73,22.73,0,0,0,1.07,2.69l.51-.09a26.09,26.09,0,0,1-1.58-3.74S355.55,130.93,355.3,130Z"/><path class="cls-28" d="M348.76,122.11c1.11-3.37,3.51-5.28,6.34-7.47a33.38,33.38,0,0,1,7.59-4.42c4.1-5,8-6,9.74-6.23,9.28-1.37,20.83,8.4,26.09,25.33.06-.17.14-.36.19-.53-5.16-17.31-16.89-27.33-26.28-25.94-1.78.26-5.64,1.26-9.74,6.23a33.38,33.38,0,0,0-7.59,4.42c-2.83,2.19-5.23,4.1-6.34,7.47a12.49,12.49,0,0,0-.57,4.19c0,.08,0,.15,0,.23A11.54,11.54,0,0,1,348.76,122.11Z"/><path class="cls-28" d="M385.54,136.46c-.48-.61-1-1.21-1.44-1.77a38.66,38.66,0,0,1,3.51,8.6c.18.67.34,1.32.47,2l.21-.16c-.18-.95-.4-1.93-.68-2.95A38.34,38.34,0,0,0,385.54,136.46Z"/><path class="cls-28" d="M375,133.28l-.51-.75a96.85,96.85,0,0,1,3.17,16.88c.32,3.27.45,6.35.45,9.24A96.88,96.88,0,0,0,375,133.28Z"/><path class="cls-29" d="M365.85,111.3a41.11,41.11,0,0,0-5,3.12c-1.55,1.13-2.24,1.81-2.59,2.8a4.86,4.86,0,0,0,0,3c.7,2.67,3.08,8.38,6.68,15.69q2.1,4.67,4.21,9.31c-4.72-12.81-7.92-22.33-8.4-24.69a5.18,5.18,0,0,1,.1-2.8,6.43,6.43,0,0,1,1.87-2.49A23.84,23.84,0,0,0,365.85,111.3Z"/><path class="cls-13" d="M421.6,170.9a40.47,40.47,0,0,0-7.53,4.15,41,41,0,0,0-8.48,7.91c.59,2.33,1.5,5.87,2.64,10.18,1.65,6.25,3,11.06,3.2,11.86,3.21,11.55,11.17,31.25,13.56,37.12-.57,1.49-1.39,4.34-.14,6.91.71,1.47,1.71,2,4.23,3.77,6.88,4.74,8.43,6.69,9.48,6.05.58-.35,1.05-1.55,0-5.71l6,2.07c1.22,1.39,6.46,7.24,9.16,7.14a1.58,1.58,0,0,0,1.21-.47c.64-.86-.54-2.62-.65-2.78a5.9,5.9,0,0,0,3.24,1.49c.34,0,1.56.15,1.81-.36.07-.16,0-.37-.22-.87a5.77,5.77,0,0,0-1.67-2,5.32,5.32,0,0,0,3.56.37c.34-.1.51-.15.58-.29.41-.79-2.44-3.08-5.29-5.13.95.09,2.68.2,2.86-.34s-1.11-1.35-2.15-2c-6-3.85-8.92-5.78-10.18-6.33-2.45-1.06-2.35-.75-6.9-2.54-2.52-1-4.55-1.87-5.9-2.48-2-7.95-3.81-14.56-5.26-20.68-3.06-12.94-3.64-17.24-3.93-19.54-.54-4.43-.45-5.65-1.13-12.06C423,179.74,422.17,174.39,421.6,170.9Z"/><path class="cls-30" d="M422.23,186.35c.68,6.41.59,7.63,1.13,12.06.29,2.3.87,6.6,3.93,19.54,1.45,6.12,3.26,12.73,5.26,20.68,1.35.61,3.38,1.49,5.9,2.48,4.55,1.79,4.45,1.48,6.9,2.54,1.26.55,4.23,2.48,10.18,6.33,1,.67,2.32,1.51,2.15,2-.08.23-.44.34-.89.38.95.07,2.18.07,2.33-.38s-1.11-1.35-2.15-2c-6-3.85-8.92-5.78-10.18-6.33-2.45-1.06-2.35-.75-6.9-2.54-2.52-1-4.55-1.87-5.9-2.48-2-7.95-3.81-14.56-5.26-20.68-3.06-12.94-3.64-17.24-3.93-19.54-.54-4.43-.45-5.65-1.13-12.06-.7-6.61-1.5-12-2.07-15.45-.43.18-.88.39-1.34.6C420.82,175,421.57,180.1,422.23,186.35Z"/><path class="cls-31" d="M433.12,248.43c-.2,0,5.14,3.39,6,7.4a20.71,20.71,0,0,0-.52-2.69C438.32,252.57,434.81,248.56,433.12,248.43Z"/><path class="cls-31" d="M446.6,251.32a31.4,31.4,0,0,1,3.26,2.57,25.71,25.71,0,0,1,4.39,5.21,4.72,4.72,0,0,0,1.3,1.12,5.06,5.06,0,0,0,3.22.57,9.32,9.32,0,0,1-2.13-1,9.46,9.46,0,0,1-2-1.75c-3.52-3.82-3.66-4-4-4.27a32.45,32.45,0,0,0-3.39-2.32,41.25,41.25,0,0,0-4.13-2.38S444.61,249.9,446.6,251.32Z"/><path class="cls-31" d="M446.23,248.06s6.52,4.64,7.4,5.39,3.78,3.94,3.78,3.94,2.28,1.4,4.14.08a6.63,6.63,0,0,1-2.47-.45c-1.69-.67-2.25-1.8-4.45-3.63-.7-.58-1.26-1-2.38-1.76A49.49,49.49,0,0,0,446.23,248.06Z"/><path class="cls-31" d="M456.26,252.34l-7.34-5.48c1.89,1.11,3.35,2.08,4.33,2.76a12.84,12.84,0,0,0,2.89,1.7,10.42,10.42,0,0,0,3,.68C458.94,252.26,458.74,252.42,456.26,252.34Z"/><path class="cls-17" d="M381,154.6c0,.8-.4,17.72-.2,23.1s7.57,43.6,8.56,53.75"/><path class="cls-17" d="M378.45,154.57c1.8-.74,16.66-7,15.75-11.81a2.64,2.64,0,0,0-.72-1.35"/><path class="cls-32" d="M401,170.65s3.1,8.94,4.62,12.31,4.58,18.53,4.58,18.53S401.51,179.67,401,170.65Z"/><path class="cls-32" d="M422.43,176.24s9.71-10.49-.83-5.34Z"/><path class="cls-32" d="M364.72,166.25l.18,4S358.22,164.57,364.72,166.25Z"/><path class="cls-11" d="M420.75,158.26s-12,3.76-15.16,24.7c2.47-1.87,4.4-3.46,5.63-4.5,0,0,7.8-6.58,13-8.62.39-.15,1.46-.58,2.17-.09l.12.1Z"/><path class="cls-11" d="M364.33,159c-1.51-.53-2.83,7.16-2.83,7.16s2.14-2.63,8.67,3l.4-2.06S368.16,160.4,364.33,159Z"/><path class="cls-11" d="M396.45,153.06l6.12,4.15c5.59-9.53,8-11.46,9.05-11a.88.88,0,0,1,.43.37l.6-1.58a5.64,5.64,0,0,0-2.77-3.16,5.46,5.46,0,0,0-4.22-.15,5.93,5.93,0,0,0-2.38,1.7c-.6.68-1.2,1.4-1.79,2.16A55.62,55.62,0,0,0,396.45,153.06Z"/><path class="cls-33" d="M412.16,144.66c-1.25-.48-4,1.68-10.22,12.12l.63.43c5.59-9.53,8-11.46,9.05-11a.88.88,0,0,1,.43.37l.57-1.5A1.08,1.08,0,0,0,412.16,144.66Z"/><path class="cls-21" d="M391.12,199.21a21.11,21.11,0,0,0,17-1.62c.22,2.26.43,4.53.65,6.79a26.29,26.29,0,0,1-17.29,1Q391.29,202.28,391.12,199.21Z"/><path class="cls-21" d="M392.41,210.78a21.21,21.21,0,0,0,17-1.07c.22,1.51.44,3,.65,4.52a21.93,21.93,0,0,1-17.28.65Z"/></g><g id="Layer_44" data-name="Layer 44"><path class="cls-34" d="M260.24,37.64c-.06-1.77-.22-11.57,7.2-18.73,7.23-7,18.72-8.61,28.82-4A23.92,23.92,0,0,1,311.75,7a24.17,24.17,0,0,1,18,6.12,16,16,0,0,1,25.94,13c2.15.42,9.28,2.08,13.33,8.29,5.2,8,3.28,20.4-5.77,29.18a14.65,14.65,0,0,1-15.13,22.33l-.72,23.42L330.84,87.71c-.79.58-8.12,5.7-17.29,2.88S301.3,79.66,300.94,78.71c-.36.72-5.56,10.68-16.57,11.88-8.79,1-17.55-4.07-21.61-12.6-14.48,2.65-26.76-8.22-27-19.46C235.49,47.78,246.25,36.74,260.24,37.64Z"/><path class="cls-35" d="M329.76,13.14a16.46,16.46,0,0,1,17.65-1.44c8,4.38,8.28,13.7,8.29,14.41.11,8.12-5.71,13.06-6.48,13.69a18.34,18.34,0,0,1,3.34,9.8,18.88,18.88,0,0,1-5.15,13.26,18.7,18.7,0,0,0,1.08-13.69,18.41,18.41,0,0,0-7-9.45,15.41,15.41,0,0,0-11.72-26.58Z"/><path class="cls-35" d="M264.92,52.05c-3.57,6.75-1.46,14.92,4.32,18.73a14.27,14.27,0,0,0,16.57-1.08c7.28,4.58,15.61,5.44,21.62,1.8,1.23-.75,7.09-4.29,7.2-10.44a11.86,11.86,0,0,0-3.24-7.93A18.08,18.08,0,0,1,302,63.22c-8.07,3.56-15.47-.65-16.21-1.08-.91.85-4.4,3.92-9,3.6C271,65.33,265.7,59.75,264.92,52.05Z"/><path class="cls-17" d="M260.24,37.64c-.06-1.77-.22-11.57,7.2-18.73,7.23-7,18.72-8.61,28.82-4A23.92,23.92,0,0,1,311.75,7a24.17,24.17,0,0,1,18,6.12,16,16,0,0,1,25.94,13c2.15.42,9.28,2.08,13.33,8.29,5.2,8,3.28,20.4-5.77,29.18a14.65,14.65,0,0,1-15.13,22.33l-.72,23.42L330.84,87.71c-.79.58-8.12,5.7-17.29,2.88S301.3,79.66,300.94,78.71c-.36.72-5.56,10.68-16.57,11.88-8.79,1-17.55-4.07-21.61-12.6-14.48,2.65-26.76-8.22-27-19.46C235.49,47.78,246.25,36.74,260.24,37.64Z"/><path class="cls-17" d="M355.7,26.11a16.76,16.76,0,0,1-.72,5.41,17.16,17.16,0,0,1-5.76,8.28,18,18,0,0,1-1.81,23.06"/><circle class="cls-17" cx="304.73" cy="38.18" r="3.06"/><circle class="cls-17" cx="339.14" cy="82.8" r="1.66"/><circle class="cls-17" cx="288.56" cy="22.75" r="2.31"/><circle class="cls-17" cx="266.49" cy="33.29" r="2.31"/><circle class="cls-17" cx="341.78" cy="63.46" r="2.31"/><circle class="cls-17" cx="249.14" cy="59.86" r="2.31"/><circle class="cls-17" cx="320.34" cy="53.06" r="2.31"/><circle class="cls-17" cx="289.48" cy="47.36" r="2.31"/><circle class="cls-17" cx="320.52" cy="19.26" r="3.06"/><circle class="cls-36" cx="344.56" cy="39.22" r="2.5"/><circle class="cls-17" cx="298.92" cy="63.15" r="3.06"/><line class="cls-17" x1="339.14" y1="81.15" x2="341.78" y2="65.77"/><line class="cls-17" x1="339.47" y1="63.46" x2="321.87" y2="54.64"/><line class="cls-17" x1="318.75" y1="51.34" x2="307.55" y2="40.32"/><line class="cls-17" x1="307.36" y1="35.36" x2="318.02" y2="21.58"/><path class="cls-17" d="M322.24,51.52,342.7,41.23"/><line class="cls-17" x1="290.47" y1="24.52" x2="301.85" y2="35.54"/><line class="cls-17" x1="302.04" y1="39.95" x2="292.3" y2="46.19"/><line class="cls-17" x1="287.16" y1="48.76" x2="251.46" y2="59.86"/><line class="cls-17" x1="268.43" y1="34.81" x2="286.98" y2="45.83"/><line class="cls-17" x1="290.83" y1="49.87" x2="296.71" y2="60.34"/><line class="cls-17" x1="318.2" y1="55.19" x2="301.98" y2="63.15"/><line class="cls-17" x1="338.7" y1="23.44" x2="343.68" y2="36.63"/><line class="cls-17" x1="262.76" y1="77.99" x2="241.16" y2="118.25"/><line class="cls-17" x1="300.94" y1="78.71" x2="301.62" y2="103.07"/><line class="cls-17" x1="361.34" y1="82.17" x2="367.07" y2="93.36"/><circle class="cls-17" cx="239.63" cy="122" r="3.41"/><circle class="cls-17" cx="368.04" cy="96.8" r="3.41"/><circle class="cls-17" cx="301.59" cy="106.47" r="3.41"/></g><g id="Layer_41" data-name="Layer 41"><path class="cls-31" d="M257.7,156c.06,16-7.09,27.38-15,28.45-1.48.2-4.88.29-9.48-3.06l-2.76,13.46c-1.67-.11-7.71-.71-11.93-5.51-5-5.68-5.4-14.93-.61-22.63a29,29,0,0,1,15-15Z"/><path class="cls-37" d="M233.12,163.12a8.4,8.4,0,0,1,2.57-.09c1.65.2,2,.74,2.9.51,1.3-.35,1.16-1.71,2.52-2.15s2.22.57,2.9,0c.4-.33.28-.83.38-2.27.07-1,.23-3.44.75-3.53s.65,1.67,2.27,3.41c.67.71,1.77,1.88,3,1.76s1.34-1.28,2.65-1.38,2,.92,2.64.5.33-1.25.89-1.51,1,.1,1.38.38a6.69,6.69,0,0,0,1.26-1.77c2-4.09-.85-9.1-1.64-10.46-3.52-6.15-12-9.88-19.46-9.27-9.84.81-18.66,9.23-21.45,21q-2.33,1.88-5,3.74A94.25,94.25,0,0,1,196,171l1.6,1.4q9.55-2.67,19.51-6,2.31-.78,4.59-1.58l-.63,1.58a2.63,2.63,0,0,0,4.28-.32c-1.48-2.78-.26-5.88,1.69-6.71S232.31,159.89,233.12,163.12Z"/><path class="cls-38" d="M211.18,163.42c1.76-1.23,3.42-2.49,5-3.74.1-.41.22-.82.34-1.22q-2.24,1.78-4.75,3.56A94.25,94.25,0,0,1,196,171l.86.75A95.37,95.37,0,0,0,211.18,163.42Z"/><path class="cls-38" d="M257.62,146.52c-3.52-6.15-12-9.88-19.46-9.27-8.75.72-16.69,7.48-20.3,17.26,3.83-9,11.41-15.17,19.74-15.86,7.48-.61,15.94,3.13,19.46,9.27.71,1.24,3.13,5.47,2.07,9.3a1.83,1.83,0,0,0,.13-.24C261.28,152.89,258.41,147.88,257.62,146.52Z"/><path class="cls-13" d="M234.21,167.43c8.14,1.3,14.36,1.72,17.1,1.47a7.21,7.21,0,0,0,3.87-1.34,6.62,6.62,0,0,0,1.74-2,7.08,7.08,0,0,1,.66,3.6,8,8,0,0,1-3.74,5.75,26.32,26.32,0,0,1-21.1-4.41,1.83,1.83,0,0,1-.4-2.4A1.77,1.77,0,0,1,234.21,167.43Z"/><path class="cls-39" d="M237.28,169.41c8,2.69,14.14,2.11,18.24,1,.37-.09.75-.2,1.11-.31-.12.42-.25.84-.37,1.26a1.68,1.68,0,0,1-1.19,1.15l-.51.13a27.94,27.94,0,0,1-16.17-1.22,1.71,1.71,0,0,1-1.13-1.68Z"/><path class="cls-40" d="M233.23,181.34s-2.83-2.3-3.63-4.52a11,11,0,0,0-.33,5.44,10.73,10.73,0,0,0,1.13,3.1Z"/><path class="cls-11" d="M221.68,164.78c-.3-.53-2.71.17-7.22,2.07a38.32,38.32,0,0,0-9.3,2.18c-4.5,1.67-8.72,3.22-11,7.32a13.15,13.15,0,0,0-1.46,7.33c-2.19,3-5.48,7.43-9.71,12.63-6.31,7.76-9.06,8.81-11.9,14.28A42.68,42.68,0,0,0,167,224.68a59,59,0,0,0-.31,15.82l36.19-6.18,12.58,1.38c13.09-9.7,32.33-27.44,32.74-50.45,0-1.08,0-2.18-.07-3.29a10.33,10.33,0,0,1-6.53,2.73,12.18,12.18,0,0,1-6.17-1.94,18.76,18.76,0,0,1-3.8-2.74,3.7,3.7,0,0,1,.1,3.46,3.48,3.48,0,0,1-3.22,1.81l-2,5.41-.62,4.05c-3.26,3.92-4.57,5.48-4.59,5.47h0l2.68-5.54-.18-3.8c.37-.57.9-1.45,1.5-2.55a11.34,11.34,0,0,0,1.14-2.42c.31-1.71-1.34-2.59-2.92-5.13-1.75-2.82-1-3.77-3.05-8.48a36.92,36.92,0,0,0-2-3.94Q222,165.4,221.68,164.78Z"/><path class="cls-12" d="M248.12,182l.07,3.29-16.35,34-21.58,2.76c.12-3.81.32-10.13.65-18.06.19-4.48.69-8.63-.14-14.35a51.82,51.82,0,0,0-1.54-7,14,14,0,0,0-3.42-6.12,14.3,14.3,0,0,0-8.23-4.15,50.19,50.19,0,0,1,6.38-2.85,52.35,52.35,0,0,1,10.5-2.67c-.24.5-.49,1-.74,1.48a44.25,44.25,0,0,0,1.48,9.33c.88,3.19,1.59,5.72,3.56,8.43a19.09,19.09,0,0,0,5,4.77l.18,3.8q-1.32,2.78-2.65,5.55l4.59-5.47.12-3.32,2.49-6.14a4.86,4.86,0,0,0,3.12-5.27c.45.5,4.95,5.33,11.09,4.39A11.43,11.43,0,0,0,248.12,182Z"/><path class="cls-17" d="M226.41,185.89l-2.64,5s2.43,2.07-2.47,9.35l-11,21.84"/><path class="cls-12" d="M192.71,183.68q.89,13,1.78,26a62.43,62.43,0,0,0,2.2,16.63l-4.61,5a59.21,59.21,0,0,0-13.3-29.45l3.64-4.64Z"/><path class="cls-11" d="M248.19,185.25a10.5,10.5,0,0,0-4.31.28,10.87,10.87,0,0,0-5.51,3.67c-.66,2-1.67,5-2.79,8.87-1.38,4.75-1.47,5.84-1.9,6.9,0,0-.18.44-.42.9-1.4,2.65-5.49,7.2-7.72,10.11a44.33,44.33,0,0,0-2.74,4l-15.1,3c2.08,1.52,16.38,11.77,24.89,6.61,2.4-1.45,4-5.39,7.3-13.27a122.42,122.42,0,0,0,6.64-21.57C247.35,190.9,247.86,187.63,248.19,185.25Z"/><path class="cls-41" d="M233.68,205,223.6,225.81l-2.8-2.28S225.51,211.53,233.68,205Z"/><path class="cls-42" d="M207.7,223l13.43-3.54a25.3,25.3,0,0,1,3.62-.4,23.7,23.7,0,0,1,3.72.16c.09,5.35.64,7.53,1.21,8.43a19.88,19.88,0,0,1,1.22,3.53s0,0,0,0C230.77,231.53,218.83,227.15,207.7,223Z"/><path class="cls-43" d="M229.68,227.63c-.12-.31-.29-.73-.5-1.23a47.68,47.68,0,0,0-5-2.63,48.2,48.2,0,0,0-8.45-2.89l-8,2.1c11.13,4.17,23.07,8.55,23.2,8.19,0,0,0,0,0,0A18.39,18.39,0,0,0,229.68,227.63Z"/><path class="cls-39" d="M193.11,179.68a5.41,5.41,0,0,1,4.47-7.31,10.8,10.8,0,0,1,5.35,1c5.23,2.53,6.21,8.61,6.3,9.27a14.4,14.4,0,0,0-8.71-4.26A14,14,0,0,0,193.11,179.68Z"/><path class="cls-39" d="M192.71,183.68a3.94,3.94,0,0,0-.72,2.85,3.75,3.75,0,0,0,.72,1.67,30.51,30.51,0,0,1,7.62,0,30.86,30.86,0,0,1,7.79,2,11.42,11.42,0,0,0-15.41-6.56Z"/><path class="cls-39" d="M238.37,189.2a22.78,22.78,0,0,1,3.07-1.87,22,22,0,0,1,6.75-2.08,2.76,2.76,0,0,0,.51-2.15,2.53,2.53,0,0,0-.58-1.14,10.7,10.7,0,0,1-3.5,2,10.42,10.42,0,0,1-3.33.55Z"/><path class="cls-21" d="M181.7,197.69a13.66,13.66,0,0,0-2.22,1.89,13.89,13.89,0,0,0-1.65,2.13,52.9,52.9,0,0,0,12.47,15.6,51.6,51.6,0,0,0,5.32,3.95l-1-7.94a52.23,52.23,0,0,1-12.89-15.63Z"/><path class="cls-42" d="M212.78,222a12.64,12.64,0,0,0-9.32,3.94,33.49,33.49,0,0,1,4.16,10.73l28,1.36a25,25,0,0,0,6.79,1.84,33.2,33.2,0,0,0,7.76-.18A89.06,89.06,0,0,0,260.28,238a.89.89,0,0,0,.94-.75.86.86,0,0,0-.3-.67,1.31,1.31,0,0,0,1-1.05,1.21,1.21,0,0,0-.18-.74,1.07,1.07,0,0,0,.37-.61,1.42,1.42,0,0,0-1-1.42c-2.37-1.07-4.4-1.91-5.94-2.53-5.73-2.29-7.06-2.41-8.22-2.33a28,28,0,0,0-5,1.23c-2,.58-3.61,1.14-4.72,1.54Z"/><path class="cls-10" d="M207.18,224a13,13,0,0,1,5.2-1l25.13,8.91c1.14-.41,2.8-1,4.84-1.57a27.51,27.51,0,0,1,5.11-1.26c1.2-.08,2.56,0,8.43,2.38,1.58.64,3.66,1.5,6.09,2.6a1.51,1.51,0,0,1,.17.1,1.43,1.43,0,0,0-1-1.41c-2.37-1.07-4.4-1.91-5.94-2.53-5.73-2.29-7.06-2.41-8.22-2.33a28,28,0,0,0-5,1.23c-2,.58-3.61,1.14-4.72,1.54L212.78,222a12.64,12.64,0,0,0-9.32,3.94l.19.34A12.89,12.89,0,0,1,207.18,224Z"/><path class="cls-24" d="M262.15,234.19s-11.86-3.85-13.32-3.73l-1.45.12S260.34,233.56,262.15,234.19Z"/><path class="cls-24" d="M262,235.54l-13.13-1.94S258.52,236.27,262,235.54Z"/><path class="cls-24" d="M260.92,236.59l-10.63,0s7.71.64,10.63,0"/><path class="cls-42" d="M196.69,226.27a62.2,62.2,0,0,0-10.83.31c-1.38.16-2.71.36-4,.59A61.17,61.17,0,0,0,176,231.9q-1.71,1.54-3.13,3l-3.56,3.21a1.41,1.41,0,0,0-.33,2,1.38,1.38,0,0,0,1.77-.43,1.32,1.32,0,0,0,.09,1.86,1.28,1.28,0,0,0,1.6,0l4.82-2.53a1.06,1.06,0,0,0,1.53,1.35l7.55-4c2.42,0,4.34.13,5.64.23a19,19,0,0,0,4.65,0l.42-.08a23.41,23.41,0,0,0,5.85-2.24,10.46,10.46,0,0,1-4.76-4.06A10.34,10.34,0,0,1,196.69,226.27Z"/><path class="cls-24" d="M181,229.93l-8.13,5,7.92-5.72A.48.48,0,0,0,181,229.93Z"/><path class="cls-24" d="M180.13,232.73l-9.41,7a1.29,1.29,0,0,1-1.77.43S179.22,232.31,180.13,232.73Z"/><path class="cls-24" d="M185.66,233.36,177.23,239l-4.82,2.53s-1,.62-1.6,0Z"/><path class="cls-21" d="M231.62,180s1.11,2.55-3.12,5.27L226,191.42a14.36,14.36,0,0,0,3.9-1.81,15.12,15.12,0,0,0,5.51-6.86,12.3,12.3,0,0,1-1.79-1A11.92,11.92,0,0,1,231.62,180Z"/><path class="cls-17" d="M228.5,185.28,226,191.42a4.38,4.38,0,0,1-.12,3.32,21.16,21.16,0,0,1-3.64,4.31h0"/></g><g id="Layer_40" data-name="Layer 40"><path class="cls-44" d="M343,268.83l-113-2.17a2,2,0,0,1-.84-3.85l38.2-17.33A17.74,17.74,0,0,1,275,243.9l113,2.18a2,2,0,0,1,.84,3.85l-38.2,17.32A17.74,17.74,0,0,1,343,268.83Z"/><path class="cls-17" d="M343,268.83l-113-2.17a2,2,0,0,1-.84-3.85l38.2-17.33A17.74,17.74,0,0,1,275,243.9l113,2.18a2,2,0,0,1,.84,3.85l-38.2,17.32A17.74,17.74,0,0,1,343,268.83Z"/><path class="cls-45" d="M265.57,201.44v55.14s14.08.7,14.08,0v-60.3Z"/><polygon class="cls-46" points="265.57 201.44 279.65 196.28 283.63 200.27 283.63 253.06 279.88 256.81 265.57 256.81 265.57 201.44"/><polygon class="cls-17" points="265.57 201.44 279.65 196.28 283.63 200.27 283.63 253.06 279.88 256.81 265.57 256.81 265.57 201.44"/><path class="cls-45" d="M287.83,182.32v73.92s16.48.94,16.48,0V175.4Z"/><polygon class="cls-47" points="287.83 182.32 304.31 175.4 308.97 180.75 308.97 251.52 304.58 256.55 287.83 256.55 287.83 182.32"/><polygon class="cls-17" points="287.83 182.32 304.31 175.4 308.97 180.75 308.97 251.52 304.58 256.55 287.83 256.55 287.83 182.32"/><g class="cls-48"><rect class="cls-49" x="315.85" y="187.03" width="31.2" height="4.94"/><rect class="cls-49" x="315.85" y="196.32" width="31.2" height="4.94"/><rect class="cls-49" x="315.85" y="205.4" width="31.2" height="4.94"/></g><rect class="cls-17" x="315.85" y="187.03" width="31.2" height="4.94"/><rect class="cls-17" x="315.85" y="196.32" width="31.2" height="4.94"/><rect class="cls-17" x="315.85" y="205.4" width="31.2" height="4.94"/><path class="cls-45" d="M323.09,257.05V237.78l16-4.73-3.71,5.86-.09,13.78Z"/><path class="cls-50" d="M339.06,227.13c-14.29,0-25.87,2.65-25.87,5.92h0V252.4c0,3.28,11.58,5.93,25.87,5.93s25.87-2.65,25.87-5.93V233.05h0C364.93,229.78,353.35,227.13,339.06,227.13Zm-3.8,11.92,0,19.21c-1.6-.06-3.28-.15-5-.31-2.55-.22-4.95-.53-7.18-.9l.15-19.27,15.82-4.73Z"/><path class="cls-45" d="M339.06,227.13c-14.29,0-25.87,2.65-25.87,5.92,0,1.92,4,3.62,10.13,4.7l15.74-4.7-3.71,5.86c1.21,0,2.45.06,3.71.06,14.29,0,25.87-2.65,25.87-5.92S353.35,227.13,339.06,227.13Z"/><path class="cls-17" d="M339.06,227.13c-14.29,0-25.87,2.65-25.87,5.92,0,1.92,4,3.62,10.13,4.7l15.74-4.7-3.71,5.86c1.21,0,2.45.06,3.71.06,14.29,0,25.87-2.65,25.87-5.92S353.35,227.13,339.06,227.13Z"/><path class="cls-17" d="M335.29,258.27c1.23,0,2.49.06,3.77.06,14.29,0,25.87-2.65,25.87-5.93V233.05h0c0-3.27-11.58-5.92-25.87-5.92s-25.87,2.65-25.87,5.92h0V252.4c0,1.9,3.87,3.58,9.89,4.66m0,0,.15-19.27,15.82-4.73-3.8,6,0,19.21"/><path class="cls-45" d="M338.73,223l-19.91-.82c-5.43,1-5.71,1.88-5.72,2.16,0,1,3.63,2.13,6.55,2.35a15,15,0,0,0,3.12-.08Z"/><path class="cls-17" d="M338.73,223l-19.91-.82c-5.43,1-5.71,1.88-5.72,2.16,0,1,3.63,2.13,6.55,2.35a15,15,0,0,0,3.12-.08Z"/><path class="cls-51" d="M338.73,223l-16,3.61a15,15,0,0,1-3.12.08c-2.92-.22-6.56-1.32-6.55-2.35l.09,28a1.47,1.47,0,0,0,.06.4,2.07,2.07,0,0,0,.6.92c1.69,1.52,5.53,2.51,5.53,2.51.93.24,2.15.54,3.6.84q.16-9.66.34-19.32l15.74-4.7Z"/><path class="cls-17" d="M338.73,223l-16,3.61a15,15,0,0,1-3.12.08c-2.92-.22-6.56-1.32-6.55-2.35l.09,28a1.47,1.47,0,0,0,.06.4,2.07,2.07,0,0,0,.6.92c1.69,1.52,5.53,2.51,5.53,2.51.93.24,2.15.54,3.6.84q.16-9.66.34-19.32l15.74-4.7Z"/><line class="cls-17" x1="322.98" y1="257.07" x2="335.26" y2="252.69"/><line class="cls-17" x1="304.31" y1="175.4" x2="304.31" y2="256.9"/></g><g id="Layer_73" data-name="Layer 73"><circle class="cls-52" cx="305.27" cy="50.56" r="19.56"/><circle class="cls-53" cx="305.27" cy="50.56" r="19.56"/><circle class="cls-53" cx="305.27" cy="50.56" r="22.26"/><path class="cls-54" d="M293.59,50.07V48.73a.69.69,0,0,1,.44-.65.71.71,0,0,1,.26,0h7.18a1.33,1.33,0,0,1,1,.53c.33.37.62.77,1,1.14a1.25,1.25,0,0,1,.24,1.17c0,.18-.24.33-.34.49a4,4,0,0,1-.45.57,3.52,3.52,0,0,1-.89.83,1.41,1.41,0,0,1-.57.14h-7.09a.69.69,0,0,1-.74-.72l0-1.12h-1.65a.55.55,0,0,1-.33-.11.52.52,0,0,1-.2-.48.51.51,0,0,1,.17-.3.55.55,0,0,1,.35-.12Z"/><path d="M297.31,53h-3a.87.87,0,0,1-.63-.23.88.88,0,0,1-.23-.6l0-1h-1.54a.66.66,0,0,1-.41-.14.61.61,0,0,1-.24-.59.63.63,0,0,1,.21-.37.68.68,0,0,1,.43-.15h1.59V48.73A.8.8,0,0,1,294,48a.7.7,0,0,1,.32-.06h7.18a1.45,1.45,0,0,1,1.09.57c.17.18.32.38.47.56s.32.39.49.58a1.38,1.38,0,0,1,.27,1.27.85.85,0,0,1-.24.38l-.12.15A3.79,3.79,0,0,1,303,52l-.24.26a2,2,0,0,1-.69.6,1.41,1.41,0,0,1-.62.15Zm-5.43-2.85a.4.4,0,0,0-.27.09.34.34,0,0,0-.13.22.38.38,0,0,0,.15.36.54.54,0,0,0,.26.09h1.65a.12.12,0,0,1,.12.12l0,1.12a.65.65,0,0,0,.16.44.66.66,0,0,0,.46.16h7.09a1.14,1.14,0,0,0,.52-.13,1.83,1.83,0,0,0,.61-.54l.24-.27a3.78,3.78,0,0,0,.44-.55l.14-.18a.76.76,0,0,0,.18-.26,1.11,1.11,0,0,0-.21-1.07c-.17-.19-.34-.39-.49-.58s-.31-.38-.47-.56a1.2,1.2,0,0,0-.91-.49h-7.18a.62.62,0,0,0-.21,0,.57.57,0,0,0-.37.54v1.34a.12.12,0,0,1,0,.09.11.11,0,0,1-.08,0h-1.71Z"/><path class="cls-55" d="M291.67,58.3h-1.62a.52.52,0,1,1,.09-1h1.5l0-1.18a.8.8,0,0,1,.08-.38,1,1,0,0,1,.73-.45H299a.61.61,0,0,1,.3.08.55.55,0,0,1,.08.78c-.33.39-.67.77-1,1.16s-.53.7-.8,1.05c-.16.2-.34.39-.51.59s-.24.33-.38.48a2.36,2.36,0,0,1-.82.68,2,2,0,0,1-.75.14h-2.63a.78.78,0,0,1-.84-.83Z"/><path class="cls-56" d="M291.67,58.3h-1.62a.52.52,0,1,1,.09-1h1.5l0-1.18a.8.8,0,0,1,.08-.38,1,1,0,0,1,.73-.45H299a.61.61,0,0,1,.3.08.55.55,0,0,1,.08.78c-.33.39-.67.77-1,1.16s-.53.7-.8,1.05c-.16.2-.34.39-.51.59s-.24.33-.38.48a2.36,2.36,0,0,1-.82.68,2,2,0,0,1-.75.14h-2.63a.78.78,0,0,1-.84-.83Z"/><path class="cls-57" d="M295.73,45.63h-3.17a1,1,0,0,1-.57-.15.71.71,0,0,1-.32-.63V44c0-.21,0-.21-.23-.22h-1.33a.75.75,0,0,1-.52-.19.42.42,0,0,1,.21-.7,1.46,1.46,0,0,1,.42,0h1.24c.19,0,.2,0,.21-.21s0-.64,0-1c0-.6.39-.84.86-.86s1,0,1.51,0h1.12a1.53,1.53,0,0,1,1.31.59c.42.52.84,1,1.27,1.54L299,44.32c.15.17.3.34.44.53a.56.56,0,0,1,.06.57c-.07.19-.25.21-.42.21h-3.3Z"/><path d="M295.73,45.63h-3.17a1,1,0,0,1-.57-.15.71.71,0,0,1-.32-.63V44c0-.21,0-.21-.23-.22h-1.33a.75.75,0,0,1-.52-.19.42.42,0,0,1,.21-.7,1.46,1.46,0,0,1,.42,0h1.24c.19,0,.2,0,.21-.21s0-.64,0-1c0-.6.39-.84.86-.86s1,0,1.51,0h1.12a1.53,1.53,0,0,1,1.31.59c.42.52.84,1,1.27,1.54L299,44.32c.15.17.3.34.44.53a.56.56,0,0,1,.06.57c-.07.19-.25.21-.42.21h-3.3Zm0-.26h3.08a.74.74,0,0,0,.21,0c.09,0,.21-.06.25-.13s0-.18-.09-.26c-.5-.59-1-1.2-1.5-1.8s-.95-1.16-1.44-1.73a1.07,1.07,0,0,0-.92-.42h-.69c-.64,0-1.27,0-1.9,0s-.8.14-.75.76c0,.24,0,.48,0,.73v.12c0,.38,0,.39-.39.39h-1.51c-.17,0-.25.08-.26.22s.08.2.27.21h1.54c.3,0,.35.06.35.36s0,.7,0,1a.47.47,0,0,0,.32.46.68.68,0,0,0,.29,0Z"/><path class="cls-30" d="M301.18,60.22h-2.36a.47.47,0,0,1-.5-.3.52.52,0,0,1,.11-.51c.36-.44.74-.87,1.1-1.31l1.78-2.19c.41-.5.83-1,1.24-1.5s.9-1.11,1.36-1.67L305,51.43c.15-.18.32-.36.46-.54s.26-.48,0-.81-.29-.35-.44-.53l-.81-1-1.68-2-2.85-3.48c-.4-.49-.81-1-1.21-1.45a1,1,0,0,1-.18-.4.44.44,0,0,1,.38-.46,1.47,1.47,0,0,1,.21,0h4.47a1.72,1.72,0,0,1,1.38.68c.38.46.75.93,1.12,1.39l1.58,1.93.94,1.12c.62.76,1.25,1.51,1.87,2.26.46.56.92,1.11,1.37,1.67a1,1,0,0,1,0,1.41c-.72.86-1.44,1.71-2.15,2.58L307.68,56c-.7.85-1.41,1.69-2.11,2.53-.28.34-.54.7-.82,1a1.63,1.63,0,0,1-1.37.69Z"/><path class="cls-30" d="M316.8,60.22h-2.21a1.41,1.41,0,0,1-1.1-.46c-.39-.42-.75-.86-1.11-1.3l-2.33-2.82-.22-.28a.31.31,0,0,1,0-.46l1.55-1.9,1.16-1.41c.2-.23.37-.24.57,0l2.57,3.13,2.16,2.61,1.72,2.1a.63.63,0,0,1,.13.2c.05.26,0,.41-.26.53a.81.81,0,0,1-.35.06Z"/><path class="cls-30" d="M316.8,40.74c.77,0,1.55,0,2.33,0a.81.81,0,0,1,.37.09.38.38,0,0,1,.14.6,5.66,5.66,0,0,1-.43.54c-.7.86-1.42,1.71-2.12,2.56l-2.43,3-1.51,1.82c-.24.3-.39.3-.62,0-.63-.75-1.25-1.51-1.87-2.27-.27-.33-.54-.66-.8-1s-.17-.31,0-.5c.4-.5.81-1,1.22-1.48l1.47-1.78c.31-.37.6-.75.93-1.1a1.35,1.35,0,0,1,1-.47Z"/><path d="M301.18,60.22h-2.36a.47.47,0,0,1-.5-.3.52.52,0,0,1,.11-.51c.36-.44.74-.87,1.1-1.31l1.78-2.19c.41-.5.83-1,1.24-1.5s.9-1.11,1.36-1.67L305,51.43c.15-.18.32-.36.46-.54s.26-.48,0-.81-.29-.35-.44-.53l-.81-1-1.68-2-2.85-3.48c-.4-.49-.81-1-1.21-1.45a1,1,0,0,1-.18-.4.44.44,0,0,1,.38-.46,1.47,1.47,0,0,1,.21,0h4.47a1.72,1.72,0,0,1,1.38.68c.38.46.75.93,1.12,1.39l1.58,1.93.94,1.12c.62.76,1.25,1.51,1.87,2.26.46.56.92,1.11,1.37,1.67a1,1,0,0,1,0,1.41c-.72.86-1.44,1.71-2.15,2.58L307.68,56c-.7.85-1.41,1.69-2.11,2.53-.28.34-.54.7-.82,1a1.63,1.63,0,0,1-1.37.69Zm0-19.25h-2.45c-.18,0-.24.12-.19.3a.81.81,0,0,0,.1.18c.71.86,1.42,1.73,2.14,2.59l1.28,1.54,3.06,3.71c.21.25.42.51.61.78a.65.65,0,0,1,0,.83c-.05.08-.11.15-.16.22-.21.25-.42.51-.64.76L303,54.17l-1.35,1.64c-.44.53-.86,1.06-1.3,1.58l-1.76,2.13c-.1.11-.15.24-.07.35s.19.1.29.11c.38,0,.76,0,1.14,0h3.45a1.24,1.24,0,0,0,.95-.38c.25-.28.49-.58.73-.87l2.09-2.55c.36-.45.73-.88,1.09-1.32s.91-1.12,1.37-1.67c.61-.73,1.24-1.45,1.82-2.2.32-.42.33-.53,0-1l0,0-2-2.43-2.43-3-2.53-3.05a1.32,1.32,0,0,0-1.07-.5Z"/><path d="M316.8,60.22h-2.21a1.41,1.41,0,0,1-1.1-.46c-.39-.42-.75-.86-1.11-1.3l-2.33-2.82-.22-.28a.31.31,0,0,1,0-.46l1.55-1.9,1.16-1.41c.2-.23.37-.24.57,0l2.57,3.13,2.16,2.61,1.72,2.1a.63.63,0,0,1,.13.2c.05.26,0,.41-.26.53a.81.81,0,0,1-.35.06Zm0-.24H319a1,1,0,0,0,.3,0c.18-.05.21-.15.12-.31s-.11-.15-.16-.22l-.72-.89L315.64,55,313,51.81c-.16-.2-.2-.19-.36,0-.66.8-1.32,1.59-2,2.39-.21.25-.41.52-.62.77a.22.22,0,0,0,0,.33c.59.7,1.16,1.4,1.74,2.11l1,1.23.76.89a1.26,1.26,0,0,0,1.06.45Z"/><path d="M316.8,40.74c.77,0,1.55,0,2.33,0a.81.81,0,0,1,.37.09.38.38,0,0,1,.14.6,5.66,5.66,0,0,1-.43.54c-.7.86-1.42,1.71-2.12,2.56l-2.43,3-1.51,1.82c-.24.3-.39.3-.62,0-.63-.75-1.25-1.51-1.87-2.27-.27-.33-.54-.66-.8-1s-.17-.31,0-.5c.4-.5.81-1,1.22-1.48l1.47-1.78c.31-.37.6-.75.93-1.1a1.35,1.35,0,0,1,1-.47Zm-6.87,5.09,1.26,1.54,1.45,1.76c.18.21.2.22.37,0l1.86-2.24,1.87-2.27,2.54-3.07a1.43,1.43,0,0,0,.14-.2c.14-.21.09-.33-.16-.38h-4.77a1.07,1.07,0,0,0-.87.4l-.9,1.08-2.38,2.85C310.2,45.47,310.07,45.64,309.93,45.83Z"/></g></g></svg>