<svg xmlns="http://www.w3.org/2000/svg" xmlns:xlink="http://www.w3.org/1999/xlink" viewBox="0 0 625 320"><defs><style>.cls-1{isolation:isolate;}.cls-2{fill:url(#linear-gradient);}.cls-20,.cls-26,.cls-27,.cls-3{opacity:0.5;}.cls-3{fill:url(#linear-gradient-2);}.cls-4{fill:#e6e4ff;}.cls-18,.cls-20,.cls-24,.cls-5,.cls-9{fill:#fff;}.cls-5{opacity:0.2;mix-blend-mode:overlay;}.cls-6{fill:#b72e66;}.cls-7{fill:#e2b5c5;}.cls-8{fill:#fcf4f0;}.cls-10{fill:#58c0d6;}.cls-11{fill:#000b4f;}.cls-12{fill:#2b1287;}.cls-13{fill:#796bff;}.cls-14{fill:#b4afff;}.cls-15,.cls-19,.cls-21,.cls-27,.cls-34{fill:none;stroke-linecap:round;stroke-linejoin:round;}.cls-15,.cls-19,.cls-21,.cls-27{stroke:#fff;}.cls-15,.cls-27{stroke-width:0.75px;}.cls-16{fill:#4945b9;}.cls-17{fill:#4c38ff;}.cls-18{opacity:0.4;}.cls-19{stroke-width:1.06px;}.cls-21{stroke-width:0.8px;}.cls-22{fill:#e2afc1;}.cls-23{fill:#bf7188;opacity:0.3;}.cls-24{opacity:0.9;}.cls-25{fill:#f4c3d2;}.cls-26,.cls-30{fill:#eb86a0;}.cls-28{fill:#ec5177;}.cls-29{fill:#fae8ee;}.cls-31{opacity:0.7;}.cls-32{fill:#582cdd;}.cls-33{fill:#e75130;}.cls-34{stroke:#000;stroke-width:0.34px;}.cls-35{fill:#1bbde8;}</style><linearGradient id="linear-gradient" x1="313.87" y1="356.99" x2="312.06" y2="-6.78" gradientUnits="userSpaceOnUse"><stop offset="0.09" stop-color="#ec5076"/><stop offset="0.12" stop-color="#ea517b"/><stop offset="0.38" stop-color="#d45fa8"/><stop offset="0.52" stop-color="#cc64b9"/><stop offset="0.56" stop-color="#be5fb5"/><stop offset="0.84" stop-color="#6b3fa1"/><stop offset="0.97" stop-color="#4a3299"/></linearGradient><linearGradient id="linear-gradient-2" x1="340.94" y1="315.25" x2="278.25" y2="-51.34" gradientUnits="userSpaceOnUse"><stop offset="0.15" stop-color="#ec5076"/><stop offset="0.17" stop-color="#e64f79"/><stop offset="0.62" stop-color="#6433b6"/><stop offset="0.81" stop-color="#3028ce"/></linearGradient></defs><g class="cls-1"><g id="Layer_56" data-name="Layer 56"><rect class="cls-2" x="0.64" y="0.43" width="624.49" height="319.94"/><path class="cls-3" d="M623.54,300.94l-509.1,2L-1.17,283l1.1-75.7a472.83,472.83,0,0,0,151.29,53.63c145.82,24.68,337.23-16,360.47-106.14,6.13-23.79,2.12-57.06-15.77-67.26C453.05,63.05,378.35,198.43,250,199.94c-49.29.58-93.07-18.74-105.1-24.17-26.89-12.16-64.1-29-63-47.29C84,91.39,240.59,87.24,243.7,49.66c.9-10.89-10.86-27.09-67.85-50.1l140.36.7c0,31.25,4.5,65.65,25,75.47,35.34,17,81.45-68.68,146.34-58.65,41,6.33,54.48,45,86.18,38.88,24.81-4.75,40.46-33,49.85-56.4Z"/><circle class="cls-4" cx="70.48" cy="52.49" r="1.37"/><circle class="cls-4" cx="11.31" cy="186.21" r="2.39"/><circle class="cls-4" cx="319.8" cy="131.49" r="2.39"/><circle class="cls-4" cx="563.65" cy="29.23" r="3.42"/><circle class="cls-4" cx="356.06" cy="201.95" r="2.39"/><circle class="cls-4" cx="213.1" cy="95.24" r="1.71"/><circle class="cls-4" cx="149.48" cy="15.9" r="3.08"/><circle class="cls-4" cx="619.74" cy="212.55" r="2.05"/><circle class="cls-4" cx="210.02" cy="248.12" r="2.74"/><circle class="cls-4" cx="443.27" cy="15.55" r="2.05"/><path class="cls-5" d="M220.58-.28.25,290.2l57.91-10.82L252.7,161.85,144.37,277.32l59.1,1.93,24,11.36L459.71-1,390.29,1.54,137.54,182.9,236.46-1.5Z"/><polygon class="cls-5" points="593.52 1.54 342.32 276.72 404.17 300.71 622.3 0.36 593.52 1.54"/></g><g id="Layer_48" data-name="Layer 48"><path class="cls-6" d="M319.59,44.77l-5.89-3.93a13.38,13.38,0,0,0-3.56,3,16.22,16.22,0,0,0-3.05,6.6c-1.89,9.17,1.26,49-1,71.58a109.88,109.88,0,0,1-3.8,19.55l17.51.51a50,50,0,0,0,5.84-28.18,47.24,47.24,0,0,1,2,19,46.53,46.53,0,0,1-2.28,10.41l37.06-3.05c32.88-.32,87.26-3.2,91.33-21.54,2.55-11.46-15.49-24.71-29.06-34.66C406.26,70.54,372.42,50.75,319.59,44.77Z"/></g><g id="Layer_47" data-name="Layer 47"><path class="cls-7" d="M325.28,33.22c-15.72,17.81-5.75,45.88.4,63.17,3.12,8.79,9.78,27.52,24.87,31.59a23.3,23.3,0,0,0,6.32.79l-.39,18.16c2.25.8,16.43,5.54,30.4-2.37a36.39,36.39,0,0,0,15-16.58,106,106,0,0,0-4.34-96.34C370.72,14.42,339.61,17,325.28,33.22Z"/><path class="cls-8" d="M317.47,80.49a3.49,3.49,0,0,1,3.42-2.85,115,115,0,0,0,20.28-1.91,116.31,116.31,0,0,0,36.92-13.65,4.86,4.86,0,0,1,7.12,3l1,4A4.82,4.82,0,0,1,384.76,74a84,84,0,0,1-39,19.63,80.56,80.56,0,0,1-21.5,1.34,3.57,3.57,0,0,1-1.92-.75,13.31,13.31,0,0,1-3.47-4A14.29,14.29,0,0,1,317.47,80.49Z"/><path class="cls-9" d="M317.77,79.82a131.3,131.3,0,0,0,23.08-2.17,132.73,132.73,0,0,0,42-15.54l0,0a4.84,4.84,0,0,0-4.84,0,116.31,116.31,0,0,1-36.92,13.65,115,115,0,0,1-20.28,1.91,3.46,3.46,0,0,0-3.22,2.19Z"/><path class="cls-10" d="M321.38,86.65c.2.58.39,1.16.58,1.74a1.36,1.36,0,0,0,1.28.94,100,100,0,0,0,25.11-2.86,100.63,100.63,0,0,0,31.57-13.84,1.37,1.37,0,0,0,.56-1.48h0a1.36,1.36,0,0,0-2-.87,121.5,121.5,0,0,1-29.08,11.17,120.39,120.39,0,0,1-26.77,3.39A1.38,1.38,0,0,0,321.38,86.65Z"/><path class="cls-11" d="M356.87,128.77l-.46,8.27a29.61,29.61,0,0,0,8.4-1.75c10.18-3.75,15.33-12.17,17.05-15.35a43.82,43.82,0,0,1-8.29,5.12A34.82,34.82,0,0,1,361,128.7,32.06,32.06,0,0,1,356.87,128.77Z"/></g><g id="Layer_50" data-name="Layer 50"><path class="cls-12" d="M361.79,128.77h-3.08a1.78,1.78,0,0,0-1.78,1.83l.06,1.75c-4-.21-9.79-.43-16.86-.36-17.69.18-26.53.27-33,3.23-16.47,7.53-20,32.84-20.81,40.9l-33.84,101.2,40.82,5.52,14.54-43.58,7.29,47.53a255.89,255.89,0,0,0,131.31,9.11c2.07-13,5.9-37.15,10.64-68.84,0,0,9.19-62.58-5-76.05-2.67-2.53-6-5-6-5-5.32-4-10.3-6.63-17.32-9.76-5-2.23-11.32-4.86-18.89-7.54a18.41,18.41,0,0,1-9.83-8.17l-1.08-3.4a1.77,1.77,0,0,0-2.78-.86A82.89,82.89,0,0,1,381,125.54c-2.42,1.14-4.77,2.1-7,2.91a1.76,1.76,0,0,0-1.11,1.23l-2.76,11-5.94-.53Z"/><path class="cls-13" d="M354.6,132.35v-.11c-3.43-.15-7.82-.28-12.92-.26C347,132,351.4,132.18,354.6,132.35Z"/><path class="cls-13" d="M361.81,140.18l5.94.53.06-.21-3.6-.32q-1.21-5.72-2.42-11.41h-2.4Q360.61,134.47,361.81,140.18Z"/><path class="cls-13" d="M305.45,239.26q-7.23,21.63-14.45,43.27l2.3.31,12.9-38.66Z"/><path class="cls-13" d="M452.06,151c-2.67-2.53-6-5-6-5-5.32-4-10.3-6.63-17.32-9.76-5-2.23-11.32-4.86-18.89-7.54a18.41,18.41,0,0,1-9.83-8.17l-1.08-3.4a1.77,1.77,0,0,0-2.78-.86l-.12.09a1.72,1.72,0,0,1,.5.77l1.08,3.4a18.39,18.39,0,0,0,9.84,8.17c7.56,2.68,13.89,5.31,18.89,7.54,7,3.13,12,5.74,17.32,9.76,0,0,3.29,2.49,6,5,14.22,13.47,5,76.05,5,76.05-4.75,31.69-8.57,55.87-10.65,68.84a257.41,257.41,0,0,1-46.51,4.63,257.14,257.14,0,0,0,48.91-4.63c2.07-13,5.9-37.15,10.64-68.84C457.08,227.06,466.27,164.48,452.06,151Z"/><path class="cls-14" d="M433.82,209.13a149.29,149.29,0,0,1-.57-70.83c-1.4-.68-2.88-1.36-4.47-2.07s-3.36-1.48-5.24-2.27l-20-7.45,3.4,5.27c-2.64,2-33.38,25.15-48.42,14.85a14.29,14.29,0,0,1-3.23-3.07L357,132.35c-4-.21-9.79-.43-16.86-.36-9,.09-15.7.16-21,.6-2.21,8.26-4.33,16.89-6.28,25.94-3.05,14.19-5.37,27.71-7.11,40.43a79.5,79.5,0,0,0,2.07,40.3q3.06,20.81,6.1,41.61a440.34,440.34,0,0,0,55.61,7.54,439.51,439.51,0,0,0,52.1.61C424.47,275.83,428.42,250.48,433.82,209.13Z"/><path class="cls-15" d="M399,117.12a2.34,2.34,0,0,0-1-.82,2.41,2.41,0,0,0-1.79,0l-21.73,12.52a4.25,4.25,0,0,0-2,2.65l-2.1,8.41a1.06,1.06,0,0,1-1.11.79l-3.34-.3a1.91,1.91,0,0,0-2,1.53c-.41,2.12-.83,4.25-1.24,6.37"/><path class="cls-13" d="M433.37,139.23a2,2,0,0,1,2.85-1.48,59.21,59.21,0,0,1,7.83,4.61c3.85,2.7,9.06,6.34,12.81,12.41,3.93,6.35,4.39,12.35,5.09,21.56a91.42,91.42,0,0,1-.17,15.85,2,2,0,0,1-2.49,1.75,33.3,33.3,0,0,1-11.58-5.4C434.74,179,429.62,159.88,433.37,139.23Z"/><path class="cls-16" d="M450.35,185.68c-12.71-9.34-17.85-27.89-14.53-48.07a2,2,0,0,0-2.45,1.62c-3.75,20.65,1.37,39.77,14.34,49.3a33.3,33.3,0,0,0,11.58,5.4,2,2,0,0,0,2.49-1.75c0-.36.07-.74.1-1.12A33.19,33.19,0,0,1,450.35,185.68Z"/><path class="cls-13" d="M329.87,130.6a2.26,2.26,0,0,1,1.89,3,74.63,74.63,0,0,1-45.52,44.91,2.28,2.28,0,0,1-3-2.25,69.23,69.23,0,0,1,3.46-19.11c2.44-7.35,4.29-12.94,9.58-17.89,8.66-8.09,20.35-8.68,25.55-8.94A49.39,49.39,0,0,1,329.87,130.6Z"/><path class="cls-16" d="M329.87,130.6l-1.37-.13a2.22,2.22,0,0,1,.39,2.2,74.61,74.61,0,0,1-45.36,44.85,2.26,2.26,0,0,0,2.71,1,74.63,74.63,0,0,0,45.52-44.91A2.26,2.26,0,0,0,329.87,130.6Z"/><path class="cls-15" d="M452.06,151s-2.32,4.14-12.29,5.14"/><path class="cls-15" d="M454.08,155.23s-2.32,4.15-12.29,5.14"/><path class="cls-15" d="M456.66,160.74s-2.32,4.15-12.3,5.15"/></g><g id="Layer_54" data-name="Layer 54"><path class="cls-17" d="M313.16,283.73c-163-14.72-297.08-48-313.23-76.47V319.87H625.65v-55C606.53,289.69,473.92,298.25,313.16,283.73Z"/><path class="cls-18" d="M120.53,87.33c-43.82,4.51-73.44,13.11-73.44,23V250.16c0-9.87,29.62-18.47,73.44-23Z"/><path class="cls-18" d="M288.4,129.6c-25.63,4.37-60,7-97.72,7-79.3,0-143.59-11.79-143.59-26.33V250.16c0,14.55,64.29,26.34,143.59,26.34,37.75,0,72.09-2.68,97.72-7.05Z"/><ellipse class="cls-19" cx="78.93" cy="220.39" rx="25.73" ry="26.59"/><ellipse class="cls-18" cx="81.76" cy="221.33" rx="24.46" ry="27.7"/><path class="cls-20" d="M78.93,220.39l5.58-28a21.08,21.08,0,0,1,20,14.29Z"/><path class="cls-15" d="M120.53,87.33c-43.82,4.51-73.44,13.11-73.44,23V250.16c0-9.87,29.62-18.47,73.44-23Z"/><path class="cls-15" d="M288.4,129.6c-25.63,4.37-60,7-97.72,7-79.3,0-143.59-11.79-143.59-26.33V250.16c0,14.55,64.29,26.34,143.59,26.34,37.75,0,72.09-2.68,97.72-7.05Z"/><path class="cls-21" d="M272.33,153.77c-19.83,2.29-42.17,3.8-65.8,4.25-33.3.63-64-.92-88.81-4.05"/><path class="cls-21" d="M272.33,167.9c-19.83,2.29-42.17,3.8-65.8,4.25-33.3.64-64-.91-88.81-4.05"/><path class="cls-21" d="M272.33,181c-19.83,2.3-42.17,3.8-65.8,4.25-33.3.64-64-.91-88.81-4.05"/><path class="cls-21" d="M272.33,195.15c-19.83,2.3-42.17,3.8-65.8,4.25-33.3.64-64-.91-88.81-4.05"/><path class="cls-21" d="M272.33,206.59c-19.83,2.3-42.17,3.8-65.8,4.25-33.3.64-64-.91-88.81-4.05"/><path class="cls-21" d="M272.33,220.72c-19.83,2.3-42.17,3.8-65.8,4.25-33.3.64-64-.91-88.81-4"/><path class="cls-21" d="M272.33,233.85c-19.83,2.29-42.17,3.8-65.8,4.25-33.3.63-64-.92-88.81-4"/><path class="cls-21" d="M272.33,248c-19.83,2.29-42.17,3.8-65.8,4.25-33.3.64-64-.91-88.81-4"/></g><g id="Layer_51" data-name="Layer 51"><path class="cls-22" d="M352.07,280.94c.71-3.51,3.92-17.14,16.78-26.56a43.2,43.2,0,0,1,22.12-8.1,43.15,43.15,0,0,1,41.11-7.16l7.17-2.81a16.4,16.4,0,0,1,4.36-11.21c2.58-2.67,7.8-6.07,10.9-4.36,2.63,1.45,2.58,6.68,2.49,17.13,0,4.69-.06,7-.62,9-1.94,6.9-7.24,10.5-11.84,14.33a94.39,94.39,0,0,0-17.65,19.71c-2.78,3.89-11,14.26-25.33,18C384.2,303.42,364.91,296.34,352.07,280.94Z"/><path class="cls-23" d="M438.54,237.26a16.59,16.59,0,0,0-.31,11.07c1.94,6.11-6.86-8.27-6.86-8.27s1.37-3,7.17-2.8"/><path class="cls-23" d="M432.08,239.12s-5.92.21-8.7,8l1.67-10S423.56,235,432.08,239.12Z"/><path class="cls-23" d="M430.05,275.43a52.66,52.66,0,0,0-25.28,2.5,60.56,60.56,0,0,0-12.78-.55,61.33,61.33,0,0,0-20,4.72h-9.72l-6.39-6.67c13.52,3.05,26.56-.85,33.06-10a25.38,25.38,0,0,0,4.44-13.61,69.5,69.5,0,0,0,5,10.83,70.71,70.71,0,0,0,5.83,8.61,92.42,92.42,0,0,1,11.12-1.95,94.24,94.24,0,0,1,20.83,0Z"/></g><g id="Layer_53" data-name="Layer 53"><circle class="cls-15" cx="390.06" cy="201.56" r="59.59"/><circle class="cls-18" cx="390.06" cy="201.56" r="54.17"/><circle class="cls-15" cx="390.06" cy="201.56" r="51.73"/><path class="cls-24" d="M374.81,208.44l22.81-25.21a15.58,15.58,0,0,1,18.43-19.88l-9.25,10.22a4.07,4.07,0,0,0,.29,5.74l5.15,4.66a4.06,4.06,0,0,0,5.73-.29l9.25-10.22a15.58,15.58,0,0,1-18.74,20.13l-22.3,24.65a15.6,15.6,0,1,1-11.37-9.8Zm-12.49,18.22,7.21,6.53,9.25-3,2.05-9.5-7.21-6.52-9.25,3Z"/><path class="cls-9" d="M384.66,201.64l2.3-2.08-19.91-22,0,0-4.2-1.78-5.42-6,6.66-6,5.57,6.1,1.26,4.3,0,0,19.85,22,2-1.84,4.67.74,29.21,32.29L414.42,238.4q-14.79-16.35-29.57-32.69Z"/></g><g id="Layer_52" data-name="Layer 52"><path class="cls-25" d="M340.24,254.45c-1.75-3.69-4.81-6.08-7.93-6-.32,0-3.31.13-4.57,2.19-1,1.69-.37,3.8-.07,4.77,2.66,8.85,3.82,18.1,6,27.08a12.39,12.39,0,0,0,1.55,3.87c1.82,2.91,4.44,4.14,6.77,5.41A68.8,68.8,0,0,1,352,298.54a14.44,14.44,0,0,0,5,3.87c2.6,1.18,4.25.91,7.35,1.74a26.49,26.49,0,0,1,7.16,3.29c3.31,1.86,9.27,3.51,20.95,2.38,2.19,1.55,5.52,3.36,9.42,3,3.15-.27,5.18-1.81,7.15-3.1,11.44-7.5,16.43-3.87,21.28-10.06,2.44-3.11,3-6.45,4.06-13.15.83-5.11,1.63-10.08-1-12-2.31-1.7-6.12-.1-7.73.58-5.63,2.37-8.22,7.49-9.09,9.48a18.8,18.8,0,0,0-8.71,5.61,17.92,17.92,0,0,0-2.13,3.09,85.22,85.22,0,0,1-13.92-17.6c-8.59-14.51-12.93-32.07-20.7-35-1.05-.39-3.88-1.47-6.38-.19a6.65,6.65,0,0,0-2.9,3.29c-1.65,3.68-.15,7.67.77,10.25,4.44,12.39,2,10.52,5.81,19.53a95,95,0,0,0,8.89,16.25l-3.67.58c-1.21-1.38-2.49-2.77-3.84-4.19-2.17-2.26-4.32-4.34-6.41-6.25l-1.23-5.89a116.65,116.65,0,0,0-4-16.74c-4.43-13.84-8-15.81-9.87-16.44a6.38,6.38,0,0,0-4.64,0C340.47,242.42,338.94,247.8,340.24,254.45Z"/><path class="cls-26" d="M377.37,289.84s6.57,7.48,8.13,10.61,4.42,7.77,7,9.37c0,0-17.12-11.08-18.82-19.4Z"/><path class="cls-26" d="M340.24,254.45s5.42,36.36,11.8,44.09l-8-5.7a228.76,228.76,0,0,1-3.81-22.62c-.45-3.86-.89-8.74-3.58-14.56a38.21,38.21,0,0,0-4.38-7.21,12.23,12.23,0,0,1,3,1.17A12.86,12.86,0,0,1,340.24,254.45Z"/><path class="cls-26" d="M416.64,284.62a5.76,5.76,0,0,0-1.35,4.86,22.28,22.28,0,0,0-.9,6.49c0,.25-.06.51-.12.51-.3,0,.43-7.75-1.71-8.52,0,0-.89-.32-6.76,5.36h0S409.47,286,416.64,284.62Z"/><path class="cls-27" d="M362.13,246.55l1.66,4.2a3.94,3.94,0,0,0,3.12,2.53,4.68,4.68,0,0,0,2.19-.28l.46-.21a4,4,0,0,0,1.79-4.9l-2.51-7"/><path class="cls-27" d="M340.57,245c0,.23.62,3.53,1.09,5.95a2.68,2.68,0,0,0,3.1,2.13l3.27-.57a2.67,2.67,0,0,0,2.16-3.21l-1.83-8.39"/><path class="cls-27" d="M330,249.62s4.55,7.43-1.36,9.4"/><path class="cls-27" d="M426.89,277.21s-3,15.5,7.54,9.34"/><path class="cls-27" d="M450.05,222.68s-.63,16.63,6.53,10.95"/></g><g id="Layer_49" data-name="Layer 49"><path class="cls-28" d="M432.49,122.49c-12.56-15.22-16.41-31.74-17.77-41.19,9.07,17.86,18.14,30.47,23.69,36.3a65.46,65.46,0,0,0,10.44,8.85,77.29,77.29,0,0,0,13.34-12.58c-2.28-2.22-5.64-5.64-9.39-10.09-14.36-17-18.81-30.44-25.46-43.05-8.64-16.42-19-36.14-39.37-45.18-16.85-7.49-41.12-7.91-58.71,5.56A52.57,52.57,0,0,0,313.7,40.84l4.69,4.67c1.89-6.53,4.22-8.3,6-8.67,8.08-1.7,19.72,21.54,24.77,33.89,1.06,2.62,5.59,14,8.41,31.74a183.48,183.48,0,0,1,1.68,42.79A209.56,209.56,0,0,0,357.58,65a269.62,269.62,0,0,1,34.86,65.15c-.58-6-1.43-12.35-2.64-19a230.53,230.53,0,0,0-10.34-38c3.5,9.4,7.55,19.29,12.26,29.57,3.87,8.44,7.82,16.38,11.78,23.8l4.81,1.92q10.41,4.24,20.15,8.74a77,77,0,0,0,12.7-5.73A78.29,78.29,0,0,1,432.49,122.49Z"/><path class="cls-29" d="M319,39c-1.15.25-2.52,1.06-3.85,3.33l3.21,3.2a20.13,20.13,0,0,1,2.86-6.41A4.68,4.68,0,0,0,319,39Z"/><path class="cls-29" d="M360,78.5c-2.62-4-5.25-7.83-7.83-11.39a211.3,211.3,0,0,1,4.15,28.53c.43,2.16.84,4.43,1.22,6.83a183.48,183.48,0,0,1,1.68,42.79A208.69,208.69,0,0,0,360,78.5Z"/><path class="cls-29" d="M452.8,103.78c-14.22-16.84-18.39-29.64-25.46-43.05-8.64-16.42-19-36.14-39.37-45.18-14.05-6.24-33.25-7.57-49.44,0,9-2.71,27.42-6.77,45.88,1.38,7.5,3.3,12.25,7.41,16.36,11,24.29,21.32,24,44.14,49.4,76.44,4.27,5.43,8,9.52,10,11.69l2-2.16C459.91,111.65,456.55,108.23,452.8,103.78Z"/><path class="cls-30" d="M324.4,36.84c8.08-1.7,19.72,21.54,24.77,33.89A127.9,127.9,0,0,1,354.64,88l7.3,8.55A210.47,210.47,0,0,0,357.58,65a269.62,269.62,0,0,1,34.86,65.15c0-.42-.09-.84-.13-1.26-1.69-6-4-13.7-7-22.48C368.24,56.73,347.52,28,333.49,25.55a17.3,17.3,0,0,0-7.93.51A14.29,14.29,0,0,0,322,27.93a55.17,55.17,0,0,0-8.31,12.91l4.69,4.67C320.28,39,322.61,37.21,324.4,36.84Z"/><path class="cls-6" d="M349.17,70.73c1.06,2.62,5.59,14,8.41,31.74a183.48,183.48,0,0,1,1.68,42.79A209.56,209.56,0,0,0,357.58,65c-2-3.84-16.18-31-30.49-28.89a11.24,11.24,0,0,0-2.69.76C331.48,35,343.33,56.44,349.17,70.73Z"/></g><g id="Layer_73" data-name="Layer 73"><g class="cls-31"><path class="cls-32" d="M66.92,162v-2a.87.87,0,0,1,.57-.87.69.69,0,0,1,.35,0c3.12.43,6.25.87,9.37,1.32a2,2,0,0,1,1.3,1c.44.6.82,1.25,1.25,1.85a2.11,2.11,0,0,1,.32,1.77c0,.25-.31.44-.45.65a4.28,4.28,0,0,1-.58.75c-.37.37-.66.88-1.16,1.07a1.59,1.59,0,0,1-.75.1c-3.08-.42-6.17-.86-9.26-1.3a1.08,1.08,0,0,1-.7-.38,1.39,1.39,0,0,1-.26-.81l-.06-1.65-2.16-.33a.78.78,0,0,1-.43-.22.9.9,0,0,1-.26-.75.57.57,0,0,1,.22-.39.58.58,0,0,1,.46-.12Z"/><path d="M71.78,167l-3.71-.52-.19,0a1.27,1.27,0,0,1-.81-.45,1.52,1.52,0,0,1-.3-.93l-.06-1.49-2-.3a1,1,0,0,1-.53-.28,1.15,1.15,0,0,1-.32-.92.76.76,0,0,1,.28-.49.72.72,0,0,1,.56-.14h0l2.07.3V160a1,1,0,0,1,.66-1,.85.85,0,0,1,.42,0l9.37,1.32a2.23,2.23,0,0,1,1.42,1c.22.29.42.61.62.91s.41.63.63.93a2.36,2.36,0,0,1,.35,1.93,1.08,1.08,0,0,1-.3.52,1,1,0,0,0-.16.2,4.7,4.7,0,0,1-.61.77l-.3.34a2.44,2.44,0,0,1-.9.76,1.81,1.81,0,0,1-.82.11Zm-7.09-5.2a.45.45,0,0,0-.36.09.48.48,0,0,0-.17.29.75.75,0,0,0,.21.57.62.62,0,0,0,.33.17l2.16.33a.2.2,0,0,1,.16.19l.06,1.66a1.15,1.15,0,0,0,.21.68,1,1,0,0,0,.59.31l.19,0c3,.42,6.05.86,9.07,1.27a1.37,1.37,0,0,0,.68-.09,2.33,2.33,0,0,0,.8-.68c.1-.12.2-.25.31-.36a3.78,3.78,0,0,0,.57-.73,2.11,2.11,0,0,1,.19-.23.91.91,0,0,0,.23-.36,1.91,1.91,0,0,0-.27-1.61c-.23-.31-.44-.63-.65-1s-.39-.61-.6-.9a1.85,1.85,0,0,0-1.19-.89l-9.37-1.32a.63.63,0,0,0-.28,0,.72.72,0,0,0-.48.72v2a.17.17,0,0,1,0,.12.15.15,0,0,1-.11,0h0l-2.23-.33Z"/><path class="cls-33" d="M64.41,173.7l-2.11-.31a.88.88,0,0,1-.69-.88.61.61,0,0,1,.81-.6l2,.28,0-1.73a1.18,1.18,0,0,1,.1-.54,1,1,0,0,1,.95-.53h.08L74,170.6a.8.8,0,0,1,.4.18.91.91,0,0,1,.1,1.16c-.43.51-.87,1-1.28,1.53s-.69.93-1,1.39c-.21.27-.44.51-.66.77s-.32.45-.51.64a2.51,2.51,0,0,1-1.06.85,2.21,2.21,0,0,1-1,.06l-3.43-.48a1.3,1.3,0,0,1-1.09-1.39C64.41,174.79,64.41,174.28,64.41,173.7Z"/><path class="cls-34" d="M64.41,173.7l-2.11-.31a.88.88,0,0,1-.69-.88.61.61,0,0,1,.81-.6l2,.28,0-1.73a1.18,1.18,0,0,1,.1-.54,1,1,0,0,1,.95-.53h.08L74,170.6a.8.8,0,0,1,.4.18.91.91,0,0,1,.1,1.16c-.43.51-.87,1-1.28,1.53s-.69.93-1,1.39c-.21.27-.44.51-.66.77s-.32.45-.51.64a2.51,2.51,0,0,1-1.06.85,2.21,2.21,0,0,1-1,.06l-3.43-.48a1.3,1.3,0,0,1-1.09-1.39C64.41,174.79,64.41,174.28,64.41,173.7Z"/><path class="cls-35" d="M69.72,155.82l-4.14-.58a1.32,1.32,0,0,1-.74-.32,1.27,1.27,0,0,1-.42-1c0-.44,0-.88,0-1.33s0-.32-.29-.36L62.39,152a1,1,0,0,1-.68-.37.6.6,0,0,1,.27-1,1.64,1.64,0,0,1,.54,0l1.62.22c.25,0,.27,0,.27-.27,0-.47,0-.94,0-1.42a.94.94,0,0,1,1.12-1.11c.65.06,1.31.18,2,.27.48.07,1,.15,1.46.21a2.28,2.28,0,0,1,1.71,1.11c.54.84,1.1,1.67,1.66,2.5l1.59,2.33c.19.29.4.57.57.86a1,1,0,0,1,.09.86c-.1.26-.33.27-.56.24l-2.29-.32Z"/><path d="M69.72,155.82l-4.14-.58a1.32,1.32,0,0,1-.74-.32,1.27,1.27,0,0,1-.42-1c0-.44,0-.88,0-1.33s0-.32-.29-.36L62.39,152a1,1,0,0,1-.68-.37.6.6,0,0,1,.27-1,1.64,1.64,0,0,1,.54,0l1.62.22c.25,0,.27,0,.27-.27,0-.47,0-.94,0-1.42a.94.94,0,0,1,1.12-1.11c.65.06,1.31.18,2,.27.48.07,1,.15,1.46.21a2.28,2.28,0,0,1,1.71,1.11c.54.84,1.1,1.67,1.66,2.5l1.59,2.33c.19.29.4.57.57.86a1,1,0,0,1,.09.86c-.1.26-.33.27-.56.24l-2.29-.32Zm0-.39,4,.56a.9.9,0,0,0,.28,0,.5.5,0,0,0,.32-.14c.08-.12,0-.27-.12-.4-.66-1-1.31-2-2-2.92s-1.24-1.88-1.87-2.81a1.59,1.59,0,0,0-1.2-.79c-.31,0-.61-.08-.91-.12-.83-.12-1.66-.22-2.48-.36s-1,.07-1,1c0,.36,0,.71,0,1.07v.18c0,.56,0,.57-.5.51L62.55,151l-.24,0c-.22,0-.34.07-.35.27s.11.31.35.36l.28,0c.58.08,1.16.15,1.73.24.4.06.46.15.46.59s0,1,0,1.55a.83.83,0,0,0,.42.74,1,1,0,0,0,.38.11Z"/><path class="cls-9" d="M76.83,178.27l-3.08-.43a.77.77,0,0,1-.5-1.26c.46-.59,1-1.15,1.42-1.73L77,172c.53-.66,1.08-1.31,1.62-2l1.77-2.21c.47-.58,1-1.15,1.43-1.73.2-.24.41-.47.6-.72.33-.43.33-.65,0-1.18-.18-.29-.38-.57-.57-.86l-1.06-1.61-2.2-3.29-3.71-5.64c-.52-.79-1.06-1.56-1.58-2.36a1.57,1.57,0,0,1-.24-.62.52.52,0,0,1,.5-.6l.27,0c2,.27,3.89.56,5.84.82a2.53,2.53,0,0,1,1.79,1.24c.5.75,1,1.51,1.47,2.26L85,156.64l1.22,1.83,2.45,3.67,1.79,2.7a1.53,1.53,0,0,1,0,2.07c-.93,1.14-1.87,2.26-2.8,3.4-.79,1-1.56,1.95-2.34,2.91-.91,1.12-1.84,2.22-2.75,3.33-.36.45-.7.93-1.07,1.37a1.8,1.8,0,0,1-1.78.76C78.75,178.53,77.79,178.41,76.83,178.27Z"/><path class="cls-9" d="M97.21,181.15c-1-.14-1.92-.29-2.88-.4a2.08,2.08,0,0,1-1.44-.89c-.5-.69-1-1.41-1.44-2.12-1-1.52-2-3.05-3-4.57l-.3-.46a.47.47,0,0,1,0-.66l2-2.52,1.51-1.85c.26-.31.48-.29.74.1l3.35,5.07c.94,1.41,1.89,2.82,2.82,4.23.76,1.14,1.51,2.28,2.26,3.42a1.07,1.07,0,0,1,.16.32c.06.38,0,.6-.34.73a1.17,1.17,0,0,1-.46,0Z"/><path class="cls-9" d="M97.21,152.5l3,.43a1.19,1.19,0,0,1,.49.19.67.67,0,0,1,.19.92c-.18.26-.37.49-.56.72-.93,1.13-1.86,2.24-2.78,3.37-1.06,1.3-2.11,2.61-3.17,3.92l-2,2.4c-.31.39-.51.37-.81-.09q-1.23-1.83-2.44-3.68c-.35-.53-.7-1.08-1-1.62-.22-.36-.23-.48,0-.74l1.59-1.95L91.65,154c.4-.48.79-1,1.22-1.44a1.48,1.48,0,0,1,1.35-.51l3,.43Z"/><path d="M76.83,178.27l-3.08-.43a.77.77,0,0,1-.5-1.26c.46-.59,1-1.15,1.42-1.73L77,172c.53-.66,1.08-1.31,1.62-2l1.77-2.21c.47-.58,1-1.15,1.43-1.73.2-.24.41-.47.6-.72.33-.43.33-.65,0-1.18-.18-.29-.38-.57-.57-.86l-1.06-1.61-2.2-3.29-3.71-5.64c-.52-.79-1.06-1.56-1.58-2.36a1.57,1.57,0,0,1-.24-.62.52.52,0,0,1,.5-.6l.27,0c2,.27,3.89.56,5.84.82a2.53,2.53,0,0,1,1.79,1.24c.5.75,1,1.51,1.47,2.26L85,156.64l1.22,1.83,2.45,3.67,1.79,2.7a1.53,1.53,0,0,1,0,2.07c-.93,1.14-1.87,2.26-2.8,3.4-.79,1-1.56,1.95-2.34,2.91-.91,1.12-1.84,2.22-2.75,3.33-.36.45-.7.93-1.07,1.37a1.8,1.8,0,0,1-1.78.76C78.75,178.53,77.79,178.41,76.83,178.27Zm0-28.31h0l-2.88-.4a1.65,1.65,0,0,0-.31,0c-.24,0-.32.12-.26.4a1.17,1.17,0,0,0,.13.28l2.8,4.21,1.67,2.5c1.33,2,2.67,4,4,6,.28.42.55.84.8,1.26a1.08,1.08,0,0,1,0,1.23l-.22.29c-.27.33-.55.66-.82,1l-2.48,3-1.76,2.17c-.56.69-1.12,1.39-1.69,2.08-.76.94-1.53,1.87-2.3,2.8a.43.43,0,0,0-.09.51.54.54,0,0,0,.37.2c.5.09,1,.15,1.5.22l4.49.64A1.33,1.33,0,0,0,81,178c.34-.36.65-.76,1-1.14l2.73-3.38c.47-.58,1-1.15,1.43-1.73l1.78-2.21c.79-1,1.62-1.89,2.37-2.89.42-.56.43-.73,0-1.51a.18.18,0,0,0-.05-.07c-.87-1.32-1.75-2.63-2.62-3.94l-3.17-4.81-3.3-5a2,2,0,0,0-1.4-.94Z"/><path d="M97.21,181.15c-1-.14-1.92-.29-2.88-.4a2.08,2.08,0,0,1-1.44-.89c-.5-.69-1-1.41-1.44-2.12-1-1.52-2-3.05-3-4.57l-.3-.46a.47.47,0,0,1,0-.66l2-2.52,1.51-1.85c.26-.31.48-.29.74.1l3.35,5.07c.94,1.41,1.89,2.82,2.82,4.23.76,1.14,1.51,2.28,2.26,3.42a1.07,1.07,0,0,1,.16.32c.06.38,0,.6-.34.73a1.17,1.17,0,0,1-.46,0Zm0-.36,2.91.41a1.3,1.3,0,0,0,.39,0c.24,0,.29-.19.16-.44a2.6,2.6,0,0,0-.21-.36c-.31-.48-.62-1-.94-1.43l-3.82-5.73q-1.73-2.58-3.43-5.18c-.21-.31-.26-.32-.48-.06-.85,1-1.71,2.09-2.57,3.14-.27.34-.52.69-.8,1a.34.34,0,0,0,0,.49c.76,1.13,1.51,2.27,2.26,3.41l1.31,2,1,1.46a1.9,1.9,0,0,0,1.39.86C95.32,180.52,96.26,180.66,97.21,180.79Z"/><path d="M97.21,152.5l3,.43a1.19,1.19,0,0,1,.49.19.67.67,0,0,1,.19.92c-.18.26-.37.49-.56.72-.93,1.13-1.86,2.24-2.78,3.37-1.06,1.3-2.11,2.61-3.17,3.92l-2,2.4c-.31.39-.51.37-.81-.09q-1.23-1.83-2.44-3.68c-.35-.53-.7-1.08-1-1.62-.22-.36-.23-.48,0-.74l1.59-1.95L91.65,154c.4-.48.79-1,1.22-1.44a1.48,1.48,0,0,1,1.35-.51l3,.43Zm-9,6.22c.55.85,1.09,1.68,1.64,2.5l1.9,2.85c.23.35.26.36.48.08.81-1,1.62-2,2.42-3s1.63-2,2.44-3l3.32-4.06a1.51,1.51,0,0,0,.18-.26c.18-.29.12-.48-.2-.6l-.2,0c-2-.28-4-.57-6-.84a1.16,1.16,0,0,0-1.14.42c-.39.48-.79.95-1.18,1.42-1,1.26-2.07,2.51-3.1,3.76C88.61,158.24,88.43,158.47,88.25,158.72Z"/></g></g></g></svg>