<svg xmlns="http://www.w3.org/2000/svg" xmlns:xlink="http://www.w3.org/1999/xlink" viewBox="0 0 625 320"><defs><style>.cls-1{isolation:isolate;}.cls-2{fill:url(#linear-gradient);}.cls-13,.cls-3,.cls-43,.cls-45{opacity:0.5;}.cls-3{fill:url(#linear-gradient-2);}.cls-24,.cls-33,.cls-36,.cls-4,.cls-9{fill:#fff;}.cls-17,.cls-4{opacity:0.2;}.cls-4{mix-blend-mode:overlay;}.cls-5{fill:#e6e4ff;}.cls-6{fill:url(#linear-gradient-3);}.cls-23,.cls-34,.cls-35,.cls-46,.cls-56,.cls-7{fill:none;}.cls-23,.cls-34,.cls-35,.cls-7{stroke:#fff;}.cls-23,.cls-34,.cls-35,.cls-56,.cls-7{stroke-linecap:round;stroke-linejoin:round;}.cls-7{stroke-width:0.74px;}.cls-8{fill:#58c0d6;}.cls-53,.cls-9{opacity:0.7;}.cls-10{fill:#9689f5;}.cls-11{fill:#402697;}.cls-12{fill:#876bd2;}.cls-14{fill:#8467cc;}.cls-14,.cls-17{mix-blend-mode:multiply;}.cls-15{fill:#ec5076;}.cls-16{fill:#4a38ff;}.cls-17{fill:#000c4f;}.cls-18{fill:#21146f;}.cls-19{fill:#493198;}.cls-20{fill:#27136e;}.cls-21{fill:url(#linear-gradient-4);}.cls-22{fill:url(#linear-gradient-5);}.cls-23{stroke-width:0.8px;}.cls-24,.cls-32{opacity:0.61;}.cls-25{fill:url(#linear-gradient-6);}.cls-26{fill:url(#linear-gradient-7);}.cls-27{fill:url(#linear-gradient-8);}.cls-28{fill:url(#linear-gradient-9);}.cls-29{fill:url(#linear-gradient-10);}.cls-30{fill:url(#linear-gradient-11);}.cls-31{fill:url(#linear-gradient-12);}.cls-34{stroke-width:0.4px;}.cls-35{stroke-width:0.54px;}.cls-36{opacity:0.8;}.cls-37{fill:#2a0e7e;}.cls-38{fill:#000b51;}.cls-39{fill:#f2aabf;}.cls-40{fill:#9d5ed4;}.cls-41{fill:#796bff;}.cls-42{fill:url(#linear-gradient-13);}.cls-43,.cls-44{fill:#4945b9;}.cls-45{fill:#2b1287;}.cls-46{stroke:#e3e1ff;stroke-miterlimit:10;stroke-width:0.87px;}.cls-47{fill:#9c92ff;}.cls-48{fill:#e7e4ff;}.cls-49{fill:#b4afff;}.cls-50{fill:#eb86a0;}.cls-51{fill:#000b2c;}.cls-52{fill:#fae8ee;}.cls-54{fill:#582cdd;}.cls-55{fill:#e75130;}.cls-56{stroke:#000;stroke-width:0.34px;}.cls-57{fill:#1bbde8;}</style><linearGradient id="linear-gradient" x1="312.51" y1="356.72" x2="310.69" y2="-7.32" gradientTransform="translate(2.96)" gradientUnits="userSpaceOnUse"><stop offset="0.09" stop-color="#ec5076"/><stop offset="0.12" stop-color="#ea517b"/><stop offset="0.38" stop-color="#d45fa8"/><stop offset="0.52" stop-color="#cc64b9"/><stop offset="0.56" stop-color="#be5fb5"/><stop offset="0.84" stop-color="#6b3fa1"/><stop offset="0.97" stop-color="#4a3299"/></linearGradient><linearGradient id="linear-gradient-2" x1="311.4" y1="296.04" x2="312.23" y2="46.65" gradientTransform="translate(2.96)" gradientUnits="userSpaceOnUse"><stop offset="0.41" stop-color="#ec5076"/><stop offset="0.47" stop-color="#d04b7c"/><stop offset="0.63" stop-color="#883e8c"/><stop offset="0.74" stop-color="#5b3595"/><stop offset="0.8" stop-color="#4a3299"/></linearGradient><linearGradient id="linear-gradient-3" x1="1497.28" y1="-638.57" x2="1550.88" y2="-638.57" gradientTransform="matrix(-0.59, 0.81, 0.81, 0.59, 1912.35, -763.88)" gradientUnits="userSpaceOnUse"><stop offset="0" stop-color="#58c0d6"/><stop offset="0.02" stop-color="#5cc1d7" stop-opacity="0.98"/><stop offset="0.48" stop-color="#b3e2ec" stop-opacity="0.62"/><stop offset="0.81" stop-color="#eaf7fa" stop-opacity="0.39"/><stop offset="0.97" stop-color="#fff" stop-opacity="0.3"/></linearGradient><linearGradient id="linear-gradient-4" x1="282.17" y1="126.99" x2="369.64" y2="450.8" gradientUnits="userSpaceOnUse"><stop offset="0.18" stop-color="#58c0d6"/><stop offset="0.44" stop-color="#528bbf" stop-opacity="0.63"/><stop offset="0.7" stop-color="#4d5baa" stop-opacity="0.29"/><stop offset="0.88" stop-color="#4a3d9d" stop-opacity="0.08"/><stop offset="0.97" stop-color="#493198" stop-opacity="0"/></linearGradient><linearGradient id="linear-gradient-5" x1="36.18" y1="153.09" x2="-7.03" y2="153.09" gradientUnits="userSpaceOnUse"><stop offset="0.09" stop-color="#58c0d6"/><stop offset="0.1" stop-color="#5cc1d7" stop-opacity="0.98"/><stop offset="0.52" stop-color="#b3e2ec" stop-opacity="0.62"/><stop offset="0.82" stop-color="#eaf7fa" stop-opacity="0.39"/><stop offset="0.97" stop-color="#fff" stop-opacity="0.3"/></linearGradient><linearGradient id="linear-gradient-6" x1="77.72" y1="335.04" x2="216.17" y2="27.94" gradientTransform="matrix(1, 0, 0, 1, 0, 0)" xlink:href="#linear-gradient-3"/><linearGradient id="linear-gradient-7" x1="26.49" y1="116.83" x2="176.26" y2="-77.73" xlink:href="#linear-gradient-5"/><linearGradient id="linear-gradient-8" x1="150.92" y1="212.61" x2="300.69" y2="18.06" xlink:href="#linear-gradient-5"/><linearGradient id="linear-gradient-9" x1="94.04" y1="168.83" x2="243.81" y2="-25.73" xlink:href="#linear-gradient-5"/><linearGradient id="linear-gradient-10" x1="67.97" y1="120.12" x2="79.81" y2="5.57" gradientUnits="userSpaceOnUse"><stop offset="0.27" stop-color="#58c0d6"/><stop offset="0.65" stop-color="#7985d3" stop-opacity="0.44"/><stop offset="0.84" stop-color="#876cd1" stop-opacity="0.2"/></linearGradient><linearGradient id="linear-gradient-11" x1="160.65" y1="124.65" x2="169.63" y2="37.74" xlink:href="#linear-gradient-10"/><linearGradient id="linear-gradient-12" x1="242.56" y1="124.64" x2="250.05" y2="52.12" xlink:href="#linear-gradient-10"/><linearGradient id="linear-gradient-13" x1="304.68" y1="146.08" x2="348.15" y2="146.08" gradientTransform="matrix(1, 0, 0, 1, 0, 0)" xlink:href="#linear-gradient-3"/></defs><g class="cls-1"><g id="Layer_57" data-name="Layer 57"><rect class="cls-2" x="2.01" y="-0.1" width="624.95" height="320.17"/><path class="cls-3" d="M547.59-.36c-23.79,30.29-62.16,68.81-117.74,84C328,111.5,261.15,35.64,162,55.21c-43.1,8.5-101,36.73-160.07,127v97.24c25-58.43,67.19-130.81,134.53-144.78,68.94-14.31,113.69,43.1,208.76,68.71,61.13,16.47,153.3,22.55,282.44-31.75V-.1Z"/><path class="cls-4" d="M252.18-.7,16.23,319.72l111.34-27.59,79.54-70.6-32.18,84,128.69-169.8-76.85,135L421.35-.7,402.82-1.89,190.13,184.89l.89-22.35Q230.79,81.68,270.56.79Z"/><circle class="cls-5" cx="87.88" cy="44.62" r="1.32"/><circle class="cls-5" cx="30.66" cy="173.94" r="2.32"/><circle class="cls-5" cx="328.98" cy="121.02" r="2.32"/><circle class="cls-5" cx="569.49" cy="16.93" r="3.31"/><circle class="cls-5" cx="364.03" cy="189.15" r="2.32"/><circle class="cls-5" cx="225.79" cy="85.96" r="1.65"/><circle class="cls-5" cx="164.28" cy="9.23" r="2.98"/><circle class="cls-5" cx="619.02" cy="199.4" r="1.98"/><circle class="cls-5" cx="222.81" cy="233.8" r="2.65"/><circle class="cls-5" cx="448.37" cy="8.9" r="1.98"/><circle class="cls-6" cx="497.51" cy="89.77" r="26.8" transform="translate(205.19 502.23) rotate(-64.9)"/><circle class="cls-7" cx="497.51" cy="89.77" r="26.8" transform="translate(205.19 502.23) rotate(-64.9)"/><circle class="cls-8" cx="497.51" cy="89.77" r="24.52" transform="translate(98.96 400.8) rotate(-48.2)"/><path class="cls-9" d="M477.35,101.8c.4-.2-2.2-3.69-2.68-10-.33-4.27.5-7.26,0-7.39s-2,2.46-2.39,5.28C471.36,96.26,476.82,102.07,477.35,101.8Z"/><path class="cls-10" d="M502.5,119a35,35,0,0,1-5-1c-4.39-3.11-10.14-10.88-14.92-20.75-5-10.36-7.59-20.13-7-25.34a34.46,34.46,0,0,1,1.77-3.61A34.16,34.16,0,1,1,502.5,119Z"/><path class="cls-11" d="M522,115.83c.74-.53,1.45-1.08,2.15-1.62l.42-.34c.66-.53,1.3-1.06,1.91-1.6l.31-.28c.57-.51,1.11-1,1.63-1.52l.22-.21c.55-.55,1.08-1.1,1.58-1.65l.32-.36c.5-.55,1-1.11,1.43-1.66a1.58,1.58,0,0,0,.12-.15c.43-.53.83-1.06,1.22-1.59l.23-.31c.39-.55.76-1.09,1.11-1.64.08-.11.14-.23.21-.34.34-.53.66-1.06,1-1.58l.06-.12q.46-.83.87-1.65l.18-.37c.26-.54.5-1.06.73-1.59l.12-.3c.19-.47.37-.93.54-1.4l.13-.33c.18-.5.34-1,.49-1.5.05-.15.09-.29.13-.44.14-.47.27-.94.38-1.4,0-.12.06-.23.08-.35.1-.41.19-.81.27-1.22l.09-.48c.09-.44.16-.87.22-1.3,0-.18,0-.35.07-.53s.08-.62.11-.92,0-.44.07-.66,0-.65.07-1l0-.62c0-.25,0-.5,0-.75s0-.64,0-.95v-.5c0-.52,0-1-.06-1.51,0,0,65.43-33.21,65.43-33.21C544.38,117,522,115.83,522,115.83Z"/><path class="cls-12" d="M540.39,81.1c0-.31,0-.61-.07-.91,0-.06,0-.12,0-.17a34.4,34.4,0,0,0-1.23-6.6l-.33-1,0-.06a1.31,1.31,0,0,0-.05-.15l0-.08,0-.07c0-.05,67.21-24.14,67.21-24.14L540.39,81.1Z"/><g class="cls-13"><path class="cls-14" d="M537.81,70.23C548.29,91.84,529.92,112,522,115.88A34,34,0,0,1,502.5,119a35,35,0,0,1-5-1c12.91.66,24.73-5.66,30.36-16.13,6.77-12.6,1.37-25.26.55-27.09-5.74-12.85-20.15-20.94-36.27-20.32A34.33,34.33,0,0,1,537.81,70.23Z"/></g><path class="cls-15" d="M605.82,47.9,548.55,68.2S598.87,53.29,605.82,47.9Z"/><path class="cls-11" d="M536.86,68.42l-.06-.09,0-.08-.11-.18-.06-.1-.18-.27-.07-.09c-.07-.11-.15-.23-.24-.35l-.07-.11-.31-.43-.07-.09q-.18-.25-.39-.51l-.06-.09-.47-.58-.05-.06-.56-.66c-4.85-5.59-16.16-15-35.55-11.78L597.44,30.6,536.89,68.48Z"/><path class="cls-12" d="M497.18,53.2c-.59.11-1.2.24-1.81.38l-.76.18c-.81.19-1.62.4-2.45.64,0,0,13-18.31,105.28-23.8L498.56,53Z"/><path class="cls-15" d="M492.16,54.4s20.27-17.66,105.28-23.8C597.44,30.6,510.8,33.16,492.16,54.4Z"/><path class="cls-16" d="M537.91,70.45c-.22-.17-21.43-16.48-40.41-6.65l-.25.13a52.07,52.07,0,0,1-15,19.82L478,85.83l.1.32L482.53,84l.07-.12a42.61,42.61,0,0,0,15-19.73C516,54.8,537.78,70.46,538,70.63Z"/><path class="cls-16" d="M538.2,71.17c0,.27-.51,27-20,35.71l-.26.12a52,52,0,0,0-24.83-.68l-4.32,2.06-.18-.28,4.49-2.11.14,0a42.88,42.88,0,0,1,13.94-1.45A42.17,42.17,0,0,1,518,106.64c18.78-8.59,20.15-35.38,20.15-35.65Z"/><path class="cls-16" d="M499.49,76.26l.28.23c5.86,4.84,10,19.16,10.06,19.31l.07.25.26,0c8.45,1.42,13.64-7.22,13.7-7.31l.09-.15,0-.17a39.62,39.62,0,0,0-10.48-19.31l-.11-.11h-.15A14.47,14.47,0,0,0,499.68,76Zm24,12.31c-.77,1.09-6.05,8.17-13.26,7.14-.63-2-4.72-14.64-10.27-19.53,1-1.43,5.64-7.47,13.25-6.92C514.13,70.26,521.31,78,523.45,88.57Z"/><polygon class="cls-15" points="565.54 50.55 546.01 48.43 526.3 57.99 527.12 58.53 546.16 49.29 564.33 51.31 565.54 50.55"/><polygon class="cls-15" points="571.04 61.25 569.83 61.6 559.87 77.57 540.25 87.08 540.14 88 560.46 78.22 571.04 61.25"/><path class="cls-17" d="M605.82,47.9,548.55,68.2l4.24-1.28c-8.27,3-14.15,5.09-14.18,5.12-.19-.48-.41-1-.63-1.42h0l-.09-.18h0l-.09-.21h0a.16.16,0,0,1,0-.07c-.3-.61-.62-1.21-.95-1.79l0,0,0,.06,27.44-17.17h0l1-.62L597.44,30.6S513.22,33.09,493,53.52a6.94,6.94,0,0,0-.83.88,34,34,0,0,0-14.78,13.84,34.46,34.46,0,0,0-1.77,3.61,16.27,16.27,0,0,0-.06,2.56,26.79,26.79,0,0,0,20.21,42.1,20.17,20.17,0,0,0,1.76,1.43h0c.82.23,1.64.44,2.47.62s1.67.32,2.51.43A34.15,34.15,0,0,0,522,115.88h0l.07,0C523.67,115.82,546.64,114.42,605.82,47.9ZM541,80.82h0l24.71-12.54h0Zm26.16-13.28h0l32.06-16.27h0Z"/><path class="cls-15" d="M624.33,72.31V67.16q-14.15-1.47-28.61-2.71V-1h-5.81v65c-33.93-2.83-69.07-4.75-105.07-5.63q-33.29-.81-65.49-.42V-1h-5.81V58A1562.13,1562.13,0,0,0,250.18,68.6V-1h-6.4V69.39c-69.33,8.73-129.36,22.06-175.68,38.8V-1H61.7V110.56C37.06,119.89,16.59,130.23,1,141.39c.08,2.37.17,4.74.25,7.11,3.81-2.5,9.48-6.14,16.49-10.29A300.3,300.3,0,0,1,61.7,116.74v83.47C36.33,209.84,15.28,220.5-.63,232c.08,2.37.16,4.73.25,7.1,3.82-2.52,9.5-6.19,16.52-10.38A305,305,0,0,1,61.7,206.36v84.23h6.4V203.86c35.94-13.66,91.11-29,175.68-40.24V244.5h6.4V162.78c3.83-.48,7.71-1,11.66-1.44,0,0,64-7.63,151.7-9.65V244.5h5.81V151.56c21-.42,43.39-.5,66.49-.08,35.3.64,70.42,2.68,70.42,2.68q17,1,33.65,2.26v73.34h5.81V156.89c9.45.76,18.83,1.58,28.08,2.48v-5.15c-9.25-.91-18.63-1.74-28.08-2.5V69.63Q610.17,70.86,624.33,72.31ZM68.1,197.83V114.25c35.67-13.54,90.73-28.81,175.68-39.68v83.87C174.58,167.47,114.56,181,68.1,197.83Zm182.08-40.21V73.76Q256.5,73,263,72.24S326.42,65,413.54,63.46v82.73A1573.5,1573.5,0,0,0,250.18,157.62Zm339.73-6.39c-34.17-2.66-69.57-4.39-105.85-5.07q-32.88-.61-64.71-.07V63.36c21.27-.31,43.88-.28,67.26.28,35.24.84,70.29,3.08,70.29,3.08q16.7,1.05,33,2.41Z"/><path class="cls-18" d="M626.33,73.05V67.87c-9.42-1-19-1.88-28.61-2.72V-.7h-5.8V64.63C558,61.79,522.84,59.86,486.84,59q-33.29-.82-65.49-.43V-.7h-5.81V58.62a1556,1556,0,0,0-163.36,10.7V-.7h-6.4V70.12c-69.33,8.78-129.36,22.18-175.68,39V-.7H63.7V111.52c-24.64,9.39-45.11,19.79-60.67,31q.14,3.57.25,7.14c3.81-2.51,9.49-6.17,16.49-10.35A299.71,299.71,0,0,1,63.7,117.74v84c-25.37,9.69-46.42,20.4-62.33,31.95.08,2.38.17,4.77.25,7.15,3.82-2.54,9.5-6.23,16.52-10.45A305.22,305.22,0,0,1,63.7,207.87v84.72h6.4V205.36c36-13.73,91.11-29.21,175.68-40.47v81.34h6.4V164.05c3.84-.49,7.71-1,11.67-1.45,0,0,63.94-7.68,151.69-9.71v93.34h5.81V152.76c21-.42,43.39-.51,66.49-.08,35.3.65,70.42,2.69,70.42,2.69q17,1,33.66,2.28v73.77h5.8V158.13c9.45.76,18.83,1.58,28.08,2.48v-5.18c-9.25-.91-18.63-1.74-28.08-2.51V70.36Q612.17,71.6,626.33,73.05ZM70.1,199.3V115.23c35.67-13.61,90.74-29,175.68-39.9v84.35C176.58,168.76,116.56,182.36,70.1,199.3Zm182.08-40.44V74.52c4.22-.53,8.49-1,12.85-1.54,0,0,63.39-7.26,150.51-8.83v83.21A1564.5,1564.5,0,0,0,252.18,158.86Zm339.74-6.43c-34.18-2.68-69.58-4.41-105.86-5.1q-32.88-.62-64.71-.07V64.06c21.27-.32,43.88-.29,67.26.27,35.24.85,70.3,3.1,70.3,3.1q16.68,1.06,33,2.42Z"/><rect class="cls-18" x="-1.41" y="-0.17" width="247.61" height="296.7"/><path class="cls-19" d="M461.86,201.1c-184,0-349.07,24.37-461.83,63v56H627.46V207.91C574.77,203.48,519.23,201.1,461.86,201.1Z"/><path class="cls-20" d="M461.65,201.1c-183.88,0-348.9,24.28-461.62,62.76v7.33c112.76-38.9,278.69-63.49,463.72-63.49,56.6,0,111.39,2.31,163.44,6.62v-6.43C574.52,203.47,519,201.1,461.65,201.1Z"/><path class="cls-21" d="M25.23,291.88a825.47,825.47,0,0,1,358.56-54.63l241.52,44L625,319.82l-552.24.12Z"/></g><g id="Layer_58" data-name="Layer 58"><rect class="cls-22" x="-0.05" y="14.09" width="25.45" height="278"/><rect class="cls-23" x="-0.05" y="14.09" width="25.45" height="278"/><path class="cls-24" d="M25.4,292.09a836.71,836.71,0,0,1,358.39-54.84V69.54a885.91,885.91,0,0,1-176.33-8A886.2,886.2,0,0,1,25.4,14.7Z"/><path class="cls-23" d="M25.4,292.09a836.71,836.71,0,0,1,358.39-54.84V69.54a885.91,885.91,0,0,1-176.33-8A886.2,886.2,0,0,1,25.4,14.7Z"/><path class="cls-25" d="M25.23,291.88a798.82,798.82,0,0,1,261.23-55.52L287,117.74a1074.77,1074.77,0,0,1-137.1-8.08A1073.25,1073.25,0,0,1,25.39,86.79Q25.32,189.34,25.23,291.88Z"/><path class="cls-23" d="M25.23,291.88a798.82,798.82,0,0,1,261.23-55.52L287,117.74a1074.77,1074.77,0,0,1-137.1-8.08A1073.25,1073.25,0,0,1,25.39,86.79Q25.32,189.34,25.23,291.88Z"/><path class="cls-26" d="M120.06,44.32A847.41,847.41,0,0,1,25.4,14.09l.06,66.76c29,7,60.65,13.36,94.6,18.6Z"/><path class="cls-27" d="M207.55,109.65c27.83,2.19,54.33,3.28,79.33,3.55l0-43.58C262.6,68.39,236,66,207.55,61.85Z"/><path class="cls-28" d="M203.67,61.27q-17.82-2.69-36.58-6.33-21.79-4.27-42-9.35v54.63q26,3.91,53.81,6.83,12.56,1.29,24.78,2.29Z"/><path class="cls-29" d="M120.39,68.33q-.18,15.57-.35,31.12L25.46,80.85l-.12-31.32c30.05-1.29,37.87.69,38.29,3.14.73,4.13-19.75,9-19.15,15.66.39,4.22,9,6.67,22.29,10.45,1.48.42,23.36,6.58,24.37,3.83s-20.77-11-19.5-16.36c1.15-4.84,19.71-1.5,21.94-7,1.62-4-5.26-13-40.39-34.81L97.06,38c14.11,14.82,15,22,13.23,25.77-2.81,6.12-13.91,6.78-13.58,9.75.22,2,5.36,3.31,9.4,3.13C114.22,76.32,119.32,69.77,120.39,68.33Z"/><path class="cls-30" d="M125.33,65.41c5.32,4.5,8.34,4.8,10.15,4,3.85-1.58,2.71-8.09,7.35-12.67,3.54-3.5,8.71-4.16,12.93-4.06l38.29,6.85c2.31,1.66,4.57,3.92,4.56,6.59,0,5.4-9.38,8.57-8.43,11.92.42,1.49,2.63,2.18,4,2.25,3.78.17,7.89-3.94,9.42-10.54q-.36,12-.71,24a38.87,38.87,0,0,1-21.81,3c-1.94-.32-12.11-2-12.67-6.09C167.73,85.6,183,81.92,182.64,75c-.18-3.38-4-5.7-5.07-6.34-14.1-8.52-44.16,7.3-43.87,18.77.07,2.84,2,6.18,4.31,6.59,3.21.57,4.74-5.11,10.9-7.1,5-1.61,10.43,0,10.65,1.52.28,1.83-7.2,3.08-7.35,6.34-.12,2.74,5,5,5.84,5.36,7.37,3.23,11.24-.22,20.28.22,2.21.1,3.76.33,25.34,8.94l-78.59-9.12Z"/><path class="cls-31" d="M241.07,65.76,219.32,63.3a11.48,11.48,0,0,0-8.74,1.12,9.79,9.79,0,0,0-2.69,2.47q.33,12.21.67,24.43c4.14-3,9.55-5.88,14.35-4.26,5.32,1.81,5.08,7.5,10.31,9.64,8.07,3.31,22-4.76,22-12.1,0-2.79-2.07-5.61-4.66-7.22-11.25-7-30.95,9.94-35.47,4.75-1.54-1.77-.3-5-.22-5.16,3.3-8.18,23.95-6.06,27.8-5.6,7.24.87,20.43,2.45,24.88,11.66.71,1.47,2.33,4.8,1.12,8.07-3.22,8.73-22.52,6.09-23.09,10.09-.49,3.41,12.65,11.89,24.89,8.07,12.72-4,16.18-18.67,16.36-19.51l0-20.13Z"/><path class="cls-23" d="M120.06,44.32A847.41,847.41,0,0,1,25.4,14.09l.06,66.76c29,7,60.65,13.36,94.6,18.6Z"/><path class="cls-23" d="M207.55,109.65c27.83,2.19,54.33,3.28,79.33,3.55l0-43.58C262.6,68.39,236,66,207.55,61.85Z"/><path class="cls-23" d="M203.67,61.27q-17.82-2.69-36.58-6.33-21.79-4.27-42-9.35v54.63q26,3.91,53.81,6.83,12.56,1.29,24.78,2.29Z"/><g class="cls-32"><path class="cls-33" d="M375.51,97.91q-18.35.48-37.45.52-21.85,0-42.73-.52V78.23q21.53.33,43.66.31,18.48,0,36.52-.31Z"/><path class="cls-33" d="M375.51,149H295.33v-36q20.81.1,41.8.11,19.26,0,38.38-.11Z"/><path class="cls-33" d="M375.66,226.78c-14.6-.93-30.18-1.41-46.61-1.24-11.78.11-23.08.56-33.88,1.24V164c12.91-.8,26.61-1.26,41-1.24,13.84,0,27,.47,39.47,1.24Z"/></g><path class="cls-34" d="M375.51,97.91q-18.35.48-37.45.52-21.85,0-42.73-.52V78.23q21.53.33,43.66.31,18.48,0,36.52-.31Z"/><path class="cls-35" d="M375.51,149H295.33v-36q20.81.1,41.8.11,19.26,0,38.38-.11Z"/><path class="cls-23" d="M375.66,226.78c-14.6-.93-30.18-1.41-46.61-1.24-11.78.11-23.08.56-33.88,1.24V164c12.91-.8,26.61-1.26,41-1.24,13.84,0,27,.47,39.47,1.24Z"/><path class="cls-24" d="M200.08,170.11c0,16.76-12.46,31.5-29.2,33-18.45,1.7-34.87-13-34.87-33s16.42-34.75,34.87-33.05C187.62,138.6,200.08,153.34,200.08,170.11Z"/><path class="cls-23" d="M196.25,170.11c0,14.76-11,27.74-25.71,29.1-16.25,1.5-30.71-11.46-30.71-29.1s14.46-30.6,30.71-29.1C185.28,142.37,196.25,155.35,196.25,170.11Z"/><path class="cls-36" d="M163.77,159.6v23.2l17.6-12.43Z"/><path class="cls-23" d="M163.77,159.6v23.2l17.6-12.43Z"/></g><g id="Layer_60" data-name="Layer 60"><path class="cls-37" d="M352.51,200.68q-.63,3.69-1.29,7.39-2,11.37-4.1,22.57a31.33,31.33,0,0,1,2.73,8.33c.77,4.36.32,7.28-.48,16-.24,2.62-.6,6.66-1,11.7-.09.58-1.69,10.42-8.12,12.46-6.75,2.13-14.5-5.7-17.36-12.22-1.62-3.68-1.07-5.56-2.24-17.22-.55-5.55-1.17-10.06-1.6-13a26.67,26.67,0,0,1-1.76-4.48,29.43,29.43,0,0,1-1-5c-1.72-16.67,1.41-42,1.41-42,.26-2.1.69-5.46,1.29-9.65Z"/><path class="cls-38" d="M339.75,206.12q-2.75,12.3-5.32,24.45c.37,1.09.91,2.82,1.42,5,1.51,6.38,1.44,11.05,1.42,22,0,2.38,0,6.85,0,12.76l9.32,2.38a25.59,25.59,0,0,0,1.82-6c.36-5,.72-9.08,1-11.7.8-8.73,1.25-11.65.48-16a31.33,31.33,0,0,0-2.73-8.33q2.1-11.2,4.1-22.57.66-3.7,1.29-7.39l-7-5.23-3.31-.32Q341,200.61,339.75,206.12Z"/><path class="cls-39" d="M328.08,99.53a24.74,24.74,0,0,0-2.53,5.47c-1.71,5.34-2.61,14.59,2,17.46a6.75,6.75,0,0,0,4.53.8q.27,3.66.53,7.33c1,5.32,6.3,8,10,6.66,3.35-1.24,5.59-5.89,3.87-10.39l-.4-17.73a10.74,10.74,0,0,0-18-9.6Z"/><path class="cls-16" d="M328.18,101.71a9,9,0,0,0,1,3.11c.68,1.21,1.51,2,1.56,3.28a3.36,3.36,0,0,1-.18,1.2,3.34,3.34,0,0,1,3.63.35c1,1.09.79,3.67-1.38,5.17a13.8,13.8,0,0,0,11.21,8.28,13.37,13.37,0,0,0,8.8-2.58,14,14,0,0,1-.52-1.9c-.78-4,.69-5.92,1.21-10.18.31-2.57.77-6.34-1.38-9.32a9,9,0,0,0-3.8-2.93,6.63,6.63,0,0,0-1.2-2.41c-2.3-2.87-6.48-2.8-8.8-2.76-3.27,0-7.84.12-11.22,3.79-3.94,4.29-3.07,10-2.93,10.87l2.76,1.21C327.37,105.16,327.78,103.44,328.18,101.71Z"/><path class="cls-40" d="M352.16,99.12a9,9,0,0,0-3.8-2.93,6.63,6.63,0,0,0-1.2-2.41c-1.61-2-4.15-2.58-6.32-2.72a7.42,7.42,0,0,1,4.61,2.5A6.71,6.71,0,0,1,346.66,96a9,9,0,0,1,3.79,2.93c2.15,3,1.7,6.74,1.38,9.32-.51,4.26-2,6.21-1.2,10.18a14,14,0,0,0,.51,1.89,13.49,13.49,0,0,1-8.45,2.61,10.35,10.35,0,0,0,1.36.19,13.37,13.37,0,0,0,8.8-2.58,14,14,0,0,1-.52-1.9c-.78-4,.69-5.92,1.21-10.18C353.85,105.87,354.31,102.1,352.16,99.12Z"/><path class="cls-41" d="M331.36,128.46l-.25-1.8a1.76,1.76,0,0,1,.9-1.8,24.55,24.55,0,0,1,4.75-2,25.32,25.32,0,0,1,11.29-.66q.68,2.49,1.33,5a67.12,67.12,0,0,1,3.74,9.8,44,44,0,0,1,1.58,6.9,37.08,37.08,0,0,1-.2,10.41c-2.17,15.72-3.54,16.48-3.46,23,0,3.76.49,3.15,1.59,13.18.74,6.67,1.12,12.16,1.33,15.8a51.19,51.19,0,0,1-37.67-21.39c.33-2.56.6-5.27.79-8.12.15-2.12.23-4.16.27-6.13-8,1-10.5-1.39-11.32-2.39-4.21-5.17,2.21-16.41,8.13-26.77a26.16,26.16,0,0,1,6.49-8.09A25,25,0,0,1,331.36,128.46Z"/><path class="cls-42" d="M307.27,168.81c-4.21-5.16,2.21-16.41,8.12-26.76a26.35,26.35,0,0,1,6.5-8.09,25,25,0,0,1,10.71-5l-.25-1.8a1.78,1.78,0,0,1,.9-1.81,24.79,24.79,0,0,1,14.9-2.78l-.1-.36a25.32,25.32,0,0,0-11.29.66,24.82,24.82,0,0,0-4.75,2,1.76,1.76,0,0,0-.9,1.8c.08.6.17,1.2.25,1.8a25,25,0,0,0-10.71,5,26.16,26.16,0,0,0-6.49,8.09c-5.92,10.36-12.34,21.6-8.13,26.77a6.5,6.5,0,0,0,3.1,2A5.72,5.72,0,0,1,307.27,168.81Z"/><path class="cls-43" d="M325.19,148a45.48,45.48,0,0,1-15.87,22.3,17.81,17.81,0,0,0,2.6.56,17,17,0,0,0,5.43-.17c.71-2.89,1.43-5.79,2.14-8.69C319.49,162,324.33,152.32,325.19,148Z"/><path class="cls-44" d="M325.19,148s-3.7,7.86-7.1,13.57a29.78,29.78,0,0,1-3.44,4.92l3.72.32c.38-1.6.75-3.21,1.12-4.81C319.49,162,324.33,152.32,325.19,148Z"/><path class="cls-45" d="M335.74,128.84s3.47,16.17,3.47,22.9-2.31,15.59,0,26.37c0,0,6.89,1.43,11.87.58,0-.39,0-.82,0-1.34-.08-6.55,1.29-7.31,3.46-23a37.08,37.08,0,0,0,.2-10.41,44,44,0,0,0-1.58-6.9,67.12,67.12,0,0,0-3.74-9.8A44.14,44.14,0,0,1,335.74,128.84Z"/><path class="cls-8" d="M314.11,140.25l-2.21,3.95a1.37,1.37,0,0,0,.56,1.89c1.31.68,3.36,1.77,4.67,2.64a1.37,1.37,0,0,0,1.94-.46l2.1-3.66a1.38,1.38,0,0,0-.36-1.78,26.59,26.59,0,0,0-5-3.18A1.37,1.37,0,0,0,314.11,140.25Z"/><path class="cls-46" d="M324.81,196s-1.81,30.95-1.45,34,5.07,27.52,5.25,35.84"/><circle class="cls-37" cx="323.32" cy="229.71" r="2.1"/><circle class="cls-46" cx="323.32" cy="229.71" r="2.1"/><path class="cls-47" d="M338.18,265s9.28,1.1,14-.79l-4.56,23.91a7.26,7.26,0,0,1,.54,3.12,7.38,7.38,0,0,1-.67,2.74l-.2,1.54a9.62,9.62,0,0,1-3.4,1.13,12.4,12.4,0,0,1-5.62-.73A18.73,18.73,0,0,1,336,295Q337.1,280,338.18,265Z"/><path class="cls-48" d="M347.62,288.07a7.59,7.59,0,0,1,.1,5.32,5.35,5.35,0,0,1-6.08,2.21c-4.06-1.18-4.45-1.88-4.45-1.88S335.64,287.42,347.62,288.07Z"/><path class="cls-16" d="M344.56,294.36a13.73,13.73,0,0,1-6.15-.81,19.91,19.91,0,0,1-2.24-.84L336,295a18.73,18.73,0,0,0,2.27.87,12.4,12.4,0,0,0,5.62.73,9.62,9.62,0,0,0,3.4-1.13l.2-1.54c.07-.15.15-.34.23-.54A11.2,11.2,0,0,1,344.56,294.36Z"/><path class="cls-49" d="M319.15,263.09A33.51,33.51,0,0,0,327.3,265a33.92,33.92,0,0,0,12.95-1.14q-1.72,14.61-3.44,29.24a10.37,10.37,0,0,1,.1,4.39,10.13,10.13,0,0,1-.92,2.65l-.09,2a32.93,32.93,0,0,1-4.67.36,50.06,50.06,0,0,1-5.85-.46c-5-.36-5.77.83-10.25.55a25.17,25.17,0,0,1-6.5-1.28,13.2,13.2,0,0,1-1.1-3.84c-.2-1.53-.38-3,.37-4,.91-1.31,2.77-1.46,3.75-1.55a66.48,66.48,0,0,0,11.89-2.47c-.52-4-1.13-8.2-1.83-12.45Q320.53,269.8,319.15,263.09Z"/><path class="cls-48" d="M336.81,293.11c-5.3.52-7.79,2.14-9.07,3.58-.43.49-2.77,3.24-2.5,3.51h0s1.32,1.56,10.74.13a11.42,11.42,0,0,0,.93-2.83A11.13,11.13,0,0,0,336.81,293.11Z"/><path class="cls-16" d="M332.72,300.48a63,63,0,0,1-6.55-.45c-5.53-.37-6.44.82-11.45.55a32.07,32.07,0,0,1-6.79-1.15,14,14,0,0,0,.7,1.91,25.17,25.17,0,0,0,6.5,1.28c4.48.28,5.29-.91,10.25-.55a50.06,50.06,0,0,0,5.85.46,32.93,32.93,0,0,0,4.67-.36c0-.62.06-1.23.08-1.84C335,300.41,334,300.48,332.72,300.48Z"/><path class="cls-50" d="M354.7,143.91a44,44,0,0,0-1.58-6.9,67.12,67.12,0,0,0-3.74-9.8q-.66-2.49-1.33-5a25.32,25.32,0,0,0-11.29.66c-.4.12-.76.26-1.13.39a25.28,25.28,0,0,1,11.25-.66q.66,2.49,1.33,5a66.08,66.08,0,0,1,3.73,9.8,42.49,42.49,0,0,1,1.58,6.89,36.71,36.71,0,0,1-.2,10.41c-2.17,15.72-3.53,16.49-3.46,23,.05,3.76.49,3.16,1.6,13.18.71,6.39,1.08,11.66,1.29,15.3l1.21.11c-.21-3.64-.59-9.13-1.33-15.8-1.1-10-1.55-9.42-1.59-13.18-.08-6.55,1.29-7.31,3.46-23A37.08,37.08,0,0,0,354.7,143.91Z"/><path class="cls-38" d="M321.68,262.15c-.18,0-2.37.41-2.37.91s1.13.72,2.71.93C321.91,263.37,321.79,262.76,321.68,262.15Z"/><path class="cls-51" d="M348.56,265l.17-2.36c2,.36,3.48.9,3.45,1.35S350.64,264.83,348.56,265Z"/><path class="cls-51" d="M337.25,264.63l0-1.53c.53.06,3,.36,3,.77S337.78,264.57,337.25,264.63Z"/><circle class="cls-15" cx="328.31" cy="269.92" r="1.56"/><path class="cls-49" d="M336.35,172.61s12.61,1.37,15.21,1c0,0-.25,4.41.09,5.27,0,0-5.32,1.55-14.88-1Z"/><circle class="cls-52" cx="338.68" cy="175.33" r="0.94"/></g><g id="Layer_73" data-name="Layer 73"><g class="cls-53"><path class="cls-54" d="M40.05,110.32v-1.73a.72.72,0,0,1,.59-.73.71.71,0,0,1,.35,0l9,1.69a2,2,0,0,1,1.16.86c.39.51.72,1.06,1.11,1.56a1.66,1.66,0,0,1,.27,1.45c0,.21-.27.35-.39.52a3.6,3.6,0,0,1-.51.59c-.33.3-.59.71-1,.85a1.42,1.42,0,0,1-.68.07c-2.85-.41-5.8-.86-8.87-1.32a1.17,1.17,0,0,1-.72-.35,1.12,1.12,0,0,1-.27-.72L40,111.62l-2.25-.39a.94.94,0,0,1-.46-.22.78.78,0,0,1-.28-.68.55.55,0,0,1,.24-.34.68.68,0,0,1,.49-.08Z"/><path d="M44.89,114.88l-3.67-.54-.18,0a1.41,1.41,0,0,1-.84-.42,1.31,1.31,0,0,1-.31-.83l-.06-1.31-2.09-.36a1.13,1.13,0,0,1-.56-.27,1,1,0,0,1-.34-.84.65.65,0,0,1,.29-.43.91.91,0,0,1,.6-.1h0l2.16.38v-1.58a.84.84,0,0,1,.68-.85.86.86,0,0,1,.42,0l9,1.7a2.25,2.25,0,0,1,1.27.93c.19.25.37.52.55.78s.36.53.55.78a1.86,1.86,0,0,1,.31,1.58.87.87,0,0,1-.27.41,1.07,1.07,0,0,0-.14.16,3.68,3.68,0,0,1-.53.61,3.44,3.44,0,0,0-.27.27,2.11,2.11,0,0,1-.8.61,1.73,1.73,0,0,1-.74.07Zm-7.16-4.81a.58.58,0,0,0-.38.06.37.37,0,0,0-.18.25.6.6,0,0,0,.22.52.64.64,0,0,0,.35.17l2.25.39a.2.2,0,0,1,.16.18l.07,1.46a.94.94,0,0,0,.21.6,1.08,1.08,0,0,0,.61.3l.18,0,8.69,1.3a1.5,1.5,0,0,0,.62-.07,1.72,1.72,0,0,0,.7-.54,3.83,3.83,0,0,1,.29-.28,3.74,3.74,0,0,0,.5-.58c0-.07.11-.13.16-.19a.73.73,0,0,0,.21-.28,1.51,1.51,0,0,0-.24-1.32c-.2-.26-.39-.53-.57-.8s-.35-.52-.54-.76a1.8,1.8,0,0,0-1.06-.79L41,108a.68.68,0,0,0-.28,0,.58.58,0,0,0-.49.6c0,.39,0,.77,0,1.18v.55a.12.12,0,0,1,0,.1.12.12,0,0,1-.12,0h0l-2.32-.41Z"/><path class="cls-55" d="M37.44,120.69l-2.27-.25a.85.85,0,0,1-.77-.79.68.68,0,0,1,.89-.56l2.11.25,0-1.54a1,1,0,0,1,.1-.49,1.16,1.16,0,0,1,1-.45.11.11,0,0,1,.08,0L47,118a.69.69,0,0,1,.37.16.7.7,0,0,1,.1,1c-.4.43-.82.85-1.21,1.3s-.65.8-1,1.19c-.2.23-.43.44-.64.67s-.31.39-.49.56a2.61,2.61,0,0,1-1.05.76,2.5,2.5,0,0,1-1,.09l-3.51-.32a1.18,1.18,0,0,1-1.15-1.21C37.43,121.67,37.44,121.21,37.44,120.69Z"/><path class="cls-56" d="M37.44,120.69l-2.27-.25a.85.85,0,0,1-.77-.79.68.68,0,0,1,.89-.56l2.11.25,0-1.54a1,1,0,0,1,.1-.49,1.16,1.16,0,0,1,1-.45.11.11,0,0,1,.08,0L47,118a.69.69,0,0,1,.37.16.7.7,0,0,1,.1,1c-.4.43-.82.85-1.21,1.3s-.65.8-1,1.19c-.2.23-.43.44-.64.67s-.31.39-.49.56a2.61,2.61,0,0,1-1.05.76,2.5,2.5,0,0,1-1,.09l-3.51-.32a1.18,1.18,0,0,1-1.15-1.21C37.43,121.67,37.44,121.21,37.44,120.69Z"/><path class="cls-57" d="M42.88,105.17l-4.21-.87a1.71,1.71,0,0,1-.79-.36,1.18,1.18,0,0,1-.44-.92c0-.4,0-.79,0-1.19s0-.29-.31-.36l-1.87-.41a1.53,1.53,0,0,1-.75-.42c-.28-.3-.25-.85.3-.88a2.54,2.54,0,0,1,.6.08l1.73.4c.27.06.29,0,.3-.21,0-.42,0-.84,0-1.27-.06-.79.54-1,1.18-.84s1.36.33,2,.49c.5.13,1,.26,1.48.36a2.72,2.72,0,0,1,1.69,1.17c.53.79,1.08,1.55,1.61,2.32l1.52,2.12c.18.26.37.51.53.78a.76.76,0,0,1,.08.72c-.09.21-.3.2-.52.16l-2.18-.46Z"/><path d="M42.88,105.17l-4.21-.87a1.71,1.71,0,0,1-.79-.36,1.18,1.18,0,0,1-.44-.92c0-.4,0-.79,0-1.19s0-.29-.31-.36l-1.87-.41a1.53,1.53,0,0,1-.75-.42c-.28-.3-.25-.85.3-.88a2.54,2.54,0,0,1,.6.08l1.73.4c.27.06.29,0,.3-.21,0-.42,0-.84,0-1.27-.06-.79.54-1,1.18-.84s1.36.33,2,.49c.5.13,1,.26,1.48.36a2.72,2.72,0,0,1,1.69,1.17c.53.79,1.08,1.55,1.61,2.32l1.52,2.12c.18.26.37.51.53.78a.76.76,0,0,1,.08.72c-.09.21-.3.2-.52.16l-2.18-.46Zm0-.34,3.89.82a1.32,1.32,0,0,0,.26,0c.11,0,.25,0,.3-.09s0-.23-.11-.35c-.62-.87-1.24-1.76-1.86-2.65s-1.2-1.73-1.82-2.6a1.92,1.92,0,0,0-1.19-.83A9.28,9.28,0,0,1,41.4,99c-.85-.2-1.7-.39-2.55-.63s-1.09-.07-1,.75c0,.32,0,.64,0,1v.16c0,.5,0,.52-.54.4l-1.86-.43-.26-.06c-.24,0-.37,0-.38.21s.12.29.39.36l.3.07,1.86.42c.42.1.48.19.49.58s0,.92,0,1.38a.8.8,0,0,0,.43.7,1.16,1.16,0,0,0,.41.13Z"/><path class="cls-33" d="M49.63,124.32l-2.85-.26a.64.64,0,0,1-.62-.43.6.6,0,0,1,.14-.62c.44-.5.9-1,1.34-1.49l2.14-2.42c.48-.55,1-1.08,1.45-1.62l1.57-1.78L54,114.34c.17-.19.35-.37.51-.56s.29-.52,0-1l-.49-.71-.91-1.34L51.22,108c-1.11-1.63-2.23-3.29-3.38-5-.49-.71-1-1.42-1.48-2.14a1.54,1.54,0,0,1-.23-.55.41.41,0,0,1,.47-.46,2,2,0,0,1,.26.06c1.81.45,3.58.9,5.31,1.31a2.58,2.58,0,0,1,1.56,1.18c.43.65.84,1.3,1.26,2L56.71,107l1,1.51c.66,1,1.32,2,2,3,.48.72.95,1.43,1.41,2.14a1.15,1.15,0,0,1,0,1.58c-.73.86-1.47,1.71-2.21,2.59L57,120.07c-.75.89-1.53,1.78-2.3,2.69-.31.36-.6.75-.91,1.12a1.7,1.7,0,0,1-1.55.68C51.35,124.46,50.49,124.4,49.63,124.32Z"/><path class="cls-33" d="M66.13,125.82,64,125.63A1.44,1.44,0,0,1,63,125c-.39-.5-.74-1-1.11-1.56L59.47,120l-.24-.35a.36.36,0,0,1,0-.51l1.59-1.94L62,115.81c.19-.23.36-.21.56.08.84,1.29,1.67,2.57,2.5,3.82l2,3.09c.53.81,1.06,1.61,1.58,2.42a.51.51,0,0,1,.11.22c0,.28,0,.44-.23.54a.69.69,0,0,1-.32,0Z"/><path class="cls-33" d="M66.14,104.7c.72.18,1.44.35,2.15.54a.91.91,0,0,1,.34.17.51.51,0,0,1,.13.68,4.54,4.54,0,0,1-.39.48l-2,2.3-2.32,2.77c-.49.58-1,1.15-1.48,1.74-.24.28-.39.26-.62-.09q-.95-1.44-1.89-2.91c-.28-.43-.56-.87-.83-1.31-.18-.28-.18-.38,0-.57l1.25-1.41L62,105.43c.31-.34.6-.69.93-1a1,1,0,0,1,1-.27l2.2.54Z"/><path d="M49.63,124.32l-2.85-.26a.64.64,0,0,1-.62-.43.6.6,0,0,1,.14-.62c.44-.5.9-1,1.34-1.49l2.14-2.42c.48-.55,1-1.08,1.45-1.62l1.57-1.78L54,114.34c.17-.19.35-.37.51-.56s.29-.52,0-1l-.49-.71-.91-1.34L51.22,108c-1.11-1.63-2.23-3.29-3.38-5-.49-.71-1-1.42-1.48-2.14a1.54,1.54,0,0,1-.23-.55.41.41,0,0,1,.47-.46,2,2,0,0,1,.26.06c1.81.45,3.58.9,5.31,1.31a2.58,2.58,0,0,1,1.56,1.18c.43.65.84,1.3,1.26,2L56.71,107l1,1.51c.66,1,1.32,2,2,3,.48.72.95,1.43,1.41,2.14a1.15,1.15,0,0,1,0,1.58c-.73.86-1.47,1.71-2.21,2.59L57,120.07c-.75.89-1.53,1.78-2.3,2.69-.31.36-.6.75-.91,1.12a1.7,1.7,0,0,1-1.55.68C51.35,124.46,50.49,124.4,49.63,124.32Zm0-23.42h0L47,100.25a1.63,1.63,0,0,0-.3-.07c-.22,0-.3.07-.24.31a1,1,0,0,0,.12.25l2.6,3.79,1.52,2.2,3.49,5.1c.24.34.46.69.68,1a.81.81,0,0,1,0,1l-.18.22-.71.79-2.15,2.4c-.52.59-1,1.18-1.57,1.78l-1.54,1.74-2.15,2.39a.35.35,0,0,0-.09.43.53.53,0,0,0,.36.16c.47.06.93.09,1.4.14l4,.37a1.25,1.25,0,0,0,1.08-.35c.29-.3.55-.63.82-1,.78-.91,1.54-1.83,2.3-2.73l1.17-1.37c.49-.57,1-1.15,1.44-1.71.63-.74,1.28-1.45,1.87-2.2.33-.42.34-.55,0-1.15,0,0,0,0,0-.06l-2.07-3.14-2.59-4-2.79-4.22a2,2,0,0,0-1.23-.9Z"/><path d="M66.13,125.82,64,125.63A1.44,1.44,0,0,1,63,125c-.39-.5-.74-1-1.11-1.56L59.47,120l-.24-.35a.36.36,0,0,1,0-.51l1.59-1.94L62,115.81c.19-.23.36-.21.56.08.84,1.29,1.67,2.57,2.5,3.82l2,3.09c.53.81,1.06,1.61,1.58,2.42a.51.51,0,0,1,.11.22c0,.28,0,.44-.23.54a.69.69,0,0,1-.32,0Zm0-.26,2.08.19a.82.82,0,0,0,.27,0c.16,0,.19-.15.11-.33l-.15-.24c-.22-.34-.43-.68-.66-1L65,120l-2.57-3.9c-.16-.24-.2-.24-.36-.05l-2,2.38c-.21.26-.41.53-.63.79s-.12.21,0,.38c.6.87,1.19,1.74,1.77,2.6l1,1.48.75,1.07a1.32,1.32,0,0,0,1,.6Z"/><path d="M66.14,104.7c.72.18,1.44.35,2.15.54a.91.91,0,0,1,.34.17.51.51,0,0,1,.13.68,4.54,4.54,0,0,1-.39.48l-2,2.3-2.32,2.77c-.49.58-1,1.15-1.48,1.74-.24.28-.39.26-.62-.09q-.95-1.44-1.89-2.91c-.28-.43-.56-.87-.83-1.31-.18-.28-.18-.38,0-.57l1.25-1.41L62,105.43c.31-.34.6-.69.93-1a1,1,0,0,1,1-.27l2.2.54Zm-6.8,4.12,1.3,2,1.46,2.24c.18.27.2.28.38.08L64.29,111l1.79-2.11c.79-.93,1.58-1.85,2.35-2.77a1.09,1.09,0,0,0,.13-.17c.13-.2.08-.34-.14-.45l-.14,0-4.35-1.07a.81.81,0,0,0-.85.23l-.9,1-2.41,2.68C59.62,108.47,59.49,108.64,59.34,108.82Z"/></g></g></g></svg>