<svg xmlns="http://www.w3.org/2000/svg" xmlns:xlink="http://www.w3.org/1999/xlink" viewBox="0 0 625 320"><defs><style>.cls-1{isolation:isolate;}.cls-2{fill:url(#linear-gradient);}.cls-21,.cls-29,.cls-3,.cls-31,.cls-41,.cls-49,.cls-68{opacity:0.5;}.cls-3{fill:url(#linear-gradient-2);}.cls-23,.cls-4,.cls-40,.cls-41{fill:#fff;}.cls-18,.cls-38,.cls-4{opacity:0.2;}.cls-4{mix-blend-mode:overlay;}.cls-5{fill:#493198;}.cls-21,.cls-6{fill:#e6e4ff;}.cls-7{opacity:0.9;}.cls-8{fill:#876cd1;}.cls-9{fill:#ec5076;}.cls-10{fill:#3d2496;}.cls-11{fill:#9c92ff;}.cls-12,.cls-15,.cls-22,.cls-32,.cls-34,.cls-42,.cls-48,.cls-54,.cls-65,.cls-66,.cls-67,.cls-69,.cls-72,.cls-76{fill:none;}.cls-12,.cls-15,.cls-22,.cls-42,.cls-48,.cls-54,.cls-67,.cls-69{stroke:#fff;}.cls-12,.cls-15,.cls-32,.cls-42,.cls-65,.cls-66,.cls-67,.cls-69,.cls-72{stroke-miterlimit:10;}.cls-12{stroke-width:1.69px;}.cls-13{fill:#b4afff;}.cls-14,.cls-47{fill:#e7e4ff;}.cls-15{stroke-width:0.84px;}.cls-16,.cls-18,.cls-64{fill:#010b51;}.cls-17{fill:#4a38ff;}.cls-19{fill:#21146f;}.cls-20{fill:#27136e;}.cls-22,.cls-34,.cls-48,.cls-54,.cls-76{stroke-linecap:round;stroke-linejoin:round;}.cls-22{stroke-width:0.8px;}.cls-24,.cls-31{fill:#fae8ee;}.cls-25{fill:#ec5177;}.cls-26{fill:#000c4f;}.cls-27,.cls-29{fill:#000b51;}.cls-28,.cls-33{fill:#2a0e7e;}.cls-30{fill:#846ad5;}.cls-32,.cls-34{stroke:#fae8ee;}.cls-32{stroke-width:0.75px;}.cls-33,.cls-52,.cls-70{opacity:0.3;}.cls-34,.cls-67{stroke-width:0.5px;}.cls-35{fill:#f3b0c3;}.cls-36{fill:#4b38ff;}.cls-37,.cls-62{opacity:0.7;}.cls-38,.cls-39{fill:#250a71;}.cls-40,.cls-47,.cls-64{opacity:0.4;}.cls-42{stroke-width:2px;}.cls-43,.cls-62,.cls-68,.cls-70{fill:#4c38ff;}.cls-44{fill:#eb86a0;}.cls-45{fill:#ce386a;}.cls-46{fill:#2b1287;}.cls-48{stroke-width:0.4px;}.cls-50{fill:#ead0da;}.cls-51,.cls-52{fill:#58c0d6;}.cls-53{fill:#4938ff;}.cls-55{fill:#000b4f;}.cls-56{fill:#876bd2;}.cls-57{fill:#9d5ed4;}.cls-58{fill:#081b6b;}.cls-59{fill:#e6e3ff;}.cls-60{fill:#482c99;}.cls-61{fill:#e3e1ff;}.cls-63{fill:#250a72;}.cls-65{stroke:#8b83ff;}.cls-66{stroke:#58c0d6;}.cls-71{fill:#8b82ff;}.cls-72{stroke:#e3e1ff;}.cls-73{opacity:0.8;}.cls-74{fill:#582cdd;}.cls-75{fill:#e75130;}.cls-76{stroke:#000;stroke-width:0.16px;}.cls-77{fill:#1bbde8;}</style><linearGradient id="linear-gradient" x1="313.6" y1="356.68" x2="311.78" y2="-7.09" gradientUnits="userSpaceOnUse"><stop offset="0.09" stop-color="#ec5076"/><stop offset="0.12" stop-color="#ea517b"/><stop offset="0.38" stop-color="#d45fa8"/><stop offset="0.52" stop-color="#cc64b9"/><stop offset="0.56" stop-color="#be5fb5"/><stop offset="0.84" stop-color="#6b3fa1"/><stop offset="0.97" stop-color="#4a3299"/></linearGradient><linearGradient id="linear-gradient-2" x1="312.49" y1="296.05" x2="313.32" y2="46.84" gradientUnits="userSpaceOnUse"><stop offset="0.41" stop-color="#ec5076"/><stop offset="0.47" stop-color="#d04b7c"/><stop offset="0.63" stop-color="#883e8c"/><stop offset="0.74" stop-color="#5b3595"/><stop offset="0.8" stop-color="#4a3299"/></linearGradient></defs><g class="cls-1"><g id="Layer_23" data-name="Layer 23"><rect class="cls-2" x="0.37" y="0.13" width="624.49" height="319.94"/><path class="cls-3" d="M545.54-.13c-23.76,30.27-62.11,68.76-117.65,83.94-101.79,27.83-168.58-48-267.69-28.42C117.13,63.89,59.27,92.1.25,182.3v97.16c25-58.38,67.14-130.71,134.43-144.68,68.89-14.29,113.61,43.07,208.61,68.67C404.37,219.9,496.47,226,625.52,171.72V.13Z"/><path class="cls-4" d="M250.35-.47,14.58,319.71l111.25-27.57,79.48-70.55q-16.06,42-32.15,83.94,64.31-84.82,128.6-169.67L225,270.71Q322.17,135.11,419.4-.47L400.88-1.66,188.35,185l.89-22.33Q229,81.83,268.72,1Z"/><path class="cls-5" d="M625.35,320V230.57c-43.49-3.53-89.32-5.42-136.68-5.42-216.15,0-400.76,39.38-474.09,94.88Z"/><circle class="cls-6" cx="86.17" cy="44.82" r="1.32"/><circle class="cls-6" cx="29" cy="174.03" r="2.31"/><circle class="cls-6" cx="327.09" cy="121.16" r="2.31"/><circle class="cls-6" cx="562.73" cy="22.34" r="3.3"/><circle class="cls-6" cx="362.13" cy="189.24" r="2.31"/><circle class="cls-6" cx="223.98" cy="86.13" r="1.65"/><circle class="cls-6" cx="162.51" cy="9.45" r="2.97"/><circle class="cls-6" cx="616.93" cy="199.48" r="1.98"/><circle class="cls-6" cx="221.01" cy="233.85" r="2.64"/><circle class="cls-6" cx="446.4" cy="9.12" r="1.98"/></g><g id="Layer_24" data-name="Layer 24"><g class="cls-7"><path class="cls-8" d="M383.13,26.44c-7.92-17.92-26-27.31-40.33-21l-17.52,8.26L328.94,22c-2.48,8.17-1.94,18,2.2,27.39s11.06,16.4,18.77,20.08l4,9.14,17.52-8.25C385.83,64,391.05,44.36,383.13,26.44Z"/><path class="cls-9" d="M341.44,7.37c14.36-6.34,32.41,3.05,40.33,21,5.54,12.54,4.64,25.93-1.31,35,7.15-9,8.61-23.47,2.67-36.91-7.92-17.92-26-27.31-40.33-21l-17.52,8.26.46,1Z"/><ellipse class="cls-10" cx="339.61" cy="46.18" rx="28.42" ry="35.47" transform="translate(10.3 141.15) rotate(-23.83)"/><path class="cls-11" d="M352.51,41.55c-6.42-14.55-21.08-22.17-32.74-17l-14.22,6.7,3,6.73a32.35,32.35,0,0,0,1.79,22.23A32.4,32.4,0,0,0,325.54,76.5l3.28,7.42,14.23-6.7C354.7,72.07,358.94,56.1,352.51,41.55Z"/><path class="cls-9" d="M319.35,25.59c11.66-5.15,26.31,2.47,32.74,17,3.63,8.23,3.86,16.91,1.26,23.83,3-7.08,3-16.24-.84-24.89-6.42-14.55-21.08-22.17-32.74-17l-14.22,6.7.31.71Z"/><ellipse class="cls-8" cx="317.18" cy="57.58" rx="23.07" ry="28.8" transform="translate(3.78 133.06) rotate(-23.83)"/><path class="cls-12" d="M339.47,41.78a38.59,38.59,0,0,1,4.38,29.43"/><path class="cls-12" d="M345,40.4a38.59,38.59,0,0,1,4.38,29.43"/><ellipse class="cls-13" cx="305.88" cy="65.98" rx="34.28" ry="36.75" transform="translate(7.99 161.78) rotate(-30)"/><path class="cls-9" d="M290.9,93.09c-10.15-17.58-5.08-39.5,11.31-49A33.29,33.29,0,0,1,330.57,42c-11.2-12.28-29-16-43.06-7.85-16.4,9.47-21.46,31.39-11.32,49a38.13,38.13,0,0,0,19.71,16.8A39.36,39.36,0,0,1,290.9,93.09Z"/><ellipse class="cls-14" cx="302.09" cy="67.18" rx="29.42" ry="36.15" transform="translate(6.89 160.05) rotate(-30)"/><path class="cls-13" d="M308.31,51.35c-5.59-9.68-14.95-15.44-23.89-15.69l-.4.21c-14.07,8.13-17.38,28.73-7.4,46a43.45,43.45,0,0,0,3.14,4.72c7.35,4.34,15.84,5.07,22.7,1.11C313.58,81.29,316.2,65,308.31,51.35Z"/><ellipse class="cls-15" cx="302.09" cy="67.18" rx="29.42" ry="36.15" transform="translate(6.89 160.05) rotate(-30)"/><ellipse class="cls-15" cx="302.09" cy="67.18" rx="29.42" ry="36.15" transform="translate(6.89 160.05) rotate(-30)"/><ellipse class="cls-16" cx="305.36" cy="65.48" rx="7.28" ry="7.83" transform="translate(8.17 161.45) rotate(-30)"/><path class="cls-17" d="M300.88,63.74l-17.8,12,1.58,3.17,19.9-8.16a4,4,0,0,0,2.52-4.36,4.15,4.15,0,0,0-2.73-3.16A3.91,3.91,0,0,0,300.88,63.74Z"/><ellipse class="cls-16" cx="283.9" cy="77.31" rx="1.12" ry="1.78" transform="translate(-5.16 132.28) rotate(-26)"/><path class="cls-18" d="M386.78,41.64h0c0-.74-.1-1.48-.17-2.23,0-.18,0-.37-.07-.56-.08-.74-.18-1.49-.31-2.24h0c-.13-.75-.29-1.5-.46-2.26,0-.18-.09-.37-.13-.56-.19-.76-.39-1.51-.62-2.27h0c-.22-.75-.48-1.51-.76-2.26-.06-.19-.13-.37-.21-.56-.28-.75-.58-1.51-.91-2.25A42.69,42.69,0,0,0,375.4,14.6a43.2,43.2,0,0,1,2.1,4.13c.33.75.63,1.5.92,2.26.07.18.14.37.2.56.28.75.54,1.5.77,2.26h0c.22.76.42,1.51.61,2.27,0,.19.09.37.13.56.18.76.34,1.51.47,2.26h0c.13.75.23,1.5.31,2.24,0,.19,0,.38.07.56.07.75.14,1.49.17,2.23h0c0,.74,0,1.47,0,2.2,0,.18,0,.36,0,.54,0,.73-.05,1.45-.1,2.16h0c-.06.71-.15,1.41-.24,2.11,0,.17,0,.34-.08.52-.11.69-.23,1.38-.37,2.06h0c-.14.68-.32,1.34-.5,2-.05.16-.09.32-.14.49-.2.65-.4,1.29-.64,1.92h0c-.23.63-.49,1.24-.76,1.84-.07.16-.14.3-.21.45-.28.6-.57,1.19-.89,1.77h0c-.32.57-.66,1.12-1,1.67l-.26.39c-.37.54-.74,1.07-1.14,1.57h0a23.62,23.62,0,0,1-9,7l-17.52,8.25a22.94,22.94,0,0,1-7.65,1.9c-.14.76-.68,3.54-1.53,7.21A24.12,24.12,0,0,0,354,78.62l17.52-8.25a23.59,23.59,0,0,0,9-7h0c.4-.5.77-1,1.13-1.57l.27-.39c.35-.55.69-1.1,1-1.67h0c.32-.57.61-1.16.89-1.76l.21-.45c.27-.61.52-1.22.76-1.85h0c.23-.63.44-1.28.64-1.93,0-.16.09-.33.14-.49.18-.66.36-1.32.5-2h0c.15-.68.27-1.37.38-2.06,0-.17.05-.35.07-.52.1-.7.19-1.4.24-2.11h0c.06-.71.09-1.43.11-2.16,0-.18,0-.36,0-.54C386.82,43.11,386.82,42.38,386.78,41.64Z"/></g></g><g id="Layer_25" data-name="Layer 25"><path class="cls-9" d="M622.23,72.48V67.33q-14.13-1.47-28.59-2.71V-.79h-5.8V64.12c-33.91-2.83-69-4.74-105-5.62q-33.25-.82-65.44-.43V-.79h-5.81V58.14A1562.76,1562.76,0,0,0,248.35,68.77V-.79H242V69.56c-69.27,8.73-129.26,22-175.54,38.78V-.79H60V110.7C35.39,120,14.93,130.36-.61,141.52l.24,7.1c3.81-2.5,9.48-6.14,16.48-10.29A301.06,301.06,0,0,1,60,116.88v83.41C34.66,209.91,13.63,220.56-2.27,232q.12,3.56.25,7.1c3.81-2.52,9.49-6.19,16.5-10.38A306.78,306.78,0,0,1,60,206.43V290.6h6.4V203.94c35.92-13.65,91-29,175.54-40.22v80.82h6.4V162.89c3.84-.49,7.71-1,11.66-1.44,0,0,63.9-7.63,151.58-9.65v92.74h5.81V151.68c21-.42,43.36-.51,66.44-.09,35.28.65,70.37,2.68,70.37,2.68q17,1,33.63,2.26v73.29h5.8V157q14.18,1.13,28.06,2.47v-5.15q-13.86-1.37-28.06-2.5v-82C603.26,70.63,612.81,71.51,622.23,72.48ZM66.41,197.91V114.39C102.05,100.86,157.08,85.6,242,74.74v83.81C172.81,167.57,112.84,181.08,66.41,197.91Zm181.94-40.18V73.93c4.22-.51,8.49-1,12.84-1.52,0,0,63.35-7.21,150.4-8.77v82.67A1574.17,1574.17,0,0,0,248.35,157.73Zm339.49-6.38c-34.15-2.66-69.53-4.39-105.78-5.07q-32.85-.61-64.66-.07V63.54c21.26-.31,43.85-.28,67.21.28,35.22.84,70.24,3.07,70.24,3.07q16.68,1.06,33,2.41Z"/><path class="cls-19" d="M624.23,73.23V68.05q-14.13-1.48-28.59-2.73V-.47h-5.8V64.81c-33.91-2.84-69-4.77-105-5.65q-33.25-.82-65.44-.43V-.47h-5.81V58.8A1551.15,1551.15,0,0,0,250.35,69.5v-70H244V70.29c-69.27,8.78-129.26,22.17-175.54,39V-.47H62V111.67c-24.62,9.38-45.08,19.77-60.62,31l.24,7.14c3.81-2.52,9.48-6.17,16.48-10.35A300.46,300.46,0,0,1,62,117.88v83.89C36.66,211.45,15.63,222.16-.27,233.7q.12,3.57.25,7.14c3.81-2.54,9.49-6.23,16.5-10.44A304,304,0,0,1,62,208V292.6h6.4V205.44c35.92-13.73,91-29.19,175.54-40.45v81.29h6.4V164.16c3.84-.5,7.71-1,11.66-1.46,0,0,63.9-7.67,151.58-9.7v93.28h5.81v-93.4c21-.42,43.36-.51,66.44-.09,35.28.65,70.37,2.69,70.37,2.69q17,1,33.63,2.28v73.71h5.8V158.24q14.18,1.14,28.06,2.48v-5.17q-13.86-1.38-28.06-2.52V70.53C605.26,71.36,614.81,72.25,624.23,73.23ZM68.41,199.38v-84C104.05,101.77,159.08,86.42,244,75.5v84.29C174.81,168.86,114.84,182.45,68.41,199.38ZM250.35,159V74.69c4.22-.52,8.49-1,12.84-1.54,0,0,63.35-7.25,150.4-8.82v83.15A1562.41,1562.41,0,0,0,250.35,159Zm339.49-6.42c-34.15-2.68-69.53-4.42-105.78-5.1q-32.85-.63-64.66-.07V64.24c21.26-.32,43.85-.29,67.21.27,35.22.85,70.24,3.1,70.24,3.1q16.68,1,33,2.42Z"/><path class="cls-20" d="M490.23,230.41c46.71,0,91.94,1.84,134.9,5.28v-5.13c-43.47-3.53-89.29-5.41-136.63-5.41-216.07,0-400.61,39.25-473.92,94.56H23.7C101.48,267.19,281.08,230.41,490.23,230.41Z"/></g><g id="Layer_27" data-name="Layer 27"><path class="cls-21" d="M217.74,162.6c10.37,2.74,29.71,9.65,37.85,26.85a36.85,36.85,0,0,1,1.55,3.83V131.93a23.72,23.72,0,0,0-1.85-8.28c-3.39-7.94-10.69-12.3-19.27-16-20.64-8.93-45.59-12.69-55.13-14V155A216.6,216.6,0,0,1,217.74,162.6Z"/><path class="cls-22" d="M217.74,162.6c10.37,2.74,29.71,9.65,37.85,26.85a36.85,36.85,0,0,1,1.55,3.83V131.93a23.72,23.72,0,0,0-1.85-8.28c-3.39-7.94-10.69-12.3-19.27-16-20.64-8.93-45.59-12.69-55.13-14V155A216.6,216.6,0,0,1,217.74,162.6Z"/><polygon class="cls-23" points="218.25 130.03 216.26 129.9 216.26 127.38 218.25 127.52 218.25 130.03"/><path class="cls-23" d="M223.16,149.85V136.9l-2-.14v12.4C221.84,149.38,222.51,149.61,223.16,149.85Z"/><path class="cls-23" d="M228.07,151.94V116.86l-2-.13V151C226.75,151.32,227.42,151.63,228.07,151.94Z"/><path class="cls-23" d="M218.25,148.25V133.3l-2-.14v14.55C216.93,147.88,217.6,148.07,218.25,148.25Z"/><path class="cls-23" d="M213.34,147V111.34l-2-.13v35.37Z"/><path class="cls-23" d="M203.53,145.29V123.76l-2-.14v21.43C202.2,145.12,202.87,145.2,203.53,145.29Z"/><path class="cls-23" d="M208.44,146V128.36l-2-.13v17.48C207.11,145.81,207.78,145.92,208.44,146Z"/><path class="cls-23" d="M198.62,144.74V117.39l-2-.14v27.32Z"/><path class="cls-23" d="M193.55,144.36v-17.5l-1.67-.12v17.53Z"/></g><g id="Layer_13" data-name="Layer 13"><path class="cls-24" d="M166.31,75.89c1.09,12.8-3.09,22.33-8.91,23.79-1.18.3-3.31.49-6.4-1.11l-2.5,3.9-10-3.62c.55-1.9,1.11-3.81,1.67-5.71l5.84-18c3.92-4,9.36-5.57,14-4A12.72,12.72,0,0,1,166.31,75.89Z"/><path class="cls-25" d="M149.39,80.52a52.68,52.68,0,0,0,4.1,23.75A101.13,101.13,0,0,1,153,90.45c.11-3.44.38-6.66.76-9.6a19.07,19.07,0,0,0,4.43-.22A18.77,18.77,0,0,0,162,79.55a13.45,13.45,0,0,0-.65-7.45A7.64,7.64,0,0,1,163,74.8a7.81,7.81,0,0,1,.22,4.21,5.92,5.92,0,0,0,3.34.43,6.08,6.08,0,0,0,3-1.4,14.74,14.74,0,0,0-2.05-8.85c-3.27-5.19-9.05-6.17-13.39-6.91-5.26-.89-7.46.45-8.2,1A7.36,7.36,0,0,0,144.21,65a5.82,5.82,0,0,0-2.37,0c-5.1,1.1-5.46,8.87-11.88,15.76a27.2,27.2,0,0,1-5.18,4.32,16.31,16.31,0,0,0,9-7.77,29.75,29.75,0,0,1-9,14.68A30.63,30.63,0,0,0,133,95.64a30.25,30.25,0,0,0,9.6,1.07c1-1.66,2-3.49,2.92-5.5A64.43,64.43,0,0,0,149.39,80.52Z"/><path class="cls-24" d="M130.37,81.67l.13-.13a28.89,28.89,0,0,0,3.18-4.15l.06-.1v0c3.51-5.53,4.57-10.65,8.63-11.53a5.82,5.82,0,0,1,2.37,0,7.56,7.56,0,0,1,1.73-1.73c.74-.52,2.95-1.86,8.21-1,4.15.71,9.6,1.65,12.93,6.27l-.08-.16c-3.27-5.19-9.05-6.17-13.39-6.91-5.26-.89-7.46.45-8.2,1A7.36,7.36,0,0,0,144.21,65a5.82,5.82,0,0,0-2.37,0c-5.1,1.1-5.46,8.87-11.88,15.76a27.2,27.2,0,0,1-5.18,4.32,16.26,16.26,0,0,0,4.54-2.49A13.36,13.36,0,0,0,130.37,81.67Z"/><path class="cls-24" d="M130.82,86.18a30.2,30.2,0,0,0,3.46-8.09,16.56,16.56,0,0,1-1.6,2.45,29.14,29.14,0,0,1-2.39,4.84A30,30,0,0,1,124.78,92l.84.51A29.44,29.44,0,0,0,130.82,86.18Z"/><path class="cls-24" d="M163.85,79.25a7.77,7.77,0,0,0-.32-3.65,7.87,7.87,0,0,0-1.18-2.17A7.6,7.6,0,0,1,163,74.8a7.71,7.71,0,0,1,.22,4.21A5.67,5.67,0,0,0,163.85,79.25Z"/><path class="cls-26" d="M151,98.57a7.27,7.27,0,0,1-.79-.32A8,8,0,0,1,147.44,96l2.46,4.31Z"/></g><g id="Layer_20" data-name="Layer 20"><path class="cls-27" d="M158.85,171.39q1.31,11.49,2.58,23,1.6,14.41,3.14,28.76c0,3.84-2.08,7.24-5.16,8.47-4.12,1.65-9.62-.73-11.56-5.93a72.18,72.18,0,0,0-3-9c-5-12.17-9.54-13.69-11.2-20.63-2.09-8.69,1.54-21.09,10.47-25.08C150.19,168.3,156.53,170.46,158.85,171.39Z"/></g><g id="Layer_21" data-name="Layer 21"><path class="cls-27" d="M164.57,223.19c.08,2.1.17,4.2.25,6.3a100.92,100.92,0,0,1-5.77,11.38,102.39,102.39,0,0,1-20.61,24.82c0-1.91.13-4.64.33-7.91.15-2.56.53-9,1.14-12.69.65-4,2.48-10.53,8.5-18.37a8.27,8.27,0,0,1,16.16-3.53Z"/><path class="cls-28" d="M131.69,290c-.48,2.33-.95,4.66-1.43,7a13.39,13.39,0,0,0,1.83,1.4,16.47,16.47,0,0,0,3.66,1.71,15.55,15.55,0,0,1,5.21,3.71c2,1.68,5.88,3.38,14.56,3.28,1-.54,1.25-1,1.27-1.32.18-2.3-9.08-3.25-17.63-9A37.59,37.59,0,0,1,131.69,290Z"/><path class="cls-11" d="M162.13,236.4c-1-.77-6.95,3.83-11.56,9.36-2.9,3.49-4.38,6.27-6.29,6-1.44-.2-2.38-2-2.93-3.51-1,5.32-1.77,7.95-2.24,7.91-.23,0-.39-.65-.49-1.89-.05,2.39-.18,5.55-.49,9.26-.82,9.77-1.23,14.66-3.15,19.07-2.07,4.75-4,6-3.34,8.69.56,2.2,2.13,2.33,6.34,6.85,3.69,3.95,3.18,4.6,5.45,6.08a13.45,13.45,0,0,0,9.08,2.35c1.12-.15,5.9-.76,6.43-3,.89-3.79-11.48-6.82-12.85-15.56a23,23,0,0,1,0-5.19,32.22,32.22,0,0,1,2.12-9.08c8-21,12-31.5,12.46-32.49C161.57,239.29,162.74,236.86,162.13,236.4Z"/></g><g id="Layer_18" data-name="Layer 18"><path class="cls-28" d="M157.32,173.72c-.73,5.43-1.64,11.08-2.76,16.91a301.19,301.19,0,0,1-7.94,31.74c-.46,4.85-4.6,8.28-8.8,7.94a8.41,8.41,0,0,1-7.25-6.73q-2.49-14.06-5-28.12c-.25-1.52-1.89-12.48,5.69-20.53,1.44-1.53,7.23-7.68,15.53-6.73A17.54,17.54,0,0,1,157.32,173.72Z"/><path class="cls-29" d="M151.17,169.37c-.19,5.79-.53,11.8-1.08,18a335.19,335.19,0,0,1-5.15,36.16,10.22,10.22,0,0,1-1,4.41,9,9,0,0,0,2.65-5.59,301.19,301.19,0,0,0,7.94-31.74c1.12-5.83,2-11.48,2.76-16.91A18.66,18.66,0,0,0,151.17,169.37Z"/><path class="cls-25" d="M132.26,226.42,127,196.72c-.27-1.6-2-13.18,6-21.69,1.22-1.29,5.39-5.71,11.51-6.9-7.06.27-11.94,5.42-13.24,6.8-7.58,8-5.94,19-5.69,20.53q2.5,14.06,5,28.12a9,9,0,0,0,2,4A9,9,0,0,1,132.26,226.42Z"/></g><g id="Layer_19" data-name="Layer 19"><path class="cls-28" d="M130.57,223.58c.06-.81,1.88-6.82,7.08-7.76,3.56-.64,7.42,1.36,9.41,5a28,28,0,0,1,.22,5.83,31.28,31.28,0,0,1-.87,5.43c-1.47,6.42-1.69,8.42-2.21,10.47-1.42,5.63-6.26,16.24-14.14,29-.41-1.87-1-4.54-1.56-7.77-1.2-6.66-1.81-10-1.89-12.59-.27-7.85,2.26-10,3.62-23.47C130.41,225.94,130.51,224.48,130.57,223.58Z"/><path class="cls-29" d="M146.05,231.5c-2.26,6.35-2.72,8.35-3.49,10.37-1.81,4.75-6.61,12.9-13.92,22.67.54,2.88,1,5.29,1.42,7,7.88-12.75,12.72-23.36,14.14-29,.52-2.05.74-4.05,2.21-10.47a35.15,35.15,0,0,0,.75-4.07C146.8,229.4,146.4,230.51,146.05,231.5Z"/><path class="cls-25" d="M129.89,266.11c-1.2-7.53-1.81-11.29-1.89-14.22-.32-10.52,3.71-15.76,3.62-26.51,0-1.13-.09-4.75-.38-4.76s-.46,1.47-.5,1.69a12.51,12.51,0,0,0-.17,1.27c-.06.9-.16,2.36-.34,4.14-1.36,13.51-3.89,15.62-3.62,23.47.08,2.59.69,5.93,1.89,12.59.59,3.23,1.15,5.9,1.56,7.77l.6-.93C130.41,269.26,130.16,267.75,129.89,266.11Z"/><path class="cls-30" d="M129.24,296.71l.27,7.13a14.21,14.21,0,0,0,2.11.93,16.59,16.59,0,0,0,4,.79c2.81.33,4.63,1.71,5.94,2.37,2.3,1.17,6.51,1.89,14.92-.26.89-.77,1-1.29.92-1.58-.38-2.28-9.59-1-19.27-4.62A37.43,37.43,0,0,1,129.24,296.71Z"/><path class="cls-13" d="M145.51,240.32a.73.73,0,0,0-1.18-.69,46.9,46.9,0,0,0-11.39,14.45,45.82,45.82,0,0,0-3.43,9.1,5.78,5.78,0,0,1-2-2.77c.51,2.33,1.14,5.43,1.71,9.11,1.52,9.69,2.27,14.54,1.46,19.27-.89,5.11-2.5,6.8-1.19,9.24,1.07,2,2.63,1.76,7.78,5.15,4.52,3,4.19,3.72,6.74,4.62a15.67,15.67,0,0,0,9.37.13c2.43-.69,3.64-1,4-1.84,1.35-3.43-11.75-7.87-14.92-18.88-.3-1.07-.25-4-.13-9.77.22-10.35.44-19.51,2.25-31.42C144.89,243.81,145.23,241.87,145.51,240.32Z"/><path class="cls-31" d="M146.35,294.39a17.15,17.15,0,0,0,.3,3.87,26.74,26.74,0,0,0,5.58,10c.52-.12.92-.23,1.17-.3,2.43-.69,3.64-1,4-1.84C158.37,303.53,151.31,300.4,146.35,294.39Z"/><path class="cls-31" d="M131.23,299.74c.57-3.78.41-7.7-.27-13.1-.06.73-.14,1.44-.26,2.15-.89,5.11-2.5,6.8-1.19,9.24A4.05,4.05,0,0,0,131.23,299.74Z"/><path class="cls-24" d="M129.57,266.54a60.4,60.4,0,0,1,15.29-27.07.68.68,0,0,0-.53.16,46.9,46.9,0,0,0-11.39,14.45,45.82,45.82,0,0,0-3.43,9.1,5.78,5.78,0,0,1-2-2.77c.32,1.46.68,3.21,1.05,5.21A7.29,7.29,0,0,0,129.57,266.54Z"/></g><g id="Layer_14" data-name="Layer 14"><path class="cls-13" d="M136.56,96.3a11.29,11.29,0,0,1-.57,2.06s-.14.37-.85,1.91l6.48,9.26.34,22,18.59-6c-.17-.63-.38-1.3-.64-2a20.55,20.55,0,0,0-2.54-4.76,9.35,9.35,0,0,0,.08-3.65,8.64,8.64,0,0,0-1.51-3.66c-.84-1.14-1.54-1.43-3.81-3.09-1.33-1-2.41-1.86-3.16-2.49.6-.74,1.21-1.51,1.83-2.3s1.12-1.46,1.65-2.18a45.31,45.31,0,0,1-6.67-3.36c-1-.63-2-1.26-2.83-1.89l-.36.53q-.83,0-1.71,0A32.53,32.53,0,0,1,136.56,96.3Z"/><path class="cls-32" d="M149.9,100.35l-2.87,5.7s8.42,14.7,9.21,17.73"/><path class="cls-28" d="M131.06,102.82v-1.38a7.63,7.63,0,0,1,1.23-1,8,8,0,0,1,1.71-.79c1.92-.55,5.11,2.58,5.79,3.26a34.67,34.67,0,0,1,5.69,7.53,52.31,52.31,0,0,0,.12,5.37,51,51,0,0,0,1.26,8.17c2.38,0,4.86,0,7.42-.13q3.15-.12,6.12-.36a11.5,11.5,0,0,1,.5,2,12.67,12.67,0,0,1-.32,4.87c-.79,3.52-1.18,5.28-1.41,6-.86,2.62-1.88,8.32-2.53,22a55.41,55.41,0,0,1,1.76,8.07c.5,3.55.88,8.86,1,8.85h0s-6.73,5-13.63,5.44c-7.53.47-15.14-4.48-19.75-12.08a58.49,58.49,0,0,0,3-11.75c1.28-8.52-.09-12.32,1.51-19.07a35.58,35.58,0,0,1,6.1-12.87,39.52,39.52,0,0,0,4.15-10.54,7.65,7.65,0,0,0-.07-4.49c-.26-.68-.73-1.54-2.78-3.41a36.77,36.77,0,0,0-5.12-3.92Z"/><path class="cls-30" d="M138.79,121.68a56.57,56.57,0,0,0-4.11,13.1c-1.61,8.78.09,11.45.76,12.35a9,9,0,0,0,3.42,2.69l-.3,4.79,3.93.16a1.15,1.15,0,0,1,1.1,1.11l.17,5.75a1.18,1.18,0,0,1-1,1.18l-3.27.32-2.77.61-.24,2.81c0,1.76.09,3.52.13,5.28a27.37,27.37,0,0,0,6,7.58l.44.39a2.55,2.55,0,0,1-.07,3.9c-1.44,1.17-3.17,2.51-5.16,4-2.45,1.77-3.31,2.25-4.49,3.16a26.54,26.54,0,0,0-7.88,10.57c-.07-1.84-.23-4.71-.58-8.21-1-10-2.22-11.46-1.69-16,.58-5.08,2.33-5.46,4.27-12.37a50.24,50.24,0,0,0,1.84-13.32,69.06,69.06,0,0,1,9.57-29.76Z"/><path class="cls-31" d="M126.77,193.2c-1-10-2.23-11.46-1.7-16,.59-5.08,2.34-5.45,4.27-12.36a49.92,49.92,0,0,0,1.84-13.32,68.74,68.74,0,0,1,2.52-13.57c.3-1,.63-2,1-3,0,0,0-.07,0-.11a56.57,56.57,0,0,1,4.11-13.1,69.06,69.06,0,0,0-9.57,29.76,50.24,50.24,0,0,1-1.84,13.32c-1.94,6.91-3.69,7.29-4.27,12.37-.53,4.58.69,6,1.69,16,.35,3.5.51,6.37.58,8.21a34.91,34.91,0,0,1,1.78-3.47C127.07,196.53,126.94,195,126.77,193.2Z"/><path class="cls-24" d="M136.8,171.71a26.85,26.85,0,0,0,6.14,7.72,2.92,2.92,0,0,1,1.16,2.35,2.86,2.86,0,0,1-1.26,2.29l-4,3.05c-2.62,2.09-5.64,3.64-7.87,6.09a29.1,29.1,0,0,0-5.38,8.27.24.24,0,0,1-.33.13.25.25,0,0,1-.15-.21h0l-.36-5.14c-.12-1.72-.23-3.43-.45-5.14s-.43-3.41-.71-5.1-.61-3.39-.8-5.12a19,19,0,0,1,.26-5.22,19.3,19.3,0,0,1,1.75-4.91,41,41,0,0,0,3.41-9.66,37.63,37.63,0,0,0,.71-5.08c.15-1.71,0-3.41,0-5.15a47.61,47.61,0,0,1,1.74-10.22,71.2,71.2,0,0,1,7.88-19.1.25.25,0,0,1,.34-.09.26.26,0,0,1,.1.32,56,56,0,0,0-4.36,14.66,24.81,24.81,0,0,0-.18,7.59,6.48,6.48,0,0,0,1.49,3.35,8.76,8.76,0,0,0,3,2.22.25.25,0,0,1,.15.24l-.3,4.75v0l-.24-.26c1.38.07,2.7.11,4.13.21a1.37,1.37,0,0,1,.94.71,1.33,1.33,0,0,1,.16.58v.52l.05,2.05,0,2,0,1a1.4,1.4,0,0,1-.37,1.06,1.44,1.44,0,0,1-1,.42l-1,.1-2,.19a.14.14,0,0,1-.15-.13.14.14,0,0,1,.12-.15l2-.21,1-.11a1.12,1.12,0,0,0,.82-.34,1,1,0,0,0,.26-.82l0-1-.07-2.05-.07-2.05,0-.51a1.14,1.14,0,0,0-.11-.4,1,1,0,0,0-.66-.47c-1.29-.07-2.71-.1-4.06-.15a.26.26,0,0,1-.24-.26h0v0l.3-4.75.14.24a9.31,9.31,0,0,1-3.16-2.34,7,7,0,0,1-1.6-3.59,25.17,25.17,0,0,1,.17-7.75,57.11,57.11,0,0,1,4.41-14.8l.44.24a70.41,70.41,0,0,0-7.82,19,47.15,47.15,0,0,0-1.73,10.1,49.77,49.77,0,0,1,0,5.18,35.5,35.5,0,0,1-.71,5.14,41.67,41.67,0,0,1-3.45,9.78,18.91,18.91,0,0,0-1.71,4.79,18.35,18.35,0,0,0-.25,5.07c.18,1.69.53,3.38.8,5.09s.52,3.41.71,5.12.33,3.44.45,5.16l.36,5.16-.48-.09a29.65,29.65,0,0,1,5.48-8.42,23,23,0,0,1,3.86-3.24c1.38-1,2.76-1.87,4.07-2.9l4-3a2.34,2.34,0,0,0,1.08-1.91,2.43,2.43,0,0,0-1-2,27.58,27.58,0,0,1-6.26-7.86.24.24,0,0,1,.11-.33A.25.25,0,0,1,136.8,171.71Z"/><path class="cls-30" d="M138.81,119.56a1,1,0,0,1,.72-1.32l3.38-.94,2.28-.67a1,1,0,0,1,1.3.73l1.23,4.63a1,1,0,0,1-.68,1.26l-5.41,1.83a1,1,0,0,1-1.34-.69Z"/><path class="cls-28" d="M141.19,119.92a.75.75,0,0,1,.52-.94l2.43-.69,1.65-.48a.75.75,0,0,1,.94.53l.88,3.34a.75.75,0,0,1-.49.9l-3.9,1.32a.76.76,0,0,1-1-.5Z"/><path class="cls-13" d="M128.58,158.47l-.44,3.8a68.44,68.44,0,0,0,31,14.9l.12-3.46a4.47,4.47,0,0,1,1.68,1.47c.32.49.68,1.24.74,3.88,0,.77,0,1.73-.05,2.85a1.19,1.19,0,0,1-1.19,1.1c-.61,0-1.35,0-2.19-.07,0,0-11.87-.68-31-12.91a11.65,11.65,0,0,1-3.43-3.21h0a2.21,2.21,0,0,1-.24-2c.31-.88.6-1.65.85-2.27.92-2.32,1.32-2.86,1.86-3.28A4.21,4.21,0,0,1,128.58,158.47Z"/><path class="cls-24" d="M160.07,178l1.6.06a5.47,5.47,0,0,0-.7-2.91,4.47,4.47,0,0,0-1.68-1.47l-.12,3.46a68.44,68.44,0,0,1-31-14.9l.44-3.8a4.21,4.21,0,0,0-2.31.82,3.44,3.44,0,0,0-1,1.4,2.1,2.1,0,0,0,.36,1.21h0a11.54,11.54,0,0,0,3.44,3.21C148.19,177.35,160.07,178,160.07,178Z"/><path class="cls-28" d="M159.29,173.71s1.23,1.1,1.15,2.14a6.56,6.56,0,0,1-.22,1.49l-1.05-.17Z"/><path class="cls-28" d="M128.14,162.27a3.9,3.9,0,0,1-1.06-1.13c-.27-.44-.59-1-.4-1.46.12-.32.41-.48,1-.79a5.84,5.84,0,0,1,1.05-.44,15.67,15.67,0,0,1-.25,2.4C128.37,161.36,128.26,161.84,128.14,162.27Z"/><path class="cls-33" d="M153.35,109.27a26.13,26.13,0,0,1,2.61,4.19L151.41,109l6,9.78a9.35,9.35,0,0,0,.08-3.65,8.64,8.64,0,0,0-1.51-3.66A9.51,9.51,0,0,0,153.35,109.27Z"/><path class="cls-34" d="M129.24,155.38a42.23,42.23,0,0,0,7,1.23s.65.06,5.27.32h0l-.36,4.21a22.11,22.11,0,0,1-6.6.31,22.85,22.85,0,0,1-5.75-1.38C129,158.5,129.1,156.94,129.24,155.38Z"/><path class="cls-24" d="M125.35,197.28a19.62,19.62,0,0,1,2.83-4.6,29.68,29.68,0,0,1,3.75-3.85,35.26,35.26,0,0,1,4.33-3.16c.74-.49,1.54-.9,2.31-1.35s1.6-.79,2.4-1.19a.12.12,0,0,1,.16.05.13.13,0,0,1,0,.16h0c-.79.41-1.59.8-2.37,1.22s-1.55.86-2.28,1.36a35.9,35.9,0,0,0-4.25,3.18,30.1,30.1,0,0,0-3.65,3.84,19.34,19.34,0,0,0-2.7,4.5v0a.26.26,0,0,1-.33.14.24.24,0,0,1-.14-.32Z"/><path class="cls-24" d="M125.5,193.93a15.27,15.27,0,0,1,2-3.29,23.33,23.33,0,0,1,2.56-2.79,24.92,24.92,0,0,1,3-2.31,29.56,29.56,0,0,1,3.29-1.86.15.15,0,0,1,.13.27h0a28.9,28.9,0,0,0-3.23,1.88,24.09,24.09,0,0,0-2.92,2.31,22.33,22.33,0,0,0-2.47,2.77,14.52,14.52,0,0,0-1.84,3.18v0a.25.25,0,1,1-.46-.18Z"/></g><g id="Layer_15" data-name="Layer 15"><path class="cls-13" d="M132.86,102.6a15.62,15.62,0,0,1,4.9,3.21,12.36,12.36,0,0,1,3.44,5.1c1.05,3.47-.51,6.76-1.22,8.32-2.29,5.06-4.88,12.53-8.1,23.64a13.35,13.35,0,0,1-2.55,7.77c-2.93,3.87-8.56,6.4-11.21,4.66a7.77,7.77,0,0,1-2.11-2.89,18.41,18.41,0,0,1-1.55-4c-1.23-5.12,3.34-14.22,5.1-25.41.45-2.84.78-6.2,2.66-9.77.5-.94.65-1,3-5.1a14.44,14.44,0,0,1,2.11-3.22A8.63,8.63,0,0,1,132.86,102.6Z"/><path class="cls-24" d="M117.12,154.11a18.65,18.65,0,0,1-1.6-4.11c-1.26-5.26,3.43-14.63,5.25-26.14.46-2.92.8-6.38,2.74-10,.51-1,.66-1.06,3.08-5.25a14.63,14.63,0,0,1,2.17-3.31,8.61,8.61,0,0,1,4.92-2.28c-.29-.14-.57-.27-.82-.37a8.63,8.63,0,0,0-5.53,2.32,14.44,14.44,0,0,0-2.11,3.22c-2.35,4.07-2.5,4.16-3,5.1-1.88,3.57-2.21,6.93-2.66,9.77-1.76,11.19-6.33,20.29-5.1,25.41a18.41,18.41,0,0,0,1.55,4,13.94,13.94,0,0,0,1.4,2.23Z"/><path class="cls-30" d="M137.21,111.46c.44-1.22-2.45-1.77-5.44-3.1a17.27,17.27,0,0,0-5.66-1.44,1.41,1.41,0,0,0-.22.06l-.67,1.16c-2.35,4.07-2.5,4.16-3,5.1-1.88,3.57-2.21,6.93-2.66,9.77-.11.71-.23,1.41-.37,2.11,1.68.49,5.83,1.61,8.36,1.44C130.77,126.33,136.76,112.69,137.21,111.46Z"/><path class="cls-25" d="M120.18,125.12c.13-.7.25-1.4.37-2.11.44-2.84.77-6.2,2.66-9.77.49-.94.64-1,3-5.1.26-.46.47-.83.66-1.15-.48-.06-.76-.07-.76-.07a1.41,1.41,0,0,0-.22.06l-.67,1.16c-2.35,4.07-2.5,4.16-3,5.1-1.88,3.57-2.21,6.93-2.66,9.77-.11.71-.23,1.41-.37,2.11,1.65.48,5.72,1.58,8.26,1.44A36.33,36.33,0,0,1,120.18,125.12Z"/><path class="cls-33" d="M129,141.14a18.43,18.43,0,0,0-6.75,1.2,17.78,17.78,0,0,1,2.79-1.85c2.93-1.54,4.62-1.29,6.34-2.23,1.41-.77,3-2.44,4-6.48q-1.51,4.86-3,9.72A18.43,18.43,0,0,0,129,141.14Z"/></g><g id="Layer_17" data-name="Layer 17"><path class="cls-35" d="M155.05,144.35l18.36-18.87a1.91,1.91,0,0,1,1.46-.57l20.22,1.18a.71.71,0,0,1,.45,1.21l-20.09,19.36a.65.65,0,0,1-.53.19l-19.42-1.31A.7.7,0,0,1,155.05,144.35Z"/></g><g id="Layer_16" data-name="Layer 16"><path class="cls-13" d="M125.93,142.42a53.22,53.22,0,0,1,9-.48l13.16,1.95h0l-12.77,9.25c-2.74.57-4.94,1.1-6.43,1.46a27.11,27.11,0,0,1-6,1.17,17.31,17.31,0,0,1-4.69-.47,9.45,9.45,0,0,1-2.23-4.59c-.14-.83-.59-3.48.78-5.46C117.27,144.39,118.51,143.24,125.93,142.42Z"/><path class="cls-36" d="M132.6,141.37a81.81,81.81,0,0,1-7.34,6.39,1.83,1.83,0,0,0-.92,1.21c-.07.77.76,1.41,1.13,1.71a46,46,0,0,1,4.63,4.43c.66-.08,1.7-.21,3-.46,4.34-.87,7-2.3,12.6-4.89,1.59-.73,4-1.84,7.1-3.15,2.31.07,4.21.11,5.6.13a8.57,8.57,0,0,0,1.65-.13,6.42,6.42,0,0,0,3.26-1.61,5.57,5.57,0,0,0,.95-1.22,5.06,5.06,0,0,0,3.17-2.86,4.48,4.48,0,0,0,2.31-1.09,4.35,4.35,0,0,0,1.17-1.78,1.57,1.57,0,0,0,1-.87c0-.09.24-.63,0-1s-1-.22-2-.08-2,.11-3,.21a15.8,15.8,0,0,1-4.64-.21c1-.28,3.13-1,4-2.84.06-.12.75-1.61.23-2.09-.31-.29-.94-.09-1.21,0a46.56,46.56,0,0,1-6.33,1.33,18.84,18.84,0,0,0-4.51,2.56c-1.32,1-1.7,1.57-2.83,2.38a15.43,15.43,0,0,1-5.45,2.27,43.66,43.66,0,0,1-9.1,1.46C135.17,141.34,133.64,141.37,132.6,141.37Z"/><g class="cls-37"><path class="cls-38" d="M162,144.8a8.46,8.46,0,0,1-1.9.15c-1.61,0-3.79-.06-6.46-.14-3.52,1.51-6.34,2.78-8.17,3.62-6.5,3-9.52,4.63-14.51,5.64l-1.61.28.72.76c.66-.08,1.7-.21,3-.46,4.34-.87,7-2.3,12.6-4.89,1.59-.73,4-1.84,7.1-3.15,2.31.07,4.21.11,5.6.13a8.57,8.57,0,0,0,1.65-.13A5.83,5.83,0,0,0,164,144.2,8.13,8.13,0,0,1,162,144.8Z"/><path class="cls-39" d="M166.88,141.55a6.31,6.31,0,0,1-1.1,1.4l-.18.16a5.23,5.23,0,0,0,.62-.5,4.94,4.94,0,0,0,.89-1.14Z"/><path class="cls-39" d="M170.54,138.25a6.05,6.05,0,0,1-1.35,1.95,1.67,1.67,0,0,1-.16.12,4.07,4.07,0,0,0,.67-.49,4.41,4.41,0,0,0,1.11-1.63Z"/></g><path class="cls-39" d="M162.23,136.14c1-.28,3.13-1,4-2.84.06-.12.7-1.5.27-2-.06.48-.14,1-.17,1.12-.44,2.19-5.9,3.53-6.82,3.75l1.59,0c.62,0,1.24,0,1.55,0Z"/><path class="cls-39" d="M171.87,137.18a1.93,1.93,0,0,0,.11-.58c-.24.46-.58,1.2-1.11,1.45A1.57,1.57,0,0,0,171.87,137.18Z"/><path class="cls-39" d="M161.25,139.78a25,25,0,0,0,6.21-.36c1.32-.36,2.43-.61,3.13-.76a4.21,4.21,0,0,0,.28-.61A27,27,0,0,1,161.25,139.78Z"/><path class="cls-39" d="M167.12,141.45l-.22,0a18.69,18.69,0,0,1-6.16,1.44,51.55,51.55,0,0,0,5.84-.64A5.21,5.21,0,0,0,167.12,141.45Z"/><path class="cls-39" d="M163.84,144.35a4.69,4.69,0,0,0,.38-.57,18.91,18.91,0,0,1-3.61,1A29.35,29.35,0,0,0,163.84,144.35Z"/><path class="cls-39" d="M159.92,144.85h0Z"/><path class="cls-39" d="M160.61,144.8l-.69,0A5.89,5.89,0,0,0,160.61,144.8Z"/></g><g id="Layer_22" data-name="Layer 22"><path class="cls-40" d="M143.93,172.39a305.57,305.57,0,0,1-35.76-2.07v61.36a305.5,305.5,0,0,0,35.76,2.06c62.53,0,113.21-18.12,113.21-40.46V131.93C257.14,154.28,206.46,172.39,143.93,172.39Z"/><path class="cls-22" d="M143.93,172.39a305.57,305.57,0,0,1-35.76-2.07v61.36a305.5,305.5,0,0,0,35.76,2.06c62.53,0,113.21-18.12,113.21-40.46V131.93C257.14,154.28,206.46,172.39,143.93,172.39Z"/><ellipse class="cls-22" cx="165.12" cy="200.72" rx="19.35" ry="20"/><ellipse class="cls-40" cx="167.25" cy="200.01" rx="18.39" ry="20.83"/><path class="cls-41" d="M165.12,200.72l4.19,21.05A15.87,15.87,0,0,0,184.36,211Z"/><path class="cls-42" d="M191.37,204.44a101.64,101.64,0,0,0,42.43-11"/><path class="cls-42" d="M191.37,211.4a101.44,101.44,0,0,0,42.43-11"/><path class="cls-42" d="M191.37,218.79a101.64,101.64,0,0,0,42.43-11"/></g><g id="Layer_9" data-name="Layer 9"><path class="cls-14" d="M394.23,137.58c-2.45,6.73-5.41,14-9,21.53a246.29,246.29,0,0,1-12.53,23.08.65.65,0,0,0,.87.92c.86-.47,1.75-1,2.65-1.58a42.93,42.93,0,0,0,7.42-6,23.23,23.23,0,0,1-2.47,8.12,23.53,23.53,0,0,1-2.57,3.9.65.65,0,0,0,.09.93,43.94,43.94,0,0,0,35,8.41L415.24,163Z"/><path class="cls-43" d="M398.8,143.11c-1.59,6.1-3.34,12.4-5.28,18.85-3.26,10.81-6.64,20.71-10,29.75,1.25.72,2.62,1.44,4.13,2.12l3.28,1.29c.33.12.66.25,1,.36a44.55,44.55,0,0,0,21.72,1.41L415.24,163Z"/></g><g id="Layer_11" data-name="Layer 11"><path class="cls-44" d="M408.79,175.77a61.16,61.16,0,0,1,.58,8.71c0,1.75-.08,13.45-2.14,19a.65.65,0,0,0-.06.35c.52,3.49,35.13.76,35.13.76l.45-45.12Z"/><path class="cls-45" d="M408.79,175.77a27.45,27.45,0,0,1,.68,4.49c.06.76.08,1.48.07,2.17A26.14,26.14,0,0,0,428,172.15Z"/></g><g id="Layer_12" data-name="Layer 12"><path class="cls-46" d="M408.67,187.78a40.58,40.58,0,0,0,33.39-7l-.84,19.76,13.08-2.51,24.2,9.74c11.3,24.63-.41,48.78-15.58,53.13-10.94,3.14-25.19-3.59-34.49-16.41l-34.22,1.11L380.3,319.92H358a600.51,600.51,0,0,1,1.4-63.43c.78-10.48,1.82-20.6,3.06-30.32a15.43,15.43,0,0,1,3.33-9.18c.93-1.12,2.23-2.29,9.18-5.84,3.31-1.69,6.1-3,8.07-3.9l24.09-3.42a52.13,52.13,0,0,0,1.5-9.65A50.51,50.51,0,0,0,408.67,187.78Z"/><path class="cls-14" d="M430,188.28A40.3,40.3,0,0,0,442,183.41l.11-2.59a40.53,40.53,0,0,1-29.41,7.67A40.66,40.66,0,0,0,430,188.28Z"/><path class="cls-14" d="M444.23,201.08l11.88-2.28-1.81-.73-10,1.92C444.26,200.35,444.25,200.72,444.23,201.08Z"/><path class="cls-14" d="M431.44,245l-2.58.08c7.09,9.46,16.87,15.48,25.89,16.45C446.42,259.68,437.78,253.77,431.44,245Z"/><path class="cls-47" d="M362.45,257c.78-10.48,1.82-20.6,3.06-30.32a15.43,15.43,0,0,1,3.33-9.18c.93-1.12,2.23-2.29,9.18-5.84,3.31-1.69,6.1-3,8.07-3.9l21.08-3.92-24.09,3.42c-2,.9-4.76,2.21-8.07,3.9-6.95,3.55-8.25,4.72-9.18,5.84a15.43,15.43,0,0,0-3.33,9.18c-1.24,9.72-2.28,19.84-3.06,30.32a600.51,600.51,0,0,0-1.4,63.43h3A596.42,596.42,0,0,1,362.45,257Z"/><path class="cls-11" d="M410.63,249.12a63.57,63.57,0,0,1-2.12-9.29c-1.05-7-.56-11.53-.49-18.1a153.65,153.65,0,0,0-.85-17.9,57.37,57.37,0,0,0,1.34-8.68,54.18,54.18,0,0,0,.16-5.87,42.62,42.62,0,0,0-6.19,2.28c-1.05.49-2,1-2.92,1.49a4.18,4.18,0,0,0-2.14,3.64v5.64l-14.34,4.92c-1.64,7.53-3.24,13.4-4.41,17.41a95.89,95.89,0,0,0-3.91,17.45c-.17,1.44-.27,2.64-.33,3.43-.5,15.52,3.24,20,6.2,22.17,1.3,1,26.25-8.48,26.25-8.48Z"/><path class="cls-13" d="M445.5,185.17a1.45,1.45,0,0,0-2.32-1.22,32.46,32.46,0,0,1-16.34,6.23,1.48,1.48,0,0,0-1.33,1.53c.28,6,.27,11.13.19,15a84,84,0,0,1-1,13.87c-1.18,6.71-2,11.19-5.05,14.63-2.74,3-5.58,3.37-16.39,5.54s-32,7.07-32,7.07h0s-1.64,5.48-2.93,11.82c-1.58,7.76-2,11.84-.85,16.93,1.08,4.67,2.6,5.31,5,13.62.92,3.11,1.43,5.5,1.77,7.06,0,0,1.29,6,2.77,22.19h85l-2.77-71.88a86.86,86.86,0,0,1-6.31-11.35c-2.08-4.52-3.13-6.78-3.53-9.83-.58-4.41.53-6.86,2.27-14.38.77-3.31,1.76-8.05,2.63-13.9l-9.18-2.74Q445.3,190.25,445.5,185.17Z"/><path class="cls-26" d="M399,194.86c-.34.91-.13,3.21,8.13,9a57.37,57.37,0,0,0,1.34-8.68,54.18,54.18,0,0,0,.16-5.87c-1.44.89-3.55,2.12-6.19,3.44C400.1,193.9,399.32,194.14,399,194.86Z"/><path class="cls-26" d="M398.08,206.25a17.44,17.44,0,0,0,3.75,2.47c1.8,1,3.88,3.41,4.94,9.55-1.12-7.3-2.95-9.89-4.51-10.84a12.49,12.49,0,0,1-3.43-2.9,11.81,11.81,0,0,1-1.41-2.2l-2.06.71A15.11,15.11,0,0,0,398.08,206.25Z"/><path class="cls-26" d="M445.12,195.33a40.24,40.24,0,0,1-14,10.83A65.88,65.88,0,0,0,447.23,196Z"/><path class="cls-22" d="M425.51,191.71c.29,3.52,3.05,40.14-8.63,45.1a124.88,124.88,0,0,1-13.63,3.91c-3.68.88-6.75,1.46-8.86,1.83"/><line class="cls-22" x1="385.89" y1="273.05" x2="392" y2="318.49"/></g><g id="Layer_29" data-name="Layer 29"><path class="cls-21" d="M380.27,115.73c-5.18-3.15-14.58-9.74-16.44-18.22a13.82,13.82,0,0,1-.27-1.84l-9,24.51a8,8,0,0,0-.21,3.68c.66,3.84,3.95,7,8,10.21,9.81,7.65,22.69,14.1,27.65,16.5l9-24.52A162.12,162.12,0,0,1,380.27,115.73Z"/><path class="cls-48" d="M380.27,115.73c-5.18-3.15-14.58-9.74-16.44-18.22a13.82,13.82,0,0,1-.27-1.84l-9,24.51a8,8,0,0,0-.21,3.68c.66,3.84,3.95,7,8,10.21,9.81,7.65,22.69,14.1,27.65,16.5l9-24.52A162.12,162.12,0,0,1,380.27,115.73Z"/><g class="cls-49"><polygon class="cls-23" points="380.63 130.38 379.63 129.82 380.1 128.86 381.11 129.41 380.63 130.38"/></g><path class="cls-41" d="M379.44,139.19l2.43-4.95-1-.55-2.33,4.73Z"/><path class="cls-41" d="M381.58,141.23l6.58-13.4-1-.56-6.44,13.11C381,140.66,381.3,141,381.58,141.23Z"/><path class="cls-41" d="M377.21,137.34l2.81-5.71-1-.56-2.73,5.56Z"/><path class="cls-41" d="M374.92,135.62,381.61,122l-1-.55L374,135Z"/><path class="cls-41" d="M370.19,132.48l4-8.23-1-.55-4,8.19Z"/><path class="cls-41" d="M372.57,134l3.32-6.75-1-.56-3.28,6.68Z"/><path class="cls-41" d="M367.76,131l5.13-10.45-1-.56-5.12,10.44Z"/><path class="cls-41" d="M365.22,129.6l3.29-6.69-.84-.46-3.29,6.7Z"/></g><g id="Layer_8" data-name="Layer 8"><path class="cls-44" d="M410.08,112.1A62.23,62.23,0,0,0,403,120a64.3,64.3,0,0,0-8.81,16.19c-4,10.72-9.4,25.48-2.14,34.53,6.23,7.76,18.88,7.65,26.13,5.94,15.53-3.66,24.68-19,26.73-31.66a39.21,39.21,0,0,0-.48-14.76,27.58,27.58,0,0,0-5.71-9.29C428.39,110,412.43,111.8,410.08,112.1Z"/><path class="cls-24" d="M390.63,147.06a6.7,6.7,0,0,1-2.43-2,7,7,0,0,1-1.37-4.53,25.27,25.27,0,0,1,2.6-8.77l.43-.8a9.43,9.43,0,0,1,6.77-4.75,18.15,18.15,0,0,1,2.79-.22c10.1,0,20.43,8.16,24.69,14.27a19.91,19.91,0,0,0,7,6.58,16.86,16.86,0,0,0,3.29,1.37l-8.53,8.94a14.84,14.84,0,0,1-3.54-1.12c-4.29-2-5-4.95-8.5-8.5a27.72,27.72,0,0,0-12.2-7,28.16,28.16,0,0,0-8.22-1.1Q392,143.26,390.63,147.06Z"/><path class="cls-50" d="M413.83,147.56c3.5,3.55,4.21,6.5,8.5,8.5a14.13,14.13,0,0,0,2.75.95,20.8,20.8,0,0,1-5.34-5.55c-4.26-6.11-14.59-14.31-24.7-14.28a19.7,19.7,0,0,0-2.78.23,9.26,9.26,0,0,0-5.39,2.88c0,.09,0,.18,0,.27a7,7,0,0,0,1.37,4.53,6.7,6.7,0,0,0,2.43,2q1.38-3.8,2.78-7.59a28.16,28.16,0,0,1,8.22,1.1A27.72,27.72,0,0,1,413.83,147.56Z"/><path class="cls-51" d="M419.11,145a1.45,1.45,0,0,1-1.09-.47,43.63,43.63,0,0,0-4.18-3.86c-3.48-2.82-8.73-7.07-15.77-7.36a19.5,19.5,0,0,0-4.9.45,1.5,1.5,0,0,1-.65-2.93,21.86,21.86,0,0,1,5.67-.51c8,.33,14,5.14,17.54,8a47.33,47.33,0,0,1,4.47,4.14,1.5,1.5,0,0,1-.06,2.12A1.47,1.47,0,0,1,419.11,145Z"/><path class="cls-52" d="M420.14,144.56l20.28-10.22c-6.6-3-14.6-6.35-23.85-9.58a244.46,244.46,0,0,0-24.28-7.12s-8.73-2.15-25.9-2.91c-1.94-.09-5.82-.2-9.06,2.26a10.89,10.89,0,0,0-2.79,3.19l36.84,12.41a28,28,0,0,1,11.27.1C412.82,134.92,418.52,142.31,420.14,144.56Z"/><path class="cls-14" d="M412.3,114.12a38,38,0,0,0-.69,20.06,36.88,36.88,0,0,0,4.1,10,60.32,60.32,0,0,1,1.6-13.22,59.37,59.37,0,0,1,3.42-10.26,25,25,0,0,0,1.14,17.55,23,23,0,0,0,5,6.84q3.76,8.55,7.52,17.1c-.17,3.56-.52,8.78-1.36,15-2.13,15.87-5.51,24.73-4.56,25.07s7.16-10.36,10.26-22.56c.95-3.76,2.76-12.17,2.94-12.13,0,0,0,0,0,.05,0,.8-2.23,17.05-3,22.59a1.91,1.91,0,0,0,1.06,2A18.23,18.23,0,0,0,451,193.77a1.93,1.93,0,0,0,1.56-1.73l1.69-18.88q.43,9,.85,18a1.93,1.93,0,0,0,1.44,1.78,25.21,25.21,0,0,0,19.14-2.46l-6.61-43.08a7.38,7.38,0,0,0,4.33,1.6,7.2,7.2,0,0,0,3.23-.67.75.75,0,0,0,.27-1.18c-1-1.23-2.33-2.91-3.73-5-5.74-8.56-4.83-12-9.34-18.24a31.2,31.2,0,0,0-12.54-10.48A29.62,29.62,0,0,0,439,110.93a25.67,25.67,0,0,0-15-7.06c-8-.79-13.87,2.65-16.64,4.33-9.81,6-13.21,15.67-14.13,18.69a20.62,20.62,0,0,1,6.27-.87c1.48-1.52,3-3.06,4.67-4.6C406.87,118.78,409.62,116.36,412.3,114.12Z"/><g class="cls-49"><path class="cls-43" d="M415.87,131.57a39.9,39.9,0,0,0-1.49,10.17c.44.9.9,1.73,1.33,2.47a60.32,60.32,0,0,1,1.6-13.22c.29-1.21.6-2.37.93-3.47,2.24-5.5,2.6-6.74,2.49-6.79S417.57,125.49,415.87,131.57Z"/><path class="cls-43" d="M410.85,114.7q-4,3.35-8.2,7.29c-1.43,1.36-2.79,2.7-4.11,4h.88c1.48-1.52,3-3.06,4.67-4.6,2.2-2.09,4.37-4,6.51-5.86Z"/><path class="cls-43" d="M438.86,179.25a63,63,0,0,0,2.82-11.61c.7-4.73,1-10.27.6-10.32-.52-.06-1.27,10.6-5,23a109.17,109.17,0,0,1-9,21.4c0,.45.08.56.16.59.87.37,5.67-7.56,8.5-16A57.78,57.78,0,0,0,438.86,179.25Z"/><path class="cls-43" d="M476.88,147.15c-1-1.23-2.33-2.91-3.73-5-5.74-8.56-4.83-12-9.34-18.24a31.2,31.2,0,0,0-12.54-10.48A29.62,29.62,0,0,0,439,110.93a25.67,25.67,0,0,0-15-7.06,24.38,24.38,0,0,0-12.29,2,24.11,24.11,0,0,1,10.85-1.45,25.72,25.72,0,0,1,15,7.07A29.48,29.48,0,0,1,449.83,114a31,31,0,0,1,12.54,10.48c4.51,6.27,3.6,9.68,9.34,18.24a60.34,60.34,0,0,0,3.73,5,.74.74,0,0,1-.1,1.05,7.18,7.18,0,0,0,1.27-.44A.75.75,0,0,0,476.88,147.15Z"/><path class="cls-43" d="M466.26,140.11l8,50.95a27.85,27.85,0,0,1-2.51,1.25,26.1,26.1,0,0,0,4-1.83q-3.3-21.54-6.61-43.08Z"/><path class="cls-43" d="M454.93,163.8l-3.84,28.81a1.87,1.87,0,0,1-.61,1.23l.5-.07a1.93,1.93,0,0,0,1.56-1.73l.73-8.15Q454.1,173.84,454.93,163.8Z"/></g><ellipse class="cls-26" cx="432.09" cy="156.88" rx="8.68" ry="8.91"/><path class="cls-53" d="M439,110.93c0,1.14-.09,3.23-.38,5.82-.56,4.81-2.38,20.64-10.83,32.15a13.44,13.44,0,0,0-3.05,7.45c-.05,1-.2,4.58,2.37,6.77s6.52,1.95,9.14.17a8,8,0,0,0,3.21-4.91,8.19,8.19,0,0,0-.5-4.57c-.72-1.78-1.58-2.14-2.88-4.4a18.18,18.18,0,0,1-1.52-3.38,126.46,126.46,0,0,0,7.27-34.87Z"/><ellipse class="cls-26" cx="432.27" cy="156.83" rx="4.03" ry="4.95" transform="translate(-26.47 125.07) rotate(-15.98)"/><path class="cls-26" d="M433.23,158c-.26.16-.56.34-.82.48l-.61.29c-.4.2-.8.38-1.2.56l-2.39,1.06q-2.38,1.05-4.79,2-4.8,2-9.65,3.87c-3.24,1.24-6.5,2.44-9.81,3.52-.82.28-1.66.55-2.5.79s-1.67.51-2.53.72-1.7.45-2.6.6c-.45.07-.86.19-1.34.22l-1.44.1,0-2,1.15-.12a11.45,11.45,0,0,0,1.2-.23,24.84,24.84,0,0,0,2.43-.63c.81-.21,1.62-.49,2.43-.76s1.62-.53,2.43-.83c3.23-1.14,6.42-2.41,9.6-3.73s6.34-2.67,9.48-4.08c1.58-.7,3.14-1.41,4.7-2.14l2.31-1.1,1.14-.57.55-.28a2.19,2.19,0,0,1,.3-.16Z"/><rect class="cls-26" x="386.41" y="168.83" width="10.05" height="7.92" rx="3.96" transform="translate(-30.95 104.46) rotate(-14.63)"/><path class="cls-51" d="M393.41,139.47c-.29.84-.58,1.68-.89,2.53q-.93,2.59-1.89,5.06c-2.49-1.69-3.61-4-3-5.4.54-1.15,2.34-1.65,3.22-1.9A8.56,8.56,0,0,1,393.41,139.47Z"/></g><g id="Layer_10" data-name="Layer 10"><path class="cls-42" d="M365,99.86a41.91,41.91,0,0,1,6.65-1.61,46.32,46.32,0,0,1,9.47-.41,64.31,64.31,0,0,1,15.11,2.62"/><path class="cls-42" d="M363.35,107.11A41.36,41.36,0,0,1,370,105.5a46.59,46.59,0,0,1,9.47-.4,63.28,63.28,0,0,1,15.11,2.62"/><path class="cls-54" d="M407.47,100.26a34.41,34.41,0,0,0-3.62,7.86,33.88,33.88,0,0,0-1.21,5.24c3.62-4.69,4.83-5.44,5.24-5.2s-.09,1.47.2,3.79c.17,1.42.41,3.34,1.21,3.62,2.39.85,9.45-13.38,10.07-13,.07,0,0,.29,0,.36-1.15,4.75-3.7,10.56-2.22,12.9.77,1.2,2.54,1.35,3.23,1.41,4.46.36,7.88-5.09,9.27-4.16.24.16.3.43.4,1.13a32.23,32.23,0,0,1,.2,6.65,7.08,7.08,0,0,0,3.83-1,7.28,7.28,0,0,0,3-3.62"/><path class="cls-52" d="M421.47,126.43c6.73,2.48,13.09,5.15,18.95,7.91l9-24.51c-5.86-2.76-12.23-5.43-19-7.91-33.68-12.38-63.64-15.18-66.92-6.25l-9,24.51C357.83,111.25,387.79,114.05,421.47,126.43Z"/><path class="cls-40" d="M421.47,126.43c6.73,2.48,13.09,5.15,18.95,7.91l9-24.51c-5.86-2.76-12.23-5.43-19-7.91-33.68-12.38-63.64-15.18-66.92-6.25l-9,24.51C357.83,111.25,387.79,114.05,421.47,126.43Z"/><path class="cls-48" d="M421.47,126.43c6.73,2.48,13.09,5.15,18.95,7.91l9-24.51c-5.86-2.76-12.23-5.43-19-7.91-33.68-12.38-63.64-15.18-66.92-6.25l-9,24.51C357.83,111.25,387.79,114.05,421.47,126.43Z"/></g><g id="Layer_3" data-name="Layer 3"><path class="cls-24" d="M471.83,114.85a140.25,140.25,0,0,1,10.47,14.27,136.92,136.92,0,0,1,7.13,12.48c2.18-.36,15.12-2.72,23.19-14.94,9-13.69,4.38-28.32,3.79-30.09l-19.62-29c-.79.09-19.17,2.66-26.3,19.39C464.64,100.7,470.94,113.17,471.83,114.85Z"/><path class="cls-55" d="M479.36,124.62a28.72,28.72,0,0,0,11.55-15.84,27.39,27.39,0,0,0,.52-12.2,41.54,41.54,0,0,1-9.22,16.49,40.64,40.64,0,0,1-6.88,6Z"/></g><g id="Layer_2" data-name="Layer 2"><path class="cls-24" d="M422.94,59.78c8.88,40.54,29.61,64.85,46.24,63.24,3.1-.3,10.79-2,19.22-14.77,4.7-7.71,11.87-22.32,10.31-40.39A58.68,58.68,0,0,0,497,58.11a40.65,40.65,0,0,0-74.1,1.67Z"/><path class="cls-35" d="M430.29,54.13c-2.78,3.59-6.9,12.18-6,12.78.41.27,1.83-1.13,3-2.39,4.22,4.58,8.34,6.61,10.18,5.39.39-.26,1.19-1,1.2-3.4-.82-5.56-.22-7.23.6-7.59,2.51-1.06,7,10.2,17.57,12.78,2.84.69,6.73.91,7.11-.13s-3.19-3.37-3.12-3.46,4.06,3.16,7.59,5.19c8.08,4.63,10.81,1,19,4.59,7.71,3.36,8.49,8,17.37,10.38a30,30,0,0,0,6,1q-6-12.08-12-24.16L482.39,50.74C478.44,49.57,441.9,39.16,430.29,54.13Z"/><path class="cls-56" d="M457.7,62.5a27.56,27.56,0,0,1,8.46,8c.81,1.21,2.27,3.65,3.55,3.39,1-.2,1-1.74,2-2.2.91-.4,2.49,0,5.41,3,9.39-2.15,13.47-.59,15.4,1.53s2.88,6.28,6.94,7.78c1.16.43,1,.07,2.2.51,3.93,1.46,4.15,5,8.46,7.61.63.39,2.69,1.64,3.38,1s-.35-2.63-1.35-4.91c-2.39-5.4-3.81-11.18-5.76-16.75-.43-1.23-1.08-3.1-1.86-5.42a32.11,32.11,0,0,0-14.72-10.32C473.43,50.34,459,61.44,457.7,62.5Z"/><path class="cls-17" d="M419.13,50.75a10.79,10.79,0,0,1-2.69-6.86c0-6,6-10.32,6.86-9.79.59.37-1.35,3.09,0,5.39,0,0,.09.15,1.71,2.2h0a45.4,45.4,0,0,1,35.27-21.8c-2.72,2.8-3,3.92-2.7,4.41.58.95,3.29-.46,10.05-1.71,7.65-1.43,9.07-.53,12.73-2.45,1-.52,2.49-1.43,2.94-1s-.23,2.07-1.22,3.18c-1.14,1.26-2.19,1.28-2.21,1.72-.06,1.13,7.11,1,12.74,4.16,7.37,4.18,10.66,13.3,9.79,14-.3.23-1.41-.39-4.65-3.67A61.43,61.43,0,0,1,505.83,51c6.18,12.71,7.48,26.72,5.39,27.43-1.8.6-6.55-8.54-7.35-8.09-.45.26,1.16,3.16.49,3.68-1.1.85-5.53-7.13-13.22-9.31C485,63,482.36,66.45,473,66.43A39.9,39.9,0,0,1,459.54,64c.57,1,1.48,2.54,2.7,4.41,1.39,2.12,1.95,2.76,1.71,3.18-.51.92-4.48.05-7.83-1.47-8.53-3.87-11.11-11-13.72-10-1.55.57-2,3.61-2,5.39.16,3.21,2.35,4.67,1.72,5.63-.8,1.2-5.07.14-8.22-1.66a18.14,18.14,0,0,1-6.72-6.91c-.68,1.65-1.69,4.24-2.8,7.47-1.37,4-1.57,5.17-2.24,5.23-1.54.14-3.94-5.81-4.1-11.58a23,23,0,0,1,1.05-7.49,14.25,14.25,0,0,0-2.73-1.09c-3.45-1-5.43-.16-5.79-.94-.44-1,1.89-3.73,4.85-4.1A6.14,6.14,0,0,1,419.13,50.75Z"/><path class="cls-57" d="M413.62,50.93a6.14,6.14,0,0,1,3.67.74A12,12,0,0,1,416.07,50c-.2,0-.4,0-.61,0a6.36,6.36,0,0,0-2.86,1.15A5,5,0,0,1,413.62,50.93Z"/><path class="cls-57" d="M421.46,35c.58.37-1.35,3.09,0,5.39,0,0,.09.16,1.71,2.2.32-.52.71-1.13,1.15-1.79-.95-1.21-1-1.33-1-1.33-1.35-2.3.59-5,0-5.39-.27-.17-1.08.16-2,.88A.4.4,0,0,1,421.46,35Z"/><path class="cls-57" d="M442.7,25a45.54,45.54,0,0,1,15.74-4.19c-2.72,2.8-3,3.92-2.7,4.41.58,1,3.29-.46,10.05-1.71,7.65-1.43,9.07-.53,12.73-2.45l.79-.42c-3,1.26-4.8.67-11.68,1.95s-9.47,2.66-10.05,1.71c-.29-.49,0-1.61,2.7-4.41A45.56,45.56,0,0,0,442.7,25Z"/><path class="cls-57" d="M481.46,20.08c.44.43-.23,2.07-1.22,3.18S478.05,24.54,478,25c-.06,1.14,7.11,1,12.74,4.16A22.79,22.79,0,0,1,500.35,41c1.29,1.13,1.85,1.35,2,1.2.87-.66-2.42-9.78-9.79-14-5.63-3.19-12.8-3-12.74-4.16,0-.44,1.07-.46,2.21-1.72,1-1.11,1.66-2.75,1.22-3.18s-2,.46-2.94,1l0,0C480.82,20,481.25,19.87,481.46,20.08Z"/><path class="cls-57" d="M505.83,51a60.53,60.53,0,0,0-5.17-8.71c.06.42,0,.71-.1.81-.3.23-1.41-.39-4.65-3.67A61.43,61.43,0,0,1,504,51.92c5.18,10.65,6.93,22.21,6.13,26.09.43.35.8.52,1.1.42C513.31,77.72,512,63.71,505.83,51Z"/><ellipse class="cls-24" cx="487.39" cy="69.18" rx="8.99" ry="10.52"/><ellipse class="cls-58" cx="485.27" cy="71.7" rx="12.09" ry="11.42"/><path class="cls-59" d="M458.82,24.07a.58.58,0,0,0-.27,1A61.26,61.26,0,0,1,464.73,31a61.85,61.85,0,0,1,15.15,30.18c-3.64,7.48-1.57,14.77,2.6,16.85,3.27,1.63,8.72.5,10.52-2.94,1.88-3.61-1.17-8.06-2.15-9.5a15.19,15.19,0,0,0-6.33-5.2c-1.86-9.53-6.25-22.94-17.41-33.58q-1.26-1.19-2.52-2.25a4.16,4.16,0,0,0-3.4-.91Z"/><path class="cls-8" d="M483.29,76.79c-4.17-2.07-6.24-9.37-2.6-16.84a62.09,62.09,0,0,0-15.15-30.19,61.07,61.07,0,0,0-6.1-5.81l-.62.12a.58.58,0,0,0-.27,1A61.26,61.26,0,0,1,464.73,31a61.85,61.85,0,0,1,15.15,30.18c-3.64,7.48-1.57,14.77,2.6,16.85,3.27,1.63,8.73.5,10.52-2.94a.75.75,0,0,1,.06-.13A8.85,8.85,0,0,1,483.29,76.79Z"/><ellipse class="cls-26" cx="486.35" cy="70.42" rx="4.35" ry="4.78" transform="translate(13.8 205.29) rotate(-24.17)"/><path class="cls-26" d="M487.78,71a170.51,170.51,0,0,1-28.06,46.13l-1.53-1.28a168,168,0,0,0,26.72-46Z"/><rect class="cls-26" x="452.68" y="113.01" width="8.62" height="11.92" rx="3.48" transform="translate(187.78 -268.99) rotate(40.65)"/></g><g id="Layer_4" data-name="Layer 4"><path class="cls-60" d="M486.8,139.5,484,134.77a12.94,12.94,0,0,0,3.55-1.16,13.85,13.85,0,0,0,4.88-4.18c5.85-7.51,7.67-11.15,7.67-11.15A261.75,261.75,0,0,0,511.24,91a2.12,2.12,0,0,1,3.32-1,58.52,58.52,0,0,1,5.55,5,56.19,56.19,0,0,1,5.58,6.74c4.1.64,46.39,7.8,56.9,38.33a43.59,43.59,0,0,1,2.33,14.63,425.84,425.84,0,0,0-11,113.94,420.45,420.45,0,0,0,5.18,51.46l-120.46-.46c-1.58-24.84-2.16-51.63-1.19-80.13q.72-20.85,2.37-40.27L461,183.72A52.4,52.4,0,0,1,475.11,152C479.34,147.5,482.57,144,486.8,139.5Z"/><path class="cls-61" d="M486.8,139.5,484,134.77a12.94,12.94,0,0,0,3.55-1.16,13.85,13.85,0,0,0,4.88-4.18c5.85-7.51,7.67-11.15,7.67-11.15A261.75,261.75,0,0,0,511.24,91a2.12,2.12,0,0,1,3.32-1,58.52,58.52,0,0,1,5.55,5,56.19,56.19,0,0,1,5.58,6.74c4.1.64,46.39,7.8,56.9,38.33a43.59,43.59,0,0,1,2.33,14.63,425.84,425.84,0,0,0-11,113.94,420.45,420.45,0,0,0,5.18,51.46l-120.46-.46c-1.58-24.84-2.16-51.63-1.19-80.13q.72-20.85,2.37-40.27L461,183.72A52.4,52.4,0,0,1,475.11,152C479.34,147.5,482.57,144,486.8,139.5Z"/><path class="cls-62" d="M486.8,139.5,484,134.77a12.94,12.94,0,0,0,3.55-1.16,13.85,13.85,0,0,0,4.88-4.18c5.85-7.51,7.67-11.15,7.67-11.15A261.75,261.75,0,0,0,511.24,91a2.12,2.12,0,0,1,3.32-1,58.52,58.52,0,0,1,5.55,5,56.19,56.19,0,0,1,5.58,6.74c4.1.64,46.39,7.8,56.9,38.33a43.59,43.59,0,0,1,2.33,14.63,425.84,425.84,0,0,0-11,113.94,420.45,420.45,0,0,0,5.18,51.46l-120.46-.46c-1.58-24.84-2.16-51.63-1.19-80.13q.72-20.85,2.37-40.27L461,183.72A52.4,52.4,0,0,1,475.11,152C479.34,147.5,482.57,144,486.8,139.5Z"/><path class="cls-63" d="M514.56,90a2.12,2.12,0,0,0-3.32,1c21.77,13.29-6.61,46.64-6.61,46.64a125.84,125.84,0,0,1,25.61-24.32c2.47-1.72,8-5.38,7.21-7.84,0,0-.42-1.38-11.76-3.67h0a56.19,56.19,0,0,0-5.58-6.74A58.52,58.52,0,0,0,514.56,90Z"/><path class="cls-9" d="M584.92,154.75a43.59,43.59,0,0,0-2.33-14.63c-10.51-30.53-52.8-37.69-56.9-38.33a56.19,56.19,0,0,0-5.58-6.74,58.52,58.52,0,0,0-5.55-5,2.12,2.12,0,0,0-3.32,1l0,.08a2,2,0,0,1,1.13.43,58,58,0,0,1,11.13,11.78c4.09.64,46.39,7.8,56.9,38.33a43.63,43.63,0,0,1,2.33,14.63,425.43,425.43,0,0,0-11.05,113.94,420.7,420.7,0,0,0,5,50h2.45a420.45,420.45,0,0,1-5.18-51.46A425.84,425.84,0,0,1,584.92,154.75Z"/><path class="cls-64" d="M468,175.9a63,63,0,0,1,11.8-19.66c5.46-6.09,9.68-8.3,9.27-12.36a7.46,7.46,0,0,0-2.31-4.38c-4.23,4.5-7.46,8-11.69,12.49A52.4,52.4,0,0,0,461,183.72l-1.26,15.57q-1.18,14.31-1.92,29.42l.35.29c1.25-8.07,4.49-28.75,7.59-44.67A54,54,0,0,1,468,175.9Z"/><path class="cls-65" d="M490,132.3s4.19,5.25,3.5,10.49-14.69,75.2-6.3,167.88"/></g><g id="Layer_5" data-name="Layer 5"><path class="cls-61" d="M520.55,131.21c-10,15.66-10.62,57.64-.54,110.77,0,24.67,11,44,25.93,48a27,27,0,0,0,19.84-2.59c9.32-5.32,14.81-16.33,14.45-28.69,3.08-24.12,4.89-44.88,6-61.25,1.64-23.89,1.65-36.75-3.26-52.12-3.62-11.34-8.13-24.78-20.63-29.86-13.83-5.63-28.34,2.68-29.32,3.26A42.05,42.05,0,0,0,520.55,131.21Z"/><path class="cls-66" d="M538.58,173.93c-.06,4.27-.58,35.92-2.88,48.27a14.93,14.93,0,0,1-2.1,5.51c-3.62,5.67-10.51,7.47-14.69,8.13"/><path class="cls-66" d="M544.62,175.24c-.69,22.91-2,40.3-3.15,47.75a18.37,18.37,0,0,1-3.41,8.66,19.38,19.38,0,0,1-7.87,5.77,24.77,24.77,0,0,1-10.5,2.1"/><path class="cls-66" d="M558.26,171.57c-3.89,37.79-4.93,65.76-4.2,74.24A48.51,48.51,0,0,0,558,261a39,39,0,0,0,3.41,5.77"/><path class="cls-66" d="M554.32,242.66c2.84.09,5.09.19,6.56.27,3,.15,4.26.26,5.51-.53,1-.63,1.59-1.55,2.36-3.41a34.52,34.52,0,0,0,2.36-9.18"/><path class="cls-67" d="M519,236.34l-.16-1c6.76-1.07,11.72-3.8,14.35-7.91a14.65,14.65,0,0,0,2-5.33c2.22-11.93,2.78-42.23,2.87-48.19l1,0c-.09,6-.66,36.35-2.89,48.35A15.7,15.7,0,0,1,534,228C531.24,232.34,526,235.23,519,236.34Z"/><path class="cls-67" d="M520.19,240h-.5l0-1A24.07,24.07,0,0,0,530,237a18.71,18.71,0,0,0,7.68-5.62,17.61,17.61,0,0,0,3.32-8.43c1.28-8.24,2.52-26.95,3.14-47.68l1,0c-.62,20.77-1.86,39.53-3.16,47.81a18.59,18.59,0,0,1-3.5,8.88,20,20,0,0,1-8.07,5.93A24.91,24.91,0,0,1,520.19,240Z"/><path class="cls-67" d="M561,267.09a40.35,40.35,0,0,1-3.45-5.84,49.37,49.37,0,0,1-4-15.39c-.78-9.1.42-37.55,4.2-74.34l1,.1c-3.74,36.34-5,65.32-4.2,74.15a48.34,48.34,0,0,0,3.89,15,39.28,39.28,0,0,0,3.36,5.7Z"/><path class="cls-67" d="M563.62,243.53c-.64,0-1.4,0-2.32-.08l-.44,0c-1.47-.08-3.72-.18-6.55-.26l0-1c2.84.08,5.1.18,6.57.26l.44,0c2.63.13,3.72.19,4.78-.47.85-.54,1.4-1.34,2.16-3.18a34.38,34.38,0,0,0,2.33-9.05l1,.12a35.09,35.09,0,0,1-2.4,9.31c-.74,1.79-1.36,2.9-2.55,3.65A5.24,5.24,0,0,1,563.62,243.53Z"/><path class="cls-46" d="M554.19,111.55c-1.72-.57-3.46-1.12-5.21-1.67q-7.38-2.31-14.52-4.25a11.85,11.85,0,0,1-1.23,3.89,12.83,12.83,0,0,1-4.26,4.63,126.27,126.27,0,0,0-12.51,10,77.7,77.7,0,0,0-11.83,13.5c4.44-.18,6.57,1.1,7.69,2.31,4.32,4.66-1.41,13.56-.15,30.28.18,2.33.45,4.25.65,5.53a28,28,0,0,0,8.82,4.18,30.7,30.7,0,0,0,14.59,0c20.25-3.93,25.59-6.38,35.44-7.15a74.39,74.39,0,0,1,16.91.65A66.25,66.25,0,0,0,584,142.25c-2.4-5.86-6.4-15.54-16.35-23.32A47.68,47.68,0,0,0,554.19,111.55Z"/><path class="cls-16" d="M566.74,172.46c-9.85.76-15.19,3.22-35.44,7.15a40.5,40.5,0,0,1-7.07.87,32.65,32.65,0,0,0,12-.52c20.25-3.93,25.59-6.38,35.44-7.15a71.65,71.65,0,0,1,8.35-.15A72.86,72.86,0,0,0,566.74,172.46Z"/><path class="cls-16" d="M584,142.25c-3.38-10.16-7.35-22.12-18.53-28a28.79,28.79,0,0,0-9.1-2.93c-.52,0-1.27.09-2.2.19a27.48,27.48,0,0,1,6.37,2.39c11.17,5.84,15.15,17.8,18.53,28a90.92,90.92,0,0,1,4.56,31c1.56.13,3.2.32,4.93.58A91.14,91.14,0,0,0,584,142.25Z"/><path class="cls-61" d="M523.42,148.62,574.08,129a6,6,0,0,1,7.44,2.73l1.81,3.34a6,6,0,0,1-1.66,7.66,113.55,113.55,0,0,1-17.29,10.62A115.83,115.83,0,0,1,521.86,165a3.37,3.37,0,0,1-3.57-3.95c.46-2.63.93-5.26,1.39-7.88A6,6,0,0,1,523.42,148.62Z"/><path class="cls-8" d="M583.33,135.08l-1.81-3.34a6.12,6.12,0,0,0-1.43-1.74l.07.11,1.82,3.35a6,6,0,0,1-1.66,7.66A112.76,112.76,0,0,1,563,151.73a115.63,115.63,0,0,1-42.52,11.65,3.25,3.25,0,0,1-2-.5,3.34,3.34,0,0,0,3.36,2.13,115.83,115.83,0,0,0,42.52-11.65,113.55,113.55,0,0,0,17.29-10.62A6,6,0,0,0,583.33,135.08Z"/><path class="cls-61" d="M521.61,141.18a1.49,1.49,0,0,0,1.86,1.78,154.43,154.43,0,0,0,27.65-10.71,155,155,0,0,0,16.37-9.54,3.75,3.75,0,0,0,.24-6.06l-3.46-2.75a3.75,3.75,0,0,0-3.86-.48L527,128.4a3.74,3.74,0,0,0-1.94,2,70.14,70.14,0,0,0-2.38,6.71C522.28,138.52,521.92,139.88,521.61,141.18Z"/><path class="cls-8" d="M567.73,116.65l-3.46-2.75a3.68,3.68,0,0,0-1.34-.67l3.07,2.44a3.75,3.75,0,0,1-.24,6,155,155,0,0,1-16.37,9.54A154.43,154.43,0,0,1,521.74,142l-.1,0a1.5,1.5,0,0,0,1.83,1,154.43,154.43,0,0,0,27.65-10.71,155,155,0,0,0,16.37-9.54A3.75,3.75,0,0,0,567.73,116.65Z"/><path class="cls-68" d="M563.49,211.6a29.06,29.06,0,0,0,19.08,27.3c1.72-15.81,2.88-29.75,3.68-41.45.36-5.28.64-10,.81-14.38A29.06,29.06,0,0,0,563.49,211.6Z"/><path class="cls-69" d="M587.06,183.07a29.06,29.06,0,0,0-4.49,55.83"/><path class="cls-70" d="M518.23,232.16a52.68,52.68,0,0,1,31.87,9.92L520,242C519.42,238.7,518.82,235.43,518.23,232.16Z"/></g><g id="Layer_7" data-name="Layer 7"><path class="cls-11" d="M381.75,259.57a4.63,4.63,0,0,1-3.2-1.26L317,200.67a6.79,6.79,0,0,1-1.92-6.86,3.44,3.44,0,0,1,.67-1.36s1.3-1.4,1-2.2h0c1.6-.73,4.44.82,6.63,3.75l62.92,58.69a1.06,1.06,0,0,1,.35.74C386.85,257.5,384.31,259.57,381.75,259.57Z"/><path class="cls-14" d="M381.75,255.59a4.63,4.63,0,0,1-3.2-1.26L317,196.89a4.69,4.69,0,0,1,6.4-6.87L385,247.46a4.7,4.7,0,0,1-3.2,8.13Z"/><path class="cls-46" d="M386.42,251.17a4.67,4.67,0,0,0-1.47-3.71L323.37,190a4.64,4.64,0,0,0-3.8-1.2Z"/></g><g id="Layer_6" data-name="Layer 6"><path class="cls-61" d="M533.4,241.67c-2.48,0-7.32-.08-13.39.31-29,1.84-42.31,10.43-74.8,15-3.66.51-9.91,1.3-17.86,1.82q.16,15.89.31,31.77a420.92,420.92,0,0,0,72.62,3.63A423.09,423.09,0,0,0,545.94,290c16.31-5.37,23.41-23.05,17.58-35.46C558.86,244.6,546.22,238.65,533.4,241.67Z"/><path class="cls-13" d="M550.49,276.35l-6.37,15.39a.84.84,0,0,0,.82,1.14l18.67-.13a.9.9,0,0,0,.63-.26l18.33-18.88a.81.81,0,0,0,.23-.6l-.88-18.64a.88.88,0,0,0-1.22-.73l-16.34,6.68a.86.86,0,0,0-.33.23l-13.41,15.58A1,1,0,0,0,550.49,276.35Z"/><path class="cls-71" d="M547.83,272l12.41-13.56a1.34,1.34,0,0,1,1.91-.06l9.61,9.16a1.34,1.34,0,0,0,1.35.3l3.63-1.23,3.79-1.28a1.34,1.34,0,0,1,1.77,1.26l0,3.18s0,3.23,0,4.5a1.36,1.36,0,0,1-.34.9q-7.83,8.9-15.67,17.8a1.31,1.31,0,0,1-.94.46l-4.26.2-3.72.17a1.34,1.34,0,0,1-1.34-1.75l1.38-4.22c.47-1.42.93-2.84,1.4-4.26a1.36,1.36,0,0,0-.45-1.47L548,274A1.34,1.34,0,0,1,547.83,272Z"/><path class="cls-72" d="M565.94,291.61l-6.8-7.79s7.88-12.6,13.67-16.24l8.2,6"/><path class="cls-43" d="M375.64,242.73a16.37,16.37,0,0,1-7.41-5.43c-2.26-3-4.08-7.88-2.55-9.26,1.17-1.06,3.76.48,7.79,2.14,8.08,3.33,8.81,1.73,16.36,4.44,5.09,1.82,16.3,5.85,22.77,14.37a19.52,19.52,0,0,0,5,5c.91.6,3.81,2.4,9.93,3.21a42.05,42.05,0,0,0,11.13,0c7.78-1.09,26-5.39,49.86-12.28a3.78,3.78,0,0,1,3.4.67l37.29,29.87a3.76,3.76,0,0,1,.16,5.74L513.5,295.49a3.78,3.78,0,0,1-2.25,1,337,337,0,0,1-45,.11A336.45,336.45,0,0,1,413.68,289c-4.14-.58-9.67-1.41-16.2-2.52-12.53-2.14-15.3-3-18.05-4.93-2.49-1.7-6.83-5.48-9.47-13.75a13.18,13.18,0,0,1-5.12-9.34,8.82,8.82,0,0,1-3.14-2,9.11,9.11,0,0,1-2.57-6c-1.24-1.66-4.71-6.35-8.28-11.58-.61-.89-1.66-2.48-1.23-4.14a4.38,4.38,0,0,1,2-2.44c4-2.31,15.24,8.93,16.62,10.34Z"/><path class="cls-61" d="M367,229.49c8.95,3.68,9.76,1.9,18.12,4.91,5.64,2,18.06,6.48,25.23,15.91a21.41,21.41,0,0,0,5.59,5.59c1,.67,4.22,2.66,11,3.56a46.37,46.37,0,0,0,12.32,0c8.44-1.19,28-5.78,53.59-13.14l-.87-.69a3.78,3.78,0,0,0-3.4-.67c-23.83,6.89-42.08,11.19-49.86,12.28a42.05,42.05,0,0,1-11.13,0c-6.12-.81-9-2.61-9.93-3.21a19.52,19.52,0,0,1-5-5c-6.47-8.52-17.68-12.55-22.77-14.37-7.55-2.71-8.28-1.11-16.36-4.44-4-1.66-6.62-3.2-7.79-2.14a1.57,1.57,0,0,0-.43.7C365.8,229,366.38,229.23,367,229.49Z"/><path class="cls-39" d="M375.64,242.73l-1.85,0A8.14,8.14,0,0,0,375.64,242.73Z"/><path class="cls-39" d="M372.72,238.3a116.17,116.17,0,0,1-5.64-10.58,1.68,1.68,0,0,0-1.4.32c-1.53,1.38.29,6.23,2.55,9.26a16.37,16.37,0,0,0,7.41,5.43l15,3.33S374.78,241.31,372.72,238.3Z"/><path class="cls-39" d="M381.43,261.27a12.77,12.77,0,0,0,5.22-1.75,13.55,13.55,0,0,1-3.95-.16c-2.45-.45-3.33-1.31-6.66-2.53-2.63-1-2.4-.54-4.75-1.42a54,54,0,0,1-6.33-3.17c-1.43-.74-3.53-1.77-6.18-2.85l-.31.21c.26.35.48.65.66.88a9.16,9.16,0,0,0,.38,2.25c.76.22,1.58.47,2.44.77C371.56,256.88,375.06,261.86,381.43,261.27Z"/><path class="cls-39" d="M377.67,268.69l-12.83-10.24a14.32,14.32,0,0,0,.43,2.36l13.62,8.85Z"/><path class="cls-39" d="M370,267.79a33.07,33.07,0,0,0,1.44,3.73l9.71,5.11Z"/></g><g id="Layer_73" data-name="Layer 73"><g class="cls-73"><path class="cls-74" d="M429.7,240.55v-.86a.44.44,0,0,1,.28-.42.34.34,0,0,1,.17,0h4.66a.89.89,0,0,1,.65.34c.21.24.4.5.62.74a.78.78,0,0,1,.15.76c0,.12-.15.21-.22.32a2,2,0,0,1-.29.36,2.29,2.29,0,0,1-.57.55,1,1,0,0,1-.37.09h-4.6a.52.52,0,0,1-.35-.12.49.49,0,0,1-.13-.34l0-.73H428.6a.34.34,0,0,1-.22-.07.33.33,0,0,1-.13-.31.29.29,0,0,1,.11-.19.4.4,0,0,1,.23-.08Z"/><path d="M432.11,242.48h-1.93a.56.56,0,0,1-.41-.15.58.58,0,0,1-.15-.39l0-.65h-1a.43.43,0,0,1-.43-.48.43.43,0,0,1,.14-.23.45.45,0,0,1,.28-.1h1v-.79a.51.51,0,0,1,.33-.49.45.45,0,0,1,.2,0h4.66a.93.93,0,0,1,.7.37c.11.12.21.24.31.37l.32.37a.9.9,0,0,1,.17.83.61.61,0,0,1-.15.24l-.08.1a3.15,3.15,0,0,1-.3.38l-.15.17a1.41,1.41,0,0,1-.45.39,1,1,0,0,1-.4.1Zm-3.52-1.85a.28.28,0,0,0-.18.06.29.29,0,0,0-.08.14.26.26,0,0,0,.1.24.29.29,0,0,0,.17.05h1.07s.07,0,.08.08l0,.72a.4.4,0,0,0,.1.29.43.43,0,0,0,.3.1h4.6a.84.84,0,0,0,.33-.08,1.33,1.33,0,0,0,.4-.35l.16-.18a3,3,0,0,0,.28-.36.48.48,0,0,1,.09-.11.47.47,0,0,0,.12-.18.72.72,0,0,0-.14-.69c-.11-.12-.22-.25-.32-.38l-.3-.35a.76.76,0,0,0-.59-.32h-4.66a.25.25,0,0,0-.13,0,.37.37,0,0,0-.24.35v.86a.06.06,0,0,1,0,.06l-.05,0h-1.11Z"/><path class="cls-75" d="M428.45,245.89H427.4a.35.35,0,0,1-.34-.35.35.35,0,0,1,.4-.32h1l0-.76a.44.44,0,0,1,.05-.25.62.62,0,0,1,.47-.29h4.24a.33.33,0,0,1,.19.06.34.34,0,0,1,.05.5c-.21.25-.43.5-.63.75s-.34.46-.52.68-.22.25-.33.38-.16.22-.25.32a1.76,1.76,0,0,1-.53.44,1.37,1.37,0,0,1-.49.09H429a.52.52,0,0,1-.55-.54Z"/><path class="cls-76" d="M428.45,245.89H427.4a.35.35,0,0,1-.34-.35.35.35,0,0,1,.4-.32h1l0-.76a.44.44,0,0,1,.05-.25.62.62,0,0,1,.47-.29h4.24a.33.33,0,0,1,.19.06.34.34,0,0,1,.05.5c-.21.25-.43.5-.63.75s-.34.46-.52.68-.22.25-.33.38-.16.22-.25.32a1.76,1.76,0,0,1-.53.44,1.37,1.37,0,0,1-.49.09H429a.52.52,0,0,1-.55-.54Z"/><path class="cls-77" d="M431.09,237.68H429a.63.63,0,0,1-.37-.1.47.47,0,0,1-.2-.4c0-.2,0-.39,0-.59s0-.14-.14-.14h-.86a.48.48,0,0,1-.34-.13.27.27,0,0,1,.13-.45.83.83,0,0,1,.27,0h.81c.12,0,.13,0,.13-.14a4.42,4.42,0,0,0,0-.63c0-.38.25-.54.56-.55s.65,0,1,0,.49,0,.73,0a1,1,0,0,1,.85.39l.83,1,.79.93.28.35a.38.38,0,0,1,0,.37c-.05.12-.16.14-.28.14h-2.13Z"/><path d="M431.09,237.68H429a.63.63,0,0,1-.37-.1.47.47,0,0,1-.2-.4c0-.2,0-.39,0-.59s0-.14-.14-.14h-.86a.48.48,0,0,1-.34-.13.27.27,0,0,1,.13-.45.83.83,0,0,1,.27,0h.81c.12,0,.13,0,.13-.14a4.42,4.42,0,0,0,0-.63c0-.38.25-.54.56-.55s.65,0,1,0,.49,0,.73,0a1,1,0,0,1,.85.39l.83,1,.79.93.28.35a.38.38,0,0,1,0,.37c-.05.12-.16.14-.28.14h-2.13Zm0-.17h2a.57.57,0,0,0,.13,0c.06,0,.14,0,.16-.08s0-.12-.06-.17l-1-1.17c-.31-.37-.61-.75-.93-1.12a.69.69,0,0,0-.6-.27h-.45c-.41,0-.82,0-1.23,0s-.52.1-.49.5a3.65,3.65,0,0,1,0,.47v.08c0,.24,0,.25-.25.25h-1c-.11,0-.17,0-.17.14s.05.13.17.14h1c.19,0,.22,0,.23.23v.68a.29.29,0,0,0,.2.3.42.42,0,0,0,.19,0Z"/><path class="cls-23" d="M434.62,247.14h-1.53a.3.3,0,0,1-.32-.2.33.33,0,0,1,.07-.33c.23-.29.47-.56.71-.85l1.15-1.42.81-1,.88-1.08c.23-.29.47-.57.71-.85.1-.12.2-.23.3-.36a.34.34,0,0,0,0-.52c-.09-.12-.19-.23-.28-.34l-.53-.65-1.09-1.31c-.62-.75-1.23-1.5-1.84-2.26-.26-.31-.53-.62-.79-.94a.62.62,0,0,1-.12-.26.28.28,0,0,1,.25-.29h3a1.11,1.11,0,0,1,.9.44l.73.9,1,1.25.61.73,1.21,1.47.89,1.08a.63.63,0,0,1,0,.91L440,243c-.39.48-.77,1-1.16,1.43L437.47,246l-.53.67a1.08,1.08,0,0,1-.89.45Z"/><path class="cls-23" d="M444.74,247.14h-1.43a.94.94,0,0,1-.71-.3c-.25-.27-.48-.56-.72-.85l-1.51-1.83a1.24,1.24,0,0,1-.14-.18.18.18,0,0,1,0-.29c.33-.41.66-.83,1-1.24l.75-.91c.13-.15.24-.15.37,0l1.67,2,1.4,1.69c.37.45.74.91,1.12,1.36a.46.46,0,0,1,.08.13c0,.17,0,.27-.17.35a.58.58,0,0,1-.23,0Z"/><path class="cls-23" d="M444.75,234.5h1.5a.53.53,0,0,1,.25.05.26.26,0,0,1,.09.4,4.29,4.29,0,0,1-.28.35L444.93,237l-1.57,1.93-1,1.18c-.16.19-.25.19-.4,0l-1.21-1.47c-.18-.21-.35-.43-.52-.65s-.11-.2,0-.32c.26-.33.53-.64.79-1s.64-.77,1-1.16.4-.48.61-.71a.89.89,0,0,1,.67-.31Z"/><path d="M434.62,247.14h-1.53a.3.3,0,0,1-.32-.2.33.33,0,0,1,.07-.33c.23-.29.47-.56.71-.85l1.15-1.42.81-1,.88-1.08c.23-.29.47-.57.71-.85.1-.12.2-.23.3-.36a.34.34,0,0,0,0-.52c-.09-.12-.19-.23-.28-.34l-.53-.65-1.09-1.31c-.62-.75-1.23-1.5-1.84-2.26-.26-.31-.53-.62-.79-.94a.62.62,0,0,1-.12-.26.28.28,0,0,1,.25-.29h3a1.11,1.11,0,0,1,.9.44l.73.9,1,1.25.61.73,1.21,1.47.89,1.08a.63.63,0,0,1,0,.91L440,243c-.39.48-.77,1-1.16,1.43L437.47,246l-.53.67a1.08,1.08,0,0,1-.89.45Zm0-12.49H433c-.11,0-.15.07-.12.19a.24.24,0,0,0,.06.11l1.39,1.69c.28.33.56.66.83,1l2,2.4.39.5a.42.42,0,0,1,0,.54.76.76,0,0,1-.11.14c-.13.17-.27.33-.41.5l-1.23,1.48-.87,1.07-.84,1L433,246.68a.18.18,0,0,0-.05.23.27.27,0,0,0,.19.07h3a.79.79,0,0,0,.62-.25c.17-.18.32-.37.48-.56l1.35-1.66.71-.85.89-1.08c.39-.48.8-.94,1.17-1.43.21-.27.22-.34,0-.66l0,0-1.3-1.58L438.4,237l-1.63-2a.89.89,0,0,0-.7-.33Z"/><path d="M444.74,247.14h-1.43a.94.94,0,0,1-.71-.3c-.25-.27-.48-.56-.72-.85l-1.51-1.83a1.24,1.24,0,0,1-.14-.18.18.18,0,0,1,0-.29c.33-.41.66-.83,1-1.24l.75-.91c.13-.15.24-.15.37,0l1.67,2,1.4,1.69c.37.45.74.91,1.12,1.36a.46.46,0,0,1,.08.13c0,.17,0,.27-.17.35a.58.58,0,0,1-.23,0Zm0-.16h1.45a.68.68,0,0,0,.2,0c.11,0,.14-.1.07-.2l-.1-.15-.47-.57L444,243.75l-1.71-2.07c-.1-.12-.13-.12-.24,0-.42.51-.85,1-1.27,1.54-.14.16-.26.34-.4.5s-.08.13,0,.22c.38.45.75.91,1.12,1.36l.65.8c.16.19.33.38.49.58a.86.86,0,0,0,.69.29Z"/><path d="M444.75,234.5h1.5a.53.53,0,0,1,.25.05.26.26,0,0,1,.09.4,4.29,4.29,0,0,1-.28.35L444.93,237l-1.57,1.93-1,1.18c-.16.19-.25.19-.4,0l-1.21-1.47c-.18-.21-.35-.43-.52-.65s-.11-.2,0-.32c.26-.33.53-.64.79-1s.64-.77,1-1.16.4-.48.61-.71a.89.89,0,0,1,.67-.31Zm-4.46,3.3.82,1,.94,1.13c.12.14.13.15.24,0l1.2-1.45,1.22-1.47,1.64-2a1.13,1.13,0,0,0,.1-.13c.08-.14.05-.22-.11-.25h-3.09a.67.67,0,0,0-.56.25l-.59.7-1.54,1.85C440.47,237.57,440.39,237.69,440.29,237.8Z"/></g></g></g></svg>